<svg version="1.1" xmlns="http://www.w3.org/2000/svg" viewBox="0 0 720.7141985212053 691.5595223563058" width="720.7141985212053" height="691.5595223563058">
  <!-- svg-source:excalidraw -->
  
  <defs>
    <style>
      @font-face {
        font-family: "Virgil";
        src: url("https://excalidraw.com/Virgil.woff2");
      }
      @font-face {
        font-family: "Cascadia";
        src: url("https://excalidraw.com/Cascadia.woff2");
      }
    </style>
  </defs>
  <rect x="0" y="0" width="720.7141985212053" height="691.5595223563058" fill="#ffffff"></rect><g stroke-linecap="round" transform="translate(86.73799787248879 112.39285278320308) rotate(0 102.66667175292969 48.333317347935264)"><path d="M24.17 0 M24.17 0 C62.91 1.34, 99.03 0.7, 181.17 0 M24.17 0 C63.2 0.56, 102.18 1.32, 181.17 0 M181.17 0 C197.35 -0.42, 204.78 9.23, 205.33 24.17 M181.17 0 C198.9 0.97, 206.43 9.99, 205.33 24.17 M205.33 24.17 C203.88 36.62, 207.72 49.44, 205.33 72.5 M205.33 24.17 C206.11 36.69, 205.44 47.37, 205.33 72.5 M205.33 72.5 C206.04 89.43, 196.86 98.59, 181.17 96.67 M205.33 72.5 C207.5 88, 198.29 96.56, 181.17 96.67 M181.17 96.67 C146.43 99.31, 112.53 97.94, 24.17 96.67 M181.17 96.67 C139.28 96.48, 99.78 96.12, 24.17 96.67 M24.17 96.67 C6.31 95.07, 1.32 87.53, 0 72.5 M24.17 96.67 C9.25 96.32, -0.87 88.93, 0 72.5 M0 72.5 C-2.15 54.22, 0.84 38.42, 0 24.17 M0 72.5 C-1.15 60.91, -0.76 50.02, 0 24.17 M0 24.17 C-1.13 7.62, 7.3 -0.46, 24.17 0 M0 24.17 C-1.49 8.4, 10.2 0.26, 24.17 0" stroke="#000000" stroke-width="2" fill="none"></path></g><g transform="translate(102.73799787248879 126.7261788504464) rotate(0 88.5 36)"><text x="0" y="20" font-family="Cascadia, Segoe UI Emoji" font-size="20px" fill="#000000" text-anchor="start" style="white-space: pre;" direction="ltr">stim resp dfof</text><text x="0" y="44" font-family="Cascadia, Segoe UI Emoji" font-size="20px" fill="#000000" text-anchor="start" style="white-space: pre;" direction="ltr">gauss_filter</text><text x="0" y="68" font-family="Cascadia, Segoe UI Emoji" font-size="20px" fill="#000000" text-anchor="start" style="white-space: pre;" direction="ltr">mat save to tif</text></g><g stroke-linecap="round" transform="translate(84.07134137834817 269.7261788504464) rotate(0 93.41667938232422 49)"><path d="M24.5 0 M24.5 0 C71.2 1.65, 120.33 1.28, 162.33 0 M24.5 0 C59.11 1.42, 92.19 1.73, 162.33 0 M162.33 0 C179.33 -1.46, 185.92 6.74, 186.83 24.5 M162.33 0 C176.85 -2.25, 186.79 9.87, 186.83 24.5 M186.83 24.5 C185.22 35.01, 187.8 46.1, 186.83 73.5 M186.83 24.5 C186.18 35.32, 187.79 46.06, 186.83 73.5 M186.83 73.5 C188.82 91.66, 177.09 96.4, 162.33 98 M186.83 73.5 C189.01 88.01, 180.69 96.5, 162.33 98 M162.33 98 C108.59 99.95, 51.64 97.57, 24.5 98 M162.33 98 C119.21 96.32, 76.84 96.83, 24.5 98 M24.5 98 C8.29 96.63, 0.74 91.31, 0 73.5 M24.5 98 C8.38 95.92, 1.91 90, 0 73.5 M0 73.5 C0.37 59.73, 1.26 41.81, 0 24.5 M0 73.5 C-0.7 55.61, 0.2 38.03, 0 24.5 M0 24.5 C0.73 8.94, 6.73 -1.92, 24.5 0 M0 24.5 C-0.03 6.87, 7.89 -0.8, 24.5 0" stroke="#000000" stroke-width="2" fill="none"></path></g><g transform="translate(98.07128034319192 278.392835344587) rotate(0 76.5 36)"><text x="0" y="20" font-family="Cascadia, Segoe UI Emoji" font-size="20px" fill="#000000" text-anchor="start" style="white-space: pre;" direction="ltr">run cellpose</text><text x="0" y="44" font-family="Cascadia, Segoe UI Emoji" font-size="20px" fill="#000000" text-anchor="start" style="white-space: pre;" direction="ltr">save mask.mat</text><text x="0" y="68" font-family="Cascadia, Segoe UI Emoji" font-size="20px" fill="#000000" text-anchor="start" style="white-space: pre;" direction="ltr">show mask.pdf</text></g><g stroke-linecap="round" transform="translate(399.4046543666294 119.05949183872765) rotate(0 87 43)"><path d="M21.5 0 M21.5 0 C63.01 0.93, 102.05 -1.45, 152.5 0 M21.5 0 C72.2 0.91, 125.31 0.28, 152.5 0 M152.5 0 C165.29 1.53, 175.88 8.88, 174 21.5 M152.5 0 C167.77 1.97, 173.22 9.14, 174 21.5 M174 21.5 C174.19 37.37, 174.48 50.09, 174 64.5 M174 21.5 C173.74 34.56, 174 46.11, 174 64.5 M174 64.5 C174.33 79.49, 167.83 86.99, 152.5 86 M174 64.5 C171.73 77.56, 167.99 84.39, 152.5 86 M152.5 86 C101.39 84.25, 48.01 86.13, 21.5 86 M152.5 86 C119.03 85.73, 85.82 85, 21.5 86 M21.5 86 C6.91 85.47, 1.33 80.83, 0 64.5 M21.5 86 C7.5 87.74, -2.27 78.94, 0 64.5 M0 64.5 C1.45 49.34, -1.9 35, 0 21.5 M0 64.5 C0.04 48.59, 0.68 34.54, 0 21.5 M0 21.5 C-1.85 5.42, 5.21 -0.11, 21.5 0 M0 21.5 C1.47 5.88, 6.32 1.05, 21.5 0" stroke="#000000" stroke-width="2" fill="none"></path></g><g transform="translate(412.7380283900669 134.392835344587) rotate(0 76.5 36)"><text x="0" y="20" font-family="Cascadia, Segoe UI Emoji" font-size="20px" fill="#000000" text-anchor="start" style="white-space: pre;" direction="ltr">matlab motion</text><text x="0" y="44" font-family="Cascadia, Segoe UI Emoji" font-size="20px" fill="#000000" text-anchor="start" style="white-space: pre;" direction="ltr">correction</text><text x="0" y="68" font-family="Cascadia, Segoe UI Emoji" font-size="20px" fill="#000000" text-anchor="start" style="white-space: pre;" direction="ltr"></text></g><g stroke-linecap="round"><g transform="translate(385.95543297280676 163.61317363296877) rotate(0 -44.36291122954833 -0.5736308659620306)"><path d="M-0.59 -0.09 C-15.35 -0.43, -74.42 -1.32, -89 -1.26 M1.3 -1.18 C-13.59 -1.41, -75.08 0.16, -90.03 0.11" stroke="#000000" stroke-width="2" fill="none"></path></g><g transform="translate(385.95543297280676 163.61317363296877) rotate(0 -44.36291122954833 -0.5736308659620306)"><path d="M-90.56 0.22 L-75.47 -5.34 L-78.21 6.35 L-91.68 1.93" stroke="none" stroke-width="0" fill="#000000" fill-rule="evenodd"></path><path d="M-90.13 -0.08 C-86.92 -0.54, -81.48 -3.02, -75.38 -7.88 M-89.58 0.62 C-85.96 -2.59, -81.55 -3.4, -76.15 -5.97 M-75.52 -7.57 C-77.64 -3.53, -76.55 2.64, -77.06 5.81 M-76.26 -5.92 C-76.65 -2.18, -76.47 1.97, -76.61 6.14 M-75.59 7.23 C-80.4 3.73, -84.09 2.36, -91.18 -0.94 M-75.88 6.98 C-82.2 3.56, -86.24 2.11, -90.73 0.44 M-90.03 0.11 C-90.03 0.11, -90.03 0.11, -90.03 0.11 M-90.03 0.11 C-90.03 0.11, -90.03 0.11, -90.03 0.11" stroke="#000000" stroke-width="2" fill="none"></path></g></g><g stroke-linecap="round" transform="translate(394.07134137834817 272.392835344587) rotate(0 139 46.66667175292969)"><path d="M23.33 0 M23.33 0 C75.69 0.59, 129.24 0.59, 254.67 0 M23.33 0 C83.96 -0.99, 143.12 -1.2, 254.67 0 M254.67 0 C270.2 1.72, 278.93 8.31, 278 23.33 M254.67 0 C271.81 0.78, 278.19 7.83, 278 23.33 M278 23.33 C276.73 34.02, 278.38 45.66, 278 70 M278 23.33 C277.44 39.15, 278.43 56.21, 278 70 M278 70 C276.33 83.95, 270.46 94.83, 254.67 93.33 M278 70 C275.78 87.37, 271.61 92.87, 254.67 93.33 M254.67 93.33 C179.41 91.89, 104.88 92.96, 23.33 93.33 M254.67 93.33 C185.44 94.15, 116.53 93.26, 23.33 93.33 M23.33 93.33 C9.35 93.36, -1.37 84.96, 0 70 M23.33 93.33 C6.89 91.15, 1.77 87.75, 0 70 M0 70 C-0.71 56.04, -0.41 43.33, 0 23.33 M0 70 C-0.68 52.8, -0.5 34.16, 0 23.33 M0 23.33 C0.03 7.3, 8.93 1.08, 23.33 0 M0 23.33 C1.58 5.74, 9.95 -0.75, 23.33 0" stroke="#000000" stroke-width="2" fill="none"></path></g><g transform="translate(408.40471540178567 292.05952235630576) rotate(0 123 24)"><text x="0" y="20" font-family="Cascadia, Segoe UI Emoji" font-size="20px" fill="#000000" text-anchor="start" style="white-space: pre;" direction="ltr">use mask and data_reg</text><text x="0" y="44" font-family="Cascadia, Segoe UI Emoji" font-size="20px" fill="#000000" text-anchor="start" style="white-space: pre;" direction="ltr">to extract np_subTC</text></g><g stroke-linecap="round"><g transform="translate(277.0713566371372 323.7261788504464) rotate(0 58.59919436973519 -0.02547675433370955)"><path d="M0.95 -1.06 C19.95 -1.24, 95.89 -0.75, 114.9 -0.45 M-0.01 1 C19.3 0.92, 98.22 1.23, 117.21 0.85" stroke="#000000" stroke-width="2" fill="none"></path></g><g transform="translate(277.0713566371372 323.7261788504464) rotate(0 58.59919436973519 -0.02547675433370955)"><path d="M116.28 0.12 L101.96 6.17 L101.72 -6.55 L116.51 0.86" stroke="none" stroke-width="0" fill="#000000" fill-rule="evenodd"></path><path d="M115.89 -0.11 C111.65 2.54, 108.06 5.8, 102.22 7.47 M117.16 1.26 C111.99 3.78, 108.76 4.61, 104.1 7.71 M104.78 6.51 C103.9 3.79, 103.04 -0.95, 102.58 -6.2 M103.16 6.9 C103.22 2.64, 103.89 -1.32, 103.24 -5.45 M105.01 -6 C106.64 -3.07, 108.46 -3.55, 115.78 0.54 M103.89 -5.1 C106.75 -3.81, 111.08 -1.77, 117.11 1.35 M117.21 0.85 C117.21 0.85, 117.21 0.85, 117.21 0.85 M117.21 0.85 C117.21 0.85, 117.21 0.85, 117.21 0.85" stroke="#000000" stroke-width="2" fill="none"></path></g></g><g stroke-linecap="round"><g transform="translate(480.07134137834817 57.059507097516715) rotate(0 -0.7806706250476623 27.62805302063935)"><path d="M0.29 0.42 C0.03 9.59, -0.3 45.4, -0.5 54.31 M-1.01 -0.41 C-1.57 9, -2.13 46.46, -1.72 55.66" stroke="#000000" stroke-width="2" fill="none"></path></g><g transform="translate(480.07134137834817 57.059507097516715) rotate(0 -0.7806706250476623 27.62805302063935)"><path d="M-1.92 54.08 L-8.17 41.59 L5.25 43.45 L-3.21 57.5" stroke="none" stroke-width="0" fill="#000000" fill-rule="evenodd"></path><path d="M-1.19 55.03 C-4.59 49.24, -7.6 45.87, -6.94 41.45 M-1.99 56.12 C-2.83 52.22, -4.56 49.03, -8.79 41.6 M-7.45 41.2 C-4.02 40.86, 1.58 41.41, 5.57 42.4 M-8.13 42.62 C-3.41 42.05, 0.88 42.24, 4.01 42.62 M3.2 41.65 C2.93 47.64, -0.35 50.18, -1.4 54.78 M4.79 42.17 C2.76 45.74, 0.92 50.36, -1.99 55.03 M-1.72 55.66 C-1.72 55.66, -1.72 55.66, -1.72 55.66 M-1.72 55.66 C-1.72 55.66, -1.72 55.66, -1.72 55.66" stroke="#000000" stroke-width="2" fill="none"></path></g></g><g stroke-linecap="round" transform="translate(395.40471540178567 423.72614833286826) rotate(0 113.66665649414062 58.52382986886158)"><path d="M29.26 0 M29.26 0 C72.77 -0.68, 116.83 -2.16, 198.07 0 M29.26 0 C68.12 1.24, 106.11 -0.01, 198.07 0 M198.07 0 C215.67 -0.4, 226.37 11.45, 227.33 29.26 M198.07 0 C218.28 0.94, 228.28 8.78, 227.33 29.26 M227.33 29.26 C227.5 48.63, 228.24 63.8, 227.33 87.79 M227.33 29.26 C228.46 51.63, 227.34 76.01, 227.33 87.79 M227.33 87.79 C228.54 106.32, 215.94 117.46, 198.07 117.05 M227.33 87.79 C225.98 107.73, 215.77 116.67, 198.07 117.05 M198.07 117.05 C139.25 119.18, 82.81 117.12, 29.26 117.05 M198.07 117.05 C161.19 115.13, 125.45 116.15, 29.26 117.05 M29.26 117.05 C11.05 116.01, -0.67 105.51, 0 87.79 M29.26 117.05 C10.1 117.95, -0.44 107.54, 0 87.79 M0 87.79 C1.19 64.72, -1.13 41.47, 0 29.26 M0 87.79 C0.07 73.74, 0.44 60.95, 0 29.26 M0 29.26 C-1.5 11.59, 10.5 0.26, 29.26 0 M0 29.26 C2 8.21, 7.72 1.87, 29.26 0" stroke="#000000" stroke-width="2" fill="none"></path></g><g transform="translate(415.7380283900669 442.05952235630576) rotate(0 93.5 36)"><text x="0" y="20" font-family="Cascadia, Segoe UI Emoji" font-size="20px" fill="#000000" text-anchor="start" style="white-space: pre;" direction="ltr">adp mag pipeline</text><text x="0" y="44" font-family="Cascadia, Segoe UI Emoji" font-size="20px" fill="#000000" text-anchor="start" style="white-space: pre;" direction="ltr">bunny500.m</text><text x="0" y="68" font-family="Cascadia, Segoe UI Emoji" font-size="20px" fill="#000000" text-anchor="start" style="white-space: pre;" direction="ltr">get trace_trial</text></g><g stroke-linecap="round"><g transform="translate(170.36891142419825 214.05952235630593) rotate(0 -0.0818435942316853 26.74966901594297)"><path d="M0.66 -0.28 C0.67 8.72, 0.04 45.91, -0.46 54.97 M-0.45 -1.47 C-0.45 7.12, -0.92 43.82, -0.81 53.31" stroke="#000000" stroke-width="2" fill="none"></path></g><g transform="translate(170.36891142419825 214.05952235630593) rotate(0 -0.0818435942316853 26.74966901594297)"><path d="M-0.07 53.91 L-7.1 38.36 L6.44 40.19 L-2.54 52.86" stroke="none" stroke-width="0" fill="#000000" fill-rule="evenodd"></path><path d="M-1.16 54.74 C-1.43 48.97, -4.12 47.31, -6.59 38.95 M-1.25 53.21 C-2.83 48.84, -4.86 42.93, -6.88 40.26 M-6.06 39.88 C-4.17 39.66, -0.29 39.7, 5.91 38.96 M-7.68 39.53 C-2.26 39.05, 1.91 39.97, 6.1 39.78 M5.76 41.19 C5.39 41.51, 2.45 45.02, 0.15 53.74 M5.33 39.17 C2.87 43.39, 1.02 48.27, -1.5 53.99 M-0.81 53.31 C-0.81 53.31, -0.81 53.31, -0.81 53.31 M-0.81 53.31 C-0.81 53.31, -0.81 53.31, -0.81 53.31" stroke="#000000" stroke-width="2" fill="none"></path></g></g><g stroke-linecap="round"><g transform="translate(487.73805890764504 208.80951472691123) rotate(0 -0.41690993431416246 30.67639572182206)"><path d="M-1.2 -1.15 C-1.37 8.92, -0.06 50.47, -0.05 60.92 M0.37 0.86 C-0.05 11.1, -1.16 52.71, -1.03 62.5" stroke="#000000" stroke-width="2" fill="none"></path></g><g transform="translate(487.73805890764504 208.80951472691123) rotate(0 -0.41690993431416246 30.67639572182206)"><path d="M-0.78 60.8 L-6.39 46.96 L6.41 48.25 L-0.04 63.35" stroke="none" stroke-width="0" fill="#000000" fill-rule="evenodd"></path><path d="M-2.47 62.43 C-3.34 55.79, -4.88 53.03, -8.45 49.54 M-1.31 62.54 C-3.06 59.75, -4.2 56.06, -6.7 48.24 M-6.73 47.66 C-5.32 48.53, -2.18 48.02, 6.07 49.83 M-7.58 48.68 C-3.63 48.73, -1.37 48.47, 5.65 48.43 M6.65 47.65 C2.89 51.08, 1.71 55.54, -0.06 61.11 M5.63 49.06 C3.09 52.8, 1.33 57.99, -0.54 61.9 M-1.03 62.5 C-1.03 62.5, -1.03 62.5, -1.03 62.5 M-1.03 62.5 C-1.03 62.5, -1.03 62.5, -1.03 62.5" stroke="#000000" stroke-width="2" fill="none"></path></g></g><g stroke-linecap="round"><g transform="translate(489.6697318117423 372.97619410923545) rotate(0 -0.753165005162657 22.261783644730627)"><path d="M-0.05 0.09 C-0.16 7.85, -1.84 38.17, -1.81 45.44 M-1.54 -0.91 C-1.19 6.61, 0.07 36.13, 0.3 43.71" stroke="#000000" stroke-width="2" fill="none"></path></g><g transform="translate(489.6697318117423 372.97619410923545) rotate(0 -0.753165005162657 22.261783644730627)"><path d="M1.13 41.83 L-5.59 29.63 L7.12 30.74 L-1.24 45.39" stroke="none" stroke-width="0" fill="#000000" fill-rule="evenodd"></path><path d="M0.41 42.26 C-0.01 42.04, -3.53 39.06, -7.26 29.36 M-0.25 44.37 C-2.19 39.43, -3.93 33.72, -7.11 29.95 M-7.48 30.12 C-2.33 29.52, 3.81 30.97, 5.56 28.91 M-6.18 30.18 C-3.68 29.78, 0.62 29.59, 5.69 29.47 M5.15 28.85 C3.65 34.69, 3.37 37.55, 0.8 42.57 M6.03 29.16 C4.31 34.97, 2.33 39.53, 0.38 44.4 M0.3 43.71 C0.3 43.71, 0.3 43.71, 0.3 43.71 M0.3 43.71 C0.3 43.71, 0.3 43.71, 0.3 43.71" stroke="#000000" stroke-width="2" fill="none"></path></g></g><g stroke-linecap="round" transform="translate(136.07134137834817 460.47619410923545) rotate(0 69.16667938232422 65.83332061767578)"><path d="M72.8 0.73 C82.56 0.23, 94.8 3.7, 103.52 8.16 C112.23 12.61, 119.26 19.47, 125.08 27.46 C130.89 35.45, 136.66 46.72, 138.41 56.1 C140.15 65.47, 138.61 74.84, 135.53 83.72 C132.46 92.59, 126.8 102.19, 119.93 109.36 C113.05 116.53, 103.3 123.08, 94.28 126.75 C85.25 130.42, 75.66 131.95, 65.79 131.38 C55.93 130.81, 43.91 127.97, 35.09 123.33 C26.26 118.69, 18.6 111.5, 12.85 103.57 C7.1 95.64, 2.14 85.08, 0.59 75.74 C-0.96 66.4, 0.62 56.54, 3.57 47.54 C6.52 38.54, 11.82 28.8, 18.28 21.76 C24.74 14.71, 31.95 8.72, 42.34 5.26 C52.73 1.79, 72.82 1.09, 80.63 0.97 C88.44 0.85, 89.18 3.57, 89.19 4.54 M42.29 3.77 C50.6 -0.35, 63.08 0.36, 73.37 1.24 C83.67 2.13, 95.19 4.83, 104.09 9.09 C112.99 13.36, 121.12 19.11, 126.76 26.85 C132.39 34.59, 136.3 46.13, 137.91 55.53 C139.52 64.93, 139.22 74.16, 136.41 83.25 C133.59 92.34, 127.66 102.61, 121.05 110.07 C114.43 117.53, 106.06 124.55, 96.7 128 C87.34 131.45, 75.18 131.55, 64.9 130.77 C54.63 130, 43.96 127.82, 35.04 123.33 C26.12 118.83, 17.05 111.86, 11.38 103.82 C5.71 95.78, 2.72 84.6, 1.05 75.09 C-0.62 65.57, -1.39 55.61, 1.37 46.73 C4.12 37.85, 10.78 28.84, 17.56 21.81 C24.34 14.78, 37.75 7.34, 42.04 4.56 C46.33 1.77, 42.45 3.97, 43.29 5.12" stroke="#000000" stroke-width="2" fill="none"></path></g><g transform="translate(167.73805890764504 482.97619410923545) rotate(0 41 36)"><text x="0" y="20" font-family="Cascadia, Segoe UI Emoji" font-size="20px" fill="#000000" text-anchor="start" style="white-space: pre;" direction="ltr">compare</text><text x="0" y="44" font-family="Cascadia, Segoe UI Emoji" font-size="20px" fill="#000000" text-anchor="start" style="white-space: pre;" direction="ltr">with</text><text x="0" y="68" font-family="Cascadia, Segoe UI Emoji" font-size="20px" fill="#000000" text-anchor="start" style="white-space: pre;" direction="ltr">manual</text></g><g stroke-linecap="round"><g transform="translate(379.1718485533504 500.79929593181686) rotate(0 -46.62462347487309 11.806014036703516)"><path d="M0.42 -0.73 C-14.94 2.94, -77.06 19.01, -92.46 22.98 M-0.81 1.51 C-16.36 5.87, -78.36 20.55, -93.67 24.34" stroke="#000000" stroke-width="2" fill="none"></path></g><g transform="translate(379.1718485533504 500.79929593181686) rotate(0 -46.62462347487309 11.806014036703516)"><path d="M-93.98 22.62 L-81.55 13.67 L-79.48 28.89 L-92.89 23.07" stroke="none" stroke-width="0" fill="#000000" fill-rule="evenodd"></path><path d="M-94.58 23.7 C-90.92 21.73, -87.59 19.43, -81.9 16.09 M-93.57 23.99 C-91.29 22.77, -87.68 19.91, -81.61 14.72 M-81.79 15.92 C-80.56 18.72, -80.57 22.62, -79.45 27.54 M-82.19 15.35 C-81.3 17.56, -80.99 21.14, -78.7 27.48 M-79.1 26.72 C-81.76 26.04, -85.95 24.45, -94.52 23.65 M-79.08 27.41 C-84.4 26.51, -90.13 24.54, -93.72 24.68 M-93.67 24.34 C-93.67 24.34, -93.67 24.34, -93.67 24.34 M-93.67 24.34 C-93.67 24.34, -93.67 24.34, -93.67 24.34" stroke="#000000" stroke-width="2" fill="none"></path></g></g><g stroke-linecap="round" transform="translate(400.738043648856 590.2261483328683) rotate(0 113.66665649414062 45.66668701171875)"><path d="M22.83 0 M22.83 0 C67.25 0.13, 111.49 2.65, 204.5 0 M22.83 0 C93.5 0.88, 162.97 2.72, 204.5 0 M204.5 0 C219 -1.91, 226.53 8.95, 227.33 22.83 M204.5 0 C220.25 0.2, 226.84 8.97, 227.33 22.83 M227.33 22.83 C227.84 36.74, 227.89 48.72, 227.33 68.5 M227.33 22.83 C227.32 34.4, 226.28 45.55, 227.33 68.5 M227.33 68.5 C227.67 83.71, 218.42 89.9, 204.5 91.33 M227.33 68.5 C225.31 84.57, 219.79 92.37, 204.5 91.33 M204.5 91.33 C137.4 90.57, 72.6 88.65, 22.83 91.33 M204.5 91.33 C136.39 91.45, 68.58 90.58, 22.83 91.33 M22.83 91.33 C8.28 91.69, -1.8 84.37, 0 68.5 M22.83 91.33 C7.55 93.05, 1.54 82.94, 0 68.5 M0 68.5 C-0.45 55.85, -1.22 43.83, 0 22.83 M0 68.5 C0.05 52.06, 0.36 33.39, 0 22.83 M0 22.83 C0.77 7.5, 9.2 -1.73, 22.83 0 M0 22.83 C0.14 7.42, 7.44 1.49, 22.83 0" stroke="#000000" stroke-width="2" fill="none"></path></g><g transform="translate(430.23805890764504 606.3095147269113) rotate(0 76.5 24)"><text x="0" y="20" font-family="Cascadia, Segoe UI Emoji" font-size="20px" fill="#000000" text-anchor="start" style="white-space: pre;" direction="ltr">compare trace</text><text x="0" y="44" font-family="Cascadia, Segoe UI Emoji" font-size="20px" fill="#000000" text-anchor="start" style="white-space: pre;" direction="ltr">compare adp</text></g><g stroke-linecap="round"><g transform="translate(269.9047001429966 571.8095147269113) rotate(0 59.17939570397141 36.62265336315147)"><path d="M-0.72 1.19 C19.14 12.88, 99.09 59.19, 119.08 70.9 M1.11 0.77 C20.88 12.6, 98.89 61.04, 118.52 72.47" stroke="#000000" stroke-width="2" fill="none"></path></g><g transform="translate(269.9047001429966 571.8095147269113) rotate(0 59.17939570397141 36.62265336315147)"><path d="M118.42 71.81 L104.79 72.15 L112.02 58.97 L119.57 70.79" stroke="none" stroke-width="0" fill="#000000" fill-rule="evenodd"></path><path d="M120.01 73.4 C114.22 72.98, 110.51 70.99, 104.56 71.39 M119.06 72.98 C113.55 71.34, 107.87 71.9, 103.96 71.12 M102.59 70.22 C105.21 68.18, 106.83 65.32, 110.07 60.66 M104.06 71.03 C106.06 67.09, 108.58 63.24, 110.63 59.74 M109.78 60.73 C112.38 64.24, 116.69 68.63, 118.36 73.7 M109.45 59.94 C112.65 65.6, 116.53 69.82, 118.12 72.24 M118.52 72.47 C118.52 72.47, 118.52 72.47, 118.52 72.47 M118.52 72.47 C118.52 72.47, 118.52 72.47, 118.52 72.47" stroke="#000000" stroke-width="2" fill="none"></path></g></g><g transform="translate(464.4047001429966 28.809514726911246) rotate(0 18 12)"><text x="0" y="20" font-family="Cascadia, Segoe UI Emoji" font-size="20px" fill="#000000" text-anchor="start" style="white-space: pre;" direction="ltr">sbx</text></g><g stroke-linecap="round" transform="translate(31.66660853794633 75.47616141183029) rotate(0 339.5237949916295 155.23809160505022)"><path d="M77.62 0 M77.62 0 C261.52 0, 445.42 0, 601.43 0 M601.43 0 C653.17 0, 679.05 25.87, 679.05 77.62 M679.05 77.62 C679.05 108.71, 679.05 139.79, 679.05 232.86 M679.05 232.86 C679.05 284.6, 653.17 310.48, 601.43 310.48 M601.43 310.48 C471.27 310.48, 341.11 310.48, 77.62 310.48 M77.62 310.48 C25.87 310.48, 0 284.6, 0 232.86 M0 232.86 C0 173.79, 0 114.73, 0 77.62 M0 77.62 C0 25.87, 25.87 0, 77.62 0" stroke="#e67700" stroke-width="2.5" fill="none" stroke-dasharray="8 10"></path></g><g transform="translate(10 10) rotate(0 217.5 24)"><text x="0" y="20" font-family="Cascadia, Segoe UI Emoji" font-size="20px" fill="#e67700" text-anchor="start" style="white-space: pre;" direction="ltr">restricted by data_reg reload speed</text><text x="0" y="44" font-family="Cascadia, Segoe UI Emoji" font-size="20px" fill="#e67700" text-anchor="start" style="white-space: pre;" direction="ltr">merge by pymatbridge? implement wait?</text></g></svg>