<?xml version="1.0" encoding="utf-8" standalone="no"?>
<!DOCTYPE svg PUBLIC "-//W3C//DTD SVG 1.1//EN"
  "http://www.w3.org/Graphics/SVG/1.1/DTD/svg11.dtd">
<svg xmlns:xlink="http://www.w3.org/1999/xlink" width="460.8pt" height="345.6pt" viewBox="0 0 460.8 345.6" xmlns="http://www.w3.org/2000/svg" version="1.1">
 <metadata>
  <rdf:RDF xmlns:dc="http://purl.org/dc/elements/1.1/" xmlns:cc="http://creativecommons.org/ns#" xmlns:rdf="http://www.w3.org/1999/02/22-rdf-syntax-ns#">
   <cc:Work>
    <dc:type rdf:resource="http://purl.org/dc/dcmitype/StillImage"/>
    <dc:date>2023-11-29T17:55:56.326201</dc:date>
    <dc:format>image/svg+xml</dc:format>
    <dc:creator>
     <cc:Agent>
      <dc:title>Matplotlib v3.7.2, https://matplotlib.org/</dc:title>
     </cc:Agent>
    </dc:creator>
   </cc:Work>
  </rdf:RDF>
 </metadata>
 <defs>
  <style type="text/css">*{stroke-linejoin: round; stroke-linecap: butt}</style>
 </defs>
 <g id="figure_1">
  <g id="patch_1">
   <path d="M 0 345.6 
L 460.8 345.6 
L 460.8 0 
L 0 0 
z
" style="fill: #ffffff"/>
  </g>
  <g id="axes_1">
   <g id="patch_2">
    <path d="M 69.24 305.74 
L 450 305.74 
L 450 10.8 
L 69.24 10.8 
z
" style="fill: #ffffff"/>
   </g>
   <g id="PolyCollection_1">
    <defs>
     <path id="mb5ba2bcbfe" d="M 134.168111 -53.266364 
L 131.231889 -53.266364 
L 129.896139 -55.610705 
L 127.724527 -57.955046 
L 124.485179 -60.299387 
L 120.059586 -62.643728 
L 114.537742 -64.988069 
L 108.275205 -67.33241 
L 101.871753 -69.676751 
L 96.059046 -72.021092 
L 91.526963 -74.365434 
L 88.751572 -76.709775 
L 87.89057 -79.054116 
L 88.781448 -81.398457 
L 91.031251 -83.742798 
L 94.151127 -86.087139 
L 97.680943 -88.43148 
L 101.267747 -90.775821 
L 104.690616 -93.120162 
L 107.846082 -95.464503 
L 110.714578 -97.808845 
L 113.322974 -100.153186 
L 115.71073 -102.497527 
L 117.903812 -104.841868 
L 119.900754 -107.186209 
L 121.674431 -109.53055 
L 123.188095 -111.874891 
L 124.417492 -114.219232 
L 125.367566 -116.563573 
L 126.075603 -118.907915 
L 126.600877 -121.252256 
L 127.008123 -123.596597 
L 127.35384 -125.940938 
L 127.680283 -128.285279 
L 128.015958 -130.62962 
L 128.378125 -132.973961 
L 128.773852 -135.318302 
L 129.199424 -137.662643 
L 129.640305 -140.006984 
L 130.073703 -142.351326 
L 130.473915 -144.695667 
L 130.818803 -147.040008 
L 131.095042 -149.384349 
L 131.300348 -151.72869 
L 131.441994 -154.073031 
L 131.532354 -156.417372 
L 131.583424 -158.761713 
L 131.602906 -161.106054 
L 131.593891 -163.450395 
L 131.558345 -165.794737 
L 131.502293 -168.139078 
L 131.439247 -170.483419 
L 131.389218 -172.82776 
L 131.373246 -175.172101 
L 131.40616 -177.516442 
L 131.491406 -179.860783 
L 131.620371 -182.205124 
L 131.775936 -184.549465 
L 131.937833 -186.893806 
L 132.08714 -189.238148 
L 132.208695 -191.582489 
L 132.291943 -193.92683 
L 132.33146 -196.271171 
L 132.327871 -198.615512 
L 132.28875 -200.959853 
L 132.228377 -203.304194 
L 132.16547 -205.648535 
L 132.119041 -207.992876 
L 132.103638 -210.337218 
L 132.125762 -212.681559 
L 132.182807 -215.0259 
L 132.26481 -217.370241 
L 132.358098 -219.714582 
L 132.449347 -222.058923 
L 132.528647 -224.403264 
L 132.590842 -226.747605 
L 132.635193 -229.091946 
L 132.663952 -231.436287 
L 132.680626 -233.780629 
L 132.688501 -236.12497 
L 132.689721 -238.469311 
L 132.684926 -240.813652 
L 132.673365 -243.157993 
L 132.653429 -245.502334 
L 132.623528 -247.846675 
L 132.58316 -250.191016 
L 132.533845 -252.535357 
L 132.479524 -254.879698 
L 132.426156 -257.22404 
L 132.380593 -259.568381 
L 132.349147 -261.912722 
L 132.336308 -264.257063 
L 132.343927 -266.601404 
L 132.370904 -268.945745 
L 132.413374 -271.290086 
L 132.465388 -273.634427 
L 132.520096 -275.978768 
L 132.571185 -278.32311 
L 132.614137 -280.667451 
L 132.646863 -283.011792 
L 132.669535 -285.356133 
L 132.730465 -285.356133 
L 132.730465 -285.356133 
L 132.753137 -283.011792 
L 132.785863 -280.667451 
L 132.828815 -278.32311 
L 132.879904 -275.978768 
L 132.934612 -273.634427 
L 132.986626 -271.290086 
L 133.029096 -268.945745 
L 133.056073 -266.601404 
L 133.063692 -264.257063 
L 133.050853 -261.912722 
L 133.019407 -259.568381 
L 132.973844 -257.22404 
L 132.920476 -254.879698 
L 132.866155 -252.535357 
L 132.81684 -250.191016 
L 132.776472 -247.846675 
L 132.746571 -245.502334 
L 132.726635 -243.157993 
L 132.715074 -240.813652 
L 132.710279 -238.469311 
L 132.711499 -236.12497 
L 132.719374 -233.780629 
L 132.736048 -231.436287 
L 132.764807 -229.091946 
L 132.809158 -226.747605 
L 132.871353 -224.403264 
L 132.950653 -222.058923 
L 133.041902 -219.714582 
L 133.13519 -217.370241 
L 133.217193 -215.0259 
L 133.274238 -212.681559 
L 133.296362 -210.337218 
L 133.280959 -207.992876 
L 133.23453 -205.648535 
L 133.171623 -203.304194 
L 133.11125 -200.959853 
L 133.072129 -198.615512 
L 133.06854 -196.271171 
L 133.108057 -193.92683 
L 133.191305 -191.582489 
L 133.31286 -189.238148 
L 133.462167 -186.893806 
L 133.624064 -184.549465 
L 133.779629 -182.205124 
L 133.908594 -179.860783 
L 133.99384 -177.516442 
L 134.026754 -175.172101 
L 134.010782 -172.82776 
L 133.960753 -170.483419 
L 133.897707 -168.139078 
L 133.841655 -165.794737 
L 133.806109 -163.450395 
L 133.797094 -161.106054 
L 133.816576 -158.761713 
L 133.867646 -156.417372 
L 133.958006 -154.073031 
L 134.099652 -151.72869 
L 134.304958 -149.384349 
L 134.581197 -147.040008 
L 134.926085 -144.695667 
L 135.326297 -142.351326 
L 135.759695 -140.006984 
L 136.200576 -137.662643 
L 136.626148 -135.318302 
L 137.021875 -132.973961 
L 137.384042 -130.62962 
L 137.719717 -128.285279 
L 138.04616 -125.940938 
L 138.391877 -123.596597 
L 138.799123 -121.252256 
L 139.324397 -118.907915 
L 140.032434 -116.563573 
L 140.982508 -114.219232 
L 142.211905 -111.874891 
L 143.725569 -109.53055 
L 145.499246 -107.186209 
L 147.496188 -104.841868 
L 149.68927 -102.497527 
L 152.077026 -100.153186 
L 154.685422 -97.808845 
L 157.553918 -95.464503 
L 160.709384 -93.120162 
L 164.132253 -90.775821 
L 167.719057 -88.43148 
L 171.248873 -86.087139 
L 174.368749 -83.742798 
L 176.618552 -81.398457 
L 177.50943 -79.054116 
L 176.648428 -76.709775 
L 173.873037 -74.365434 
L 169.340954 -72.021092 
L 163.528247 -69.676751 
L 157.124795 -67.33241 
L 150.862258 -64.988069 
L 145.340414 -62.643728 
L 140.914821 -60.299387 
L 137.675473 -57.955046 
L 135.503861 -55.610705 
L 134.168111 -53.266364 
z
" style="stroke: #626262; stroke-width: 2.25"/>
    </defs>
    <g clip-path="url(#p7ad4e0c707)">
     <use xlink:href="#mb5ba2bcbfe" x="0" y="345.6" style="fill: #92abde; stroke: #626262; stroke-width: 2.25"/>
    </g>
   </g>
   <g id="PolyCollection_2">
    <defs>
     <path id="m18b98d7c39" d="M 261.113971 -54.857919 
L 258.126029 -54.857919 
L 256.277134 -57.550199 
L 252.97682 -60.242479 
L 247.844908 -62.934759 
L 240.904988 -65.627039 
L 232.775473 -68.319319 
L 224.605132 -71.011599 
L 217.732075 -73.703879 
L 213.235953 -76.396159 
L 211.616096 -79.088439 
L 212.722146 -81.780719 
L 215.909134 -84.472999 
L 220.3068 -87.165279 
L 225.090071 -89.857559 
L 229.666254 -92.549839 
L 233.737166 -95.242119 
L 237.249797 -97.934399 
L 240.291395 -100.626679 
L 242.987203 -103.318959 
L 245.43218 -106.011239 
L 247.663707 -108.703519 
L 249.670679 -111.395799 
L 251.424656 -114.088079 
L 252.909942 -116.780359 
L 254.134265 -119.472639 
L 255.120435 -122.164919 
L 255.894101 -124.857199 
L 256.480154 -127.549479 
L 256.907545 -130.241758 
L 257.21411 -132.934038 
L 257.444751 -135.626318 
L 257.642296 -138.318598 
L 257.835277 -141.010878 
L 258.029507 -143.703158 
L 258.209775 -146.395438 
L 258.352246 -149.087718 
L 258.440307 -151.779998 
L 258.474078 -154.472278 
L 258.469485 -157.164558 
L 258.450273 -159.856838 
L 258.43873 -162.549118 
L 258.448541 -165.241398 
L 258.481248 -167.933678 
L 258.527709 -170.625958 
L 258.574778 -173.318238 
L 258.614125 -176.010518 
L 258.64776 -178.702798 
L 258.686628 -181.395078 
L 258.743327 -184.087358 
L 258.823883 -186.779638 
L 258.923871 -189.471918 
L 259.031106 -192.164198 
L 259.132595 -194.856478 
L 259.220591 -197.548758 
L 259.293473 -200.241038 
L 259.351478 -202.933318 
L 259.39154 -205.625598 
L 259.406234 -208.317878 
L 259.388384 -211.010158 
L 259.338304 -213.702438 
L 259.268063 -216.394718 
L 259.198699 -219.086998 
L 259.151004 -221.779277 
L 259.135551 -224.471557 
L 259.148883 -227.163837 
L 259.178509 -229.856117 
L 259.212582 -232.548397 
L 259.246886 -235.240677 
L 259.284605 -237.932957 
L 259.33033 -240.625237 
L 259.383648 -243.317517 
L 259.436822 -246.009797 
L 259.477451 -248.702077 
L 259.493778 -251.394357 
L 259.479647 -254.086637 
L 259.437333 -256.778917 
L 259.377675 -259.471197 
L 259.317329 -262.163477 
L 259.27356 -264.855757 
L 259.258395 -267.548037 
L 259.274965 -270.240317 
L 259.317844 -272.932597 
L 259.376517 -275.624877 
L 259.439513 -278.317157 
L 259.497298 -281.009437 
L 259.543619 -283.701717 
L 259.575664 -286.393997 
L 259.593287 -289.086277 
L 259.597673 -291.778557 
L 259.590331 -294.470837 
L 259.573289 -297.163117 
L 259.550326 -299.855397 
L 259.527734 -302.547677 
L 259.513037 -305.239957 
L 259.511755 -307.932237 
L 259.524429 -310.624516 
L 259.546391 -313.316796 
L 259.570544 -316.009076 
L 259.591015 -318.701356 
L 259.605181 -321.393636 
L 259.634819 -321.393636 
L 259.634819 -321.393636 
L 259.648985 -318.701356 
L 259.669456 -316.009076 
L 259.693609 -313.316796 
L 259.715571 -310.624516 
L 259.728245 -307.932237 
L 259.726963 -305.239957 
L 259.712266 -302.547677 
L 259.689674 -299.855397 
L 259.666711 -297.163117 
L 259.649669 -294.470837 
L 259.642327 -291.778557 
L 259.646713 -289.086277 
L 259.664336 -286.393997 
L 259.696381 -283.701717 
L 259.742702 -281.009437 
L 259.800487 -278.317157 
L 259.863483 -275.624877 
L 259.922156 -272.932597 
L 259.965035 -270.240317 
L 259.981605 -267.548037 
L 259.96644 -264.855757 
L 259.922671 -262.163477 
L 259.862325 -259.471197 
L 259.802667 -256.778917 
L 259.760353 -254.086637 
L 259.746222 -251.394357 
L 259.762549 -248.702077 
L 259.803178 -246.009797 
L 259.856352 -243.317517 
L 259.90967 -240.625237 
L 259.955395 -237.932957 
L 259.993114 -235.240677 
L 260.027418 -232.548397 
L 260.061491 -229.856117 
L 260.091117 -227.163837 
L 260.104449 -224.471557 
L 260.088996 -221.779277 
L 260.041301 -219.086998 
L 259.971937 -216.394718 
L 259.901696 -213.702438 
L 259.851616 -211.010158 
L 259.833766 -208.317878 
L 259.84846 -205.625598 
L 259.888522 -202.933318 
L 259.946527 -200.241038 
L 260.019409 -197.548758 
L 260.107405 -194.856478 
L 260.208894 -192.164198 
L 260.316129 -189.471918 
L 260.416117 -186.779638 
L 260.496673 -184.087358 
L 260.553372 -181.395078 
L 260.59224 -178.702798 
L 260.625875 -176.010518 
L 260.665222 -173.318238 
L 260.712291 -170.625958 
L 260.758752 -167.933678 
L 260.791459 -165.241398 
L 260.80127 -162.549118 
L 260.789727 -159.856838 
L 260.770515 -157.164558 
L 260.765922 -154.472278 
L 260.799693 -151.779998 
L 260.887754 -149.087718 
L 261.030225 -146.395438 
L 261.210493 -143.703158 
L 261.404723 -141.010878 
L 261.597704 -138.318598 
L 261.795249 -135.626318 
L 262.02589 -132.934038 
L 262.332455 -130.241758 
L 262.759846 -127.549479 
L 263.345899 -124.857199 
L 264.119565 -122.164919 
L 265.105735 -119.472639 
L 266.330058 -116.780359 
L 267.815344 -114.088079 
L 269.569321 -111.395799 
L 271.576293 -108.703519 
L 273.80782 -106.011239 
L 276.252797 -103.318959 
L 278.948605 -100.626679 
L 281.990203 -97.934399 
L 285.502834 -95.242119 
L 289.573746 -92.549839 
L 294.149929 -89.857559 
L 298.9332 -87.165279 
L 303.330866 -84.472999 
L 306.517854 -81.780719 
L 307.623904 -79.088439 
L 306.004047 -76.396159 
L 301.507925 -73.703879 
L 294.634868 -71.011599 
L 286.464527 -68.319319 
L 278.335012 -65.627039 
L 271.395092 -62.934759 
L 266.26318 -60.242479 
L 262.962866 -57.550199 
L 261.113971 -54.857919 
z
" style="stroke: #626262; stroke-width: 2.25"/>
    </defs>
    <g clip-path="url(#p7ad4e0c707)">
     <use xlink:href="#m18b98d7c39" x="0" y="345.6" style="fill: #e1c366; stroke: #626262; stroke-width: 2.25"/>
    </g>
   </g>
   <g id="PolyCollection_3">
    <defs>
     <path id="mec0b0e0ded" d="M 387.853649 -53.759357 
L 385.226351 -53.759357 
L 384.229583 -55.681878 
L 382.682962 -57.6044 
L 380.42299 -59.526921 
L 377.314737 -61.449443 
L 373.294158 -63.371964 
L 368.408499 -65.294486 
L 362.841086 -67.217007 
L 356.908514 -69.139529 
L 351.025625 -71.06205 
L 345.644258 -72.984572 
L 341.181118 -74.907093 
L 337.953872 -76.829615 
L 336.141002 -78.752136 
L 335.772 -80.674658 
L 336.744677 -82.597179 
L 338.859753 -84.519701 
L 341.861417 -86.442222 
L 345.475038 -88.364744 
L 349.437228 -90.287265 
L 353.516743 -92.209787 
L 357.526583 -94.132308 
L 361.328306 -96.05483 
L 364.829927 -97.977351 
L 367.979133 -99.899872 
L 370.753942 -101.822394 
L 373.153166 -103.744915 
L 375.188788 -105.667437 
L 376.881586 -107.589958 
L 378.260013 -109.51248 
L 379.360992 -111.435001 
L 380.230319 -113.357523 
L 380.920504 -115.280044 
L 381.485214 -117.202566 
L 381.971439 -119.125087 
L 382.412212 -121.047609 
L 382.822982 -122.97013 
L 383.203406 -124.892652 
L 383.543885 -126.815173 
L 383.833998 -128.737695 
L 384.069251 -130.660216 
L 384.253569 -132.582738 
L 384.397245 -134.505259 
L 384.512159 -136.427781 
L 384.607065 -138.350302 
L 384.685214 -140.272824 
L 384.745063 -142.195345 
L 384.783267 -144.117866 
L 384.798329 -146.040388 
L 384.793325 -147.962909 
L 384.776853 -149.885431 
L 384.762082 -151.807952 
L 384.764355 -153.730474 
L 384.798009 -155.652995 
L 384.873135 -157.575517 
L 384.992985 -159.498038 
L 385.152687 -161.42056 
L 385.339712 -163.343081 
L 385.536121 -165.265603 
L 385.722135 -167.188124 
L 385.880148 -169.110646 
L 385.99819 -171.033167 
L 386.072009 -172.955689 
L 386.105393 -174.87821 
L 386.108751 -176.800732 
L 386.09639 -178.723253 
L 386.083139 -180.645775 
L 386.081112 -182.568296 
L 386.097342 -184.490818 
L 386.132813 -186.413339 
L 386.182996 -188.33586 
L 386.239577 -190.258382 
L 386.292735 -192.180903 
L 386.333331 -194.103425 
L 386.354546 -196.025946 
L 386.352848 -197.948468 
L 386.328389 -199.870989 
L 386.284934 -201.793511 
L 386.22933 -203.716032 
L 386.170402 -205.638554 
L 386.117253 -207.561075 
L 386.077198 -209.483597 
L 386.053914 -211.406118 
L 386.046501 -213.32864 
L 386.049982 -215.251161 
L 386.057239 -217.173683 
L 386.061769 -219.096204 
L 386.060223 -221.018726 
L 386.053739 -222.941247 
L 386.047504 -224.863769 
L 386.048766 -226.78629 
L 386.064089 -228.708811 
L 386.096965 -230.631333 
L 386.146648 -232.553854 
L 386.208518 -234.476376 
L 386.275651 -236.398897 
L 386.340863 -238.321419 
L 386.398447 -240.24394 
L 386.445113 -242.166462 
L 386.480041 -244.088983 
L 386.599959 -244.088983 
L 386.599959 -244.088983 
L 386.634887 -242.166462 
L 386.681553 -240.24394 
L 386.739137 -238.321419 
L 386.804349 -236.398897 
L 386.871482 -234.476376 
L 386.933352 -232.553854 
L 386.983035 -230.631333 
L 387.015911 -228.708811 
L 387.031234 -226.78629 
L 387.032496 -224.863769 
L 387.026261 -222.941247 
L 387.019777 -221.018726 
L 387.018231 -219.096204 
L 387.022761 -217.173683 
L 387.030018 -215.251161 
L 387.033499 -213.32864 
L 387.026086 -211.406118 
L 387.002802 -209.483597 
L 386.962747 -207.561075 
L 386.909598 -205.638554 
L 386.85067 -203.716032 
L 386.795066 -201.793511 
L 386.751611 -199.870989 
L 386.727152 -197.948468 
L 386.725454 -196.025946 
L 386.746669 -194.103425 
L 386.787265 -192.180903 
L 386.840423 -190.258382 
L 386.897004 -188.33586 
L 386.947187 -186.413339 
L 386.982658 -184.490818 
L 386.998888 -182.568296 
L 386.996861 -180.645775 
L 386.98361 -178.723253 
L 386.971249 -176.800732 
L 386.974607 -174.87821 
L 387.007991 -172.955689 
L 387.08181 -171.033167 
L 387.199852 -169.110646 
L 387.357865 -167.188124 
L 387.543879 -165.265603 
L 387.740288 -163.343081 
L 387.927313 -161.42056 
L 388.087015 -159.498038 
L 388.206865 -157.575517 
L 388.281991 -155.652995 
L 388.315645 -153.730474 
L 388.317918 -151.807952 
L 388.303147 -149.885431 
L 388.286675 -147.962909 
L 388.281671 -146.040388 
L 388.296733 -144.117866 
L 388.334937 -142.195345 
L 388.394786 -140.272824 
L 388.472935 -138.350302 
L 388.567841 -136.427781 
L 388.682755 -134.505259 
L 388.826431 -132.582738 
L 389.010749 -130.660216 
L 389.246002 -128.737695 
L 389.536115 -126.815173 
L 389.876594 -124.892652 
L 390.257018 -122.97013 
L 390.667788 -121.047609 
L 391.108561 -119.125087 
L 391.594786 -117.202566 
L 392.159496 -115.280044 
L 392.849681 -113.357523 
L 393.719008 -111.435001 
L 394.819987 -109.51248 
L 396.198414 -107.589958 
L 397.891212 -105.667437 
L 399.926834 -103.744915 
L 402.326058 -101.822394 
L 405.100867 -99.899872 
L 408.250073 -97.977351 
L 411.751694 -96.05483 
L 415.553417 -94.132308 
L 419.563257 -92.209787 
L 423.642772 -90.287265 
L 427.604962 -88.364744 
L 431.218583 -86.442222 
L 434.220247 -84.519701 
L 436.335323 -82.597179 
L 437.308 -80.674658 
L 436.938998 -78.752136 
L 435.126128 -76.829615 
L 431.898882 -74.907093 
L 427.435742 -72.984572 
L 422.054375 -71.06205 
L 416.171486 -69.139529 
L 410.238914 -67.217007 
L 404.671501 -65.294486 
L 399.785842 -63.371964 
L 395.765263 -61.449443 
L 392.65701 -59.526921 
L 390.397038 -57.6044 
L 388.850417 -55.681878 
L 387.853649 -53.759357 
z
" style="stroke: #626262; stroke-width: 2.25"/>
    </defs>
    <g clip-path="url(#p7ad4e0c707)">
     <use xlink:href="#mec0b0e0ded" x="0" y="345.6" style="fill: #cdadd7; stroke: #626262; stroke-width: 2.25"/>
    </g>
   </g>
   <g id="matplotlib.axis_1">
    <g id="xtick_1">
     <g id="line2d_1">
      <defs>
       <path id="m848509ee78" d="M 0 0 
L 0 9 
" style="stroke: #000000; stroke-width: 1.875"/>
      </defs>
      <g>
       <use xlink:href="#m848509ee78" x="132.7" y="305.74" style="stroke: #000000; stroke-width: 1.875"/>
      </g>
     </g>
     <g id="text_1">
      <text style="font: 16px 'DejaVu Sans', 'Bitstream Vera Sans', 'Computer Modern Sans Serif', 'Lucida Grande', 'Verdana', 'Geneva', 'Lucid', 'Arial', 'Helvetica', 'Avant Garde', sans-serif; text-anchor: middle" x="132.7" y="330.3975" transform="rotate(-0 132.7 330.3975)">V1</text>
     </g>
    </g>
    <g id="xtick_2">
     <g id="line2d_2">
      <g>
       <use xlink:href="#m848509ee78" x="259.62" y="305.74" style="stroke: #000000; stroke-width: 1.875"/>
      </g>
     </g>
     <g id="text_2">
      <text style="font: 16px 'DejaVu Sans', 'Bitstream Vera Sans', 'Computer Modern Sans Serif', 'Lucida Grande', 'Verdana', 'Geneva', 'Lucid', 'Arial', 'Helvetica', 'Avant Garde', sans-serif; text-anchor: middle" x="259.62" y="330.3975" transform="rotate(-0 259.62 330.3975)">LM</text>
     </g>
    </g>
    <g id="xtick_3">
     <g id="line2d_3">
      <g>
       <use xlink:href="#m848509ee78" x="386.54" y="305.74" style="stroke: #000000; stroke-width: 1.875"/>
      </g>
     </g>
     <g id="text_3">
      <text style="font: 16px 'DejaVu Sans', 'Bitstream Vera Sans', 'Computer Modern Sans Serif', 'Lucida Grande', 'Verdana', 'Geneva', 'Lucid', 'Arial', 'Helvetica', 'Avant Garde', sans-serif; text-anchor: middle" x="386.54" y="330.3975" transform="rotate(-0 386.54 330.3975)">LI</text>
     </g>
    </g>
   </g>
   <g id="matplotlib.axis_2">
    <g id="ytick_1">
     <g id="line2d_4">
      <defs>
       <path id="m9f1448ecdc" d="M 0 0 
L -9 0 
" style="stroke: #000000; stroke-width: 1.875"/>
      </defs>
      <g>
       <use xlink:href="#m9f1448ecdc" x="69.24" y="279.058956" style="stroke: #000000; stroke-width: 1.875"/>
      </g>
     </g>
     <g id="text_4">
      <text style="font: 16px 'DejaVu Sans', 'Bitstream Vera Sans', 'Computer Modern Sans Serif', 'Lucida Grande', 'Verdana', 'Geneva', 'Lucid', 'Arial', 'Helvetica', 'Avant Garde', sans-serif; text-anchor: end" x="56.74" y="285.137706" transform="rotate(-0 56.74 285.137706)">0.0</text>
     </g>
    </g>
    <g id="ytick_2">
     <g id="line2d_5">
      <g>
       <use xlink:href="#m9f1448ecdc" x="69.24" y="221.854116" style="stroke: #000000; stroke-width: 1.875"/>
      </g>
     </g>
     <g id="text_5">
      <text style="font: 16px 'DejaVu Sans', 'Bitstream Vera Sans', 'Computer Modern Sans Serif', 'Lucida Grande', 'Verdana', 'Geneva', 'Lucid', 'Arial', 'Helvetica', 'Avant Garde', sans-serif; text-anchor: end" x="56.74" y="227.932866" transform="rotate(-0 56.74 227.932866)">0.2</text>
     </g>
    </g>
    <g id="ytick_3">
     <g id="line2d_6">
      <g>
       <use xlink:href="#m9f1448ecdc" x="69.24" y="164.649276" style="stroke: #000000; stroke-width: 1.875"/>
      </g>
     </g>
     <g id="text_6">
      <text style="font: 16px 'DejaVu Sans', 'Bitstream Vera Sans', 'Computer Modern Sans Serif', 'Lucida Grande', 'Verdana', 'Geneva', 'Lucid', 'Arial', 'Helvetica', 'Avant Garde', sans-serif; text-anchor: end" x="56.74" y="170.728026" transform="rotate(-0 56.74 170.728026)">0.4</text>
     </g>
    </g>
    <g id="ytick_4">
     <g id="line2d_7">
      <g>
       <use xlink:href="#m9f1448ecdc" x="69.24" y="107.444436" style="stroke: #000000; stroke-width: 1.875"/>
      </g>
     </g>
     <g id="text_7">
      <text style="font: 16px 'DejaVu Sans', 'Bitstream Vera Sans', 'Computer Modern Sans Serif', 'Lucida Grande', 'Verdana', 'Geneva', 'Lucid', 'Arial', 'Helvetica', 'Avant Garde', sans-serif; text-anchor: end" x="56.74" y="113.523186" transform="rotate(-0 56.74 113.523186)">0.6</text>
     </g>
    </g>
    <g id="ytick_5">
     <g id="line2d_8">
      <g>
       <use xlink:href="#m9f1448ecdc" x="69.24" y="50.239595" style="stroke: #000000; stroke-width: 1.875"/>
      </g>
     </g>
     <g id="text_8">
      <text style="font: 16px 'DejaVu Sans', 'Bitstream Vera Sans', 'Computer Modern Sans Serif', 'Lucida Grande', 'Verdana', 'Geneva', 'Lucid', 'Arial', 'Helvetica', 'Avant Garde', sans-serif; text-anchor: end" x="56.74" y="56.318345" transform="rotate(-0 56.74 56.318345)">0.8</text>
     </g>
    </g>
    <g id="text_9">
     <text style="font: 16px 'DejaVu Sans', 'Bitstream Vera Sans', 'Computer Modern Sans Serif', 'Lucida Grande', 'Verdana', 'Geneva', 'Lucid', 'Arial', 'Helvetica', 'Avant Garde', sans-serif; text-anchor: middle" x="23.9675" y="158.27" transform="rotate(-90 23.9675 158.27)">R1</text>
    </g>
   </g>
   <g id="line2d_9">
    <path d="M 132.7 276.109613 
L 132.7 213.25749 
" clip-path="url(#p7ad4e0c707)" style="fill: none; stroke: #626262; stroke-width: 2.25; stroke-linecap: square"/>
   </g>
   <g id="line2d_10">
    <path d="M 132.7 269.758429 
L 132.7 247.087955 
" clip-path="url(#p7ad4e0c707)" style="fill: none; stroke: #626262; stroke-width: 6.75; stroke-linecap: square"/>
   </g>
   <g id="line2d_11">
    <path d="M 259.62 276.172988 
L 259.62 221.036746 
" clip-path="url(#p7ad4e0c707)" style="fill: none; stroke: #626262; stroke-width: 2.25; stroke-linecap: square"/>
   </g>
   <g id="line2d_12">
    <path d="M 259.62 269.074795 
L 259.62 249.348382 
" clip-path="url(#p7ad4e0c707)" style="fill: none; stroke: #626262; stroke-width: 6.75; stroke-linecap: square"/>
   </g>
   <g id="line2d_13">
    <path d="M 386.54 276.085193 
L 386.54 227.680392 
" clip-path="url(#p7ad4e0c707)" style="fill: none; stroke: #626262; stroke-width: 2.25; stroke-linecap: square"/>
   </g>
   <g id="line2d_14">
    <path d="M 386.54 269.40032 
L 386.54 252.530457 
" clip-path="url(#p7ad4e0c707)" style="fill: none; stroke: #626262; stroke-width: 6.75; stroke-linecap: square"/>
   </g>
   <g id="patch_3">
    <path d="M 69.24 305.74 
L 69.24 10.8 
" style="fill: none; stroke: #000000; stroke-width: 1.875; stroke-linejoin: miter; stroke-linecap: square"/>
   </g>
   <g id="patch_4">
    <path d="M 69.24 305.74 
L 450 305.74 
" style="fill: none; stroke: #000000; stroke-width: 1.875; stroke-linejoin: miter; stroke-linecap: square"/>
   </g>
   <g id="PathCollection_1">
    <defs>
     <path id="mab69c2af3c" d="M 0 2.25 
C 0.596707 2.25 1.169055 2.012926 1.59099 1.59099 
C 2.012926 1.169055 2.25 0.596707 2.25 0 
C 2.25 -0.596707 2.012926 -1.169055 1.59099 -1.59099 
C 1.169055 -2.012926 0.596707 -2.25 0 -2.25 
C -0.596707 -2.25 -1.169055 -2.012926 -1.59099 -1.59099 
C -2.012926 -1.169055 -2.25 -0.596707 -2.25 0 
C -2.25 0.596707 -2.012926 1.169055 -1.59099 1.59099 
C -1.169055 2.012926 -0.596707 2.25 0 2.25 
z
" style="stroke: #626262; stroke-width: 1.5"/>
    </defs>
    <g clip-path="url(#p7ad4e0c707)">
     <use xlink:href="#mab69c2af3c" x="132.7" y="262.237701" style="fill: #ffffff; stroke: #626262; stroke-width: 1.5"/>
    </g>
   </g>
   <g id="PathCollection_2">
    <g clip-path="url(#p7ad4e0c707)">
     <use xlink:href="#mab69c2af3c" x="259.62" y="262.335276" style="fill: #ffffff; stroke: #626262; stroke-width: 1.5"/>
    </g>
   </g>
   <g id="PathCollection_3">
    <g clip-path="url(#p7ad4e0c707)">
     <use xlink:href="#mab69c2af3c" x="386.54" y="262.317313" style="fill: #ffffff; stroke: #626262; stroke-width: 1.5"/>
    </g>
   </g>
   <g id="text_10">
    <text style="font: 14px 'DejaVu Sans', 'Bitstream Vera Sans', 'Computer Modern Sans Serif', 'Lucida Grande', 'Verdana', 'Geneva', 'Lucid', 'Arial', 'Helvetica', 'Avant Garde', sans-serif; text-anchor: start" x="297.696" y="50.239595" transform="rotate(-0 297.696 50.239595)">p=0.74</text>
   </g>
  </g>
 </g>
 <defs>
  <clipPath id="p7ad4e0c707">
   <rect x="69.24" y="10.8" width="380.76" height="294.94"/>
  </clipPath>
 </defs>
</svg>
