<?xml version="1.0" encoding="utf-8" standalone="no"?>
<!DOCTYPE svg PUBLIC "-//W3C//DTD SVG 1.1//EN"
  "http://www.w3.org/Graphics/SVG/1.1/DTD/svg11.dtd">
<svg xmlns:xlink="http://www.w3.org/1999/xlink" width="460.8pt" height="345.6pt" viewBox="0 0 460.8 345.6" xmlns="http://www.w3.org/2000/svg" version="1.1">
 <metadata>
  <rdf:RDF xmlns:dc="http://purl.org/dc/elements/1.1/" xmlns:cc="http://creativecommons.org/ns#" xmlns:rdf="http://www.w3.org/1999/02/22-rdf-syntax-ns#">
   <cc:Work>
    <dc:type rdf:resource="http://purl.org/dc/dcmitype/StillImage"/>
    <dc:date>2023-11-16T15:23:57.090453</dc:date>
    <dc:format>image/svg+xml</dc:format>
    <dc:creator>
     <cc:Agent>
      <dc:title>Matplotlib v3.7.2, https://matplotlib.org/</dc:title>
     </cc:Agent>
    </dc:creator>
   </cc:Work>
  </rdf:RDF>
 </metadata>
 <defs>
  <style type="text/css">*{stroke-linejoin: round; stroke-linecap: butt}</style>
 </defs>
 <g id="figure_1">
  <g id="patch_1">
   <path d="M 0 345.6 
L 460.8 345.6 
L 460.8 0 
L 0 0 
z
" style="fill: #ffffff"/>
  </g>
  <g id="axes_1">
   <g id="patch_2">
    <path d="M 67.44 305.74 
L 450 305.74 
L 450 17.28 
L 67.44 17.28 
z
" style="fill: #ffffff"/>
   </g>
   <g id="PolyCollection_1">
    <defs>
     <path id="mc3a7cdc894" d="M 131.270913 -74.029153 
L 131.129087 -74.029153 
L 131.073781 -76.230641 
L 130.987793 -78.432129 
L 130.861816 -80.633618 
L 130.687004 -82.835106 
L 130.455769 -85.036595 
L 130.162084 -87.238083 
L 129.801402 -89.439571 
L 129.370761 -91.64106 
L 128.869824 -93.842548 
L 128.30309 -96.044037 
L 127.682571 -98.245525 
L 127.029247 -100.447013 
L 126.37161 -102.648502 
L 125.740726 -104.84999 
L 125.163037 -107.051479 
L 124.653417 -109.252967 
L 124.210807 -111.454455 
L 123.81731 -113.655944 
L 123.439937 -115.857432 
L 123.033424 -118.058921 
L 122.542997 -120.260409 
L 121.906912 -122.461897 
L 121.059186 -124.663386 
L 119.932978 -126.864874 
L 118.464919 -129.066363 
L 116.600557 -131.267851 
L 114.301037 -133.469339 
L 111.550699 -135.670828 
L 108.364903 -137.872316 
L 104.797239 -140.073805 
L 100.945295 -142.275293 
L 96.953638 -144.476781 
L 93.011245 -146.67827 
L 89.339359 -148.879758 
L 86.166915 -151.081247 
L 83.695184 -153.282735 
L 82.059651 -155.484224 
L 81.301426 -157.685712 
L 81.359483 -159.8872 
L 82.088514 -162.088689 
L 83.297994 -164.290177 
L 84.800308 -166.491666 
L 86.45232 -168.693154 
L 88.177142 -170.894642 
L 89.960349 -173.096131 
L 91.825143 -175.297619 
L 93.79948 -177.499108 
L 95.89054 -179.700596 
L 98.076362 -181.902084 
L 100.314045 -184.103573 
L 102.55508 -186.305061 
L 104.756576 -188.50655 
L 106.8829 -190.708038 
L 108.900867 -192.909526 
L 110.77665 -195.111015 
L 112.480505 -197.312503 
L 113.9984 -199.513992 
L 115.343137 -201.71548 
L 116.556628 -203.916968 
L 117.700063 -206.118457 
L 118.835891 -208.319945 
L 120.009725 -210.521434 
L 121.239228 -212.722922 
L 122.512386 -214.92441 
L 123.793202 -217.125899 
L 125.031195 -219.327387 
L 126.171988 -221.528876 
L 127.167722 -223.730364 
L 127.986448 -225.931852 
L 128.618945 -228.133341 
L 129.080806 -230.334829 
L 129.408265 -232.536318 
L 129.648345 -234.737806 
L 129.846339 -236.939294 
L 130.035018 -239.140783 
L 130.229244 -241.342271 
L 130.427183 -243.54376 
L 130.616417 -245.745248 
L 130.781528 -247.946736 
L 130.90987 -250.148225 
L 130.993939 -252.349713 
L 131.030745 -254.551202 
L 131.019961 -256.75269 
L 130.962734 -258.954178 
L 130.862236 -261.155667 
L 130.725745 -263.357155 
L 130.566901 -265.558644 
L 130.406319 -267.760132 
L 130.269239 -269.96162 
L 130.18025 -272.163109 
L 130.156718 -274.364597 
L 130.203565 -276.566086 
L 130.311728 -278.767574 
L 130.461065 -280.969062 
L 130.626489 -283.170551 
L 130.784797 -285.372039 
L 130.919668 -287.573528 
L 131.023523 -289.775016 
L 131.096434 -291.976504 
L 131.303566 -291.976504 
L 131.303566 -291.976504 
L 131.376477 -289.775016 
L 131.480332 -287.573528 
L 131.615203 -285.372039 
L 131.773511 -283.170551 
L 131.938935 -280.969062 
L 132.088272 -278.767574 
L 132.196435 -276.566086 
L 132.243282 -274.364597 
L 132.21975 -272.163109 
L 132.130761 -269.96162 
L 131.993681 -267.760132 
L 131.833099 -265.558644 
L 131.674255 -263.357155 
L 131.537764 -261.155667 
L 131.437266 -258.954178 
L 131.380039 -256.75269 
L 131.369255 -254.551202 
L 131.406061 -252.349713 
L 131.49013 -250.148225 
L 131.618472 -247.946736 
L 131.783583 -245.745248 
L 131.972817 -243.54376 
L 132.170756 -241.342271 
L 132.364982 -239.140783 
L 132.553661 -236.939294 
L 132.751655 -234.737806 
L 132.991735 -232.536318 
L 133.319194 -230.334829 
L 133.781055 -228.133341 
L 134.413552 -225.931852 
L 135.232278 -223.730364 
L 136.228012 -221.528876 
L 137.368805 -219.327387 
L 138.606798 -217.125899 
L 139.887614 -214.92441 
L 141.160772 -212.722922 
L 142.390275 -210.521434 
L 143.564109 -208.319945 
L 144.699937 -206.118457 
L 145.843372 -203.916968 
L 147.056863 -201.71548 
L 148.4016 -199.513992 
L 149.919495 -197.312503 
L 151.62335 -195.111015 
L 153.499133 -192.909526 
L 155.5171 -190.708038 
L 157.643424 -188.50655 
L 159.84492 -186.305061 
L 162.085955 -184.103573 
L 164.323638 -181.902084 
L 166.50946 -179.700596 
L 168.60052 -177.499108 
L 170.574857 -175.297619 
L 172.439651 -173.096131 
L 174.222858 -170.894642 
L 175.94768 -168.693154 
L 177.599692 -166.491666 
L 179.102006 -164.290177 
L 180.311486 -162.088689 
L 181.040517 -159.8872 
L 181.098574 -157.685712 
L 180.340349 -155.484224 
L 178.704816 -153.282735 
L 176.233085 -151.081247 
L 173.060641 -148.879758 
L 169.388755 -146.67827 
L 165.446362 -144.476781 
L 161.454705 -142.275293 
L 157.602761 -140.073805 
L 154.035097 -137.872316 
L 150.849301 -135.670828 
L 148.098963 -133.469339 
L 145.799443 -131.267851 
L 143.935081 -129.066363 
L 142.467022 -126.864874 
L 141.340814 -124.663386 
L 140.493088 -122.461897 
L 139.857003 -120.260409 
L 139.366576 -118.058921 
L 138.960063 -115.857432 
L 138.58269 -113.655944 
L 138.189193 -111.454455 
L 137.746583 -109.252967 
L 137.236963 -107.051479 
L 136.659274 -104.84999 
L 136.02839 -102.648502 
L 135.370753 -100.447013 
L 134.717429 -98.245525 
L 134.09691 -96.044037 
L 133.530176 -93.842548 
L 133.029239 -91.64106 
L 132.598598 -89.439571 
L 132.237916 -87.238083 
L 131.944231 -85.036595 
L 131.712996 -82.835106 
L 131.538184 -80.633618 
L 131.412207 -78.432129 
L 131.326219 -76.230641 
L 131.270913 -74.029153 
z
" style="stroke: #626262; stroke-width: 2.25"/>
    </defs>
    <g clip-path="url(#p3a5222aa95)">
     <use xlink:href="#mc3a7cdc894" x="0" y="345.6" style="fill: #92abde; stroke: #626262; stroke-width: 2.25"/>
    </g>
   </g>
   <g id="PolyCollection_2">
    <defs>
     <path id="mbd9d4c1b60" d="M 258.789135 -73.849813 
L 258.650865 -73.849813 
L 258.586649 -76.025319 
L 258.482065 -78.200826 
L 258.326162 -80.376333 
L 258.112859 -82.55184 
L 257.843634 -84.727346 
L 257.527283 -86.902853 
L 257.176074 -89.07836 
L 256.799763 -91.253867 
L 256.400549 -93.429373 
L 255.971614 -95.60488 
L 255.499771 -97.780387 
L 254.970561 -99.955894 
L 254.373501 -102.131401 
L 253.705899 -104.306907 
L 252.974255 -106.482414 
L 252.192241 -108.657921 
L 251.374549 -110.833428 
L 250.527911 -113.008934 
L 249.643473 -115.184441 
L 248.695647 -117.359948 
L 247.649126 -119.535455 
L 246.469373 -121.710962 
L 245.127482 -123.886468 
L 243.593036 -126.061975 
L 241.818122 -128.237482 
L 239.725913 -130.412989 
L 237.219423 -132.588495 
L 234.216514 -134.764002 
L 230.700506 -136.939509 
L 226.762477 -139.115016 
L 222.611064 -141.290522 
L 218.539656 -143.466029 
L 214.861561 -145.641536 
L 211.838702 -147.817043 
L 209.630292 -149.99255 
L 208.275974 -152.168056 
L 207.712 -154.343563 
L 207.808864 -156.51907 
L 208.416925 -158.694577 
L 209.408718 -160.870083 
L 210.708046 -163.04559 
L 212.297173 -165.221097 
L 214.198637 -167.396604 
L 216.438629 -169.572111 
L 219.008804 -171.747617 
L 221.845024 -173.923124 
L 224.832449 -176.098631 
L 227.832415 -178.274138 
L 230.716736 -180.449644 
L 233.394433 -182.625151 
L 235.822478 -184.800658 
L 238.000533 -186.976165 
L 239.95537 -189.151671 
L 241.722602 -191.327178 
L 243.332322 -193.502685 
L 244.802435 -195.678192 
L 246.13982 -197.853699 
L 247.34636 -200.029205 
L 248.425485 -202.204712 
L 249.385782 -204.380219 
L 250.240508 -206.555726 
L 251.004139 -208.731232 
L 251.688266 -210.906739 
L 252.298814 -213.082246 
L 252.835404 -215.257753 
L 253.292778 -217.43326 
L 253.664126 -219.608766 
L 253.946369 -221.784273 
L 254.146672 -223.95978 
L 254.287546 -226.135287 
L 254.406622 -228.310793 
L 254.548747 -230.4863 
L 254.752279 -232.661807 
L 255.035676 -234.837314 
L 255.391098 -237.01282 
L 255.788236 -239.188327 
L 256.186234 -241.363834 
L 256.547927 -243.539341 
L 256.850377 -245.714848 
L 257.088289 -247.890354 
L 257.270497 -250.065861 
L 257.412463 -252.241368 
L 257.528654 -254.416875 
L 257.62782 -256.592381 
L 257.712307 -258.767888 
L 257.780715 -260.943395 
L 257.832066 -263.118902 
L 257.86932 -265.294409 
L 257.900575 -267.469915 
L 257.937328 -269.645422 
L 257.990558 -271.820929 
L 258.06646 -273.996436 
L 258.163876 -276.171942 
L 258.27464 -278.347449 
L 258.386607 -280.522956 
L 258.487866 -282.698463 
L 258.570229 -284.873969 
L 258.630715 -287.049476 
L 258.67093 -289.224983 
L 258.76907 -289.224983 
L 258.76907 -289.224983 
L 258.809285 -287.049476 
L 258.869771 -284.873969 
L 258.952134 -282.698463 
L 259.053393 -280.522956 
L 259.16536 -278.347449 
L 259.276124 -276.171942 
L 259.37354 -273.996436 
L 259.449442 -271.820929 
L 259.502672 -269.645422 
L 259.539425 -267.469915 
L 259.57068 -265.294409 
L 259.607934 -263.118902 
L 259.659285 -260.943395 
L 259.727693 -258.767888 
L 259.81218 -256.592381 
L 259.911346 -254.416875 
L 260.027537 -252.241368 
L 260.169503 -250.065861 
L 260.351711 -247.890354 
L 260.589623 -245.714848 
L 260.892073 -243.539341 
L 261.253766 -241.363834 
L 261.651764 -239.188327 
L 262.048902 -237.01282 
L 262.404324 -234.837314 
L 262.687721 -232.661807 
L 262.891253 -230.4863 
L 263.033378 -228.310793 
L 263.152454 -226.135287 
L 263.293328 -223.95978 
L 263.493631 -221.784273 
L 263.775874 -219.608766 
L 264.147222 -217.43326 
L 264.604596 -215.257753 
L 265.141186 -213.082246 
L 265.751734 -210.906739 
L 266.435861 -208.731232 
L 267.199492 -206.555726 
L 268.054218 -204.380219 
L 269.014515 -202.204712 
L 270.09364 -200.029205 
L 271.30018 -197.853699 
L 272.637565 -195.678192 
L 274.107678 -193.502685 
L 275.717398 -191.327178 
L 277.48463 -189.151671 
L 279.439467 -186.976165 
L 281.617522 -184.800658 
L 284.045567 -182.625151 
L 286.723264 -180.449644 
L 289.607585 -178.274138 
L 292.607551 -176.098631 
L 295.594976 -173.923124 
L 298.431196 -171.747617 
L 301.001371 -169.572111 
L 303.241363 -167.396604 
L 305.142827 -165.221097 
L 306.731954 -163.04559 
L 308.031282 -160.870083 
L 309.023075 -158.694577 
L 309.631136 -156.51907 
L 309.728 -154.343563 
L 309.164026 -152.168056 
L 307.809708 -149.99255 
L 305.601298 -147.817043 
L 302.578439 -145.641536 
L 298.900344 -143.466029 
L 294.828936 -141.290522 
L 290.677523 -139.115016 
L 286.739494 -136.939509 
L 283.223486 -134.764002 
L 280.220577 -132.588495 
L 277.714087 -130.412989 
L 275.621878 -128.237482 
L 273.846964 -126.061975 
L 272.312518 -123.886468 
L 270.970627 -121.710962 
L 269.790874 -119.535455 
L 268.744353 -117.359948 
L 267.796527 -115.184441 
L 266.912089 -113.008934 
L 266.065451 -110.833428 
L 265.247759 -108.657921 
L 264.465745 -106.482414 
L 263.734101 -104.306907 
L 263.066499 -102.131401 
L 262.469439 -99.955894 
L 261.940229 -97.780387 
L 261.468386 -95.60488 
L 261.039451 -93.429373 
L 260.640237 -91.253867 
L 260.263926 -89.07836 
L 259.912717 -86.902853 
L 259.596366 -84.727346 
L 259.327141 -82.55184 
L 259.113838 -80.376333 
L 258.957935 -78.200826 
L 258.853351 -76.025319 
L 258.789135 -73.849813 
z
" style="stroke: #626262; stroke-width: 2.25"/>
    </defs>
    <g clip-path="url(#p3a5222aa95)">
     <use xlink:href="#mbd9d4c1b60" x="0" y="345.6" style="fill: #e1c366; stroke: #626262; stroke-width: 2.25"/>
    </g>
   </g>
   <g id="PolyCollection_3">
    <defs>
     <path id="m95957ec6e9" d="M 386.470105 -74.13963 
L 386.009895 -74.13963 
L 385.866601 -76.354467 
L 385.656177 -78.569303 
L 385.36009 -80.78414 
L 384.960976 -82.998976 
L 384.44567 -85.213813 
L 383.808382 -87.428649 
L 383.053154 -89.643485 
L 382.19466 -91.858322 
L 381.256605 -94.073158 
L 380.267526 -96.287995 
L 379.254609 -98.502831 
L 378.236878 -100.717668 
L 377.219593 -102.932504 
L 376.191577 -105.14734 
L 375.126439 -107.362177 
L 373.987523 -109.577013 
L 372.735161 -111.79185 
L 371.334081 -114.006686 
L 369.75881 -116.221523 
L 367.995754 -118.436359 
L 366.042034 -120.651195 
L 363.902528 -122.866032 
L 361.587373 -125.080868 
L 359.111926 -127.295705 
L 356.500006 -129.510541 
L 353.789453 -131.725378 
L 351.037516 -133.940214 
L 348.323042 -136.15505 
L 345.743204 -138.369887 
L 343.404484 -140.584723 
L 341.409914 -142.79956 
L 339.846193 -145.014396 
L 338.774543 -147.229233 
L 338.227701 -149.444069 
L 338.213066 -151.658905 
L 338.719593 -153.873742 
L 339.72479 -156.088578 
L 341.198546 -158.303415 
L 343.102426 -160.518251 
L 345.385519 -162.733088 
L 347.979851 -164.947924 
L 350.798864 -167.16276 
L 353.741285 -169.377597 
L 356.700449 -171.592433 
L 359.576763 -173.80727 
L 362.289647 -176.022106 
L 364.785406 -178.236943 
L 367.039045 -180.451779 
L 369.050238 -182.666616 
L 370.835529 -184.881452 
L 372.41973 -187.096288 
L 373.829082 -189.311125 
L 375.0875 -191.525961 
L 376.21575 -193.740798 
L 377.232331 -195.955634 
L 378.154556 -198.170471 
L 378.998704 -200.385307 
L 379.778955 -202.600143 
L 380.505546 -204.81498 
L 381.183046 -207.029816 
L 381.809598 -209.244653 
L 382.377595 -211.459489 
L 382.875763 -213.674326 
L 383.292148 -215.889162 
L 383.617301 -218.103998 
L 383.846927 -220.318835 
L 383.983511 -222.533671 
L 384.03665 -224.748508 
L 384.022146 -226.963344 
L 383.960112 -229.178181 
L 383.872477 -231.393017 
L 383.780338 -233.607853 
L 383.701594 -235.82269 
L 383.649203 -238.037526 
L 383.63027 -240.252363 
L 383.646005 -242.467199 
L 383.692429 -244.682036 
L 383.761661 -246.896872 
L 383.843565 -249.111708 
L 383.927581 -251.326545 
L 384.004603 -253.541381 
L 384.06869 -255.756218 
L 384.118353 -257.971054 
L 384.157095 -260.185891 
L 384.192947 -262.400727 
L 384.236915 -264.615564 
L 384.300603 -266.8304 
L 384.393515 -269.045236 
L 384.520745 -271.260073 
L 384.681665 -273.474909 
L 384.869948 -275.689746 
L 385.074885 -277.904582 
L 385.28356 -280.119419 
L 385.483274 -282.334255 
L 385.663605 -284.549091 
L 385.817686 -286.763928 
L 385.942552 -288.978764 
L 386.038703 -291.193601 
L 386.109157 -293.408437 
L 386.370843 -293.408437 
L 386.370843 -293.408437 
L 386.441297 -291.193601 
L 386.537448 -288.978764 
L 386.662314 -286.763928 
L 386.816395 -284.549091 
L 386.996726 -282.334255 
L 387.19644 -280.119419 
L 387.405115 -277.904582 
L 387.610052 -275.689746 
L 387.798335 -273.474909 
L 387.959255 -271.260073 
L 388.086485 -269.045236 
L 388.179397 -266.8304 
L 388.243085 -264.615564 
L 388.287053 -262.400727 
L 388.322905 -260.185891 
L 388.361647 -257.971054 
L 388.41131 -255.756218 
L 388.475397 -253.541381 
L 388.552419 -251.326545 
L 388.636435 -249.111708 
L 388.718339 -246.896872 
L 388.787571 -244.682036 
L 388.833995 -242.467199 
L 388.84973 -240.252363 
L 388.830797 -238.037526 
L 388.778406 -235.82269 
L 388.699662 -233.607853 
L 388.607523 -231.393017 
L 388.519888 -229.178181 
L 388.457854 -226.963344 
L 388.44335 -224.748508 
L 388.496489 -222.533671 
L 388.633073 -220.318835 
L 388.862699 -218.103998 
L 389.187852 -215.889162 
L 389.604237 -213.674326 
L 390.102405 -211.459489 
L 390.670402 -209.244653 
L 391.296954 -207.029816 
L 391.974454 -204.81498 
L 392.701045 -202.600143 
L 393.481296 -200.385307 
L 394.325444 -198.170471 
L 395.247669 -195.955634 
L 396.26425 -193.740798 
L 397.3925 -191.525961 
L 398.650918 -189.311125 
L 400.06027 -187.096288 
L 401.644471 -184.881452 
L 403.429762 -182.666616 
L 405.440955 -180.451779 
L 407.694594 -178.236943 
L 410.190353 -176.022106 
L 412.903237 -173.80727 
L 415.779551 -171.592433 
L 418.738715 -169.377597 
L 421.681136 -167.16276 
L 424.500149 -164.947924 
L 427.094481 -162.733088 
L 429.377574 -160.518251 
L 431.281454 -158.303415 
L 432.75521 -156.088578 
L 433.760407 -153.873742 
L 434.266934 -151.658905 
L 434.252299 -149.444069 
L 433.705457 -147.229233 
L 432.633807 -145.014396 
L 431.070086 -142.79956 
L 429.075516 -140.584723 
L 426.736796 -138.369887 
L 424.156958 -136.15505 
L 421.442484 -133.940214 
L 418.690547 -131.725378 
L 415.979994 -129.510541 
L 413.368074 -127.295705 
L 410.892627 -125.080868 
L 408.577472 -122.866032 
L 406.437966 -120.651195 
L 404.484246 -118.436359 
L 402.72119 -116.221523 
L 401.145919 -114.006686 
L 399.744839 -111.79185 
L 398.492477 -109.577013 
L 397.353561 -107.362177 
L 396.288423 -105.14734 
L 395.260407 -102.932504 
L 394.243122 -100.717668 
L 393.225391 -98.502831 
L 392.212474 -96.287995 
L 391.223395 -94.073158 
L 390.28534 -91.858322 
L 389.426846 -89.643485 
L 388.671618 -87.428649 
L 388.03433 -85.213813 
L 387.519024 -82.998976 
L 387.11991 -80.78414 
L 386.823823 -78.569303 
L 386.613399 -76.354467 
L 386.470105 -74.13963 
z
" style="stroke: #626262; stroke-width: 2.25"/>
    </defs>
    <g clip-path="url(#p3a5222aa95)">
     <use xlink:href="#m95957ec6e9" x="0" y="345.6" style="fill: #cdadd7; stroke: #626262; stroke-width: 2.25"/>
    </g>
   </g>
   <g id="matplotlib.axis_1">
    <g id="xtick_1">
     <g id="line2d_1">
      <defs>
       <path id="m5077031d54" d="M 0 0 
L 0 9 
" style="stroke: #000000; stroke-width: 1.875"/>
      </defs>
      <g>
       <use xlink:href="#m5077031d54" x="131.2" y="305.74" style="stroke: #000000; stroke-width: 1.875"/>
      </g>
     </g>
     <g id="text_1">
      <text style="font: 16px 'DejaVu Sans', 'Bitstream Vera Sans', 'Computer Modern Sans Serif', 'Lucida Grande', 'Verdana', 'Geneva', 'Lucid', 'Arial', 'Helvetica', 'Avant Garde', sans-serif; text-anchor: middle" x="131.2" y="330.3975" transform="rotate(-0 131.2 330.3975)">V1</text>
     </g>
    </g>
    <g id="xtick_2">
     <g id="line2d_2">
      <g>
       <use xlink:href="#m5077031d54" x="258.72" y="305.74" style="stroke: #000000; stroke-width: 1.875"/>
      </g>
     </g>
     <g id="text_2">
      <text style="font: 16px 'DejaVu Sans', 'Bitstream Vera Sans', 'Computer Modern Sans Serif', 'Lucida Grande', 'Verdana', 'Geneva', 'Lucid', 'Arial', 'Helvetica', 'Avant Garde', sans-serif; text-anchor: middle" x="258.72" y="330.3975" transform="rotate(-0 258.72 330.3975)">LM</text>
     </g>
    </g>
    <g id="xtick_3">
     <g id="line2d_3">
      <g>
       <use xlink:href="#m5077031d54" x="386.24" y="305.74" style="stroke: #000000; stroke-width: 1.875"/>
      </g>
     </g>
     <g id="text_3">
      <text style="font: 16px 'DejaVu Sans', 'Bitstream Vera Sans', 'Computer Modern Sans Serif', 'Lucida Grande', 'Verdana', 'Geneva', 'Lucid', 'Arial', 'Helvetica', 'Avant Garde', sans-serif; text-anchor: middle" x="386.24" y="330.3975" transform="rotate(-0 386.24 330.3975)">LI</text>
     </g>
    </g>
   </g>
   <g id="matplotlib.axis_2">
    <g id="ytick_1">
     <g id="line2d_4">
      <defs>
       <path id="mbbfb74f462" d="M 0 0 
L -9 0 
" style="stroke: #000000; stroke-width: 1.875"/>
      </defs>
      <g>
       <use xlink:href="#mbbfb74f462" x="67.44" y="305.74" style="stroke: #000000; stroke-width: 1.875"/>
      </g>
     </g>
     <g id="text_4">
      <text style="font: 16px 'DejaVu Sans', 'Bitstream Vera Sans', 'Computer Modern Sans Serif', 'Lucida Grande', 'Verdana', 'Geneva', 'Lucid', 'Arial', 'Helvetica', 'Avant Garde', sans-serif; text-anchor: end" x="54.94" y="311.81875" transform="rotate(-0 54.94 311.81875)">−3</text>
     </g>
    </g>
    <g id="ytick_2">
     <g id="line2d_5">
      <g>
       <use xlink:href="#mbbfb74f462" x="67.44" y="257.663333" style="stroke: #000000; stroke-width: 1.875"/>
      </g>
     </g>
     <g id="text_5">
      <text style="font: 16px 'DejaVu Sans', 'Bitstream Vera Sans', 'Computer Modern Sans Serif', 'Lucida Grande', 'Verdana', 'Geneva', 'Lucid', 'Arial', 'Helvetica', 'Avant Garde', sans-serif; text-anchor: end" x="54.94" y="263.742083" transform="rotate(-0 54.94 263.742083)">−2</text>
     </g>
    </g>
    <g id="ytick_3">
     <g id="line2d_6">
      <g>
       <use xlink:href="#mbbfb74f462" x="67.44" y="209.586667" style="stroke: #000000; stroke-width: 1.875"/>
      </g>
     </g>
     <g id="text_6">
      <text style="font: 16px 'DejaVu Sans', 'Bitstream Vera Sans', 'Computer Modern Sans Serif', 'Lucida Grande', 'Verdana', 'Geneva', 'Lucid', 'Arial', 'Helvetica', 'Avant Garde', sans-serif; text-anchor: end" x="54.94" y="215.665417" transform="rotate(-0 54.94 215.665417)">−1</text>
     </g>
    </g>
    <g id="ytick_4">
     <g id="line2d_7">
      <g>
       <use xlink:href="#mbbfb74f462" x="67.44" y="161.51" style="stroke: #000000; stroke-width: 1.875"/>
      </g>
     </g>
     <g id="text_7">
      <text style="font: 16px 'DejaVu Sans', 'Bitstream Vera Sans', 'Computer Modern Sans Serif', 'Lucida Grande', 'Verdana', 'Geneva', 'Lucid', 'Arial', 'Helvetica', 'Avant Garde', sans-serif; text-anchor: end" x="54.94" y="167.58875" transform="rotate(-0 54.94 167.58875)">0</text>
     </g>
    </g>
    <g id="ytick_5">
     <g id="line2d_8">
      <g>
       <use xlink:href="#mbbfb74f462" x="67.44" y="113.433333" style="stroke: #000000; stroke-width: 1.875"/>
      </g>
     </g>
     <g id="text_8">
      <text style="font: 16px 'DejaVu Sans', 'Bitstream Vera Sans', 'Computer Modern Sans Serif', 'Lucida Grande', 'Verdana', 'Geneva', 'Lucid', 'Arial', 'Helvetica', 'Avant Garde', sans-serif; text-anchor: end" x="54.94" y="119.512083" transform="rotate(-0 54.94 119.512083)">1</text>
     </g>
    </g>
    <g id="ytick_6">
     <g id="line2d_9">
      <g>
       <use xlink:href="#mbbfb74f462" x="67.44" y="65.356667" style="stroke: #000000; stroke-width: 1.875"/>
      </g>
     </g>
     <g id="text_9">
      <text style="font: 16px 'DejaVu Sans', 'Bitstream Vera Sans', 'Computer Modern Sans Serif', 'Lucida Grande', 'Verdana', 'Geneva', 'Lucid', 'Arial', 'Helvetica', 'Avant Garde', sans-serif; text-anchor: end" x="54.94" y="71.435417" transform="rotate(-0 54.94 71.435417)">2</text>
     </g>
    </g>
    <g id="ytick_7">
     <g id="line2d_10">
      <g>
       <use xlink:href="#mbbfb74f462" x="67.44" y="17.28" style="stroke: #000000; stroke-width: 1.875"/>
      </g>
     </g>
     <g id="text_10">
      <text style="font: 16px 'DejaVu Sans', 'Bitstream Vera Sans', 'Computer Modern Sans Serif', 'Lucida Grande', 'Verdana', 'Geneva', 'Lucid', 'Arial', 'Helvetica', 'Avant Garde', sans-serif; text-anchor: end" x="54.94" y="23.35875" transform="rotate(-0 54.94 23.35875)">3</text>
     </g>
    </g>
    <g id="text_11">
     <text style="font: 16px 'DejaVu Sans', 'Bitstream Vera Sans', 'Computer Modern Sans Serif', 'Lucida Grande', 'Verdana', 'Geneva', 'Lucid', 'Arial', 'Helvetica', 'Avant Garde', sans-serif; text-anchor: middle" x="24.025" y="161.51" transform="rotate(-90 24.025 161.51)">Adaptation index</text>
    </g>
   </g>
   <g id="line2d_11">
    <path d="M 131.2 240.765374 
L 131.2 122.864386 
" clip-path="url(#p3a5222aa95)" style="fill: none; stroke: #626262; stroke-width: 2.25; stroke-linecap: square"/>
   </g>
   <g id="line2d_12">
    <path d="M 131.2 195.597497 
L 131.2 164.870557 
" clip-path="url(#p3a5222aa95)" style="fill: none; stroke: #626262; stroke-width: 6.75; stroke-linecap: square"/>
   </g>
   <g id="line2d_13">
    <path d="M 258.72 243.43343 
L 258.72 125.69997 
" clip-path="url(#p3a5222aa95)" style="fill: none; stroke: #626262; stroke-width: 2.25; stroke-linecap: square"/>
   </g>
   <g id="line2d_14">
    <path d="M 258.72 199.943164 
L 258.72 170.016885 
" clip-path="url(#p3a5222aa95)" style="fill: none; stroke: #626262; stroke-width: 6.75; stroke-linecap: square"/>
   </g>
   <g id="line2d_15">
    <path d="M 386.24 246.019236 
L 386.24 141.170801 
" clip-path="url(#p3a5222aa95)" style="fill: none; stroke: #626262; stroke-width: 2.25; stroke-linecap: square"/>
   </g>
   <g id="line2d_16">
    <path d="M 386.24 206.545758 
L 386.24 179.41267 
" clip-path="url(#p3a5222aa95)" style="fill: none; stroke: #626262; stroke-width: 6.75; stroke-linecap: square"/>
   </g>
   <g id="patch_3">
    <path d="M 67.44 305.74 
L 67.44 17.28 
" style="fill: none; stroke: #000000; stroke-width: 1.875; stroke-linejoin: miter; stroke-linecap: square"/>
   </g>
   <g id="patch_4">
    <path d="M 67.44 305.74 
L 450 305.74 
" style="fill: none; stroke: #000000; stroke-width: 1.875; stroke-linejoin: miter; stroke-linecap: square"/>
   </g>
   <g id="PathCollection_1">
    <defs>
     <path id="m5315a9c2a9" d="M 0 2.25 
C 0.596707 2.25 1.169055 2.012926 1.59099 1.59099 
C 2.012926 1.169055 2.25 0.596707 2.25 0 
C 2.25 -0.596707 2.012926 -1.169055 1.59099 -1.59099 
C 1.169055 -2.012926 0.596707 -2.25 0 -2.25 
C -0.596707 -2.25 -1.169055 -2.012926 -1.59099 -1.59099 
C -2.012926 -1.169055 -2.25 -0.596707 -2.25 0 
C -2.25 0.596707 -2.012926 1.169055 -1.59099 1.59099 
C -1.169055 2.012926 -0.596707 2.25 0 2.25 
z
" style="stroke: #626262; stroke-width: 1.5"/>
    </defs>
    <g clip-path="url(#p3a5222aa95)">
     <use xlink:href="#m5315a9c2a9" x="131.2" y="181.993155" style="fill: #ffffff; stroke: #626262; stroke-width: 1.5"/>
    </g>
   </g>
   <g id="PathCollection_2">
    <g clip-path="url(#p3a5222aa95)">
     <use xlink:href="#m5315a9c2a9" x="258.72" y="186.18721" style="fill: #ffffff; stroke: #626262; stroke-width: 1.5"/>
    </g>
   </g>
   <g id="PathCollection_3">
    <g clip-path="url(#p3a5222aa95)">
     <use xlink:href="#m5315a9c2a9" x="386.24" y="194.1841" style="fill: #ffffff; stroke: #626262; stroke-width: 1.5"/>
    </g>
   </g>
   <g id="text_12">
    <text style="font: 14px 'DejaVu Sans', 'Bitstream Vera Sans', 'Computer Modern Sans Serif', 'Lucida Grande', 'Verdana', 'Geneva', 'Lucid', 'Arial', 'Helvetica', 'Avant Garde', sans-serif; text-anchor: start" x="105.696" y="296.124667" transform="rotate(-0 105.696 296.124667)">n=407</text>
   </g>
   <g id="text_13">
    <text style="font: 14px 'DejaVu Sans', 'Bitstream Vera Sans', 'Computer Modern Sans Serif', 'Lucida Grande', 'Verdana', 'Geneva', 'Lucid', 'Arial', 'Helvetica', 'Avant Garde', sans-serif; text-anchor: start" x="233.216" y="296.124667" transform="rotate(-0 233.216 296.124667)">n=911</text>
   </g>
   <g id="text_14">
    <text style="font: 14px 'DejaVu Sans', 'Bitstream Vera Sans', 'Computer Modern Sans Serif', 'Lucida Grande', 'Verdana', 'Geneva', 'Lucid', 'Arial', 'Helvetica', 'Avant Garde', sans-serif; text-anchor: start" x="360.736" y="296.124667" transform="rotate(-0 360.736 296.124667)">n=201</text>
   </g>
   <g id="text_15">
    <text style="font: 14px 'DejaVu Sans', 'Bitstream Vera Sans', 'Computer Modern Sans Serif', 'Lucida Grande', 'Verdana', 'Geneva', 'Lucid', 'Arial', 'Helvetica', 'Avant Garde', sans-serif; text-anchor: start" x="335.232" y="41.318333" transform="rotate(-0 335.232 41.318333)">p=1.1e-07</text>
   </g>
  </g>
 </g>
 <defs>
  <clipPath id="p3a5222aa95">
   <rect x="67.44" y="17.28" width="382.56" height="288.46"/>
  </clipPath>
 </defs>
</svg>
