<?xml version="1.0" encoding="utf-8" standalone="no"?>
<!DOCTYPE svg PUBLIC "-//W3C//DTD SVG 1.1//EN"
  "http://www.w3.org/Graphics/SVG/1.1/DTD/svg11.dtd">
<svg xmlns:xlink="http://www.w3.org/1999/xlink" width="460.8pt" height="345.6pt" viewBox="0 0 460.8 345.6" xmlns="http://www.w3.org/2000/svg" version="1.1">
 <metadata>
  <rdf:RDF xmlns:dc="http://purl.org/dc/elements/1.1/" xmlns:cc="http://creativecommons.org/ns#" xmlns:rdf="http://www.w3.org/1999/02/22-rdf-syntax-ns#">
   <cc:Work>
    <dc:type rdf:resource="http://purl.org/dc/dcmitype/StillImage"/>
    <dc:date>2023-11-20T17:16:47.395026</dc:date>
    <dc:format>image/svg+xml</dc:format>
    <dc:creator>
     <cc:Agent>
      <dc:title>Matplotlib v3.7.2, https://matplotlib.org/</dc:title>
     </cc:Agent>
    </dc:creator>
   </cc:Work>
  </rdf:RDF>
 </metadata>
 <defs>
  <style type="text/css">*{stroke-linejoin: round; stroke-linecap: butt}</style>
 </defs>
 <g id="figure_1">
  <g id="patch_1">
   <path d="M 0 345.6 
L 460.8 345.6 
L 460.8 0 
L 0 0 
z
" style="fill: #ffffff"/>
  </g>
  <g id="axes_1">
   <g id="patch_2">
    <path d="M 67.44 305.74 
L 450 305.74 
L 450 10.8 
L 67.44 10.8 
z
" style="fill: #ffffff"/>
   </g>
   <g id="PolyCollection_1">
    <defs>
     <path id="m77e75a4bef" d="M 131.257475 -53.43371 
L 131.142525 -53.43371 
L 131.091746 -56.140376 
L 131.012043 -58.847042 
L 130.89776 -61.553708 
L 130.747288 -64.260374 
L 130.564158 -66.96704 
L 130.356755 -69.673706 
L 130.137343 -72.380372 
L 129.92143 -75.087038 
L 129.727436 -77.793703 
L 129.575032 -80.500369 
L 129.480476 -83.207035 
L 129.449712 -85.913701 
L 129.473192 -88.620367 
L 129.526871 -91.327033 
L 129.580245 -94.033699 
L 129.607001 -96.740365 
L 129.591441 -99.447031 
L 129.526695 -102.153697 
L 129.406731 -104.860363 
L 129.218684 -107.567029 
L 128.941943 -110.273694 
L 128.556121 -112.98036 
L 128.054257 -115.687026 
L 127.453457 -118.393692 
L 126.794638 -121.100358 
L 126.127174 -123.807024 
L 125.482048 -126.51369 
L 124.844693 -129.220356 
L 124.14092 -131.927022 
L 123.24355 -134.633688 
L 121.996774 -137.340354 
L 120.247246 -140.04702 
L 117.870871 -142.753686 
L 114.791521 -145.460351 
L 110.995974 -148.167017 
L 106.551471 -150.873683 
L 101.626303 -153.580349 
L 96.503579 -156.287015 
L 91.57084 -158.993681 
L 87.270511 -161.700347 
L 84.011539 -164.407013 
L 82.066391 -167.113679 
L 81.49606 -169.820345 
L 82.142562 -172.527011 
L 83.698653 -175.233677 
L 85.823233 -177.940343 
L 88.246109 -180.647008 
L 90.815949 -183.353674 
L 93.482872 -186.06034 
L 96.243732 -188.767006 
L 99.089158 -191.473672 
L 101.976306 -194.180338 
L 104.829618 -196.887004 
L 107.560613 -199.59367 
L 110.096588 -202.300336 
L 112.407477 -205.007002 
L 114.517722 -207.713668 
L 116.493313 -210.420334 
L 118.407069 -213.127 
L 120.299694 -215.833665 
L 122.157575 -218.540331 
L 123.918003 -221.246997 
L 125.496935 -223.953663 
L 126.824274 -226.660329 
L 127.870583 -229.366995 
L 128.654967 -232.073661 
L 129.232854 -234.780327 
L 129.671292 -237.486993 
L 130.024484 -240.193659 
L 130.320505 -242.900325 
L 130.562637 -245.606991 
L 130.740601 -248.313656 
L 130.843627 -251.020322 
L 130.869594 -253.726988 
L 130.828894 -256.433654 
L 130.744141 -259.14032 
L 130.646558 -261.846986 
L 130.569165 -264.553652 
L 130.53775 -267.260318 
L 130.562719 -269.966984 
L 130.635724 -272.67365 
L 130.733045 -275.380316 
L 130.82412 -278.086982 
L 130.881164 -280.793648 
L 130.886181 -283.500313 
L 130.834055 -286.206979 
L 130.732515 -288.913645 
L 130.600299 -291.620311 
L 130.464005 -294.326977 
L 130.353303 -297.033643 
L 130.294435 -299.740309 
L 130.303203 -302.446975 
L 130.379976 -305.153641 
L 130.509397 -307.860307 
L 130.665584 -310.566973 
L 130.820826 -313.273639 
L 130.953807 -315.980305 
L 131.053956 -318.68697 
L 131.120954 -321.393636 
L 131.279046 -321.393636 
L 131.279046 -321.393636 
L 131.346044 -318.68697 
L 131.446193 -315.980305 
L 131.579174 -313.273639 
L 131.734416 -310.566973 
L 131.890603 -307.860307 
L 132.020024 -305.153641 
L 132.096797 -302.446975 
L 132.105565 -299.740309 
L 132.046697 -297.033643 
L 131.935995 -294.326977 
L 131.799701 -291.620311 
L 131.667485 -288.913645 
L 131.565945 -286.206979 
L 131.513819 -283.500313 
L 131.518836 -280.793648 
L 131.57588 -278.086982 
L 131.666955 -275.380316 
L 131.764276 -272.67365 
L 131.837281 -269.966984 
L 131.86225 -267.260318 
L 131.830835 -264.553652 
L 131.753442 -261.846986 
L 131.655859 -259.14032 
L 131.571106 -256.433654 
L 131.530406 -253.726988 
L 131.556373 -251.020322 
L 131.659399 -248.313656 
L 131.837363 -245.606991 
L 132.079495 -242.900325 
L 132.375516 -240.193659 
L 132.728708 -237.486993 
L 133.167146 -234.780327 
L 133.745033 -232.073661 
L 134.529417 -229.366995 
L 135.575726 -226.660329 
L 136.903065 -223.953663 
L 138.481997 -221.246997 
L 140.242425 -218.540331 
L 142.100306 -215.833665 
L 143.992931 -213.127 
L 145.906687 -210.420334 
L 147.882278 -207.713668 
L 149.992523 -205.007002 
L 152.303412 -202.300336 
L 154.839387 -199.59367 
L 157.570382 -196.887004 
L 160.423694 -194.180338 
L 163.310842 -191.473672 
L 166.156268 -188.767006 
L 168.917128 -186.06034 
L 171.584051 -183.353674 
L 174.153891 -180.647008 
L 176.576767 -177.940343 
L 178.701347 -175.233677 
L 180.257438 -172.527011 
L 180.90394 -169.820345 
L 180.333609 -167.113679 
L 178.388461 -164.407013 
L 175.129489 -161.700347 
L 170.82916 -158.993681 
L 165.896421 -156.287015 
L 160.773697 -153.580349 
L 155.848529 -150.873683 
L 151.404026 -148.167017 
L 147.608479 -145.460351 
L 144.529129 -142.753686 
L 142.152754 -140.04702 
L 140.403226 -137.340354 
L 139.15645 -134.633688 
L 138.25908 -131.927022 
L 137.555307 -129.220356 
L 136.917952 -126.51369 
L 136.272826 -123.807024 
L 135.605362 -121.100358 
L 134.946543 -118.393692 
L 134.345743 -115.687026 
L 133.843879 -112.98036 
L 133.458057 -110.273694 
L 133.181316 -107.567029 
L 132.993269 -104.860363 
L 132.873305 -102.153697 
L 132.808559 -99.447031 
L 132.792999 -96.740365 
L 132.819755 -94.033699 
L 132.873129 -91.327033 
L 132.926808 -88.620367 
L 132.950288 -85.913701 
L 132.919524 -83.207035 
L 132.824968 -80.500369 
L 132.672564 -77.793703 
L 132.47857 -75.087038 
L 132.262657 -72.380372 
L 132.043245 -69.673706 
L 131.835842 -66.96704 
L 131.652712 -64.260374 
L 131.50224 -61.553708 
L 131.387957 -58.847042 
L 131.308254 -56.140376 
L 131.257475 -53.43371 
z
" style="stroke: #626262; stroke-width: 2.25"/>
    </defs>
    <g clip-path="url(#p4f9ba255b0)">
     <use xlink:href="#m77e75a4bef" x="0" y="345.6" style="fill: #92abde; stroke: #626262; stroke-width: 2.25"/>
    </g>
   </g>
   <g id="PolyCollection_2">
    <defs>
     <path id="mb2f861be1b" d="M 258.743227 -53.266364 
L 258.696773 -53.266364 
L 258.675613 -55.949918 
L 258.645047 -58.633472 
L 258.607868 -61.317026 
L 258.570465 -64.000579 
L 258.539772 -66.684133 
L 258.517926 -69.367687 
L 258.498199 -72.051241 
L 258.466193 -74.734795 
L 258.406961 -77.418349 
L 258.313647 -80.101903 
L 258.190741 -82.785457 
L 258.04844 -85.469011 
L 257.892286 -88.152565 
L 257.717837 -90.836119 
L 257.516904 -93.519673 
L 257.290951 -96.203227 
L 257.058594 -98.886781 
L 256.847422 -101.570335 
L 256.673683 -104.253889 
L 256.524271 -106.937443 
L 256.354119 -109.620997 
L 256.100879 -112.304551 
L 255.707701 -114.988105 
L 255.141413 -117.671659 
L 254.397781 -120.355213 
L 253.493128 -123.038767 
L 252.447689 -125.722321 
L 251.268166 -128.405875 
L 249.935788 -131.089429 
L 248.402843 -133.772983 
L 246.59521 -136.456537 
L 244.413839 -139.140091 
L 241.733065 -141.823644 
L 238.410805 -144.507198 
L 234.337484 -147.190752 
L 229.530338 -149.874306 
L 224.229032 -152.55786 
L 218.913507 -155.241414 
L 214.194507 -157.924968 
L 210.61327 -160.608522 
L 208.459597 -163.292076 
L 207.712 -165.97563 
L 208.123758 -168.659184 
L 209.388575 -171.342738 
L 211.282091 -174.026292 
L 213.706924 -176.709846 
L 216.639362 -179.3934 
L 220.036157 -182.076954 
L 223.77282 -184.760508 
L 227.64856 -187.444062 
L 231.441575 -190.127616 
L 234.970869 -192.81117 
L 238.129515 -195.494724 
L 240.882262 -198.178278 
L 243.242796 -200.861832 
L 245.250251 -203.545386 
L 246.954284 -206.22894 
L 248.406173 -208.912494 
L 249.650498 -211.596048 
L 250.717311 -214.279602 
L 251.619695 -216.963156 
L 252.360267 -219.646709 
L 252.944849 -222.330263 
L 253.396947 -225.013817 
L 253.764504 -227.697371 
L 254.111916 -230.380925 
L 254.497615 -233.064479 
L 254.948725 -235.748033 
L 255.44975 -238.431587 
L 255.954168 -241.115141 
L 256.411197 -243.798695 
L 256.78955 -246.482249 
L 257.084501 -249.165803 
L 257.308563 -251.849357 
L 257.47671 -254.532911 
L 257.59696 -257.216465 
L 257.669804 -259.900019 
L 257.693528 -262.583573 
L 257.671127 -265.267127 
L 257.615713 -267.950681 
L 257.551452 -270.634235 
L 257.507292 -273.317789 
L 257.504708 -276.001343 
L 257.547029 -278.684897 
L 257.619078 -281.368451 
L 257.697982 -284.052005 
L 257.766383 -286.735559 
L 257.818376 -289.419113 
L 257.856945 -292.102667 
L 257.889281 -294.78622 
L 257.925114 -297.469774 
L 257.976418 -300.153328 
L 258.054007 -302.836882 
L 258.160909 -305.520436 
L 258.288028 -308.20399 
L 258.417 -310.887544 
L 258.52887 -313.571098 
L 258.612254 -316.254652 
L 258.665935 -318.938206 
L 258.774065 -318.938206 
L 258.774065 -318.938206 
L 258.827746 -316.254652 
L 258.91113 -313.571098 
L 259.023 -310.887544 
L 259.151972 -308.20399 
L 259.279091 -305.520436 
L 259.385993 -302.836882 
L 259.463582 -300.153328 
L 259.514886 -297.469774 
L 259.550719 -294.78622 
L 259.583055 -292.102667 
L 259.621624 -289.419113 
L 259.673617 -286.735559 
L 259.742018 -284.052005 
L 259.820922 -281.368451 
L 259.892971 -278.684897 
L 259.935292 -276.001343 
L 259.932708 -273.317789 
L 259.888548 -270.634235 
L 259.824287 -267.950681 
L 259.768873 -265.267127 
L 259.746472 -262.583573 
L 259.770196 -259.900019 
L 259.84304 -257.216465 
L 259.96329 -254.532911 
L 260.131437 -251.849357 
L 260.355499 -249.165803 
L 260.65045 -246.482249 
L 261.028803 -243.798695 
L 261.485832 -241.115141 
L 261.99025 -238.431587 
L 262.491275 -235.748033 
L 262.942385 -233.064479 
L 263.328084 -230.380925 
L 263.675496 -227.697371 
L 264.043053 -225.013817 
L 264.495151 -222.330263 
L 265.079733 -219.646709 
L 265.820305 -216.963156 
L 266.722689 -214.279602 
L 267.789502 -211.596048 
L 269.033827 -208.912494 
L 270.485716 -206.22894 
L 272.189749 -203.545386 
L 274.197204 -200.861832 
L 276.557738 -198.178278 
L 279.310485 -195.494724 
L 282.469131 -192.81117 
L 285.998425 -190.127616 
L 289.79144 -187.444062 
L 293.66718 -184.760508 
L 297.403843 -182.076954 
L 300.800638 -179.3934 
L 303.733076 -176.709846 
L 306.157909 -174.026292 
L 308.051425 -171.342738 
L 309.316242 -168.659184 
L 309.728 -165.97563 
L 308.980403 -163.292076 
L 306.82673 -160.608522 
L 303.245493 -157.924968 
L 298.526493 -155.241414 
L 293.210968 -152.55786 
L 287.909662 -149.874306 
L 283.102516 -147.190752 
L 279.029195 -144.507198 
L 275.706935 -141.823644 
L 273.026161 -139.140091 
L 270.84479 -136.456537 
L 269.037157 -133.772983 
L 267.504212 -131.089429 
L 266.171834 -128.405875 
L 264.992311 -125.722321 
L 263.946872 -123.038767 
L 263.042219 -120.355213 
L 262.298587 -117.671659 
L 261.732299 -114.988105 
L 261.339121 -112.304551 
L 261.085881 -109.620997 
L 260.915729 -106.937443 
L 260.766317 -104.253889 
L 260.592578 -101.570335 
L 260.381406 -98.886781 
L 260.149049 -96.203227 
L 259.923096 -93.519673 
L 259.722163 -90.836119 
L 259.547714 -88.152565 
L 259.39156 -85.469011 
L 259.249259 -82.785457 
L 259.126353 -80.101903 
L 259.033039 -77.418349 
L 258.973807 -74.734795 
L 258.941801 -72.051241 
L 258.922074 -69.367687 
L 258.900228 -66.684133 
L 258.869535 -64.000579 
L 258.832132 -61.317026 
L 258.794953 -58.633472 
L 258.764387 -55.949918 
L 258.743227 -53.266364 
z
" style="stroke: #626262; stroke-width: 2.25"/>
    </defs>
    <g clip-path="url(#p4f9ba255b0)">
     <use xlink:href="#mb2f861be1b" x="0" y="345.6" style="fill: #e1c366; stroke: #626262; stroke-width: 2.25"/>
    </g>
   </g>
   <g id="PolyCollection_3">
    <defs>
     <path id="mc003ab1eac" d="M 386.344919 -72.476231 
L 386.135081 -72.476231 
L 386.067412 -74.819565 
L 385.968506 -77.162898 
L 385.831007 -79.506232 
L 385.649062 -81.849565 
L 385.419729 -84.192899 
L 385.144145 -86.536232 
L 384.828007 -88.879566 
L 384.480972 -91.222899 
L 384.114713 -93.566232 
L 383.739758 -95.909566 
L 383.361693 -98.252899 
L 382.977782 -100.596233 
L 382.575338 -102.939566 
L 382.132847 -105.2829 
L 381.624032 -107.626233 
L 381.023716 -109.969567 
L 380.313292 -112.3129 
L 379.48333 -114.656234 
L 378.531838 -116.999567 
L 377.458643 -119.342901 
L 376.25833 -121.686234 
L 374.915158 -124.029568 
L 373.402583 -126.372901 
L 371.68781 -128.716235 
L 369.739371 -131.059568 
L 367.534423 -133.402902 
L 365.063237 -135.746235 
L 362.330706 -138.089569 
L 359.357127 -140.432902 
L 356.181286 -142.776235 
L 352.867115 -145.119569 
L 349.511734 -147.462902 
L 346.249671 -149.806236 
L 343.247694 -152.149569 
L 340.687827 -154.492903 
L 338.741412 -156.836236 
L 337.541646 -159.17957 
L 337.163273 -161.522903 
L 337.615156 -163.866237 
L 338.846036 -166.20957 
L 340.758874 -168.552904 
L 343.227323 -170.896237 
L 346.10961 -173.239571 
L 349.258754 -175.582904 
L 352.530946 -177.926238 
L 355.794346 -180.269571 
L 358.93869 -182.612905 
L 361.883588 -184.956238 
L 364.582404 -187.299572 
L 367.019874 -189.642905 
L 369.204259 -191.986239 
L 371.157206 -194.329572 
L 372.904955 -196.672905 
L 374.473123 -199.016239 
L 375.884953 -201.359572 
L 377.161235 -203.702906 
L 378.319925 -206.046239 
L 379.374584 -208.389573 
L 380.332274 -210.732906 
L 381.192414 -213.07624 
L 381.947889 -215.419573 
L 382.588638 -217.762907 
L 383.106747 -220.10624 
L 383.50129 -222.449574 
L 383.78123 -224.792907 
L 383.965389 -227.136241 
L 384.079528 -229.479574 
L 384.151515 -231.822908 
L 384.206046 -234.166241 
L 384.260386 -236.509575 
L 384.322175 -238.852908 
L 384.389659 -241.196242 
L 384.454092 -243.539575 
L 384.503575 -245.882908 
L 384.527407 -248.226242 
L 384.519975 -250.569575 
L 384.483342 -252.912909 
L 384.427849 -255.256242 
L 384.370426 -257.599576 
L 384.330828 -259.942909 
L 384.326697 -262.286243 
L 384.368882 -264.629576 
L 384.458567 -266.97291 
L 384.587267 -269.316243 
L 384.739726 -271.659577 
L 384.898697 -274.00291 
L 385.049866 -276.346244 
L 385.185179 -278.689577 
L 385.303602 -281.032911 
L 385.4094 -283.376244 
L 385.508945 -285.719578 
L 385.607504 -288.062911 
L 385.707175 -290.406245 
L 385.806504 -292.749578 
L 385.901524 -295.092911 
L 385.987507 -297.436245 
L 386.06061 -299.779578 
L 386.118864 -302.122912 
L 386.162361 -304.466245 
L 386.317639 -304.466245 
L 386.317639 -304.466245 
L 386.361136 -302.122912 
L 386.41939 -299.779578 
L 386.492493 -297.436245 
L 386.578476 -295.092911 
L 386.673496 -292.749578 
L 386.772825 -290.406245 
L 386.872496 -288.062911 
L 386.971055 -285.719578 
L 387.0706 -283.376244 
L 387.176398 -281.032911 
L 387.294821 -278.689577 
L 387.430134 -276.346244 
L 387.581303 -274.00291 
L 387.740274 -271.659577 
L 387.892733 -269.316243 
L 388.021433 -266.97291 
L 388.111118 -264.629576 
L 388.153303 -262.286243 
L 388.149172 -259.942909 
L 388.109574 -257.599576 
L 388.052151 -255.256242 
L 387.996658 -252.912909 
L 387.960025 -250.569575 
L 387.952593 -248.226242 
L 387.976425 -245.882908 
L 388.025908 -243.539575 
L 388.090341 -241.196242 
L 388.157825 -238.852908 
L 388.219614 -236.509575 
L 388.273954 -234.166241 
L 388.328485 -231.822908 
L 388.400472 -229.479574 
L 388.514611 -227.136241 
L 388.69877 -224.792907 
L 388.97871 -222.449574 
L 389.373253 -220.10624 
L 389.891362 -217.762907 
L 390.532111 -215.419573 
L 391.287586 -213.07624 
L 392.147726 -210.732906 
L 393.105416 -208.389573 
L 394.160075 -206.046239 
L 395.318765 -203.702906 
L 396.595047 -201.359572 
L 398.006877 -199.016239 
L 399.575045 -196.672905 
L 401.322794 -194.329572 
L 403.275741 -191.986239 
L 405.460126 -189.642905 
L 407.897596 -187.299572 
L 410.596412 -184.956238 
L 413.54131 -182.612905 
L 416.685654 -180.269571 
L 419.949054 -177.926238 
L 423.221246 -175.582904 
L 426.37039 -173.239571 
L 429.252677 -170.896237 
L 431.721126 -168.552904 
L 433.633964 -166.20957 
L 434.864844 -163.866237 
L 435.316727 -161.522903 
L 434.938354 -159.17957 
L 433.738588 -156.836236 
L 431.792173 -154.492903 
L 429.232306 -152.149569 
L 426.230329 -149.806236 
L 422.968266 -147.462902 
L 419.612885 -145.119569 
L 416.298714 -142.776235 
L 413.122873 -140.432902 
L 410.149294 -138.089569 
L 407.416763 -135.746235 
L 404.945577 -133.402902 
L 402.740629 -131.059568 
L 400.79219 -128.716235 
L 399.077417 -126.372901 
L 397.564842 -124.029568 
L 396.22167 -121.686234 
L 395.021357 -119.342901 
L 393.948162 -116.999567 
L 392.99667 -114.656234 
L 392.166708 -112.3129 
L 391.456284 -109.969567 
L 390.855968 -107.626233 
L 390.347153 -105.2829 
L 389.904662 -102.939566 
L 389.502218 -100.596233 
L 389.118307 -98.252899 
L 388.740242 -95.909566 
L 388.365287 -93.566232 
L 387.999028 -91.222899 
L 387.651993 -88.879566 
L 387.335855 -86.536232 
L 387.060271 -84.192899 
L 386.830938 -81.849565 
L 386.648993 -79.506232 
L 386.511494 -77.162898 
L 386.412588 -74.819565 
L 386.344919 -72.476231 
z
" style="stroke: #626262; stroke-width: 2.25"/>
    </defs>
    <g clip-path="url(#p4f9ba255b0)">
     <use xlink:href="#mc003ab1eac" x="0" y="345.6" style="fill: #cdadd7; stroke: #626262; stroke-width: 2.25"/>
    </g>
   </g>
   <g id="matplotlib.axis_1">
    <g id="xtick_1">
     <g id="line2d_1">
      <defs>
       <path id="m7921b419d3" d="M 0 0 
L 0 9 
" style="stroke: #000000; stroke-width: 1.875"/>
      </defs>
      <g>
       <use xlink:href="#m7921b419d3" x="131.2" y="305.74" style="stroke: #000000; stroke-width: 1.875"/>
      </g>
     </g>
     <g id="text_1">
      <text style="font: 16px 'DejaVu Sans', 'Bitstream Vera Sans', 'Computer Modern Sans Serif', 'Lucida Grande', 'Verdana', 'Geneva', 'Lucid', 'Arial', 'Helvetica', 'Avant Garde', sans-serif; text-anchor: middle" x="131.2" y="330.3975" transform="rotate(-0 131.2 330.3975)">V1</text>
     </g>
    </g>
    <g id="xtick_2">
     <g id="line2d_2">
      <g>
       <use xlink:href="#m7921b419d3" x="258.72" y="305.74" style="stroke: #000000; stroke-width: 1.875"/>
      </g>
     </g>
     <g id="text_2">
      <text style="font: 16px 'DejaVu Sans', 'Bitstream Vera Sans', 'Computer Modern Sans Serif', 'Lucida Grande', 'Verdana', 'Geneva', 'Lucid', 'Arial', 'Helvetica', 'Avant Garde', sans-serif; text-anchor: middle" x="258.72" y="330.3975" transform="rotate(-0 258.72 330.3975)">LM</text>
     </g>
    </g>
    <g id="xtick_3">
     <g id="line2d_3">
      <g>
       <use xlink:href="#m7921b419d3" x="386.24" y="305.74" style="stroke: #000000; stroke-width: 1.875"/>
      </g>
     </g>
     <g id="text_3">
      <text style="font: 16px 'DejaVu Sans', 'Bitstream Vera Sans', 'Computer Modern Sans Serif', 'Lucida Grande', 'Verdana', 'Geneva', 'Lucid', 'Arial', 'Helvetica', 'Avant Garde', sans-serif; text-anchor: middle" x="386.24" y="330.3975" transform="rotate(-0 386.24 330.3975)">LI</text>
     </g>
    </g>
   </g>
   <g id="matplotlib.axis_2">
    <g id="ytick_1">
     <g id="line2d_4">
      <defs>
       <path id="m3af6ce11a6" d="M 0 0 
L -9 0 
" style="stroke: #000000; stroke-width: 1.875"/>
      </defs>
      <g>
       <use xlink:href="#m3af6ce11a6" x="67.44" y="277.573068" style="stroke: #000000; stroke-width: 1.875"/>
      </g>
     </g>
     <g id="text_4">
      <text style="font: 16px 'DejaVu Sans', 'Bitstream Vera Sans', 'Computer Modern Sans Serif', 'Lucida Grande', 'Verdana', 'Geneva', 'Lucid', 'Arial', 'Helvetica', 'Avant Garde', sans-serif; text-anchor: end" x="54.94" y="283.651818" transform="rotate(-0 54.94 283.651818)">−3</text>
     </g>
    </g>
    <g id="ytick_2">
     <g id="line2d_5">
      <g>
       <use xlink:href="#m3af6ce11a6" x="67.44" y="236.482048" style="stroke: #000000; stroke-width: 1.875"/>
      </g>
     </g>
     <g id="text_5">
      <text style="font: 16px 'DejaVu Sans', 'Bitstream Vera Sans', 'Computer Modern Sans Serif', 'Lucida Grande', 'Verdana', 'Geneva', 'Lucid', 'Arial', 'Helvetica', 'Avant Garde', sans-serif; text-anchor: end" x="54.94" y="242.560798" transform="rotate(-0 54.94 242.560798)">−2</text>
     </g>
    </g>
    <g id="ytick_3">
     <g id="line2d_6">
      <g>
       <use xlink:href="#m3af6ce11a6" x="67.44" y="195.391029" style="stroke: #000000; stroke-width: 1.875"/>
      </g>
     </g>
     <g id="text_6">
      <text style="font: 16px 'DejaVu Sans', 'Bitstream Vera Sans', 'Computer Modern Sans Serif', 'Lucida Grande', 'Verdana', 'Geneva', 'Lucid', 'Arial', 'Helvetica', 'Avant Garde', sans-serif; text-anchor: end" x="54.94" y="201.469779" transform="rotate(-0 54.94 201.469779)">−1</text>
     </g>
    </g>
    <g id="ytick_4">
     <g id="line2d_7">
      <g>
       <use xlink:href="#m3af6ce11a6" x="67.44" y="154.300009" style="stroke: #000000; stroke-width: 1.875"/>
      </g>
     </g>
     <g id="text_7">
      <text style="font: 16px 'DejaVu Sans', 'Bitstream Vera Sans', 'Computer Modern Sans Serif', 'Lucida Grande', 'Verdana', 'Geneva', 'Lucid', 'Arial', 'Helvetica', 'Avant Garde', sans-serif; text-anchor: end" x="54.94" y="160.378759" transform="rotate(-0 54.94 160.378759)">0</text>
     </g>
    </g>
    <g id="ytick_5">
     <g id="line2d_8">
      <g>
       <use xlink:href="#m3af6ce11a6" x="67.44" y="113.20899" style="stroke: #000000; stroke-width: 1.875"/>
      </g>
     </g>
     <g id="text_8">
      <text style="font: 16px 'DejaVu Sans', 'Bitstream Vera Sans', 'Computer Modern Sans Serif', 'Lucida Grande', 'Verdana', 'Geneva', 'Lucid', 'Arial', 'Helvetica', 'Avant Garde', sans-serif; text-anchor: end" x="54.94" y="119.28774" transform="rotate(-0 54.94 119.28774)">1</text>
     </g>
    </g>
    <g id="ytick_6">
     <g id="line2d_9">
      <g>
       <use xlink:href="#m3af6ce11a6" x="67.44" y="72.11797" style="stroke: #000000; stroke-width: 1.875"/>
      </g>
     </g>
     <g id="text_9">
      <text style="font: 16px 'DejaVu Sans', 'Bitstream Vera Sans', 'Computer Modern Sans Serif', 'Lucida Grande', 'Verdana', 'Geneva', 'Lucid', 'Arial', 'Helvetica', 'Avant Garde', sans-serif; text-anchor: end" x="54.94" y="78.19672" transform="rotate(-0 54.94 78.19672)">2</text>
     </g>
    </g>
    <g id="ytick_7">
     <g id="line2d_10">
      <g>
       <use xlink:href="#m3af6ce11a6" x="67.44" y="31.02695" style="stroke: #000000; stroke-width: 1.875"/>
      </g>
     </g>
     <g id="text_10">
      <text style="font: 16px 'DejaVu Sans', 'Bitstream Vera Sans', 'Computer Modern Sans Serif', 'Lucida Grande', 'Verdana', 'Geneva', 'Lucid', 'Arial', 'Helvetica', 'Avant Garde', sans-serif; text-anchor: end" x="54.94" y="37.1057" transform="rotate(-0 54.94 37.1057)">3</text>
     </g>
    </g>
    <g id="text_11">
     <text style="font: 16px 'DejaVu Sans', 'Bitstream Vera Sans', 'Computer Modern Sans Serif', 'Lucida Grande', 'Verdana', 'Geneva', 'Lucid', 'Arial', 'Helvetica', 'Avant Garde', sans-serif; text-anchor: middle" x="24.025" y="158.27" transform="rotate(-90 24.025 158.27)">Adaptation index</text>
    </g>
   </g>
   <g id="line2d_11">
    <path d="M 131.2 222.954279 
L 131.2 121.26969 
" clip-path="url(#p4f9ba255b0)" style="fill: none; stroke: #626262; stroke-width: 2.25; stroke-linecap: square"/>
   </g>
   <g id="line2d_12">
    <path d="M 131.2 184.139513 
L 131.2 156.713187 
" clip-path="url(#p4f9ba255b0)" style="fill: none; stroke: #626262; stroke-width: 6.75; stroke-linecap: square"/>
   </g>
   <g id="line2d_13">
    <path d="M 258.72 227.152104 
L 258.72 119.352835 
" clip-path="url(#p4f9ba255b0)" style="fill: none; stroke: #626262; stroke-width: 2.25; stroke-linecap: square"/>
   </g>
   <g id="line2d_14">
    <path d="M 258.72 187.696539 
L 258.72 160.295038 
" clip-path="url(#p4f9ba255b0)" style="fill: none; stroke: #626262; stroke-width: 6.75; stroke-linecap: square"/>
   </g>
   <g id="line2d_15">
    <path d="M 386.24 230.063289 
L 386.24 133.817435 
" clip-path="url(#p4f9ba255b0)" style="fill: none; stroke: #626262; stroke-width: 2.25; stroke-linecap: square"/>
   </g>
   <g id="line2d_16">
    <path d="M 386.24 195.578314 
L 386.24 169.601381 
" clip-path="url(#p4f9ba255b0)" style="fill: none; stroke: #626262; stroke-width: 6.75; stroke-linecap: square"/>
   </g>
   <g id="patch_3">
    <path d="M 67.44 305.74 
L 67.44 10.8 
" style="fill: none; stroke: #000000; stroke-width: 1.875; stroke-linejoin: miter; stroke-linecap: square"/>
   </g>
   <g id="patch_4">
    <path d="M 67.44 305.74 
L 450 305.74 
" style="fill: none; stroke: #000000; stroke-width: 1.875; stroke-linejoin: miter; stroke-linecap: square"/>
   </g>
   <g id="PathCollection_1">
    <defs>
     <path id="m9306d018dc" d="M 0 2.25 
C 0.596707 2.25 1.169055 2.012926 1.59099 1.59099 
C 2.012926 1.169055 2.25 0.596707 2.25 0 
C 2.25 -0.596707 2.012926 -1.169055 1.59099 -1.59099 
C 1.169055 -2.012926 0.596707 -2.25 0 -2.25 
C -0.596707 -2.25 -1.169055 -2.012926 -1.59099 -1.59099 
C -2.012926 -1.169055 -2.25 -0.596707 -2.25 0 
C -2.25 0.596707 -2.012926 1.169055 -1.59099 1.59099 
C -1.169055 2.012926 -0.596707 2.25 0 2.25 
z
" style="stroke: #626262; stroke-width: 1.5"/>
    </defs>
    <g clip-path="url(#p4f9ba255b0)">
     <use xlink:href="#m9306d018dc" x="131.2" y="172.604003" style="fill: #ffffff; stroke: #626262; stroke-width: 1.5"/>
    </g>
   </g>
   <g id="PathCollection_2">
    <g clip-path="url(#p4f9ba255b0)">
     <use xlink:href="#m9306d018dc" x="258.72" y="175.413031" style="fill: #ffffff; stroke: #626262; stroke-width: 1.5"/>
    </g>
   </g>
   <g id="PathCollection_3">
    <g clip-path="url(#p4f9ba255b0)">
     <use xlink:href="#m9306d018dc" x="386.24" y="184.05075" style="fill: #ffffff; stroke: #626262; stroke-width: 1.5"/>
    </g>
   </g>
   <g id="text_12">
    <text style="font: 14px 'DejaVu Sans', 'Bitstream Vera Sans', 'Computer Modern Sans Serif', 'Lucida Grande', 'Verdana', 'Geneva', 'Lucid', 'Arial', 'Helvetica', 'Avant Garde', sans-serif; text-anchor: start" x="296.976" y="51.57246" transform="rotate(-0 296.976 51.57246)">p=1.1e-07</text>
   </g>
  </g>
 </g>
 <defs>
  <clipPath id="p4f9ba255b0">
   <rect x="67.44" y="10.8" width="382.56" height="294.94"/>
  </clipPath>
 </defs>
</svg>
