<?xml version="1.0" encoding="utf-8" standalone="no"?>
<!DOCTYPE svg PUBLIC "-//W3C//DTD SVG 1.1//EN"
  "http://www.w3.org/Graphics/SVG/1.1/DTD/svg11.dtd">
<svg xmlns:xlink="http://www.w3.org/1999/xlink" width="460.8pt" height="345.6pt" viewBox="0 0 460.8 345.6" xmlns="http://www.w3.org/2000/svg" version="1.1">
 <metadata>
  <rdf:RDF xmlns:dc="http://purl.org/dc/elements/1.1/" xmlns:cc="http://creativecommons.org/ns#" xmlns:rdf="http://www.w3.org/1999/02/22-rdf-syntax-ns#">
   <cc:Work>
    <dc:type rdf:resource="http://purl.org/dc/dcmitype/StillImage"/>
    <dc:date>2023-11-29T17:54:42.621973</dc:date>
    <dc:format>image/svg+xml</dc:format>
    <dc:creator>
     <cc:Agent>
      <dc:title>Matplotlib v3.7.2, https://matplotlib.org/</dc:title>
     </cc:Agent>
    </dc:creator>
   </cc:Work>
  </rdf:RDF>
 </metadata>
 <defs>
  <style type="text/css">*{stroke-linejoin: round; stroke-linecap: butt}</style>
 </defs>
 <g id="figure_1">
  <g id="patch_1">
   <path d="M 0 345.6 
L 460.8 345.6 
L 460.8 0 
L 0 0 
z
" style="fill: #ffffff"/>
  </g>
  <g id="axes_1">
   <g id="patch_2">
    <path d="M 67.44 305.74 
L 450 305.74 
L 450 10.8 
L 67.44 10.8 
z
" style="fill: #ffffff"/>
   </g>
   <g id="PolyCollection_1">
    <defs>
     <path id="mc0cb93beab" d="M 134.669094 -55.748196 
L 134.581065 -55.748196 
L 134.534957 -58.135158 
L 134.467566 -60.52212 
L 134.390075 -62.909083 
L 134.325699 -65.296045 
L 134.299035 -67.683007 
L 134.31995 -70.06997 
L 134.374161 -72.456932 
L 134.427439 -74.843894 
L 134.438267 -77.230856 
L 134.370348 -79.617819 
L 134.204048 -82.004781 
L 133.95001 -84.391743 
L 133.65888 -86.778705 
L 133.411383 -89.165668 
L 133.283291 -91.55263 
L 133.305776 -93.939592 
L 133.452097 -96.326554 
L 133.658646 -98.713517 
L 133.857066 -101.100479 
L 133.991132 -103.487441 
L 134.016185 -105.874404 
L 133.895922 -108.261366 
L 133.604828 -110.648328 
L 133.133259 -113.03529 
L 132.493847 -115.422253 
L 131.730423 -117.809215 
L 130.918356 -120.196177 
L 130.135038 -122.583139 
L 129.400237 -124.970102 
L 128.624858 -127.357064 
L 127.612409 -129.744026 
L 126.113271 -132.130988 
L 123.887882 -134.517951 
L 120.744054 -136.904913 
L 116.561528 -139.291875 
L 111.342186 -141.678838 
L 105.296017 -144.0658 
L 98.916959 -146.452762 
L 92.964013 -148.839724 
L 88.283822 -151.226687 
L 85.513338 -153.613649 
L 84.829091 -156.000611 
L 85.92687 -158.387573 
L 88.256797 -160.774536 
L 91.33094 -163.161498 
L 94.87255 -165.54846 
L 98.742836 -167.935422 
L 102.78737 -170.322385 
L 106.774943 -172.709347 
L 110.457209 -175.096309 
L 113.657508 -177.483272 
L 116.320199 -179.870234 
L 118.52111 -182.257196 
L 120.442862 -184.644158 
L 122.299588 -187.031121 
L 124.23144 -189.418083 
L 126.236244 -191.805045 
L 128.184447 -194.192007 
L 129.898424 -196.57897 
L 131.243785 -198.965932 
L 132.189368 -201.352894 
L 132.811338 -203.739856 
L 133.240771 -206.126819 
L 133.588889 -208.513781 
L 133.901771 -210.900743 
L 134.168948 -213.287706 
L 134.363036 -215.674668 
L 134.470707 -218.06163 
L 134.498698 -220.448592 
L 134.466551 -222.835555 
L 134.40137 -225.222517 
L 134.335608 -227.609479 
L 134.300054 -229.996441 
L 134.310749 -232.383404 
L 134.359649 -234.770366 
L 134.418735 -237.157328 
L 134.455765 -239.54429 
L 134.451156 -241.931253 
L 134.407322 -244.318215 
L 134.347572 -246.705177 
L 134.304833 -249.09214 
L 134.304228 -251.479102 
L 134.3494 -253.866064 
L 134.422552 -256.253026 
L 134.497627 -258.639989 
L 134.555044 -261.026951 
L 134.587131 -263.413913 
L 134.59369 -265.800875 
L 134.575162 -268.187838 
L 134.530754 -270.5748 
L 134.463301 -272.961762 
L 134.386095 -275.348724 
L 134.323356 -277.735687 
L 134.299869 -280.122649 
L 134.325873 -282.509611 
L 134.390107 -284.896574 
L 134.467571 -287.283536 
L 134.534957 -289.670498 
L 134.581065 -292.05746 
L 134.669094 -292.05746 
L 134.669094 -292.05746 
L 134.715201 -289.670498 
L 134.782588 -287.283536 
L 134.860052 -284.896574 
L 134.924285 -282.509611 
L 134.950289 -280.122649 
L 134.926802 -277.735687 
L 134.864063 -275.348724 
L 134.786858 -272.961762 
L 134.719404 -270.5748 
L 134.674996 -268.187838 
L 134.656469 -265.800875 
L 134.663028 -263.413913 
L 134.695115 -261.026951 
L 134.752531 -258.639989 
L 134.827606 -256.253026 
L 134.900758 -253.866064 
L 134.94593 -251.479102 
L 134.945325 -249.09214 
L 134.902587 -246.705177 
L 134.842836 -244.318215 
L 134.799003 -241.931253 
L 134.794394 -239.54429 
L 134.831423 -237.157328 
L 134.890509 -234.770366 
L 134.93941 -232.383404 
L 134.950105 -229.996441 
L 134.914551 -227.609479 
L 134.848789 -225.222517 
L 134.783607 -222.835555 
L 134.75146 -220.448592 
L 134.779451 -218.06163 
L 134.887122 -215.674668 
L 135.08121 -213.287706 
L 135.348387 -210.900743 
L 135.661269 -208.513781 
L 136.009388 -206.126819 
L 136.43882 -203.739856 
L 137.060791 -201.352894 
L 138.006374 -198.965932 
L 139.351735 -196.57897 
L 141.065712 -194.192007 
L 143.013914 -191.805045 
L 145.018719 -189.418083 
L 146.950571 -187.031121 
L 148.807296 -184.644158 
L 150.729048 -182.257196 
L 152.92996 -179.870234 
L 155.592651 -177.483272 
L 158.792949 -175.096309 
L 162.475215 -172.709347 
L 166.462789 -170.322385 
L 170.507322 -167.935422 
L 174.377609 -165.54846 
L 177.919219 -163.161498 
L 180.993362 -160.774536 
L 183.323289 -158.387573 
L 184.421068 -156.000611 
L 183.73682 -153.613649 
L 180.966337 -151.226687 
L 176.286146 -148.839724 
L 170.333199 -146.452762 
L 163.954141 -144.0658 
L 157.907973 -141.678838 
L 152.68863 -139.291875 
L 148.506105 -136.904913 
L 145.362276 -134.517951 
L 143.136888 -132.130988 
L 141.63775 -129.744026 
L 140.6253 -127.357064 
L 139.849922 -124.970102 
L 139.11512 -122.583139 
L 138.331803 -120.196177 
L 137.519735 -117.809215 
L 136.756312 -115.422253 
L 136.1169 -113.03529 
L 135.64533 -110.648328 
L 135.354236 -108.261366 
L 135.233974 -105.874404 
L 135.259026 -103.487441 
L 135.393092 -101.100479 
L 135.591512 -98.713517 
L 135.798061 -96.326554 
L 135.944382 -93.939592 
L 135.966868 -91.55263 
L 135.838776 -89.165668 
L 135.591279 -86.778705 
L 135.300148 -84.391743 
L 135.04611 -82.004781 
L 134.87981 -79.617819 
L 134.811891 -77.230856 
L 134.822719 -74.843894 
L 134.875997 -72.456932 
L 134.930209 -70.06997 
L 134.951123 -67.683007 
L 134.92446 -65.296045 
L 134.860083 -62.909083 
L 134.782593 -60.52212 
L 134.715202 -58.135158 
L 134.669094 -55.748196 
z
" style="stroke: #626262; stroke-width: 2.25"/>
    </defs>
    <g clip-path="url(#p63bca6e31e)">
     <use xlink:href="#mc0cb93beab" x="0" y="345.6" style="fill: #92abde; stroke: #626262; stroke-width: 2.25"/>
    </g>
   </g>
   <g id="PolyCollection_2">
    <defs>
     <path id="mc30ce86bf8" d="M 260.14373 -53.266364 
L 260.101801 -53.266364 
L 260.075958 -55.896378 
L 260.037636 -58.526392 
L 259.996653 -61.156407 
L 259.970584 -63.786421 
L 259.973182 -66.416435 
L 260.003001 -69.04645 
L 260.044657 -71.676464 
L 260.081262 -74.306478 
L 260.104741 -76.936492 
L 260.11604 -79.566507 
L 260.119084 -82.196521 
L 260.115065 -84.826535 
L 260.098988 -87.45655 
L 260.057893 -90.086564 
L 259.97236 -92.716578 
L 259.824503 -95.346593 
L 259.611305 -97.976607 
L 259.353656 -100.606621 
L 259.088649 -103.236636 
L 258.843801 -105.86665 
L 258.610133 -108.496664 
L 258.336011 -111.126679 
L 257.945661 -113.756693 
L 257.365076 -116.386707 
L 256.538915 -119.016722 
L 255.436037 -121.646736 
L 254.043765 -124.27675 
L 252.346737 -126.906764 
L 250.291189 -129.536779 
L 247.73899 -132.166793 
L 244.427758 -134.796807 
L 240.010894 -137.426822 
L 234.278656 -140.056836 
L 227.501542 -142.68685 
L 220.588911 -145.316865 
L 214.796499 -147.946879 
L 211.131174 -150.576893 
L 209.923691 -153.206908 
L 210.874894 -155.836922 
L 213.437949 -158.466936 
L 217.15472 -161.096951 
L 221.704943 -163.726965 
L 226.756697 -166.356979 
L 231.879222 -168.986994 
L 236.640413 -171.617008 
L 240.768512 -174.247022 
L 244.202896 -176.877036 
L 247.009653 -179.507051 
L 249.276457 -182.137065 
L 251.078393 -184.767079 
L 252.49518 -187.397094 
L 253.616402 -190.027108 
L 254.520199 -192.657122 
L 255.258471 -195.287137 
L 255.871176 -197.917151 
L 256.409949 -200.547165 
L 256.932525 -203.17718 
L 257.466149 -205.807194 
L 257.987383 -208.437208 
L 258.449206 -211.067223 
L 258.821832 -213.697237 
L 259.100696 -216.327251 
L 259.287793 -218.957266 
L 259.383248 -221.58728 
L 259.395114 -224.217294 
L 259.346379 -226.847308 
L 259.270293 -229.477323 
L 259.203018 -232.107337 
L 259.174513 -234.737351 
L 259.194216 -237.367366 
L 259.24595 -239.99738 
L 259.30599 -242.627394 
L 259.365328 -245.257409 
L 259.428487 -247.887423 
L 259.4975 -250.517437 
L 259.569565 -253.147452 
L 259.648032 -255.777466 
L 259.741806 -258.40748 
L 259.849798 -261.037495 
L 259.954353 -263.667509 
L 260.034183 -266.297523 
L 260.079227 -268.927538 
L 260.091378 -271.557552 
L 260.076719 -274.187566 
L 260.042606 -276.81758 
L 260.001388 -279.447595 
L 259.970694 -282.077609 
L 259.962972 -284.707623 
L 259.971616 -287.337638 
L 259.969411 -289.967652 
L 259.926015 -292.597666 
L 259.834693 -295.227681 
L 259.727853 -297.857695 
L 259.662727 -300.487709 
L 259.68078 -303.117724 
L 259.775306 -305.747738 
L 259.899711 -308.377752 
L 260.005895 -311.007767 
L 260.072793 -313.637781 
L 260.172739 -313.637781 
L 260.172739 -313.637781 
L 260.239637 -311.007767 
L 260.34582 -308.377752 
L 260.470226 -305.747738 
L 260.564752 -303.117724 
L 260.582805 -300.487709 
L 260.517679 -297.857695 
L 260.410839 -295.227681 
L 260.319516 -292.597666 
L 260.27612 -289.967652 
L 260.273916 -287.337638 
L 260.282559 -284.707623 
L 260.274837 -282.077609 
L 260.244143 -279.447595 
L 260.202926 -276.81758 
L 260.168813 -274.187566 
L 260.154154 -271.557552 
L 260.166304 -268.927538 
L 260.211349 -266.297523 
L 260.291179 -263.667509 
L 260.395734 -261.037495 
L 260.503726 -258.40748 
L 260.5975 -255.777466 
L 260.675967 -253.147452 
L 260.748031 -250.517437 
L 260.817045 -247.887423 
L 260.880204 -245.257409 
L 260.939541 -242.627394 
L 260.999582 -239.99738 
L 261.051316 -237.367366 
L 261.071019 -234.737351 
L 261.042514 -232.107337 
L 260.975238 -229.477323 
L 260.899153 -226.847308 
L 260.850418 -224.217294 
L 260.862284 -221.58728 
L 260.957739 -218.957266 
L 261.144836 -216.327251 
L 261.423699 -213.697237 
L 261.796326 -211.067223 
L 262.258148 -208.437208 
L 262.779382 -205.807194 
L 263.313006 -203.17718 
L 263.835583 -200.547165 
L 264.374356 -197.917151 
L 264.987061 -195.287137 
L 265.725333 -192.657122 
L 266.62913 -190.027108 
L 267.750352 -187.397094 
L 269.167139 -184.767079 
L 270.969074 -182.137065 
L 273.235879 -179.507051 
L 276.042636 -176.877036 
L 279.47702 -174.247022 
L 283.605118 -171.617008 
L 288.36631 -168.986994 
L 293.488835 -166.356979 
L 298.540588 -163.726965 
L 303.090812 -161.096951 
L 306.807582 -158.466936 
L 309.370637 -155.836922 
L 310.321841 -153.206908 
L 309.114358 -150.576893 
L 305.449032 -147.946879 
L 299.65662 -145.316865 
L 292.74399 -142.68685 
L 285.966876 -140.056836 
L 280.234638 -137.426822 
L 275.817774 -134.796807 
L 272.506541 -132.166793 
L 269.954342 -129.536779 
L 267.898794 -126.906764 
L 266.201767 -124.27675 
L 264.809495 -121.646736 
L 263.706617 -119.016722 
L 262.880456 -116.386707 
L 262.299871 -113.756693 
L 261.90952 -111.126679 
L 261.635399 -108.496664 
L 261.401731 -105.86665 
L 261.156883 -103.236636 
L 260.891875 -100.606621 
L 260.634226 -97.976607 
L 260.421029 -95.346593 
L 260.273172 -92.716578 
L 260.187639 -90.086564 
L 260.146544 -87.45655 
L 260.130467 -84.826535 
L 260.126448 -82.196521 
L 260.129491 -79.566507 
L 260.140791 -76.936492 
L 260.164269 -74.306478 
L 260.200875 -71.676464 
L 260.242531 -69.04645 
L 260.27235 -66.416435 
L 260.274947 -63.786421 
L 260.248879 -61.156407 
L 260.207895 -58.526392 
L 260.169574 -55.896378 
L 260.14373 -53.266364 
z
" style="stroke: #626262; stroke-width: 2.25"/>
    </defs>
    <g clip-path="url(#p63bca6e31e)">
     <use xlink:href="#mc30ce86bf8" x="0" y="345.6" style="fill: #e1c366; stroke: #626262; stroke-width: 2.25"/>
    </g>
   </g>
   <g id="PolyCollection_3">
    <defs>
     <path id="m963fea337b" d="M 385.691144 -59.286957 
L 385.549761 -59.286957 
L 385.495203 -61.62058 
L 385.418855 -63.954203 
L 385.325639 -66.287826 
L 385.228632 -68.621449 
L 385.146842 -70.955073 
L 385.098854 -73.288696 
L 385.094706 -75.622319 
L 385.130181 -77.955942 
L 385.186917 -80.289565 
L 385.238669 -82.623189 
L 385.260777 -84.956812 
L 385.238457 -87.290435 
L 385.17034 -89.624058 
L 385.065793 -91.957681 
L 384.9369 -94.291304 
L 384.788005 -96.624928 
L 384.606916 -98.958551 
L 384.361687 -101.292174 
L 384.005254 -103.625797 
L 383.4876 -105.95942 
L 382.771922 -108.293043 
L 381.847891 -110.626667 
L 380.733304 -112.96029 
L 379.45872 -115.293913 
L 378.039529 -117.627536 
L 376.45116 -119.961159 
L 374.625418 -122.294782 
L 372.47354 -124.628406 
L 369.922018 -126.962029 
L 366.937849 -129.295652 
L 363.531349 -131.629275 
L 359.748099 -133.962898 
L 355.67362 -136.296522 
L 351.459881 -138.630145 
L 347.352946 -140.963768 
L 343.6863 -143.297391 
L 340.823866 -145.631014 
L 339.075562 -147.964637 
L 338.629996 -150.298261 
L 339.532296 -152.631884 
L 341.698209 -154.965507 
L 344.936001 -157.29913 
L 348.962111 -159.632753 
L 353.423548 -161.966376 
L 357.945955 -164.3 
L 362.203205 -166.633623 
L 365.97812 -168.967246 
L 369.183372 -171.300869 
L 371.837747 -173.634492 
L 374.020155 -175.968115 
L 375.82875 -178.301739 
L 377.356952 -180.635362 
L 378.681323 -182.968985 
L 379.852926 -185.302608 
L 380.891397 -187.636231 
L 381.787451 -189.969854 
L 382.517276 -192.303478 
L 383.064209 -194.637101 
L 383.437102 -196.970724 
L 383.675828 -199.304347 
L 383.841236 -201.63797 
L 383.994841 -203.971594 
L 384.178226 -206.305217 
L 384.401498 -208.63884 
L 384.64513 -210.972463 
L 384.872864 -213.306086 
L 385.048763 -215.639709 
L 385.151039 -217.973333 
L 385.178251 -220.306956 
L 385.147337 -222.640579 
L 385.085613 -224.974202 
L 385.02027 -227.307825 
L 384.969545 -229.641448 
L 384.939326 -231.975072 
L 384.926545 -234.308695 
L 384.92674 -236.642318 
L 384.940379 -238.975941 
L 384.973487 -241.309564 
L 385.03254 -243.643187 
L 385.117926 -245.976811 
L 385.221029 -248.310434 
L 385.326731 -250.644057 
L 385.419035 -252.97768 
L 385.485831 -255.311303 
L 385.520429 -257.644927 
L 385.520378 -259.97855 
L 385.486005 -262.312173 
L 385.420666 -264.645796 
L 385.332733 -266.979419 
L 385.237258 -269.313042 
L 385.154673 -271.646666 
L 385.105535 -273.980289 
L 385.103205 -276.313912 
L 385.14843 -278.647535 
L 385.229159 -280.981158 
L 385.325798 -283.314781 
L 385.418898 -285.648405 
L 385.495214 -287.982028 
L 385.549763 -290.315651 
L 385.691142 -290.315651 
L 385.691142 -290.315651 
L 385.745691 -287.982028 
L 385.822007 -285.648405 
L 385.915107 -283.314781 
L 386.011746 -280.981158 
L 386.092475 -278.647535 
L 386.1377 -276.313912 
L 386.13537 -273.980289 
L 386.086232 -271.646666 
L 386.003647 -269.313042 
L 385.908172 -266.979419 
L 385.820239 -264.645796 
L 385.7549 -262.312173 
L 385.720527 -259.97855 
L 385.720476 -257.644927 
L 385.755074 -255.311303 
L 385.82187 -252.97768 
L 385.914174 -250.644057 
L 386.019876 -248.310434 
L 386.122979 -245.976811 
L 386.208365 -243.643187 
L 386.267418 -241.309564 
L 386.300526 -238.975941 
L 386.314165 -236.642318 
L 386.31436 -234.308695 
L 386.301579 -231.975072 
L 386.27136 -229.641448 
L 386.220635 -227.307825 
L 386.155292 -224.974202 
L 386.093568 -222.640579 
L 386.062654 -220.306956 
L 386.089866 -217.973333 
L 386.192142 -215.639709 
L 386.368041 -213.306086 
L 386.595775 -210.972463 
L 386.839407 -208.63884 
L 387.062679 -206.305217 
L 387.246064 -203.971594 
L 387.399669 -201.63797 
L 387.565077 -199.304347 
L 387.803803 -196.970724 
L 388.176696 -194.637101 
L 388.723629 -192.303478 
L 389.453454 -189.969854 
L 390.349508 -187.636231 
L 391.387979 -185.302608 
L 392.559582 -182.968985 
L 393.883953 -180.635362 
L 395.412155 -178.301739 
L 397.22075 -175.968115 
L 399.403158 -173.634492 
L 402.057533 -171.300869 
L 405.262785 -168.967246 
L 409.0377 -166.633623 
L 413.29495 -164.3 
L 417.817357 -161.966376 
L 422.278794 -159.632753 
L 426.304904 -157.29913 
L 429.542696 -154.965507 
L 431.708609 -152.631884 
L 432.610909 -150.298261 
L 432.165343 -147.964637 
L 430.417039 -145.631014 
L 427.554605 -143.297391 
L 423.887959 -140.963768 
L 419.781023 -138.630145 
L 415.567285 -136.296522 
L 411.492806 -133.962898 
L 407.709556 -131.629275 
L 404.303056 -129.295652 
L 401.318887 -126.962029 
L 398.767365 -124.628406 
L 396.615487 -122.294782 
L 394.789745 -119.961159 
L 393.201376 -117.627536 
L 391.782185 -115.293913 
L 390.507601 -112.96029 
L 389.393014 -110.626667 
L 388.468983 -108.293043 
L 387.753305 -105.95942 
L 387.235651 -103.625797 
L 386.879218 -101.292174 
L 386.633989 -98.958551 
L 386.4529 -96.624928 
L 386.304005 -94.291304 
L 386.175112 -91.957681 
L 386.070565 -89.624058 
L 386.002448 -87.290435 
L 385.980128 -84.956812 
L 386.002236 -82.623189 
L 386.053988 -80.289565 
L 386.110724 -77.955942 
L 386.146199 -75.622319 
L 386.142051 -73.288696 
L 386.094063 -70.955073 
L 386.012273 -68.621449 
L 385.915266 -66.287826 
L 385.82205 -63.954203 
L 385.745702 -61.62058 
L 385.691144 -59.286957 
z
" style="stroke: #626262; stroke-width: 2.25"/>
    </defs>
    <g clip-path="url(#p63bca6e31e)">
     <use xlink:href="#m963fea337b" x="0" y="345.6" style="fill: #cdadd7; stroke: #626262; stroke-width: 2.25"/>
    </g>
   </g>
   <g id="matplotlib.axis_1">
    <g id="xtick_1">
     <g id="line2d_1">
      <defs>
       <path id="mbfaefab9dc" d="M 0 0 
L 0 9 
" style="stroke: #000000; stroke-width: 1.875"/>
      </defs>
      <g>
       <use xlink:href="#mbfaefab9dc" x="134.625079" y="305.74" style="stroke: #000000; stroke-width: 1.875"/>
      </g>
     </g>
     <g id="text_1">
      <text style="font: 16px 'DejaVu Sans', 'Bitstream Vera Sans', 'Computer Modern Sans Serif', 'Lucida Grande', 'Verdana', 'Geneva', 'Lucid', 'Arial', 'Helvetica', 'Avant Garde', sans-serif; text-anchor: middle" x="134.625079" y="330.3975" transform="rotate(-0 134.625079 330.3975)">V1</text>
     </g>
    </g>
    <g id="xtick_2">
     <g id="line2d_2">
      <g>
       <use xlink:href="#mbfaefab9dc" x="260.122766" y="305.74" style="stroke: #000000; stroke-width: 1.875"/>
      </g>
     </g>
     <g id="text_2">
      <text style="font: 16px 'DejaVu Sans', 'Bitstream Vera Sans', 'Computer Modern Sans Serif', 'Lucida Grande', 'Verdana', 'Geneva', 'Lucid', 'Arial', 'Helvetica', 'Avant Garde', sans-serif; text-anchor: middle" x="260.122766" y="330.3975" transform="rotate(-0 260.122766 330.3975)">LM</text>
     </g>
    </g>
    <g id="xtick_3">
     <g id="line2d_3">
      <g>
       <use xlink:href="#mbfaefab9dc" x="385.620452" y="305.74" style="stroke: #000000; stroke-width: 1.875"/>
      </g>
     </g>
     <g id="text_3">
      <text style="font: 16px 'DejaVu Sans', 'Bitstream Vera Sans', 'Computer Modern Sans Serif', 'Lucida Grande', 'Verdana', 'Geneva', 'Lucid', 'Arial', 'Helvetica', 'Avant Garde', sans-serif; text-anchor: middle" x="385.620452" y="330.3975" transform="rotate(-0 385.620452 330.3975)">LI</text>
     </g>
    </g>
   </g>
   <g id="matplotlib.axis_2">
    <g id="ytick_1">
     <g id="line2d_4">
      <defs>
       <path id="m78375d4dd2" d="M 0 0 
L -9 0 
" style="stroke: #000000; stroke-width: 1.875"/>
      </defs>
      <g>
       <use xlink:href="#m78375d4dd2" x="67.44" y="298.819375" style="stroke: #000000; stroke-width: 1.875"/>
      </g>
     </g>
     <g id="text_4">
      <text style="font: 16px 'DejaVu Sans', 'Bitstream Vera Sans', 'Computer Modern Sans Serif', 'Lucida Grande', 'Verdana', 'Geneva', 'Lucid', 'Arial', 'Helvetica', 'Avant Garde', sans-serif; text-anchor: end" x="54.94" y="304.898125" transform="rotate(-0 54.94 304.898125)">−4</text>
     </g>
    </g>
    <g id="ytick_2">
     <g id="line2d_5">
      <g>
       <use xlink:href="#m78375d4dd2" x="67.44" y="236.407327" style="stroke: #000000; stroke-width: 1.875"/>
      </g>
     </g>
     <g id="text_5">
      <text style="font: 16px 'DejaVu Sans', 'Bitstream Vera Sans', 'Computer Modern Sans Serif', 'Lucida Grande', 'Verdana', 'Geneva', 'Lucid', 'Arial', 'Helvetica', 'Avant Garde', sans-serif; text-anchor: end" x="54.94" y="242.486077" transform="rotate(-0 54.94 242.486077)">−2</text>
     </g>
    </g>
    <g id="ytick_3">
     <g id="line2d_6">
      <g>
       <use xlink:href="#m78375d4dd2" x="67.44" y="173.995279" style="stroke: #000000; stroke-width: 1.875"/>
      </g>
     </g>
     <g id="text_6">
      <text style="font: 16px 'DejaVu Sans', 'Bitstream Vera Sans', 'Computer Modern Sans Serif', 'Lucida Grande', 'Verdana', 'Geneva', 'Lucid', 'Arial', 'Helvetica', 'Avant Garde', sans-serif; text-anchor: end" x="54.94" y="180.074029" transform="rotate(-0 54.94 180.074029)">0</text>
     </g>
    </g>
    <g id="ytick_4">
     <g id="line2d_7">
      <g>
       <use xlink:href="#m78375d4dd2" x="67.44" y="111.583231" style="stroke: #000000; stroke-width: 1.875"/>
      </g>
     </g>
     <g id="text_7">
      <text style="font: 16px 'DejaVu Sans', 'Bitstream Vera Sans', 'Computer Modern Sans Serif', 'Lucida Grande', 'Verdana', 'Geneva', 'Lucid', 'Arial', 'Helvetica', 'Avant Garde', sans-serif; text-anchor: end" x="54.94" y="117.661981" transform="rotate(-0 54.94 117.661981)">2</text>
     </g>
    </g>
    <g id="ytick_5">
     <g id="line2d_8">
      <g>
       <use xlink:href="#m78375d4dd2" x="67.44" y="49.171183" style="stroke: #000000; stroke-width: 1.875"/>
      </g>
     </g>
     <g id="text_8">
      <text style="font: 16px 'DejaVu Sans', 'Bitstream Vera Sans', 'Computer Modern Sans Serif', 'Lucida Grande', 'Verdana', 'Geneva', 'Lucid', 'Arial', 'Helvetica', 'Avant Garde', sans-serif; text-anchor: end" x="54.94" y="55.249933" transform="rotate(-0 54.94 55.249933)">4</text>
     </g>
    </g>
    <g id="text_9">
     <text style="font: 16px 'DejaVu Sans', 'Bitstream Vera Sans', 'Computer Modern Sans Serif', 'Lucida Grande', 'Verdana', 'Geneva', 'Lucid', 'Arial', 'Helvetica', 'Avant Garde', sans-serif; text-anchor: middle" x="24.025" y="158.27" transform="rotate(-90 24.025 158.27)">Adaptation index</text>
    </g>
   </g>
   <g id="line2d_9">
    <path d="M 134.625079 223.682257 
L 134.625079 148.910907 
" clip-path="url(#p63bca6e31e)" style="fill: none; stroke: #626262; stroke-width: 2.25; stroke-linecap: square"/>
   </g>
   <g id="line2d_10">
    <path d="M 134.625079 195.824666 
L 134.625079 176.885679 
" clip-path="url(#p63bca6e31e)" style="fill: none; stroke: #626262; stroke-width: 6.75; stroke-linecap: square"/>
   </g>
   <g id="line2d_11">
    <path d="M 260.122766 225.63435 
L 260.122766 151.053571 
" clip-path="url(#p63bca6e31e)" style="fill: none; stroke: #626262; stroke-width: 2.25; stroke-linecap: square"/>
   </g>
   <g id="line2d_12">
    <path d="M 260.122766 198.266369 
L 260.122766 179.284139 
" clip-path="url(#p63bca6e31e)" style="fill: none; stroke: #626262; stroke-width: 6.75; stroke-linecap: square"/>
   </g>
   <g id="line2d_13">
    <path d="M 385.620452 228.849203 
L 385.620452 160.793379 
" clip-path="url(#p63bca6e31e)" style="fill: none; stroke: #626262; stroke-width: 2.25; stroke-linecap: square"/>
   </g>
   <g id="line2d_14">
    <path d="M 385.620452 203.93362 
L 385.620452 186.171783 
" clip-path="url(#p63bca6e31e)" style="fill: none; stroke: #626262; stroke-width: 6.75; stroke-linecap: square"/>
   </g>
   <g id="line2d_15">
    <path d="M 147.174848 49.171183 
L 247.572997 49.171183 
" clip-path="url(#p63bca6e31e)" style="fill: none; stroke: #808080; stroke-width: 2.25; stroke-linecap: square"/>
   </g>
   <g id="line2d_16">
    <path d="M 272.672535 49.171183 
L 373.070684 49.171183 
" clip-path="url(#p63bca6e31e)" style="fill: none; stroke: #808080; stroke-width: 2.25; stroke-linecap: square"/>
   </g>
   <g id="line2d_17">
    <path d="M 147.174848 24.206364 
L 373.070684 24.206364 
" clip-path="url(#p63bca6e31e)" style="fill: none; stroke: #808080; stroke-width: 2.25; stroke-linecap: square"/>
   </g>
   <g id="patch_3">
    <path d="M 67.44 305.74 
L 67.44 10.8 
" style="fill: none; stroke: #000000; stroke-width: 1.875; stroke-linejoin: miter; stroke-linecap: square"/>
   </g>
   <g id="patch_4">
    <path d="M 67.44 305.74 
L 450 305.74 
" style="fill: none; stroke: #000000; stroke-width: 1.875; stroke-linejoin: miter; stroke-linecap: square"/>
   </g>
   <g id="PathCollection_1">
    <defs>
     <path id="m0e95ca50df" d="M 0 2.25 
C 0.596707 2.25 1.169055 2.012926 1.59099 1.59099 
C 2.012926 1.169055 2.25 0.596707 2.25 0 
C 2.25 -0.596707 2.012926 -1.169055 1.59099 -1.59099 
C 1.169055 -2.012926 0.596707 -2.25 0 -2.25 
C -0.596707 -2.25 -1.169055 -2.012926 -1.59099 -1.59099 
C -2.012926 -1.169055 -2.25 -0.596707 -2.25 0 
C -2.25 0.596707 -2.012926 1.169055 -1.59099 1.59099 
C -1.169055 2.012926 -0.596707 2.25 0 2.25 
z
" style="stroke: #626262; stroke-width: 1.5"/>
    </defs>
    <g clip-path="url(#p63bca6e31e)">
     <use xlink:href="#m0e95ca50df" x="134.625079" y="187.329197" style="fill: #ffffff; stroke: #626262; stroke-width: 1.5"/>
    </g>
   </g>
   <g id="PathCollection_2">
    <g clip-path="url(#p63bca6e31e)">
     <use xlink:href="#m0e95ca50df" x="260.122766" y="189.931921" style="fill: #ffffff; stroke: #626262; stroke-width: 1.5"/>
    </g>
   </g>
   <g id="PathCollection_3">
    <g clip-path="url(#p63bca6e31e)">
     <use xlink:href="#m0e95ca50df" x="385.620452" y="195.531076" style="fill: #ffffff; stroke: #626262; stroke-width: 1.5"/>
    </g>
   </g>
   <g id="text_10">
    <text style="font: 14px 'DejaVu Sans', 'Bitstream Vera Sans', 'Computer Modern Sans Serif', 'Lucida Grande', 'Verdana', 'Geneva', 'Lucid', 'Arial', 'Helvetica', 'Avant Garde', sans-serif; text-anchor: start" x="297.772072" y="95.980219" transform="rotate(-0 297.772072 95.980219)">p=5.7e-09</text>
   </g>
   <g id="text_11">
    <text style="font: 14px 'DejaVu Sans', 'Bitstream Vera Sans', 'Computer Modern Sans Serif', 'Lucida Grande', 'Verdana', 'Geneva', 'Lucid', 'Arial', 'Helvetica', 'Avant Garde', sans-serif; text-anchor: start" x="197.373923" y="61.653592" transform="rotate(-0 197.373923 61.653592)">*</text>
   </g>
   <g id="text_12">
    <text style="font: 14px 'DejaVu Sans', 'Bitstream Vera Sans', 'Computer Modern Sans Serif', 'Lucida Grande', 'Verdana', 'Geneva', 'Lucid', 'Arial', 'Helvetica', 'Avant Garde', sans-serif; text-anchor: start" x="310.321841" y="61.653592" transform="rotate(-0 310.321841 61.653592)">***</text>
   </g>
   <g id="text_13">
    <text style="font: 14px 'DejaVu Sans', 'Bitstream Vera Sans', 'Computer Modern Sans Serif', 'Lucida Grande', 'Verdana', 'Geneva', 'Lucid', 'Arial', 'Helvetica', 'Avant Garde', sans-serif; text-anchor: start" x="250.082951" y="24.206364" transform="rotate(-0 250.082951 24.206364)">***</text>
   </g>
  </g>
 </g>
 <defs>
  <clipPath id="p63bca6e31e">
   <rect x="67.44" y="10.8" width="382.56" height="294.94"/>
  </clipPath>
 </defs>
</svg>
