<?xml version="1.0" encoding="utf-8" standalone="no"?>
<!DOCTYPE svg PUBLIC "-//W3C//DTD SVG 1.1//EN"
  "http://www.w3.org/Graphics/SVG/1.1/DTD/svg11.dtd">
<svg xmlns:xlink="http://www.w3.org/1999/xlink" width="460.8pt" height="345.6pt" viewBox="0 0 460.8 345.6" xmlns="http://www.w3.org/2000/svg" version="1.1">
 <metadata>
  <rdf:RDF xmlns:dc="http://purl.org/dc/elements/1.1/" xmlns:cc="http://creativecommons.org/ns#" xmlns:rdf="http://www.w3.org/1999/02/22-rdf-syntax-ns#">
   <cc:Work>
    <dc:type rdf:resource="http://purl.org/dc/dcmitype/StillImage"/>
    <dc:date>2023-11-20T17:14:41.363068</dc:date>
    <dc:format>image/svg+xml</dc:format>
    <dc:creator>
     <cc:Agent>
      <dc:title>Matplotlib v3.7.2, https://matplotlib.org/</dc:title>
     </cc:Agent>
    </dc:creator>
   </cc:Work>
  </rdf:RDF>
 </metadata>
 <defs>
  <style type="text/css">*{stroke-linejoin: round; stroke-linecap: butt}</style>
 </defs>
 <g id="figure_1">
  <g id="patch_1">
   <path d="M 0 345.6 
L 460.8 345.6 
L 460.8 0 
L 0 0 
z
" style="fill: #ffffff"/>
  </g>
  <g id="axes_1">
   <g id="patch_2">
    <path d="M 54.03 305.74 
L 450 305.74 
L 450 16.391221 
L 54.03 16.391221 
z
" style="fill: #ffffff"/>
   </g>
   <g id="PolyCollection_1">
    <defs>
     <path id="me036dcf57b" d="M 120.720486 -53.012217 
L 119.329514 -53.012217 
L 118.945792 -55.669231 
L 118.396197 -58.326244 
L 117.633018 -60.983258 
L 116.605451 -63.640272 
L 115.263823 -66.297285 
L 113.565095 -68.954299 
L 111.479144 -71.611312 
L 108.995028 -74.268326 
L 106.126245 -76.92534 
L 102.91401 -79.582353 
L 99.427748 -82.239367 
L 95.762386 -84.89638 
L 92.032529 -87.553394 
L 88.36414 -90.210407 
L 84.884717 -92.867421 
L 81.713224 -95.524435 
L 78.951005 -98.181448 
L 76.674699 -100.838462 
L 74.93183 -103.495475 
L 73.739307 -106.152489 
L 73.084717 -108.809503 
L 72.929993 -111.466516 
L 73.21687 -114.12353 
L 73.873471 -116.780543 
L 74.821347 -119.437557 
L 75.982338 -122.09457 
L 77.284659 -124.751584 
L 78.667684 -127.408598 
L 80.085031 -130.065611 
L 81.505709 -132.722625 
L 82.913344 -135.379638 
L 84.303734 -138.036652 
L 85.681216 -140.693666 
L 87.054482 -143.350679 
L 88.432503 -146.007693 
L 89.821124 -148.664706 
L 91.220746 -151.32172 
L 92.625284 -153.978733 
L 94.022408 -156.635747 
L 95.394899 -159.292761 
L 96.72285 -161.949774 
L 97.986345 -164.606788 
L 99.168189 -167.263801 
L 100.256252 -169.920815 
L 101.245045 -172.577829 
L 102.136237 -175.234842 
L 102.938031 -177.891856 
L 103.66352 -180.548869 
L 104.328364 -183.205883 
L 104.948262 -185.862897 
L 105.536708 -188.51991 
L 106.103449 -191.176924 
L 106.65386 -193.833937 
L 107.189233 -196.490951 
L 107.707784 -199.147964 
L 108.20605 -201.804978 
L 108.680272 -204.461992 
L 109.127465 -207.119005 
L 109.545967 -209.776019 
L 109.935443 -212.433032 
L 110.2965 -215.090046 
L 110.630154 -217.74706 
L 110.937445 -220.404073 
L 111.219425 -223.061087 
L 111.47755 -225.7181 
L 111.714382 -228.375114 
L 111.934279 -231.032127 
L 112.143752 -233.689141 
L 112.35118 -236.346155 
L 112.565795 -239.003168 
L 112.796069 -241.660182 
L 113.047874 -244.317195 
L 113.322917 -246.974209 
L 113.617934 -249.631223 
L 113.924947 -252.288236 
L 114.232648 -254.94525 
L 114.528637 -257.602263 
L 114.802047 -260.259277 
L 115.045952 -262.916291 
L 115.259017 -265.573304 
L 115.445999 -268.230318 
L 115.617007 -270.887331 
L 115.785672 -273.544345 
L 115.966634 -276.201358 
L 116.172861 -278.858372 
L 116.413343 -281.515386 
L 116.691566 -284.172399 
L 117.005028 -286.829413 
L 117.345787 -289.486426 
L 117.701873 -292.14344 
L 118.059206 -294.800454 
L 118.403654 -297.457467 
L 118.722839 -300.114481 
L 119.007426 -302.771494 
L 119.251783 -305.428508 
L 119.453995 -308.085521 
L 119.615374 -310.742535 
L 119.739651 -313.399549 
L 119.832042 -316.056562 
L 120.217958 -316.056562 
L 120.217958 -316.056562 
L 120.310349 -313.399549 
L 120.434626 -310.742535 
L 120.596005 -308.085521 
L 120.798217 -305.428508 
L 121.042574 -302.771494 
L 121.327161 -300.114481 
L 121.646346 -297.457467 
L 121.990794 -294.800454 
L 122.348127 -292.14344 
L 122.704213 -289.486426 
L 123.044972 -286.829413 
L 123.358434 -284.172399 
L 123.636657 -281.515386 
L 123.877139 -278.858372 
L 124.083366 -276.201358 
L 124.264328 -273.544345 
L 124.432993 -270.887331 
L 124.604001 -268.230318 
L 124.790983 -265.573304 
L 125.004048 -262.916291 
L 125.247953 -260.259277 
L 125.521363 -257.602263 
L 125.817352 -254.94525 
L 126.125053 -252.288236 
L 126.432066 -249.631223 
L 126.727083 -246.974209 
L 127.002126 -244.317195 
L 127.253931 -241.660182 
L 127.484205 -239.003168 
L 127.69882 -236.346155 
L 127.906248 -233.689141 
L 128.115721 -231.032127 
L 128.335618 -228.375114 
L 128.57245 -225.7181 
L 128.830575 -223.061087 
L 129.112555 -220.404073 
L 129.419846 -217.74706 
L 129.7535 -215.090046 
L 130.114557 -212.433032 
L 130.504033 -209.776019 
L 130.922535 -207.119005 
L 131.369728 -204.461992 
L 131.84395 -201.804978 
L 132.342216 -199.147964 
L 132.860767 -196.490951 
L 133.39614 -193.833937 
L 133.946551 -191.176924 
L 134.513292 -188.51991 
L 135.101738 -185.862897 
L 135.721636 -183.205883 
L 136.38648 -180.548869 
L 137.111969 -177.891856 
L 137.913763 -175.234842 
L 138.804955 -172.577829 
L 139.793748 -169.920815 
L 140.881811 -167.263801 
L 142.063655 -164.606788 
L 143.32715 -161.949774 
L 144.655101 -159.292761 
L 146.027592 -156.635747 
L 147.424716 -153.978733 
L 148.829254 -151.32172 
L 150.228876 -148.664706 
L 151.617497 -146.007693 
L 152.995518 -143.350679 
L 154.368784 -140.693666 
L 155.746266 -138.036652 
L 157.136656 -135.379638 
L 158.544291 -132.722625 
L 159.964969 -130.065611 
L 161.382316 -127.408598 
L 162.765341 -124.751584 
L 164.067662 -122.09457 
L 165.228653 -119.437557 
L 166.176529 -116.780543 
L 166.83313 -114.12353 
L 167.120007 -111.466516 
L 166.965283 -108.809503 
L 166.310693 -106.152489 
L 165.11817 -103.495475 
L 163.375301 -100.838462 
L 161.098995 -98.181448 
L 158.336776 -95.524435 
L 155.165283 -92.867421 
L 151.68586 -90.210407 
L 148.017471 -87.553394 
L 144.287614 -84.89638 
L 140.622252 -82.239367 
L 137.13599 -79.582353 
L 133.923755 -76.92534 
L 131.054972 -74.268326 
L 128.570856 -71.611312 
L 126.484905 -68.954299 
L 124.786177 -66.297285 
L 123.444549 -63.640272 
L 122.416982 -60.983258 
L 121.653803 -58.326244 
L 121.104208 -55.669231 
L 120.720486 -53.012217 
z
" style="stroke: #626262; stroke-width: 2.25"/>
    </defs>
    <g clip-path="url(#p44c5be5ac8)">
     <use xlink:href="#me036dcf57b" x="0" y="345.6" style="fill: #92abde; stroke: #626262; stroke-width: 2.25"/>
    </g>
   </g>
   <g id="PolyCollection_2">
    <defs>
     <path id="m7320e8ae2e" d="M 252.713268 -60.503762 
L 251.316732 -60.503762 
L 250.777553 -62.942037 
L 249.922368 -65.380312 
L 248.63576 -67.818587 
L 246.800097 -70.256862 
L 244.317185 -72.695137 
L 241.134743 -75.133412 
L 237.2717 -77.571687 
L 232.834427 -80.009962 
L 228.016636 -82.448238 
L 223.079289 -84.886513 
L 218.31259 -87.324788 
L 213.988169 -89.763063 
L 210.313375 -92.201338 
L 207.399622 -94.639613 
L 205.252706 -97.077888 
L 203.786464 -99.516163 
L 202.854497 -101.954438 
L 202.29019 -104.392713 
L 201.944311 -106.830989 
L 201.711731 -109.269264 
L 201.543191 -111.707539 
L 201.442534 -114.145814 
L 201.453176 -116.584089 
L 201.63894 -119.022364 
L 202.064156 -121.460639 
L 202.776797 -123.898914 
L 203.797152 -126.337189 
L 205.113442 -128.775465 
L 206.684679 -131.21374 
L 208.449748 -133.652015 
L 210.340132 -136.09029 
L 212.292644 -138.528565 
L 214.258482 -140.96684 
L 216.206365 -143.405115 
L 218.119859 -145.84339 
L 219.991178 -148.281665 
L 221.814703 -150.719941 
L 223.58273 -153.158216 
L 225.284149 -155.596491 
L 226.905093 -158.034766 
L 228.430045 -160.473041 
L 229.842569 -162.911316 
L 231.126136 -165.349591 
L 232.266157 -167.787866 
L 233.253942 -170.226141 
L 234.091891 -172.664416 
L 234.797856 -175.102692 
L 235.406176 -177.540967 
L 235.963775 -179.979242 
L 236.521577 -182.417517 
L 237.123418 -184.855792 
L 237.795777 -187.294067 
L 238.541493 -189.732342 
L 239.339388 -192.170617 
L 240.149836 -194.608892 
L 240.924627 -197.047168 
L 241.618381 -199.485443 
L 242.198674 -201.923718 
L 242.652656 -204.361993 
L 242.989037 -206.800268 
L 243.235481 -209.238543 
L 243.432415 -211.676818 
L 243.624861 -214.115093 
L 243.854178 -216.553368 
L 244.151362 -218.991644 
L 244.533068 -221.429919 
L 245.000671 -223.868194 
L 245.541944 -226.306469 
L 246.134362 -228.744744 
L 246.749034 -231.183019 
L 247.354498 -233.621294 
L 247.920137 -236.059569 
L 248.419226 -238.497844 
L 248.831699 -240.936119 
L 249.146458 -243.374395 
L 249.362815 -245.81267 
L 249.490571 -248.250945 
L 249.548431 -250.68922 
L 249.560892 -253.127495 
L 249.554218 -255.56577 
L 249.552397 -258.004045 
L 249.574006 -260.44232 
L 249.630569 -262.880595 
L 249.726528 -265.318871 
L 249.860463 -267.757146 
L 250.026941 -270.195421 
L 250.218344 -272.633696 
L 250.426244 -275.071971 
L 250.64219 -277.510246 
L 250.858067 -279.948521 
L 251.066271 -282.386796 
L 251.259955 -284.825071 
L 251.433428 -287.263346 
L 251.582636 -289.701622 
L 251.705551 -292.139897 
L 251.802284 -294.578172 
L 251.874856 -297.016447 
L 251.926667 -299.454722 
L 251.961818 -301.892997 
L 252.068182 -301.892997 
L 252.068182 -301.892997 
L 252.103333 -299.454722 
L 252.155144 -297.016447 
L 252.227716 -294.578172 
L 252.324449 -292.139897 
L 252.447364 -289.701622 
L 252.596572 -287.263346 
L 252.770045 -284.825071 
L 252.963729 -282.386796 
L 253.171933 -279.948521 
L 253.38781 -277.510246 
L 253.603756 -275.071971 
L 253.811656 -272.633696 
L 254.003059 -270.195421 
L 254.169537 -267.757146 
L 254.303472 -265.318871 
L 254.399431 -262.880595 
L 254.455994 -260.44232 
L 254.477603 -258.004045 
L 254.475782 -255.56577 
L 254.469108 -253.127495 
L 254.481569 -250.68922 
L 254.539429 -248.250945 
L 254.667185 -245.81267 
L 254.883542 -243.374395 
L 255.198301 -240.936119 
L 255.610774 -238.497844 
L 256.109863 -236.059569 
L 256.675502 -233.621294 
L 257.280966 -231.183019 
L 257.895638 -228.744744 
L 258.488056 -226.306469 
L 259.029329 -223.868194 
L 259.496932 -221.429919 
L 259.878638 -218.991644 
L 260.175822 -216.553368 
L 260.405139 -214.115093 
L 260.597585 -211.676818 
L 260.794519 -209.238543 
L 261.040963 -206.800268 
L 261.377344 -204.361993 
L 261.831326 -201.923718 
L 262.411619 -199.485443 
L 263.105373 -197.047168 
L 263.880164 -194.608892 
L 264.690612 -192.170617 
L 265.488507 -189.732342 
L 266.234223 -187.294067 
L 266.906582 -184.855792 
L 267.508423 -182.417517 
L 268.066225 -179.979242 
L 268.623824 -177.540967 
L 269.232144 -175.102692 
L 269.938109 -172.664416 
L 270.776058 -170.226141 
L 271.763843 -167.787866 
L 272.903864 -165.349591 
L 274.187431 -162.911316 
L 275.599955 -160.473041 
L 277.124907 -158.034766 
L 278.745851 -155.596491 
L 280.44727 -153.158216 
L 282.215297 -150.719941 
L 284.038822 -148.281665 
L 285.910141 -145.84339 
L 287.823635 -143.405115 
L 289.771518 -140.96684 
L 291.737356 -138.528565 
L 293.689868 -136.09029 
L 295.580252 -133.652015 
L 297.345321 -131.21374 
L 298.916558 -128.775465 
L 300.232848 -126.337189 
L 301.253203 -123.898914 
L 301.965844 -121.460639 
L 302.39106 -119.022364 
L 302.576824 -116.584089 
L 302.587466 -114.145814 
L 302.486809 -111.707539 
L 302.318269 -109.269264 
L 302.085689 -106.830989 
L 301.73981 -104.392713 
L 301.175503 -101.954438 
L 300.243536 -99.516163 
L 298.777294 -97.077888 
L 296.630378 -94.639613 
L 293.716625 -92.201338 
L 290.041831 -89.763063 
L 285.71741 -87.324788 
L 280.950711 -84.886513 
L 276.013364 -82.448238 
L 271.195573 -80.009962 
L 266.7583 -77.571687 
L 262.895257 -75.133412 
L 259.712815 -72.695137 
L 257.229903 -70.256862 
L 255.39424 -67.818587 
L 254.107632 -65.380312 
L 253.252447 -62.942037 
L 252.713268 -60.503762 
z
" style="stroke: #626262; stroke-width: 2.25"/>
    </defs>
    <g clip-path="url(#p44c5be5ac8)">
     <use xlink:href="#m7320e8ae2e" x="0" y="345.6" style="fill: #e1c366; stroke: #626262; stroke-width: 2.25"/>
    </g>
   </g>
   <g id="PolyCollection_3">
    <defs>
     <path id="mda48f48284" d="M 384.692355 -55.204264 
L 383.317645 -55.204264 
L 382.922984 -57.771888 
L 382.352954 -60.339511 
L 381.557074 -62.907135 
L 380.482555 -65.474758 
L 379.079212 -68.042381 
L 377.305475 -70.610005 
L 375.134693 -73.177628 
L 372.560734 -75.745252 
L 369.601813 -78.312875 
L 366.301751 -80.880498 
L 362.728324 -83.448122 
L 358.96893 -86.015745 
L 355.124344 -88.583369 
L 351.301583 -91.150992 
L 347.606936 -93.718615 
L 344.13987 -96.286239 
L 340.988113 -98.853862 
L 338.223782 -101.421486 
L 335.900279 -103.989109 
L 334.049734 -106.556732 
L 332.681138 -109.124356 
L 331.779648 -111.691979 
L 331.307767 -114.259603 
L 331.209 -116.827226 
L 331.414148 -119.394849 
L 331.849767 -121.962473 
L 332.447682 -124.530096 
L 333.154038 -127.09772 
L 333.936293 -129.665343 
L 334.786844 -132.232966 
L 335.722586 -134.80059 
L 336.780338 -137.368213 
L 338.008831 -139.935837 
L 339.458475 -142.50346 
L 341.170577 -145.071083 
L 343.167805 -147.638707 
L 345.447549 -150.20633 
L 347.979372 -152.773954 
L 350.706981 -155.341577 
L 353.554283 -157.9092 
L 356.434301 -160.476824 
L 359.259208 -163.044447 
L 361.949665 -165.612071 
L 364.441986 -168.179694 
L 366.692254 -170.747317 
L 368.677225 -173.314941 
L 370.392457 -175.882564 
L 371.848477 -178.450188 
L 373.065952 -181.017811 
L 374.070818 -183.585434 
L 374.890117 -186.153058 
L 375.54912 -188.720681 
L 376.069971 -191.288305 
L 376.471822 -193.855928 
L 376.772055 -196.423551 
L 376.987996 -198.991175 
L 377.138372 -201.558798 
L 377.243907 -204.126422 
L 377.326689 -206.694045 
L 377.408392 -209.261668 
L 377.507789 -211.829292 
L 377.638255 -214.396915 
L 377.806012 -216.964539 
L 378.00966 -219.532162 
L 378.2412 -222.099785 
L 378.488349 -224.667409 
L 378.737609 -227.235032 
L 378.977362 -229.802656 
L 379.200297 -232.370279 
L 379.404631 -234.937902 
L 379.593937 -237.505526 
L 379.775685 -240.073149 
L 379.95895 -242.640773 
L 380.151855 -245.208396 
L 380.359395 -247.776019 
L 380.582114 -250.343643 
L 380.815933 -252.911266 
L 381.053082 -255.47889 
L 381.283885 -258.046513 
L 381.498942 -260.614136 
L 381.691176 -263.18176 
L 381.857299 -265.749383 
L 381.998381 -268.317007 
L 382.119467 -270.88463 
L 382.228353 -273.452253 
L 382.333876 -276.019877 
L 382.44409 -278.5875 
L 382.564753 -281.155124 
L 382.698393 -283.722747 
L 382.844107 -286.29037 
L 382.998041 -288.857994 
L 383.154364 -291.425617 
L 383.30648 -293.993241 
L 383.448199 -296.560864 
L 383.574636 -299.128487 
L 383.682729 -301.696111 
L 383.771347 -304.263734 
L 383.841073 -306.831358 
L 383.893756 -309.398981 
L 384.116244 -309.398981 
L 384.116244 -309.398981 
L 384.168927 -306.831358 
L 384.238653 -304.263734 
L 384.327271 -301.696111 
L 384.435364 -299.128487 
L 384.561801 -296.560864 
L 384.70352 -293.993241 
L 384.855636 -291.425617 
L 385.011959 -288.857994 
L 385.165893 -286.29037 
L 385.311607 -283.722747 
L 385.445247 -281.155124 
L 385.56591 -278.5875 
L 385.676124 -276.019877 
L 385.781647 -273.452253 
L 385.890533 -270.88463 
L 386.011619 -268.317007 
L 386.152701 -265.749383 
L 386.318824 -263.18176 
L 386.511058 -260.614136 
L 386.726115 -258.046513 
L 386.956918 -255.47889 
L 387.194067 -252.911266 
L 387.427886 -250.343643 
L 387.650605 -247.776019 
L 387.858145 -245.208396 
L 388.05105 -242.640773 
L 388.234315 -240.073149 
L 388.416063 -237.505526 
L 388.605369 -234.937902 
L 388.809703 -232.370279 
L 389.032638 -229.802656 
L 389.272391 -227.235032 
L 389.521651 -224.667409 
L 389.7688 -222.099785 
L 390.00034 -219.532162 
L 390.203988 -216.964539 
L 390.371745 -214.396915 
L 390.502211 -211.829292 
L 390.601608 -209.261668 
L 390.683311 -206.694045 
L 390.766093 -204.126422 
L 390.871628 -201.558798 
L 391.022004 -198.991175 
L 391.237945 -196.423551 
L 391.538178 -193.855928 
L 391.940029 -191.288305 
L 392.46088 -188.720681 
L 393.119883 -186.153058 
L 393.939182 -183.585434 
L 394.944048 -181.017811 
L 396.161523 -178.450188 
L 397.617543 -175.882564 
L 399.332775 -173.314941 
L 401.317746 -170.747317 
L 403.568014 -168.179694 
L 406.060335 -165.612071 
L 408.750792 -163.044447 
L 411.575699 -160.476824 
L 414.455717 -157.9092 
L 417.303019 -155.341577 
L 420.030628 -152.773954 
L 422.562451 -150.20633 
L 424.842195 -147.638707 
L 426.839423 -145.071083 
L 428.551525 -142.50346 
L 430.001169 -139.935837 
L 431.229662 -137.368213 
L 432.287414 -134.80059 
L 433.223156 -132.232966 
L 434.073707 -129.665343 
L 434.855962 -127.09772 
L 435.562318 -124.530096 
L 436.160233 -121.962473 
L 436.595852 -119.394849 
L 436.801 -116.827226 
L 436.702233 -114.259603 
L 436.230352 -111.691979 
L 435.328862 -109.124356 
L 433.960266 -106.556732 
L 432.109721 -103.989109 
L 429.786218 -101.421486 
L 427.021887 -98.853862 
L 423.87013 -96.286239 
L 420.403064 -93.718615 
L 416.708417 -91.150992 
L 412.885656 -88.583369 
L 409.04107 -86.015745 
L 405.281676 -83.448122 
L 401.708249 -80.880498 
L 398.408187 -78.312875 
L 395.449266 -75.745252 
L 392.875307 -73.177628 
L 390.704525 -70.610005 
L 388.930788 -68.042381 
L 387.527445 -65.474758 
L 386.452926 -62.907135 
L 385.657046 -60.339511 
L 385.087016 -57.771888 
L 384.692355 -55.204264 
z
" style="stroke: #626262; stroke-width: 2.25"/>
    </defs>
    <g clip-path="url(#p44c5be5ac8)">
     <use xlink:href="#mda48f48284" x="0" y="345.6" style="fill: #cdadd7; stroke: #626262; stroke-width: 2.25"/>
    </g>
   </g>
   <g id="matplotlib.axis_1">
    <g id="xtick_1">
     <g id="line2d_1">
      <defs>
       <path id="m3880a1329b" d="M 0 0 
L 0 9 
" style="stroke: #000000; stroke-width: 1.875"/>
      </defs>
      <g>
       <use xlink:href="#m3880a1329b" x="120.025" y="305.74" style="stroke: #000000; stroke-width: 1.875"/>
      </g>
     </g>
     <g id="text_1">
      <text style="font: 16px 'DejaVu Sans', 'Bitstream Vera Sans', 'Computer Modern Sans Serif', 'Lucida Grande', 'Verdana', 'Geneva', 'Lucid', 'Arial', 'Helvetica', 'Avant Garde', sans-serif; text-anchor: middle" x="120.025" y="330.3975" transform="rotate(-0 120.025 330.3975)">V1</text>
     </g>
    </g>
    <g id="xtick_2">
     <g id="line2d_2">
      <g>
       <use xlink:href="#m3880a1329b" x="252.015" y="305.74" style="stroke: #000000; stroke-width: 1.875"/>
      </g>
     </g>
     <g id="text_2">
      <text style="font: 16px 'DejaVu Sans', 'Bitstream Vera Sans', 'Computer Modern Sans Serif', 'Lucida Grande', 'Verdana', 'Geneva', 'Lucid', 'Arial', 'Helvetica', 'Avant Garde', sans-serif; text-anchor: middle" x="252.015" y="330.3975" transform="rotate(-0 252.015 330.3975)">LM</text>
     </g>
    </g>
    <g id="xtick_3">
     <g id="line2d_3">
      <g>
       <use xlink:href="#m3880a1329b" x="384.005" y="305.74" style="stroke: #000000; stroke-width: 1.875"/>
      </g>
     </g>
     <g id="text_3">
      <text style="font: 16px 'DejaVu Sans', 'Bitstream Vera Sans', 'Computer Modern Sans Serif', 'Lucida Grande', 'Verdana', 'Geneva', 'Lucid', 'Arial', 'Helvetica', 'Avant Garde', sans-serif; text-anchor: middle" x="384.005" y="330.3975" transform="rotate(-0 384.005 330.3975)">LI</text>
     </g>
    </g>
   </g>
   <g id="matplotlib.axis_2">
    <g id="ytick_1">
     <g id="line2d_4">
      <defs>
       <path id="mddd62f6978" d="M 0 0 
L -9 0 
" style="stroke: #000000; stroke-width: 1.875"/>
      </defs>
      <g>
       <use xlink:href="#mddd62f6978" x="54.03" y="264.928125" style="stroke: #000000; stroke-width: 1.875"/>
      </g>
     </g>
     <g id="text_4">
      <text style="font: 16px 'DejaVu Sans', 'Bitstream Vera Sans', 'Computer Modern Sans Serif', 'Lucida Grande', 'Verdana', 'Geneva', 'Lucid', 'Arial', 'Helvetica', 'Avant Garde', sans-serif; text-anchor: end" x="41.53" y="271.006875" transform="rotate(-0 41.53 271.006875)">0</text>
     </g>
    </g>
    <g id="ytick_2">
     <g id="line2d_5">
      <g>
       <use xlink:href="#mddd62f6978" x="54.03" y="223.666372" style="stroke: #000000; stroke-width: 1.875"/>
      </g>
     </g>
     <g id="text_5">
      <text style="font: 16px 'DejaVu Sans', 'Bitstream Vera Sans', 'Computer Modern Sans Serif', 'Lucida Grande', 'Verdana', 'Geneva', 'Lucid', 'Arial', 'Helvetica', 'Avant Garde', sans-serif; text-anchor: end" x="41.53" y="229.745122" transform="rotate(-0 41.53 229.745122)">1</text>
     </g>
    </g>
    <g id="ytick_3">
     <g id="line2d_6">
      <g>
       <use xlink:href="#mddd62f6978" x="54.03" y="182.404619" style="stroke: #000000; stroke-width: 1.875"/>
      </g>
     </g>
     <g id="text_6">
      <text style="font: 16px 'DejaVu Sans', 'Bitstream Vera Sans', 'Computer Modern Sans Serif', 'Lucida Grande', 'Verdana', 'Geneva', 'Lucid', 'Arial', 'Helvetica', 'Avant Garde', sans-serif; text-anchor: end" x="41.53" y="188.483369" transform="rotate(-0 41.53 188.483369)">2</text>
     </g>
    </g>
    <g id="ytick_4">
     <g id="line2d_7">
      <g>
       <use xlink:href="#mddd62f6978" x="54.03" y="141.142867" style="stroke: #000000; stroke-width: 1.875"/>
      </g>
     </g>
     <g id="text_7">
      <text style="font: 16px 'DejaVu Sans', 'Bitstream Vera Sans', 'Computer Modern Sans Serif', 'Lucida Grande', 'Verdana', 'Geneva', 'Lucid', 'Arial', 'Helvetica', 'Avant Garde', sans-serif; text-anchor: end" x="41.53" y="147.221617" transform="rotate(-0 41.53 147.221617)">3</text>
     </g>
    </g>
    <g id="ytick_5">
     <g id="line2d_8">
      <g>
       <use xlink:href="#mddd62f6978" x="54.03" y="99.881114" style="stroke: #000000; stroke-width: 1.875"/>
      </g>
     </g>
     <g id="text_8">
      <text style="font: 16px 'DejaVu Sans', 'Bitstream Vera Sans', 'Computer Modern Sans Serif', 'Lucida Grande', 'Verdana', 'Geneva', 'Lucid', 'Arial', 'Helvetica', 'Avant Garde', sans-serif; text-anchor: end" x="41.53" y="105.959864" transform="rotate(-0 41.53 105.959864)">4</text>
     </g>
    </g>
    <g id="ytick_6">
     <g id="line2d_9">
      <g>
       <use xlink:href="#mddd62f6978" x="54.03" y="58.619361" style="stroke: #000000; stroke-width: 1.875"/>
      </g>
     </g>
     <g id="text_9">
      <text style="font: 16px 'DejaVu Sans', 'Bitstream Vera Sans', 'Computer Modern Sans Serif', 'Lucida Grande', 'Verdana', 'Geneva', 'Lucid', 'Arial', 'Helvetica', 'Avant Garde', sans-serif; text-anchor: end" x="41.53" y="64.698111" transform="rotate(-0 41.53 64.698111)">5</text>
     </g>
    </g>
    <g id="ytick_7">
     <g id="line2d_10">
      <g>
       <use xlink:href="#mddd62f6978" x="54.03" y="17.357608" style="stroke: #000000; stroke-width: 1.875"/>
      </g>
     </g>
     <g id="text_10">
      <text style="font: 16px 'DejaVu Sans', 'Bitstream Vera Sans', 'Computer Modern Sans Serif', 'Lucida Grande', 'Verdana', 'Geneva', 'Lucid', 'Arial', 'Helvetica', 'Avant Garde', sans-serif; text-anchor: end" x="41.53" y="23.436358" transform="rotate(-0 41.53 23.436358)">6</text>
     </g>
    </g>
    <g id="text_11">
     <text style="font: 16px 'DejaVu Sans', 'Bitstream Vera Sans', 'Computer Modern Sans Serif', 'Lucida Grande', 'Verdana', 'Geneva', 'Lucid', 'Arial', 'Helvetica', 'Avant Garde', sans-serif; text-anchor: middle" x="24.0225" y="161.06561" transform="rotate(-90 24.0225 161.06561)">R1</text>
    </g>
   </g>
   <g id="line2d_11">
    <path d="M 120.025 263.292912 
L 120.025 89.798399 
" clip-path="url(#p44c5be5ac8)" style="fill: none; stroke: #626262; stroke-width: 2.25; stroke-linecap: square"/>
   </g>
   <g id="line2d_12">
    <path d="M 120.025 237.818467 
L 120.025 177.618117 
" clip-path="url(#p44c5be5ac8)" style="fill: none; stroke: #626262; stroke-width: 6.75; stroke-linecap: square"/>
   </g>
   <g id="line2d_13">
    <path d="M 252.015 264.268117 
L 252.015 112.909535 
" clip-path="url(#p44c5be5ac8)" style="fill: none; stroke: #626262; stroke-width: 2.25; stroke-linecap: square"/>
   </g>
   <g id="line2d_14">
    <path d="M 252.015 241.410969 
L 252.015 189.933051 
" clip-path="url(#p44c5be5ac8)" style="fill: none; stroke: #626262; stroke-width: 6.75; stroke-linecap: square"/>
   </g>
   <g id="line2d_15">
    <path d="M 384.005 263.478894 
L 384.005 133.546713 
" clip-path="url(#p44c5be5ac8)" style="fill: none; stroke: #626262; stroke-width: 2.25; stroke-linecap: square"/>
   </g>
   <g id="line2d_16">
    <path d="M 384.005 237.149199 
L 384.005 195.460769 
" clip-path="url(#p44c5be5ac8)" style="fill: none; stroke: #626262; stroke-width: 6.75; stroke-linecap: square"/>
   </g>
   <g id="patch_3">
    <path d="M 54.03 305.74 
L 54.03 16.391221 
" style="fill: none; stroke: #000000; stroke-width: 1.875; stroke-linejoin: miter; stroke-linecap: square"/>
   </g>
   <g id="patch_4">
    <path d="M 54.03 305.74 
L 450 305.74 
" style="fill: none; stroke: #000000; stroke-width: 1.875; stroke-linejoin: miter; stroke-linecap: square"/>
   </g>
   <g id="PathCollection_1">
    <defs>
     <path id="m8d9dd9c638" d="M 0 2.25 
C 0.596707 2.25 1.169055 2.012926 1.59099 1.59099 
C 2.012926 1.169055 2.25 0.596707 2.25 0 
C 2.25 -0.596707 2.012926 -1.169055 1.59099 -1.59099 
C 1.169055 -2.012926 0.596707 -2.25 0 -2.25 
C -0.596707 -2.25 -1.169055 -2.012926 -1.59099 -1.59099 
C -2.012926 -1.169055 -2.25 -0.596707 -2.25 0 
C -2.25 0.596707 -2.012926 1.169055 -1.59099 1.59099 
C -1.169055 2.012926 -0.596707 2.25 0 2.25 
z
" style="stroke: #626262; stroke-width: 1.5"/>
    </defs>
    <g clip-path="url(#p44c5be5ac8)">
     <use xlink:href="#m8d9dd9c638" x="120.025" y="214.635405" style="fill: #ffffff; stroke: #626262; stroke-width: 1.5"/>
    </g>
   </g>
   <g id="PathCollection_2">
    <g clip-path="url(#p44c5be5ac8)">
     <use xlink:href="#m8d9dd9c638" x="252.015" y="218.813138" style="fill: #ffffff; stroke: #626262; stroke-width: 1.5"/>
    </g>
   </g>
   <g id="PathCollection_3">
    <g clip-path="url(#p44c5be5ac8)">
     <use xlink:href="#m8d9dd9c638" x="384.005" y="217.618443" style="fill: #ffffff; stroke: #626262; stroke-width: 1.5"/>
    </g>
   </g>
   <g id="text_12">
    <text style="font: 14px 'DejaVu Sans', 'Bitstream Vera Sans', 'Computer Modern Sans Serif', 'Lucida Grande', 'Verdana', 'Geneva', 'Lucid', 'Arial', 'Helvetica', 'Avant Garde', sans-serif; text-anchor: start" x="291.612" y="58.619361" transform="rotate(-0 291.612 58.619361)">p=0.07</text>
   </g>
  </g>
 </g>
 <defs>
  <clipPath id="p44c5be5ac8">
   <rect x="54.03" y="16.391221" width="395.97" height="289.348779"/>
  </clipPath>
 </defs>
</svg>
