<?xml version="1.0" encoding="utf-8" standalone="no"?>
<!DOCTYPE svg PUBLIC "-//W3C//DTD SVG 1.1//EN"
  "http://www.w3.org/Graphics/SVG/1.1/DTD/svg11.dtd">
<svg xmlns:xlink="http://www.w3.org/1999/xlink" width="460.8pt" height="345.6pt" viewBox="0 0 460.8 345.6" xmlns="http://www.w3.org/2000/svg" version="1.1">
 <metadata>
  <rdf:RDF xmlns:dc="http://purl.org/dc/elements/1.1/" xmlns:cc="http://creativecommons.org/ns#" xmlns:rdf="http://www.w3.org/1999/02/22-rdf-syntax-ns#">
   <cc:Work>
    <dc:type rdf:resource="http://purl.org/dc/dcmitype/StillImage"/>
    <dc:date>2023-11-29T17:11:40.371160</dc:date>
    <dc:format>image/svg+xml</dc:format>
    <dc:creator>
     <cc:Agent>
      <dc:title>Matplotlib v3.7.2, https://matplotlib.org/</dc:title>
     </cc:Agent>
    </dc:creator>
   </cc:Work>
  </rdf:RDF>
 </metadata>
 <defs>
  <style type="text/css">*{stroke-linejoin: round; stroke-linecap: butt}</style>
 </defs>
 <g id="figure_1">
  <g id="patch_1">
   <path d="M 0 345.6 
L 460.8 345.6 
L 460.8 0 
L 0 0 
z
" style="fill: #ffffff"/>
  </g>
  <g id="axes_1">
   <g id="patch_2">
    <path d="M 67.44 305.74 
L 450 305.74 
L 450 10.8 
L 67.44 10.8 
z
" style="fill: #ffffff"/>
   </g>
   <g id="PolyCollection_1">
    <defs>
     <path id="mbc30b46b9c" d="M 133.741201 -53.412756 
L 133.628213 -53.412756 
L 133.578301 -55.780504 
L 133.499958 -58.148252 
L 133.387625 -60.516 
L 133.239721 -62.883749 
L 133.059717 -65.251497 
L 132.855854 -67.619245 
L 132.640187 -69.986993 
L 132.427959 -72.354742 
L 132.237276 -74.72249 
L 132.087473 -77.090238 
L 131.994531 -79.457986 
L 131.964292 -81.825734 
L 131.987372 -84.193483 
L 132.040134 -86.561231 
L 132.092597 -88.928979 
L 132.118896 -91.296727 
L 132.103602 -93.664476 
L 132.039961 -96.032224 
L 131.922045 -98.399972 
L 131.737207 -100.76772 
L 131.46519 -103.135469 
L 131.085952 -105.503217 
L 130.592654 -107.870965 
L 130.002109 -110.238713 
L 129.354534 -112.606461 
L 128.698462 -114.97421 
L 128.064346 -117.341958 
L 127.437869 -119.709706 
L 126.746108 -122.077454 
L 125.864054 -124.445203 
L 124.638557 -126.812951 
L 122.918889 -129.180699 
L 120.583073 -131.548447 
L 117.55628 -133.916196 
L 113.825515 -136.283944 
L 109.456868 -138.651692 
L 104.61576 -141.01944 
L 99.580468 -143.387189 
L 94.731919 -145.754937 
L 90.504987 -148.122685 
L 87.301637 -150.490433 
L 85.389688 -152.858181 
L 84.829091 -155.22593 
L 85.464559 -157.593678 
L 86.994091 -159.961426 
L 89.08241 -162.329174 
L 91.463933 -164.696923 
L 93.989912 -167.064671 
L 96.611318 -169.432419 
L 99.325057 -171.800167 
L 102.121918 -174.167916 
L 104.959789 -176.535664 
L 107.764403 -178.903412 
L 110.448786 -181.27116 
L 112.941478 -183.638908 
L 115.212926 -186.006657 
L 117.287155 -188.374405 
L 119.229027 -190.742153 
L 121.11012 -193.109901 
L 122.970443 -195.47765 
L 124.796614 -197.845398 
L 126.526996 -200.213146 
L 128.078979 -202.580894 
L 129.383664 -204.948643 
L 130.412115 -207.316391 
L 131.183112 -209.684139 
L 131.751135 -212.051887 
L 132.18209 -214.419635 
L 132.529254 -216.787384 
L 132.820223 -219.155132 
L 133.058222 -221.52288 
L 133.233149 -223.890628 
L 133.334417 -226.258377 
L 133.35994 -228.626125 
L 133.319935 -230.993873 
L 133.236628 -233.361621 
L 133.140711 -235.72937 
L 133.064639 -238.097118 
L 133.03376 -240.464866 
L 133.058303 -242.832614 
L 133.130062 -245.200363 
L 133.225722 -247.568111 
L 133.315243 -249.935859 
L 133.371313 -252.303607 
L 133.376245 -254.671355 
L 133.325008 -257.039104 
L 133.225201 -259.406852 
L 133.095242 -261.7746 
L 132.961274 -264.142348 
L 132.852461 -266.510097 
L 132.794598 -268.877845 
L 132.803216 -271.245593 
L 132.878679 -273.613341 
L 133.005891 -275.98109 
L 133.159413 -278.348838 
L 133.312004 -280.716586 
L 133.442715 -283.084334 
L 133.541155 -285.452082 
L 133.607011 -287.819831 
L 133.762403 -287.819831 
L 133.762403 -287.819831 
L 133.828259 -285.452082 
L 133.926699 -283.084334 
L 134.05741 -280.716586 
L 134.210001 -278.348838 
L 134.363523 -275.98109 
L 134.490735 -273.613341 
L 134.566198 -271.245593 
L 134.574816 -268.877845 
L 134.516953 -266.510097 
L 134.40814 -264.142348 
L 134.274173 -261.7746 
L 134.144213 -259.406852 
L 134.044406 -257.039104 
L 133.99317 -254.671355 
L 133.998101 -252.303607 
L 134.054171 -249.935859 
L 134.143692 -247.568111 
L 134.239352 -245.200363 
L 134.311111 -242.832614 
L 134.335654 -240.464866 
L 134.304775 -238.097118 
L 134.228703 -235.72937 
L 134.132786 -233.361621 
L 134.049479 -230.993873 
L 134.009474 -228.626125 
L 134.034998 -226.258377 
L 134.136265 -223.890628 
L 134.311192 -221.52288 
L 134.549191 -219.155132 
L 134.84016 -216.787384 
L 135.187324 -214.419635 
L 135.618279 -212.051887 
L 136.186302 -209.684139 
L 136.957299 -207.316391 
L 137.98575 -204.948643 
L 139.290435 -202.580894 
L 140.842418 -200.213146 
L 142.5728 -197.845398 
L 144.398971 -195.47765 
L 146.259294 -193.109901 
L 148.140387 -190.742153 
L 150.082259 -188.374405 
L 152.156488 -186.006657 
L 154.427936 -183.638908 
L 156.920628 -181.27116 
L 159.605011 -178.903412 
L 162.409625 -176.535664 
L 165.247496 -174.167916 
L 168.044357 -171.800167 
L 170.758096 -169.432419 
L 173.379502 -167.064671 
L 175.905481 -164.696923 
L 178.287004 -162.329174 
L 180.375323 -159.961426 
L 181.904855 -157.593678 
L 182.540323 -155.22593 
L 181.979726 -152.858181 
L 180.067777 -150.490433 
L 176.864428 -148.122685 
L 172.637495 -145.754937 
L 167.788946 -143.387189 
L 162.753654 -141.01944 
L 157.912546 -138.651692 
L 153.5439 -136.283944 
L 149.813134 -133.916196 
L 146.786341 -131.548447 
L 144.450525 -129.180699 
L 142.730857 -126.812951 
L 141.50536 -124.445203 
L 140.623306 -122.077454 
L 139.931545 -119.709706 
L 139.305068 -117.341958 
L 138.670953 -114.97421 
L 138.01488 -112.606461 
L 137.367305 -110.238713 
L 136.77676 -107.870965 
L 136.283462 -105.503217 
L 135.904224 -103.135469 
L 135.632207 -100.76772 
L 135.447369 -98.399972 
L 135.329453 -96.032224 
L 135.265812 -93.664476 
L 135.250518 -91.296727 
L 135.276817 -88.928979 
L 135.32928 -86.561231 
L 135.382042 -84.193483 
L 135.405122 -81.825734 
L 135.374883 -79.457986 
L 135.281941 -77.090238 
L 135.132138 -74.72249 
L 134.941455 -72.354742 
L 134.729227 -69.986993 
L 134.51356 -67.619245 
L 134.309697 -65.251497 
L 134.129693 -62.883749 
L 133.981789 -60.516 
L 133.869456 -58.148252 
L 133.791113 -55.780504 
L 133.741201 -53.412756 
z
" style="stroke: #626262; stroke-width: 2.25"/>
    </defs>
    <g clip-path="url(#pc16988916e)">
     <use xlink:href="#mbc30b46b9c" x="0" y="345.6" style="fill: #92abde; stroke: #626262; stroke-width: 2.25"/>
    </g>
   </g>
   <g id="PolyCollection_2">
    <defs>
     <path id="m5cbf82beea" d="M 259.051085 -53.266364 
L 259.005423 -53.266364 
L 258.984624 -55.613894 
L 258.954581 -57.961424 
L 258.918036 -60.308954 
L 258.881271 -62.656485 
L 258.851102 -65.004015 
L 258.829629 -67.351545 
L 258.810239 -69.699075 
L 258.778779 -72.046606 
L 258.720558 -74.394136 
L 258.628837 -76.741666 
L 258.508029 -79.089197 
L 258.368156 -81.436727 
L 258.214667 -83.784257 
L 258.043195 -86.131787 
L 257.845692 -88.479318 
L 257.623595 -90.826848 
L 257.395204 -93.174378 
L 257.187636 -95.521908 
L 257.016863 -97.869439 
L 256.870001 -100.216969 
L 256.702753 -102.564499 
L 256.453835 -104.912029 
L 256.067368 -107.25956 
L 255.510745 -109.60709 
L 254.779805 -111.95462 
L 253.890592 -114.30215 
L 252.862996 -116.649681 
L 251.703605 -118.997211 
L 250.393967 -121.344741 
L 248.887186 -123.692271 
L 247.110404 -126.039802 
L 244.966264 -128.387332 
L 242.331245 -130.734862 
L 239.065687 -133.082393 
L 235.061888 -135.429923 
L 230.336788 -137.777453 
L 225.125962 -140.124983 
L 219.90116 -142.472514 
L 215.262702 -144.820044 
L 211.742587 -147.167574 
L 209.625673 -149.515104 
L 208.890835 -151.862635 
L 209.295565 -154.210165 
L 210.538795 -156.557695 
L 212.399994 -158.905225 
L 214.783441 -161.252756 
L 217.665829 -163.600286 
L 221.004649 -165.947816 
L 224.677537 -168.295346 
L 228.487127 -170.642877 
L 232.215405 -172.990407 
L 235.684462 -175.337937 
L 238.789198 -177.685467 
L 241.494963 -180.032998 
L 243.815208 -182.380528 
L 245.788401 -184.728058 
L 247.46335 -187.075589 
L 248.890459 -189.423119 
L 250.113546 -191.770649 
L 251.162151 -194.118179 
L 252.049134 -196.46571 
L 252.777066 -198.81324 
L 253.35167 -201.16077 
L 253.796052 -203.5083 
L 254.157336 -205.855831 
L 254.498819 -208.203361 
L 254.877935 -210.550891 
L 255.321345 -212.898421 
L 255.813819 -215.245952 
L 256.309628 -217.593482 
L 256.758857 -219.941012 
L 257.130752 -222.288542 
L 257.420669 -224.636073 
L 257.640907 -226.983603 
L 257.806184 -229.331133 
L 257.924382 -231.678663 
L 257.995982 -234.026194 
L 258.019301 -236.373724 
L 257.997283 -238.721254 
L 257.942814 -241.068785 
L 257.87965 -243.416315 
L 257.836244 -245.763845 
L 257.833704 -248.111375 
L 257.875303 -250.458906 
L 257.946122 -252.806436 
L 258.023679 -255.153966 
L 258.090913 -257.501496 
L 258.142018 -259.849027 
L 258.179929 -262.196557 
L 258.211714 -264.544087 
L 258.246935 -266.891617 
L 258.297363 -269.239148 
L 258.373628 -271.586678 
L 258.478706 -273.934208 
L 258.603655 -276.281738 
L 258.730426 -278.629269 
L 258.840387 -280.976799 
L 258.922347 -283.324329 
L 258.975112 -285.671859 
L 259.081396 -285.671859 
L 259.081396 -285.671859 
L 259.134161 -283.324329 
L 259.216122 -280.976799 
L 259.326082 -278.629269 
L 259.452854 -276.281738 
L 259.577803 -273.934208 
L 259.68288 -271.586678 
L 259.759145 -269.239148 
L 259.809574 -266.891617 
L 259.844794 -264.544087 
L 259.876579 -262.196557 
L 259.91449 -259.849027 
L 259.965595 -257.501496 
L 260.032829 -255.153966 
L 260.110386 -252.806436 
L 260.181205 -250.458906 
L 260.222804 -248.111375 
L 260.220264 -245.763845 
L 260.176858 -243.416315 
L 260.113694 -241.068785 
L 260.059226 -238.721254 
L 260.037207 -236.373724 
L 260.060526 -234.026194 
L 260.132127 -231.678663 
L 260.250324 -229.331133 
L 260.415601 -226.983603 
L 260.635839 -224.636073 
L 260.925756 -222.288542 
L 261.297652 -219.941012 
L 261.74688 -217.593482 
L 262.242689 -215.245952 
L 262.735163 -212.898421 
L 263.178574 -210.550891 
L 263.55769 -208.203361 
L 263.899172 -205.855831 
L 264.260456 -203.5083 
L 264.704838 -201.16077 
L 265.279442 -198.81324 
L 266.007374 -196.46571 
L 266.894357 -194.118179 
L 267.942962 -191.770649 
L 269.166049 -189.423119 
L 270.593159 -187.075589 
L 272.268107 -184.728058 
L 274.2413 -182.380528 
L 276.561545 -180.032998 
L 279.26731 -177.685467 
L 282.372046 -175.337937 
L 285.841103 -172.990407 
L 289.569381 -170.642877 
L 293.378972 -168.295346 
L 297.051859 -165.947816 
L 300.390679 -163.600286 
L 303.273067 -161.252756 
L 305.656515 -158.905225 
L 307.517713 -156.557695 
L 308.760943 -154.210165 
L 309.165673 -151.862635 
L 308.430835 -149.515104 
L 306.313921 -147.167574 
L 302.793807 -144.820044 
L 298.155348 -142.472514 
L 292.930546 -140.124983 
L 287.71972 -137.777453 
L 282.99462 -135.429923 
L 278.990821 -133.082393 
L 275.725264 -130.734862 
L 273.090244 -128.387332 
L 270.946104 -126.039802 
L 269.169322 -123.692271 
L 267.662541 -121.344741 
L 266.352904 -118.997211 
L 265.193512 -116.649681 
L 264.165916 -114.30215 
L 263.276703 -111.95462 
L 262.545763 -109.60709 
L 261.98914 -107.25956 
L 261.602673 -104.912029 
L 261.353756 -102.564499 
L 261.186507 -100.216969 
L 261.039645 -97.869439 
L 260.868872 -95.521908 
L 260.661304 -93.174378 
L 260.432913 -90.826848 
L 260.210817 -88.479318 
L 260.013313 -86.131787 
L 259.841841 -83.784257 
L 259.688352 -81.436727 
L 259.54848 -79.089197 
L 259.427672 -76.741666 
L 259.33595 -74.394136 
L 259.27773 -72.046606 
L 259.24627 -69.699075 
L 259.226879 -67.351545 
L 259.205406 -65.004015 
L 259.175237 -62.656485 
L 259.138472 -60.308954 
L 259.101928 -57.961424 
L 259.071884 -55.613894 
L 259.051085 -53.266364 
z
" style="stroke: #626262; stroke-width: 2.25"/>
    </defs>
    <g clip-path="url(#pc16988916e)">
     <use xlink:href="#m5cbf82beea" x="0" y="345.6" style="fill: #e1c366; stroke: #626262; stroke-width: 2.25"/>
    </g>
   </g>
   <g id="PolyCollection_3">
    <defs>
     <path id="m1f6ad5c686" d="M 384.474929 -70.07085 
L 384.268673 -70.07085 
L 384.202159 -72.120761 
L 384.104941 -74.170671 
L 383.969789 -76.220582 
L 383.790949 -78.270493 
L 383.565531 -80.320404 
L 383.294649 -82.370315 
L 382.983908 -84.420225 
L 382.642796 -86.470136 
L 382.282787 -88.520047 
L 381.914232 -90.569958 
L 381.542619 -92.619869 
L 381.165262 -94.669779 
L 380.769686 -96.71969 
L 380.334748 -98.769601 
L 379.834616 -100.819512 
L 379.244546 -102.869423 
L 378.546248 -104.919333 
L 377.730451 -106.969244 
L 376.795199 -109.019155 
L 375.74032 -111.069066 
L 374.560493 -113.118977 
L 373.240247 -115.168887 
L 371.753487 -117.218798 
L 370.067982 -119.268709 
L 368.152798 -121.31862 
L 365.985482 -123.36853 
L 363.556473 -125.418441 
L 360.87058 -127.468352 
L 357.947753 -129.518263 
L 354.826116 -131.568174 
L 351.56851 -133.618084 
L 348.270397 -135.667995 
L 345.064009 -137.717906 
L 342.113268 -139.767817 
L 339.597092 -141.817728 
L 337.683897 -143.867638 
L 336.504608 -145.917549 
L 336.132693 -147.96746 
L 336.576863 -150.017371 
L 337.786735 -152.067282 
L 339.666926 -154.117192 
L 342.093245 -156.167103 
L 344.926338 -158.217014 
L 348.021735 -160.266925 
L 351.238077 -162.316836 
L 354.445779 -164.366746 
L 357.536458 -166.416657 
L 360.431093 -168.466568 
L 363.083847 -170.516479 
L 365.479715 -172.56639 
L 367.626819 -174.6163 
L 369.546433 -176.666211 
L 371.264352 -178.716122 
L 372.805756 -180.766033 
L 374.193489 -182.815944 
L 375.447988 -184.865854 
L 376.586902 -186.915765 
L 377.623561 -188.965676 
L 378.564905 -191.015587 
L 379.410365 -193.065498 
L 380.152946 -195.115408 
L 380.782759 -197.165319 
L 381.292025 -199.21523 
L 381.679834 -201.265141 
L 381.954996 -203.315052 
L 382.136012 -205.364962 
L 382.248203 -207.414873 
L 382.318962 -209.464784 
L 382.372562 -211.514695 
L 382.425975 -213.564606 
L 382.486709 -215.614516 
L 382.553041 -217.664427 
L 382.616374 -219.714338 
L 382.665013 -221.764249 
L 382.688438 -223.81416 
L 382.681133 -225.86407 
L 382.645125 -227.913981 
L 382.590579 -229.963892 
L 382.534136 -232.013803 
L 382.495214 -234.063714 
L 382.491154 -236.113624 
L 382.532618 -238.163535 
L 382.620773 -240.213446 
L 382.747277 -242.263357 
L 382.897133 -244.313268 
L 383.053391 -246.363178 
L 383.20198 -248.413089 
L 383.334983 -250.463 
L 383.451385 -252.512911 
L 383.555377 -254.562822 
L 383.653224 -256.612732 
L 383.7501 -258.662643 
L 383.84807 -260.712554 
L 383.945704 -262.762465 
L 384.039102 -264.812376 
L 384.123618 -266.862286 
L 384.195473 -268.912197 
L 384.252733 -270.962108 
L 384.295487 -273.012019 
L 384.448115 -273.012019 
L 384.448115 -273.012019 
L 384.49087 -270.962108 
L 384.548129 -268.912197 
L 384.619985 -266.862286 
L 384.7045 -264.812376 
L 384.797899 -262.762465 
L 384.895532 -260.712554 
L 384.993502 -258.662643 
L 385.090379 -256.612732 
L 385.188225 -254.562822 
L 385.292217 -252.512911 
L 385.408619 -250.463 
L 385.541622 -248.413089 
L 385.690211 -246.363178 
L 385.84647 -244.313268 
L 385.996326 -242.263357 
L 386.122829 -240.213446 
L 386.210984 -238.163535 
L 386.252448 -236.113624 
L 386.248388 -234.063714 
L 386.209466 -232.013803 
L 386.153023 -229.963892 
L 386.098478 -227.913981 
L 386.062469 -225.86407 
L 386.055164 -223.81416 
L 386.078589 -221.764249 
L 386.127228 -219.714338 
L 386.190561 -217.664427 
L 386.256893 -215.614516 
L 386.317628 -213.564606 
L 386.37104 -211.514695 
L 386.42464 -209.464784 
L 386.495399 -207.414873 
L 386.60759 -205.364962 
L 386.788606 -203.315052 
L 387.063769 -201.265141 
L 387.451577 -199.21523 
L 387.960843 -197.165319 
L 388.590656 -195.115408 
L 389.333237 -193.065498 
L 390.178697 -191.015587 
L 391.120041 -188.965676 
L 392.1567 -186.915765 
L 393.295614 -184.865854 
L 394.550113 -182.815944 
L 395.937846 -180.766033 
L 397.47925 -178.716122 
L 399.197169 -176.666211 
L 401.116784 -174.6163 
L 403.263887 -172.56639 
L 405.659755 -170.516479 
L 408.312509 -168.466568 
L 411.207145 -166.416657 
L 414.297823 -164.366746 
L 417.505525 -162.316836 
L 420.721868 -160.266925 
L 423.817264 -158.217014 
L 426.650358 -156.167103 
L 429.076676 -154.117192 
L 430.956867 -152.067282 
L 432.166739 -150.017371 
L 432.610909 -147.96746 
L 432.238994 -145.917549 
L 431.059705 -143.867638 
L 429.14651 -141.817728 
L 426.630334 -139.767817 
L 423.679593 -137.717906 
L 420.473206 -135.667995 
L 417.175093 -133.618084 
L 413.917486 -131.568174 
L 410.79585 -129.518263 
L 407.873023 -127.468352 
L 405.187129 -125.418441 
L 402.75812 -123.36853 
L 400.590805 -121.31862 
L 398.675621 -119.268709 
L 396.990115 -117.218798 
L 395.503356 -115.168887 
L 394.183109 -113.118977 
L 393.003282 -111.069066 
L 391.948404 -109.019155 
L 391.013152 -106.969244 
L 390.197355 -104.919333 
L 389.499056 -102.869423 
L 388.908986 -100.819512 
L 388.408855 -98.769601 
L 387.973916 -96.71969 
L 387.578341 -94.669779 
L 387.200983 -92.619869 
L 386.82937 -90.569958 
L 386.460815 -88.520047 
L 386.100807 -86.470136 
L 385.759695 -84.420225 
L 385.448953 -82.370315 
L 385.178072 -80.320404 
L 384.952653 -78.270493 
L 384.773813 -76.220582 
L 384.638661 -74.170671 
L 384.541444 -72.120761 
L 384.474929 -70.07085 
z
" style="stroke: #626262; stroke-width: 2.25"/>
    </defs>
    <g clip-path="url(#pc16988916e)">
     <use xlink:href="#m1f6ad5c686" x="0" y="345.6" style="fill: #cdadd7; stroke: #626262; stroke-width: 2.25"/>
    </g>
   </g>
   <g id="matplotlib.axis_1">
    <g id="xtick_1">
     <g id="line2d_1">
      <defs>
       <path id="m037209b105" d="M 0 0 
L 0 9 
" style="stroke: #000000; stroke-width: 1.875"/>
      </defs>
      <g>
       <use xlink:href="#m037209b105" x="133.684707" y="305.74" style="stroke: #000000; stroke-width: 1.875"/>
      </g>
     </g>
     <g id="text_1">
      <text style="font: 16px 'DejaVu Sans', 'Bitstream Vera Sans', 'Computer Modern Sans Serif', 'Lucida Grande', 'Verdana', 'Geneva', 'Lucid', 'Arial', 'Helvetica', 'Avant Garde', sans-serif; text-anchor: middle" x="133.684707" y="330.3975" transform="rotate(-0 133.684707 330.3975)">V1</text>
     </g>
    </g>
    <g id="xtick_2">
     <g id="line2d_2">
      <g>
       <use xlink:href="#m037209b105" x="259.028254" y="305.74" style="stroke: #000000; stroke-width: 1.875"/>
      </g>
     </g>
     <g id="text_2">
      <text style="font: 16px 'DejaVu Sans', 'Bitstream Vera Sans', 'Computer Modern Sans Serif', 'Lucida Grande', 'Verdana', 'Geneva', 'Lucid', 'Arial', 'Helvetica', 'Avant Garde', sans-serif; text-anchor: middle" x="259.028254" y="330.3975" transform="rotate(-0 259.028254 330.3975)">LM</text>
     </g>
    </g>
    <g id="xtick_3">
     <g id="line2d_3">
      <g>
       <use xlink:href="#m037209b105" x="384.371801" y="305.74" style="stroke: #000000; stroke-width: 1.875"/>
      </g>
     </g>
     <g id="text_3">
      <text style="font: 16px 'DejaVu Sans', 'Bitstream Vera Sans', 'Computer Modern Sans Serif', 'Lucida Grande', 'Verdana', 'Geneva', 'Lucid', 'Arial', 'Helvetica', 'Avant Garde', sans-serif; text-anchor: middle" x="384.371801" y="330.3975" transform="rotate(-0 384.371801 330.3975)">LI</text>
     </g>
    </g>
   </g>
   <g id="matplotlib.axis_2">
    <g id="ytick_1">
     <g id="line2d_4">
      <defs>
       <path id="m2e9f09bab7" d="M 0 0 
L -9 0 
" style="stroke: #000000; stroke-width: 1.875"/>
      </defs>
      <g>
       <use xlink:href="#m2e9f09bab7" x="67.44" y="279.421326" style="stroke: #000000; stroke-width: 1.875"/>
      </g>
     </g>
     <g id="text_4">
      <text style="font: 16px 'DejaVu Sans', 'Bitstream Vera Sans', 'Computer Modern Sans Serif', 'Lucida Grande', 'Verdana', 'Geneva', 'Lucid', 'Arial', 'Helvetica', 'Avant Garde', sans-serif; text-anchor: end" x="54.94" y="285.500076" transform="rotate(-0 54.94 285.500076)">−3</text>
     </g>
    </g>
    <g id="ytick_2">
     <g id="line2d_5">
      <g>
       <use xlink:href="#m2e9f09bab7" x="67.44" y="243.475557" style="stroke: #000000; stroke-width: 1.875"/>
      </g>
     </g>
     <g id="text_5">
      <text style="font: 16px 'DejaVu Sans', 'Bitstream Vera Sans', 'Computer Modern Sans Serif', 'Lucida Grande', 'Verdana', 'Geneva', 'Lucid', 'Arial', 'Helvetica', 'Avant Garde', sans-serif; text-anchor: end" x="54.94" y="249.554307" transform="rotate(-0 54.94 249.554307)">−2</text>
     </g>
    </g>
    <g id="ytick_3">
     <g id="line2d_6">
      <g>
       <use xlink:href="#m2e9f09bab7" x="67.44" y="207.529787" style="stroke: #000000; stroke-width: 1.875"/>
      </g>
     </g>
     <g id="text_6">
      <text style="font: 16px 'DejaVu Sans', 'Bitstream Vera Sans', 'Computer Modern Sans Serif', 'Lucida Grande', 'Verdana', 'Geneva', 'Lucid', 'Arial', 'Helvetica', 'Avant Garde', sans-serif; text-anchor: end" x="54.94" y="213.608537" transform="rotate(-0 54.94 213.608537)">−1</text>
     </g>
    </g>
    <g id="ytick_4">
     <g id="line2d_7">
      <g>
       <use xlink:href="#m2e9f09bab7" x="67.44" y="171.584018" style="stroke: #000000; stroke-width: 1.875"/>
      </g>
     </g>
     <g id="text_7">
      <text style="font: 16px 'DejaVu Sans', 'Bitstream Vera Sans', 'Computer Modern Sans Serif', 'Lucida Grande', 'Verdana', 'Geneva', 'Lucid', 'Arial', 'Helvetica', 'Avant Garde', sans-serif; text-anchor: end" x="54.94" y="177.662768" transform="rotate(-0 54.94 177.662768)">0</text>
     </g>
    </g>
    <g id="ytick_5">
     <g id="line2d_8">
      <g>
       <use xlink:href="#m2e9f09bab7" x="67.44" y="135.638249" style="stroke: #000000; stroke-width: 1.875"/>
      </g>
     </g>
     <g id="text_8">
      <text style="font: 16px 'DejaVu Sans', 'Bitstream Vera Sans', 'Computer Modern Sans Serif', 'Lucida Grande', 'Verdana', 'Geneva', 'Lucid', 'Arial', 'Helvetica', 'Avant Garde', sans-serif; text-anchor: end" x="54.94" y="141.716999" transform="rotate(-0 54.94 141.716999)">1</text>
     </g>
    </g>
    <g id="ytick_6">
     <g id="line2d_9">
      <g>
       <use xlink:href="#m2e9f09bab7" x="67.44" y="99.692479" style="stroke: #000000; stroke-width: 1.875"/>
      </g>
     </g>
     <g id="text_9">
      <text style="font: 16px 'DejaVu Sans', 'Bitstream Vera Sans', 'Computer Modern Sans Serif', 'Lucida Grande', 'Verdana', 'Geneva', 'Lucid', 'Arial', 'Helvetica', 'Avant Garde', sans-serif; text-anchor: end" x="54.94" y="105.771229" transform="rotate(-0 54.94 105.771229)">2</text>
     </g>
    </g>
    <g id="ytick_7">
     <g id="line2d_10">
      <g>
       <use xlink:href="#m2e9f09bab7" x="67.44" y="63.74671" style="stroke: #000000; stroke-width: 1.875"/>
      </g>
     </g>
     <g id="text_10">
      <text style="font: 16px 'DejaVu Sans', 'Bitstream Vera Sans', 'Computer Modern Sans Serif', 'Lucida Grande', 'Verdana', 'Geneva', 'Lucid', 'Arial', 'Helvetica', 'Avant Garde', sans-serif; text-anchor: end" x="54.94" y="69.82546" transform="rotate(-0 54.94 69.82546)">3</text>
     </g>
    </g>
    <g id="ytick_8">
     <g id="line2d_11">
      <g>
       <use xlink:href="#m2e9f09bab7" x="67.44" y="27.800941" style="stroke: #000000; stroke-width: 1.875"/>
      </g>
     </g>
     <g id="text_11">
      <text style="font: 16px 'DejaVu Sans', 'Bitstream Vera Sans', 'Computer Modern Sans Serif', 'Lucida Grande', 'Verdana', 'Geneva', 'Lucid', 'Arial', 'Helvetica', 'Avant Garde', sans-serif; text-anchor: end" x="54.94" y="33.879691" transform="rotate(-0 54.94 33.879691)">4</text>
     </g>
    </g>
    <g id="text_12">
     <text style="font: 16px 'DejaVu Sans', 'Bitstream Vera Sans', 'Computer Modern Sans Serif', 'Lucida Grande', 'Verdana', 'Geneva', 'Lucid', 'Arial', 'Helvetica', 'Avant Garde', sans-serif; text-anchor: middle" x="24.025" y="158.27" transform="rotate(-90 24.025 158.27)">Adaptation index</text>
    </g>
   </g>
   <g id="line2d_12">
    <path d="M 133.684707 231.64168 
L 133.684707 142.689621 
" clip-path="url(#pc16988916e)" style="fill: none; stroke: #626262; stroke-width: 2.25; stroke-linecap: square"/>
   </g>
   <g id="line2d_13">
    <path d="M 133.684707 197.687141 
L 133.684707 173.695027 
" clip-path="url(#pc16988916e)" style="fill: none; stroke: #626262; stroke-width: 6.75; stroke-linecap: square"/>
   </g>
   <g id="line2d_14">
    <path d="M 259.028254 235.31387 
L 259.028254 141.012787 
" clip-path="url(#pc16988916e)" style="fill: none; stroke: #626262; stroke-width: 2.25; stroke-linecap: square"/>
   </g>
   <g id="line2d_15">
    <path d="M 259.028254 200.79877 
L 259.028254 176.828374 
" clip-path="url(#pc16988916e)" style="fill: none; stroke: #626262; stroke-width: 6.75; stroke-linecap: square"/>
   </g>
   <g id="line2d_16">
    <path d="M 384.371801 237.860529 
L 384.371801 153.666189 
" clip-path="url(#pc16988916e)" style="fill: none; stroke: #626262; stroke-width: 2.25; stroke-linecap: square"/>
   </g>
   <g id="line2d_17">
    <path d="M 384.371801 207.693622 
L 384.371801 184.969415 
" clip-path="url(#pc16988916e)" style="fill: none; stroke: #626262; stroke-width: 6.75; stroke-linecap: square"/>
   </g>
   <g id="line2d_18">
    <path d="M 133.684707 45.773825 
L 259.028254 45.773825 
" clip-path="url(#pc16988916e)" style="fill: none; stroke: #808080; stroke-width: 2.25; stroke-linecap: square"/>
   </g>
   <g id="line2d_19">
    <path d="M 259.028254 38.584671 
L 384.371801 38.584671 
" clip-path="url(#pc16988916e)" style="fill: none; stroke: #808080; stroke-width: 2.25; stroke-linecap: square"/>
   </g>
   <g id="line2d_20">
    <path d="M 133.684707 24.206364 
L 384.371801 24.206364 
" clip-path="url(#pc16988916e)" style="fill: none; stroke: #808080; stroke-width: 2.25; stroke-linecap: square"/>
   </g>
   <g id="patch_3">
    <path d="M 67.44 305.74 
L 67.44 10.8 
" style="fill: none; stroke: #000000; stroke-width: 1.875; stroke-linejoin: miter; stroke-linecap: square"/>
   </g>
   <g id="patch_4">
    <path d="M 67.44 305.74 
L 450 305.74 
" style="fill: none; stroke: #000000; stroke-width: 1.875; stroke-linejoin: miter; stroke-linecap: square"/>
   </g>
   <g id="PathCollection_1">
    <defs>
     <path id="m652b5a6102" d="M 0 2.25 
C 0.596707 2.25 1.169055 2.012926 1.59099 1.59099 
C 2.012926 1.169055 2.25 0.596707 2.25 0 
C 2.25 -0.596707 2.012926 -1.169055 1.59099 -1.59099 
C 1.169055 -2.012926 0.596707 -2.25 0 -2.25 
C -0.596707 -2.25 -1.169055 -2.012926 -1.59099 -1.59099 
C -2.012926 -1.169055 -2.25 -0.596707 -2.25 0 
C -2.25 0.596707 -2.012926 1.169055 -1.59099 1.59099 
C -1.169055 2.012926 -0.596707 2.25 0 2.25 
z
" style="stroke: #626262; stroke-width: 1.5"/>
    </defs>
    <g clip-path="url(#pc16988916e)">
     <use xlink:href="#m652b5a6102" x="133.684707" y="187.59606" style="fill: #ffffff; stroke: #626262; stroke-width: 1.5"/>
    </g>
   </g>
   <g id="PathCollection_2">
    <g clip-path="url(#pc16988916e)">
     <use xlink:href="#m652b5a6102" x="259.028254" y="190.053353" style="fill: #ffffff; stroke: #626262; stroke-width: 1.5"/>
    </g>
   </g>
   <g id="PathCollection_3">
    <g clip-path="url(#pc16988916e)">
     <use xlink:href="#m652b5a6102" x="384.371801" y="197.609492" style="fill: #ffffff; stroke: #626262; stroke-width: 1.5"/>
    </g>
   </g>
   <g id="text_13">
    <text style="font: 14px 'DejaVu Sans', 'Bitstream Vera Sans', 'Computer Modern Sans Serif', 'Lucida Grande', 'Verdana', 'Geneva', 'Lucid', 'Arial', 'Helvetica', 'Avant Garde', sans-serif; text-anchor: start" x="296.631318" y="81.719595" transform="rotate(-0 296.631318 81.719595)">p=1.1e-07</text>
   </g>
   <g id="text_14">
    <text style="font: 14px 'DejaVu Sans', 'Bitstream Vera Sans', 'Computer Modern Sans Serif', 'Lucida Grande', 'Verdana', 'Geneva', 'Lucid', 'Arial', 'Helvetica', 'Avant Garde', sans-serif; text-anchor: start" x="196.356481" y="42.179248" transform="rotate(-0 196.356481 42.179248)">*</text>
   </g>
   <g id="text_15">
    <text style="font: 14px 'DejaVu Sans', 'Bitstream Vera Sans', 'Computer Modern Sans Serif', 'Lucida Grande', 'Verdana', 'Geneva', 'Lucid', 'Arial', 'Helvetica', 'Avant Garde', sans-serif; text-anchor: start" x="309.165673" y="38.584671" transform="rotate(-0 309.165673 38.584671)">***</text>
   </g>
   <g id="text_16">
    <text style="font: 14px 'DejaVu Sans', 'Bitstream Vera Sans', 'Computer Modern Sans Serif', 'Lucida Grande', 'Verdana', 'Geneva', 'Lucid', 'Arial', 'Helvetica', 'Avant Garde', sans-serif; text-anchor: start" x="246.493899" y="24.206364" transform="rotate(-0 246.493899 24.206364)">***</text>
   </g>
  </g>
 </g>
 <defs>
  <clipPath id="pc16988916e">
   <rect x="67.44" y="10.8" width="382.56" height="294.94"/>
  </clipPath>
 </defs>
</svg>
