<?xml version="1.0" encoding="utf-8" standalone="no"?>
<!DOCTYPE svg PUBLIC "-//W3C//DTD SVG 1.1//EN"
  "http://www.w3.org/Graphics/SVG/1.1/DTD/svg11.dtd">
<svg xmlns:xlink="http://www.w3.org/1999/xlink" width="460.8pt" height="345.6pt" viewBox="0 0 460.8 345.6" xmlns="http://www.w3.org/2000/svg" version="1.1">
 <metadata>
  <rdf:RDF xmlns:dc="http://purl.org/dc/elements/1.1/" xmlns:cc="http://creativecommons.org/ns#" xmlns:rdf="http://www.w3.org/1999/02/22-rdf-syntax-ns#">
   <cc:Work>
    <dc:type rdf:resource="http://purl.org/dc/dcmitype/StillImage"/>
    <dc:date>2023-12-06T12:12:40.449276</dc:date>
    <dc:format>image/svg+xml</dc:format>
    <dc:creator>
     <cc:Agent>
      <dc:title>Matplotlib v3.7.2, https://matplotlib.org/</dc:title>
     </cc:Agent>
    </dc:creator>
   </cc:Work>
  </rdf:RDF>
 </metadata>
 <defs>
  <style type="text/css">*{stroke-linejoin: round; stroke-linecap: butt}</style>
 </defs>
 <g id="figure_1">
  <g id="patch_1">
   <path d="M 0 345.6 
L 460.8 345.6 
L 460.8 0 
L 0 0 
z
" style="fill: #ffffff"/>
  </g>
  <g id="axes_1">
   <g id="patch_2">
    <path d="M 69.24 305.74 
L 450 305.74 
L 450 10.8 
L 69.24 10.8 
z
" style="fill: #ffffff"/>
   </g>
   <g id="PolyCollection_1">
    <defs>
     <path id="mda9901af89" d="M 136.2183 -55.555313 
L 135.828645 -55.555313 
L 135.714553 -57.939659 
L 135.548693 -60.324004 
L 135.315875 -62.708349 
L 135.000293 -65.092694 
L 134.58717 -67.47704 
L 134.064777 -69.861385 
L 133.426541 -72.24573 
L 132.672823 -74.630075 
L 131.811954 -77.014421 
L 130.86016 -79.398766 
L 129.840236 -81.783111 
L 128.779062 -84.167456 
L 127.704336 -86.551802 
L 126.64109 -88.936147 
L 125.608575 -91.320492 
L 124.618072 -93.704837 
L 123.67193 -96.089183 
L 122.763951 -98.473528 
L 121.880995 -100.857873 
L 121.005556 -103.242218 
L 120.118947 -105.626564 
L 119.204719 -108.010909 
L 118.251833 -110.395254 
L 117.257122 -112.7796 
L 116.226535 -115.163945 
L 115.174782 -117.54829 
L 114.12319 -119.932635 
L 113.095934 -122.316981 
L 112.115178 -124.701326 
L 111.196001 -127.085671 
L 110.342141 -129.470016 
L 109.54355 -131.854362 
L 108.776465 -134.238707 
L 108.006222 -136.623052 
L 107.19249 -139.007397 
L 106.296049 -141.391743 
L 105.285882 -143.776088 
L 104.145164 -146.160433 
L 102.874927 -148.544778 
L 101.494555 -150.929124 
L 100.038931 -153.313469 
L 98.552768 -155.697814 
L 97.083271 -158.082159 
L 95.672667 -160.466505 
L 94.352193 -162.85085 
L 93.138802 -165.235195 
L 92.035227 -167.61954 
L 91.033317 -170.003886 
L 90.119802 -172.388231 
L 89.283136 -174.772576 
L 88.519846 -177.156921 
L 87.838934 -179.541267 
L 87.263329 -181.925612 
L 86.82801 -184.309957 
L 86.575154 -186.694302 
L 86.547273 -189.078648 
L 86.779717 -191.462993 
L 87.294032 -193.847338 
L 88.093442 -196.231683 
L 89.161259 -198.616029 
L 90.462432 -201.000374 
L 91.947821 -203.384719 
L 93.560321 -205.769064 
L 95.241705 -208.15341 
L 96.939066 -210.537755 
L 98.609903 -212.9221 
L 100.22532 -215.306445 
L 101.771133 -217.690791 
L 103.24712 -220.075136 
L 104.664821 -222.459481 
L 106.044442 -224.843826 
L 107.411369 -227.228172 
L 108.792642 -229.612517 
L 110.213662 -231.996862 
L 111.695243 -234.381207 
L 113.25115 -236.765553 
L 114.886252 -239.149898 
L 116.595478 -241.534243 
L 118.363758 -243.918588 
L 120.167047 -246.302934 
L 121.974402 -248.687279 
L 123.750868 -251.071624 
L 125.460827 -253.455969 
L 127.071313 -255.840315 
L 128.554843 -258.22466 
L 129.891405 -260.609005 
L 131.069413 -262.99335 
L 132.085617 -265.377696 
L 132.944148 -267.762041 
L 133.654979 -270.146386 
L 134.232127 -272.530731 
L 134.691879 -274.915077 
L 135.051274 -277.299422 
L 135.32694 -279.683767 
L 135.534304 -282.068112 
L 135.687147 -284.452458 
L 135.797398 -286.836803 
L 135.875114 -289.221148 
L 135.928561 -291.605493 
L 136.118385 -291.605493 
L 136.118385 -291.605493 
L 136.171831 -289.221148 
L 136.249547 -286.836803 
L 136.359798 -284.452458 
L 136.512641 -282.068112 
L 136.720005 -279.683767 
L 136.995671 -277.299422 
L 137.355066 -274.915077 
L 137.814818 -272.530731 
L 138.391966 -270.146386 
L 139.102797 -267.762041 
L 139.961328 -265.377696 
L 140.977532 -262.99335 
L 142.15554 -260.609005 
L 143.492103 -258.22466 
L 144.975632 -255.840315 
L 146.586118 -253.455969 
L 148.296077 -251.071624 
L 150.072544 -248.687279 
L 151.879898 -246.302934 
L 153.683187 -243.918588 
L 155.451467 -241.534243 
L 157.160693 -239.149898 
L 158.795795 -236.765553 
L 160.351702 -234.381207 
L 161.833284 -231.996862 
L 163.254303 -229.612517 
L 164.635576 -227.228172 
L 166.002503 -224.843826 
L 167.382125 -222.459481 
L 168.799825 -220.075136 
L 170.275812 -217.690791 
L 171.821625 -215.306445 
L 173.437042 -212.9221 
L 175.10788 -210.537755 
L 176.80524 -208.15341 
L 178.486624 -205.769064 
L 180.099124 -203.384719 
L 181.584513 -201.000374 
L 182.885686 -198.616029 
L 183.953503 -196.231683 
L 184.752913 -193.847338 
L 185.267228 -191.462993 
L 185.499672 -189.078648 
L 185.471791 -186.694302 
L 185.218935 -184.309957 
L 184.783616 -181.925612 
L 184.208011 -179.541267 
L 183.527099 -177.156921 
L 182.763809 -174.772576 
L 181.927143 -172.388231 
L 181.013629 -170.003886 
L 180.011719 -167.61954 
L 178.908143 -165.235195 
L 177.694752 -162.85085 
L 176.374278 -160.466505 
L 174.963674 -158.082159 
L 173.494177 -155.697814 
L 172.008014 -153.313469 
L 170.55239 -150.929124 
L 169.172018 -148.544778 
L 167.901781 -146.160433 
L 166.761063 -143.776088 
L 165.750896 -141.391743 
L 164.854455 -139.007397 
L 164.040723 -136.623052 
L 163.270481 -134.238707 
L 162.503395 -131.854362 
L 161.704804 -129.470016 
L 160.850944 -127.085671 
L 159.931768 -124.701326 
L 158.951011 -122.316981 
L 157.923755 -119.932635 
L 156.872163 -117.54829 
L 155.82041 -115.163945 
L 154.789824 -112.7796 
L 153.795112 -110.395254 
L 152.842226 -108.010909 
L 151.927998 -105.626564 
L 151.04139 -103.242218 
L 150.16595 -100.857873 
L 149.282995 -98.473528 
L 148.375015 -96.089183 
L 147.428873 -93.704837 
L 146.43837 -91.320492 
L 145.405855 -88.936147 
L 144.342609 -86.551802 
L 143.267884 -84.167456 
L 142.206709 -81.783111 
L 141.186785 -79.398766 
L 140.234991 -77.014421 
L 139.374122 -74.630075 
L 138.620405 -72.24573 
L 137.982168 -69.861385 
L 137.459775 -67.47704 
L 137.046652 -65.092694 
L 136.73107 -62.708349 
L 136.498252 -60.324004 
L 136.332392 -57.939659 
L 136.2183 -55.555313 
z
" style="stroke: #505050; stroke-opacity: 0.6; stroke-width: 2.25"/>
    </defs>
    <g clip-path="url(#pbc53491c4e)">
     <use xlink:href="#mda9901af89" x="0" y="345.6" style="fill: #505eba; fill-opacity: 0.6; stroke: #505050; stroke-opacity: 0.6; stroke-width: 2.25"/>
    </g>
   </g>
   <g id="PolyCollection_2">
    <defs>
     <path id="mdfbfe03f87" d="M 259.891486 -59.455054 
L 259.536458 -59.455054 
L 259.428023 -61.763901 
L 259.269094 -64.072748 
L 259.044635 -66.381596 
L 258.738725 -68.690443 
L 258.335746 -70.99929 
L 257.821716 -73.308138 
L 257.185589 -75.616985 
L 256.420339 -77.925832 
L 255.523746 -80.234679 
L 254.498835 -82.543527 
L 253.353995 -84.852374 
L 252.10274 -87.161221 
L 250.763075 -89.470069 
L 249.356324 -91.778916 
L 247.905358 -94.087763 
L 246.432268 -96.39661 
L 244.955801 -98.705458 
L 243.489107 -101.014305 
L 242.038494 -103.323152 
L 240.603818 -105.632 
L 239.180802 -107.940847 
L 237.765026 -110.249694 
L 236.356711 -112.558541 
L 234.964975 -114.867389 
L 233.610121 -117.176236 
L 232.322853 -119.485083 
L 231.140094 -121.793931 
L 230.098029 -124.102778 
L 229.223909 -126.411625 
L 228.52865 -128.720472 
L 228.002234 -131.02932 
L 227.613342 -133.338167 
L 227.313612 -135.647014 
L 227.045835 -137.955862 
L 226.75439 -140.264709 
L 226.395643 -142.573556 
L 225.945953 -144.882403 
L 225.405396 -147.191251 
L 224.796281 -149.500098 
L 224.156739 -151.808945 
L 223.530892 -154.117793 
L 222.958043 -156.42664 
L 222.46363 -158.735487 
L 222.054275 -161.044334 
L 221.718144 -163.353182 
L 221.43035 -165.662029 
L 221.161695 -167.970876 
L 220.88807 -170.279724 
L 220.597788 -172.588571 
L 220.294805 -174.897418 
L 219.99716 -177.206265 
L 219.731397 -179.515113 
L 219.524859 -181.82396 
L 219.39817 -184.132807 
L 219.359936 -186.441655 
L 219.404923 -188.750502 
L 219.515917 -191.059349 
L 219.66859 -193.368196 
L 219.838067 -195.677044 
L 220.005573 -197.985891 
L 220.163644 -200.294738 
L 220.31864 -202.603586 
L 220.48995 -204.912433 
L 220.705991 -207.22128 
L 220.997996 -209.530127 
L 221.393214 -211.838975 
L 221.909453 -214.147822 
L 222.552533 -216.456669 
L 223.317358 -218.765517 
L 224.192142 -221.074364 
L 225.164247 -223.383211 
L 226.22565 -225.692058 
L 227.376227 -228.000906 
L 228.623923 -230.309753 
L 229.981977 -232.6186 
L 231.4643 -234.927447 
L 233.080505 -237.236295 
L 234.831984 -239.545142 
L 236.709777 -241.853989 
L 238.694357 -244.162837 
L 240.756858 -246.471684 
L 242.861152 -248.780531 
L 244.966221 -251.089378 
L 247.0286 -253.398226 
L 249.004901 -255.707073 
L 250.854494 -258.01592 
L 252.542322 -260.324768 
L 254.041587 -262.633615 
L 255.33587 -264.942462 
L 256.420206 -267.251309 
L 257.300805 -269.560157 
L 257.99344 -271.869004 
L 258.520805 -274.177851 
L 258.909404 -276.486699 
L 259.186538 -278.795546 
L 259.377868 -281.104393 
L 259.505787 -283.41324 
L 259.588646 -285.722088 
L 259.640662 -288.030935 
L 259.787282 -288.030935 
L 259.787282 -288.030935 
L 259.839299 -285.722088 
L 259.922157 -283.41324 
L 260.050077 -281.104393 
L 260.241406 -278.795546 
L 260.51854 -276.486699 
L 260.907139 -274.177851 
L 261.434504 -271.869004 
L 262.127139 -269.560157 
L 263.007739 -267.251309 
L 264.092074 -264.942462 
L 265.386358 -262.633615 
L 266.885623 -260.324768 
L 268.57345 -258.01592 
L 270.423043 -255.707073 
L 272.399344 -253.398226 
L 274.461723 -251.089378 
L 276.566792 -248.780531 
L 278.671086 -246.471684 
L 280.733588 -244.162837 
L 282.718167 -241.853989 
L 284.595961 -239.545142 
L 286.34744 -237.236295 
L 287.963645 -234.927447 
L 289.445967 -232.6186 
L 290.804022 -230.309753 
L 292.051717 -228.000906 
L 293.202294 -225.692058 
L 294.263698 -223.383211 
L 295.235803 -221.074364 
L 296.110586 -218.765517 
L 296.875412 -216.456669 
L 297.518491 -214.147822 
L 298.03473 -211.838975 
L 298.429949 -209.530127 
L 298.721953 -207.22128 
L 298.937994 -204.912433 
L 299.109304 -202.603586 
L 299.2643 -200.294738 
L 299.422371 -197.985891 
L 299.589878 -195.677044 
L 299.759354 -193.368196 
L 299.912028 -191.059349 
L 300.023021 -188.750502 
L 300.068008 -186.441655 
L 300.029774 -184.132807 
L 299.903085 -181.82396 
L 299.696548 -179.515113 
L 299.430785 -177.206265 
L 299.133139 -174.897418 
L 298.830156 -172.588571 
L 298.539874 -170.279724 
L 298.266249 -167.970876 
L 297.997594 -165.662029 
L 297.709801 -163.353182 
L 297.373669 -161.044334 
L 296.964314 -158.735487 
L 296.469901 -156.42664 
L 295.897052 -154.117793 
L 295.271205 -151.808945 
L 294.631663 -149.500098 
L 294.022549 -147.191251 
L 293.481991 -144.882403 
L 293.032301 -142.573556 
L 292.673555 -140.264709 
L 292.382109 -137.955862 
L 292.114332 -135.647014 
L 291.814602 -133.338167 
L 291.425711 -131.02932 
L 290.899295 -128.720472 
L 290.204035 -126.411625 
L 289.329915 -124.102778 
L 288.287851 -121.793931 
L 287.105091 -119.485083 
L 285.817823 -117.176236 
L 284.462969 -114.867389 
L 283.071233 -112.558541 
L 281.662918 -110.249694 
L 280.247142 -107.940847 
L 278.824127 -105.632 
L 277.389451 -103.323152 
L 275.938838 -101.014305 
L 274.472144 -98.705458 
L 272.995677 -96.39661 
L 271.522586 -94.087763 
L 270.07162 -91.778916 
L 268.66487 -89.470069 
L 267.325205 -87.161221 
L 266.07395 -84.852374 
L 264.929109 -82.543527 
L 263.904199 -80.234679 
L 263.007605 -77.925832 
L 262.242355 -75.616985 
L 261.606228 -73.308138 
L 261.092199 -70.99929 
L 260.689219 -68.690443 
L 260.383309 -66.381596 
L 260.158851 -64.072748 
L 259.999921 -61.763901 
L 259.891486 -59.455054 
z
" style="stroke: #505050; stroke-opacity: 0.6; stroke-width: 2.25"/>
    </defs>
    <g clip-path="url(#pbc53491c4e)">
     <use xlink:href="#mdfbfe03f87" x="0" y="345.6" style="fill: #b78b67; fill-opacity: 0.6; stroke: #505050; stroke-opacity: 0.6; stroke-width: 2.25"/>
    </g>
   </g>
   <g id="PolyCollection_3">
    <defs>
     <path id="md1ee5252cb" d="M 383.982978 -53.266364 
L 382.825966 -53.266364 
L 382.563955 -55.613828 
L 382.207793 -57.961293 
L 381.734407 -60.308758 
L 381.119075 -62.656223 
L 380.336673 -65.003688 
L 379.36326 -67.351153 
L 378.177906 -69.698618 
L 376.764587 -72.046082 
L 375.11397 -74.393547 
L 373.224857 -76.741012 
L 371.105144 -79.088477 
L 368.772158 -81.435942 
L 366.252328 -83.783407 
L 363.580244 -86.130871 
L 360.797189 -88.478336 
L 357.94931 -90.825801 
L 355.085599 -93.173266 
L 352.255835 -95.520731 
L 349.508651 -97.868196 
L 346.889827 -100.21566 
L 344.440912 -102.563125 
L 342.198227 -104.91059 
L 340.192294 -107.258055 
L 338.447656 -109.60552 
L 336.983042 -111.952985 
L 335.811734 -114.30045 
L 334.941975 -116.647914 
L 334.377238 -118.995379 
L 334.116216 -121.342844 
L 334.152475 -123.690309 
L 334.473836 -126.037774 
L 335.061682 -128.385239 
L 335.890471 -130.732703 
L 336.927741 -133.080168 
L 338.134879 -135.427633 
L 339.468723 -137.775098 
L 340.883955 -140.122563 
L 342.336001 -142.470028 
L 343.784038 -144.817492 
L 345.193659 -147.164957 
L 346.538762 -149.512422 
L 347.802354 -151.859887 
L 348.976174 -154.207352 
L 350.059217 -156.554817 
L 351.055438 -158.902281 
L 351.971073 -161.249746 
L 352.812038 -163.597211 
L 353.581857 -165.944676 
L 354.280464 -168.292141 
L 354.904048 -170.639606 
L 355.445926 -172.987071 
L 355.898253 -175.334535 
L 356.254214 -177.682 
L 356.510303 -180.029465 
L 356.668268 -182.37693 
L 356.736387 -184.724395 
L 356.729889 -187.07186 
L 356.670456 -189.419324 
L 356.584915 -191.766789 
L 356.503351 -194.114254 
L 356.456895 -196.461719 
L 356.475493 -198.809184 
L 356.585887 -201.156649 
L 356.809993 -203.504113 
L 357.163759 -205.851578 
L 357.65654 -208.199043 
L 358.290942 -210.546508 
L 359.063085 -212.893973 
L 359.963197 -215.241438 
L 360.976465 -217.588903 
L 362.084085 -219.936367 
L 363.264439 -222.283832 
L 364.494359 -224.631297 
L 365.75041 -226.978762 
L 367.01015 -229.326227 
L 368.253287 -231.673692 
L 369.462648 -234.021156 
L 370.6249 -236.368621 
L 371.730922 -238.716086 
L 372.775805 -241.063551 
L 373.758455 -243.411016 
L 374.680845 -245.758481 
L 375.547006 -248.105945 
L 376.361895 -250.45341 
L 377.130297 -252.800875 
L 377.855923 -255.14834 
L 378.540814 -257.495805 
L 379.185139 -259.84327 
L 379.787364 -262.190734 
L 380.344746 -264.538199 
L 380.854016 -266.885664 
L 381.312131 -269.233129 
L 381.716946 -271.580594 
L 382.067708 -273.928059 
L 382.365308 -276.275524 
L 382.612283 -278.622988 
L 382.812602 -280.970453 
L 382.971307 -283.317918 
L 383.094072 -285.665383 
L 383.714871 -285.665383 
L 383.714871 -285.665383 
L 383.837637 -283.317918 
L 383.996342 -280.970453 
L 384.196661 -278.622988 
L 384.443635 -276.275524 
L 384.741235 -273.928059 
L 385.091998 -271.580594 
L 385.496813 -269.233129 
L 385.954928 -266.885664 
L 386.464197 -264.538199 
L 387.021579 -262.190734 
L 387.623805 -259.84327 
L 388.26813 -257.495805 
L 388.953021 -255.14834 
L 389.678646 -252.800875 
L 390.447048 -250.45341 
L 391.261937 -248.105945 
L 392.128098 -245.758481 
L 393.050488 -243.411016 
L 394.033138 -241.063551 
L 395.078021 -238.716086 
L 396.184043 -236.368621 
L 397.346295 -234.021156 
L 398.555657 -231.673692 
L 399.798794 -229.326227 
L 401.058534 -226.978762 
L 402.314585 -224.631297 
L 403.544504 -222.283832 
L 404.724859 -219.936367 
L 405.832479 -217.588903 
L 406.845747 -215.241438 
L 407.745858 -212.893973 
L 408.518001 -210.546508 
L 409.152404 -208.199043 
L 409.645185 -205.851578 
L 409.998951 -203.504113 
L 410.223056 -201.156649 
L 410.33345 -198.809184 
L 410.352048 -196.461719 
L 410.305593 -194.114254 
L 410.224029 -191.766789 
L 410.138488 -189.419324 
L 410.079054 -187.07186 
L 410.072557 -184.724395 
L 410.140676 -182.37693 
L 410.29864 -180.029465 
L 410.554729 -177.682 
L 410.910691 -175.334535 
L 411.363017 -172.987071 
L 411.904896 -170.639606 
L 412.52848 -168.292141 
L 413.227087 -165.944676 
L 413.996906 -163.597211 
L 414.837871 -161.249746 
L 415.753506 -158.902281 
L 416.749727 -156.554817 
L 417.832769 -154.207352 
L 419.00659 -151.859887 
L 420.270182 -149.512422 
L 421.615284 -147.164957 
L 423.024906 -144.817492 
L 424.472943 -142.470028 
L 425.924988 -140.122563 
L 427.340221 -137.775098 
L 428.674065 -135.427633 
L 429.881202 -133.080168 
L 430.918473 -130.732703 
L 431.747261 -128.385239 
L 432.335108 -126.037774 
L 432.656468 -123.690309 
L 432.692727 -121.342844 
L 432.431706 -118.995379 
L 431.866969 -116.647914 
L 430.997209 -114.30045 
L 429.825901 -111.952985 
L 428.361287 -109.60552 
L 426.61665 -107.258055 
L 424.610716 -104.91059 
L 422.368032 -102.563125 
L 419.919116 -100.21566 
L 417.300292 -97.868196 
L 414.553109 -95.520731 
L 411.723345 -93.173266 
L 408.859633 -90.825801 
L 406.011755 -88.478336 
L 403.228699 -86.130871 
L 400.556615 -83.783407 
L 398.036786 -81.435942 
L 395.7038 -79.088477 
L 393.584087 -76.741012 
L 391.694974 -74.393547 
L 390.044356 -72.046082 
L 388.631038 -69.698618 
L 387.445684 -67.351153 
L 386.472271 -65.003688 
L 385.689869 -62.656223 
L 385.074537 -60.308758 
L 384.601151 -57.961293 
L 384.244989 -55.613828 
L 383.982978 -53.266364 
z
" style="stroke: #505050; stroke-opacity: 0.6; stroke-width: 2.25"/>
    </defs>
    <g clip-path="url(#pbc53491c4e)">
     <use xlink:href="#md1ee5252cb" x="0" y="345.6" style="fill: #9483d8; fill-opacity: 0.6; stroke: #505050; stroke-opacity: 0.6; stroke-width: 2.25"/>
    </g>
   </g>
   <g id="matplotlib.axis_1">
    <g id="xtick_1">
     <g id="line2d_1">
      <defs>
       <path id="mc4450dbefa" d="M 0 0 
L 0 9 
" style="stroke: #000000; stroke-width: 1.875"/>
      </defs>
      <g>
       <use xlink:href="#mc4450dbefa" x="136.023473" y="305.74" style="stroke: #000000; stroke-width: 1.875"/>
      </g>
     </g>
     <g id="text_1">
      <text style="font: 16px 'DejaVu Sans', 'Bitstream Vera Sans', 'Computer Modern Sans Serif', 'Lucida Grande', 'Verdana', 'Geneva', 'Lucid', 'Arial', 'Helvetica', 'Avant Garde', sans-serif; text-anchor: middle" x="136.023473" y="330.3975" transform="rotate(-0 136.023473 330.3975)">V1</text>
     </g>
    </g>
    <g id="xtick_2">
     <g id="line2d_2">
      <g>
       <use xlink:href="#mc4450dbefa" x="259.713972" y="305.74" style="stroke: #000000; stroke-width: 1.875"/>
      </g>
     </g>
     <g id="text_2">
      <text style="font: 16px 'DejaVu Sans', 'Bitstream Vera Sans', 'Computer Modern Sans Serif', 'Lucida Grande', 'Verdana', 'Geneva', 'Lucid', 'Arial', 'Helvetica', 'Avant Garde', sans-serif; text-anchor: middle" x="259.713972" y="330.3975" transform="rotate(-0 259.713972 330.3975)">LM</text>
     </g>
    </g>
    <g id="xtick_3">
     <g id="line2d_3">
      <g>
       <use xlink:href="#mc4450dbefa" x="383.404472" y="305.74" style="stroke: #000000; stroke-width: 1.875"/>
      </g>
     </g>
     <g id="text_3">
      <text style="font: 16px 'DejaVu Sans', 'Bitstream Vera Sans', 'Computer Modern Sans Serif', 'Lucida Grande', 'Verdana', 'Geneva', 'Lucid', 'Arial', 'Helvetica', 'Avant Garde', sans-serif; text-anchor: middle" x="383.404472" y="330.3975" transform="rotate(-0 383.404472 330.3975)">LI</text>
     </g>
    </g>
   </g>
   <g id="matplotlib.axis_2">
    <g id="ytick_1">
     <g id="line2d_4">
      <defs>
       <path id="m2ba50dddcc" d="M 0 0 
L -9 0 
" style="stroke: #000000; stroke-width: 1.875"/>
      </defs>
      <g>
       <use xlink:href="#m2ba50dddcc" x="69.24" y="266.813474" style="stroke: #000000; stroke-width: 1.875"/>
      </g>
     </g>
     <g id="text_4">
      <text style="font: 16px 'DejaVu Sans', 'Bitstream Vera Sans', 'Computer Modern Sans Serif', 'Lucida Grande', 'Verdana', 'Geneva', 'Lucid', 'Arial', 'Helvetica', 'Avant Garde', sans-serif; text-anchor: end" x="56.74" y="272.892224" transform="rotate(-0 56.74 272.892224)">0.0</text>
     </g>
    </g>
    <g id="ytick_2">
     <g id="line2d_5">
      <g>
       <use xlink:href="#m2ba50dddcc" x="69.24" y="222.70309" style="stroke: #000000; stroke-width: 1.875"/>
      </g>
     </g>
     <g id="text_5">
      <text style="font: 16px 'DejaVu Sans', 'Bitstream Vera Sans', 'Computer Modern Sans Serif', 'Lucida Grande', 'Verdana', 'Geneva', 'Lucid', 'Arial', 'Helvetica', 'Avant Garde', sans-serif; text-anchor: end" x="56.74" y="228.78184" transform="rotate(-0 56.74 228.78184)">0.2</text>
     </g>
    </g>
    <g id="ytick_3">
     <g id="line2d_6">
      <g>
       <use xlink:href="#m2ba50dddcc" x="69.24" y="178.592706" style="stroke: #000000; stroke-width: 1.875"/>
      </g>
     </g>
     <g id="text_6">
      <text style="font: 16px 'DejaVu Sans', 'Bitstream Vera Sans', 'Computer Modern Sans Serif', 'Lucida Grande', 'Verdana', 'Geneva', 'Lucid', 'Arial', 'Helvetica', 'Avant Garde', sans-serif; text-anchor: end" x="56.74" y="184.671456" transform="rotate(-0 56.74 184.671456)">0.4</text>
     </g>
    </g>
    <g id="ytick_4">
     <g id="line2d_7">
      <g>
       <use xlink:href="#m2ba50dddcc" x="69.24" y="134.482323" style="stroke: #000000; stroke-width: 1.875"/>
      </g>
     </g>
     <g id="text_7">
      <text style="font: 16px 'DejaVu Sans', 'Bitstream Vera Sans', 'Computer Modern Sans Serif', 'Lucida Grande', 'Verdana', 'Geneva', 'Lucid', 'Arial', 'Helvetica', 'Avant Garde', sans-serif; text-anchor: end" x="56.74" y="140.561073" transform="rotate(-0 56.74 140.561073)">0.6</text>
     </g>
    </g>
    <g id="ytick_5">
     <g id="line2d_8">
      <g>
       <use xlink:href="#m2ba50dddcc" x="69.24" y="90.371939" style="stroke: #000000; stroke-width: 1.875"/>
      </g>
     </g>
     <g id="text_8">
      <text style="font: 16px 'DejaVu Sans', 'Bitstream Vera Sans', 'Computer Modern Sans Serif', 'Lucida Grande', 'Verdana', 'Geneva', 'Lucid', 'Arial', 'Helvetica', 'Avant Garde', sans-serif; text-anchor: end" x="56.74" y="96.450689" transform="rotate(-0 56.74 96.450689)">0.8</text>
     </g>
    </g>
    <g id="ytick_6">
     <g id="line2d_9">
      <g>
       <use xlink:href="#m2ba50dddcc" x="69.24" y="46.261555" style="stroke: #000000; stroke-width: 1.875"/>
      </g>
     </g>
     <g id="text_9">
      <text style="font: 16px 'DejaVu Sans', 'Bitstream Vera Sans', 'Computer Modern Sans Serif', 'Lucida Grande', 'Verdana', 'Geneva', 'Lucid', 'Arial', 'Helvetica', 'Avant Garde', sans-serif; text-anchor: end" x="56.74" y="52.340305" transform="rotate(-0 56.74 52.340305)">1.0</text>
     </g>
    </g>
    <g id="text_10">
     <text style="font: 16px 'DejaVu Sans', 'Bitstream Vera Sans', 'Computer Modern Sans Serif', 'Lucida Grande', 'Verdana', 'Geneva', 'Lucid', 'Arial', 'Helvetica', 'Avant Garde', sans-serif; text-anchor: middle" x="23.9675" y="158.27" transform="rotate(-90 23.9675 158.27)">Adapted Global OSI</text>
    </g>
   </g>
   <g id="line2d_10">
    <path d="M 136.023473 265.427885 
L 136.023473 78.611309 
" clip-path="url(#pbc53491c4e)" style="fill: none; stroke: #505050; stroke-opacity: 0.6; stroke-width: 2.25; stroke-linecap: square"/>
   </g>
   <g id="line2d_11">
    <path d="M 136.023473 196.492738 
L 136.023473 140.232653 
" clip-path="url(#pbc53491c4e)" style="fill: none; stroke: #505050; stroke-opacity: 0.6; stroke-width: 6.75; stroke-linecap: square"/>
   </g>
   <g id="line2d_12">
    <path d="M 259.713972 264.031402 
L 259.713972 79.682609 
" clip-path="url(#pbc53491c4e)" style="fill: none; stroke: #505050; stroke-opacity: 0.6; stroke-width: 2.25; stroke-linecap: square"/>
   </g>
   <g id="line2d_13">
    <path d="M 259.713972 204.236123 
L 259.713972 134.394922 
" clip-path="url(#pbc53491c4e)" style="fill: none; stroke: #505050; stroke-opacity: 0.6; stroke-width: 6.75; stroke-linecap: square"/>
   </g>
   <g id="line2d_14">
    <path d="M 383.404472 261.974355 
L 383.404472 90.293899 
" clip-path="url(#pbc53491c4e)" style="fill: none; stroke: #505050; stroke-opacity: 0.6; stroke-width: 2.25; stroke-linecap: square"/>
   </g>
   <g id="line2d_15">
    <path d="M 383.404472 230.120953 
L 383.404472 156.741676 
" clip-path="url(#pbc53491c4e)" style="fill: none; stroke: #505050; stroke-opacity: 0.6; stroke-width: 6.75; stroke-linecap: square"/>
   </g>
   <g id="line2d_16">
    <path d="M 148.392523 46.261555 
L 247.344922 46.261555 
" clip-path="url(#pbc53491c4e)" style="fill: none; stroke: #808080; stroke-width: 2.25; stroke-linecap: square"/>
   </g>
   <g id="line2d_17">
    <path d="M 272.083022 46.261555 
L 371.035422 46.261555 
" clip-path="url(#pbc53491c4e)" style="fill: none; stroke: #808080; stroke-width: 2.25; stroke-linecap: square"/>
   </g>
   <g id="line2d_18">
    <path d="M 148.392523 24.206364 
L 371.035422 24.206364 
" clip-path="url(#pbc53491c4e)" style="fill: none; stroke: #808080; stroke-width: 2.25; stroke-linecap: square"/>
   </g>
   <g id="patch_3">
    <path d="M 69.24 305.74 
L 69.24 10.8 
" style="fill: none; stroke: #000000; stroke-width: 1.875; stroke-linejoin: miter; stroke-linecap: square"/>
   </g>
   <g id="patch_4">
    <path d="M 69.24 305.74 
L 450 305.74 
" style="fill: none; stroke: #000000; stroke-width: 1.875; stroke-linejoin: miter; stroke-linecap: square"/>
   </g>
   <g id="PathCollection_1">
    <defs>
     <path id="m301b14acc2" d="M 0 2.25 
C 0.596707 2.25 1.169055 2.012926 1.59099 1.59099 
C 2.012926 1.169055 2.25 0.596707 2.25 0 
C 2.25 -0.596707 2.012926 -1.169055 1.59099 -1.59099 
C 1.169055 -2.012926 0.596707 -2.25 0 -2.25 
C -0.596707 -2.25 -1.169055 -2.012926 -1.59099 -1.59099 
C -2.012926 -1.169055 -2.25 -0.596707 -2.25 0 
C -2.25 0.596707 -2.012926 1.169055 -1.59099 1.59099 
C -1.169055 2.012926 -0.596707 2.25 0 2.25 
z
" style="stroke: #505050; stroke-width: 1.5"/>
    </defs>
    <g clip-path="url(#pbc53491c4e)">
     <use xlink:href="#m301b14acc2" x="136.023473" y="166.481138" style="fill: #ffffff; stroke: #505050; stroke-width: 1.5"/>
    </g>
   </g>
   <g id="PathCollection_2">
    <g clip-path="url(#pbc53491c4e)">
     <use xlink:href="#m301b14acc2" x="259.713972" y="167.486522" style="fill: #ffffff; stroke: #505050; stroke-width: 1.5"/>
    </g>
   </g>
   <g id="PathCollection_3">
    <g clip-path="url(#pbc53491c4e)">
     <use xlink:href="#m301b14acc2" x="383.404472" y="203.156955" style="fill: #ffffff; stroke: #505050; stroke-width: 1.5"/>
    </g>
   </g>
   <g id="text_11">
    <text style="font: 14px 'DejaVu Sans', 'Bitstream Vera Sans', 'Computer Modern Sans Serif', 'Lucida Grande', 'Verdana', 'Geneva', 'Lucid', 'Arial', 'Helvetica', 'Avant Garde', sans-serif; text-anchor: start" x="278.267547" y="68.316747" transform="rotate(-0 278.267547 68.316747)">p=2.6e-11</text>
   </g>
   <g id="text_12">
    <text style="font: 14px 'DejaVu Sans', 'Bitstream Vera Sans', 'Computer Modern Sans Serif', 'Lucida Grande', 'Verdana', 'Geneva', 'Lucid', 'Arial', 'Helvetica', 'Avant Garde', sans-serif; text-anchor: start" x="197.868722" y="41.850517" transform="rotate(-0 197.868722 41.850517)">n.s.</text>
   </g>
   <g id="text_13">
    <text style="font: 14px 'DejaVu Sans', 'Bitstream Vera Sans', 'Computer Modern Sans Serif', 'Lucida Grande', 'Verdana', 'Geneva', 'Lucid', 'Arial', 'Helvetica', 'Avant Garde', sans-serif; text-anchor: start" x="309.190172" y="41.850517" transform="rotate(-0 309.190172 41.850517)">***</text>
   </g>
   <g id="text_14">
    <text style="font: 14px 'DejaVu Sans', 'Bitstream Vera Sans', 'Computer Modern Sans Serif', 'Lucida Grande', 'Verdana', 'Geneva', 'Lucid', 'Arial', 'Helvetica', 'Avant Garde', sans-serif; text-anchor: start" x="249.818732" y="24.206364" transform="rotate(-0 249.818732 24.206364)">***</text>
   </g>
  </g>
 </g>
 <defs>
  <clipPath id="pbc53491c4e">
   <rect x="69.24" y="10.8" width="380.76" height="294.94"/>
  </clipPath>
 </defs>
</svg>
