<?xml version="1.0" encoding="utf-8" standalone="no"?>
<!DOCTYPE svg PUBLIC "-//W3C//DTD SVG 1.1//EN"
  "http://www.w3.org/Graphics/SVG/1.1/DTD/svg11.dtd">
<svg xmlns:xlink="http://www.w3.org/1999/xlink" width="460.8pt" height="345.6pt" viewBox="0 0 460.8 345.6" xmlns="http://www.w3.org/2000/svg" version="1.1">
 <metadata>
  <rdf:RDF xmlns:dc="http://purl.org/dc/elements/1.1/" xmlns:cc="http://creativecommons.org/ns#" xmlns:rdf="http://www.w3.org/1999/02/22-rdf-syntax-ns#">
   <cc:Work>
    <dc:type rdf:resource="http://purl.org/dc/dcmitype/StillImage"/>
    <dc:date>2023-12-06T12:11:24.945775</dc:date>
    <dc:format>image/svg+xml</dc:format>
    <dc:creator>
     <cc:Agent>
      <dc:title>Matplotlib v3.7.2, https://matplotlib.org/</dc:title>
     </cc:Agent>
    </dc:creator>
   </cc:Work>
  </rdf:RDF>
 </metadata>
 <defs>
  <style type="text/css">*{stroke-linejoin: round; stroke-linecap: butt}</style>
 </defs>
 <g id="figure_1">
  <g id="patch_1">
   <path d="M 0 345.6 
L 460.8 345.6 
L 460.8 0 
L 0 0 
z
" style="fill: #ffffff"/>
  </g>
  <g id="axes_1">
   <g id="patch_2">
    <path d="M 69.24 305.74 
L 450 305.74 
L 450 10.8 
L 69.24 10.8 
z
" style="fill: #ffffff"/>
   </g>
   <g id="PolyCollection_1">
    <defs>
     <path id="m2e83850656" d="M 129.635687 -56.146627 
L 129.338211 -56.146627 
L 129.260716 -58.599963 
L 129.151599 -61.0533 
L 129.002058 -63.506637 
L 128.802378 -65.959973 
L 128.542296 -68.41331 
L 128.211448 -70.866647 
L 127.799863 -73.319984 
L 127.298448 -75.77332 
L 126.699445 -78.226657 
L 125.996837 -80.679994 
L 125.186758 -83.13333 
L 124.267927 -85.586667 
L 123.242187 -88.040004 
L 122.115121 -90.49334 
L 120.896705 -92.946677 
L 119.601792 -95.400014 
L 118.250194 -97.853351 
L 116.866076 -100.306687 
L 115.47647 -102.760024 
L 114.10891 -105.213361 
L 112.788452 -107.666697 
L 111.534581 -110.120034 
L 110.35867 -112.573371 
L 109.262637 -115.026707 
L 108.239235 -117.480044 
L 107.274055 -119.933381 
L 106.348911 -122.386718 
L 105.445963 -124.840054 
L 104.551735 -127.293391 
L 103.660219 -129.746728 
L 102.774446 -132.200064 
L 101.906225 -134.653401 
L 101.074074 -137.106738 
L 100.299741 -139.560074 
L 99.603903 -142.013411 
L 99.001847 -144.466748 
L 98.499902 -146.920085 
L 98.093313 -149.373421 
L 97.765973 -151.826758 
L 97.492086 -154.280095 
L 97.239442 -156.733431 
L 96.973657 -159.186768 
L 96.662566 -161.640105 
L 96.279961 -164.093441 
L 95.80811 -166.546778 
L 95.238815 -169.000115 
L 94.573155 -171.453452 
L 93.820325 -173.906788 
L 92.99608 -176.360125 
L 92.121228 -178.813462 
L 91.220423 -181.266798 
L 90.321251 -183.720135 
L 89.453447 -186.173472 
L 88.647981 -188.626808 
L 87.93584 -191.080145 
L 87.346439 -193.533482 
L 86.905795 -195.986818 
L 86.634711 -198.440155 
L 86.547273 -200.893492 
L 86.649931 -203.346829 
L 86.941338 -205.800165 
L 87.412959 -208.253502 
L 88.050329 -210.706839 
L 88.834745 -213.160175 
L 89.745101 -215.613512 
L 90.759598 -218.066849 
L 91.857135 -220.520185 
L 93.018279 -222.973522 
L 94.225863 -225.426859 
L 95.465329 -227.880196 
L 96.725045 -230.333532 
L 97.996716 -232.786869 
L 99.275989 -235.240206 
L 100.563104 -237.693542 
L 101.863323 -240.146879 
L 103.186765 -242.600216 
L 104.547329 -245.053552 
L 105.960561 -247.506889 
L 107.440634 -249.960226 
L 108.996923 -252.413563 
L 110.630868 -254.866899 
L 112.333828 -257.320236 
L 114.086494 -259.773573 
L 115.860061 -262.226909 
L 117.618953 -264.680246 
L 119.324612 -267.133583 
L 120.939606 -269.586919 
L 122.431364 -272.040256 
L 123.77498 -274.493593 
L 124.954789 -276.94693 
L 125.964679 -279.400266 
L 126.807321 -281.853603 
L 127.492632 -284.30694 
L 128.035815 -286.760276 
L 128.455302 -289.213613 
L 128.770847 -291.66695 
L 129.001947 -294.120286 
L 129.166661 -296.573623 
L 129.28085 -299.02696 
L 129.693047 -299.02696 
L 129.693047 -299.02696 
L 129.807237 -296.573623 
L 129.971951 -294.120286 
L 130.203051 -291.66695 
L 130.518596 -289.213613 
L 130.938082 -286.760276 
L 131.481266 -284.30694 
L 132.166577 -281.853603 
L 133.009219 -279.400266 
L 134.019109 -276.94693 
L 135.198918 -274.493593 
L 136.542534 -272.040256 
L 138.034291 -269.586919 
L 139.649285 -267.133583 
L 141.354945 -264.680246 
L 143.113837 -262.226909 
L 144.887403 -259.773573 
L 146.64007 -257.320236 
L 148.34303 -254.866899 
L 149.976974 -252.413563 
L 151.533264 -249.960226 
L 153.013337 -247.506889 
L 154.426569 -245.053552 
L 155.787133 -242.600216 
L 157.110575 -240.146879 
L 158.410793 -237.693542 
L 159.697909 -235.240206 
L 160.977182 -232.786869 
L 162.248853 -230.333532 
L 163.508568 -227.880196 
L 164.748035 -225.426859 
L 165.955618 -222.973522 
L 167.116763 -220.520185 
L 168.214299 -218.066849 
L 169.228796 -215.613512 
L 170.139153 -213.160175 
L 170.923569 -210.706839 
L 171.560939 -208.253502 
L 172.03256 -205.800165 
L 172.323967 -203.346829 
L 172.426625 -200.893492 
L 172.339186 -198.440155 
L 172.068103 -195.986818 
L 171.627459 -193.533482 
L 171.038058 -191.080145 
L 170.325917 -188.626808 
L 169.520451 -186.173472 
L 168.652647 -183.720135 
L 167.753475 -181.266798 
L 166.852669 -178.813462 
L 165.977818 -176.360125 
L 165.153573 -173.906788 
L 164.400743 -171.453452 
L 163.735083 -169.000115 
L 163.165787 -166.546778 
L 162.693937 -164.093441 
L 162.311332 -161.640105 
L 162.000241 -159.186768 
L 161.734456 -156.733431 
L 161.481812 -154.280095 
L 161.207925 -151.826758 
L 160.880585 -149.373421 
L 160.473996 -146.920085 
L 159.972051 -144.466748 
L 159.369995 -142.013411 
L 158.674157 -139.560074 
L 157.899823 -137.106738 
L 157.067673 -134.653401 
L 156.199452 -132.200064 
L 155.313679 -129.746728 
L 154.422163 -127.293391 
L 153.527935 -124.840054 
L 152.624987 -122.386718 
L 151.699843 -119.933381 
L 150.734663 -117.480044 
L 149.711261 -115.026707 
L 148.615228 -112.573371 
L 147.439316 -110.120034 
L 146.185446 -107.666697 
L 144.864988 -105.213361 
L 143.497428 -102.760024 
L 142.107821 -100.306687 
L 140.723704 -97.853351 
L 139.372106 -95.400014 
L 138.077193 -92.946677 
L 136.858776 -90.49334 
L 135.731711 -88.040004 
L 134.70597 -85.586667 
L 133.78714 -83.13333 
L 132.977061 -80.679994 
L 132.274453 -78.226657 
L 131.675449 -75.77332 
L 131.174035 -73.319984 
L 130.76245 -70.866647 
L 130.431602 -68.41331 
L 130.171519 -65.959973 
L 129.97184 -63.506637 
L 129.822299 -61.0533 
L 129.713182 -58.599963 
L 129.635687 -56.146627 
z
" style="stroke: #626262; stroke-width: 2.25"/>
    </defs>
    <g clip-path="url(#pc68820e58c)">
     <use xlink:href="#m2e83850656" x="0" y="345.6" style="fill: #92abde; stroke: #626262; stroke-width: 2.25"/>
    </g>
   </g>
   <g id="PolyCollection_2">
    <defs>
     <path id="maade2df121" d="M 256.703865 -62.284838 
L 256.380699 -62.284838 
L 256.278515 -64.553862 
L 256.127558 -66.822885 
L 255.913692 -69.091908 
L 255.623006 -71.360931 
L 255.243755 -73.629955 
L 254.768494 -75.898978 
L 254.195947 -78.168001 
L 253.532115 -80.437024 
L 252.790233 -82.706048 
L 251.989414 -84.975071 
L 251.152156 -87.244094 
L 250.301179 -89.513117 
L 249.456243 -91.782141 
L 248.631562 -94.051164 
L 247.834265 -96.320187 
L 247.064064 -98.589211 
L 246.31404 -100.858234 
L 245.572309 -103.127257 
L 244.824305 -105.39628 
L 244.055444 -107.665304 
L 243.253992 -109.934327 
L 242.413865 -112.20335 
L 241.536995 -114.472373 
L 240.634705 -116.741397 
L 239.727545 -119.01042 
L 238.843127 -121.279443 
L 238.011939 -123.548466 
L 237.261632 -125.81749 
L 236.610822 -128.086513 
L 236.063797 -130.355536 
L 235.607538 -132.624559 
L 235.212033 -134.893583 
L 234.834169 -137.162606 
L 234.42461 -139.431629 
L 233.936346 -141.700653 
L 233.333139 -143.969676 
L 232.596063 -146.238699 
L 231.726735 -148.507722 
L 230.746507 -150.776746 
L 229.691702 -153.045769 
L 228.605787 -155.314792 
L 227.529983 -157.583815 
L 226.494195 -159.852839 
L 225.51019 -162.121862 
L 224.56856 -164.390885 
L 223.640323 -166.659908 
L 222.682958 -168.928932 
L 221.64964 -171.197955 
L 220.499646 -173.466978 
L 219.207636 -175.736002 
L 217.769912 -178.005025 
L 216.206619 -180.274048 
L 214.559903 -182.543071 
L 212.888871 -184.812095 
L 211.262594 -187.081118 
L 209.752333 -189.350141 
L 208.423907 -191.619164 
L 207.33089 -193.888188 
L 206.509271 -196.157211 
L 205.974291 -198.426234 
L 205.720149 -200.695257 
L 205.722845 -202.964281 
L 205.945766 -205.233304 
L 206.346739 -207.502327 
L 206.884791 -209.771351 
L 207.524973 -212.040374 
L 208.240452 -214.309397 
L 209.012312 -216.57842 
L 209.828488 -218.847444 
L 210.683586 -221.116467 
L 211.58058 -223.38549 
L 212.534064 -225.654513 
L 213.573233 -227.923537 
L 214.74217 -230.19256 
L 216.095437 -232.461583 
L 217.688633 -234.730606 
L 219.565648 -236.99963 
L 221.74601 -239.268653 
L 224.216192 -241.537676 
L 226.927767 -243.8067 
L 229.803207 -246.075723 
L 232.747774 -248.344746 
L 235.664178 -250.613769 
L 238.466157 -252.882793 
L 241.087879 -255.151816 
L 243.48766 -257.420839 
L 245.646322 -259.689862 
L 247.561916 -261.958886 
L 249.243083 -264.227909 
L 250.703162 -266.496932 
L 251.956312 -268.765955 
L 253.015977 -271.034979 
L 253.895188 -273.304002 
L 254.607768 -275.573025 
L 255.169484 -277.842049 
L 255.598506 -280.111072 
L 255.914979 -282.380095 
L 256.139866 -284.649118 
L 256.2935 -286.918142 
L 256.791064 -286.918142 
L 256.791064 -286.918142 
L 256.944699 -284.649118 
L 257.169586 -282.380095 
L 257.486058 -280.111072 
L 257.915081 -277.842049 
L 258.476796 -275.573025 
L 259.189376 -273.304002 
L 260.068588 -271.034979 
L 261.128253 -268.765955 
L 262.381403 -266.496932 
L 263.841482 -264.227909 
L 265.522649 -261.958886 
L 267.438242 -259.689862 
L 269.596905 -257.420839 
L 271.996685 -255.151816 
L 274.618408 -252.882793 
L 277.420387 -250.613769 
L 280.33679 -248.344746 
L 283.281357 -246.075723 
L 286.156798 -243.8067 
L 288.868372 -241.537676 
L 291.338554 -239.268653 
L 293.518916 -236.99963 
L 295.395931 -234.730606 
L 296.989127 -232.461583 
L 298.342394 -230.19256 
L 299.511332 -227.923537 
L 300.550501 -225.654513 
L 301.503984 -223.38549 
L 302.400979 -221.116467 
L 303.256076 -218.847444 
L 304.072253 -216.57842 
L 304.844112 -214.309397 
L 305.559592 -212.040374 
L 306.199773 -209.771351 
L 306.737825 -207.502327 
L 307.138799 -205.233304 
L 307.36172 -202.964281 
L 307.364416 -200.695257 
L 307.110273 -198.426234 
L 306.575294 -196.157211 
L 305.753674 -193.888188 
L 304.660658 -191.619164 
L 303.332232 -189.350141 
L 301.821971 -187.081118 
L 300.195694 -184.812095 
L 298.524662 -182.543071 
L 296.877946 -180.274048 
L 295.314653 -178.005025 
L 293.876929 -175.736002 
L 292.584918 -173.466978 
L 291.434924 -171.197955 
L 290.401607 -168.928932 
L 289.444242 -166.659908 
L 288.516005 -164.390885 
L 287.574375 -162.121862 
L 286.590369 -159.852839 
L 285.554582 -157.583815 
L 284.478777 -155.314792 
L 283.392863 -153.045769 
L 282.338058 -150.776746 
L 281.357829 -148.507722 
L 280.488501 -146.238699 
L 279.751425 -143.969676 
L 279.148219 -141.700653 
L 278.659955 -139.431629 
L 278.250395 -137.162606 
L 277.872531 -134.893583 
L 277.477027 -132.624559 
L 277.020768 -130.355536 
L 276.473743 -128.086513 
L 275.822932 -125.81749 
L 275.072626 -123.548466 
L 274.241438 -121.279443 
L 273.357019 -119.01042 
L 272.449859 -116.741397 
L 271.54757 -114.472373 
L 270.670699 -112.20335 
L 269.830573 -109.934327 
L 269.029121 -107.665304 
L 268.26026 -105.39628 
L 267.512255 -103.127257 
L 266.770525 -100.858234 
L 266.0205 -98.589211 
L 265.250299 -96.320187 
L 264.453002 -94.051164 
L 263.628322 -91.782141 
L 262.783386 -89.513117 
L 261.932409 -87.244094 
L 261.09515 -84.975071 
L 260.294331 -82.706048 
L 259.552449 -80.437024 
L 258.888618 -78.168001 
L 258.316071 -75.898978 
L 257.84081 -73.629955 
L 257.461559 -71.360931 
L 257.170872 -69.091908 
L 256.957007 -66.822885 
L 256.806049 -64.553862 
L 256.703865 -62.284838 
z
" style="stroke: #626262; stroke-width: 2.25"/>
    </defs>
    <g clip-path="url(#pc68820e58c)">
     <use xlink:href="#maade2df121" x="0" y="345.6" style="fill: #e1c366; stroke: #626262; stroke-width: 2.25"/>
    </g>
   </g>
   <g id="PolyCollection_3">
    <defs>
     <path id="m2e352fb71e" d="M 384.067528 -53.266364 
L 383.127704 -53.266364 
L 382.907499 -55.659839 
L 382.607286 -58.053315 
L 382.20859 -60.44679 
L 381.69279 -62.840265 
L 381.042703 -65.233741 
L 380.244414 -67.627216 
L 379.289162 -70.020692 
L 378.174975 -72.414167 
L 376.90776 -74.807643 
L 375.501561 -77.201118 
L 373.977803 -79.594594 
L 372.363492 -81.988069 
L 370.688513 -84.381544 
L 368.982372 -86.77502 
L 367.270835 -89.168495 
L 365.573002 -91.561971 
L 363.899312 -93.955446 
L 362.250837 -96.348922 
L 360.620023 -98.742397 
L 358.992788 -101.135873 
L 357.351664 -103.529348 
L 355.679472 -105.922824 
L 353.962943 -108.316299 
L 352.195726 -110.709774 
L 350.38033 -113.10325 
L 348.528787 -115.496725 
L 346.662046 -117.890201 
L 344.808369 -120.283676 
L 343.00114 -122.677152 
L 341.276598 -125.070627 
L 339.671889 -127.464103 
L 338.223708 -129.857578 
L 336.96753 -132.251053 
L 335.937198 -134.644529 
L 335.164484 -137.038004 
L 334.678195 -139.43148 
L 334.502504 -141.824955 
L 334.654436 -144.218431 
L 335.14074 -146.611906 
L 335.954677 -149.005382 
L 337.073432 -151.398857 
L 338.456914 -153.792332 
L 340.048501 -156.185808 
L 341.778025 -158.579283 
L 343.566837 -160.972759 
L 345.334381 -163.366234 
L 347.005409 -165.75971 
L 348.516771 -168.153185 
L 349.822792 -170.546661 
L 350.898473 -172.940136 
L 351.740129 -175.333612 
L 352.363515 -177.727087 
L 352.799894 -180.120562 
L 353.090773 -182.514038 
L 353.282209 -184.907513 
L 353.419493 -187.300989 
L 353.542902 -189.694464 
L 353.684918 -192.08794 
L 353.869045 -194.481415 
L 354.110098 -196.874891 
L 354.415644 -199.268366 
L 354.788177 -201.661841 
L 355.22756 -204.055317 
L 355.733311 -206.448792 
L 356.306346 -208.842268 
L 356.949933 -211.235743 
L 357.669717 -213.629219 
L 358.472835 -216.022694 
L 359.366297 -218.41617 
L 360.354967 -220.809645 
L 361.439548 -223.203121 
L 362.615026 -225.596596 
L 363.869935 -227.990071 
L 365.186648 -230.383547 
L 366.542709 -232.777022 
L 367.912961 -235.170498 
L 369.272077 -237.563973 
L 370.597035 -239.957449 
L 371.869068 -242.350924 
L 373.0748 -244.7444 
L 374.206441 -247.137875 
L 375.261138 -249.53135 
L 376.23972 -251.924826 
L 377.145186 -254.318301 
L 377.981259 -256.711777 
L 378.751278 -259.105252 
L 379.457566 -261.498728 
L 380.101293 -263.892203 
L 380.682736 -266.285679 
L 381.20181 -268.679154 
L 381.658657 -271.07263 
L 382.054188 -273.466105 
L 382.390434 -275.85958 
L 382.670691 -278.253056 
L 382.899442 -280.646531 
L 383.082113 -283.040007 
L 383.224725 -285.433482 
L 383.333509 -287.826958 
L 383.414549 -290.220433 
L 383.780682 -290.220433 
L 383.780682 -290.220433 
L 383.861722 -287.826958 
L 383.970507 -285.433482 
L 384.113119 -283.040007 
L 384.295789 -280.646531 
L 384.52454 -278.253056 
L 384.804797 -275.85958 
L 385.141044 -273.466105 
L 385.536574 -271.07263 
L 385.993422 -268.679154 
L 386.512495 -266.285679 
L 387.093939 -263.892203 
L 387.737665 -261.498728 
L 388.443954 -259.105252 
L 389.213973 -256.711777 
L 390.050045 -254.318301 
L 390.955511 -251.924826 
L 391.934093 -249.53135 
L 392.98879 -247.137875 
L 394.120431 -244.7444 
L 395.326163 -242.350924 
L 396.598196 -239.957449 
L 397.923154 -237.563973 
L 399.282271 -235.170498 
L 400.652522 -232.777022 
L 402.008584 -230.383547 
L 403.325297 -227.990071 
L 404.580205 -225.596596 
L 405.755684 -223.203121 
L 406.840265 -220.809645 
L 407.828934 -218.41617 
L 408.722396 -216.022694 
L 409.525514 -213.629219 
L 410.245299 -211.235743 
L 410.888886 -208.842268 
L 411.461921 -206.448792 
L 411.967672 -204.055317 
L 412.407055 -201.661841 
L 412.779587 -199.268366 
L 413.085133 -196.874891 
L 413.326187 -194.481415 
L 413.510314 -192.08794 
L 413.652329 -189.694464 
L 413.775738 -187.300989 
L 413.913022 -184.907513 
L 414.104459 -182.514038 
L 414.395338 -180.120562 
L 414.831716 -177.727087 
L 415.455103 -175.333612 
L 416.296759 -172.940136 
L 417.372439 -170.546661 
L 418.67846 -168.153185 
L 420.189822 -165.75971 
L 421.860851 -163.366234 
L 423.628395 -160.972759 
L 425.417207 -158.579283 
L 427.146731 -156.185808 
L 428.738318 -153.792332 
L 430.121799 -151.398857 
L 431.240555 -149.005382 
L 432.054491 -146.611906 
L 432.540795 -144.218431 
L 432.692727 -141.824955 
L 432.517037 -139.43148 
L 432.030748 -137.038004 
L 431.258034 -134.644529 
L 430.227701 -132.251053 
L 428.971523 -129.857578 
L 427.523343 -127.464103 
L 425.918633 -125.070627 
L 424.194091 -122.677152 
L 422.386863 -120.283676 
L 420.533185 -117.890201 
L 418.666445 -115.496725 
L 416.814901 -113.10325 
L 414.999505 -110.709774 
L 413.232288 -108.316299 
L 411.51576 -105.922824 
L 409.843567 -103.529348 
L 408.202444 -101.135873 
L 406.575209 -98.742397 
L 404.944394 -96.348922 
L 403.29592 -93.955446 
L 401.62223 -91.561971 
L 399.924397 -89.168495 
L 398.212859 -86.77502 
L 396.506718 -84.381544 
L 394.83174 -81.988069 
L 393.217428 -79.594594 
L 391.693671 -77.201118 
L 390.287471 -74.807643 
L 389.020256 -72.414167 
L 387.906069 -70.020692 
L 386.950817 -67.627216 
L 386.152529 -65.233741 
L 385.502441 -62.840265 
L 384.986642 -60.44679 
L 384.587945 -58.053315 
L 384.287733 -55.659839 
L 384.067528 -53.266364 
z
" style="stroke: #626262; stroke-width: 2.25"/>
    </defs>
    <g clip-path="url(#pc68820e58c)">
     <use xlink:href="#m2e352fb71e" x="0" y="345.6" style="fill: #cdadd7; stroke: #626262; stroke-width: 2.25"/>
    </g>
   </g>
   <g id="matplotlib.axis_1">
    <g id="xtick_1">
     <g id="line2d_1">
      <defs>
       <path id="mf8ce1c6e8e" d="M 0 0 
L 0 9 
" style="stroke: #000000; stroke-width: 1.875"/>
      </defs>
      <g>
       <use xlink:href="#mf8ce1c6e8e" x="129.486949" y="305.74" style="stroke: #000000; stroke-width: 1.875"/>
      </g>
     </g>
     <g id="text_1">
      <text style="font: 16px 'DejaVu Sans', 'Bitstream Vera Sans', 'Computer Modern Sans Serif', 'Lucida Grande', 'Verdana', 'Geneva', 'Lucid', 'Arial', 'Helvetica', 'Avant Garde', sans-serif; text-anchor: middle" x="129.486949" y="330.3975" transform="rotate(-0 129.486949 330.3975)">V1</text>
     </g>
    </g>
    <g id="xtick_2">
     <g id="line2d_2">
      <g>
       <use xlink:href="#mf8ce1c6e8e" x="256.542282" y="305.74" style="stroke: #000000; stroke-width: 1.875"/>
      </g>
     </g>
     <g id="text_2">
      <text style="font: 16px 'DejaVu Sans', 'Bitstream Vera Sans', 'Computer Modern Sans Serif', 'Lucida Grande', 'Verdana', 'Geneva', 'Lucid', 'Arial', 'Helvetica', 'Avant Garde', sans-serif; text-anchor: middle" x="256.542282" y="330.3975" transform="rotate(-0 256.542282 330.3975)">LM</text>
     </g>
    </g>
    <g id="xtick_3">
     <g id="line2d_3">
      <g>
       <use xlink:href="#mf8ce1c6e8e" x="383.597616" y="305.74" style="stroke: #000000; stroke-width: 1.875"/>
      </g>
     </g>
     <g id="text_3">
      <text style="font: 16px 'DejaVu Sans', 'Bitstream Vera Sans', 'Computer Modern Sans Serif', 'Lucida Grande', 'Verdana', 'Geneva', 'Lucid', 'Arial', 'Helvetica', 'Avant Garde', sans-serif; text-anchor: middle" x="383.597616" y="330.3975" transform="rotate(-0 383.597616 330.3975)">LI</text>
     </g>
    </g>
   </g>
   <g id="matplotlib.axis_2">
    <g id="ytick_1">
     <g id="line2d_4">
      <defs>
       <path id="mc076ed9374" d="M 0 0 
L -9 0 
" style="stroke: #000000; stroke-width: 1.875"/>
      </defs>
      <g>
       <use xlink:href="#mc076ed9374" x="69.24" y="265.328319" style="stroke: #000000; stroke-width: 1.875"/>
      </g>
     </g>
     <g id="text_4">
      <text style="font: 16px 'DejaVu Sans', 'Bitstream Vera Sans', 'Computer Modern Sans Serif', 'Lucida Grande', 'Verdana', 'Geneva', 'Lucid', 'Arial', 'Helvetica', 'Avant Garde', sans-serif; text-anchor: end" x="56.74" y="271.407069" transform="rotate(-0 56.74 271.407069)">0.0</text>
     </g>
    </g>
    <g id="ytick_2">
     <g id="line2d_5">
      <g>
       <use xlink:href="#mc076ed9374" x="69.24" y="221.487963" style="stroke: #000000; stroke-width: 1.875"/>
      </g>
     </g>
     <g id="text_5">
      <text style="font: 16px 'DejaVu Sans', 'Bitstream Vera Sans', 'Computer Modern Sans Serif', 'Lucida Grande', 'Verdana', 'Geneva', 'Lucid', 'Arial', 'Helvetica', 'Avant Garde', sans-serif; text-anchor: end" x="56.74" y="227.566713" transform="rotate(-0 56.74 227.566713)">0.2</text>
     </g>
    </g>
    <g id="ytick_3">
     <g id="line2d_6">
      <g>
       <use xlink:href="#mc076ed9374" x="69.24" y="177.647608" style="stroke: #000000; stroke-width: 1.875"/>
      </g>
     </g>
     <g id="text_6">
      <text style="font: 16px 'DejaVu Sans', 'Bitstream Vera Sans', 'Computer Modern Sans Serif', 'Lucida Grande', 'Verdana', 'Geneva', 'Lucid', 'Arial', 'Helvetica', 'Avant Garde', sans-serif; text-anchor: end" x="56.74" y="183.726358" transform="rotate(-0 56.74 183.726358)">0.4</text>
     </g>
    </g>
    <g id="ytick_4">
     <g id="line2d_7">
      <g>
       <use xlink:href="#mc076ed9374" x="69.24" y="133.807252" style="stroke: #000000; stroke-width: 1.875"/>
      </g>
     </g>
     <g id="text_7">
      <text style="font: 16px 'DejaVu Sans', 'Bitstream Vera Sans', 'Computer Modern Sans Serif', 'Lucida Grande', 'Verdana', 'Geneva', 'Lucid', 'Arial', 'Helvetica', 'Avant Garde', sans-serif; text-anchor: end" x="56.74" y="139.886002" transform="rotate(-0 56.74 139.886002)">0.6</text>
     </g>
    </g>
    <g id="ytick_5">
     <g id="line2d_8">
      <g>
       <use xlink:href="#mc076ed9374" x="69.24" y="89.966897" style="stroke: #000000; stroke-width: 1.875"/>
      </g>
     </g>
     <g id="text_8">
      <text style="font: 16px 'DejaVu Sans', 'Bitstream Vera Sans', 'Computer Modern Sans Serif', 'Lucida Grande', 'Verdana', 'Geneva', 'Lucid', 'Arial', 'Helvetica', 'Avant Garde', sans-serif; text-anchor: end" x="56.74" y="96.045647" transform="rotate(-0 56.74 96.045647)">0.8</text>
     </g>
    </g>
    <g id="ytick_6">
     <g id="line2d_9">
      <g>
       <use xlink:href="#mc076ed9374" x="69.24" y="46.126541" style="stroke: #000000; stroke-width: 1.875"/>
      </g>
     </g>
     <g id="text_9">
      <text style="font: 16px 'DejaVu Sans', 'Bitstream Vera Sans', 'Computer Modern Sans Serif', 'Lucida Grande', 'Verdana', 'Geneva', 'Lucid', 'Arial', 'Helvetica', 'Avant Garde', sans-serif; text-anchor: end" x="56.74" y="52.205291" transform="rotate(-0 56.74 52.205291)">1.0</text>
     </g>
    </g>
    <g id="text_10">
     <text style="font: 16px 'DejaVu Sans', 'Bitstream Vera Sans', 'Computer Modern Sans Serif', 'Lucida Grande', 'Verdana', 'Geneva', 'Lucid', 'Arial', 'Helvetica', 'Avant Garde', sans-serif; text-anchor: middle" x="23.9675" y="158.27" transform="rotate(-90 23.9675 158.27)">Unadapted Global OSI</text>
    </g>
   </g>
   <g id="line2d_10">
    <path d="M 129.486949 262.786387 
L 129.486949 73.240027 
" clip-path="url(#pc68820e58c)" style="fill: none; stroke: #626262; stroke-width: 2.25; stroke-linecap: square"/>
   </g>
   <g id="line2d_11">
    <path d="M 129.486949 196.629889 
L 129.486949 127.98436 
" clip-path="url(#pc68820e58c)" style="fill: none; stroke: #626262; stroke-width: 6.75; stroke-linecap: square"/>
   </g>
   <g id="line2d_12">
    <path d="M 256.542282 262.057241 
L 256.542282 79.939779 
" clip-path="url(#pc68820e58c)" style="fill: none; stroke: #626262; stroke-width: 2.25; stroke-linecap: square"/>
   </g>
   <g id="line2d_13">
    <path d="M 256.542282 184.271175 
L 256.542282 125.835515 
" clip-path="url(#pc68820e58c)" style="fill: none; stroke: #626262; stroke-width: 6.75; stroke-linecap: square"/>
   </g>
   <g id="line2d_14">
    <path d="M 383.597616 262.991323 
L 383.597616 84.721881 
" clip-path="url(#pc68820e58c)" style="fill: none; stroke: #626262; stroke-width: 2.25; stroke-linecap: square"/>
   </g>
   <g id="line2d_15">
    <path d="M 383.597616 218.086768 
L 383.597616 154.848841 
" clip-path="url(#pc68820e58c)" style="fill: none; stroke: #626262; stroke-width: 6.75; stroke-linecap: square"/>
   </g>
   <g id="line2d_16">
    <path d="M 142.192482 46.126541 
L 243.836749 46.126541 
" clip-path="url(#pc68820e58c)" style="fill: none; stroke: #808080; stroke-width: 2.25; stroke-linecap: square"/>
   </g>
   <g id="line2d_17">
    <path d="M 269.247816 46.126541 
L 370.892082 46.126541 
" clip-path="url(#pc68820e58c)" style="fill: none; stroke: #808080; stroke-width: 2.25; stroke-linecap: square"/>
   </g>
   <g id="line2d_18">
    <path d="M 142.192482 24.206364 
L 370.892082 24.206364 
" clip-path="url(#pc68820e58c)" style="fill: none; stroke: #808080; stroke-width: 2.25; stroke-linecap: square"/>
   </g>
   <g id="patch_3">
    <path d="M 69.24 305.74 
L 69.24 10.8 
" style="fill: none; stroke: #000000; stroke-width: 1.875; stroke-linejoin: miter; stroke-linecap: square"/>
   </g>
   <g id="patch_4">
    <path d="M 69.24 305.74 
L 450 305.74 
" style="fill: none; stroke: #000000; stroke-width: 1.875; stroke-linejoin: miter; stroke-linecap: square"/>
   </g>
   <g id="PathCollection_1">
    <defs>
     <path id="mc9e2f29e8c" d="M 0 2.25 
C 0.596707 2.25 1.169055 2.012926 1.59099 1.59099 
C 2.012926 1.169055 2.25 0.596707 2.25 0 
C 2.25 -0.596707 2.012926 -1.169055 1.59099 -1.59099 
C 1.169055 -2.012926 0.596707 -2.25 0 -2.25 
C -0.596707 -2.25 -1.169055 -2.012926 -1.59099 -1.59099 
C -2.012926 -1.169055 -2.25 -0.596707 -2.25 0 
C -2.25 0.596707 -2.012926 1.169055 -1.59099 1.59099 
C -1.169055 2.012926 -0.596707 2.25 0 2.25 
z
" style="stroke: #626262; stroke-width: 1.5"/>
    </defs>
    <g clip-path="url(#pc68820e58c)">
     <use xlink:href="#mc9e2f29e8c" x="129.486949" y="158.065174" style="fill: #ffffff; stroke: #626262; stroke-width: 1.5"/>
    </g>
   </g>
   <g id="PathCollection_2">
    <g clip-path="url(#pc68820e58c)">
     <use xlink:href="#mc9e2f29e8c" x="256.542282" y="150.647445" style="fill: #ffffff; stroke: #626262; stroke-width: 1.5"/>
    </g>
   </g>
   <g id="PathCollection_3">
    <g clip-path="url(#pc68820e58c)">
     <use xlink:href="#mc9e2f29e8c" x="383.597616" y="194.058337" style="fill: #ffffff; stroke: #626262; stroke-width: 1.5"/>
    </g>
   </g>
   <g id="text_11">
    <text style="font: 14px 'DejaVu Sans', 'Bitstream Vera Sans', 'Computer Modern Sans Serif', 'Lucida Grande', 'Verdana', 'Geneva', 'Lucid', 'Arial', 'Helvetica', 'Avant Garde', sans-serif; text-anchor: start" x="275.600582" y="68.046719" transform="rotate(-0 275.600582 68.046719)">p=1.0e-15</text>
   </g>
   <g id="text_12">
    <text style="font: 14px 'DejaVu Sans', 'Bitstream Vera Sans', 'Computer Modern Sans Serif', 'Lucida Grande', 'Verdana', 'Geneva', 'Lucid', 'Arial', 'Helvetica', 'Avant Garde', sans-serif; text-anchor: start" x="193.014616" y="41.742506" transform="rotate(-0 193.014616 41.742506)">n.s.</text>
   </g>
   <g id="text_13">
    <text style="font: 14px 'DejaVu Sans', 'Bitstream Vera Sans', 'Computer Modern Sans Serif', 'Lucida Grande', 'Verdana', 'Geneva', 'Lucid', 'Arial', 'Helvetica', 'Avant Garde', sans-serif; text-anchor: start" x="307.364416" y="41.742506" transform="rotate(-0 307.364416 41.742506)">***</text>
   </g>
   <g id="text_14">
    <text style="font: 14px 'DejaVu Sans', 'Bitstream Vera Sans', 'Computer Modern Sans Serif', 'Lucida Grande', 'Verdana', 'Geneva', 'Lucid', 'Arial', 'Helvetica', 'Avant Garde', sans-serif; text-anchor: start" x="246.377856" y="24.206364" transform="rotate(-0 246.377856 24.206364)">***</text>
   </g>
  </g>
 </g>
 <defs>
  <clipPath id="pc68820e58c">
   <rect x="69.24" y="10.8" width="380.76" height="294.94"/>
  </clipPath>
 </defs>
</svg>
