<svg class="main-svg" xmlns="http://www.w3.org/2000/svg" xmlns:xlink="http://www.w3.org/1999/xlink" width="800" height="600" style="" viewBox="0 0 800 600"><rect x="0" y="0" width="800" height="600" style="fill: rgb(255, 255, 255); fill-opacity: 1;"/><defs id="defs-5dbfc1"><g class="clips"><clipPath id="clip5dbfc1xyplot" class="plotclip"><rect width="563" height="420"/></clipPath><clipPath class="axesclip" id="clip5dbfc1x"><rect x="80" y="0" width="563" height="600"/></clipPath><clipPath class="axesclip" id="clip5dbfc1y"><rect x="0" y="100" width="800" height="420"/></clipPath><clipPath class="axesclip" id="clip5dbfc1xy"><rect x="80" y="100" width="563" height="420"/></clipPath></g><g class="gradients"/><g class="patterns"/></defs><g class="bglayer"><rect class="bg" x="80" y="100" width="563" height="420" style="fill: rgb(229, 236, 246); fill-opacity: 1; stroke-width: 0;"/></g><g class="layer-below"><g class="imagelayer"/><g class="shapelayer"/></g><g class="cartesianlayer"><g class="subplot xy"><g class="layer-subplot"><g class="shapelayer"/><g class="imagelayer"/></g><g class="gridlayer"><g class="x"><path class="xgrid crisp" transform="translate(188.05,0)" d="M0,100v420" style="stroke: rgb(255, 255, 255); stroke-opacity: 1; stroke-width: 1px;"/><path class="xgrid crisp" transform="translate(301.78999999999996,0)" d="M0,100v420" style="stroke: rgb(255, 255, 255); stroke-opacity: 1; stroke-width: 1px;"/><path class="xgrid crisp" transform="translate(415.53,0)" d="M0,100v420" style="stroke: rgb(255, 255, 255); stroke-opacity: 1; stroke-width: 1px;"/><path class="xgrid crisp" transform="translate(529.26,0)" d="M0,100v420" style="stroke: rgb(255, 255, 255); stroke-opacity: 1; stroke-width: 1px;"/></g><g class="y"><path class="ygrid crisp" transform="translate(0,512.5)" d="M80,0h563" style="stroke: rgb(255, 255, 255); stroke-opacity: 1; stroke-width: 1px;"/><path class="ygrid crisp" transform="translate(0,452.73)" d="M80,0h563" style="stroke: rgb(255, 255, 255); stroke-opacity: 1; stroke-width: 1px;"/><path class="ygrid crisp" transform="translate(0,392.95)" d="M80,0h563" style="stroke: rgb(255, 255, 255); stroke-opacity: 1; stroke-width: 1px;"/><path class="ygrid crisp" transform="translate(0,333.18)" d="M80,0h563" style="stroke: rgb(255, 255, 255); stroke-opacity: 1; stroke-width: 1px;"/><path class="ygrid crisp" transform="translate(0,273.4)" d="M80,0h563" style="stroke: rgb(255, 255, 255); stroke-opacity: 1; stroke-width: 1px;"/><path class="ygrid crisp" transform="translate(0,153.86)" d="M80,0h563" style="stroke: rgb(255, 255, 255); stroke-opacity: 1; stroke-width: 1px;"/></g></g><g class="zerolinelayer"><path class="yzl zl crisp" transform="translate(0,213.63)" d="M80,0h563" style="stroke: rgb(255, 255, 255); stroke-opacity: 1; stroke-width: 2px;"/></g><path class="xlines-below"/><path class="ylines-below"/><g class="overlines-below"/><g class="xaxislayer-below"/><g class="yaxislayer-below"/><g class="overaxes-below"/><g class="plot" transform="translate(80,100)" clip-path="url(#clip5dbfc1xyplot)"><g class="scatterlayer mlayer"><g class="trace scatter trace7f95a8" style="stroke-miterlimit: 2; opacity: 1;"><g class="fills"/><g class="errorbars"/><g class="lines"><path class="js-line" d="M0,210L5.69,196.73L11.37,189.85L17.06,182.57L22.75,178.12L28.43,173.75L34.12,173.01L45.49,168.26L51.18,166.92L56.87,164.98L62.56,166.61L68.24,164.76L73.93,160.32L90.99,162.71L96.68,159.17L108.05,159.87L113.74,158.99L119.42,158.49L125.11,159.41L130.8,160.59L136.48,159.95L170.61,158.5L176.29,156.52L181.98,155.73L187.67,159.7L193.35,156.72L199.04,156.54L204.73,155.37L210.41,156.22L221.79,157.06L227.47,154.57L233.16,156.62L238.85,155.28L255.91,154.93L261.6,156.36L267.28,155.09L272.97,157.75L284.34,155.29L290.03,157.03L301.4,155.06L307.09,156.97L312.78,157.16L318.46,155.98L324.15,156.33L329.84,155.47L335.53,155.27L341.21,156.77L346.9,157.78L352.59,156.46L363.96,155.48L369.65,156.77L375.33,155.72L381.02,155.91L386.71,157.2L392.39,155.82L403.77,156.37L409.45,154.1L415.14,155.73L420.83,158.18L426.52,155.71L432.2,155L437.89,153.77L443.58,154.91L449.26,156.76L454.95,153.83L466.32,156.33L472.01,155.14L477.7,154.62L483.38,155.59L489.07,156.21L494.76,155.88L500.44,154.66L506.13,154.81L511.82,155.44L517.51,155.15L523.19,155.64L528.88,155.23L534.57,154.65L540.25,155.41L551.63,156.35L557.31,155.91L563,155.65" style="vector-effect: non-scaling-stroke; fill: none; stroke: rgb(31, 119, 180); stroke-opacity: 1; stroke-width: 2px; opacity: 1;"/></g><g class="points"/><g class="text"/></g><g class="trace scatter trace98d12e" style="stroke-miterlimit: 2;"><g class="fills"><g><path class="js-fill" d="M0,399L5.69,317.4L11.37,311.5L17.06,275.32L22.75,259.49L28.43,269.62L34.12,250.58L39.81,248.14L45.49,229.07L51.18,213.57L56.87,208.62L62.56,207.15L68.24,199.2L73.93,192.88L79.62,190.54L85.3,189.21L90.99,183.55L108.05,180.43L113.74,177.32L119.42,173.68L125.11,175.17L130.8,175.76L136.48,175.12L142.17,175.23L147.86,172.88L153.55,172.44L159.23,171.05L164.92,171.74L170.61,171.04L176.29,168.41L181.98,168.62L187.67,171.54L193.35,168.12L199.04,168.71L204.73,165.89L216.1,168.02L221.79,168.29L227.47,165L233.16,167.43L255.91,164.93L261.6,166.77L267.28,166.26L272.97,167.8L284.34,165.86L290.03,167.28L301.4,165.69L307.09,166.63L312.78,167.58L318.46,165.7L335.53,165.81L341.21,166.82L346.9,167.87L352.59,166.57L363.96,164.91L369.65,166.79L375.33,165.44L381.02,165.7L386.71,166.81L392.39,165.09L403.77,165.92L409.45,163.57L415.14,165.17L420.83,167.84L426.52,165.31L432.2,164.35L437.89,162.54L443.58,163.95L449.26,165.48L454.95,162.34L466.32,165.68L472.01,164.43L477.7,163.88L483.38,165.24L494.76,165.89L500.44,164.37L517.51,163.78L523.19,164.2L534.57,163.34L540.25,164.06L557.31,164.81L563,164.32L563,146.97L557.31,147.01L551.63,147.62L540.25,146.75L534.57,145.96L528.88,146.49L523.19,147.08L517.51,146.52L511.82,146.63L506.13,145.54L500.44,144.94L494.76,145.86L489.07,146.98L483.38,145.95L477.7,145.36L472.01,145.86L466.32,146.98L454.95,145.31L449.26,148.04L443.58,145.86L437.89,145L426.52,146.12L420.83,148.53L409.45,144.63L403.77,146.82L392.39,146.54L386.71,147.59L381.02,146.13L375.33,146L369.65,146.76L363.96,146.06L358.27,146.27L352.59,146.35L346.9,147.69L341.21,146.72L335.53,144.72L329.84,145.23L324.15,147.16L318.46,146.26L312.78,146.75L307.09,147.31L301.4,144.43L295.72,146.42L290.03,146.78L284.34,144.71L278.66,146.43L272.97,147.7L267.28,143.92L261.6,145.95L255.91,144.93L250.22,144.41L238.85,143.87L233.16,145.82L227.47,144.15L221.79,145.82L199.04,144.37L193.35,145.32L187.67,147.85L181.98,142.84L176.29,144.64L170.61,145.96L159.23,145.98L153.55,146.61L147.86,145.54L142.17,144.13L130.8,145.42L125.11,143.64L119.42,143.31L113.74,140.65L102.36,138.01L96.68,135.77L90.99,141.86L85.3,136L73.93,127.76L68.24,130.32L56.87,121.33L51.18,120.27L45.49,107.45L39.81,92.92L34.12,95.45L28.43,77.88L22.75,96.75L17.06,89.82L11.37,68.2L5.69,76.05L0,21Z" style="fill: rgb(0, 0, 250); fill-opacity: 0.3; stroke-width: 0;"/></g></g><g class="errorbars"/><g class="lines"><path class="js-line" d="M0,21L5.69,76.05L11.37,68.2L17.06,89.82L22.75,96.75L28.43,77.88L34.12,95.45L39.81,92.92L45.49,107.45L51.18,120.27L56.87,121.33L68.24,130.32L73.93,127.76L85.3,136L90.99,141.86L96.68,135.77L102.36,138.01L113.74,140.65L119.42,143.31L125.11,143.64L130.8,145.42L142.17,144.13L147.86,145.54L153.55,146.61L159.23,145.98L170.61,145.96L176.29,144.64L181.98,142.84L187.67,147.85L193.35,145.32L199.04,144.37L221.79,145.82L227.47,144.15L233.16,145.82L238.85,143.87L250.22,144.41L255.91,144.93L261.6,145.95L267.28,143.92L272.97,147.7L278.66,146.43L284.34,144.71L290.03,146.78L295.72,146.42L301.4,144.43L307.09,147.31L312.78,146.75L318.46,146.26L324.15,147.16L329.84,145.23L335.53,144.72L341.21,146.72L346.9,147.69L352.59,146.35L358.27,146.27L363.96,146.06L369.65,146.76L375.33,146L381.02,146.13L386.71,147.59L392.39,146.54L403.77,146.82L409.45,144.63L420.83,148.53L426.52,146.12L437.89,145L443.58,145.86L449.26,148.04L454.95,145.31L466.32,146.98L472.01,145.86L477.7,145.36L483.38,145.95L489.07,146.98L494.76,145.86L500.44,144.94L506.13,145.54L511.82,146.63L517.51,146.52L523.19,147.08L528.88,146.49L534.57,145.96L540.25,146.75L551.63,147.62L557.31,147.01L563,146.97" style="vector-effect: non-scaling-stroke; fill: none; stroke: rgb(68, 68, 68); stroke-opacity: 1; stroke-width: 0px; opacity: 1;"/></g><g class="points"/><g class="text"/></g><g class="trace scatter trace842573" style="stroke-miterlimit: 2;"><g class="fills"/><g class="errorbars"/><g class="lines"><path class="js-line" d="M0,399L5.69,317.4L11.37,311.5L17.06,275.32L22.75,259.49L28.43,269.62L34.12,250.58L39.81,248.14L45.49,229.07L51.18,213.57L56.87,208.62L62.56,207.15L68.24,199.2L73.93,192.88L79.62,190.54L85.3,189.21L90.99,183.55L108.05,180.43L113.74,177.32L119.42,173.68L125.11,175.17L130.8,175.76L136.48,175.12L142.17,175.23L147.86,172.88L153.55,172.44L159.23,171.05L164.92,171.74L170.61,171.04L176.29,168.41L181.98,168.62L187.67,171.54L193.35,168.12L199.04,168.71L204.73,165.89L216.1,168.02L221.79,168.29L227.47,165L233.16,167.43L255.91,164.93L261.6,166.77L267.28,166.26L272.97,167.8L284.34,165.86L290.03,167.28L301.4,165.69L307.09,166.63L312.78,167.58L318.46,165.7L335.53,165.81L341.21,166.82L346.9,167.87L352.59,166.57L363.96,164.91L369.65,166.79L375.33,165.44L381.02,165.7L386.71,166.81L392.39,165.09L403.77,165.92L409.45,163.57L415.14,165.17L420.83,167.84L426.52,165.31L432.2,164.35L437.89,162.54L443.58,163.95L449.26,165.48L454.95,162.34L466.32,165.68L472.01,164.43L477.7,163.88L483.38,165.24L494.76,165.89L500.44,164.37L517.51,163.78L523.19,164.2L534.57,163.34L540.25,164.06L557.31,164.81L563,164.32" style="vector-effect: non-scaling-stroke; fill: none; stroke: rgb(68, 68, 68); stroke-opacity: 1; stroke-width: 0px; opacity: 1;"/></g><g class="points"/><g class="text"/></g><g class="trace scatter trace1375be" style="stroke-miterlimit: 2; opacity: 1;"><g class="fills"/><g class="errorbars"/><g class="lines"><path class="js-line" d="M0,155.49L5.69,157.8L11.37,152.68L17.06,154.71L22.75,158.76L28.43,149.57L34.12,160.19L39.81,153.36L45.49,150.41L51.18,151.33L56.87,151.41L62.56,154.94L68.24,154.96L73.93,147.12L79.62,149.93L85.3,151.01L90.99,146.66L96.68,146.58L102.36,148.78L108.05,149.2L113.74,150.55L119.42,150.54L125.11,146.84L130.8,153.64L136.48,150.22L147.86,147.57L153.55,150L159.23,147.38L164.92,147.76L170.61,150.6L176.29,150.02L181.98,150.06L187.67,152.13L193.35,150.9L199.04,148.33L204.73,150.17L210.41,147.36L216.1,150.44L221.79,148.54L233.16,153.41L238.85,150.26L244.54,152.4L250.22,148.43L255.91,147.81L261.6,148.8L267.28,150.59L272.97,154.16L278.66,151.8L284.34,146.68L290.03,155.16L295.72,152.26L301.4,145.86L307.09,147.65L324.15,146.06L329.84,147.9L335.53,143.29L341.21,148.62L352.59,149.7L358.27,149.26L363.96,150.29L369.65,144.58L375.33,150.26L381.02,148.6L386.71,151.27L392.39,152.03L403.77,151.82L409.45,150.07L415.14,150.79L420.83,150.53L426.52,151.44L432.2,153.75L437.89,153.42L443.58,147.94L449.26,151.24L454.95,147.09L460.64,146.96L466.32,148.79L472.01,146.22L477.7,148.94L483.38,150.84L489.07,151.14L494.76,150.65L500.44,147.68L506.13,144.29L511.82,149.25L523.19,152.41L528.88,147L534.57,147.69L540.25,146.57L545.94,145.09L551.63,148.34L563,149.8" style="vector-effect: non-scaling-stroke; fill: none; stroke: rgb(180, 119, 30); stroke-opacity: 1; stroke-width: 2px; opacity: 1;"/></g><g class="points"/><g class="text"/></g><g class="trace scatter tracecdc91f" style="stroke-miterlimit: 2;"><g class="fills"><g><path class="js-fill" d="M0,191.07L5.69,182.06L11.37,164.91L17.06,160.93L22.75,164.71L28.43,154.81L34.12,164.35L39.81,156.79L45.49,153.58L56.87,154.71L62.56,157.79L68.24,157.76L73.93,149.53L79.62,152.43L85.3,153.18L90.99,149.32L96.68,148.89L102.36,151.11L108.05,151.28L113.74,152.64L119.42,152.93L125.11,148.94L130.8,155.73L136.48,152.35L142.17,150.68L147.86,149.6L153.55,151.81L159.23,149.42L164.92,149.62L170.61,152.52L176.29,151.84L181.98,152.11L187.67,153.89L193.35,152.92L199.04,150.2L204.73,152.13L210.41,149.22L216.1,152.25L221.79,150.1L227.47,153.18L233.16,154.9L238.85,152L244.54,154.06L250.22,150.05L255.91,149.46L267.28,152.21L272.97,155.75L278.66,153.25L284.34,148.1L290.03,156.99L295.72,153.79L301.4,147.41L307.09,149.17L324.15,147.76L329.84,149.57L335.53,144.55L341.21,150.08L352.59,151.17L358.27,150.49L363.96,151.65L369.65,146.19L375.33,151.78L381.02,149.82L386.71,152.6L392.39,153.2L403.77,153.2L409.45,151.38L426.52,152.71L432.2,154.86L437.89,154.82L443.58,149.26L449.26,152.25L454.95,148.16L460.64,148.06L466.32,149.92L472.01,147.47L477.7,150.35L483.38,152.26L489.07,152.62L494.76,152.07L500.44,149.12L506.13,145.48L511.82,150.31L523.19,153.54L528.88,147.75L534.57,148.34L540.25,147.19L545.94,145.84L551.63,149.18L557.31,150.39L563,150.76L563,148.85L551.63,147.49L545.94,144.34L534.57,147.04L528.88,146.25L523.19,151.28L517.51,149.29L511.82,148.19L506.13,143.09L500.44,146.24L494.76,149.23L489.07,149.67L483.38,149.42L477.7,147.53L472.01,144.96L466.32,147.66L460.64,145.86L454.95,146.03L449.26,150.23L443.58,146.63L437.89,152.02L432.2,152.65L426.52,150.16L420.83,149.15L415.14,149.64L409.45,148.75L403.77,150.44L392.39,150.86L386.71,149.95L381.02,147.38L375.33,148.73L369.65,142.96L363.96,148.93L358.27,148.03L352.59,148.24L346.9,147.62L341.21,147.16L335.53,142.02L329.84,146.22L324.15,144.35L318.46,145.68L307.09,146.13L301.4,144.3L295.72,150.72L290.03,153.34L284.34,145.26L278.66,150.36L272.97,152.56L267.28,148.97L261.6,146.98L255.91,146.16L250.22,146.81L244.54,150.74L238.85,148.52L233.16,151.92L221.79,146.98L216.1,148.63L210.41,145.49L204.73,148.2L199.04,146.47L193.35,148.89L187.67,150.37L181.98,148L176.29,148.21L170.61,148.68L164.92,145.91L159.23,145.34L153.55,148.19L147.86,145.53L142.17,146.69L136.48,148.08L130.8,151.55L125.11,144.74L119.42,148.14L113.74,148.46L102.36,146.44L96.68,144.27L90.99,144L85.3,148.84L79.62,147.42L73.93,144.71L68.24,152.16L62.56,152.09L56.87,148.12L51.18,148.15L45.49,147.24L39.81,149.94L34.12,156.02L28.43,144.33L22.75,152.82L17.06,148.5L11.37,140.46L5.69,133.53L0,119.9Z" style="fill: rgb(250, 0, 0); fill-opacity: 0.3; stroke-width: 0;"/></g></g><g class="errorbars"/><g class="lines"><path class="js-line" d="M0,119.9L5.69,133.53L11.37,140.46L17.06,148.5L22.75,152.82L28.43,144.33L34.12,156.02L39.81,149.94L45.49,147.24L51.18,148.15L56.87,148.12L62.56,152.09L68.24,152.16L73.93,144.71L79.62,147.42L85.3,148.84L90.99,144L96.68,144.27L102.36,146.44L113.74,148.46L119.42,148.14L125.11,144.74L130.8,151.55L136.48,148.08L142.17,146.69L147.86,145.53L153.55,148.19L159.23,145.34L164.92,145.91L170.61,148.68L176.29,148.21L181.98,148L187.67,150.37L193.35,148.89L199.04,146.47L204.73,148.2L210.41,145.49L216.1,148.63L221.79,146.98L233.16,151.92L238.85,148.52L244.54,150.74L250.22,146.81L255.91,146.16L261.6,146.98L267.28,148.97L272.97,152.56L278.66,150.36L284.34,145.26L290.03,153.34L295.72,150.72L301.4,144.3L307.09,146.13L318.46,145.68L324.15,144.35L329.84,146.22L335.53,142.02L341.21,147.16L346.9,147.62L352.59,148.24L358.27,148.03L363.96,148.93L369.65,142.96L375.33,148.73L381.02,147.38L386.71,149.95L392.39,150.86L403.77,150.44L409.45,148.75L415.14,149.64L420.83,149.15L426.52,150.16L432.2,152.65L437.89,152.02L443.58,146.63L449.26,150.23L454.95,146.03L460.64,145.86L466.32,147.66L472.01,144.96L477.7,147.53L483.38,149.42L489.07,149.67L494.76,149.23L500.44,146.24L506.13,143.09L511.82,148.19L517.51,149.29L523.19,151.28L528.88,146.25L534.57,147.04L545.94,144.34L551.63,147.49L563,148.85" style="vector-effect: non-scaling-stroke; fill: none; stroke: rgb(68, 68, 68); stroke-opacity: 1; stroke-width: 0px; opacity: 1;"/></g><g class="points"/><g class="text"/></g><g class="trace scatter tracef3a8b7" style="stroke-miterlimit: 2;"><g class="fills"/><g class="errorbars"/><g class="lines"><path class="js-line" d="M0,191.07L5.69,182.06L11.37,164.91L17.06,160.93L22.75,164.71L28.43,154.81L34.12,164.35L39.81,156.79L45.49,153.58L56.87,154.71L62.56,157.79L68.24,157.76L73.93,149.53L79.62,152.43L85.3,153.18L90.99,149.32L96.68,148.89L102.36,151.11L108.05,151.28L113.74,152.64L119.42,152.93L125.11,148.94L130.8,155.73L136.48,152.35L142.17,150.68L147.86,149.6L153.55,151.81L159.23,149.42L164.92,149.62L170.61,152.52L176.29,151.84L181.98,152.11L187.67,153.89L193.35,152.92L199.04,150.2L204.73,152.13L210.41,149.22L216.1,152.25L221.79,150.1L227.47,153.18L233.16,154.9L238.85,152L244.54,154.06L250.22,150.05L255.91,149.46L267.28,152.21L272.97,155.75L278.66,153.25L284.34,148.1L290.03,156.99L295.72,153.79L301.4,147.41L307.09,149.17L324.15,147.76L329.84,149.57L335.53,144.55L341.21,150.08L352.59,151.17L358.27,150.49L363.96,151.65L369.65,146.19L375.33,151.78L381.02,149.82L386.71,152.6L392.39,153.2L403.77,153.2L409.45,151.38L426.52,152.71L432.2,154.86L437.89,154.82L443.58,149.26L449.26,152.25L454.95,148.16L460.64,148.06L466.32,149.92L472.01,147.47L477.7,150.35L483.38,152.26L489.07,152.62L494.76,152.07L500.44,149.12L506.13,145.48L511.82,150.31L523.19,153.54L528.88,147.75L534.57,148.34L540.25,147.19L545.94,145.84L551.63,149.18L557.31,150.39L563,150.76" style="vector-effect: non-scaling-stroke; fill: none; stroke: rgb(68, 68, 68); stroke-opacity: 1; stroke-width: 0px; opacity: 1;"/></g><g class="points"/><g class="text"/></g></g></g><g class="overplot"/><path class="xlines-above crisp" d="M78,521H643" style="fill: none; stroke-width: 2px; stroke: rgb(0, 0, 0); stroke-opacity: 1;"/><path class="ylines-above crisp" d="M79,100V520" style="fill: none; stroke-width: 2px; stroke: rgb(0, 0, 0); stroke-opacity: 1;"/><g class="overlines-above"/><g class="xaxislayer-above"><path class="xtick ticks crisp" d="M0,522v10" transform="translate(188.05,0)" style="stroke: rgb(0, 0, 0); stroke-opacity: 1; stroke-width: 2px;"/><path class="xtick ticks crisp" d="M0,522v10" transform="translate(301.78999999999996,0)" style="stroke: rgb(0, 0, 0); stroke-opacity: 1; stroke-width: 2px;"/><path class="xtick ticks crisp" d="M0,522v10" transform="translate(415.53,0)" style="stroke: rgb(0, 0, 0); stroke-opacity: 1; stroke-width: 2px;"/><path class="xtick ticks crisp" d="M0,522v10" transform="translate(529.26,0)" style="stroke: rgb(0, 0, 0); stroke-opacity: 1; stroke-width: 2px;"/><path class="xtick ticks crisp" d="M0,522v10" transform="translate(643,0)" style="stroke: rgb(0, 0, 0); stroke-opacity: 1; stroke-width: 2px;"/><g class="xtick"><text text-anchor="middle" x="0" y="546.4" transform="translate(188.05,0)" style="font-family: 'Open Sans', verdana, arial, sans-serif; font-size: 12px; fill: rgb(42, 63, 95); fill-opacity: 1; white-space: pre; opacity: 1;">20</text></g><g class="xtick"><text text-anchor="middle" x="0" y="546.4" style="font-family: 'Open Sans', verdana, arial, sans-serif; font-size: 12px; fill: rgb(42, 63, 95); fill-opacity: 1; white-space: pre; opacity: 1;" transform="translate(301.78999999999996,0)">40</text></g><g class="xtick"><text text-anchor="middle" x="0" y="546.4" style="font-family: 'Open Sans', verdana, arial, sans-serif; font-size: 12px; fill: rgb(42, 63, 95); fill-opacity: 1; white-space: pre; opacity: 1;" transform="translate(415.53,0)">60</text></g><g class="xtick"><text text-anchor="middle" x="0" y="546.4" style="font-family: 'Open Sans', verdana, arial, sans-serif; font-size: 12px; fill: rgb(42, 63, 95); fill-opacity: 1; white-space: pre; opacity: 1;" transform="translate(529.26,0)">80</text></g><g class="xtick"><text text-anchor="middle" x="0" y="546.4" style="font-family: 'Open Sans', verdana, arial, sans-serif; font-size: 12px; fill: rgb(42, 63, 95); fill-opacity: 1; white-space: pre; opacity: 1;" transform="translate(643,0)">100</text></g></g><g class="yaxislayer-above"><path class="ytick ticks crisp" d="M78,0h-10" transform="translate(0,512.5)" style="stroke: rgb(0, 0, 0); stroke-opacity: 1; stroke-width: 2px;"/><path class="ytick ticks crisp" d="M78,0h-10" transform="translate(0,452.73)" style="stroke: rgb(0, 0, 0); stroke-opacity: 1; stroke-width: 2px;"/><path class="ytick ticks crisp" d="M78,0h-10" transform="translate(0,392.95)" style="stroke: rgb(0, 0, 0); stroke-opacity: 1; stroke-width: 2px;"/><path class="ytick ticks crisp" d="M78,0h-10" transform="translate(0,333.18)" style="stroke: rgb(0, 0, 0); stroke-opacity: 1; stroke-width: 2px;"/><path class="ytick ticks crisp" d="M78,0h-10" transform="translate(0,273.4)" style="stroke: rgb(0, 0, 0); stroke-opacity: 1; stroke-width: 2px;"/><path class="ytick ticks crisp" d="M78,0h-10" transform="translate(0,213.63)" style="stroke: rgb(0, 0, 0); stroke-opacity: 1; stroke-width: 2px;"/><path class="ytick ticks crisp" d="M78,0h-10" transform="translate(0,153.86)" style="stroke: rgb(0, 0, 0); stroke-opacity: 1; stroke-width: 2px;"/><g class="ytick"><text text-anchor="end" x="65.6" y="4.199999999999999" transform="translate(0,512.5)" style="font-family: 'Open Sans', verdana, arial, sans-serif; font-size: 12px; fill: rgb(42, 63, 95); fill-opacity: 1; white-space: pre; opacity: 1;">−2.5</text></g><g class="ytick"><text text-anchor="end" x="65.6" y="4.199999999999999" style="font-family: 'Open Sans', verdana, arial, sans-serif; font-size: 12px; fill: rgb(42, 63, 95); fill-opacity: 1; white-space: pre; opacity: 1;" transform="translate(0,452.73)">−2</text></g><g class="ytick"><text text-anchor="end" x="65.6" y="4.199999999999999" style="font-family: 'Open Sans', verdana, arial, sans-serif; font-size: 12px; fill: rgb(42, 63, 95); fill-opacity: 1; white-space: pre; opacity: 1;" transform="translate(0,392.95)">−1.5</text></g><g class="ytick"><text text-anchor="end" x="65.6" y="4.199999999999999" style="font-family: 'Open Sans', verdana, arial, sans-serif; font-size: 12px; fill: rgb(42, 63, 95); fill-opacity: 1; white-space: pre; opacity: 1;" transform="translate(0,333.18)">−1</text></g><g class="ytick"><text text-anchor="end" x="65.6" y="4.199999999999999" style="font-family: 'Open Sans', verdana, arial, sans-serif; font-size: 12px; fill: rgb(42, 63, 95); fill-opacity: 1; white-space: pre; opacity: 1;" transform="translate(0,273.4)">−0.5</text></g><g class="ytick"><text text-anchor="end" x="65.6" y="4.199999999999999" style="font-family: 'Open Sans', verdana, arial, sans-serif; font-size: 12px; fill: rgb(42, 63, 95); fill-opacity: 1; white-space: pre; opacity: 1;" transform="translate(0,213.63)">0</text></g><g class="ytick"><text text-anchor="end" x="65.6" y="4.199999999999999" style="font-family: 'Open Sans', verdana, arial, sans-serif; font-size: 12px; fill: rgb(42, 63, 95); fill-opacity: 1; white-space: pre; opacity: 1;" transform="translate(0,153.86)">0.5</text></g></g><g class="overaxes-above"/></g></g><g class="polarlayer"/><g class="smithlayer"/><g class="ternarylayer"/><g class="geolayer"/><g class="funnelarealayer"/><g class="pielayer"/><g class="iciclelayer"/><g class="treemaplayer"/><g class="sunburstlayer"/><g class="glimages"/><defs id="topdefs-5dbfc1"><g class="clips"/><clipPath id="legend5dbfc1"><rect width="134" height="48" x="0" y="0"/></clipPath></defs><g class="layer-above"><g class="imagelayer"/><g class="shapelayer"/></g><g class="infolayer"><g class="legend" pointer-events="all" transform="translate(654.26,100)"><rect class="bg" shape-rendering="crispEdges" style="stroke: rgb(68, 68, 68); stroke-opacity: 1; fill: rgb(255, 255, 255); fill-opacity: 1; stroke-width: 0px;" width="134" height="48" x="0" y="0"/><g class="scrollbox" transform="" clip-path="url(#legend5dbfc1)"><g class="groups"><g class="traces" transform="translate(0,14.5)" style="opacity: 1;"><text class="legendtext" text-anchor="start" x="40" y="4.680000000000001" style="font-family: 'Open Sans', verdana, arial, sans-serif; font-size: 12px; fill: rgb(42, 63, 95); fill-opacity: 1; white-space: pre;">population</text><g class="layers" style="opacity: 1;"><g class="legendfill"/><g class="legendlines"><path class="js-line" d="M5,0h30" style="fill: none; stroke: rgb(180, 119, 30); stroke-opacity: 1; stroke-width: 2px;"/></g><g class="legendsymbols"><g class="legendpoints"/></g></g><rect class="legendtoggle" x="0" y="-9.5" width="128.609375" height="19" style="fill: rgb(0, 0, 0); fill-opacity: 0;"/></g><g class="traces" transform="translate(0,33.5)" style="opacity: 1;"><text class="legendtext" text-anchor="start" x="40" y="4.680000000000001" style="font-family: 'Open Sans', verdana, arial, sans-serif; font-size: 12px; fill: rgb(42, 63, 95); fill-opacity: 1; white-space: pre;">single neurons</text><g class="layers" style="opacity: 1;"><g class="legendfill"/><g class="legendlines"><path class="js-line" d="M5,0h30" style="fill: none; stroke: rgb(31, 119, 180); stroke-opacity: 1; stroke-width: 2px;"/></g><g class="legendsymbols"><g class="legendpoints"/></g></g><rect class="legendtoggle" x="0" y="-9.5" width="128.609375" height="19" style="fill: rgb(0, 0, 0); fill-opacity: 0;"/></g></g></g><rect class="scrollbar" rx="20" ry="3" width="0" height="0" style="fill: rgb(128, 139, 164); fill-opacity: 1;" x="0" y="0"/></g><g class="g-gtitle"/><g class="g-xtitle"><text class="xtitle" x="361.5" y="574.20625" text-anchor="middle" style="font-family: 'Open Sans', verdana, arial, sans-serif; font-size: 14px; fill: rgb(42, 63, 95); opacity: 1; font-weight: normal; white-space: pre;">Number of trials grouped together</text></g><g class="g-ytitle" transform="translate(2.6435546875,0)"><text class="ytitle" transform="rotate(-90,11.356250000000003,310)" x="11.356250000000003" y="310" text-anchor="middle" style="font-family: 'Open Sans', verdana, arial, sans-serif; font-size: 14px; fill: rgb(42, 63, 95); opacity: 1; font-weight: normal; white-space: pre;">Adaptation index across groups</text></g></g></svg>