<?xml version="1.0" encoding="utf-8" standalone="no"?>
<!DOCTYPE svg PUBLIC "-//W3C//DTD SVG 1.1//EN"
  "http://www.w3.org/Graphics/SVG/1.1/DTD/svg11.dtd">
<svg xmlns:xlink="http://www.w3.org/1999/xlink" width="482.01075pt" height="461.6575pt" viewBox="0 0 482.01075 461.6575" xmlns="http://www.w3.org/2000/svg" version="1.1">
 <metadata>
  <rdf:RDF xmlns:dc="http://purl.org/dc/elements/1.1/" xmlns:cc="http://creativecommons.org/ns#" xmlns:rdf="http://www.w3.org/1999/02/22-rdf-syntax-ns#">
   <cc:Work>
    <dc:type rdf:resource="http://purl.org/dc/dcmitype/StillImage"/>
    <dc:date>2023-12-02T21:34:11.952058</dc:date>
    <dc:format>image/svg+xml</dc:format>
    <dc:creator>
     <cc:Agent>
      <dc:title>Matplotlib v3.7.2, https://matplotlib.org/</dc:title>
     </cc:Agent>
    </dc:creator>
   </cc:Work>
  </rdf:RDF>
 </metadata>
 <defs>
  <style type="text/css">*{stroke-linejoin: round; stroke-linecap: butt}</style>
 </defs>
 <g id="figure_1">
  <g id="patch_1">
   <path d="M 0 461.6575 
L 482.01075 461.6575 
L 482.01075 0 
L 0 0 
z
" style="fill: #ffffff"/>
  </g>
  <g id="axes_1">
   <g id="patch_2">
    <path d="M 383.01875 253.427187 
C 383.01875 231.586245 378.716561 209.957679 370.358394 189.779279 
C 362.000227 169.600879 349.748628 151.265066 334.30475 135.821188 
C 318.860871 120.377309 300.525058 108.12571 280.346658 99.767544 
C 260.168259 91.409377 238.539692 87.107187 216.69875 87.107187 
C 194.857808 87.107187 173.229241 91.409377 153.050842 99.767544 
C 132.872442 108.12571 114.536629 120.377309 99.09275 135.821188 
C 83.648872 151.265066 71.397273 169.600879 63.039106 189.779279 
C 54.680939 209.957679 50.37875 231.586245 50.37875 253.427187 
C 50.37875 275.26813 54.680939 296.896696 63.039106 317.075096 
C 71.397273 337.253496 83.648872 355.589309 99.09275 371.033187 
C 114.536629 386.477066 132.872442 398.728665 153.050842 407.086831 
C 173.229241 415.444998 194.857808 419.747187 216.69875 419.747187 
C 238.539692 419.747187 260.168259 415.444998 280.346658 407.086831 
C 300.525058 398.728665 318.860871 386.477066 334.30475 371.033187 
C 349.748628 355.589309 362.000227 337.253496 370.358394 317.075096 
C 378.716561 296.896696 383.01875 275.26813 383.01875 253.427188 
M 216.69875 253.427187 
C 216.69875 253.427187 216.69875 253.427187 216.69875 253.427187 
C 216.69875 253.427187 216.69875 253.427187 216.69875 253.427187 
C 216.69875 253.427187 216.69875 253.427187 216.69875 253.427187 
C 216.69875 253.427187 216.69875 253.427187 216.69875 253.427187 
C 216.69875 253.427187 216.69875 253.427187 216.69875 253.427187 
C 216.69875 253.427187 216.69875 253.427187 216.69875 253.427187 
C 216.69875 253.427187 216.69875 253.427187 216.69875 253.427187 
C 216.69875 253.427187 216.69875 253.427187 216.69875 253.427187 
C 216.69875 253.427187 216.69875 253.427187 216.69875 253.427187 
C 216.69875 253.427187 216.69875 253.427187 216.69875 253.427187 
C 216.69875 253.427187 216.69875 253.427187 216.69875 253.427187 
C 216.69875 253.427187 216.69875 253.427187 216.69875 253.427187 
C 216.69875 253.427187 216.69875 253.427187 216.69875 253.427187 
C 216.69875 253.427187 216.69875 253.427187 216.69875 253.427187 
C 216.69875 253.427187 216.69875 253.427187 216.69875 253.427187 
C 216.69875 253.427187 216.69875 253.427187 216.69875 253.427187 
z
" style="fill: #ffffff"/>
   </g>
   <g id="matplotlib.axis_1">
    <g id="xtick_1">
     <g id="line2d_1">
      <path d="M 216.69875 253.427187 
L 216.69875 87.107187 
" clip-path="url(#p0321cac98d)" style="fill: none; stroke: #b0b0b0; stroke-width: 1.5; stroke-linecap: square"/>
     </g>
     <g id="text_1">
      <text style="font: 18px 'DejaVu Sans', 'Bitstream Vera Sans', 'Computer Modern Sans Serif', 'Lucida Grande', 'Verdana', 'Geneva', 'Lucid', 'Arial', 'Helvetica', 'Avant Garde', sans-serif; text-anchor: middle" x="216.69875" y="66.074062" transform="rotate(-0 216.69875 66.074062)">0</text>
     </g>
    </g>
    <g id="xtick_2">
     <g id="line2d_2">
      <path d="M 216.69875 253.427187 
L 280.346658 99.767544 
" clip-path="url(#p0321cac98d)" style="fill: none; stroke: #b0b0b0; stroke-width: 1.5; stroke-linecap: square"/>
     </g>
    </g>
    <g id="xtick_3">
     <g id="line2d_3">
      <path d="M 216.69875 253.427187 
L 334.30475 135.821188 
" clip-path="url(#p0321cac98d)" style="fill: none; stroke: #b0b0b0; stroke-width: 1.5; stroke-linecap: square"/>
     </g>
    </g>
    <g id="xtick_4">
     <g id="line2d_4">
      <path d="M 216.69875 253.427187 
L 370.358394 189.779279 
" clip-path="url(#p0321cac98d)" style="fill: none; stroke: #b0b0b0; stroke-width: 1.5; stroke-linecap: square"/>
     </g>
    </g>
    <g id="xtick_5">
     <g id="line2d_5">
      <path d="M 216.69875 253.427187 
L 383.01875 253.427187 
" clip-path="url(#p0321cac98d)" style="fill: none; stroke: #b0b0b0; stroke-width: 1.5; stroke-linecap: square"/>
     </g>
     <g id="text_2">
      <text style="font: 18px 'DejaVu Sans', 'Bitstream Vera Sans', 'Computer Modern Sans Serif', 'Lucida Grande', 'Verdana', 'Geneva', 'Lucid', 'Arial', 'Helvetica', 'Avant Garde', sans-serif; text-anchor: middle" x="409.01875" y="258.394062" transform="rotate(-0 409.01875 258.394062)">90</text>
     </g>
    </g>
    <g id="xtick_6">
     <g id="line2d_6">
      <path d="M 216.69875 253.427187 
L 370.358394 317.075096 
" clip-path="url(#p0321cac98d)" style="fill: none; stroke: #b0b0b0; stroke-width: 1.5; stroke-linecap: square"/>
     </g>
    </g>
    <g id="xtick_7">
     <g id="line2d_7">
      <path d="M 216.69875 253.427187 
L 334.30475 371.033187 
" clip-path="url(#p0321cac98d)" style="fill: none; stroke: #b0b0b0; stroke-width: 1.5; stroke-linecap: square"/>
     </g>
    </g>
    <g id="xtick_8">
     <g id="line2d_8">
      <path d="M 216.69875 253.427187 
L 280.346658 407.086831 
" clip-path="url(#p0321cac98d)" style="fill: none; stroke: #b0b0b0; stroke-width: 1.5; stroke-linecap: square"/>
     </g>
    </g>
    <g id="xtick_9">
     <g id="line2d_9">
      <path d="M 216.69875 253.427187 
L 216.69875 419.747187 
" clip-path="url(#p0321cac98d)" style="fill: none; stroke: #b0b0b0; stroke-width: 1.5; stroke-linecap: square"/>
     </g>
     <g id="text_3">
      <text style="font: 18px 'DejaVu Sans', 'Bitstream Vera Sans', 'Computer Modern Sans Serif', 'Lucida Grande', 'Verdana', 'Geneva', 'Lucid', 'Arial', 'Helvetica', 'Avant Garde', sans-serif; text-anchor: middle" x="216.69875" y="450.714062" transform="rotate(-0 216.69875 450.714062)">180</text>
     </g>
    </g>
    <g id="xtick_10">
     <g id="line2d_10">
      <path d="M 216.69875 253.427187 
L 153.050842 407.086831 
" clip-path="url(#p0321cac98d)" style="fill: none; stroke: #b0b0b0; stroke-width: 1.5; stroke-linecap: square"/>
     </g>
    </g>
    <g id="xtick_11">
     <g id="line2d_11">
      <path d="M 216.69875 253.427187 
L 99.09275 371.033187 
" clip-path="url(#p0321cac98d)" style="fill: none; stroke: #b0b0b0; stroke-width: 1.5; stroke-linecap: square"/>
     </g>
    </g>
    <g id="xtick_12">
     <g id="line2d_12">
      <path d="M 216.69875 253.427187 
L 63.039106 317.075096 
" clip-path="url(#p0321cac98d)" style="fill: none; stroke: #b0b0b0; stroke-width: 1.5; stroke-linecap: square"/>
     </g>
    </g>
    <g id="xtick_13">
     <g id="line2d_13">
      <path d="M 216.69875 253.427187 
L 50.37875 253.427187 
" clip-path="url(#p0321cac98d)" style="fill: none; stroke: #b0b0b0; stroke-width: 1.5; stroke-linecap: square"/>
     </g>
     <g id="text_4">
      <text style="font: 18px 'DejaVu Sans', 'Bitstream Vera Sans', 'Computer Modern Sans Serif', 'Lucida Grande', 'Verdana', 'Geneva', 'Lucid', 'Arial', 'Helvetica', 'Avant Garde', sans-serif; text-anchor: middle" x="24.37875" y="258.394062" transform="rotate(-0 24.37875 258.394062)">270</text>
     </g>
    </g>
    <g id="xtick_14">
     <g id="line2d_14">
      <path d="M 216.69875 253.427187 
L 63.039106 189.779279 
" clip-path="url(#p0321cac98d)" style="fill: none; stroke: #b0b0b0; stroke-width: 1.5; stroke-linecap: square"/>
     </g>
    </g>
    <g id="xtick_15">
     <g id="line2d_15">
      <path d="M 216.69875 253.427187 
L 99.09275 135.821188 
" clip-path="url(#p0321cac98d)" style="fill: none; stroke: #b0b0b0; stroke-width: 1.5; stroke-linecap: square"/>
     </g>
    </g>
    <g id="xtick_16">
     <g id="line2d_16">
      <path d="M 216.69875 253.427187 
L 153.050842 99.767544 
" clip-path="url(#p0321cac98d)" style="fill: none; stroke: #b0b0b0; stroke-width: 1.5; stroke-linecap: square"/>
     </g>
    </g>
    <g id="xtick_17">
     <g id="line2d_17">
      <path d="M 216.69875 253.427187 
L 216.69875 87.107187 
" clip-path="url(#p0321cac98d)" style="fill: none; stroke: #b0b0b0; stroke-width: 1.5; stroke-linecap: square"/>
     </g>
    </g>
   </g>
   <g id="matplotlib.axis_2">
    <g id="ytick_1">
     <g id="line2d_18">
      <path d="M 216.69875 210.517925 
C 222.333543 210.517925 227.913544 211.627856 233.119414 213.784198 
C 238.325284 215.94054 243.05578 219.101357 247.040181 223.085757 
C 251.024581 227.070157 254.185398 231.800654 256.34174 237.006524 
C 258.498081 242.212393 259.608013 247.792395 259.608013 253.427187 
C 259.608013 259.06198 258.498081 264.641982 256.34174 269.847851 
C 254.185398 275.053721 251.024581 279.784218 247.040181 283.768618 
C 243.05578 287.753018 238.325284 290.913835 233.119414 293.070177 
C 227.913544 295.226519 222.333543 296.33645 216.69875 296.33645 
C 211.063957 296.33645 205.483956 295.226519 200.278086 293.070177 
C 195.072216 290.913835 190.34172 287.753018 186.357319 283.768618 
C 182.372919 279.784218 179.212102 275.053721 177.05576 269.847851 
C 174.899419 264.641982 173.789487 259.06198 173.789487 253.427187 
C 173.789487 247.792395 174.899419 242.212393 177.05576 237.006524 
C 179.212102 231.800654 182.372919 227.070157 186.357319 223.085757 
C 190.34172 219.101357 195.072216 215.94054 200.278086 213.784198 
C 205.483956 211.627856 211.063957 210.517925 216.69875 210.517925 
" clip-path="url(#p0321cac98d)" style="fill: none; stroke: #b0b0b0; stroke-width: 1.5; stroke-linecap: square"/>
     </g>
     <g id="text_5">
      <text style="font: 16px 'DejaVu Sans', 'Bitstream Vera Sans', 'Computer Modern Sans Serif', 'Lucida Grande', 'Verdana', 'Geneva', 'Lucid', 'Arial', 'Helvetica', 'Avant Garde', sans-serif; text-anchor: start" x="259.608013" y="250.099687" transform="rotate(-0 259.608013 250.099687)">0.09</text>
     </g>
    </g>
    <g id="ytick_2">
     <g id="line2d_19">
      <path d="M 216.69875 167.105038 
C 228.034471 167.105038 239.259966 169.337928 249.732806 173.67592 
C 260.205647 178.013913 269.722162 184.372645 277.737727 192.38821 
C 285.753292 200.403775 292.112025 209.920291 296.450017 220.393131 
C 300.78801 230.865971 303.0209 242.091467 303.0209 253.427187 
C 303.0209 264.762908 300.78801 275.988404 296.450017 286.461244 
C 292.112025 296.934084 285.753292 306.4506 277.737727 314.466165 
C 269.722162 322.48173 260.205647 328.840462 249.732806 333.178455 
C 239.259966 337.516447 228.034471 339.749337 216.69875 339.749337 
C 205.363029 339.749337 194.137534 337.516447 183.664694 333.178455 
C 173.191853 328.840462 163.675338 322.48173 155.659773 314.466165 
C 147.644208 306.4506 141.285475 296.934084 136.947483 286.461244 
C 132.60949 275.988404 130.3766 264.762908 130.3766 253.427187 
C 130.3766 242.091467 132.60949 230.865971 136.947483 220.393131 
C 141.285475 209.920291 147.644208 200.403775 155.659773 192.38821 
C 163.675338 184.372645 173.191853 178.013913 183.664694 173.67592 
C 194.137534 169.337928 205.363029 167.105038 216.69875 167.105038 
" clip-path="url(#p0321cac98d)" style="fill: none; stroke: #b0b0b0; stroke-width: 1.5; stroke-linecap: square"/>
     </g>
     <g id="text_6">
      <text style="font: 16px 'DejaVu Sans', 'Bitstream Vera Sans', 'Computer Modern Sans Serif', 'Lucida Grande', 'Verdana', 'Geneva', 'Lucid', 'Arial', 'Helvetica', 'Avant Garde', sans-serif; text-anchor: start" x="303.0209" y="250.099687" transform="rotate(-0 303.0209 250.099687)">0.16</text>
     </g>
    </g>
    <g id="ytick_3">
     <g id="line2d_20">
      <path d="M 216.69875 123.692151 
C 233.735399 123.692151 250.606388 127.047999 266.346199 133.567643 
C 282.08601 140.087286 296.388544 149.643934 308.435274 161.690664 
C 320.482004 173.737393 330.038652 188.039927 336.558295 203.779738 
C 343.077938 219.51955 346.433786 236.390539 346.433786 253.427187 
C 346.433786 270.463836 343.077938 287.334825 336.558295 303.074637 
C 330.038652 318.814448 320.482004 333.116982 308.435274 345.163711 
C 296.388544 357.210441 282.08601 366.767089 266.346199 373.286732 
C 250.606388 379.806376 233.735399 383.162224 216.69875 383.162224 
C 199.662101 383.162224 182.791112 379.806376 167.051301 373.286732 
C 151.31149 366.767089 137.008956 357.210441 124.962226 345.163711 
C 112.915496 333.116982 103.358848 318.814448 96.839205 303.074637 
C 90.319562 287.334825 86.963714 270.463836 86.963714 253.427187 
C 86.963714 236.390539 90.319562 219.51955 96.839205 203.779738 
C 103.358848 188.039927 112.915496 173.737393 124.962226 161.690664 
C 137.008956 149.643934 151.31149 140.087286 167.051301 133.567643 
C 182.791112 127.047999 199.662101 123.692151 216.69875 123.692151 
" clip-path="url(#p0321cac98d)" style="fill: none; stroke: #b0b0b0; stroke-width: 1.5; stroke-linecap: square"/>
     </g>
     <g id="text_7">
      <text style="font: 16px 'DejaVu Sans', 'Bitstream Vera Sans', 'Computer Modern Sans Serif', 'Lucida Grande', 'Verdana', 'Geneva', 'Lucid', 'Arial', 'Helvetica', 'Avant Garde', sans-serif; text-anchor: start" x="346.433786" y="250.099687" transform="rotate(-0 346.433786 250.099687)">0.22</text>
     </g>
    </g>
   </g>
   <g id="line2d_21">
    <path d="M 216.69875 87.107187 
L 241.908534 192.565385 
L 254.802529 215.323408 
L 216.69875 253.427187 
L 241.387367 253.427187 
L 265.782952 273.75853 
L 293.235391 329.963829 
L 262.236942 363.366107 
L 216.69875 419.747187 
L 191.488966 314.28899 
L 178.594971 291.530967 
L 216.69875 253.427187 
L 192.010133 253.427187 
L 167.614548 233.095845 
L 140.162109 176.890546 
L 171.160558 143.488268 
L 216.69875 87.107187 
" clip-path="url(#p0321cac98d)" style="fill: none; stroke: #f6cd51; stroke-opacity: 0.7; stroke-width: 10; stroke-linecap: square"/>
   </g>
   <g id="line2d_22">
    <path d="M 216.69875 221.599179 
L 234.179869 211.224032 
L 250.755522 219.370416 
L 230.757824 247.603728 
L 230.06405 253.427187 
L 276.649536 278.259616 
L 291.048793 327.77723 
L 258.646048 354.696924 
L 216.69875 285.255196 
L 199.217631 295.630343 
L 182.641978 287.483959 
L 202.639676 259.250647 
L 203.33345 253.427187 
L 156.747964 228.594759 
L 142.348707 179.077145 
L 174.751452 152.157451 
L 216.69875 221.599179 
" clip-path="url(#p0321cac98d)" style="fill: none; stroke: #c48a5a; stroke-opacity: 0.7; stroke-width: 10; stroke-linecap: square"/>
   </g>
   <g id="patch_3">
    <path d="M 216.69875 87.107187 
C 194.857808 87.107187 173.229241 91.409377 153.050842 99.767544 
C 132.872442 108.12571 114.536629 120.377309 99.09275 135.821188 
C 83.648872 151.265066 71.397273 169.600879 63.039106 189.779279 
C 54.680939 209.957679 50.37875 231.586245 50.37875 253.427187 
C 50.37875 275.26813 54.680939 296.896696 63.039106 317.075096 
C 71.397273 337.253496 83.648872 355.589309 99.09275 371.033187 
C 114.536629 386.477066 132.872442 398.728665 153.050842 407.086831 
C 173.229241 415.444998 194.857808 419.747187 216.69875 419.747187 
C 238.539692 419.747187 260.168259 415.444998 280.346658 407.086831 
C 300.525058 398.728665 318.860871 386.477066 334.30475 371.033187 
C 349.748628 355.589309 362.000227 337.253496 370.358394 317.075096 
C 378.716561 296.896696 383.01875 275.26813 383.01875 253.427187 
C 383.01875 231.586245 378.716561 209.957679 370.358394 189.779279 
C 362.000227 169.600879 349.748628 151.265066 334.30475 135.821188 
C 318.860871 120.377309 300.525058 108.12571 280.346658 99.767544 
C 260.168259 91.409377 238.539692 87.107187 216.69875 87.107187 
" style="fill: none; stroke: #000000; stroke-width: 1.875; stroke-linejoin: miter; stroke-linecap: square"/>
   </g>
   <g id="text_8">
    <text style="font: 20px 'DejaVu Sans', 'Bitstream Vera Sans', 'Computer Modern Sans Serif', 'Lucida Grande', 'Verdana', 'Geneva', 'Lucid', 'Arial', 'Helvetica', 'Avant Garde', sans-serif; text-anchor: middle" x="216.69875" y="22.396875" transform="rotate(-0 216.69875 22.396875)">cell 220228_003_29 in LM</text>
   </g>
   <g id="legend_1">
    <g id="line2d_23">
     <path d="M 337.13075 74.800687 
L 353.13075 74.800687 
L 369.13075 74.800687 
" style="fill: none; stroke: #f6cd51; stroke-opacity: 0.7; stroke-width: 10; stroke-linecap: square"/>
    </g>
    <g id="text_9">
     <text style="font: 16px 'DejaVu Sans', 'Bitstream Vera Sans', 'Computer Modern Sans Serif', 'Lucida Grande', 'Verdana', 'Geneva', 'Lucid', 'Arial', 'Helvetica', 'Avant Garde', sans-serif; text-anchor: start" x="381.93075" y="80.400687" transform="rotate(-0 381.93075 80.400687)">unadapted</text>
    </g>
    <g id="line2d_24">
     <path d="M 337.13075 98.285687 
L 353.13075 98.285687 
L 369.13075 98.285687 
" style="fill: none; stroke: #c48a5a; stroke-opacity: 0.7; stroke-width: 10; stroke-linecap: square"/>
    </g>
    <g id="text_10">
     <text style="font: 16px 'DejaVu Sans', 'Bitstream Vera Sans', 'Computer Modern Sans Serif', 'Lucida Grande', 'Verdana', 'Geneva', 'Lucid', 'Arial', 'Helvetica', 'Avant Garde', sans-serif; text-anchor: start" x="381.93075" y="103.885687" transform="rotate(-0 381.93075 103.885687)">adapted</text>
    </g>
   </g>
  </g>
 </g>
 <defs>
  <clipPath id="p0321cac98d">
   <path d="M 383.01875 253.427187 
C 383.01875 231.586245 378.716561 209.957679 370.358394 189.779279 
C 362.000227 169.600879 349.748628 151.265066 334.30475 135.821188 
C 318.860871 120.377309 300.525058 108.12571 280.346658 99.767544 
C 260.168259 91.409377 238.539692 87.107187 216.69875 87.107187 
C 194.857808 87.107187 173.229241 91.409377 153.050842 99.767544 
C 132.872442 108.12571 114.536629 120.377309 99.09275 135.821188 
C 83.648872 151.265066 71.397273 169.600879 63.039106 189.779279 
C 54.680939 209.957679 50.37875 231.586245 50.37875 253.427187 
C 50.37875 275.26813 54.680939 296.896696 63.039106 317.075096 
C 71.397273 337.253496 83.648872 355.589309 99.09275 371.033187 
C 114.536629 386.477066 132.872442 398.728665 153.050842 407.086831 
C 173.229241 415.444998 194.857808 419.747187 216.69875 419.747187 
C 238.539692 419.747187 260.168259 415.444998 280.346658 407.086831 
C 300.525058 398.728665 318.860871 386.477066 334.30475 371.033187 
C 349.748628 355.589309 362.000227 337.253496 370.358394 317.075096 
C 378.716561 296.896696 383.01875 275.26813 383.01875 253.427188 
M 216.69875 253.427187 
C 216.69875 253.427187 216.69875 253.427187 216.69875 253.427187 
C 216.69875 253.427187 216.69875 253.427187 216.69875 253.427187 
C 216.69875 253.427187 216.69875 253.427187 216.69875 253.427187 
C 216.69875 253.427187 216.69875 253.427187 216.69875 253.427187 
C 216.69875 253.427187 216.69875 253.427187 216.69875 253.427187 
C 216.69875 253.427187 216.69875 253.427187 216.69875 253.427187 
C 216.69875 253.427187 216.69875 253.427187 216.69875 253.427187 
C 216.69875 253.427187 216.69875 253.427187 216.69875 253.427187 
C 216.69875 253.427187 216.69875 253.427187 216.69875 253.427187 
C 216.69875 253.427187 216.69875 253.427187 216.69875 253.427187 
C 216.69875 253.427187 216.69875 253.427187 216.69875 253.427187 
C 216.69875 253.427187 216.69875 253.427187 216.69875 253.427187 
C 216.69875 253.427187 216.69875 253.427187 216.69875 253.427187 
C 216.69875 253.427187 216.69875 253.427187 216.69875 253.427187 
C 216.69875 253.427187 216.69875 253.427187 216.69875 253.427187 
C 216.69875 253.427187 216.69875 253.427187 216.69875 253.427187 
z
"/>
  </clipPath>
 </defs>
</svg>
