<?xml version="1.0" encoding="utf-8" standalone="no"?>
<!DOCTYPE svg PUBLIC "-//W3C//DTD SVG 1.1//EN"
  "http://www.w3.org/Graphics/SVG/1.1/DTD/svg11.dtd">
<svg xmlns:xlink="http://www.w3.org/1999/xlink" width="482.01075pt" height="461.6575pt" viewBox="0 0 482.01075 461.6575" xmlns="http://www.w3.org/2000/svg" version="1.1">
 <metadata>
  <rdf:RDF xmlns:dc="http://purl.org/dc/elements/1.1/" xmlns:cc="http://creativecommons.org/ns#" xmlns:rdf="http://www.w3.org/1999/02/22-rdf-syntax-ns#">
   <cc:Work>
    <dc:type rdf:resource="http://purl.org/dc/dcmitype/StillImage"/>
    <dc:date>2023-12-02T21:34:11.558963</dc:date>
    <dc:format>image/svg+xml</dc:format>
    <dc:creator>
     <cc:Agent>
      <dc:title>Matplotlib v3.7.2, https://matplotlib.org/</dc:title>
     </cc:Agent>
    </dc:creator>
   </cc:Work>
  </rdf:RDF>
 </metadata>
 <defs>
  <style type="text/css">*{stroke-linejoin: round; stroke-linecap: butt}</style>
 </defs>
 <g id="figure_1">
  <g id="patch_1">
   <path d="M 0 461.6575 
L 482.01075 461.6575 
L 482.01075 0 
L 0 0 
z
" style="fill: #ffffff"/>
  </g>
  <g id="axes_1">
   <g id="patch_2">
    <path d="M 383.01875 253.427187 
C 383.01875 231.586245 378.716561 209.957679 370.358394 189.779279 
C 362.000227 169.600879 349.748628 151.265066 334.30475 135.821188 
C 318.860871 120.377309 300.525058 108.12571 280.346658 99.767544 
C 260.168259 91.409377 238.539692 87.107187 216.69875 87.107187 
C 194.857808 87.107187 173.229241 91.409377 153.050842 99.767544 
C 132.872442 108.12571 114.536629 120.377309 99.09275 135.821188 
C 83.648872 151.265066 71.397273 169.600879 63.039106 189.779279 
C 54.680939 209.957679 50.37875 231.586245 50.37875 253.427187 
C 50.37875 275.26813 54.680939 296.896696 63.039106 317.075096 
C 71.397273 337.253496 83.648872 355.589309 99.09275 371.033187 
C 114.536629 386.477066 132.872442 398.728665 153.050842 407.086831 
C 173.229241 415.444998 194.857808 419.747187 216.69875 419.747187 
C 238.539692 419.747187 260.168259 415.444998 280.346658 407.086831 
C 300.525058 398.728665 318.860871 386.477066 334.30475 371.033187 
C 349.748628 355.589309 362.000227 337.253496 370.358394 317.075096 
C 378.716561 296.896696 383.01875 275.26813 383.01875 253.427188 
M 216.69875 253.427187 
C 216.69875 253.427187 216.69875 253.427187 216.69875 253.427187 
C 216.69875 253.427187 216.69875 253.427187 216.69875 253.427187 
C 216.69875 253.427187 216.69875 253.427187 216.69875 253.427187 
C 216.69875 253.427187 216.69875 253.427187 216.69875 253.427187 
C 216.69875 253.427187 216.69875 253.427187 216.69875 253.427187 
C 216.69875 253.427187 216.69875 253.427187 216.69875 253.427187 
C 216.69875 253.427187 216.69875 253.427187 216.69875 253.427187 
C 216.69875 253.427187 216.69875 253.427187 216.69875 253.427187 
C 216.69875 253.427187 216.69875 253.427187 216.69875 253.427187 
C 216.69875 253.427187 216.69875 253.427187 216.69875 253.427187 
C 216.69875 253.427187 216.69875 253.427187 216.69875 253.427187 
C 216.69875 253.427187 216.69875 253.427187 216.69875 253.427187 
C 216.69875 253.427187 216.69875 253.427187 216.69875 253.427187 
C 216.69875 253.427187 216.69875 253.427187 216.69875 253.427187 
C 216.69875 253.427187 216.69875 253.427187 216.69875 253.427187 
C 216.69875 253.427187 216.69875 253.427187 216.69875 253.427187 
z
" style="fill: #ffffff"/>
   </g>
   <g id="matplotlib.axis_1">
    <g id="xtick_1">
     <g id="line2d_1">
      <path d="M 216.69875 253.427187 
L 216.69875 87.107187 
" clip-path="url(#pc0d6c17f4e)" style="fill: none; stroke: #b0b0b0; stroke-width: 1.5; stroke-linecap: square"/>
     </g>
     <g id="text_1">
      <text style="font: 18px 'DejaVu Sans', 'Bitstream Vera Sans', 'Computer Modern Sans Serif', 'Lucida Grande', 'Verdana', 'Geneva', 'Lucid', 'Arial', 'Helvetica', 'Avant Garde', sans-serif; text-anchor: middle" x="216.69875" y="66.074062" transform="rotate(-0 216.69875 66.074062)">0</text>
     </g>
    </g>
    <g id="xtick_2">
     <g id="line2d_2">
      <path d="M 216.69875 253.427187 
L 280.346658 99.767544 
" clip-path="url(#pc0d6c17f4e)" style="fill: none; stroke: #b0b0b0; stroke-width: 1.5; stroke-linecap: square"/>
     </g>
    </g>
    <g id="xtick_3">
     <g id="line2d_3">
      <path d="M 216.69875 253.427187 
L 334.30475 135.821188 
" clip-path="url(#pc0d6c17f4e)" style="fill: none; stroke: #b0b0b0; stroke-width: 1.5; stroke-linecap: square"/>
     </g>
    </g>
    <g id="xtick_4">
     <g id="line2d_4">
      <path d="M 216.69875 253.427187 
L 370.358394 189.779279 
" clip-path="url(#pc0d6c17f4e)" style="fill: none; stroke: #b0b0b0; stroke-width: 1.5; stroke-linecap: square"/>
     </g>
    </g>
    <g id="xtick_5">
     <g id="line2d_5">
      <path d="M 216.69875 253.427187 
L 383.01875 253.427187 
" clip-path="url(#pc0d6c17f4e)" style="fill: none; stroke: #b0b0b0; stroke-width: 1.5; stroke-linecap: square"/>
     </g>
     <g id="text_2">
      <text style="font: 18px 'DejaVu Sans', 'Bitstream Vera Sans', 'Computer Modern Sans Serif', 'Lucida Grande', 'Verdana', 'Geneva', 'Lucid', 'Arial', 'Helvetica', 'Avant Garde', sans-serif; text-anchor: middle" x="409.01875" y="258.394062" transform="rotate(-0 409.01875 258.394062)">90</text>
     </g>
    </g>
    <g id="xtick_6">
     <g id="line2d_6">
      <path d="M 216.69875 253.427187 
L 370.358394 317.075096 
" clip-path="url(#pc0d6c17f4e)" style="fill: none; stroke: #b0b0b0; stroke-width: 1.5; stroke-linecap: square"/>
     </g>
    </g>
    <g id="xtick_7">
     <g id="line2d_7">
      <path d="M 216.69875 253.427187 
L 334.30475 371.033187 
" clip-path="url(#pc0d6c17f4e)" style="fill: none; stroke: #b0b0b0; stroke-width: 1.5; stroke-linecap: square"/>
     </g>
    </g>
    <g id="xtick_8">
     <g id="line2d_8">
      <path d="M 216.69875 253.427187 
L 280.346658 407.086831 
" clip-path="url(#pc0d6c17f4e)" style="fill: none; stroke: #b0b0b0; stroke-width: 1.5; stroke-linecap: square"/>
     </g>
    </g>
    <g id="xtick_9">
     <g id="line2d_9">
      <path d="M 216.69875 253.427187 
L 216.69875 419.747187 
" clip-path="url(#pc0d6c17f4e)" style="fill: none; stroke: #b0b0b0; stroke-width: 1.5; stroke-linecap: square"/>
     </g>
     <g id="text_3">
      <text style="font: 18px 'DejaVu Sans', 'Bitstream Vera Sans', 'Computer Modern Sans Serif', 'Lucida Grande', 'Verdana', 'Geneva', 'Lucid', 'Arial', 'Helvetica', 'Avant Garde', sans-serif; text-anchor: middle" x="216.69875" y="450.714062" transform="rotate(-0 216.69875 450.714062)">180</text>
     </g>
    </g>
    <g id="xtick_10">
     <g id="line2d_10">
      <path d="M 216.69875 253.427187 
L 153.050842 407.086831 
" clip-path="url(#pc0d6c17f4e)" style="fill: none; stroke: #b0b0b0; stroke-width: 1.5; stroke-linecap: square"/>
     </g>
    </g>
    <g id="xtick_11">
     <g id="line2d_11">
      <path d="M 216.69875 253.427187 
L 99.09275 371.033187 
" clip-path="url(#pc0d6c17f4e)" style="fill: none; stroke: #b0b0b0; stroke-width: 1.5; stroke-linecap: square"/>
     </g>
    </g>
    <g id="xtick_12">
     <g id="line2d_12">
      <path d="M 216.69875 253.427187 
L 63.039106 317.075096 
" clip-path="url(#pc0d6c17f4e)" style="fill: none; stroke: #b0b0b0; stroke-width: 1.5; stroke-linecap: square"/>
     </g>
    </g>
    <g id="xtick_13">
     <g id="line2d_13">
      <path d="M 216.69875 253.427187 
L 50.37875 253.427187 
" clip-path="url(#pc0d6c17f4e)" style="fill: none; stroke: #b0b0b0; stroke-width: 1.5; stroke-linecap: square"/>
     </g>
     <g id="text_4">
      <text style="font: 18px 'DejaVu Sans', 'Bitstream Vera Sans', 'Computer Modern Sans Serif', 'Lucida Grande', 'Verdana', 'Geneva', 'Lucid', 'Arial', 'Helvetica', 'Avant Garde', sans-serif; text-anchor: middle" x="24.37875" y="258.394062" transform="rotate(-0 24.37875 258.394062)">270</text>
     </g>
    </g>
    <g id="xtick_14">
     <g id="line2d_14">
      <path d="M 216.69875 253.427187 
L 63.039106 189.779279 
" clip-path="url(#pc0d6c17f4e)" style="fill: none; stroke: #b0b0b0; stroke-width: 1.5; stroke-linecap: square"/>
     </g>
    </g>
    <g id="xtick_15">
     <g id="line2d_15">
      <path d="M 216.69875 253.427187 
L 99.09275 135.821188 
" clip-path="url(#pc0d6c17f4e)" style="fill: none; stroke: #b0b0b0; stroke-width: 1.5; stroke-linecap: square"/>
     </g>
    </g>
    <g id="xtick_16">
     <g id="line2d_16">
      <path d="M 216.69875 253.427187 
L 153.050842 99.767544 
" clip-path="url(#pc0d6c17f4e)" style="fill: none; stroke: #b0b0b0; stroke-width: 1.5; stroke-linecap: square"/>
     </g>
    </g>
    <g id="xtick_17">
     <g id="line2d_17">
      <path d="M 216.69875 253.427187 
L 216.69875 87.107187 
" clip-path="url(#pc0d6c17f4e)" style="fill: none; stroke: #b0b0b0; stroke-width: 1.5; stroke-linecap: square"/>
     </g>
    </g>
   </g>
   <g id="matplotlib.axis_2">
    <g id="ytick_1">
     <g id="line2d_18">
      <path d="M 216.69875 211.111748 
C 222.255563 211.111748 227.758342 212.206318 232.892168 214.332819 
C 238.025993 216.459319 242.691025 219.576393 246.620285 223.505653 
C 250.549544 227.434913 253.666619 232.099944 255.793119 237.23377 
C 257.919619 242.367595 259.01419 247.870375 259.01419 253.427187 
C 259.01419 258.984 257.919619 264.48678 255.793119 269.620605 
C 253.666619 274.754431 250.549544 279.419462 246.620285 283.348722 
C 242.691025 287.277982 238.025993 290.395056 232.892168 292.521556 
C 227.758342 294.648057 222.255563 295.742627 216.69875 295.742627 
C 211.141937 295.742627 205.639158 294.648057 200.505332 292.521556 
C 195.371507 290.395056 190.706475 287.277982 186.777215 283.348722 
C 182.847956 279.419462 179.730881 274.754431 177.604381 269.620605 
C 175.477881 264.48678 174.38331 258.984 174.38331 253.427187 
C 174.38331 247.870375 175.477881 242.367595 177.604381 237.23377 
C 179.730881 232.099944 182.847956 227.434913 186.777215 223.505653 
C 190.706475 219.576393 195.371507 216.459319 200.505332 214.332819 
C 205.639158 212.206318 211.141937 211.111748 216.69875 211.111748 
" clip-path="url(#pc0d6c17f4e)" style="fill: none; stroke: #b0b0b0; stroke-width: 1.5; stroke-linecap: square"/>
     </g>
     <g id="text_5">
      <text style="font: 16px 'DejaVu Sans', 'Bitstream Vera Sans', 'Computer Modern Sans Serif', 'Lucida Grande', 'Verdana', 'Geneva', 'Lucid', 'Arial', 'Helvetica', 'Avant Garde', sans-serif; text-anchor: start" x="259.01419" y="250.099687" transform="rotate(-0 259.01419 250.099687)">0.04</text>
     </g>
    </g>
    <g id="ytick_2">
     <g id="line2d_19">
      <path d="M 216.69875 168.169663 
C 227.894665 168.169663 238.981715 170.375015 249.325392 174.659506 
C 259.669069 178.943997 269.068216 185.224306 276.984923 193.141014 
C 284.901631 201.057722 291.18194 210.456868 295.466432 220.800546 
C 299.750923 231.144223 301.956274 242.231272 301.956274 253.427187 
C 301.956274 264.623103 299.750923 275.710152 295.466432 286.053829 
C 291.18194 296.397507 284.901631 305.796653 276.984923 313.713361 
C 269.068216 321.630069 259.669069 327.910378 249.325392 332.194869 
C 238.981715 336.47936 227.894665 338.684712 216.69875 338.684712 
C 205.502835 338.684712 194.415785 336.47936 184.072108 332.194869 
C 173.728431 327.910378 164.329284 321.630069 156.412577 313.713361 
C 148.495869 305.796653 142.21556 296.397507 137.931068 286.053829 
C 133.646577 275.710152 131.441226 264.623103 131.441226 253.427187 
C 131.441226 242.231272 133.646577 231.144223 137.931068 220.800546 
C 142.21556 210.456868 148.495869 201.057722 156.412577 193.141014 
C 164.329284 185.224306 173.728431 178.943997 184.072108 174.659506 
C 194.415785 170.375015 205.502835 168.169663 216.69875 168.169663 
" clip-path="url(#pc0d6c17f4e)" style="fill: none; stroke: #b0b0b0; stroke-width: 1.5; stroke-linecap: square"/>
     </g>
     <g id="text_6">
      <text style="font: 16px 'DejaVu Sans', 'Bitstream Vera Sans', 'Computer Modern Sans Serif', 'Lucida Grande', 'Verdana', 'Geneva', 'Lucid', 'Arial', 'Helvetica', 'Avant Garde', sans-serif; text-anchor: start" x="301.956274" y="250.099687" transform="rotate(-0 301.956274 250.099687)">0.12</text>
     </g>
    </g>
    <g id="ytick_3">
     <g id="line2d_20">
      <path d="M 216.69875 125.227579 
C 233.533768 125.227579 250.205087 128.543711 265.758616 134.986193 
C 281.312145 141.428676 295.445407 150.87222 307.349562 162.776375 
C 319.253718 174.680531 328.697262 188.813793 335.139744 204.367321 
C 341.582227 219.92085 344.898358 236.592169 344.898358 253.427187 
C 344.898358 270.262206 341.582227 286.933525 335.139744 302.487054 
C 328.697262 318.040582 319.253718 332.173844 307.349562 344.078 
C 295.445407 355.982155 281.312145 365.425699 265.758616 371.868182 
C 250.205087 378.310664 233.533768 381.626796 216.69875 381.626796 
C 199.863732 381.626796 183.192413 378.310664 167.638884 371.868182 
C 152.085355 365.425699 137.952093 355.982155 126.047938 344.078 
C 114.143782 332.173844 104.700238 318.040582 98.257756 302.487054 
C 91.815273 286.933525 88.499142 270.262206 88.499142 253.427187 
C 88.499142 236.592169 91.815273 219.92085 98.257756 204.367321 
C 104.700238 188.813793 114.143782 174.680531 126.047938 162.776375 
C 137.952093 150.87222 152.085355 141.428676 167.638884 134.986193 
C 183.192413 128.543711 199.863732 125.227579 216.69875 125.227579 
" clip-path="url(#pc0d6c17f4e)" style="fill: none; stroke: #b0b0b0; stroke-width: 1.5; stroke-linecap: square"/>
     </g>
     <g id="text_7">
      <text style="font: 16px 'DejaVu Sans', 'Bitstream Vera Sans', 'Computer Modern Sans Serif', 'Lucida Grande', 'Verdana', 'Geneva', 'Lucid', 'Arial', 'Helvetica', 'Avant Garde', sans-serif; text-anchor: start" x="344.898358" y="250.099687" transform="rotate(-0 344.898358 250.099687)">0.19</text>
     </g>
    </g>
   </g>
   <g id="line2d_21">
    <path d="M 216.69875 87.107187 
L 234.879831 209.534175 
L 229.648356 240.477582 
L 218.493893 252.683615 
L 229.783757 253.427187 
L 224.898379 256.823585 
L 228.103603 264.83204 
L 266.895066 374.611814 
L 216.69875 419.747187 
L 198.517669 297.3202 
L 203.749144 266.376793 
L 214.903607 254.17076 
L 203.613743 253.427187 
L 208.499121 250.03079 
L 205.293897 242.022335 
L 166.502434 132.242561 
L 216.69875 87.107187 
" clip-path="url(#pc0d6c17f4e)" style="fill: none; stroke: #85a7eb; stroke-opacity: 0.7; stroke-width: 10; stroke-linecap: square"/>
   </g>
   <g id="line2d_22">
    <path d="M 216.69875 116.67571 
L 236.517273 205.581039 
L 230.496516 239.629421 
L 216.69875 253.427187 
L 222.359653 253.427187 
L 218.689843 254.251925 
L 246.998248 283.726685 
L 270.530491 383.388508 
L 216.69875 390.178665 
L 196.880227 301.273336 
L 202.900984 267.224954 
L 216.69875 253.427187 
L 211.037847 253.427187 
L 214.707657 252.60245 
L 186.399252 223.12769 
L 162.867009 123.465867 
L 216.69875 116.67571 
" clip-path="url(#pc0d6c17f4e)" style="fill: none; stroke: #3e51cc; stroke-opacity: 0.7; stroke-width: 10; stroke-linecap: square"/>
   </g>
   <g id="patch_3">
    <path d="M 216.69875 87.107187 
C 194.857808 87.107187 173.229241 91.409377 153.050842 99.767544 
C 132.872442 108.12571 114.536629 120.377309 99.09275 135.821188 
C 83.648872 151.265066 71.397273 169.600879 63.039106 189.779279 
C 54.680939 209.957679 50.37875 231.586245 50.37875 253.427187 
C 50.37875 275.26813 54.680939 296.896696 63.039106 317.075096 
C 71.397273 337.253496 83.648872 355.589309 99.09275 371.033187 
C 114.536629 386.477066 132.872442 398.728665 153.050842 407.086831 
C 173.229241 415.444998 194.857808 419.747187 216.69875 419.747187 
C 238.539692 419.747187 260.168259 415.444998 280.346658 407.086831 
C 300.525058 398.728665 318.860871 386.477066 334.30475 371.033187 
C 349.748628 355.589309 362.000227 337.253496 370.358394 317.075096 
C 378.716561 296.896696 383.01875 275.26813 383.01875 253.427187 
C 383.01875 231.586245 378.716561 209.957679 370.358394 189.779279 
C 362.000227 169.600879 349.748628 151.265066 334.30475 135.821188 
C 318.860871 120.377309 300.525058 108.12571 280.346658 99.767544 
C 260.168259 91.409377 238.539692 87.107187 216.69875 87.107187 
" style="fill: none; stroke: #000000; stroke-width: 1.875; stroke-linejoin: miter; stroke-linecap: square"/>
   </g>
   <g id="text_8">
    <text style="font: 20px 'DejaVu Sans', 'Bitstream Vera Sans', 'Computer Modern Sans Serif', 'Lucida Grande', 'Verdana', 'Geneva', 'Lucid', 'Arial', 'Helvetica', 'Avant Garde', sans-serif; text-anchor: middle" x="216.69875" y="22.396875" transform="rotate(-0 216.69875 22.396875)">cell 200803_002_55 in V1</text>
   </g>
   <g id="legend_1">
    <g id="line2d_23">
     <path d="M 337.13075 74.800687 
L 353.13075 74.800687 
L 369.13075 74.800687 
" style="fill: none; stroke: #85a7eb; stroke-opacity: 0.7; stroke-width: 10; stroke-linecap: square"/>
    </g>
    <g id="text_9">
     <text style="font: 16px 'DejaVu Sans', 'Bitstream Vera Sans', 'Computer Modern Sans Serif', 'Lucida Grande', 'Verdana', 'Geneva', 'Lucid', 'Arial', 'Helvetica', 'Avant Garde', sans-serif; text-anchor: start" x="381.93075" y="80.400687" transform="rotate(-0 381.93075 80.400687)">unadapted</text>
    </g>
    <g id="line2d_24">
     <path d="M 337.13075 98.285687 
L 353.13075 98.285687 
L 369.13075 98.285687 
" style="fill: none; stroke: #3e51cc; stroke-opacity: 0.7; stroke-width: 10; stroke-linecap: square"/>
    </g>
    <g id="text_10">
     <text style="font: 16px 'DejaVu Sans', 'Bitstream Vera Sans', 'Computer Modern Sans Serif', 'Lucida Grande', 'Verdana', 'Geneva', 'Lucid', 'Arial', 'Helvetica', 'Avant Garde', sans-serif; text-anchor: start" x="381.93075" y="103.885687" transform="rotate(-0 381.93075 103.885687)">adapted</text>
    </g>
   </g>
  </g>
 </g>
 <defs>
  <clipPath id="pc0d6c17f4e">
   <path d="M 383.01875 253.427187 
C 383.01875 231.586245 378.716561 209.957679 370.358394 189.779279 
C 362.000227 169.600879 349.748628 151.265066 334.30475 135.821188 
C 318.860871 120.377309 300.525058 108.12571 280.346658 99.767544 
C 260.168259 91.409377 238.539692 87.107187 216.69875 87.107187 
C 194.857808 87.107187 173.229241 91.409377 153.050842 99.767544 
C 132.872442 108.12571 114.536629 120.377309 99.09275 135.821188 
C 83.648872 151.265066 71.397273 169.600879 63.039106 189.779279 
C 54.680939 209.957679 50.37875 231.586245 50.37875 253.427187 
C 50.37875 275.26813 54.680939 296.896696 63.039106 317.075096 
C 71.397273 337.253496 83.648872 355.589309 99.09275 371.033187 
C 114.536629 386.477066 132.872442 398.728665 153.050842 407.086831 
C 173.229241 415.444998 194.857808 419.747187 216.69875 419.747187 
C 238.539692 419.747187 260.168259 415.444998 280.346658 407.086831 
C 300.525058 398.728665 318.860871 386.477066 334.30475 371.033187 
C 349.748628 355.589309 362.000227 337.253496 370.358394 317.075096 
C 378.716561 296.896696 383.01875 275.26813 383.01875 253.427188 
M 216.69875 253.427187 
C 216.69875 253.427187 216.69875 253.427187 216.69875 253.427187 
C 216.69875 253.427187 216.69875 253.427187 216.69875 253.427187 
C 216.69875 253.427187 216.69875 253.427187 216.69875 253.427187 
C 216.69875 253.427187 216.69875 253.427187 216.69875 253.427187 
C 216.69875 253.427187 216.69875 253.427187 216.69875 253.427187 
C 216.69875 253.427187 216.69875 253.427187 216.69875 253.427187 
C 216.69875 253.427187 216.69875 253.427187 216.69875 253.427187 
C 216.69875 253.427187 216.69875 253.427187 216.69875 253.427187 
C 216.69875 253.427187 216.69875 253.427187 216.69875 253.427187 
C 216.69875 253.427187 216.69875 253.427187 216.69875 253.427187 
C 216.69875 253.427187 216.69875 253.427187 216.69875 253.427187 
C 216.69875 253.427187 216.69875 253.427187 216.69875 253.427187 
C 216.69875 253.427187 216.69875 253.427187 216.69875 253.427187 
C 216.69875 253.427187 216.69875 253.427187 216.69875 253.427187 
C 216.69875 253.427187 216.69875 253.427187 216.69875 253.427187 
C 216.69875 253.427187 216.69875 253.427187 216.69875 253.427187 
z
"/>
  </clipPath>
 </defs>
</svg>
