<svg version="1.1" xmlns="http://www.w3.org/2000/svg" viewBox="0 0 553 584.3444783528646" width="1659" height="1753.0334350585938">
  <!-- svg-source:excalidraw -->
  
  <defs>
    <style class="style-fonts">
      @font-face {
        font-family: "Virgil";
        src: url("https://excalidraw.com/Virgil.woff2");
      }
      @font-face {
        font-family: "Cascadia";
        src: url("https://excalidraw.com/Cascadia.woff2");
      }
    </style>
  </defs>
  <g stroke-linecap="round" transform="translate(10 10) rotate(0 266.5 26)"><path d="M13 0 M13 0 C123.12 0.35, 232.77 1.04, 520 0 M13 0 C121.79 -0.94, 230.63 -1.36, 520 0 M520 0 C526.93 -1.46, 533.13 4.11, 533 13 M520 0 C527.14 -1.43, 531.82 6.4, 533 13 M533 13 C534.61 20.55, 532.16 25.76, 533 39 M533 13 C532.37 21.86, 533.63 28.7, 533 39 M533 39 C531.27 47.48, 528.46 52.03, 520 52 M533 39 C532.6 46.39, 530.67 50.34, 520 52 M520 52 C353.61 50.26, 187.19 49.88, 13 52 M520 52 C330.15 50.52, 139.98 50.26, 13 52 M13 52 C4.04 51.93, -1.47 46.91, 0 39 M13 52 C6.4 53.4, -2.21 47.65, 0 39 M0 39 C0.68 30.56, -1.19 22.4, 0 13 M0 39 C0.43 30.77, -1.04 23.2, 0 13 M0 13 C-1.63 4.76, 4.47 0.16, 13 0 M0 13 C1.72 3.25, 6.19 -0.72, 13 0" stroke="#495057" stroke-width="4" fill="none"></path></g><g transform="translate(139.9443359375 19.799999999999997) rotate(0 136.5556640625 16.199999999999996)"><text x="136.5556640625" y="0" font-family="Helvetica, Segoe UI Emoji" font-size="27px" fill="#495057" text-anchor="middle" style="white-space: pre;" direction="ltr" dominant-baseline="text-before-edge">Response across trials</text></g><g stroke-opacity="0.3" fill-opacity="0.3" stroke-linecap="round" transform="translate(15.306543202679052 129.0023038087237) rotate(0 28.115657318154376 31.864425927604486)"><path d="M14.06 0 M14.06 0 C21.53 0, 29.01 0, 42.17 0 M14.06 0 C21.61 0, 29.15 0, 42.17 0 M42.17 0 C51.55 0, 56.23 4.69, 56.23 14.06 M42.17 0 C51.55 0, 56.23 4.69, 56.23 14.06 M56.23 14.06 C56.23 25.35, 56.23 36.65, 56.23 49.67 M56.23 14.06 C56.23 26.25, 56.23 38.45, 56.23 49.67 M56.23 49.67 C56.23 59.04, 51.55 63.73, 42.17 63.73 M56.23 49.67 C56.23 59.04, 51.55 63.73, 42.17 63.73 M42.17 63.73 C35.36 63.73, 28.54 63.73, 14.06 63.73 M42.17 63.73 C33.98 63.73, 25.78 63.73, 14.06 63.73 M14.06 63.73 C4.69 63.73, 0 59.04, 0 49.67 M14.06 63.73 C4.69 63.73, 0 59.04, 0 49.67 M0 49.67 C0 39.13, 0 28.58, 0 14.06 M0 49.67 C0 37.72, 0 25.77, 0 14.06 M0 14.06 C0 4.69, 4.69 0, 14.06 0 M0 14.06 C0 4.69, 4.69 0, 14.06 0" stroke="#e67700" stroke-width="4" fill="none"></path></g><g stroke-opacity="0.3" fill-opacity="0.3" stroke-linecap="round" transform="translate(84.47320986934574 129.0023038087237) rotate(0 28.115657318154376 31.864425927604486)"><path d="M14.06 0 M14.06 0 C20.51 1.32, 27.95 -0.47, 42.17 0 M14.06 0 C24.91 -0.63, 35.13 -1.09, 42.17 0 M42.17 0 C50.44 -0.23, 57.19 6.47, 56.23 14.06 M42.17 0 C51.88 0.82, 56.58 4.74, 56.23 14.06 M56.23 14.06 C54.63 21.7, 56.12 32.58, 56.23 49.67 M56.23 14.06 C55.64 26.21, 55.49 37.13, 56.23 49.67 M56.23 49.67 C55.35 60.52, 51.72 64.83, 42.17 63.73 M56.23 49.67 C57.3 57.62, 50.72 65.77, 42.17 63.73 M42.17 63.73 C34.91 63.54, 24.96 63.2, 14.06 63.73 M42.17 63.73 C34.97 64.16, 25.96 64.82, 14.06 63.73 M14.06 63.73 C4.93 65.62, 1.76 60.97, 0 49.67 M14.06 63.73 C6.29 64.39, -0.38 57.69, 0 49.67 M0 49.67 C-1.02 35.67, -1.34 24.85, 0 14.06 M0 49.67 C0.21 40.83, -1.03 32.01, 0 14.06 M0 14.06 C-1.24 3.21, 5.71 -1.24, 14.06 0 M0 14.06 C1.38 2.66, 3.03 1.76, 14.06 0" stroke="#e67700" stroke-width="4" fill="none"></path></g><g stroke-opacity="0.3" fill-opacity="0.3" stroke-linecap="round" transform="translate(153.63987653601237 129.0023038087237) rotate(0 28.115657318154376 31.864425927604486)"><path d="M14.06 0 M14.06 0 C22.54 -0.79, 29.19 -1.37, 42.17 0 M14.06 0 C25.11 -0.74, 35.12 0, 42.17 0 M42.17 0 C52.51 1.78, 56.52 5.4, 56.23 14.06 M42.17 0 C51.89 0.05, 55.55 3.79, 56.23 14.06 M56.23 14.06 C56 24.16, 56.27 37.05, 56.23 49.67 M56.23 14.06 C54.95 24.4, 55.49 34.16, 56.23 49.67 M56.23 49.67 C56.41 60.14, 52.47 62.49, 42.17 63.73 M56.23 49.67 C55.41 61.08, 52.13 62.61, 42.17 63.73 M42.17 63.73 C37.18 63.44, 29.57 62.9, 14.06 63.73 M42.17 63.73 C31.27 64.7, 21.59 64.74, 14.06 63.73 M14.06 63.73 C6.45 65.66, 1.39 59.61, 0 49.67 M14.06 63.73 C4.31 62.38, 0.97 60.08, 0 49.67 M0 49.67 C-1.03 42.1, -0.76 35.88, 0 14.06 M0 49.67 C-1.05 36.23, -0.73 21.14, 0 14.06 M0 14.06 C1.02 3.45, 5.88 -1.76, 14.06 0 M0 14.06 C-1.66 6.45, 5.22 -2.23, 14.06 0" stroke="#e67700" stroke-width="4" fill="none"></path></g><g stroke-opacity="0.3" fill-opacity="0.3" stroke-linecap="round" transform="translate(234.3620648498145 129.00233432630182) rotate(0 28.115657318154376 31.864425927604486)"><path d="M14.06 0 M14.06 0 C23.31 -2.11, 28.97 0.19, 42.17 0 M14.06 0 C20.89 0.89, 26.05 0.81, 42.17 0 M42.17 0 C51.78 -1.69, 54.83 4.47, 56.23 14.06 M42.17 0 C51.95 0.52, 55.91 4.41, 56.23 14.06 M56.23 14.06 C56.22 23.99, 55.11 37.68, 56.23 49.67 M56.23 14.06 C56.79 27.43, 55.72 41.27, 56.23 49.67 M56.23 49.67 C55.63 57.93, 50.07 63.72, 42.17 63.73 M56.23 49.67 C55.93 58.37, 50.69 64.77, 42.17 63.73 M42.17 63.73 C36.41 63.91, 26.75 64.47, 14.06 63.73 M42.17 63.73 C30.98 63.8, 21.6 63.56, 14.06 63.73 M14.06 63.73 C3.76 63.87, -0.14 60.08, 0 49.67 M14.06 63.73 C4.59 64.05, 1.81 58.86, 0 49.67 M0 49.67 C0.48 35.99, 0.3 23.38, 0 14.06 M0 49.67 C0 38.33, -1.03 29.46, 0 14.06 M0 14.06 C-1.1 5.42, 5.23 -0.99, 14.06 0 M0 14.06 C-1.7 6.14, 6.31 1.75, 14.06 0" stroke="#5f3dc4" stroke-width="4" fill="none"></path></g><g stroke-opacity="0.3" fill-opacity="0.3" stroke-linecap="round" transform="translate(303.52873151648123 129.00233432630182) rotate(0 28.115657318154376 31.864425927604486)"><path d="M14.06 0 M14.06 0 C18.51 -0.48, 27.15 -1.86, 42.17 0 M14.06 0 C25.38 -0.5, 35.95 -0.07, 42.17 0 M42.17 0 C49.86 -1.4, 56.01 5.04, 56.23 14.06 M42.17 0 C52.07 -0.32, 55.96 5.15, 56.23 14.06 M56.23 14.06 C54.89 21.38, 57.18 32.3, 56.23 49.67 M56.23 14.06 C55.62 24.79, 55.49 36.37, 56.23 49.67 M56.23 49.67 C55.11 57.57, 51.54 63.47, 42.17 63.73 M56.23 49.67 C55.56 58.19, 52.59 62.73, 42.17 63.73 M42.17 63.73 C34.84 62.94, 27.94 65.31, 14.06 63.73 M42.17 63.73 C35.53 63.67, 28.66 63.04, 14.06 63.73 M14.06 63.73 C4.83 63.59, 1.03 58.96, 0 49.67 M14.06 63.73 C5.01 65.54, -0.18 60.64, 0 49.67 M0 49.67 C-0.39 41.87, 0.16 33.99, 0 14.06 M0 49.67 C-0.46 35.45, 1.24 22.19, 0 14.06 M0 14.06 C0.73 5.23, 3.7 -1.48, 14.06 0 M0 14.06 C1.45 6.31, 6.43 0.43, 14.06 0" stroke="#5f3dc4" stroke-width="4" fill="none"></path></g><g stroke-opacity="0.3" fill-opacity="0.3" stroke-linecap="round" transform="translate(372.69539818314774 129.00233432630182) rotate(0 28.115657318154376 31.864425927604486)"><path d="M14.06 0 M14.06 0 C24.49 0.68, 33.8 1.84, 42.17 0 M14.06 0 C20.1 0.41, 26.88 -1.04, 42.17 0 M42.17 0 C50.14 -0.22, 56.58 5.14, 56.23 14.06 M42.17 0 C51.22 -0.27, 56.69 3.08, 56.23 14.06 M56.23 14.06 C55.4 26.77, 58.12 38.17, 56.23 49.67 M56.23 14.06 C55.84 23.91, 56.11 34.65, 56.23 49.67 M56.23 49.67 C54.76 59.04, 51.29 63.15, 42.17 63.73 M56.23 49.67 C55.38 60.08, 50.55 62.93, 42.17 63.73 M42.17 63.73 C32.21 64.43, 25.6 62.47, 14.06 63.73 M42.17 63.73 C33.14 63.48, 23.3 63.8, 14.06 63.73 M14.06 63.73 C4.54 64.76, -0.09 59.32, 0 49.67 M14.06 63.73 C6.5 63.54, 1.6 57.19, 0 49.67 M0 49.67 C-0.02 40.37, -0.1 32.57, 0 14.06 M0 49.67 C-0.85 42.98, -0.65 34.79, 0 14.06 M0 14.06 C0.54 3.7, 3.21 1.26, 14.06 0 M0 14.06 C1.63 6.43, 5.11 0.17, 14.06 0" stroke="#5f3dc4" stroke-width="4" fill="none"></path></g><g stroke-linecap="round"><g transform="translate(111.75543212890614 198.64449055989587) rotate(0 0.3311381057508811 39.11506988643819)"><path d="M1.07 0.09 C1.07 13.28, -0.67 65.96, -0.82 79.14 M0.17 -0.91 C0.62 11.9, 1.58 63.56, 1.47 77.16" stroke="#e67700" stroke-width="4" fill="none"></path></g><g transform="translate(111.75543212890614 198.64449055989587) rotate(0 0.3311381057508811 39.11506988643819)"><path d="M0.54 79.01 L-4.24 65.13 L7.11 61.56 L1.21 77.42" stroke="none" stroke-width="0" fill="#e67700" fill-rule="evenodd"></path><path d="M1.58 76.14 C0.29 74.3, -1.17 69.52, -5.15 64 M1.22 77.64 C0.55 74.19, -1.98 71.38, -5.59 63.12 M-4.69 63.95 C-0.46 64.2, 4.32 62.81, 7.47 63.73 M-5.3 63.98 C-0.76 62.84, 1.73 62.88, 8.07 63.1 M8.85 62.92 C5.03 65.93, 4.17 72.31, 2.56 77.07 M8.36 63.69 C6.07 66.84, 4.99 68.45, 1.47 76.79 M1.47 77.16 C1.47 77.16, 1.47 77.16, 1.47 77.16 M1.47 77.16 C1.47 77.16, 1.47 77.16, 1.47 77.16" stroke="#e67700" stroke-width="4" fill="none"></path></g></g><mask></mask><g stroke-linecap="round" transform="translate(20.644337972005133 280.8667297363281) rotate(0 96.11111958821613 66.5)"><path d="M33.25 0 M33.25 0 C75.72 1.18, 118.67 0.5, 158.97 0 M33.25 0 C83.1 -1.73, 130.22 -1.64, 158.97 0 M158.97 0 C182.26 -1.32, 191.64 11.46, 192.22 33.25 M158.97 0 C179.92 1.75, 191.31 9.53, 192.22 33.25 M192.22 33.25 C193.6 47.54, 190.19 61.47, 192.22 99.75 M192.22 33.25 C192.35 49.62, 192.59 63.65, 192.22 99.75 M192.22 99.75 C192.22 120.94, 179.87 132.26, 158.97 133 M192.22 99.75 C192.98 123.14, 183.44 134.13, 158.97 133 M158.97 133 C127.9 135.4, 92.68 134.16, 33.25 133 M158.97 133 C132.22 131.92, 105.49 132.79, 33.25 133 M33.25 133 C10.73 131.39, -0.93 123.77, 0 99.75 M33.25 133 C11.92 134.75, -0.69 119.66, 0 99.75 M0 99.75 C-1.7 79.13, 0.98 60.82, 0 33.25 M0 99.75 C0.15 77.78, 0.91 56.07, 0 33.25 M0 33.25 C-1.09 11.42, 9.22 0.06, 33.25 0 M0 33.25 C0.36 11.65, 11.89 -1.72, 33.25 0" stroke="#e67700" stroke-width="4" fill="none"></path></g><g transform="translate(27.80037943522126 311.3667297363281) rotate(0 88.95507812499997 36)"><text x="88.955078125" y="0" font-family="Helvetica, Segoe UI Emoji" font-size="20px" fill="#e67700" text-anchor="middle" style="white-space: pre;" direction="ltr" dominant-baseline="text-before-edge">sum R1 in sampled </text><text x="88.955078125" y="24" font-family="Helvetica, Segoe UI Emoji" font-size="20px" fill="#e67700" text-anchor="middle" style="white-space: pre;" direction="ltr" dominant-baseline="text-before-edge">trials, same for R2</text><text x="88.955078125" y="48" font-family="Helvetica, Segoe UI Emoji" font-size="20px" fill="#e67700" text-anchor="middle" style="white-space: pre;" direction="ltr" dominant-baseline="text-before-edge">calculate adaptation</text></g><g stroke-linecap="round"><g transform="translate(333.045571319951 198.4556223551433) rotate(0 -0.963455370872623 39.32767618644668)"><path d="M-0.11 0.56 C-0.4 13.66, -0.67 64.48, -0.97 77.51 M-1.63 -0.19 C-2.11 13.17, -1.48 66.02, -1.69 78.85" stroke="#5f3dc4" stroke-width="4" fill="none"></path></g><g transform="translate(333.045571319951 198.4556223551433) rotate(0 -0.963455370872623 39.32767618644668)"><path d="M-3.42 80.5 L-7.33 65.95 L5.16 63.49 L-2.74 77.63" stroke="none" stroke-width="0" fill="#5f3dc4" fill-rule="evenodd"></path><path d="M-0.99 79.38 C-4.34 73.29, -5.14 68.24, -7.83 66.39 M-1.63 79.22 C-4.15 75.29, -5.3 70.17, -8.1 65.99 M-8.22 66 C-2.86 66.1, 1.3 64.14, 4.58 64.68 M-8.24 65.47 C-3.51 65.66, 0.45 65.68, 4.24 64.99 M6.12 64.92 C3.29 69.06, 0.06 72.66, -2.43 79.02 M4.47 65.91 C1.78 70.89, 0.27 76.16, -2.08 79.11 M-1.69 78.85 C-1.69 78.85, -1.69 78.85, -1.69 78.85 M-1.69 78.85 C-1.69 78.85, -1.69 78.85, -1.69 78.85" stroke="#5f3dc4" stroke-width="4" fill="none"></path></g></g><mask></mask><g stroke-linecap="round" transform="translate(239.73328145345045 279.67786153157556) rotate(0 96.11111958821613 66.5)"><path d="M33.25 0 M33.25 0 C60.47 -1.22, 85.45 0.78, 158.97 0 M33.25 0 C64.84 -1.81, 96.51 -0.87, 158.97 0 M158.97 0 C182.13 -1.86, 193.48 11.17, 192.22 33.25 M158.97 0 C179.24 -0.24, 194.52 13.08, 192.22 33.25 M192.22 33.25 C192.74 51.15, 192.71 67.48, 192.22 99.75 M192.22 33.25 C192.67 46.43, 192.82 59.77, 192.22 99.75 M192.22 99.75 C192.92 122.19, 182.69 131.79, 158.97 133 M192.22 99.75 C194.05 120.41, 180.16 133.19, 158.97 133 M158.97 133 C131.46 135.17, 104.3 133.47, 33.25 133 M158.97 133 C130.48 133.55, 100.95 132.89, 33.25 133 M33.25 133 C12.83 131.77, 0.79 123.25, 0 99.75 M33.25 133 C11.94 131.81, 0.81 123.58, 0 99.75 M0 99.75 C-1.39 75.2, -0.97 46.59, 0 33.25 M0 99.75 C-1.46 77.26, 0.34 53.52, 0 33.25 M0 33.25 C-0.16 9.95, 9.71 -1.2, 33.25 0 M0 33.25 C0.94 9.02, 9.19 -1.99, 33.25 0" stroke="#5f3dc4" stroke-width="4" fill="none"></path></g><g stroke-linecap="round"><g transform="translate(112.86657714843739 416.42230224609375) rotate(0 0.0071410930839306275 30.555330168181086)"><path d="M0.59 0.63 C0.8 10.74, 0.49 51.45, 0.64 61.2 M-0.56 -0.09 C-0.49 9.68, -0.8 49.69, -0.56 59.71" stroke="#495057" stroke-width="4" fill="none"></path></g></g><mask></mask><g stroke-linecap="round"><g transform="translate(500.6443888346354 415.0889689127604) rotate(0 0.09770170758565655 30.80241922247845)"><path d="M-0.79 -0.49 C-0.87 9.67, 0.39 51.66, 0.57 61.98 M0.99 -1.79 C0.71 9.07, 0.14 52.7, -0.08 63.39" stroke="#495057" stroke-width="4" fill="none"></path></g></g><mask></mask><g stroke-linecap="round"><g transform="translate(112.75543212890614 477.2000630696615) rotate(0 193.9358867360978 0.43281653380108764)"><path d="M-1.18 -0.77 C63.33 -0.79, 322.13 0, 386.82 -0.03 M0.41 1.44 C65.31 1.62, 324.2 1.76, 389.05 1.49" stroke="#495057" stroke-width="4" fill="none"></path></g></g><mask></mask><g stroke-linecap="round"><g transform="translate(333.4220987955729 477.2000630696615) rotate(0 -0.17420608457643993 27.472846465450687)"><path d="M-1.01 -0.64 C-1 8.41, 0.07 45.4, 0.25 54.57 M0.66 1.64 C0.51 10.79, -0.34 46.68, -0.57 55.59" stroke="#495057" stroke-width="4" fill="none"></path></g><g transform="translate(333.4220987955729 477.2000630696615) rotate(0 -0.17420608457643993 27.472846465450687)"><path d="M0.89 56.97 L-5.51 41.42 L5.25 41.26 L0.64 53.62" stroke="none" stroke-width="0" fill="#495057" fill-rule="evenodd"></path><path d="M-1.37 55.9 C-3.74 51.24, -5.89 46.71, -7.86 42.05 M-0.51 55.6 C-3.5 50.68, -4.98 45.75, -7.32 41.82 M-7.25 41.59 C-2.01 41.64, 3.55 43.33, 5.74 41.51 M-6.39 42.34 C-3.44 42.29, 0.79 41.99, 5.56 41.76 M5.33 43.39 C5.03 45.46, 3.88 48.06, -1.47 56.2 M6.78 42.46 C3.89 45.89, 2.85 48.18, 0.11 55.42 M-0.57 55.59 C-0.57 55.59, -0.57 55.59, -0.57 55.59 M-0.57 55.59 C-0.57 55.59, -0.57 55.59, -0.57 55.59" stroke="#495057" stroke-width="4" fill="none"></path></g></g><mask></mask><g transform="translate(218.51106770833326 541.9444783528646) rotate(0 125.303466796875 16.19999999999999)"><text x="0" y="0" font-family="Helvetica, Segoe UI Emoji" font-size="27px" fill="#495057" text-anchor="start" style="white-space: pre;" direction="ltr" dominant-baseline="text-before-edge">error over bootstraps</text></g><g transform="translate(125.1332194010414 69.233408610026) rotate(0 153.826171875 16.200000000000003)"><text x="0" y="0" font-family="Helvetica, Segoe UI Emoji" font-size="27px" fill="#495057" text-anchor="start" style="white-space: pre;" direction="ltr" dominant-baseline="text-before-edge">sample n trials repeatedly</text></g><g transform="translate(470.23040771484386 125.62225443522138) rotate(0 31.640625 21.599999999999994)"><text x="31.640625" y="0" font-family="Cascadia, Segoe UI Emoji" font-size="36px" fill="#495057" text-anchor="middle" style="white-space: pre;" direction="ltr" dominant-baseline="text-before-edge">...</text></g><g transform="translate(44.47511291503906 144.1222559611003) rotate(0 70.0478515625 16.799999999999997)"><text x="70.0478515625" y="0" font-family="Helvetica, Segoe UI Emoji" font-size="28px" fill="#000000" text-anchor="middle" style="white-space: pre;" direction="ltr" dominant-baseline="text-before-edge">bootstrap 1</text></g><g transform="translate(260.82920837402344 143.12224680582685) rotate(0 70.0478515625 16.799999999999997)"><text x="70.0478515625" y="0" font-family="Helvetica, Segoe UI Emoji" font-size="28px" fill="#000000" text-anchor="middle" style="white-space: pre;" direction="ltr" dominant-baseline="text-before-edge">bootstrap 2</text></g><g stroke-linecap="round"><g transform="translate(332.6023104994457 412.61983216098514) rotate(0 0.6807116060659837 30.501159264530685)"><path d="M-0.33 -0.96 C-0.22 9.01, 1.05 50.42, 1.17 61.05 M1.69 1.15 C1.71 11.73, 1.14 52.03, 0.83 61.97" stroke="#495057" stroke-width="4" fill="none"></path></g></g><mask></mask></svg>