<?xml version="1.0" encoding="utf-8" standalone="no"?>
<!DOCTYPE svg PUBLIC "-//W3C//DTD SVG 1.1//EN"
  "http://www.w3.org/Graphics/SVG/1.1/DTD/svg11.dtd">
<svg xmlns:xlink="http://www.w3.org/1999/xlink" width="192.982677pt" height="152.617323pt" viewBox="0 0 192.982677 152.617323" xmlns="http://www.w3.org/2000/svg" version="1.1">
 <metadata>
  <rdf:RDF xmlns:dc="http://purl.org/dc/elements/1.1/" xmlns:cc="http://creativecommons.org/ns#" xmlns:rdf="http://www.w3.org/1999/02/22-rdf-syntax-ns#">
   <cc:Work>
    <dc:type rdf:resource="http://purl.org/dc/dcmitype/StillImage"/>
    <dc:date>2024-04-10T13:46:26.238316</dc:date>
    <dc:format>image/svg+xml</dc:format>
    <dc:creator>
     <cc:Agent>
      <dc:title>Matplotlib v3.7.2, https://matplotlib.org/</dc:title>
     </cc:Agent>
    </dc:creator>
   </cc:Work>
  </rdf:RDF>
 </metadata>
 <defs>
  <style type="text/css">*{stroke-linejoin: round; stroke-linecap: butt}</style>
 </defs>
 <g id="figure_1">
  <g id="patch_1">
   <path d="M 0 152.617323 
L 192.982677 152.617323 
L 192.982677 0 
L 0 0 
z
" style="fill: #ffffff"/>
  </g>
  <g id="axes_1">
   <g id="PolyCollection_1">
    <defs>
     <path id="m4088534e6a" d="M 18.590122 -24.632167 
L 18.590122 -22.110606 
L 20.32126 -22.39833 
L 22.052398 -21.574902 
L 23.783536 -20.752983 
L 25.514674 -20.138385 
L 27.245812 -21.394878 
L 28.976951 -20.93357 
L 30.708089 -21.764132 
L 32.439227 -20.290319 
L 34.170365 -20.939189 
L 35.901503 -20.246186 
L 37.632641 -19.529591 
L 39.36378 -20.396917 
L 41.094918 -20.449342 
L 42.826056 -20.183978 
L 44.557194 -20.623523 
L 46.288332 -19.400831 
L 48.01947 -20.932445 
L 49.750608 -26.232148 
L 51.481747 -36.99366 
L 53.212885 -50.331921 
L 54.944023 -66.197294 
L 56.675161 -76.205767 
L 58.406299 -80.665423 
L 60.137437 -83.101742 
L 61.868576 -81.920361 
L 63.599714 -81.967764 
L 65.330852 -79.118431 
L 67.06199 -78.278203 
L 68.793128 -78.775886 
L 70.524266 -84.74534 
L 72.255404 -94.819748 
L 73.986543 -106.814737 
L 75.717681 -116.676235 
L 77.448819 -116.869713 
L 79.179957 -119.55153 
L 80.911095 -118.931448 
L 82.642233 -116.546563 
L 84.373372 -113.856737 
L 86.10451 -111.293641 
L 87.835648 -111.54679 
L 89.566786 -108.660785 
L 91.297924 -104.49833 
L 93.029062 -103.14056 
L 94.7602 -101.227801 
L 96.491339 -99.417322 
L 98.222477 -96.857961 
L 99.953615 -94.33064 
L 101.684753 -93.241645 
L 103.415891 -90.592651 
L 105.147029 -89.174875 
L 106.878168 -86.615536 
L 108.609306 -85.136713 
L 110.340444 -85.053984 
L 112.071582 -81.867324 
L 113.80272 -81.507467 
L 115.533858 -78.91048 
L 117.264996 -77.658645 
L 118.996135 -78.603098 
L 120.727273 -75.651105 
L 122.458411 -74.657308 
L 124.189549 -72.21525 
L 125.920687 -71.912554 
L 127.651825 -71.343294 
L 129.382963 -72.11805 
L 131.114102 -70.223831 
L 132.84524 -68.834881 
L 134.576378 -68.269908 
L 136.307516 -67.878009 
L 138.038654 -66.297133 
L 139.769792 -65.440699 
L 141.500931 -63.05231 
L 143.232069 -63.875976 
L 144.963207 -63.403222 
L 146.694345 -61.772101 
L 148.425483 -60.642433 
L 150.156621 -58.931177 
L 151.887759 -57.104343 
L 153.618898 -57.156226 
L 155.350036 -55.113967 
L 157.081174 -53.962555 
L 158.812312 -53.541112 
L 160.54345 -51.95687 
L 162.274588 -50.492333 
L 164.005727 -50.582922 
L 165.736865 -48.464139 
L 167.468003 -47.298904 
L 169.199141 -47.294608 
L 170.930279 -47.720577 
L 172.661417 -46.005959 
L 172.661417 -51.135719 
L 172.661417 -51.135719 
L 170.930279 -53.025731 
L 169.199141 -52.721495 
L 167.468003 -52.746259 
L 165.736865 -53.930131 
L 164.005727 -56.190277 
L 162.274588 -56.107881 
L 160.54345 -57.644642 
L 158.812312 -59.35766 
L 157.081174 -59.934007 
L 155.350036 -61.066826 
L 153.618898 -63.243363 
L 151.887759 -63.288648 
L 150.156621 -65.353685 
L 148.425483 -67.09173 
L 146.694345 -68.315604 
L 144.963207 -70.13902 
L 143.232069 -70.612278 
L 141.500931 -69.9233 
L 139.769792 -72.450272 
L 138.038654 -73.373442 
L 136.307516 -75.082924 
L 134.576378 -75.598671 
L 132.84524 -76.254299 
L 131.114102 -77.837507 
L 129.382963 -79.922121 
L 127.651825 -79.074494 
L 125.920687 -79.696889 
L 124.189549 -80.152006 
L 122.458411 -82.700257 
L 120.727273 -83.959245 
L 118.996135 -87.004891 
L 117.264996 -86.170424 
L 115.533858 -87.557551 
L 113.80272 -90.351923 
L 112.071582 -90.936778 
L 110.340444 -94.049997 
L 108.609306 -94.354303 
L 106.878168 -95.955824 
L 105.147029 -98.666842 
L 103.415891 -100.297232 
L 101.684753 -103.067121 
L 99.953615 -104.204526 
L 98.222477 -107.093523 
L 96.491339 -109.878098 
L 94.7602 -111.935621 
L 93.029062 -113.882828 
L 91.297924 -115.466699 
L 89.566786 -119.831925 
L 87.835648 -123.06999 
L 86.10451 -122.774222 
L 84.373372 -125.545153 
L 82.642233 -128.26643 
L 80.911095 -130.603434 
L 79.179957 -131.224346 
L 77.448819 -128.56423 
L 75.717681 -127.92872 
L 73.986543 -117.202772 
L 72.255404 -104.045827 
L 70.524266 -92.89629 
L 68.793128 -86.284054 
L 67.06199 -85.523807 
L 65.330852 -86.2262 
L 63.599714 -89.135176 
L 61.868576 -89.050816 
L 60.137437 -90.21543 
L 58.406299 -87.329903 
L 56.675161 -82.276799 
L 54.944023 -71.283183 
L 53.212885 -54.08188 
L 51.481747 -39.743894 
L 49.750608 -28.004068 
L 48.01947 -22.403779 
L 46.288332 -20.887536 
L 44.557194 -22.013798 
L 42.826056 -21.585216 
L 41.094918 -22.260561 
L 39.36378 -22.59541 
L 37.632641 -21.803361 
L 35.901503 -22.432519 
L 34.170365 -23.126753 
L 32.439227 -22.591945 
L 30.708089 -24.124819 
L 28.976951 -23.282093 
L 27.245812 -23.782093 
L 25.514674 -22.63876 
L 23.783536 -23.233543 
L 22.052398 -23.982642 
L 20.32126 -24.823656 
L 18.590122 -24.632167 
z
" style="stroke: #85a7eb; stroke-opacity: 0.3; stroke-width: 1.5"/>
    </defs>
    <g clip-path="url(#p499f2c2fa0)">
     <use xlink:href="#m4088534e6a" x="0" y="152.617323" style="fill: #85a7eb; fill-opacity: 0.3; stroke: #85a7eb; stroke-opacity: 0.3; stroke-width: 1.5"/>
    </g>
   </g>
   <g id="PolyCollection_2">
    <defs>
     <path id="m2a3105e78e" d="M 18.590122 -20.395139 
L 18.590122 -18.747858 
L 20.32126 -18.991307 
L 22.052398 -19.796178 
L 23.783536 -19.57269 
L 25.514674 -19.14374 
L 27.245812 -19.846694 
L 28.976951 -19.071586 
L 30.708089 -19.276974 
L 32.439227 -18.713693 
L 34.170365 -19.191182 
L 35.901503 -19.088413 
L 37.632641 -19.960595 
L 39.36378 -19.833758 
L 41.094918 -19.375222 
L 42.826056 -19.246305 
L 44.557194 -19.165537 
L 46.288332 -20.150106 
L 48.01947 -20.140376 
L 49.750608 -23.892761 
L 51.481747 -33.429261 
L 53.212885 -46.693831 
L 54.944023 -60.913596 
L 56.675161 -72.665764 
L 58.406299 -80.845114 
L 60.137437 -84.137956 
L 61.868576 -86.708336 
L 63.599714 -86.694053 
L 65.330852 -87.151976 
L 67.06199 -85.749842 
L 68.793128 -87.32699 
L 70.524266 -92.862045 
L 72.255404 -101.740523 
L 73.986543 -111.18516 
L 75.717681 -119.092987 
L 77.448819 -123.484433 
L 79.179957 -126.696731 
L 80.911095 -125.894393 
L 82.642233 -124.341467 
L 84.373372 -123.528466 
L 86.10451 -121.588931 
L 87.835648 -120.272537 
L 89.566786 -118.420784 
L 91.297924 -115.575819 
L 93.029062 -113.710897 
L 94.7602 -111.258514 
L 96.491339 -109.580326 
L 98.222477 -108.072968 
L 99.953615 -105.544479 
L 101.684753 -103.594956 
L 103.415891 -101.105357 
L 105.147029 -99.963173 
L 106.878168 -97.816183 
L 108.609306 -96.858544 
L 110.340444 -94.795175 
L 112.071582 -93.062265 
L 113.80272 -91.305758 
L 115.533858 -90.717192 
L 117.264996 -88.15575 
L 118.996135 -87.265699 
L 120.727273 -84.84296 
L 122.458411 -84.756512 
L 124.189549 -82.55396 
L 125.920687 -81.683755 
L 127.651825 -80.887119 
L 129.382963 -79.289339 
L 131.114102 -78.458225 
L 132.84524 -76.880162 
L 134.576378 -75.034801 
L 136.307516 -74.346969 
L 138.038654 -72.729883 
L 139.769792 -71.93068 
L 141.500931 -71.972638 
L 143.232069 -71.081662 
L 144.963207 -69.293833 
L 146.694345 -68.303686 
L 148.425483 -68.69269 
L 150.156621 -66.04736 
L 151.887759 -64.63781 
L 153.618898 -63.941357 
L 155.350036 -63.413487 
L 157.081174 -62.322002 
L 158.812312 -62.116618 
L 160.54345 -61.111098 
L 162.274588 -60.295462 
L 164.005727 -60.040713 
L 165.736865 -59.550167 
L 167.468003 -58.518645 
L 169.199141 -58.363484 
L 170.930279 -56.920275 
L 172.661417 -56.584003 
L 172.661417 -60.991374 
L 172.661417 -60.991374 
L 170.930279 -61.381674 
L 169.199141 -62.937977 
L 167.468003 -63.101575 
L 165.736865 -64.253226 
L 164.005727 -64.75998 
L 162.274588 -65.145707 
L 160.54345 -65.978338 
L 158.812312 -66.988371 
L 157.081174 -67.23895 
L 155.350036 -68.471513 
L 153.618898 -69.062416 
L 151.887759 -69.861278 
L 150.156621 -71.385251 
L 148.425483 -74.078427 
L 146.694345 -73.722036 
L 144.963207 -74.784167 
L 143.232069 -76.670798 
L 141.500931 -77.70905 
L 139.769792 -77.694678 
L 138.038654 -78.602987 
L 136.307516 -80.318439 
L 134.576378 -81.033785 
L 132.84524 -82.992631 
L 131.114102 -84.810354 
L 129.382963 -85.622378 
L 127.651825 -87.367648 
L 125.920687 -88.23797 
L 124.189549 -89.26913 
L 122.458411 -91.512546 
L 120.727273 -91.691598 
L 118.996135 -94.271737 
L 117.264996 -95.277395 
L 115.533858 -97.934241 
L 113.80272 -98.739589 
L 112.071582 -100.473068 
L 110.340444 -102.383501 
L 108.609306 -104.476485 
L 106.878168 -105.605798 
L 105.147029 -107.85929 
L 103.415891 -109.071864 
L 101.684753 -111.781196 
L 99.953615 -113.938293 
L 98.222477 -116.582449 
L 96.491339 -118.137624 
L 94.7602 -120.017321 
L 93.029062 -122.546881 
L 91.297924 -124.590233 
L 89.566786 -127.547303 
L 87.835648 -129.519307 
L 86.10451 -130.814687 
L 84.373372 -132.857118 
L 82.642233 -133.650485 
L 80.911095 -135.11501 
L 79.179957 -135.86199 
L 77.448819 -132.48612 
L 75.717681 -127.65955 
L 73.986543 -119.202623 
L 72.255404 -109.006656 
L 70.524266 -99.414979 
L 68.793128 -93.429695 
L 67.06199 -91.618008 
L 65.330852 -92.96982 
L 63.599714 -92.435733 
L 61.868576 -92.322152 
L 60.137437 -89.478859 
L 58.406299 -85.873357 
L 56.675161 -77.057003 
L 54.944023 -64.565736 
L 53.212885 -49.460539 
L 51.481747 -35.3048 
L 49.750608 -25.126308 
L 48.01947 -21.076681 
L 46.288332 -21.083233 
L 44.557194 -20.047404 
L 42.826056 -20.162429 
L 41.094918 -20.492626 
L 39.36378 -21.228467 
L 37.632641 -21.433247 
L 35.901503 -20.545307 
L 34.170365 -20.605348 
L 32.439227 -20.158119 
L 30.708089 -20.742935 
L 28.976951 -20.560371 
L 27.245812 -21.378731 
L 25.514674 -20.681621 
L 23.783536 -21.142037 
L 22.052398 -21.347067 
L 20.32126 -20.626162 
L 18.590122 -20.395139 
z
" style="stroke: #f6cd51; stroke-opacity: 0.3; stroke-width: 1.5"/>
    </defs>
    <g clip-path="url(#p499f2c2fa0)">
     <use xlink:href="#m2a3105e78e" x="0" y="152.617323" style="fill: #f6cd51; fill-opacity: 0.3; stroke: #f6cd51; stroke-opacity: 0.3; stroke-width: 1.5"/>
    </g>
   </g>
   <g id="PolyCollection_3">
    <defs>
     <path id="m79ccd484ef" d="M 18.590122 -20.606892 
L 18.590122 -16.755333 
L 20.32126 -18.344027 
L 22.052398 -18.781641 
L 23.783536 -18.799159 
L 25.514674 -18.974761 
L 27.245812 -19.95751 
L 28.976951 -17.183235 
L 30.708089 -20.657593 
L 32.439227 -17.279265 
L 34.170365 -16.964268 
L 35.901503 -18.773394 
L 37.632641 -19.155737 
L 39.36378 -16.78765 
L 41.094918 -17.428139 
L 42.826056 -20.00434 
L 44.557194 -19.264463 
L 46.288332 -19.34946 
L 48.01947 -20.612072 
L 49.750608 -19.34519 
L 51.481747 -24.669577 
L 53.212885 -36.565371 
L 54.944023 -54.060185 
L 56.675161 -66.282069 
L 58.406299 -73.31489 
L 60.137437 -78.984248 
L 61.868576 -78.68974 
L 63.599714 -79.28088 
L 65.330852 -78.663388 
L 67.06199 -77.58478 
L 68.793128 -77.505454 
L 70.524266 -75.907972 
L 72.255404 -80.233247 
L 73.986543 -88.516988 
L 75.717681 -93.569362 
L 77.448819 -100.236871 
L 79.179957 -98.570653 
L 80.911095 -98.728751 
L 82.642233 -98.885956 
L 84.373372 -98.699373 
L 86.10451 -96.701728 
L 87.835648 -94.074264 
L 89.566786 -92.942841 
L 91.297924 -89.273385 
L 93.029062 -86.972545 
L 94.7602 -86.877552 
L 96.491339 -85.894821 
L 98.222477 -84.474561 
L 99.953615 -80.087934 
L 101.684753 -79.818233 
L 103.415891 -77.80044 
L 105.147029 -76.400786 
L 106.878168 -75.418458 
L 108.609306 -74.290081 
L 110.340444 -73.723765 
L 112.071582 -71.370388 
L 113.80272 -70.506341 
L 115.533858 -69.273292 
L 117.264996 -67.792069 
L 118.996135 -70.06248 
L 120.727273 -66.728941 
L 122.458411 -64.662586 
L 124.189549 -66.467023 
L 125.920687 -62.576571 
L 127.651825 -63.330583 
L 129.382963 -60.318976 
L 131.114102 -60.81558 
L 132.84524 -59.530886 
L 134.576378 -57.84447 
L 136.307516 -55.96205 
L 138.038654 -55.490003 
L 139.769792 -56.96628 
L 141.500931 -54.758289 
L 143.232069 -54.213026 
L 144.963207 -52.801575 
L 146.694345 -51.598775 
L 148.425483 -50.289906 
L 150.156621 -52.491161 
L 151.887759 -50.311403 
L 153.618898 -49.212767 
L 155.350036 -45.989515 
L 157.081174 -46.004257 
L 158.812312 -43.340786 
L 160.54345 -46.103941 
L 162.274588 -43.407346 
L 164.005727 -43.396531 
L 165.736865 -42.245454 
L 167.468003 -41.175452 
L 169.199141 -40.552185 
L 170.930279 -42.404712 
L 172.661417 -42.71199 
L 172.661417 -49.908816 
L 172.661417 -49.908816 
L 170.930279 -49.59635 
L 169.199141 -47.808577 
L 167.468003 -48.427796 
L 165.736865 -49.680845 
L 164.005727 -50.874782 
L 162.274588 -50.930515 
L 160.54345 -53.640571 
L 158.812312 -51.069001 
L 157.081174 -53.919415 
L 155.350036 -53.931394 
L 153.618898 -57.279716 
L 151.887759 -58.515927 
L 150.156621 -60.844771 
L 148.425483 -58.556812 
L 146.694345 -60.074404 
L 144.963207 -61.433852 
L 143.232069 -63.10202 
L 141.500931 -63.62929 
L 139.769792 -66.131725 
L 138.038654 -64.955055 
L 136.307516 -65.33818 
L 134.576378 -67.460941 
L 132.84524 -69.686452 
L 131.114102 -70.508139 
L 129.382963 -70.23493 
L 127.651825 -73.787312 
L 125.920687 -72.970467 
L 124.189549 -76.885564 
L 122.458411 -75.644857 
L 120.727273 -77.834523 
L 118.996135 -81.134255 
L 117.264996 -79.04384 
L 115.533858 -80.860771 
L 113.80272 -82.245722 
L 112.071582 -83.287955 
L 110.340444 -85.664394 
L 108.609306 -86.53577 
L 106.878168 -87.80491 
L 105.147029 -89.079103 
L 103.415891 -90.618279 
L 101.684753 -92.807366 
L 99.953615 -93.488928 
L 98.222477 -97.932662 
L 96.491339 -99.776621 
L 94.7602 -100.802483 
L 93.029062 -101.216346 
L 91.297924 -103.836496 
L 89.566786 -107.50463 
L 87.835648 -108.921135 
L 86.10451 -111.479142 
L 84.373372 -113.768416 
L 82.642233 -113.842445 
L 80.911095 -113.599547 
L 79.179957 -113.010533 
L 77.448819 -114.083132 
L 75.717681 -106.578389 
L 73.986543 -100.194948 
L 72.255404 -90.267262 
L 70.524266 -85.900014 
L 68.793128 -87.211094 
L 67.06199 -87.703846 
L 65.330852 -88.45529 
L 63.599714 -89.230499 
L 61.868576 -88.072683 
L 60.137437 -87.748229 
L 58.406299 -81.275273 
L 56.675161 -72.610127 
L 54.944023 -58.707484 
L 53.212885 -39.934892 
L 51.481747 -27.54381 
L 49.750608 -21.777258 
L 48.01947 -23.117194 
L 46.288332 -21.76241 
L 44.557194 -21.907298 
L 42.826056 -22.660113 
L 41.094918 -20.637797 
L 39.36378 -20.453404 
L 37.632641 -22.951034 
L 35.901503 -22.363993 
L 34.170365 -20.720198 
L 32.439227 -20.859126 
L 30.708089 -24.503592 
L 28.976951 -21.142144 
L 27.245812 -23.52081 
L 25.514674 -22.855291 
L 23.783536 -22.288588 
L 22.052398 -22.362609 
L 20.32126 -22.089517 
L 18.590122 -20.606892 
z
" style="stroke: #d1a6de; stroke-opacity: 0.3; stroke-width: 1.5"/>
    </defs>
    <g clip-path="url(#p499f2c2fa0)">
     <use xlink:href="#m79ccd484ef" x="0" y="152.617323" style="fill: #d1a6de; fill-opacity: 0.3; stroke: #d1a6de; stroke-opacity: 0.3; stroke-width: 1.5"/>
    </g>
   </g>
   <g id="line2d_1">
    <path d="M 18.590122 129.245936 
L 20.32126 129.00633 
L 22.052398 129.838551 
L 23.783536 130.62406 
L 25.514674 131.22875 
L 27.245812 130.028837 
L 28.976951 130.509491 
L 30.708089 129.672847 
L 32.439227 131.176191 
L 34.170365 130.584352 
L 35.901503 131.27797 
L 37.632641 131.950847 
L 39.36378 131.121159 
L 41.094918 131.262372 
L 42.826056 131.732726 
L 44.557194 131.298662 
L 46.288332 132.473139 
L 48.01947 130.949211 
L 49.750608 125.499215 
L 51.481747 114.248546 
L 53.212885 100.410423 
L 54.944023 83.877084 
L 56.675161 73.37604 
L 58.406299 68.61966 
L 60.137437 65.958737 
L 61.868576 67.131734 
L 63.599714 67.065853 
L 65.330852 69.945008 
L 67.06199 70.716318 
L 68.793128 70.087353 
L 70.524266 63.796508 
L 72.255404 53.184535 
L 73.986543 40.608568 
L 75.717681 30.314846 
L 77.448819 29.900351 
L 79.179957 27.229385 
L 80.911095 27.849882 
L 82.642233 30.210826 
L 84.373372 32.916377 
L 86.10451 35.583392 
L 87.835648 35.308933 
L 89.566786 38.370968 
L 91.297924 42.634808 
L 93.029062 44.105629 
L 94.7602 46.035612 
L 96.491339 47.969613 
L 98.222477 50.641581 
L 99.953615 53.34974 
L 101.684753 54.46294 
L 103.415891 57.172381 
L 105.147029 58.696464 
L 106.878168 61.331642 
L 108.609306 62.871815 
L 110.340444 63.065333 
L 112.071582 66.215272 
L 113.80272 66.687628 
L 115.533858 69.383307 
L 117.264996 70.702788 
L 118.996135 69.813328 
L 120.727273 72.812148 
L 122.458411 73.93854 
L 124.189549 76.433695 
L 125.920687 76.812601 
L 127.651825 77.408429 
L 129.382963 76.597237 
L 131.114102 78.586654 
L 132.84524 80.072733 
L 134.576378 80.683033 
L 136.307516 81.136856 
L 138.038654 82.782035 
L 139.769792 83.671838 
L 141.500931 86.129518 
L 143.232069 85.373196 
L 144.963207 85.846202 
L 146.694345 87.57347 
L 148.425483 88.750241 
L 150.156621 90.474892 
L 151.887759 92.420827 
L 153.618898 92.417528 
L 155.350036 94.526927 
L 157.081174 95.669042 
L 158.812312 96.167937 
L 160.54345 97.816567 
L 162.274588 99.317216 
L 164.005727 99.230724 
L 165.736865 101.420188 
L 167.468003 102.594741 
L 169.199141 102.609272 
L 170.930279 102.244169 
L 172.661417 104.046484 
" clip-path="url(#p499f2c2fa0)" style="fill: none; stroke: #85a7eb; stroke-opacity: 0.7; stroke-linecap: square"/>
   </g>
   <g id="line2d_2">
    <path d="M 18.590122 133.045824 
L 20.32126 132.808588 
L 22.052398 132.0457 
L 23.783536 132.259959 
L 25.514674 132.704642 
L 27.245812 132.00461 
L 28.976951 132.801344 
L 30.708089 132.607368 
L 32.439227 133.181417 
L 34.170365 132.719058 
L 35.901503 132.800463 
L 37.632641 131.920402 
L 39.36378 132.08621 
L 41.094918 132.683399 
L 42.826056 132.912956 
L 44.557194 133.010852 
L 46.288332 132.000653 
L 48.01947 132.008794 
L 49.750608 128.107788 
L 51.481747 118.250292 
L 53.212885 104.540138 
L 54.944023 89.877657 
L 56.675161 77.755939 
L 58.406299 69.258087 
L 60.137437 65.808915 
L 61.868576 63.102078 
L 63.599714 63.052429 
L 65.330852 62.556425 
L 67.06199 63.933398 
L 68.793128 62.23898 
L 70.524266 56.478811 
L 72.255404 47.243733 
L 73.986543 37.423431 
L 75.717681 29.241055 
L 77.448819 24.632047 
L 79.179957 21.337962 
L 80.911095 22.112621 
L 82.642233 23.621347 
L 84.373372 24.424531 
L 86.10451 26.415514 
L 87.835648 27.721401 
L 89.566786 29.633279 
L 91.297924 32.534297 
L 93.029062 34.488434 
L 94.7602 36.979405 
L 96.491339 38.758347 
L 98.222477 40.289614 
L 99.953615 42.875937 
L 101.684753 44.929246 
L 103.415891 47.528713 
L 105.147029 48.706092 
L 106.878168 50.906333 
L 108.609306 51.949808 
L 110.340444 54.027985 
L 112.071582 55.849656 
L 113.80272 57.594649 
L 115.533858 58.291607 
L 117.264996 60.90075 
L 118.996135 61.848605 
L 120.727273 64.350044 
L 122.458411 64.482794 
L 124.189549 66.705778 
L 125.920687 67.65646 
L 127.651825 68.489939 
L 129.382963 70.161464 
L 131.114102 70.983033 
L 132.84524 72.680926 
L 134.576378 74.58303 
L 136.307516 75.284619 
L 138.038654 76.950888 
L 139.769792 77.804644 
L 141.500931 77.776479 
L 143.232069 78.741092 
L 144.963207 80.578323 
L 146.694345 81.604462 
L 148.425483 81.231765 
L 150.156621 83.901017 
L 151.887759 85.367779 
L 153.618898 86.115436 
L 155.350036 86.674823 
L 157.081174 87.836847 
L 158.812312 88.064829 
L 160.54345 89.072605 
L 162.274588 89.896738 
L 164.005727 90.216977 
L 165.736865 90.715626 
L 167.468003 91.807212 
L 169.199141 91.966592 
L 170.930279 93.466348 
L 172.661417 93.829634 
" clip-path="url(#p499f2c2fa0)" style="fill: none; stroke: #f6cd51; stroke-opacity: 0.7; stroke-linecap: square"/>
   </g>
   <g id="line2d_3">
    <path d="M 18.590122 133.93621 
L 20.32126 132.400551 
L 22.052398 132.045198 
L 23.783536 132.073449 
L 25.514674 131.702297 
L 27.245812 130.878163 
L 28.976951 133.454633 
L 30.708089 130.03673 
L 32.439227 133.548127 
L 34.170365 133.77509 
L 35.901503 132.04863 
L 37.632641 131.563937 
L 39.36378 133.996796 
L 41.094918 133.584355 
L 42.826056 131.285096 
L 44.557194 132.031443 
L 46.288332 132.061388 
L 48.01947 130.75269 
L 49.750608 132.056099 
L 51.481747 126.510629 
L 53.212885 114.367191 
L 54.944023 96.233489 
L 56.675161 83.171225 
L 58.406299 75.322241 
L 60.137437 69.251085 
L 61.868576 69.236111 
L 63.599714 68.361633 
L 65.330852 69.057984 
L 67.06199 69.97301 
L 68.793128 70.259049 
L 70.524266 71.71333 
L 72.255404 67.367069 
L 73.986543 58.261355 
L 75.717681 52.543447 
L 77.448819 45.457321 
L 79.179957 46.82673 
L 80.911095 46.453174 
L 82.642233 46.253122 
L 84.373372 46.383428 
L 86.10451 48.526888 
L 87.835648 51.119623 
L 89.566786 52.393588 
L 91.297924 56.062383 
L 93.029062 58.522877 
L 94.7602 58.777305 
L 96.491339 59.781602 
L 98.222477 61.413711 
L 99.953615 65.828892 
L 101.684753 66.304523 
L 103.415891 68.407963 
L 105.147029 69.877378 
L 106.878168 71.005639 
L 108.609306 72.204397 
L 110.340444 72.923243 
L 112.071582 75.288151 
L 113.80272 76.241292 
L 115.533858 77.550291 
L 117.264996 79.199368 
L 118.996135 77.018956 
L 120.727273 80.335591 
L 122.458411 82.463601 
L 124.189549 80.941029 
L 125.920687 84.843804 
L 127.651825 84.058375 
L 129.382963 87.34037 
L 131.114102 86.955463 
L 132.84524 88.008654 
L 134.576378 89.964618 
L 136.307516 91.967208 
L 138.038654 92.394794 
L 139.769792 91.06832 
L 141.500931 93.423534 
L 143.232069 93.9598 
L 144.963207 95.499609 
L 146.694345 96.780733 
L 148.425483 98.193964 
L 150.156621 95.949357 
L 151.887759 98.203658 
L 153.618898 99.371081 
L 155.350036 102.656868 
L 157.081174 102.655487 
L 158.812312 105.412429 
L 160.54345 102.745067 
L 162.274588 105.448392 
L 164.005727 105.481666 
L 165.736865 106.654173 
L 167.468003 107.815699 
L 169.199141 108.436942 
L 170.930279 106.616792 
L 172.661417 106.30692 
" clip-path="url(#p499f2c2fa0)" style="fill: none; stroke: #d1a6de; stroke-opacity: 0.7; stroke-linecap: square"/>
   </g>
   <g id="line2d_4">
    <path d="M 44.557194 134.233443 
L 48.002159 134.233443 
L 48.002159 134.233443 
" clip-path="url(#p499f2c2fa0)" style="fill: none; stroke: #ff0000; stroke-opacity: 0.5; stroke-width: 1.5; stroke-linecap: square"/>
   </g>
   <g id="line2d_5">
    <path d="M 61.003006 134.233443 
L 64.447971 134.233443 
L 64.447971 134.233443 
" clip-path="url(#p499f2c2fa0)" style="fill: none; stroke: #ff0000; stroke-opacity: 0.5; stroke-width: 1.5; stroke-linecap: square"/>
   </g>
   <g id="line2d_6">
    <path d="M 174.392555 60.590858 
L 174.392555 42.407504 
" clip-path="url(#p499f2c2fa0)" style="fill: none; stroke: #000000; stroke-linecap: square"/>
   </g>
   <g id="line2d_7">
    <path d="M 148.425483 60.590858 
L 174.392555 60.590858 
" clip-path="url(#p499f2c2fa0)" style="fill: none; stroke: #000000; stroke-linecap: square"/>
   </g>
   <g id="text_1">
    <text style="font: 8px 'DejaVu Sans', 'Bitstream Vera Sans', 'Computer Modern Sans Serif', 'Lucida Grande', 'Verdana', 'Geneva', 'Lucid', 'Arial', 'Helvetica', 'Avant Garde', sans-serif; text-anchor: end" x="172.661417" y="49.160843" transform="rotate(-0 172.661417 49.160843)">0.02 dF/F</text>
   </g>
   <g id="text_2">
    <text style="font: 8px 'DejaVu Sans', 'Bitstream Vera Sans', 'Computer Modern Sans Serif', 'Lucida Grande', 'Verdana', 'Geneva', 'Lucid', 'Arial', 'Helvetica', 'Avant Garde', sans-serif; text-anchor: end" x="172.661417" y="57.577931" transform="rotate(-0 172.661417 57.577931)">0.5 sec</text>
   </g>
   <g id="legend_1">
    <g id="line2d_8">
     <path d="M 18 21.27875 
L 26 21.27875 
L 34 21.27875 
" style="fill: none; stroke: #85a7eb; stroke-opacity: 0.7; stroke-linecap: square"/>
    </g>
    <g id="text_3">
     <text style="font: 8px 'DejaVu Sans', 'Bitstream Vera Sans', 'Computer Modern Sans Serif', 'Lucida Grande', 'Verdana', 'Geneva', 'Lucid', 'Arial', 'Helvetica', 'Avant Garde', sans-serif; text-anchor: start" x="40.4" y="24.07875" transform="rotate(-0 40.4 24.07875)">V1</text>
    </g>
    <g id="line2d_9">
     <path d="M 18 33.02125 
L 26 33.02125 
L 34 33.02125 
" style="fill: none; stroke: #f6cd51; stroke-opacity: 0.7; stroke-linecap: square"/>
    </g>
    <g id="text_4">
     <text style="font: 8px 'DejaVu Sans', 'Bitstream Vera Sans', 'Computer Modern Sans Serif', 'Lucida Grande', 'Verdana', 'Geneva', 'Lucid', 'Arial', 'Helvetica', 'Avant Garde', sans-serif; text-anchor: start" x="40.4" y="35.82125" transform="rotate(-0 40.4 35.82125)">LM</text>
    </g>
    <g id="line2d_10">
     <path d="M 18 44.76375 
L 26 44.76375 
L 34 44.76375 
" style="fill: none; stroke: #d1a6de; stroke-opacity: 0.7; stroke-linecap: square"/>
    </g>
    <g id="text_5">
     <text style="font: 8px 'DejaVu Sans', 'Bitstream Vera Sans', 'Computer Modern Sans Serif', 'Lucida Grande', 'Verdana', 'Geneva', 'Lucid', 'Arial', 'Helvetica', 'Avant Garde', sans-serif; text-anchor: start" x="40.4" y="47.56375" transform="rotate(-0 40.4 47.56375)">LI</text>
    </g>
   </g>
  </g>
 </g>
 <defs>
  <clipPath id="p499f2c2fa0">
   <rect x="10.8" y="10.8" width="171.382677" height="131.017323"/>
  </clipPath>
 </defs>
</svg>
