<?xml version="1.0" encoding="utf-8" standalone="no"?>
<!DOCTYPE svg PUBLIC "-//W3C//DTD SVG 1.1//EN"
  "http://www.w3.org/Graphics/SVG/1.1/DTD/svg11.dtd">
<svg xmlns:xlink="http://www.w3.org/1999/xlink" width="432pt" height="432pt" viewBox="0 0 432 432" xmlns="http://www.w3.org/2000/svg" version="1.1">
 <metadata>
  <rdf:RDF xmlns:dc="http://purl.org/dc/elements/1.1/" xmlns:cc="http://creativecommons.org/ns#" xmlns:rdf="http://www.w3.org/1999/02/22-rdf-syntax-ns#">
   <cc:Work>
    <dc:type rdf:resource="http://purl.org/dc/dcmitype/StillImage"/>
    <dc:date>2023-12-12T13:08:21.368389</dc:date>
    <dc:format>image/svg+xml</dc:format>
    <dc:creator>
     <cc:Agent>
      <dc:title>Matplotlib v3.7.2, https://matplotlib.org/</dc:title>
     </cc:Agent>
    </dc:creator>
   </cc:Work>
  </rdf:RDF>
 </metadata>
 <defs>
  <style type="text/css">*{stroke-linejoin: round; stroke-linecap: butt}</style>
 </defs>
 <g id="figure_1">
  <g id="patch_1">
   <path d="M 0 432 
L 432 432 
L 432 0 
L 0 0 
z
" style="fill: #ffffff"/>
  </g>
  <g id="axes_1">
   <g id="patch_2">
    <path d="M 92.82006 364.38 
L 414.683182 364.38 
L 414.683182 17.28 
L 92.82006 17.28 
z
" style="fill: #ffffff"/>
   </g>
   <g id="PolyCollection_1">
    <defs>
     <path id="m3203959d6e" d="M 107.450202 -77.12641 
L 107.450202 -404.222398 
L 110.405786 -411.364607 
L 113.36137 -385.343337 
L 116.316954 -361.641684 
L 119.272539 -366.948611 
L 122.228123 -341.300492 
L 125.183707 -345.279545 
L 128.139291 -334.807796 
L 131.094875 -343.087623 
L 134.05046 -321.537034 
L 137.006044 -339.811652 
L 139.961628 -318.448296 
L 142.917212 -303.779713 
L 145.872797 -313.199662 
L 148.828381 -269.946307 
L 151.783965 -284.204926 
L 154.739549 -264.017102 
L 157.695133 -265.494729 
L 160.650718 -264.085922 
L 163.606302 -255.374754 
L 166.561886 -251.634947 
L 169.51747 -249.588074 
L 172.473055 -247.057605 
L 175.428639 -247.474721 
L 178.384223 -245.954368 
L 181.339807 -244.589891 
L 184.295392 -246.726163 
L 187.250976 -243.430045 
L 190.20656 -242.446393 
L 193.162144 -239.525272 
L 196.117728 -239.627679 
L 199.073313 -240.5615 
L 202.028897 -242.862653 
L 204.984481 -239.485084 
L 207.940065 -239.36578 
L 210.89565 -238.488796 
L 213.851234 -238.076217 
L 216.806818 -240.069077 
L 219.762402 -238.58428 
L 222.717986 -237.252119 
L 225.673571 -236.993988 
L 228.629155 -237.886129 
L 231.584739 -236.108287 
L 234.540323 -236.527562 
L 237.495908 -236.157798 
L 240.451492 -236.483929 
L 243.407076 -234.939479 
L 246.36266 -234.577098 
L 249.318244 -236.337291 
L 252.273829 -236.10267 
L 255.229413 -235.820425 
L 258.184997 -235.487093 
L 261.140581 -235.485403 
L 264.096166 -234.9002 
L 267.05175 -235.045525 
L 270.007334 -236.111037 
L 272.962918 -236.439501 
L 275.918502 -235.525538 
L 278.874087 -235.530178 
L 281.829671 -233.527536 
L 284.785255 -234.945857 
L 287.740839 -234.442455 
L 290.696424 -232.469042 
L 293.652008 -233.500314 
L 296.607592 -234.392568 
L 299.563176 -233.993927 
L 302.51876 -233.890737 
L 305.474345 -234.681558 
L 308.429929 -234.575497 
L 311.385513 -233.309842 
L 314.341097 -234.661279 
L 317.296682 -234.312049 
L 320.252266 -232.930375 
L 323.20785 -233.367898 
L 326.163434 -232.809534 
L 329.119019 -234.024608 
L 332.074603 -234.165994 
L 335.030187 -231.639051 
L 337.985771 -233.269944 
L 340.941355 -233.293622 
L 343.89694 -233.541055 
L 346.852524 -233.348178 
L 349.808108 -233.964423 
L 352.763692 -233.033468 
L 355.719277 -232.556282 
L 358.674861 -231.674275 
L 361.630445 -232.918321 
L 364.586029 -232.497545 
L 367.541613 -233.004444 
L 370.497198 -233.152409 
L 373.452782 -232.818364 
L 376.408366 -233.165918 
L 379.36395 -232.399267 
L 382.319535 -231.511019 
L 385.275119 -232.855931 
L 388.230703 -231.790946 
L 391.186287 -233.830677 
L 394.141871 -233.751654 
L 397.097456 -233.645889 
L 400.05304 -232.698405 
L 400.05304 -222.208221 
L 400.05304 -222.208221 
L 397.097456 -222.172071 
L 394.141871 -222.248622 
L 391.186287 -222.169391 
L 388.230703 -221.833852 
L 385.275119 -222.135186 
L 382.319535 -220.912401 
L 379.36395 -221.341215 
L 376.408366 -221.724335 
L 373.452782 -221.874742 
L 370.497198 -220.296659 
L 367.541613 -220.651416 
L 364.586029 -220.728292 
L 361.630445 -221.743848 
L 358.674861 -220.129392 
L 355.719277 -220.320636 
L 352.763692 -220.851124 
L 349.808108 -220.616779 
L 346.852524 -219.784381 
L 343.89694 -220.722844 
L 340.941355 -220.048261 
L 337.985771 -220.743293 
L 335.030187 -219.440351 
L 332.074603 -221.781983 
L 329.119019 -221.292371 
L 326.163434 -219.075326 
L 323.20785 -219.527517 
L 320.252266 -219.336492 
L 317.296682 -219.558542 
L 314.341097 -220.604496 
L 311.385513 -218.867687 
L 308.429929 -219.601707 
L 305.474345 -218.737392 
L 302.51876 -218.873432 
L 299.563176 -218.615796 
L 296.607592 -219.317451 
L 293.652008 -218.498685 
L 290.696424 -218.112607 
L 287.740839 -218.745951 
L 284.785255 -219.634009 
L 281.829671 -218.709802 
L 278.874087 -219.689114 
L 275.918502 -218.430587 
L 272.962918 -219.773817 
L 270.007334 -218.94168 
L 267.05175 -218.835496 
L 264.096166 -218.129575 
L 261.140581 -217.207542 
L 258.184997 -217.768815 
L 255.229413 -218.160552 
L 252.273829 -217.074184 
L 249.318244 -217.435802 
L 246.36266 -217.961225 
L 243.407076 -217.16754 
L 240.451492 -216.839464 
L 237.495908 -218.592324 
L 234.540323 -217.99189 
L 231.584739 -217.293671 
L 228.629155 -217.233612 
L 225.673571 -215.348004 
L 222.717986 -216.62996 
L 219.762402 -216.181916 
L 216.806818 -213.154413 
L 213.851234 -215.497811 
L 210.89565 -214.776801 
L 207.940065 -216.171181 
L 204.984481 -215.443715 
L 202.028897 -208.742911 
L 199.073313 -213.322311 
L 196.117728 -211.247873 
L 193.162144 -212.058924 
L 190.20656 -208.717351 
L 187.250976 -208.194542 
L 184.295392 -205.616312 
L 181.339807 -205.956019 
L 178.384223 -207.457529 
L 175.428639 -206.038602 
L 172.473055 -204.191258 
L 169.51747 -202.447886 
L 166.561886 -201.233175 
L 163.606302 -197.906003 
L 160.650718 -187.996135 
L 157.695133 -187.073809 
L 154.739549 -189.327064 
L 151.783965 -167.030542 
L 148.828381 -178.390365 
L 145.872797 -147.666414 
L 142.917212 -150.613228 
L 139.961628 -145.93776 
L 137.006044 -135.122452 
L 134.05046 -144.532094 
L 131.094875 -131.58354 
L 128.139291 -137.953995 
L 125.183707 -129.749643 
L 122.228123 -132.197654 
L 119.272539 -111.416952 
L 116.316954 -115.774216 
L 113.36137 -94.825224 
L 110.405786 -70.774582 
L 107.450202 -77.12641 
z
" style="stroke: #000080; stroke-opacity: 0.2; stroke-width: 1.5"/>
    </defs>
    <g clip-path="url(#pda5376002f)">
     <use xlink:href="#m3203959d6e" x="0" y="432" style="fill: #000080; fill-opacity: 0.2; stroke: #000080; stroke-opacity: 0.2; stroke-width: 1.5"/>
    </g>
   </g>
   <g id="matplotlib.axis_1">
    <g id="xtick_1">
     <g id="line2d_1">
      <defs>
       <path id="m96c40758cc" d="M 0 0 
L 0 9 
" style="stroke: #000000; stroke-width: 1.875"/>
      </defs>
      <g>
       <use xlink:href="#m96c40758cc" x="104.494617" y="364.38" style="stroke: #000000; stroke-width: 1.875"/>
      </g>
     </g>
     <g id="text_1">
      <text style="font: 16px 'DejaVu Sans', 'Bitstream Vera Sans', 'Computer Modern Sans Serif', 'Lucida Grande', 'Verdana', 'Geneva', 'Lucid', 'Arial', 'Helvetica', 'Avant Garde', sans-serif; text-anchor: middle" x="104.494617" y="389.0375" transform="rotate(-0 104.494617 389.0375)">0</text>
     </g>
    </g>
    <g id="xtick_2">
     <g id="line2d_2">
      <g>
       <use xlink:href="#m96c40758cc" x="163.606302" y="364.38" style="stroke: #000000; stroke-width: 1.875"/>
      </g>
     </g>
     <g id="text_2">
      <text style="font: 16px 'DejaVu Sans', 'Bitstream Vera Sans', 'Computer Modern Sans Serif', 'Lucida Grande', 'Verdana', 'Geneva', 'Lucid', 'Arial', 'Helvetica', 'Avant Garde', sans-serif; text-anchor: middle" x="163.606302" y="389.0375" transform="rotate(-0 163.606302 389.0375)">20</text>
     </g>
    </g>
    <g id="xtick_3">
     <g id="line2d_3">
      <g>
       <use xlink:href="#m96c40758cc" x="222.717986" y="364.38" style="stroke: #000000; stroke-width: 1.875"/>
      </g>
     </g>
     <g id="text_3">
      <text style="font: 16px 'DejaVu Sans', 'Bitstream Vera Sans', 'Computer Modern Sans Serif', 'Lucida Grande', 'Verdana', 'Geneva', 'Lucid', 'Arial', 'Helvetica', 'Avant Garde', sans-serif; text-anchor: middle" x="222.717986" y="389.0375" transform="rotate(-0 222.717986 389.0375)">40</text>
     </g>
    </g>
    <g id="xtick_4">
     <g id="line2d_4">
      <g>
       <use xlink:href="#m96c40758cc" x="281.829671" y="364.38" style="stroke: #000000; stroke-width: 1.875"/>
      </g>
     </g>
     <g id="text_4">
      <text style="font: 16px 'DejaVu Sans', 'Bitstream Vera Sans', 'Computer Modern Sans Serif', 'Lucida Grande', 'Verdana', 'Geneva', 'Lucid', 'Arial', 'Helvetica', 'Avant Garde', sans-serif; text-anchor: middle" x="281.829671" y="389.0375" transform="rotate(-0 281.829671 389.0375)">60</text>
     </g>
    </g>
    <g id="xtick_5">
     <g id="line2d_5">
      <g>
       <use xlink:href="#m96c40758cc" x="340.941355" y="364.38" style="stroke: #000000; stroke-width: 1.875"/>
      </g>
     </g>
     <g id="text_5">
      <text style="font: 16px 'DejaVu Sans', 'Bitstream Vera Sans', 'Computer Modern Sans Serif', 'Lucida Grande', 'Verdana', 'Geneva', 'Lucid', 'Arial', 'Helvetica', 'Avant Garde', sans-serif; text-anchor: middle" x="340.941355" y="389.0375" transform="rotate(-0 340.941355 389.0375)">80</text>
     </g>
    </g>
    <g id="xtick_6">
     <g id="line2d_6">
      <g>
       <use xlink:href="#m96c40758cc" x="400.05304" y="364.38" style="stroke: #000000; stroke-width: 1.875"/>
      </g>
     </g>
     <g id="text_6">
      <text style="font: 16px 'DejaVu Sans', 'Bitstream Vera Sans', 'Computer Modern Sans Serif', 'Lucida Grande', 'Verdana', 'Geneva', 'Lucid', 'Arial', 'Helvetica', 'Avant Garde', sans-serif; text-anchor: middle" x="400.05304" y="389.0375" transform="rotate(-0 400.05304 389.0375)">100</text>
     </g>
    </g>
    <g id="text_7">
     <text style="font: 18px 'DejaVu Sans', 'Bitstream Vera Sans', 'Computer Modern Sans Serif', 'Lucida Grande', 'Verdana', 'Geneva', 'Lucid', 'Arial', 'Helvetica', 'Avant Garde', sans-serif; text-anchor: middle" x="253.751621" y="410.042187" transform="rotate(-0 253.751621 410.042187)">Number of trials grouped together</text>
    </g>
   </g>
   <g id="matplotlib.axis_2">
    <g id="ytick_1">
     <g id="line2d_7">
      <defs>
       <path id="maf93913fa8" d="M 0 0 
L -9 0 
" style="stroke: #000000; stroke-width: 1.875"/>
      </defs>
      <g>
       <use xlink:href="#maf93913fa8" x="92.82006" y="332.030032" style="stroke: #000000; stroke-width: 1.875"/>
      </g>
     </g>
     <g id="text_8">
      <!-- $\mathdefault{-10^{1}}$ -->
      <g transform="translate(38.72006 338.108782)">
       <text>
        <tspan style="font: 16px 'DejaVu Sans'" x="0 13.40625 23.585938" y="-0.7046875000000004">−10</tspan>
        <tspan style="font: 11.2px 'DejaVu Sans'" x="33.91875" y="-6.8296875">1</tspan>
       </text>
      </g>
     </g>
    </g>
    <g id="ytick_2">
     <g id="line2d_8">
      <g>
       <use xlink:href="#maf93913fa8" x="92.82006" y="233.472118" style="stroke: #000000; stroke-width: 1.875"/>
      </g>
     </g>
     <g id="text_9">
      <!-- $\mathdefault{-10^{0}}$ -->
      <g transform="translate(38.72006 239.550868)">
       <text>
        <tspan style="font: 16px 'DejaVu Sans'" x="0 13.40625 23.585938" y="-0.5625">−10</tspan>
        <tspan style="font: 11.2px 'DejaVu Sans'" x="33.91875" y="-6.6875">0</tspan>
       </text>
      </g>
     </g>
    </g>
    <g id="ytick_3">
     <g id="line2d_9">
      <g>
       <use xlink:href="#maf93913fa8" x="92.82006" y="189.826617" style="stroke: #000000; stroke-width: 1.875"/>
      </g>
     </g>
     <g id="text_10">
      <!-- $\mathdefault{0}$ -->
      <g transform="translate(70.08006 195.905367)">
       <text>
        <tspan style="font: 16px 'DejaVu Sans'" x="0" y="-0.125">0</tspan>
       </text>
      </g>
     </g>
    </g>
    <g id="ytick_4">
     <g id="line2d_10">
      <g>
       <use xlink:href="#maf93913fa8" x="92.82006" y="146.181116" style="stroke: #000000; stroke-width: 1.875"/>
      </g>
     </g>
     <g id="text_11">
      <!-- $\mathdefault{10^{0}}$ -->
      <g transform="translate(52.16006 152.259866)">
       <text>
        <tspan style="font: 16px 'DejaVu Sans'" x="0 10.179688" y="-0.5625">10</tspan>
        <tspan style="font: 11.2px 'DejaVu Sans'" x="20.5125" y="-6.6875">0</tspan>
       </text>
      </g>
     </g>
    </g>
    <g id="ytick_5">
     <g id="line2d_11">
      <g>
       <use xlink:href="#maf93913fa8" x="92.82006" y="47.623202" style="stroke: #000000; stroke-width: 1.875"/>
      </g>
     </g>
     <g id="text_12">
      <!-- $\mathdefault{10^{1}}$ -->
      <g transform="translate(52.16006 53.701952)">
       <text>
        <tspan style="font: 16px 'DejaVu Sans'" x="0 10.179688" y="-0.7046875000000004">10</tspan>
        <tspan style="font: 11.2px 'DejaVu Sans'" x="20.5125" y="-6.8296875">1</tspan>
       </text>
      </g>
     </g>
    </g>
    <g id="text_13">
     <text style="font: 18px 'DejaVu Sans', 'Bitstream Vera Sans', 'Computer Modern Sans Serif', 'Lucida Grande', 'Verdana', 'Geneva', 'Lucid', 'Arial', 'Helvetica', 'Avant Garde', sans-serif; text-anchor: middle" x="30.976622" y="190.83" transform="rotate(-90 30.976622 190.83)">Adaptation index across groups</text>
    </g>
   </g>
   <g id="line2d_12">
    <path d="M 107.450202 225.683256 
L 110.405786 221.998571 
L 113.36137 219.072784 
L 116.316954 215.071127 
L 119.272539 214.915675 
L 122.228123 212.939296 
L 125.183707 211.61395 
L 128.139291 210.464699 
L 131.094875 211.160145 
L 134.05046 209.258251 
L 137.006044 208.604493 
L 139.961628 208.416696 
L 142.917212 208.486485 
L 145.872797 208.238482 
L 148.828381 207.831664 
L 151.783965 206.382266 
L 154.739549 205.327917 
L 157.695133 205.715731 
L 160.650718 205.958971 
L 163.606302 205.359622 
L 166.561886 205.565939 
L 169.51747 205.98202 
L 172.473055 206.375569 
L 175.428639 205.243338 
L 178.384223 205.294052 
L 181.339807 206.727045 
L 184.295392 205.828762 
L 187.250976 206.187707 
L 190.20656 206.418128 
L 193.162144 206.207902 
L 196.117728 206.562224 
L 199.073313 205.058094 
L 202.028897 206.197218 
L 204.984481 204.5356 
L 207.940065 204.23152 
L 210.89565 205.367202 
L 213.851234 205.212986 
L 216.806818 205.388255 
L 219.762402 204.616902 
L 222.717986 205.05896 
L 225.673571 205.829004 
L 228.629155 204.44013 
L 231.584739 205.299021 
L 234.540323 204.740274 
L 237.495908 204.624939 
L 240.451492 205.338303 
L 243.407076 205.946491 
L 246.36266 205.730838 
L 249.318244 205.113454 
L 252.273829 205.411573 
L 255.229413 205.009512 
L 258.184997 205.372046 
L 261.140581 205.653527 
L 264.096166 205.485113 
L 267.05175 205.059489 
L 270.007334 204.473641 
L 272.962918 203.893341 
L 275.918502 205.021937 
L 278.874087 204.390354 
L 281.829671 205.881331 
L 284.785255 204.710067 
L 287.740839 205.405797 
L 290.696424 206.709175 
L 293.652008 206.000501 
L 296.607592 205.14499 
L 299.563176 205.695138 
L 302.51876 205.617915 
L 305.474345 205.290525 
L 308.429929 204.911398 
L 311.385513 205.911235 
L 314.341097 204.367113 
L 317.296682 205.064704 
L 320.252266 205.866566 
L 323.20785 205.552292 
L 326.163434 206.05757 
L 329.119019 204.34151 
L 332.074603 204.026011 
L 335.030187 206.460299 
L 337.985771 204.993382 
L 340.941355 205.329059 
L 343.89694 204.86805 
L 346.852524 205.433721 
L 349.808108 204.709399 
L 352.763692 205.057704 
L 355.719277 205.561541 
L 358.674861 206.098166 
L 361.630445 204.668915 
L 364.586029 205.387081 
L 367.541613 205.17207 
L 370.497198 205.275466 
L 373.452782 204.653447 
L 376.408366 204.554874 
L 379.36395 205.129759 
L 382.319535 205.78829 
L 385.275119 204.504441 
L 388.230703 205.187601 
L 391.186287 203.999966 
L 394.141871 203.999862 
L 397.097456 204.09102 
L 400.05304 204.546687 
" clip-path="url(#pda5376002f)" style="fill: none; stroke: #000080; stroke-opacity: 0.7; stroke-width: 3; stroke-linecap: square"/>
   </g>
   <g id="line2d_13">
    <path d="M 92.82006 189.826617 
L 414.683182 189.826617 
" clip-path="url(#pda5376002f)" style="fill: none; stroke-dasharray: 3.7,1.6; stroke-dashoffset: 0; stroke: #000000"/>
   </g>
   <g id="patch_3">
    <path d="M 92.82006 364.38 
L 92.82006 17.28 
" style="fill: none; stroke: #000000; stroke-width: 2; stroke-linejoin: miter; stroke-linecap: square"/>
   </g>
   <g id="patch_4">
    <path d="M 92.82006 364.38 
L 414.683182 364.38 
" style="fill: none; stroke: #000000; stroke-width: 2; stroke-linejoin: miter; stroke-linecap: square"/>
   </g>
  </g>
 </g>
 <defs>
  <clipPath id="pda5376002f">
   <rect x="92.82006" y="17.28" width="321.863122" height="347.1"/>
  </clipPath>
 </defs>
</svg>
