<?xml version="1.0" encoding="utf-8" standalone="no"?>
<!DOCTYPE svg PUBLIC "-//W3C//DTD SVG 1.1//EN"
  "http://www.w3.org/Graphics/SVG/1.1/DTD/svg11.dtd">
<svg xmlns:xlink="http://www.w3.org/1999/xlink" width="432pt" height="432pt" viewBox="0 0 432 432" xmlns="http://www.w3.org/2000/svg" version="1.1">
 <metadata>
  <rdf:RDF xmlns:dc="http://purl.org/dc/elements/1.1/" xmlns:cc="http://creativecommons.org/ns#" xmlns:rdf="http://www.w3.org/1999/02/22-rdf-syntax-ns#">
   <cc:Work>
    <dc:type rdf:resource="http://purl.org/dc/dcmitype/StillImage"/>
    <dc:date>2023-11-20T16:15:16.427798</dc:date>
    <dc:format>image/svg+xml</dc:format>
    <dc:creator>
     <cc:Agent>
      <dc:title>Matplotlib v3.7.2, https://matplotlib.org/</dc:title>
     </cc:Agent>
    </dc:creator>
   </cc:Work>
  </rdf:RDF>
 </metadata>
 <defs>
  <style type="text/css">*{stroke-linejoin: round; stroke-linecap: butt}</style>
 </defs>
 <g id="figure_1">
  <g id="patch_1">
   <path d="M 0 432 
L 432 432 
L 432 0 
L 0 0 
z
" style="fill: #ffffff"/>
  </g>
  <g id="axes_1">
   <g id="patch_2">
    <path d="M 83.37 370.86 
L 421.163182 370.86 
L 421.163182 10.8 
L 83.37 10.8 
z
" style="fill: #ffffff"/>
   </g>
   <g id="PolyCollection_1">
    <defs>
     <path id="mfabf7fe038" d="M 98.724236 -77.506364 
L 98.724236 -381.910005 
L 101.826101 -377.833457 
L 104.927967 -352.123579 
L 108.029833 -339.151101 
L 111.131699 -338.375882 
L 114.233564 -327.207583 
L 117.33543 -325.374988 
L 120.437296 -316.903491 
L 123.539162 -316.99526 
L 126.641027 -313.282397 
L 129.742893 -316.506627 
L 132.844759 -311.462239 
L 135.946625 -304.851571 
L 139.04849 -305.097115 
L 142.150356 -293.274851 
L 145.252222 -297.147068 
L 148.354088 -297.632276 
L 151.455954 -295.202256 
L 154.557819 -298.089358 
L 157.659685 -293.706203 
L 160.761551 -291.909925 
L 163.863417 -291.216748 
L 166.965282 -286.630905 
L 170.067148 -289.643688 
L 173.169014 -290.841514 
L 176.27088 -288.449292 
L 179.372745 -288.078033 
L 182.474611 -289.347987 
L 185.576477 -287.954799 
L 188.678343 -288.460659 
L 191.780208 -287.16144 
L 194.882074 -288.865767 
L 197.98394 -289.273648 
L 201.085806 -289.911174 
L 204.187672 -290.393077 
L 207.289537 -290.508461 
L 210.391403 -290.336875 
L 213.493269 -287.997636 
L 216.595135 -288.36606 
L 219.697 -287.402539 
L 222.798866 -288.840906 
L 225.900732 -288.211176 
L 229.002598 -287.749543 
L 232.104463 -289.816371 
L 235.206329 -289.796091 
L 238.308195 -288.287799 
L 241.410061 -288.19272 
L 244.511926 -288.931574 
L 247.613792 -289.019936 
L 250.715658 -287.876768 
L 253.817524 -288.687655 
L 256.91939 -288.352908 
L 260.021255 -287.405378 
L 263.123121 -288.195112 
L 266.224987 -289.914063 
L 269.326853 -289.043093 
L 272.428718 -289.080971 
L 275.530584 -286.759979 
L 278.63245 -287.175434 
L 281.734316 -288.199154 
L 284.836181 -287.893187 
L 287.938047 -287.967639 
L 291.039913 -284.637457 
L 294.141779 -287.12463 
L 297.243645 -286.440437 
L 300.34551 -288.713488 
L 303.447376 -286.19251 
L 306.549242 -285.943146 
L 309.651108 -287.034408 
L 312.752973 -286.413038 
L 315.854839 -288.01822 
L 318.956705 -287.577017 
L 322.058571 -286.669414 
L 325.160436 -289.534652 
L 328.262302 -289.306319 
L 331.364168 -287.748828 
L 334.466034 -287.534447 
L 337.567899 -285.782728 
L 340.669765 -287.11433 
L 343.771631 -288.156599 
L 346.873497 -289.027701 
L 349.975363 -287.135129 
L 353.077228 -287.131562 
L 356.179094 -287.983157 
L 359.28096 -285.885119 
L 362.382826 -288.475194 
L 365.484691 -288.1111 
L 368.586557 -288.251506 
L 371.688423 -288.376143 
L 374.790289 -288.578926 
L 377.892154 -287.576794 
L 380.99402 -288.031119 
L 384.095886 -288.531997 
L 387.197752 -286.456375 
L 390.299617 -287.753233 
L 393.401483 -287.325077 
L 396.503349 -290.14532 
L 399.605215 -289.701281 
L 402.707081 -289.709677 
L 405.808946 -287.932003 
L 405.808946 -271.885704 
L 405.808946 -271.885704 
L 402.707081 -273.393531 
L 399.605215 -273.833391 
L 396.503349 -273.703256 
L 393.401483 -272.339405 
L 390.299617 -272.754927 
L 387.197752 -271.134192 
L 384.095886 -272.307434 
L 380.99402 -272.235006 
L 377.892154 -271.964524 
L 374.790289 -272.14973 
L 371.688423 -272.203285 
L 368.586557 -272.406443 
L 365.484691 -272.590624 
L 362.382826 -272.877096 
L 359.28096 -269.922953 
L 356.179094 -272.234349 
L 353.077228 -271.334562 
L 349.975363 -270.68797 
L 346.873497 -272.68302 
L 343.771631 -271.477199 
L 340.669765 -271.067021 
L 337.567899 -269.342996 
L 334.466034 -271.762743 
L 331.364168 -271.769941 
L 328.262302 -272.306149 
L 325.160436 -272.41566 
L 322.058571 -269.538893 
L 318.956705 -270.798239 
L 315.854839 -271.029608 
L 312.752973 -268.94386 
L 309.651108 -269.969915 
L 306.549242 -269.244466 
L 303.447376 -269.549597 
L 300.34551 -271.259449 
L 297.243645 -269.462829 
L 294.141779 -270.461992 
L 291.039913 -267.419783 
L 287.938047 -269.802108 
L 284.836181 -270.70582 
L 281.734316 -270.702962 
L 278.63245 -269.21448 
L 275.530584 -268.576613 
L 272.428718 -270.964283 
L 269.326853 -270.471322 
L 266.224987 -272.318474 
L 263.123121 -270.22398 
L 260.021255 -269.361294 
L 256.91939 -270.791817 
L 253.817524 -271.383031 
L 250.715658 -268.741456 
L 247.613792 -270.410234 
L 244.511926 -270.657548 
L 241.410061 -270.642954 
L 238.308195 -270.143712 
L 235.206329 -271.634272 
L 232.104463 -270.909195 
L 229.002598 -270.083886 
L 225.900732 -269.830571 
L 222.798866 -270.13498 
L 219.697 -268.541747 
L 216.595135 -269.572131 
L 213.493269 -267.943302 
L 210.391403 -270.590821 
L 207.289537 -270.293816 
L 204.187672 -271.10721 
L 201.085806 -270.305337 
L 197.98394 -269.044284 
L 194.882074 -268.50987 
L 191.780208 -266.520357 
L 188.678343 -267.205174 
L 185.576477 -265.503879 
L 182.474611 -266.450259 
L 179.372745 -266.790094 
L 176.27088 -266.166987 
L 173.169014 -264.377881 
L 170.067148 -265.998914 
L 166.965282 -262.97875 
L 163.863417 -262.538698 
L 160.761551 -262.698903 
L 157.659685 -259.768685 
L 154.557819 -254.359021 
L 151.455954 -257.558183 
L 148.354088 -255.035255 
L 145.252222 -251.579731 
L 142.150356 -254.374223 
L 139.04849 -242.959768 
L 135.946625 -238.911336 
L 132.844759 -230.91992 
L 129.742893 -226.042704 
L 126.641027 -225.297324 
L 123.539162 -218.263267 
L 120.437296 -214.250839 
L 117.33543 -207.386053 
L 114.233564 -197.544372 
L 111.131699 -178.355954 
L 108.029833 -167.344667 
L 104.927967 -145.979504 
L 101.826101 -102.718784 
L 98.724236 -77.506364 
z
" style="stroke: #000080; stroke-opacity: 0.2; stroke-width: 1.5"/>
    </defs>
    <g clip-path="url(#p3ba70586e0)">
     <use xlink:href="#mfabf7fe038" x="0" y="432" style="fill: #000080; fill-opacity: 0.2; stroke: #000080; stroke-opacity: 0.2; stroke-width: 1.5"/>
    </g>
   </g>
   <g id="PolyCollection_2">
    <defs>
     <path id="mbaa8018f8b" d="M 98.724236 -217.165568 
L 98.724236 -344.8085 
L 101.826101 -404.833636 
L 104.927967 -292.684763 
L 108.029833 -290.337117 
L 111.131699 -290.69838 
L 114.233564 -290.230594 
L 117.33543 -287.575897 
L 120.437296 -288.99303 
L 123.539162 -289.592669 
L 126.641027 -288.113886 
L 129.742893 -289.141173 
L 132.844759 -286.287493 
L 135.946625 -284.871393 
L 139.04849 -286.921262 
L 142.150356 -289.479057 
L 145.252222 -286.838214 
L 148.354088 -290.156964 
L 151.455954 -289.25449 
L 154.557819 -287.47441 
L 157.659685 -289.882245 
L 160.761551 -287.813635 
L 163.863417 -288.296663 
L 166.965282 -292.222092 
L 170.067148 -286.772939 
L 173.169014 -288.976531 
L 176.27088 -289.02147 
L 179.372745 -287.138175 
L 182.474611 -288.169505 
L 185.576477 -289.624413 
L 188.678343 -286.762694 
L 191.780208 -288.296255 
L 194.882074 -286.951043 
L 197.98394 -287.522807 
L 201.085806 -289.728873 
L 204.187672 -286.741737 
L 207.289537 -287.194887 
L 210.391403 -287.771606 
L 213.493269 -287.134346 
L 216.595135 -287.146498 
L 219.697 -287.715103 
L 222.798866 -290.004378 
L 225.900732 -286.341111 
L 229.002598 -287.833476 
L 232.104463 -285.491126 
L 235.206329 -288.445116 
L 238.308195 -288.926121 
L 241.410061 -290.111902 
L 244.511926 -287.344596 
L 247.613792 -289.632523 
L 250.715658 -288.360906 
L 253.817524 -283.869583 
L 256.91939 -287.098016 
L 260.021255 -285.98528 
L 263.123121 -286.720714 
L 266.224987 -288.790329 
L 269.326853 -288.532967 
L 272.428718 -287.356169 
L 275.530584 -289.609876 
L 278.63245 -289.559899 
L 281.734316 -287.553488 
L 284.836181 -286.382626 
L 287.938047 -284.26975 
L 291.039913 -287.094448 
L 294.141779 -286.079337 
L 297.243645 -288.622239 
L 300.34551 -289.02395 
L 303.447376 -286.2813 
L 306.549242 -286.918734 
L 309.651108 -287.547115 
L 312.752973 -287.761705 
L 315.854839 -287.563831 
L 318.956705 -286.935802 
L 322.058571 -287.310502 
L 325.160436 -289.270467 
L 328.262302 -286.478385 
L 331.364168 -289.255283 
L 334.466034 -286.802391 
L 337.567899 -287.268649 
L 340.669765 -289.868964 
L 343.771631 -287.623552 
L 346.873497 -285.9313 
L 349.975363 -287.318264 
L 353.077228 -288.711498 
L 356.179094 -287.840752 
L 359.28096 -287.199415 
L 362.382826 -288.410776 
L 365.484691 -286.892759 
L 368.586557 -286.753074 
L 371.688423 -286.167027 
L 374.790289 -287.23867 
L 377.892154 -287.87244 
L 380.99402 -287.396748 
L 384.095886 -285.743597 
L 387.197752 -288.036079 
L 390.299617 -289.259987 
L 393.401483 -287.169106 
L 396.503349 -285.587102 
L 399.605215 -285.759102 
L 402.707081 -289.442184 
L 405.808946 -288.385511 
L 405.808946 -286.912567 
L 405.808946 -286.912567 
L 402.707081 -288.113384 
L 399.605215 -284.676265 
L 396.503349 -284.838516 
L 393.401483 -285.468186 
L 390.299617 -287.979323 
L 387.197752 -286.497865 
L 384.095886 -284.631439 
L 380.99402 -286.24178 
L 377.892154 -287.045969 
L 374.790289 -286.552992 
L 371.688423 -285.095579 
L 368.586557 -284.918952 
L 365.484691 -285.443247 
L 362.382826 -286.710364 
L 359.28096 -285.966026 
L 356.179094 -286.796246 
L 353.077228 -287.318447 
L 349.975363 -286.214876 
L 346.873497 -284.888451 
L 343.771631 -286.315105 
L 340.669765 -288.595839 
L 337.567899 -285.888857 
L 334.466034 -285.142557 
L 331.364168 -288.242972 
L 328.262302 -285.021541 
L 325.160436 -287.730498 
L 322.058571 -285.878799 
L 318.956705 -285.706791 
L 315.854839 -286.332323 
L 312.752973 -286.050605 
L 309.651108 -285.488689 
L 306.549242 -285.345079 
L 303.447376 -284.843601 
L 300.34551 -287.406067 
L 297.243645 -286.65327 
L 294.141779 -284.224069 
L 291.039913 -285.205775 
L 287.938047 -282.38418 
L 284.836181 -284.377928 
L 281.734316 -285.645086 
L 278.63245 -287.491209 
L 275.530584 -287.684147 
L 272.428718 -285.556678 
L 269.326853 -286.342178 
L 266.224987 -286.490167 
L 263.123121 -284.476714 
L 260.021255 -283.712152 
L 256.91939 -284.570298 
L 253.817524 -281.606078 
L 250.715658 -285.484728 
L 247.613792 -287.375058 
L 244.511926 -284.790347 
L 241.410061 -287.933619 
L 238.308195 -286.35165 
L 235.206329 -286.22229 
L 232.104463 -283.049161 
L 229.002598 -285.255475 
L 225.900732 -284.285736 
L 222.798866 -287.855342 
L 219.697 -285.138725 
L 216.595135 -284.644143 
L 213.493269 -284.571095 
L 210.391403 -284.793829 
L 207.289537 -284.218312 
L 204.187672 -284.004642 
L 201.085806 -286.866915 
L 197.98394 -284.507126 
L 194.882074 -284.008363 
L 191.780208 -285.59393 
L 188.678343 -284.002436 
L 185.576477 -286.543843 
L 182.474611 -285.148528 
L 179.372745 -283.675956 
L 176.27088 -285.586599 
L 173.169014 -285.173505 
L 170.067148 -283.070163 
L 166.965282 -288.367559 
L 163.863417 -284.307631 
L 160.761551 -284.134299 
L 157.659685 -285.347181 
L 154.557819 -283.045838 
L 151.455954 -284.077599 
L 148.354088 -283.736443 
L 145.252222 -281.597955 
L 142.150356 -282.800906 
L 139.04849 -280.460848 
L 135.946625 -277.868673 
L 132.844759 -280.878583 
L 129.742893 -282.275234 
L 126.641027 -281.863904 
L 123.539162 -280.002114 
L 120.437296 -279.187261 
L 117.33543 -276.761583 
L 114.233564 -282.734355 
L 111.131699 -280.132404 
L 108.029833 -278.174955 
L 104.927967 -276.314221 
L 101.826101 -156.437499 
L 98.724236 -217.165568 
z
" style="stroke: #f08080; stroke-opacity: 0.5; stroke-width: 1.5"/>
    </defs>
    <g clip-path="url(#p3ba70586e0)">
     <use xlink:href="#mbaa8018f8b" x="0" y="432" style="fill: #f08080; fill-opacity: 0.5; stroke: #f08080; stroke-opacity: 0.5; stroke-width: 1.5"/>
    </g>
   </g>
   <g id="matplotlib.axis_1">
    <g id="xtick_1">
     <g id="line2d_1">
      <defs>
       <path id="m6537a8a2e4" d="M 0 0 
L 0 9 
" style="stroke: #000000; stroke-width: 1.875"/>
      </defs>
      <g>
       <use xlink:href="#m6537a8a2e4" x="95.62237" y="370.86" style="stroke: #000000; stroke-width: 1.875"/>
      </g>
     </g>
     <g id="text_1">
      <text style="font: 16px 'DejaVu Sans', 'Bitstream Vera Sans', 'Computer Modern Sans Serif', 'Lucida Grande', 'Verdana', 'Geneva', 'Lucid', 'Arial', 'Helvetica', 'Avant Garde', sans-serif; text-anchor: middle" x="95.62237" y="395.5175" transform="rotate(-0 95.62237 395.5175)">0</text>
     </g>
    </g>
    <g id="xtick_2">
     <g id="line2d_2">
      <g>
       <use xlink:href="#m6537a8a2e4" x="157.659685" y="370.86" style="stroke: #000000; stroke-width: 1.875"/>
      </g>
     </g>
     <g id="text_2">
      <text style="font: 16px 'DejaVu Sans', 'Bitstream Vera Sans', 'Computer Modern Sans Serif', 'Lucida Grande', 'Verdana', 'Geneva', 'Lucid', 'Arial', 'Helvetica', 'Avant Garde', sans-serif; text-anchor: middle" x="157.659685" y="395.5175" transform="rotate(-0 157.659685 395.5175)">20</text>
     </g>
    </g>
    <g id="xtick_3">
     <g id="line2d_3">
      <g>
       <use xlink:href="#m6537a8a2e4" x="219.697" y="370.86" style="stroke: #000000; stroke-width: 1.875"/>
      </g>
     </g>
     <g id="text_3">
      <text style="font: 16px 'DejaVu Sans', 'Bitstream Vera Sans', 'Computer Modern Sans Serif', 'Lucida Grande', 'Verdana', 'Geneva', 'Lucid', 'Arial', 'Helvetica', 'Avant Garde', sans-serif; text-anchor: middle" x="219.697" y="395.5175" transform="rotate(-0 219.697 395.5175)">40</text>
     </g>
    </g>
    <g id="xtick_4">
     <g id="line2d_4">
      <g>
       <use xlink:href="#m6537a8a2e4" x="281.734316" y="370.86" style="stroke: #000000; stroke-width: 1.875"/>
      </g>
     </g>
     <g id="text_4">
      <text style="font: 16px 'DejaVu Sans', 'Bitstream Vera Sans', 'Computer Modern Sans Serif', 'Lucida Grande', 'Verdana', 'Geneva', 'Lucid', 'Arial', 'Helvetica', 'Avant Garde', sans-serif; text-anchor: middle" x="281.734316" y="395.5175" transform="rotate(-0 281.734316 395.5175)">60</text>
     </g>
    </g>
    <g id="xtick_5">
     <g id="line2d_5">
      <g>
       <use xlink:href="#m6537a8a2e4" x="343.771631" y="370.86" style="stroke: #000000; stroke-width: 1.875"/>
      </g>
     </g>
     <g id="text_5">
      <text style="font: 16px 'DejaVu Sans', 'Bitstream Vera Sans', 'Computer Modern Sans Serif', 'Lucida Grande', 'Verdana', 'Geneva', 'Lucid', 'Arial', 'Helvetica', 'Avant Garde', sans-serif; text-anchor: middle" x="343.771631" y="395.5175" transform="rotate(-0 343.771631 395.5175)">80</text>
     </g>
    </g>
    <g id="xtick_6">
     <g id="line2d_6">
      <g>
       <use xlink:href="#m6537a8a2e4" x="405.808946" y="370.86" style="stroke: #000000; stroke-width: 1.875"/>
      </g>
     </g>
     <g id="text_6">
      <text style="font: 16px 'DejaVu Sans', 'Bitstream Vera Sans', 'Computer Modern Sans Serif', 'Lucida Grande', 'Verdana', 'Geneva', 'Lucid', 'Arial', 'Helvetica', 'Avant Garde', sans-serif; text-anchor: middle" x="405.808946" y="395.5175" transform="rotate(-0 405.808946 395.5175)">100</text>
     </g>
    </g>
    <g id="text_7">
     <text style="font: 18px 'DejaVu Sans', 'Bitstream Vera Sans', 'Computer Modern Sans Serif', 'Lucida Grande', 'Verdana', 'Geneva', 'Lucid', 'Arial', 'Helvetica', 'Avant Garde', sans-serif; text-anchor: middle" x="252.266591" y="416.522187" transform="rotate(-0 252.266591 416.522187)">Number of trials grouped together</text>
    </g>
   </g>
   <g id="matplotlib.axis_2">
    <g id="ytick_1">
     <g id="line2d_7">
      <defs>
       <path id="mf71ef10c96" d="M 0 0 
L -9 0 
" style="stroke: #000000; stroke-width: 1.875"/>
      </defs>
      <g>
       <use xlink:href="#mf71ef10c96" x="83.37" y="333.428242" style="stroke: #000000; stroke-width: 1.875"/>
      </g>
     </g>
     <g id="text_8">
      <text style="font: 16px 'DejaVu Sans', 'Bitstream Vera Sans', 'Computer Modern Sans Serif', 'Lucida Grande', 'Verdana', 'Geneva', 'Lucid', 'Arial', 'Helvetica', 'Avant Garde', sans-serif; text-anchor: end" x="70.87" y="339.506992" transform="rotate(-0 70.87 339.506992)">−2.0</text>
     </g>
    </g>
    <g id="ytick_2">
     <g id="line2d_8">
      <g>
       <use xlink:href="#mf71ef10c96" x="83.37" y="279.259802" style="stroke: #000000; stroke-width: 1.875"/>
      </g>
     </g>
     <g id="text_9">
      <text style="font: 16px 'DejaVu Sans', 'Bitstream Vera Sans', 'Computer Modern Sans Serif', 'Lucida Grande', 'Verdana', 'Geneva', 'Lucid', 'Arial', 'Helvetica', 'Avant Garde', sans-serif; text-anchor: end" x="70.87" y="285.338552" transform="rotate(-0 70.87 285.338552)">−1.5</text>
     </g>
    </g>
    <g id="ytick_3">
     <g id="line2d_9">
      <g>
       <use xlink:href="#mf71ef10c96" x="83.37" y="225.091362" style="stroke: #000000; stroke-width: 1.875"/>
      </g>
     </g>
     <g id="text_10">
      <text style="font: 16px 'DejaVu Sans', 'Bitstream Vera Sans', 'Computer Modern Sans Serif', 'Lucida Grande', 'Verdana', 'Geneva', 'Lucid', 'Arial', 'Helvetica', 'Avant Garde', sans-serif; text-anchor: end" x="70.87" y="231.170112" transform="rotate(-0 70.87 231.170112)">−1.0</text>
     </g>
    </g>
    <g id="ytick_4">
     <g id="line2d_10">
      <g>
       <use xlink:href="#mf71ef10c96" x="83.37" y="170.922921" style="stroke: #000000; stroke-width: 1.875"/>
      </g>
     </g>
     <g id="text_11">
      <text style="font: 16px 'DejaVu Sans', 'Bitstream Vera Sans', 'Computer Modern Sans Serif', 'Lucida Grande', 'Verdana', 'Geneva', 'Lucid', 'Arial', 'Helvetica', 'Avant Garde', sans-serif; text-anchor: end" x="70.87" y="177.001671" transform="rotate(-0 70.87 177.001671)">−0.5</text>
     </g>
    </g>
    <g id="ytick_5">
     <g id="line2d_11">
      <g>
       <use xlink:href="#mf71ef10c96" x="83.37" y="116.754481" style="stroke: #000000; stroke-width: 1.875"/>
      </g>
     </g>
     <g id="text_12">
      <text style="font: 16px 'DejaVu Sans', 'Bitstream Vera Sans', 'Computer Modern Sans Serif', 'Lucida Grande', 'Verdana', 'Geneva', 'Lucid', 'Arial', 'Helvetica', 'Avant Garde', sans-serif; text-anchor: end" x="70.87" y="122.833231" transform="rotate(-0 70.87 122.833231)">0.0</text>
     </g>
    </g>
    <g id="ytick_6">
     <g id="line2d_12">
      <g>
       <use xlink:href="#mf71ef10c96" x="83.37" y="62.586041" style="stroke: #000000; stroke-width: 1.875"/>
      </g>
     </g>
     <g id="text_13">
      <text style="font: 16px 'DejaVu Sans', 'Bitstream Vera Sans', 'Computer Modern Sans Serif', 'Lucida Grande', 'Verdana', 'Geneva', 'Lucid', 'Arial', 'Helvetica', 'Avant Garde', sans-serif; text-anchor: end" x="70.87" y="68.664791" transform="rotate(-0 70.87 68.664791)">0.5</text>
     </g>
    </g>
    <g id="text_14">
     <text style="font: 18px 'DejaVu Sans', 'Bitstream Vera Sans', 'Computer Modern Sans Serif', 'Lucida Grande', 'Verdana', 'Geneva', 'Lucid', 'Arial', 'Helvetica', 'Avant Garde', sans-serif; text-anchor: middle" x="24.274063" y="190.83" transform="rotate(-90 24.274063 190.83)">Adaptation index across groups</text>
    </g>
   </g>
   <g id="line2d_13">
    <path d="M 98.724236 202.291816 
L 101.826101 191.723879 
L 104.927967 182.948459 
L 108.029833 178.752116 
L 111.131699 173.634082 
L 114.233564 169.624022 
L 117.33543 165.619479 
L 120.437296 166.422835 
L 123.539162 164.370737 
L 126.641027 162.71014 
L 129.742893 160.725335 
L 132.844759 160.808921 
L 135.946625 160.118547 
L 139.04849 157.971559 
L 142.150356 158.175463 
L 145.252222 157.636601 
L 148.354088 155.666234 
L 151.455954 155.619781 
L 154.557819 155.77581 
L 157.659685 155.262556 
L 160.761551 154.695586 
L 163.863417 155.122277 
L 166.965282 157.195173 
L 170.067148 154.178699 
L 173.169014 154.390302 
L 176.27088 154.69186 
L 179.372745 154.565936 
L 182.474611 154.100877 
L 185.576477 155.270661 
L 188.678343 154.167084 
L 191.780208 155.159102 
L 194.882074 153.312181 
L 197.98394 152.841034 
L 201.085806 151.891744 
L 204.187672 151.249857 
L 207.289537 151.598862 
L 210.391403 151.536152 
L 213.493269 154.029531 
L 216.595135 153.030905 
L 219.697 154.027857 
L 222.798866 152.512057 
L 225.900732 152.979126 
L 229.002598 153.083285 
L 232.104463 151.637217 
L 235.206329 151.284818 
L 238.308195 152.784245 
L 241.410061 152.582163 
L 244.511926 152.205439 
L 247.613792 152.284915 
L 250.715658 153.690888 
L 253.817524 151.964657 
L 256.91939 152.427637 
L 260.021255 153.616664 
L 263.123121 152.790454 
L 266.224987 150.883732 
L 269.326853 152.242793 
L 272.428718 151.977373 
L 275.530584 154.331704 
L 278.63245 153.805043 
L 281.734316 152.548942 
L 284.836181 152.700496 
L 287.938047 153.115127 
L 291.039913 155.97138 
L 294.141779 153.206689 
L 297.243645 154.048367 
L 300.34551 152.013532 
L 303.447376 154.128946 
L 306.549242 154.406194 
L 309.651108 153.497839 
L 312.752973 154.321551 
L 315.854839 152.476086 
L 318.956705 152.812372 
L 322.058571 153.895846 
L 325.160436 151.024844 
L 328.262302 151.193766 
L 331.364168 152.240616 
L 334.466034 152.351405 
L 337.567899 154.437138 
L 340.669765 152.909325 
L 343.771631 152.183101 
L 346.873497 151.14464 
L 349.975363 153.08845 
L 353.077228 152.766938 
L 356.179094 151.891247 
L 359.28096 154.095964 
L 362.382826 151.323855 
L 365.484691 151.649138 
L 368.586557 151.671025 
L 371.688423 151.710286 
L 374.790289 151.635672 
L 377.892154 152.229341 
L 380.99402 151.866938 
L 384.095886 151.580285 
L 387.197752 153.204716 
L 390.299617 151.74592 
L 393.401483 152.167759 
L 396.503349 150.075712 
L 399.605215 150.232664 
L 402.707081 150.448396 
L 405.808946 152.091146 
" clip-path="url(#p3ba70586e0)" style="fill: none; stroke: #000080; stroke-opacity: 0.7; stroke-width: 3; stroke-linecap: square"/>
   </g>
   <g id="line2d_14">
    <path d="M 98.724236 151.012966 
L 101.826101 151.364432 
L 104.927967 147.500508 
L 108.029833 147.743964 
L 111.131699 146.584608 
L 114.233564 145.517526 
L 117.33543 149.83126 
L 120.437296 147.909854 
L 123.539162 147.202608 
L 126.641027 147.011105 
L 129.742893 146.291797 
L 132.844759 148.416962 
L 135.946625 150.629967 
L 139.04849 148.308945 
L 142.150356 145.860018 
L 145.252222 147.781915 
L 148.354088 145.053297 
L 151.455954 145.333956 
L 154.557819 146.739876 
L 157.659685 144.385287 
L 160.761551 146.026033 
L 163.863417 145.697853 
L 166.965282 141.705175 
L 170.067148 147.078449 
L 173.169014 144.924982 
L 176.27088 144.695966 
L 179.372745 146.592935 
L 182.474611 145.340984 
L 185.576477 143.915872 
L 188.678343 146.617435 
L 191.780208 145.054907 
L 194.882074 146.520297 
L 197.98394 145.985034 
L 201.085806 143.702106 
L 204.187672 146.62681 
L 207.289537 146.293401 
L 210.391403 145.717283 
L 213.493269 146.14728 
L 216.595135 146.10468 
L 219.697 145.573086 
L 222.798866 143.07014 
L 225.900732 146.686577 
L 229.002598 145.455524 
L 232.104463 147.729857 
L 235.206329 144.666297 
L 238.308195 144.361115 
L 241.410061 142.97724 
L 244.511926 145.932528 
L 247.613792 143.496209 
L 250.715658 145.077183 
L 253.817524 149.26217 
L 256.91939 146.165843 
L 260.021255 147.151284 
L 263.123121 146.401286 
L 266.224987 144.359752 
L 269.326853 144.562427 
L 272.428718 145.543577 
L 275.530584 143.352989 
L 278.63245 143.474446 
L 281.734316 145.400713 
L 284.836181 146.619723 
L 287.938047 148.673035 
L 291.039913 145.849888 
L 294.141779 146.848297 
L 297.243645 144.362245 
L 300.34551 143.784992 
L 303.447376 146.437549 
L 306.549242 145.868093 
L 309.651108 145.482098 
L 312.752973 145.093845 
L 315.854839 145.051923 
L 318.956705 145.678703 
L 322.058571 145.405349 
L 325.160436 143.499517 
L 328.262302 146.250037 
L 331.364168 143.250873 
L 334.466034 146.027526 
L 337.567899 145.421247 
L 340.669765 142.767598 
L 343.771631 145.030671 
L 346.873497 146.590124 
L 349.975363 145.23343 
L 353.077228 143.985027 
L 356.179094 144.681501 
L 359.28096 145.417279 
L 362.382826 144.43943 
L 365.484691 145.831997 
L 368.586557 146.163987 
L 371.688423 146.368697 
L 374.790289 145.104169 
L 377.892154 144.540795 
L 380.99402 145.180736 
L 384.095886 146.812482 
L 387.197752 144.733028 
L 390.299617 143.380345 
L 393.401483 145.681354 
L 396.503349 146.787191 
L 399.605215 146.782317 
L 402.707081 143.222216 
L 405.808946 144.350961 
" clip-path="url(#p3ba70586e0)" style="fill: none; stroke: #f08080; stroke-opacity: 0.7; stroke-width: 3; stroke-linecap: square"/>
   </g>
   <g id="line2d_15">
    <path d="M 83.37 116.754481 
L 421.163182 116.754481 
" clip-path="url(#p3ba70586e0)" style="fill: none; stroke-dasharray: 3.7,1.6; stroke-dashoffset: 0; stroke: #000000"/>
   </g>
   <g id="patch_3">
    <path d="M 83.37 370.86 
L 83.37 10.8 
" style="fill: none; stroke: #000000; stroke-width: 1.875; stroke-linejoin: miter; stroke-linecap: square"/>
   </g>
   <g id="patch_4">
    <path d="M 83.37 370.86 
L 421.163182 370.86 
" style="fill: none; stroke: #000000; stroke-width: 1.875; stroke-linejoin: miter; stroke-linecap: square"/>
   </g>
   <g id="legend_1">
    <g id="line2d_16">
     <path d="M 220.820369 318.195937 
L 238.820369 318.195937 
L 256.820369 318.195937 
" style="fill: none; stroke: #000080; stroke-opacity: 0.7; stroke-width: 3; stroke-linecap: square"/>
    </g>
    <g id="text_15">
     <text style="font: 18px 'DejaVu Sans', 'Bitstream Vera Sans', 'Computer Modern Sans Serif', 'Lucida Grande', 'Verdana', 'Geneva', 'Lucid', 'Arial', 'Helvetica', 'Avant Garde', sans-serif; text-anchor: start" x="271.220369" y="324.495937" transform="rotate(-0 271.220369 324.495937)">Single neurons</text>
    </g>
    <g id="line2d_17">
     <path d="M 220.820369 344.616562 
L 238.820369 344.616562 
L 256.820369 344.616562 
" style="fill: none; stroke: #f08080; stroke-opacity: 0.7; stroke-width: 3; stroke-linecap: square"/>
    </g>
    <g id="text_16">
     <text style="font: 18px 'DejaVu Sans', 'Bitstream Vera Sans', 'Computer Modern Sans Serif', 'Lucida Grande', 'Verdana', 'Geneva', 'Lucid', 'Arial', 'Helvetica', 'Avant Garde', sans-serif; text-anchor: start" x="271.220369" y="350.916562" transform="rotate(-0 271.220369 350.916562)">Population</text>
    </g>
   </g>
  </g>
 </g>
 <defs>
  <clipPath id="p3ba70586e0">
   <rect x="83.37" y="10.8" width="337.793182" height="360.06"/>
  </clipPath>
 </defs>
</svg>
