<?xml version="1.0" encoding="utf-8" standalone="no"?>
<!DOCTYPE svg PUBLIC "-//W3C//DTD SVG 1.1//EN"
  "http://www.w3.org/Graphics/SVG/1.1/DTD/svg11.dtd">
<svg xmlns:xlink="http://www.w3.org/1999/xlink" width="698.65737pt" height="266.386562pt" viewBox="0 0 698.65737 266.386562" xmlns="http://www.w3.org/2000/svg" version="1.1">
 <metadata>
  <rdf:RDF xmlns:dc="http://purl.org/dc/elements/1.1/" xmlns:cc="http://creativecommons.org/ns#" xmlns:rdf="http://www.w3.org/1999/02/22-rdf-syntax-ns#">
   <cc:Work>
    <dc:type rdf:resource="http://purl.org/dc/dcmitype/StillImage"/>
    <dc:date>2023-11-27T22:19:13.550849</dc:date>
    <dc:format>image/svg+xml</dc:format>
    <dc:creator>
     <cc:Agent>
      <dc:title>Matplotlib v3.7.2, https://matplotlib.org/</dc:title>
     </cc:Agent>
    </dc:creator>
   </cc:Work>
  </rdf:RDF>
 </metadata>
 <defs>
  <style type="text/css">*{stroke-linejoin: round; stroke-linecap: butt}</style>
 </defs>
 <g id="figure_1">
  <g id="patch_1">
   <path d="M 0 266.386562 
L 698.65737 266.386562 
L 698.65737 0 
L 0 0 
z
" style="fill: #ffffff"/>
  </g>
  <g id="axes_1">
   <g id="patch_2">
    <path d="M 61.726563 214.62 
L 250.168526 214.62 
L 250.168526 7.2 
L 61.726563 7.2 
z
" style="fill: #ffffff"/>
   </g>
   <g id="PolyCollection_1">
    <defs>
     <path id="m44a958a2eb" d="M 107.134264 -230.562728 
L 107.134264 -190.111707 
L 152.541966 -142.568197 
L 197.949668 -107.659552 
L 243.35737 -86.210224 
L 243.35737 -96.146696 
L 243.35737 -96.146696 
L 197.949668 -122.029737 
L 152.541966 -151.767599 
L 107.134264 -230.562728 
z
" style="stroke: #85a7eb; stroke-opacity: 0.3; stroke-width: 1.5"/>
    </defs>
    <g clip-path="url(#p41a9cfef8a)">
     <use xlink:href="#m44a958a2eb" x="0" y="266.386562" style="fill: #85a7eb; fill-opacity: 0.3; stroke: #85a7eb; stroke-opacity: 0.3; stroke-width: 1.5"/>
    </g>
   </g>
   <g id="PolyCollection_2">
    <defs>
     <path id="m27df403bd9" d="M 107.134264 -196.330559 
L 107.134264 -150.338646 
L 152.541966 -112.45518 
L 197.949668 -96.404872 
L 243.35737 -74.487379 
L 243.35737 -80.078545 
L 243.35737 -80.078545 
L 197.949668 -104.278673 
L 152.541966 -134.418099 
L 107.134264 -196.330559 
z
" style="stroke: #3e51cc; stroke-opacity: 0.3; stroke-width: 1.5"/>
    </defs>
    <g clip-path="url(#p41a9cfef8a)">
     <use xlink:href="#m27df403bd9" x="0" y="266.386562" style="fill: #3e51cc; fill-opacity: 0.3; stroke: #3e51cc; stroke-opacity: 0.3; stroke-width: 1.5"/>
    </g>
   </g>
   <g id="matplotlib.axis_1">
    <g id="xtick_1">
     <g id="line2d_1">
      <defs>
       <path id="m5d4b9073f5" d="M 0 0 
L 0 9 
" style="stroke: #000000; stroke-width: 1.875"/>
      </defs>
      <g>
       <use xlink:href="#m5d4b9073f5" x="61.726563" y="214.62" style="stroke: #000000; stroke-width: 1.875"/>
      </g>
     </g>
     <g id="text_1">
      <text style="font: 16px 'DejaVu Sans', 'Bitstream Vera Sans', 'Computer Modern Sans Serif', 'Lucida Grande', 'Verdana', 'Geneva', 'Lucid', 'Arial', 'Helvetica', 'Avant Garde', sans-serif; text-anchor: middle" x="61.726563" y="239.2775" transform="rotate(-0 61.726563 239.2775)">0</text>
     </g>
    </g>
    <g id="xtick_2">
     <g id="line2d_2">
      <g>
       <use xlink:href="#m5d4b9073f5" x="107.134264" y="214.62" style="stroke: #000000; stroke-width: 1.875"/>
      </g>
     </g>
     <g id="text_2">
      <text style="font: 16px 'DejaVu Sans', 'Bitstream Vera Sans', 'Computer Modern Sans Serif', 'Lucida Grande', 'Verdana', 'Geneva', 'Lucid', 'Arial', 'Helvetica', 'Avant Garde', sans-serif; text-anchor: middle" x="107.134264" y="239.2775" transform="rotate(-0 107.134264 239.2775)">22.5</text>
     </g>
    </g>
    <g id="xtick_3">
     <g id="line2d_3">
      <g>
       <use xlink:href="#m5d4b9073f5" x="152.541966" y="214.62" style="stroke: #000000; stroke-width: 1.875"/>
      </g>
     </g>
     <g id="text_3">
      <text style="font: 16px 'DejaVu Sans', 'Bitstream Vera Sans', 'Computer Modern Sans Serif', 'Lucida Grande', 'Verdana', 'Geneva', 'Lucid', 'Arial', 'Helvetica', 'Avant Garde', sans-serif; text-anchor: middle" x="152.541966" y="239.2775" transform="rotate(-0 152.541966 239.2775)">45</text>
     </g>
    </g>
    <g id="xtick_4">
     <g id="line2d_4">
      <g>
       <use xlink:href="#m5d4b9073f5" x="197.949668" y="214.62" style="stroke: #000000; stroke-width: 1.875"/>
      </g>
     </g>
     <g id="text_4">
      <text style="font: 16px 'DejaVu Sans', 'Bitstream Vera Sans', 'Computer Modern Sans Serif', 'Lucida Grande', 'Verdana', 'Geneva', 'Lucid', 'Arial', 'Helvetica', 'Avant Garde', sans-serif; text-anchor: middle" x="197.949668" y="239.2775" transform="rotate(-0 197.949668 239.2775)">67.5</text>
     </g>
    </g>
    <g id="xtick_5">
     <g id="line2d_5">
      <g>
       <use xlink:href="#m5d4b9073f5" x="243.35737" y="214.62" style="stroke: #000000; stroke-width: 1.875"/>
      </g>
     </g>
     <g id="text_5">
      <text style="font: 16px 'DejaVu Sans', 'Bitstream Vera Sans', 'Computer Modern Sans Serif', 'Lucida Grande', 'Verdana', 'Geneva', 'Lucid', 'Arial', 'Helvetica', 'Avant Garde', sans-serif; text-anchor: middle" x="243.35737" y="239.2775" transform="rotate(-0 243.35737 239.2775)">90</text>
     </g>
    </g>
   </g>
   <g id="matplotlib.axis_2">
    <g id="ytick_1">
     <g id="line2d_6">
      <defs>
       <path id="m6209a769fa" d="M 0 0 
L -9 0 
" style="stroke: #000000; stroke-width: 1.875"/>
      </defs>
      <g>
       <use xlink:href="#m6209a769fa" x="61.726563" y="161.739062" style="stroke: #000000; stroke-width: 1.875"/>
      </g>
     </g>
     <g id="text_6">
      <text style="font: 16px 'DejaVu Sans', 'Bitstream Vera Sans', 'Computer Modern Sans Serif', 'Lucida Grande', 'Verdana', 'Geneva', 'Lucid', 'Arial', 'Helvetica', 'Avant Garde', sans-serif; text-anchor: end" x="49.226563" y="167.817812" transform="rotate(-0 49.226563 167.817812)">1.0</text>
     </g>
    </g>
    <g id="ytick_2">
     <g id="line2d_7">
      <g>
       <use xlink:href="#m6209a769fa" x="61.726563" y="101.493499" style="stroke: #000000; stroke-width: 1.875"/>
      </g>
     </g>
     <g id="text_7">
      <text style="font: 16px 'DejaVu Sans', 'Bitstream Vera Sans', 'Computer Modern Sans Serif', 'Lucida Grande', 'Verdana', 'Geneva', 'Lucid', 'Arial', 'Helvetica', 'Avant Garde', sans-serif; text-anchor: end" x="49.226563" y="107.572249" transform="rotate(-0 49.226563 107.572249)">1.5</text>
     </g>
    </g>
    <g id="ytick_3">
     <g id="line2d_8">
      <g>
       <use xlink:href="#m6209a769fa" x="61.726563" y="41.247935" style="stroke: #000000; stroke-width: 1.875"/>
      </g>
     </g>
     <g id="text_8">
      <text style="font: 16px 'DejaVu Sans', 'Bitstream Vera Sans', 'Computer Modern Sans Serif', 'Lucida Grande', 'Verdana', 'Geneva', 'Lucid', 'Arial', 'Helvetica', 'Avant Garde', sans-serif; text-anchor: end" x="49.226563" y="47.326685" transform="rotate(-0 49.226563 47.326685)">2.0</text>
     </g>
    </g>
    <g id="text_9">
     <text style="font: 13px 'DejaVu Sans', 'Bitstream Vera Sans', 'Computer Modern Sans Serif', 'Lucida Grande', 'Verdana', 'Geneva', 'Lucid', 'Arial', 'Helvetica', 'Avant Garde', sans-serif; text-anchor: middle" x="17.077969" y="110.91" transform="rotate(-90 17.077969 110.91)">Neural Angle per Physical Angle</text>
    </g>
   </g>
   <g id="line2d_9">
    <path d="M 107.134264 65.115311 
L 152.541966 120.637827 
L 197.949668 152.908524 
L 243.35737 176.673812 
" clip-path="url(#p41a9cfef8a)" style="fill: none; stroke: #85a7eb; stroke-opacity: 0.9; stroke-width: 2.25; stroke-linecap: square"/>
    <defs>
     <path id="me977a5dc98" d="M 0 2.25 
C 0.596707 2.25 1.169055 2.012926 1.59099 1.59099 
C 2.012926 1.169055 2.25 0.596707 2.25 0 
C 2.25 -0.596707 2.012926 -1.169055 1.59099 -1.59099 
C 1.169055 -2.012926 0.596707 -2.25 0 -2.25 
C -0.596707 -2.25 -1.169055 -2.012926 -1.59099 -1.59099 
C -2.012926 -1.169055 -2.25 -0.596707 -2.25 0 
C -2.25 0.596707 -2.012926 1.169055 -1.59099 1.59099 
C -1.169055 2.012926 -0.596707 2.25 0 2.25 
z
" style="stroke: #85a7eb; stroke-opacity: 0.9"/>
    </defs>
    <g clip-path="url(#p41a9cfef8a)">
     <use xlink:href="#me977a5dc98" x="107.134264" y="65.115311" style="fill: #85a7eb; fill-opacity: 0.9; stroke: #85a7eb; stroke-opacity: 0.9"/>
     <use xlink:href="#me977a5dc98" x="152.541966" y="120.637827" style="fill: #85a7eb; fill-opacity: 0.9; stroke: #85a7eb; stroke-opacity: 0.9"/>
     <use xlink:href="#me977a5dc98" x="197.949668" y="152.908524" style="fill: #85a7eb; fill-opacity: 0.9; stroke: #85a7eb; stroke-opacity: 0.9"/>
     <use xlink:href="#me977a5dc98" x="243.35737" y="176.673812" style="fill: #85a7eb; fill-opacity: 0.9; stroke: #85a7eb; stroke-opacity: 0.9"/>
    </g>
   </g>
   <g id="line2d_10">
    <path d="M 107.134264 103.482585 
L 152.541966 140.896266 
L 197.949668 164.492824 
L 243.35737 188.220991 
" clip-path="url(#p41a9cfef8a)" style="fill: none; stroke: #3e51cc; stroke-opacity: 0.9; stroke-width: 2.25; stroke-linecap: square"/>
    <defs>
     <path id="m848804edc4" d="M 0 2.25 
C 0.596707 2.25 1.169055 2.012926 1.59099 1.59099 
C 2.012926 1.169055 2.25 0.596707 2.25 0 
C 2.25 -0.596707 2.012926 -1.169055 1.59099 -1.59099 
C 1.169055 -2.012926 0.596707 -2.25 0 -2.25 
C -0.596707 -2.25 -1.169055 -2.012926 -1.59099 -1.59099 
C -2.012926 -1.169055 -2.25 -0.596707 -2.25 0 
C -2.25 0.596707 -2.012926 1.169055 -1.59099 1.59099 
C -1.169055 2.012926 -0.596707 2.25 0 2.25 
z
" style="stroke: #3e51cc; stroke-opacity: 0.9"/>
    </defs>
    <g clip-path="url(#p41a9cfef8a)">
     <use xlink:href="#m848804edc4" x="107.134264" y="103.482585" style="fill: #3e51cc; fill-opacity: 0.9; stroke: #3e51cc; stroke-opacity: 0.9"/>
     <use xlink:href="#m848804edc4" x="152.541966" y="140.896266" style="fill: #3e51cc; fill-opacity: 0.9; stroke: #3e51cc; stroke-opacity: 0.9"/>
     <use xlink:href="#m848804edc4" x="197.949668" y="164.492824" style="fill: #3e51cc; fill-opacity: 0.9; stroke: #3e51cc; stroke-opacity: 0.9"/>
     <use xlink:href="#m848804edc4" x="243.35737" y="188.220991" style="fill: #3e51cc; fill-opacity: 0.9; stroke: #3e51cc; stroke-opacity: 0.9"/>
    </g>
   </g>
   <g id="patch_3">
    <path d="M 61.726563 214.62 
L 61.726563 7.2 
" style="fill: none; stroke: #000000; stroke-width: 2; stroke-linejoin: miter; stroke-linecap: square"/>
   </g>
   <g id="patch_4">
    <path d="M 61.726563 214.62 
L 250.168526 214.62 
" style="fill: none; stroke: #000000; stroke-width: 2; stroke-linejoin: miter; stroke-linecap: square"/>
   </g>
   <g id="legend_1">
    <g id="patch_5">
     <path d="M 121.251026 27.118125 
L 145.251026 27.118125 
L 145.251026 18.718125 
L 121.251026 18.718125 
z
" style="fill: #85a7eb; fill-opacity: 0.3; stroke: #85a7eb; stroke-opacity: 0.3; stroke-width: 1.5; stroke-linejoin: miter"/>
    </g>
    <g id="text_10">
     <text style="font: 12px 'DejaVu Sans', 'Bitstream Vera Sans', 'Computer Modern Sans Serif', 'Lucida Grande', 'Verdana', 'Geneva', 'Lucid', 'Arial', 'Helvetica', 'Avant Garde', sans-serif; text-anchor: start" x="154.851026" y="27.118125" transform="rotate(-0 154.851026 27.118125)">V1 adapted</text>
    </g>
    <g id="patch_6">
     <path d="M 121.251026 44.731875 
L 145.251026 44.731875 
L 145.251026 36.331875 
L 121.251026 36.331875 
z
" style="fill: #3e51cc; fill-opacity: 0.3; stroke: #3e51cc; stroke-opacity: 0.3; stroke-width: 1.5; stroke-linejoin: miter"/>
    </g>
    <g id="text_11">
     <text style="font: 12px 'DejaVu Sans', 'Bitstream Vera Sans', 'Computer Modern Sans Serif', 'Lucida Grande', 'Verdana', 'Geneva', 'Lucid', 'Arial', 'Helvetica', 'Avant Garde', sans-serif; text-anchor: start" x="154.851026" y="44.731875" transform="rotate(-0 154.851026 44.731875)">V1 unadapted</text>
    </g>
   </g>
  </g>
  <g id="axes_2">
   <g id="patch_7">
    <path d="M 280.686562 214.62 
L 469.128526 214.62 
L 469.128526 7.2 
L 280.686562 7.2 
z
" style="fill: #ffffff"/>
   </g>
   <g id="PolyCollection_3">
    <defs>
     <path id="m01a28e1fd5" d="M 326.094264 -178.284459 
L 326.094264 -130.308009 
L 371.501966 -83.680488 
L 416.909668 -85.222346 
L 462.31737 -73.75301 
L 462.31737 -82.046252 
L 462.31737 -82.046252 
L 416.909668 -96.225875 
L 371.501966 -103.95614 
L 326.094264 -178.284459 
z
" style="stroke: #f6cd51; stroke-opacity: 0.3; stroke-width: 1.5"/>
    </defs>
    <g clip-path="url(#p56447941f3)">
     <use xlink:href="#m01a28e1fd5" x="0" y="266.386562" style="fill: #f6cd51; fill-opacity: 0.3; stroke: #f6cd51; stroke-opacity: 0.3; stroke-width: 1.5"/>
    </g>
   </g>
   <g id="PolyCollection_4">
    <defs>
     <path id="mca69e80ec0" d="M 326.094264 -141.117129 
L 326.094264 -91.205857 
L 371.501966 -71.44547 
L 416.909668 -76.828173 
L 462.31737 -64.602127 
L 462.31737 -69.097935 
L 462.31737 -69.097935 
L 416.909668 -84.837852 
L 371.501966 -87.727793 
L 326.094264 -141.117129 
z
" style="stroke: #c48a5a; stroke-opacity: 0.3; stroke-width: 1.5"/>
    </defs>
    <g clip-path="url(#p56447941f3)">
     <use xlink:href="#mca69e80ec0" x="0" y="266.386562" style="fill: #c48a5a; fill-opacity: 0.3; stroke: #c48a5a; stroke-opacity: 0.3; stroke-width: 1.5"/>
    </g>
   </g>
   <g id="matplotlib.axis_3">
    <g id="xtick_6">
     <g id="line2d_11">
      <g>
       <use xlink:href="#m5d4b9073f5" x="280.686562" y="214.62" style="stroke: #000000; stroke-width: 1.875"/>
      </g>
     </g>
     <g id="text_12">
      <text style="font: 16px 'DejaVu Sans', 'Bitstream Vera Sans', 'Computer Modern Sans Serif', 'Lucida Grande', 'Verdana', 'Geneva', 'Lucid', 'Arial', 'Helvetica', 'Avant Garde', sans-serif; text-anchor: middle" x="280.686562" y="239.2775" transform="rotate(-0 280.686562 239.2775)">0</text>
     </g>
    </g>
    <g id="xtick_7">
     <g id="line2d_12">
      <g>
       <use xlink:href="#m5d4b9073f5" x="326.094264" y="214.62" style="stroke: #000000; stroke-width: 1.875"/>
      </g>
     </g>
     <g id="text_13">
      <text style="font: 16px 'DejaVu Sans', 'Bitstream Vera Sans', 'Computer Modern Sans Serif', 'Lucida Grande', 'Verdana', 'Geneva', 'Lucid', 'Arial', 'Helvetica', 'Avant Garde', sans-serif; text-anchor: middle" x="326.094264" y="239.2775" transform="rotate(-0 326.094264 239.2775)">22.5</text>
     </g>
    </g>
    <g id="xtick_8">
     <g id="line2d_13">
      <g>
       <use xlink:href="#m5d4b9073f5" x="371.501966" y="214.62" style="stroke: #000000; stroke-width: 1.875"/>
      </g>
     </g>
     <g id="text_14">
      <text style="font: 16px 'DejaVu Sans', 'Bitstream Vera Sans', 'Computer Modern Sans Serif', 'Lucida Grande', 'Verdana', 'Geneva', 'Lucid', 'Arial', 'Helvetica', 'Avant Garde', sans-serif; text-anchor: middle" x="371.501966" y="239.2775" transform="rotate(-0 371.501966 239.2775)">45</text>
     </g>
    </g>
    <g id="xtick_9">
     <g id="line2d_14">
      <g>
       <use xlink:href="#m5d4b9073f5" x="416.909668" y="214.62" style="stroke: #000000; stroke-width: 1.875"/>
      </g>
     </g>
     <g id="text_15">
      <text style="font: 16px 'DejaVu Sans', 'Bitstream Vera Sans', 'Computer Modern Sans Serif', 'Lucida Grande', 'Verdana', 'Geneva', 'Lucid', 'Arial', 'Helvetica', 'Avant Garde', sans-serif; text-anchor: middle" x="416.909668" y="239.2775" transform="rotate(-0 416.909668 239.2775)">67.5</text>
     </g>
    </g>
    <g id="xtick_10">
     <g id="line2d_15">
      <g>
       <use xlink:href="#m5d4b9073f5" x="462.31737" y="214.62" style="stroke: #000000; stroke-width: 1.875"/>
      </g>
     </g>
     <g id="text_16">
      <text style="font: 16px 'DejaVu Sans', 'Bitstream Vera Sans', 'Computer Modern Sans Serif', 'Lucida Grande', 'Verdana', 'Geneva', 'Lucid', 'Arial', 'Helvetica', 'Avant Garde', sans-serif; text-anchor: middle" x="462.31737" y="239.2775" transform="rotate(-0 462.31737 239.2775)">90</text>
     </g>
    </g>
    <g id="text_17">
     <text style="font: 13px 'DejaVu Sans', 'Bitstream Vera Sans', 'Computer Modern Sans Serif', 'Lucida Grande', 'Verdana', 'Geneva', 'Lucid', 'Arial', 'Helvetica', 'Avant Garde', sans-serif; text-anchor: middle" x="374.907544" y="256.482969" transform="rotate(-0 374.907544 256.482969)">Stim2 distance from adapter (deg)</text>
    </g>
   </g>
   <g id="matplotlib.axis_4">
    <g id="ytick_4">
     <g id="line2d_16">
      <g>
       <use xlink:href="#m6209a769fa" x="280.686562" y="161.739062" style="stroke: #000000; stroke-width: 1.875"/>
      </g>
     </g>
    </g>
    <g id="ytick_5">
     <g id="line2d_17">
      <g>
       <use xlink:href="#m6209a769fa" x="280.686562" y="101.493499" style="stroke: #000000; stroke-width: 1.875"/>
      </g>
     </g>
    </g>
    <g id="ytick_6">
     <g id="line2d_18">
      <g>
       <use xlink:href="#m6209a769fa" x="280.686562" y="41.247935" style="stroke: #000000; stroke-width: 1.875"/>
      </g>
     </g>
    </g>
   </g>
   <g id="line2d_19">
    <path d="M 326.094264 119.631477 
L 371.501966 176.436697 
L 416.909668 177.066572 
L 462.31737 189.31466 
" clip-path="url(#p56447941f3)" style="fill: none; stroke: #f6cd51; stroke-opacity: 0.9; stroke-width: 2.25; stroke-linecap: square"/>
    <defs>
     <path id="m4bd3893d09" d="M 0 2.25 
C 0.596707 2.25 1.169055 2.012926 1.59099 1.59099 
C 2.012926 1.169055 2.25 0.596707 2.25 0 
C 2.25 -0.596707 2.012926 -1.169055 1.59099 -1.59099 
C 1.169055 -2.012926 0.596707 -2.25 0 -2.25 
C -0.596707 -2.25 -1.169055 -2.012926 -1.59099 -1.59099 
C -2.012926 -1.169055 -2.25 -0.596707 -2.25 0 
C -2.25 0.596707 -2.012926 1.169055 -1.59099 1.59099 
C -1.169055 2.012926 -0.596707 2.25 0 2.25 
z
" style="stroke: #f6cd51; stroke-opacity: 0.9"/>
    </defs>
    <g clip-path="url(#p56447941f3)">
     <use xlink:href="#m4bd3893d09" x="326.094264" y="119.631477" style="fill: #f6cd51; fill-opacity: 0.9; stroke: #f6cd51; stroke-opacity: 0.9"/>
     <use xlink:href="#m4bd3893d09" x="371.501966" y="176.436697" style="fill: #f6cd51; fill-opacity: 0.9; stroke: #f6cd51; stroke-opacity: 0.9"/>
     <use xlink:href="#m4bd3893d09" x="416.909668" y="177.066572" style="fill: #f6cd51; fill-opacity: 0.9; stroke: #f6cd51; stroke-opacity: 0.9"/>
     <use xlink:href="#m4bd3893d09" x="462.31737" y="189.31466" style="fill: #f6cd51; fill-opacity: 0.9; stroke: #f6cd51; stroke-opacity: 0.9"/>
    </g>
   </g>
   <g id="line2d_20">
    <path d="M 326.094264 157.768069 
L 371.501966 189.287871 
L 416.909668 185.959341 
L 462.31737 199.984415 
" clip-path="url(#p56447941f3)" style="fill: none; stroke: #c48a5a; stroke-opacity: 0.9; stroke-width: 2.25; stroke-linecap: square"/>
    <defs>
     <path id="mfba852a92f" d="M 0 2.25 
C 0.596707 2.25 1.169055 2.012926 1.59099 1.59099 
C 2.012926 1.169055 2.25 0.596707 2.25 0 
C 2.25 -0.596707 2.012926 -1.169055 1.59099 -1.59099 
C 1.169055 -2.012926 0.596707 -2.25 0 -2.25 
C -0.596707 -2.25 -1.169055 -2.012926 -1.59099 -1.59099 
C -2.012926 -1.169055 -2.25 -0.596707 -2.25 0 
C -2.25 0.596707 -2.012926 1.169055 -1.59099 1.59099 
C -1.169055 2.012926 -0.596707 2.25 0 2.25 
z
" style="stroke: #c48a5a; stroke-opacity: 0.9"/>
    </defs>
    <g clip-path="url(#p56447941f3)">
     <use xlink:href="#mfba852a92f" x="326.094264" y="157.768069" style="fill: #c48a5a; fill-opacity: 0.9; stroke: #c48a5a; stroke-opacity: 0.9"/>
     <use xlink:href="#mfba852a92f" x="371.501966" y="189.287871" style="fill: #c48a5a; fill-opacity: 0.9; stroke: #c48a5a; stroke-opacity: 0.9"/>
     <use xlink:href="#mfba852a92f" x="416.909668" y="185.959341" style="fill: #c48a5a; fill-opacity: 0.9; stroke: #c48a5a; stroke-opacity: 0.9"/>
     <use xlink:href="#mfba852a92f" x="462.31737" y="199.984415" style="fill: #c48a5a; fill-opacity: 0.9; stroke: #c48a5a; stroke-opacity: 0.9"/>
    </g>
   </g>
   <g id="patch_8">
    <path d="M 280.686562 214.62 
L 280.686562 7.2 
" style="fill: none; stroke: #000000; stroke-width: 2; stroke-linejoin: miter; stroke-linecap: square"/>
   </g>
   <g id="patch_9">
    <path d="M 280.686562 214.62 
L 469.128526 214.62 
" style="fill: none; stroke: #000000; stroke-width: 2; stroke-linejoin: miter; stroke-linecap: square"/>
   </g>
   <g id="legend_2">
    <g id="patch_10">
     <path d="M 339.014776 27.118125 
L 363.014776 27.118125 
L 363.014776 18.718125 
L 339.014776 18.718125 
z
" style="fill: #f6cd51; fill-opacity: 0.3; stroke: #f6cd51; stroke-opacity: 0.3; stroke-width: 1.5; stroke-linejoin: miter"/>
    </g>
    <g id="text_18">
     <text style="font: 12px 'DejaVu Sans', 'Bitstream Vera Sans', 'Computer Modern Sans Serif', 'Lucida Grande', 'Verdana', 'Geneva', 'Lucid', 'Arial', 'Helvetica', 'Avant Garde', sans-serif; text-anchor: start" x="372.614776" y="27.118125" transform="rotate(-0 372.614776 27.118125)">LM adapted</text>
    </g>
    <g id="patch_11">
     <path d="M 339.014776 44.731875 
L 363.014776 44.731875 
L 363.014776 36.331875 
L 339.014776 36.331875 
z
" style="fill: #c48a5a; fill-opacity: 0.3; stroke: #c48a5a; stroke-opacity: 0.3; stroke-width: 1.5; stroke-linejoin: miter"/>
    </g>
    <g id="text_19">
     <text style="font: 12px 'DejaVu Sans', 'Bitstream Vera Sans', 'Computer Modern Sans Serif', 'Lucida Grande', 'Verdana', 'Geneva', 'Lucid', 'Arial', 'Helvetica', 'Avant Garde', sans-serif; text-anchor: start" x="372.614776" y="44.731875" transform="rotate(-0 372.614776 44.731875)">LM unadapted</text>
    </g>
   </g>
  </g>
  <g id="axes_3">
   <g id="patch_12">
    <path d="M 499.646562 214.62 
L 688.088526 214.62 
L 688.088526 7.2 
L 499.646562 7.2 
z
" style="fill: #ffffff"/>
   </g>
   <g id="PolyCollection_5">
    <defs>
     <path id="m0f66dfc183" d="M 545.054264 -249.758381 
L 545.054264 -187.768562 
L 590.461966 -123.078968 
L 635.869668 -97.297113 
L 681.27737 -74.395871 
L 681.27737 -83.825227 
L 681.27737 -83.825227 
L 635.869668 -110.787996 
L 590.461966 -143.819667 
L 545.054264 -249.758381 
z
" style="stroke: #d1a6de; stroke-opacity: 0.3; stroke-width: 1.5"/>
    </defs>
    <g clip-path="url(#pf37dc4918f)">
     <use xlink:href="#m0f66dfc183" x="0" y="266.386562" style="fill: #d1a6de; fill-opacity: 0.3; stroke: #d1a6de; stroke-opacity: 0.3; stroke-width: 1.5"/>
    </g>
   </g>
   <g id="PolyCollection_6">
    <defs>
     <path id="m5032e72576" d="M 545.054264 -177.705707 
L 545.054264 -120.515168 
L 590.461966 -79.586923 
L 635.869668 -73.427358 
L 681.27737 -61.194744 
L 681.27737 -66.175539 
L 681.27737 -66.175539 
L 635.869668 -82.141149 
L 590.461966 -105.900396 
L 545.054264 -177.705707 
z
" style="stroke: #8c75e6; stroke-opacity: 0.3; stroke-width: 1.5"/>
    </defs>
    <g clip-path="url(#pf37dc4918f)">
     <use xlink:href="#m5032e72576" x="0" y="266.386562" style="fill: #8c75e6; fill-opacity: 0.3; stroke: #8c75e6; stroke-opacity: 0.3; stroke-width: 1.5"/>
    </g>
   </g>
   <g id="matplotlib.axis_5">
    <g id="xtick_11">
     <g id="line2d_21">
      <g>
       <use xlink:href="#m5d4b9073f5" x="499.646562" y="214.62" style="stroke: #000000; stroke-width: 1.875"/>
      </g>
     </g>
     <g id="text_20">
      <text style="font: 16px 'DejaVu Sans', 'Bitstream Vera Sans', 'Computer Modern Sans Serif', 'Lucida Grande', 'Verdana', 'Geneva', 'Lucid', 'Arial', 'Helvetica', 'Avant Garde', sans-serif; text-anchor: middle" x="499.646562" y="239.2775" transform="rotate(-0 499.646562 239.2775)">0</text>
     </g>
    </g>
    <g id="xtick_12">
     <g id="line2d_22">
      <g>
       <use xlink:href="#m5d4b9073f5" x="545.054264" y="214.62" style="stroke: #000000; stroke-width: 1.875"/>
      </g>
     </g>
     <g id="text_21">
      <text style="font: 16px 'DejaVu Sans', 'Bitstream Vera Sans', 'Computer Modern Sans Serif', 'Lucida Grande', 'Verdana', 'Geneva', 'Lucid', 'Arial', 'Helvetica', 'Avant Garde', sans-serif; text-anchor: middle" x="545.054264" y="239.2775" transform="rotate(-0 545.054264 239.2775)">22.5</text>
     </g>
    </g>
    <g id="xtick_13">
     <g id="line2d_23">
      <g>
       <use xlink:href="#m5d4b9073f5" x="590.461966" y="214.62" style="stroke: #000000; stroke-width: 1.875"/>
      </g>
     </g>
     <g id="text_22">
      <text style="font: 16px 'DejaVu Sans', 'Bitstream Vera Sans', 'Computer Modern Sans Serif', 'Lucida Grande', 'Verdana', 'Geneva', 'Lucid', 'Arial', 'Helvetica', 'Avant Garde', sans-serif; text-anchor: middle" x="590.461966" y="239.2775" transform="rotate(-0 590.461966 239.2775)">45</text>
     </g>
    </g>
    <g id="xtick_14">
     <g id="line2d_24">
      <g>
       <use xlink:href="#m5d4b9073f5" x="635.869668" y="214.62" style="stroke: #000000; stroke-width: 1.875"/>
      </g>
     </g>
     <g id="text_23">
      <text style="font: 16px 'DejaVu Sans', 'Bitstream Vera Sans', 'Computer Modern Sans Serif', 'Lucida Grande', 'Verdana', 'Geneva', 'Lucid', 'Arial', 'Helvetica', 'Avant Garde', sans-serif; text-anchor: middle" x="635.869668" y="239.2775" transform="rotate(-0 635.869668 239.2775)">67.5</text>
     </g>
    </g>
    <g id="xtick_15">
     <g id="line2d_25">
      <g>
       <use xlink:href="#m5d4b9073f5" x="681.27737" y="214.62" style="stroke: #000000; stroke-width: 1.875"/>
      </g>
     </g>
     <g id="text_24">
      <text style="font: 16px 'DejaVu Sans', 'Bitstream Vera Sans', 'Computer Modern Sans Serif', 'Lucida Grande', 'Verdana', 'Geneva', 'Lucid', 'Arial', 'Helvetica', 'Avant Garde', sans-serif; text-anchor: middle" x="681.27737" y="239.2775" transform="rotate(-0 681.27737 239.2775)">90</text>
     </g>
    </g>
   </g>
   <g id="matplotlib.axis_6">
    <g id="ytick_7">
     <g id="line2d_26">
      <g>
       <use xlink:href="#m6209a769fa" x="499.646562" y="161.739062" style="stroke: #000000; stroke-width: 1.875"/>
      </g>
     </g>
    </g>
    <g id="ytick_8">
     <g id="line2d_27">
      <g>
       <use xlink:href="#m6209a769fa" x="499.646562" y="101.493499" style="stroke: #000000; stroke-width: 1.875"/>
      </g>
     </g>
    </g>
    <g id="ytick_9">
     <g id="line2d_28">
      <g>
       <use xlink:href="#m6209a769fa" x="499.646562" y="41.247935" style="stroke: #000000; stroke-width: 1.875"/>
      </g>
     </g>
    </g>
   </g>
   <g id="line2d_29">
    <path d="M 545.054264 61.581114 
L 590.461966 135.853428 
L 635.869668 162.476429 
L 681.27737 188.386252 
" clip-path="url(#pf37dc4918f)" style="fill: none; stroke: #d1a6de; stroke-opacity: 0.9; stroke-width: 2.25; stroke-linecap: square"/>
    <defs>
     <path id="m9ff3079d07" d="M 0 2.25 
C 0.596707 2.25 1.169055 2.012926 1.59099 1.59099 
C 2.012926 1.169055 2.25 0.596707 2.25 0 
C 2.25 -0.596707 2.012926 -1.169055 1.59099 -1.59099 
C 1.169055 -2.012926 0.596707 -2.25 0 -2.25 
C -0.596707 -2.25 -1.169055 -2.012926 -1.59099 -1.59099 
C -2.012926 -1.169055 -2.25 -0.596707 -2.25 0 
C -2.25 0.596707 -2.012926 1.169055 -1.59099 1.59099 
C -1.169055 2.012926 -0.596707 2.25 0 2.25 
z
" style="stroke: #d1a6de; stroke-opacity: 0.9"/>
    </defs>
    <g clip-path="url(#pf37dc4918f)">
     <use xlink:href="#m9ff3079d07" x="545.054264" y="61.581114" style="fill: #d1a6de; fill-opacity: 0.9; stroke: #d1a6de; stroke-opacity: 0.9"/>
     <use xlink:href="#m9ff3079d07" x="590.461966" y="135.853428" style="fill: #d1a6de; fill-opacity: 0.9; stroke: #d1a6de; stroke-opacity: 0.9"/>
     <use xlink:href="#m9ff3079d07" x="635.869668" y="162.476429" style="fill: #d1a6de; fill-opacity: 0.9; stroke: #d1a6de; stroke-opacity: 0.9"/>
     <use xlink:href="#m9ff3079d07" x="681.27737" y="188.386252" style="fill: #d1a6de; fill-opacity: 0.9; stroke: #d1a6de; stroke-opacity: 0.9"/>
    </g>
   </g>
   <g id="line2d_30">
    <path d="M 545.054264 131.485363 
L 590.461966 180.219088 
L 635.869668 190.350721 
L 681.27737 203.441228 
" clip-path="url(#pf37dc4918f)" style="fill: none; stroke: #8c75e6; stroke-opacity: 0.9; stroke-width: 2.25; stroke-linecap: square"/>
    <defs>
     <path id="m1d3b3b28af" d="M 0 2.25 
C 0.596707 2.25 1.169055 2.012926 1.59099 1.59099 
C 2.012926 1.169055 2.25 0.596707 2.25 0 
C 2.25 -0.596707 2.012926 -1.169055 1.59099 -1.59099 
C 1.169055 -2.012926 0.596707 -2.25 0 -2.25 
C -0.596707 -2.25 -1.169055 -2.012926 -1.59099 -1.59099 
C -2.012926 -1.169055 -2.25 -0.596707 -2.25 0 
C -2.25 0.596707 -2.012926 1.169055 -1.59099 1.59099 
C -1.169055 2.012926 -0.596707 2.25 0 2.25 
z
" style="stroke: #8c75e6; stroke-opacity: 0.9"/>
    </defs>
    <g clip-path="url(#pf37dc4918f)">
     <use xlink:href="#m1d3b3b28af" x="545.054264" y="131.485363" style="fill: #8c75e6; fill-opacity: 0.9; stroke: #8c75e6; stroke-opacity: 0.9"/>
     <use xlink:href="#m1d3b3b28af" x="590.461966" y="180.219088" style="fill: #8c75e6; fill-opacity: 0.9; stroke: #8c75e6; stroke-opacity: 0.9"/>
     <use xlink:href="#m1d3b3b28af" x="635.869668" y="190.350721" style="fill: #8c75e6; fill-opacity: 0.9; stroke: #8c75e6; stroke-opacity: 0.9"/>
     <use xlink:href="#m1d3b3b28af" x="681.27737" y="203.441228" style="fill: #8c75e6; fill-opacity: 0.9; stroke: #8c75e6; stroke-opacity: 0.9"/>
    </g>
   </g>
   <g id="patch_13">
    <path d="M 499.646562 214.62 
L 499.646562 7.2 
" style="fill: none; stroke: #000000; stroke-width: 2; stroke-linejoin: miter; stroke-linecap: square"/>
   </g>
   <g id="patch_14">
    <path d="M 499.646562 214.62 
L 688.088526 214.62 
" style="fill: none; stroke: #000000; stroke-width: 2; stroke-linejoin: miter; stroke-linecap: square"/>
   </g>
   <g id="legend_3">
    <g id="patch_15">
     <path d="M 564.788526 27.118125 
L 588.788526 27.118125 
L 588.788526 18.718125 
L 564.788526 18.718125 
z
" style="fill: #d1a6de; fill-opacity: 0.3; stroke: #d1a6de; stroke-opacity: 0.3; stroke-width: 1.5; stroke-linejoin: miter"/>
    </g>
    <g id="text_25">
     <text style="font: 12px 'DejaVu Sans', 'Bitstream Vera Sans', 'Computer Modern Sans Serif', 'Lucida Grande', 'Verdana', 'Geneva', 'Lucid', 'Arial', 'Helvetica', 'Avant Garde', sans-serif; text-anchor: start" x="598.388526" y="27.118125" transform="rotate(-0 598.388526 27.118125)">LI adapted</text>
    </g>
    <g id="patch_16">
     <path d="M 564.788526 44.731875 
L 588.788526 44.731875 
L 588.788526 36.331875 
L 564.788526 36.331875 
z
" style="fill: #8c75e6; fill-opacity: 0.3; stroke: #8c75e6; stroke-opacity: 0.3; stroke-width: 1.5; stroke-linejoin: miter"/>
    </g>
    <g id="text_26">
     <text style="font: 12px 'DejaVu Sans', 'Bitstream Vera Sans', 'Computer Modern Sans Serif', 'Lucida Grande', 'Verdana', 'Geneva', 'Lucid', 'Arial', 'Helvetica', 'Avant Garde', sans-serif; text-anchor: start" x="598.388526" y="44.731875" transform="rotate(-0 598.388526 44.731875)">LI unadapted</text>
    </g>
   </g>
  </g>
 </g>
 <defs>
  <clipPath id="p41a9cfef8a">
   <rect x="61.726563" y="7.2" width="188.441963" height="207.42"/>
  </clipPath>
  <clipPath id="p56447941f3">
   <rect x="280.686562" y="7.2" width="188.441963" height="207.42"/>
  </clipPath>
  <clipPath id="pf37dc4918f">
   <rect x="499.646562" y="7.2" width="188.441963" height="207.42"/>
  </clipPath>
 </defs>
</svg>
