<?xml version="1.0" encoding="utf-8" standalone="no"?>
<!DOCTYPE svg PUBLIC "-//W3C//DTD SVG 1.1//EN"
  "http://www.w3.org/Graphics/SVG/1.1/DTD/svg11.dtd">
<svg xmlns:xlink="http://www.w3.org/1999/xlink" width="697.719443pt" height="265.69pt" viewBox="0 0 697.719443 265.69" xmlns="http://www.w3.org/2000/svg" version="1.1">
 <metadata>
  <rdf:RDF xmlns:dc="http://purl.org/dc/elements/1.1/" xmlns:cc="http://creativecommons.org/ns#" xmlns:rdf="http://www.w3.org/1999/02/22-rdf-syntax-ns#">
   <cc:Work>
    <dc:type rdf:resource="http://purl.org/dc/dcmitype/StillImage"/>
    <dc:date>2023-11-30T11:46:42.549366</dc:date>
    <dc:format>image/svg+xml</dc:format>
    <dc:creator>
     <cc:Agent>
      <dc:title>Matplotlib v3.7.2, https://matplotlib.org/</dc:title>
     </cc:Agent>
    </dc:creator>
   </cc:Work>
  </rdf:RDF>
 </metadata>
 <defs>
  <style type="text/css">*{stroke-linejoin: round; stroke-linecap: butt}</style>
 </defs>
 <g id="figure_1">
  <g id="patch_1">
   <path d="M 0 265.69 
L 697.719443 265.69 
L 697.719443 0 
L 0 0 
z
" style="fill: #ffffff"/>
  </g>
  <g id="axes_1">
   <g id="patch_2">
    <path d="M 64.63 211.02 
L 253.399893 211.02 
L 253.399893 7.2 
L 64.63 7.2 
z
" style="fill: #ffffff"/>
   </g>
   <g id="PolyCollection_1">
    <defs>
     <path id="m00e34cdc5d" d="M 73.21045 -80.611376 
L 73.21045 -63.934545 
L 116.112698 -84.298606 
L 159.014947 -100.22596 
L 201.917195 -129.234833 
L 244.819443 -160.090191 
L 244.819443 -173.774663 
L 244.819443 -173.774663 
L 201.917195 -147.371376 
L 159.014947 -120.706253 
L 116.112698 -97.881836 
L 73.21045 -80.611376 
z
" style="stroke: #3e51cc; stroke-opacity: 0.3; stroke-width: 1.5"/>
    </defs>
    <g clip-path="url(#p4f77dcbb6c)">
     <use xlink:href="#m00e34cdc5d" x="0" y="265.69" style="fill: #3e51cc; fill-opacity: 0.3; stroke: #3e51cc; stroke-opacity: 0.3; stroke-width: 1.5"/>
    </g>
   </g>
   <g id="PolyCollection_2">
    <defs>
     <path id="m79fdd31ef5" d="M 73.21045 -139.058236 
L 73.21045 -126.532447 
L 116.112698 -137.735711 
L 159.014947 -150.03029 
L 201.917195 -158.771536 
L 244.819443 -218.710106 
L 244.819443 -248.918259 
L 244.819443 -248.918259 
L 201.917195 -184.467556 
L 159.014947 -168.776773 
L 116.112698 -154.694455 
L 73.21045 -139.058236 
z
" style="stroke: #85a7eb; stroke-opacity: 0.3; stroke-width: 1.5"/>
    </defs>
    <g clip-path="url(#p4f77dcbb6c)">
     <use xlink:href="#m79fdd31ef5" x="0" y="265.69" style="fill: #85a7eb; fill-opacity: 0.3; stroke: #85a7eb; stroke-opacity: 0.3; stroke-width: 1.5"/>
    </g>
   </g>
   <g id="matplotlib.axis_1">
    <g id="xtick_1">
     <g id="line2d_1">
      <defs>
       <path id="m669e868921" d="M 0 0 
L 0 9 
" style="stroke: #000000; stroke-width: 1.875"/>
      </defs>
      <g>
       <use xlink:href="#m669e868921" x="73.21045" y="211.02" style="stroke: #000000; stroke-width: 1.875"/>
      </g>
     </g>
     <g id="text_1">
      <text style="font: 16px 'DejaVu Sans', 'Bitstream Vera Sans', 'Computer Modern Sans Serif', 'Lucida Grande', 'Verdana', 'Geneva', 'Lucid', 'Arial', 'Helvetica', 'Avant Garde', sans-serif; text-anchor: middle" x="73.21045" y="235.6775" transform="rotate(-0 73.21045 235.6775)">0</text>
     </g>
    </g>
    <g id="xtick_2">
     <g id="line2d_2">
      <g>
       <use xlink:href="#m669e868921" x="116.112698" y="211.02" style="stroke: #000000; stroke-width: 1.875"/>
      </g>
     </g>
     <g id="text_2">
      <text style="font: 16px 'DejaVu Sans', 'Bitstream Vera Sans', 'Computer Modern Sans Serif', 'Lucida Grande', 'Verdana', 'Geneva', 'Lucid', 'Arial', 'Helvetica', 'Avant Garde', sans-serif; text-anchor: middle" x="116.112698" y="235.6775" transform="rotate(-0 116.112698 235.6775)">22.5</text>
     </g>
    </g>
    <g id="xtick_3">
     <g id="line2d_3">
      <g>
       <use xlink:href="#m669e868921" x="159.014947" y="211.02" style="stroke: #000000; stroke-width: 1.875"/>
      </g>
     </g>
     <g id="text_3">
      <text style="font: 16px 'DejaVu Sans', 'Bitstream Vera Sans', 'Computer Modern Sans Serif', 'Lucida Grande', 'Verdana', 'Geneva', 'Lucid', 'Arial', 'Helvetica', 'Avant Garde', sans-serif; text-anchor: middle" x="159.014947" y="235.6775" transform="rotate(-0 159.014947 235.6775)">45</text>
     </g>
    </g>
    <g id="xtick_4">
     <g id="line2d_4">
      <g>
       <use xlink:href="#m669e868921" x="201.917195" y="211.02" style="stroke: #000000; stroke-width: 1.875"/>
      </g>
     </g>
     <g id="text_4">
      <text style="font: 16px 'DejaVu Sans', 'Bitstream Vera Sans', 'Computer Modern Sans Serif', 'Lucida Grande', 'Verdana', 'Geneva', 'Lucid', 'Arial', 'Helvetica', 'Avant Garde', sans-serif; text-anchor: middle" x="201.917195" y="235.6775" transform="rotate(-0 201.917195 235.6775)">67.5</text>
     </g>
    </g>
    <g id="xtick_5">
     <g id="line2d_5">
      <g>
       <use xlink:href="#m669e868921" x="244.819443" y="211.02" style="stroke: #000000; stroke-width: 1.875"/>
      </g>
     </g>
     <g id="text_5">
      <text style="font: 16px 'DejaVu Sans', 'Bitstream Vera Sans', 'Computer Modern Sans Serif', 'Lucida Grande', 'Verdana', 'Geneva', 'Lucid', 'Arial', 'Helvetica', 'Avant Garde', sans-serif; text-anchor: middle" x="244.819443" y="235.6775" transform="rotate(-0 244.819443 235.6775)">90</text>
     </g>
    </g>
   </g>
   <g id="matplotlib.axis_2">
    <g id="ytick_1">
     <g id="line2d_6">
      <defs>
       <path id="m7cde42ae29" d="M 0 0 
L -9 0 
" style="stroke: #000000; stroke-width: 1.875"/>
      </defs>
      <g>
       <use xlink:href="#m7cde42ae29" x="64.63" y="173.467846" style="stroke: #000000; stroke-width: 1.875"/>
      </g>
     </g>
     <g id="text_6">
      <text style="font: 16px 'DejaVu Sans', 'Bitstream Vera Sans', 'Computer Modern Sans Serif', 'Lucida Grande', 'Verdana', 'Geneva', 'Lucid', 'Arial', 'Helvetica', 'Avant Garde', sans-serif; text-anchor: end" x="52.13" y="179.546596" transform="rotate(-0 52.13 179.546596)">0.2</text>
     </g>
    </g>
    <g id="ytick_2">
     <g id="line2d_7">
      <g>
       <use xlink:href="#m7cde42ae29" x="64.63" y="134.131435" style="stroke: #000000; stroke-width: 1.875"/>
      </g>
     </g>
     <g id="text_7">
      <text style="font: 16px 'DejaVu Sans', 'Bitstream Vera Sans', 'Computer Modern Sans Serif', 'Lucida Grande', 'Verdana', 'Geneva', 'Lucid', 'Arial', 'Helvetica', 'Avant Garde', sans-serif; text-anchor: end" x="52.13" y="140.210185" transform="rotate(-0 52.13 140.210185)">0.4</text>
     </g>
    </g>
    <g id="ytick_3">
     <g id="line2d_8">
      <g>
       <use xlink:href="#m7cde42ae29" x="64.63" y="94.795024" style="stroke: #000000; stroke-width: 1.875"/>
      </g>
     </g>
     <g id="text_8">
      <text style="font: 16px 'DejaVu Sans', 'Bitstream Vera Sans', 'Computer Modern Sans Serif', 'Lucida Grande', 'Verdana', 'Geneva', 'Lucid', 'Arial', 'Helvetica', 'Avant Garde', sans-serif; text-anchor: end" x="52.13" y="100.873774" transform="rotate(-0 52.13 100.873774)">0.6</text>
     </g>
    </g>
    <g id="ytick_4">
     <g id="line2d_9">
      <g>
       <use xlink:href="#m7cde42ae29" x="64.63" y="55.458613" style="stroke: #000000; stroke-width: 1.875"/>
      </g>
     </g>
     <g id="text_9">
      <text style="font: 16px 'DejaVu Sans', 'Bitstream Vera Sans', 'Computer Modern Sans Serif', 'Lucida Grande', 'Verdana', 'Geneva', 'Lucid', 'Arial', 'Helvetica', 'Avant Garde', sans-serif; text-anchor: end" x="52.13" y="61.537363" transform="rotate(-0 52.13 61.537363)">0.8</text>
     </g>
    </g>
    <g id="ytick_5">
     <g id="line2d_10">
      <g>
       <use xlink:href="#m7cde42ae29" x="64.63" y="16.122202" style="stroke: #000000; stroke-width: 1.875"/>
      </g>
     </g>
     <g id="text_10">
      <text style="font: 16px 'DejaVu Sans', 'Bitstream Vera Sans', 'Computer Modern Sans Serif', 'Lucida Grande', 'Verdana', 'Geneva', 'Lucid', 'Arial', 'Helvetica', 'Avant Garde', sans-serif; text-anchor: end" x="52.13" y="22.200952" transform="rotate(-0 52.13 22.200952)">1.0</text>
     </g>
    </g>
    <g id="text_11">
     <text style="font: 16px 'DejaVu Sans', 'Bitstream Vera Sans', 'Computer Modern Sans Serif', 'Lucida Grande', 'Verdana', 'Geneva', 'Lucid', 'Arial', 'Helvetica', 'Avant Garde', sans-serif; text-anchor: middle" x="19.3575" y="109.11" transform="rotate(-90 19.3575 109.11)">Normalized Dot product</text>
    </g>
   </g>
   <g id="line2d_11">
    <path d="M 73.21045 190.32995 
L 116.112698 171.262995 
L 159.014947 149.29026 
L 201.917195 124.064511 
L 244.819443 96.412923 
" clip-path="url(#p4f77dcbb6c)" style="fill: none; stroke: #3e51cc; stroke-opacity: 0.9; stroke-width: 2.25; stroke-linecap: square"/>
    <defs>
     <path id="m20629daada" d="M 0 2.25 
C 0.596707 2.25 1.169055 2.012926 1.59099 1.59099 
C 2.012926 1.169055 2.25 0.596707 2.25 0 
C 2.25 -0.596707 2.012926 -1.169055 1.59099 -1.59099 
C 1.169055 -2.012926 0.596707 -2.25 0 -2.25 
C -0.596707 -2.25 -1.169055 -2.012926 -1.59099 -1.59099 
C -2.012926 -1.169055 -2.25 -0.596707 -2.25 0 
C -2.25 0.596707 -2.012926 1.169055 -1.59099 1.59099 
C -1.169055 2.012926 -0.596707 2.25 0 2.25 
z
" style="stroke: #3e51cc; stroke-opacity: 0.9"/>
    </defs>
    <g clip-path="url(#p4f77dcbb6c)">
     <use xlink:href="#m20629daada" x="73.21045" y="190.32995" style="fill: #3e51cc; fill-opacity: 0.9; stroke: #3e51cc; stroke-opacity: 0.9"/>
     <use xlink:href="#m20629daada" x="116.112698" y="171.262995" style="fill: #3e51cc; fill-opacity: 0.9; stroke: #3e51cc; stroke-opacity: 0.9"/>
     <use xlink:href="#m20629daada" x="159.014947" y="149.29026" style="fill: #3e51cc; fill-opacity: 0.9; stroke: #3e51cc; stroke-opacity: 0.9"/>
     <use xlink:href="#m20629daada" x="201.917195" y="124.064511" style="fill: #3e51cc; fill-opacity: 0.9; stroke: #3e51cc; stroke-opacity: 0.9"/>
     <use xlink:href="#m20629daada" x="244.819443" y="96.412923" style="fill: #3e51cc; fill-opacity: 0.9; stroke: #3e51cc; stroke-opacity: 0.9"/>
    </g>
   </g>
   <g id="line2d_12">
    <path d="M 73.21045 131.479912 
L 116.112698 117.374364 
L 159.014947 102.959645 
L 201.917195 88.870104 
L 244.819443 23.812254 
" clip-path="url(#p4f77dcbb6c)" style="fill: none; stroke: #85a7eb; stroke-opacity: 0.9; stroke-width: 2.25; stroke-linecap: square"/>
    <defs>
     <path id="mc9be973b46" d="M 0 2.25 
C 0.596707 2.25 1.169055 2.012926 1.59099 1.59099 
C 2.012926 1.169055 2.25 0.596707 2.25 0 
C 2.25 -0.596707 2.012926 -1.169055 1.59099 -1.59099 
C 1.169055 -2.012926 0.596707 -2.25 0 -2.25 
C -0.596707 -2.25 -1.169055 -2.012926 -1.59099 -1.59099 
C -2.012926 -1.169055 -2.25 -0.596707 -2.25 0 
C -2.25 0.596707 -2.012926 1.169055 -1.59099 1.59099 
C -1.169055 2.012926 -0.596707 2.25 0 2.25 
z
" style="stroke: #85a7eb; stroke-opacity: 0.9"/>
    </defs>
    <g clip-path="url(#p4f77dcbb6c)">
     <use xlink:href="#mc9be973b46" x="73.21045" y="131.479912" style="fill: #85a7eb; fill-opacity: 0.9; stroke: #85a7eb; stroke-opacity: 0.9"/>
     <use xlink:href="#mc9be973b46" x="116.112698" y="117.374364" style="fill: #85a7eb; fill-opacity: 0.9; stroke: #85a7eb; stroke-opacity: 0.9"/>
     <use xlink:href="#mc9be973b46" x="159.014947" y="102.959645" style="fill: #85a7eb; fill-opacity: 0.9; stroke: #85a7eb; stroke-opacity: 0.9"/>
     <use xlink:href="#mc9be973b46" x="201.917195" y="88.870104" style="fill: #85a7eb; fill-opacity: 0.9; stroke: #85a7eb; stroke-opacity: 0.9"/>
     <use xlink:href="#mc9be973b46" x="244.819443" y="23.812254" style="fill: #85a7eb; fill-opacity: 0.9; stroke: #85a7eb; stroke-opacity: 0.9"/>
    </g>
   </g>
   <g id="patch_3">
    <path d="M 64.63 211.02 
L 64.63 7.2 
" style="fill: none; stroke: #000000; stroke-width: 2; stroke-linejoin: miter; stroke-linecap: square"/>
   </g>
   <g id="patch_4">
    <path d="M 64.63 211.02 
L 253.399893 211.02 
" style="fill: none; stroke: #000000; stroke-width: 2; stroke-linejoin: miter; stroke-linecap: square"/>
   </g>
   <g id="legend_1">
    <g id="patch_5">
     <path d="M 75.43 27.118125 
L 99.43 27.118125 
L 99.43 18.718125 
L 75.43 18.718125 
z
" style="fill: #3e51cc; fill-opacity: 0.3; stroke: #3e51cc; stroke-opacity: 0.3; stroke-width: 1.5; stroke-linejoin: miter"/>
    </g>
    <g id="text_12">
     <text style="font: 12px 'DejaVu Sans', 'Bitstream Vera Sans', 'Computer Modern Sans Serif', 'Lucida Grande', 'Verdana', 'Geneva', 'Lucid', 'Arial', 'Helvetica', 'Avant Garde', sans-serif; text-anchor: start" x="109.03" y="27.118125" transform="rotate(-0 109.03 27.118125)">V1 adapted</text>
    </g>
    <g id="patch_6">
     <path d="M 75.43 44.731875 
L 99.43 44.731875 
L 99.43 36.331875 
L 75.43 36.331875 
z
" style="fill: #85a7eb; fill-opacity: 0.3; stroke: #85a7eb; stroke-opacity: 0.3; stroke-width: 1.5; stroke-linejoin: miter"/>
    </g>
    <g id="text_13">
     <text style="font: 12px 'DejaVu Sans', 'Bitstream Vera Sans', 'Computer Modern Sans Serif', 'Lucida Grande', 'Verdana', 'Geneva', 'Lucid', 'Arial', 'Helvetica', 'Avant Garde', sans-serif; text-anchor: start" x="109.03" y="44.731875" transform="rotate(-0 109.03 44.731875)">V1 unadapted</text>
    </g>
   </g>
  </g>
  <g id="axes_2">
   <g id="patch_7">
    <path d="M 282.39 211.02 
L 471.159893 211.02 
L 471.159893 7.2 
L 282.39 7.2 
z
" style="fill: #ffffff"/>
   </g>
   <g id="PolyCollection_3">
    <defs>
     <path id="m23245d5d69" d="M 290.97045 -98.817658 
L 290.97045 -87.393025 
L 333.872698 -96.260973 
L 376.774947 -106.610088 
L 419.677195 -130.96853 
L 462.579443 -170.8519 
L 462.579443 -200.510811 
L 462.579443 -200.510811 
L 419.677195 -151.288276 
L 376.774947 -117.776962 
L 333.872698 -106.224738 
L 290.97045 -98.817658 
z
" style="stroke: #c48a5a; stroke-opacity: 0.3; stroke-width: 1.5"/>
    </defs>
    <g clip-path="url(#p5a58035df9)">
     <use xlink:href="#m23245d5d69" x="0" y="265.69" style="fill: #c48a5a; fill-opacity: 0.3; stroke: #c48a5a; stroke-opacity: 0.3; stroke-width: 1.5"/>
    </g>
   </g>
   <g id="PolyCollection_4">
    <defs>
     <path id="m4ec7daf3ec" d="M 290.97045 -179.003654 
L 290.97045 -156.282054 
L 333.872698 -154.341005 
L 376.774947 -158.466705 
L 419.677195 -190.190307 
L 462.579443 -221.15468 
L 462.579443 -249.225455 
L 462.579443 -249.225455 
L 419.677195 -225.735449 
L 376.774947 -175.948124 
L 333.872698 -177.367227 
L 290.97045 -179.003654 
z
" style="stroke: #f6cd51; stroke-opacity: 0.3; stroke-width: 1.5"/>
    </defs>
    <g clip-path="url(#p5a58035df9)">
     <use xlink:href="#m4ec7daf3ec" x="0" y="265.69" style="fill: #f6cd51; fill-opacity: 0.3; stroke: #f6cd51; stroke-opacity: 0.3; stroke-width: 1.5"/>
    </g>
   </g>
   <g id="matplotlib.axis_3">
    <g id="xtick_6">
     <g id="line2d_13">
      <g>
       <use xlink:href="#m669e868921" x="290.97045" y="211.02" style="stroke: #000000; stroke-width: 1.875"/>
      </g>
     </g>
     <g id="text_14">
      <text style="font: 16px 'DejaVu Sans', 'Bitstream Vera Sans', 'Computer Modern Sans Serif', 'Lucida Grande', 'Verdana', 'Geneva', 'Lucid', 'Arial', 'Helvetica', 'Avant Garde', sans-serif; text-anchor: middle" x="290.97045" y="235.6775" transform="rotate(-0 290.97045 235.6775)">0</text>
     </g>
    </g>
    <g id="xtick_7">
     <g id="line2d_14">
      <g>
       <use xlink:href="#m669e868921" x="333.872698" y="211.02" style="stroke: #000000; stroke-width: 1.875"/>
      </g>
     </g>
     <g id="text_15">
      <text style="font: 16px 'DejaVu Sans', 'Bitstream Vera Sans', 'Computer Modern Sans Serif', 'Lucida Grande', 'Verdana', 'Geneva', 'Lucid', 'Arial', 'Helvetica', 'Avant Garde', sans-serif; text-anchor: middle" x="333.872698" y="235.6775" transform="rotate(-0 333.872698 235.6775)">22.5</text>
     </g>
    </g>
    <g id="xtick_8">
     <g id="line2d_15">
      <g>
       <use xlink:href="#m669e868921" x="376.774947" y="211.02" style="stroke: #000000; stroke-width: 1.875"/>
      </g>
     </g>
     <g id="text_16">
      <text style="font: 16px 'DejaVu Sans', 'Bitstream Vera Sans', 'Computer Modern Sans Serif', 'Lucida Grande', 'Verdana', 'Geneva', 'Lucid', 'Arial', 'Helvetica', 'Avant Garde', sans-serif; text-anchor: middle" x="376.774947" y="235.6775" transform="rotate(-0 376.774947 235.6775)">45</text>
     </g>
    </g>
    <g id="xtick_9">
     <g id="line2d_16">
      <g>
       <use xlink:href="#m669e868921" x="419.677195" y="211.02" style="stroke: #000000; stroke-width: 1.875"/>
      </g>
     </g>
     <g id="text_17">
      <text style="font: 16px 'DejaVu Sans', 'Bitstream Vera Sans', 'Computer Modern Sans Serif', 'Lucida Grande', 'Verdana', 'Geneva', 'Lucid', 'Arial', 'Helvetica', 'Avant Garde', sans-serif; text-anchor: middle" x="419.677195" y="235.6775" transform="rotate(-0 419.677195 235.6775)">67.5</text>
     </g>
    </g>
    <g id="xtick_10">
     <g id="line2d_17">
      <g>
       <use xlink:href="#m669e868921" x="462.579443" y="211.02" style="stroke: #000000; stroke-width: 1.875"/>
      </g>
     </g>
     <g id="text_18">
      <text style="font: 16px 'DejaVu Sans', 'Bitstream Vera Sans', 'Computer Modern Sans Serif', 'Lucida Grande', 'Verdana', 'Geneva', 'Lucid', 'Arial', 'Helvetica', 'Avant Garde', sans-serif; text-anchor: middle" x="462.579443" y="235.6775" transform="rotate(-0 462.579443 235.6775)">90</text>
     </g>
    </g>
    <g id="text_19">
     <text style="font: 16px 'DejaVu Sans', 'Bitstream Vera Sans', 'Computer Modern Sans Serif', 'Lucida Grande', 'Verdana', 'Geneva', 'Lucid', 'Arial', 'Helvetica', 'Avant Garde', sans-serif; text-anchor: middle" x="376.774947" y="255.1625" transform="rotate(-0 376.774947 255.1625)">Stim2 distance from adapter (deg)</text>
    </g>
   </g>
   <g id="matplotlib.axis_4">
    <g id="ytick_6">
     <g id="line2d_18">
      <g>
       <use xlink:href="#m7cde42ae29" x="282.39" y="173.467846" style="stroke: #000000; stroke-width: 1.875"/>
      </g>
     </g>
    </g>
    <g id="ytick_7">
     <g id="line2d_19">
      <g>
       <use xlink:href="#m7cde42ae29" x="282.39" y="134.131435" style="stroke: #000000; stroke-width: 1.875"/>
      </g>
     </g>
    </g>
    <g id="ytick_8">
     <g id="line2d_20">
      <g>
       <use xlink:href="#m7cde42ae29" x="282.39" y="94.795024" style="stroke: #000000; stroke-width: 1.875"/>
      </g>
     </g>
    </g>
    <g id="ytick_9">
     <g id="line2d_21">
      <g>
       <use xlink:href="#m7cde42ae29" x="282.39" y="55.458613" style="stroke: #000000; stroke-width: 1.875"/>
      </g>
     </g>
    </g>
    <g id="ytick_10">
     <g id="line2d_22">
      <g>
       <use xlink:href="#m7cde42ae29" x="282.39" y="16.122202" style="stroke: #000000; stroke-width: 1.875"/>
      </g>
     </g>
    </g>
   </g>
   <g id="line2d_23">
    <path d="M 290.97045 170.477729 
L 333.872698 163.362813 
L 376.774947 152.079038 
L 419.677195 121.560102 
L 462.579443 71.926485 
" clip-path="url(#p5a58035df9)" style="fill: none; stroke: #c48a5a; stroke-opacity: 0.9; stroke-width: 2.25; stroke-linecap: square"/>
    <defs>
     <path id="mdb2de0b8a4" d="M 0 2.25 
C 0.596707 2.25 1.169055 2.012926 1.59099 1.59099 
C 2.012926 1.169055 2.25 0.596707 2.25 0 
C 2.25 -0.596707 2.012926 -1.169055 1.59099 -1.59099 
C 1.169055 -2.012926 0.596707 -2.25 0 -2.25 
C -0.596707 -2.25 -1.169055 -2.012926 -1.59099 -1.59099 
C -2.012926 -1.169055 -2.25 -0.596707 -2.25 0 
C -2.25 0.596707 -2.012926 1.169055 -1.59099 1.59099 
C -1.169055 2.012926 -0.596707 2.25 0 2.25 
z
" style="stroke: #c48a5a; stroke-opacity: 0.9"/>
    </defs>
    <g clip-path="url(#p5a58035df9)">
     <use xlink:href="#mdb2de0b8a4" x="290.97045" y="170.477729" style="fill: #c48a5a; fill-opacity: 0.9; stroke: #c48a5a; stroke-opacity: 0.9"/>
     <use xlink:href="#mdb2de0b8a4" x="333.872698" y="163.362813" style="fill: #c48a5a; fill-opacity: 0.9; stroke: #c48a5a; stroke-opacity: 0.9"/>
     <use xlink:href="#mdb2de0b8a4" x="376.774947" y="152.079038" style="fill: #c48a5a; fill-opacity: 0.9; stroke: #c48a5a; stroke-opacity: 0.9"/>
     <use xlink:href="#mdb2de0b8a4" x="419.677195" y="121.560102" style="fill: #c48a5a; fill-opacity: 0.9; stroke: #c48a5a; stroke-opacity: 0.9"/>
     <use xlink:href="#mdb2de0b8a4" x="462.579443" y="71.926485" style="fill: #c48a5a; fill-opacity: 0.9; stroke: #c48a5a; stroke-opacity: 0.9"/>
    </g>
   </g>
   <g id="line2d_24">
    <path d="M 290.97045 94.290535 
L 333.872698 95.865201 
L 376.774947 96.908526 
L 419.677195 50.904487 
L 462.579443 23.303184 
" clip-path="url(#p5a58035df9)" style="fill: none; stroke: #f6cd51; stroke-opacity: 0.9; stroke-width: 2.25; stroke-linecap: square"/>
    <defs>
     <path id="m878100e7c4" d="M 0 2.25 
C 0.596707 2.25 1.169055 2.012926 1.59099 1.59099 
C 2.012926 1.169055 2.25 0.596707 2.25 0 
C 2.25 -0.596707 2.012926 -1.169055 1.59099 -1.59099 
C 1.169055 -2.012926 0.596707 -2.25 0 -2.25 
C -0.596707 -2.25 -1.169055 -2.012926 -1.59099 -1.59099 
C -2.012926 -1.169055 -2.25 -0.596707 -2.25 0 
C -2.25 0.596707 -2.012926 1.169055 -1.59099 1.59099 
C -1.169055 2.012926 -0.596707 2.25 0 2.25 
z
" style="stroke: #f6cd51; stroke-opacity: 0.9"/>
    </defs>
    <g clip-path="url(#p5a58035df9)">
     <use xlink:href="#m878100e7c4" x="290.97045" y="94.290535" style="fill: #f6cd51; fill-opacity: 0.9; stroke: #f6cd51; stroke-opacity: 0.9"/>
     <use xlink:href="#m878100e7c4" x="333.872698" y="95.865201" style="fill: #f6cd51; fill-opacity: 0.9; stroke: #f6cd51; stroke-opacity: 0.9"/>
     <use xlink:href="#m878100e7c4" x="376.774947" y="96.908526" style="fill: #f6cd51; fill-opacity: 0.9; stroke: #f6cd51; stroke-opacity: 0.9"/>
     <use xlink:href="#m878100e7c4" x="419.677195" y="50.904487" style="fill: #f6cd51; fill-opacity: 0.9; stroke: #f6cd51; stroke-opacity: 0.9"/>
     <use xlink:href="#m878100e7c4" x="462.579443" y="23.303184" style="fill: #f6cd51; fill-opacity: 0.9; stroke: #f6cd51; stroke-opacity: 0.9"/>
    </g>
   </g>
   <g id="patch_8">
    <path d="M 282.39 211.02 
L 282.39 7.2 
" style="fill: none; stroke: #000000; stroke-width: 2; stroke-linejoin: miter; stroke-linecap: square"/>
   </g>
   <g id="patch_9">
    <path d="M 282.39 211.02 
L 471.159893 211.02 
" style="fill: none; stroke: #000000; stroke-width: 2; stroke-linejoin: miter; stroke-linecap: square"/>
   </g>
   <g id="legend_2">
    <g id="patch_10">
     <path d="M 293.19 27.118125 
L 317.19 27.118125 
L 317.19 18.718125 
L 293.19 18.718125 
z
" style="fill: #c48a5a; fill-opacity: 0.3; stroke: #c48a5a; stroke-opacity: 0.3; stroke-width: 1.5; stroke-linejoin: miter"/>
    </g>
    <g id="text_20">
     <text style="font: 12px 'DejaVu Sans', 'Bitstream Vera Sans', 'Computer Modern Sans Serif', 'Lucida Grande', 'Verdana', 'Geneva', 'Lucid', 'Arial', 'Helvetica', 'Avant Garde', sans-serif; text-anchor: start" x="326.79" y="27.118125" transform="rotate(-0 326.79 27.118125)">LM adapted</text>
    </g>
    <g id="patch_11">
     <path d="M 293.19 44.731875 
L 317.19 44.731875 
L 317.19 36.331875 
L 293.19 36.331875 
z
" style="fill: #f6cd51; fill-opacity: 0.3; stroke: #f6cd51; stroke-opacity: 0.3; stroke-width: 1.5; stroke-linejoin: miter"/>
    </g>
    <g id="text_21">
     <text style="font: 12px 'DejaVu Sans', 'Bitstream Vera Sans', 'Computer Modern Sans Serif', 'Lucida Grande', 'Verdana', 'Geneva', 'Lucid', 'Arial', 'Helvetica', 'Avant Garde', sans-serif; text-anchor: start" x="326.79" y="44.731875" transform="rotate(-0 326.79 44.731875)">LM unadapted</text>
    </g>
   </g>
  </g>
  <g id="axes_3">
   <g id="patch_12">
    <path d="M 500.15 211.02 
L 688.919893 211.02 
L 688.919893 7.2 
L 500.15 7.2 
z
" style="fill: #ffffff"/>
   </g>
   <g id="PolyCollection_5">
    <defs>
     <path id="mfe9ca967e8" d="M 508.73045 -84.141262 
L 508.73045 -72.085158 
L 551.632698 -86.65716 
L 594.534947 -103.600109 
L 637.437195 -112.870807 
L 680.339443 -162.451257 
L 680.339443 -180.400817 
L 680.339443 -180.400817 
L 637.437195 -129.137108 
L 594.534947 -115.41207 
L 551.632698 -108.59717 
L 508.73045 -84.141262 
z
" style="stroke: #8c75e6; stroke-opacity: 0.3; stroke-width: 1.5"/>
    </defs>
    <g clip-path="url(#p583f0e00c2)">
     <use xlink:href="#mfe9ca967e8" x="0" y="265.69" style="fill: #8c75e6; fill-opacity: 0.3; stroke: #8c75e6; stroke-opacity: 0.3; stroke-width: 1.5"/>
    </g>
   </g>
   <g id="PolyCollection_6">
    <defs>
     <path id="mfd31530597" d="M 508.73045 -174.510829 
L 508.73045 -154.724026 
L 551.632698 -164.920422 
L 594.534947 -157.888343 
L 637.437195 -176.398541 
L 680.339443 -224.98568 
L 680.339443 -249.057666 
L 680.339443 -249.057666 
L 637.437195 -202.317218 
L 594.534947 -181.425006 
L 551.632698 -184.507388 
L 508.73045 -174.510829 
z
" style="stroke: #d1a6de; stroke-opacity: 0.3; stroke-width: 1.5"/>
    </defs>
    <g clip-path="url(#p583f0e00c2)">
     <use xlink:href="#mfd31530597" x="0" y="265.69" style="fill: #d1a6de; fill-opacity: 0.3; stroke: #d1a6de; stroke-opacity: 0.3; stroke-width: 1.5"/>
    </g>
   </g>
   <g id="matplotlib.axis_5">
    <g id="xtick_11">
     <g id="line2d_25">
      <g>
       <use xlink:href="#m669e868921" x="508.73045" y="211.02" style="stroke: #000000; stroke-width: 1.875"/>
      </g>
     </g>
     <g id="text_22">
      <text style="font: 16px 'DejaVu Sans', 'Bitstream Vera Sans', 'Computer Modern Sans Serif', 'Lucida Grande', 'Verdana', 'Geneva', 'Lucid', 'Arial', 'Helvetica', 'Avant Garde', sans-serif; text-anchor: middle" x="508.73045" y="235.6775" transform="rotate(-0 508.73045 235.6775)">0</text>
     </g>
    </g>
    <g id="xtick_12">
     <g id="line2d_26">
      <g>
       <use xlink:href="#m669e868921" x="551.632698" y="211.02" style="stroke: #000000; stroke-width: 1.875"/>
      </g>
     </g>
     <g id="text_23">
      <text style="font: 16px 'DejaVu Sans', 'Bitstream Vera Sans', 'Computer Modern Sans Serif', 'Lucida Grande', 'Verdana', 'Geneva', 'Lucid', 'Arial', 'Helvetica', 'Avant Garde', sans-serif; text-anchor: middle" x="551.632698" y="235.6775" transform="rotate(-0 551.632698 235.6775)">22.5</text>
     </g>
    </g>
    <g id="xtick_13">
     <g id="line2d_27">
      <g>
       <use xlink:href="#m669e868921" x="594.534947" y="211.02" style="stroke: #000000; stroke-width: 1.875"/>
      </g>
     </g>
     <g id="text_24">
      <text style="font: 16px 'DejaVu Sans', 'Bitstream Vera Sans', 'Computer Modern Sans Serif', 'Lucida Grande', 'Verdana', 'Geneva', 'Lucid', 'Arial', 'Helvetica', 'Avant Garde', sans-serif; text-anchor: middle" x="594.534947" y="235.6775" transform="rotate(-0 594.534947 235.6775)">45</text>
     </g>
    </g>
    <g id="xtick_14">
     <g id="line2d_28">
      <g>
       <use xlink:href="#m669e868921" x="637.437195" y="211.02" style="stroke: #000000; stroke-width: 1.875"/>
      </g>
     </g>
     <g id="text_25">
      <text style="font: 16px 'DejaVu Sans', 'Bitstream Vera Sans', 'Computer Modern Sans Serif', 'Lucida Grande', 'Verdana', 'Geneva', 'Lucid', 'Arial', 'Helvetica', 'Avant Garde', sans-serif; text-anchor: middle" x="637.437195" y="235.6775" transform="rotate(-0 637.437195 235.6775)">67.5</text>
     </g>
    </g>
    <g id="xtick_15">
     <g id="line2d_29">
      <g>
       <use xlink:href="#m669e868921" x="680.339443" y="211.02" style="stroke: #000000; stroke-width: 1.875"/>
      </g>
     </g>
     <g id="text_26">
      <text style="font: 16px 'DejaVu Sans', 'Bitstream Vera Sans', 'Computer Modern Sans Serif', 'Lucida Grande', 'Verdana', 'Geneva', 'Lucid', 'Arial', 'Helvetica', 'Avant Garde', sans-serif; text-anchor: middle" x="680.339443" y="235.6775" transform="rotate(-0 680.339443 235.6775)">90</text>
     </g>
    </g>
   </g>
   <g id="matplotlib.axis_6">
    <g id="ytick_11">
     <g id="line2d_30">
      <g>
       <use xlink:href="#m7cde42ae29" x="500.15" y="173.467846" style="stroke: #000000; stroke-width: 1.875"/>
      </g>
     </g>
    </g>
    <g id="ytick_12">
     <g id="line2d_31">
      <g>
       <use xlink:href="#m7cde42ae29" x="500.15" y="134.131435" style="stroke: #000000; stroke-width: 1.875"/>
      </g>
     </g>
    </g>
    <g id="ytick_13">
     <g id="line2d_32">
      <g>
       <use xlink:href="#m7cde42ae29" x="500.15" y="94.795024" style="stroke: #000000; stroke-width: 1.875"/>
      </g>
     </g>
    </g>
    <g id="ytick_14">
     <g id="line2d_33">
      <g>
       <use xlink:href="#m7cde42ae29" x="500.15" y="55.458613" style="stroke: #000000; stroke-width: 1.875"/>
      </g>
     </g>
    </g>
    <g id="ytick_15">
     <g id="line2d_34">
      <g>
       <use xlink:href="#m7cde42ae29" x="500.15" y="16.122202" style="stroke: #000000; stroke-width: 1.875"/>
      </g>
     </g>
    </g>
   </g>
   <g id="line2d_35">
    <path d="M 508.73045 185.530796 
L 551.632698 162.988474 
L 594.534947 155.246467 
L 637.437195 142.881782 
L 680.339443 91.446742 
" clip-path="url(#p583f0e00c2)" style="fill: none; stroke: #8c75e6; stroke-opacity: 0.9; stroke-width: 2.25; stroke-linecap: square"/>
    <defs>
     <path id="m567b5068ad" d="M 0 2.25 
C 0.596707 2.25 1.169055 2.012926 1.59099 1.59099 
C 2.012926 1.169055 2.25 0.596707 2.25 0 
C 2.25 -0.596707 2.012926 -1.169055 1.59099 -1.59099 
C 1.169055 -2.012926 0.596707 -2.25 0 -2.25 
C -0.596707 -2.25 -1.169055 -2.012926 -1.59099 -1.59099 
C -2.012926 -1.169055 -2.25 -0.596707 -2.25 0 
C -2.25 0.596707 -2.012926 1.169055 -1.59099 1.59099 
C -1.169055 2.012926 -0.596707 2.25 0 2.25 
z
" style="stroke: #8c75e6; stroke-opacity: 0.9"/>
    </defs>
    <g clip-path="url(#p583f0e00c2)">
     <use xlink:href="#m567b5068ad" x="508.73045" y="185.530796" style="fill: #8c75e6; fill-opacity: 0.9; stroke: #8c75e6; stroke-opacity: 0.9"/>
     <use xlink:href="#m567b5068ad" x="551.632698" y="162.988474" style="fill: #8c75e6; fill-opacity: 0.9; stroke: #8c75e6; stroke-opacity: 0.9"/>
     <use xlink:href="#m567b5068ad" x="594.534947" y="155.246467" style="fill: #8c75e6; fill-opacity: 0.9; stroke: #8c75e6; stroke-opacity: 0.9"/>
     <use xlink:href="#m567b5068ad" x="637.437195" y="142.881782" style="fill: #8c75e6; fill-opacity: 0.9; stroke: #8c75e6; stroke-opacity: 0.9"/>
     <use xlink:href="#m567b5068ad" x="680.339443" y="91.446742" style="fill: #8c75e6; fill-opacity: 0.9; stroke: #8c75e6; stroke-opacity: 0.9"/>
    </g>
   </g>
   <g id="line2d_36">
    <path d="M 508.73045 98.698056 
L 551.632698 89.914787 
L 594.534947 92.760418 
L 637.437195 73.102486 
L 680.339443 24.768072 
" clip-path="url(#p583f0e00c2)" style="fill: none; stroke: #d1a6de; stroke-opacity: 0.9; stroke-width: 2.25; stroke-linecap: square"/>
    <defs>
     <path id="m4018787adb" d="M 0 2.25 
C 0.596707 2.25 1.169055 2.012926 1.59099 1.59099 
C 2.012926 1.169055 2.25 0.596707 2.25 0 
C 2.25 -0.596707 2.012926 -1.169055 1.59099 -1.59099 
C 1.169055 -2.012926 0.596707 -2.25 0 -2.25 
C -0.596707 -2.25 -1.169055 -2.012926 -1.59099 -1.59099 
C -2.012926 -1.169055 -2.25 -0.596707 -2.25 0 
C -2.25 0.596707 -2.012926 1.169055 -1.59099 1.59099 
C -1.169055 2.012926 -0.596707 2.25 0 2.25 
z
" style="stroke: #d1a6de; stroke-opacity: 0.9"/>
    </defs>
    <g clip-path="url(#p583f0e00c2)">
     <use xlink:href="#m4018787adb" x="508.73045" y="98.698056" style="fill: #d1a6de; fill-opacity: 0.9; stroke: #d1a6de; stroke-opacity: 0.9"/>
     <use xlink:href="#m4018787adb" x="551.632698" y="89.914787" style="fill: #d1a6de; fill-opacity: 0.9; stroke: #d1a6de; stroke-opacity: 0.9"/>
     <use xlink:href="#m4018787adb" x="594.534947" y="92.760418" style="fill: #d1a6de; fill-opacity: 0.9; stroke: #d1a6de; stroke-opacity: 0.9"/>
     <use xlink:href="#m4018787adb" x="637.437195" y="73.102486" style="fill: #d1a6de; fill-opacity: 0.9; stroke: #d1a6de; stroke-opacity: 0.9"/>
     <use xlink:href="#m4018787adb" x="680.339443" y="24.768072" style="fill: #d1a6de; fill-opacity: 0.9; stroke: #d1a6de; stroke-opacity: 0.9"/>
    </g>
   </g>
   <g id="patch_13">
    <path d="M 500.15 211.02 
L 500.15 7.2 
" style="fill: none; stroke: #000000; stroke-width: 2; stroke-linejoin: miter; stroke-linecap: square"/>
   </g>
   <g id="patch_14">
    <path d="M 500.15 211.02 
L 688.919893 211.02 
" style="fill: none; stroke: #000000; stroke-width: 2; stroke-linejoin: miter; stroke-linecap: square"/>
   </g>
   <g id="legend_3">
    <g id="patch_15">
     <path d="M 510.95 27.118125 
L 534.95 27.118125 
L 534.95 18.718125 
L 510.95 18.718125 
z
" style="fill: #8c75e6; fill-opacity: 0.3; stroke: #8c75e6; stroke-opacity: 0.3; stroke-width: 1.5; stroke-linejoin: miter"/>
    </g>
    <g id="text_27">
     <text style="font: 12px 'DejaVu Sans', 'Bitstream Vera Sans', 'Computer Modern Sans Serif', 'Lucida Grande', 'Verdana', 'Geneva', 'Lucid', 'Arial', 'Helvetica', 'Avant Garde', sans-serif; text-anchor: start" x="544.55" y="27.118125" transform="rotate(-0 544.55 27.118125)">LI adapted</text>
    </g>
    <g id="patch_16">
     <path d="M 510.95 44.731875 
L 534.95 44.731875 
L 534.95 36.331875 
L 510.95 36.331875 
z
" style="fill: #d1a6de; fill-opacity: 0.3; stroke: #d1a6de; stroke-opacity: 0.3; stroke-width: 1.5; stroke-linejoin: miter"/>
    </g>
    <g id="text_28">
     <text style="font: 12px 'DejaVu Sans', 'Bitstream Vera Sans', 'Computer Modern Sans Serif', 'Lucida Grande', 'Verdana', 'Geneva', 'Lucid', 'Arial', 'Helvetica', 'Avant Garde', sans-serif; text-anchor: start" x="544.55" y="44.731875" transform="rotate(-0 544.55 44.731875)">LI unadapted</text>
    </g>
   </g>
  </g>
 </g>
 <defs>
  <clipPath id="p4f77dcbb6c">
   <rect x="64.63" y="7.2" width="188.769893" height="203.82"/>
  </clipPath>
  <clipPath id="p5a58035df9">
   <rect x="282.39" y="7.2" width="188.769893" height="203.82"/>
  </clipPath>
  <clipPath id="p583f0e00c2">
   <rect x="500.15" y="7.2" width="188.769893" height="203.82"/>
  </clipPath>
 </defs>
</svg>
