<?xml version="1.0" encoding="utf-8" standalone="no"?>
<!DOCTYPE svg PUBLIC "-//W3C//DTD SVG 1.1//EN"
  "http://www.w3.org/Graphics/SVG/1.1/DTD/svg11.dtd">
<svg xmlns:xlink="http://www.w3.org/1999/xlink" width="697.883534pt" height="265.69pt" viewBox="0 0 697.883534 265.69" xmlns="http://www.w3.org/2000/svg" version="1.1">
 <metadata>
  <rdf:RDF xmlns:dc="http://purl.org/dc/elements/1.1/" xmlns:cc="http://creativecommons.org/ns#" xmlns:rdf="http://www.w3.org/1999/02/22-rdf-syntax-ns#">
   <cc:Work>
    <dc:type rdf:resource="http://purl.org/dc/dcmitype/StillImage"/>
    <dc:date>2023-12-02T22:40:50.272338</dc:date>
    <dc:format>image/svg+xml</dc:format>
    <dc:creator>
     <cc:Agent>
      <dc:title>Matplotlib v3.7.2, https://matplotlib.org/</dc:title>
     </cc:Agent>
    </dc:creator>
   </cc:Work>
  </rdf:RDF>
 </metadata>
 <defs>
  <style type="text/css">*{stroke-linejoin: round; stroke-linecap: butt}</style>
 </defs>
 <g id="figure_1">
  <g id="patch_1">
   <path d="M 0 265.69 
L 697.883534 265.69 
L 697.883534 0 
L 0 0 
z
" style="fill: #ffffff"/>
  </g>
  <g id="axes_1">
   <g id="patch_2">
    <path d="M 74.81 211.02 
L 260.189893 211.02 
L 260.189893 7.2 
L 74.81 7.2 
z
" style="fill: #ffffff"/>
   </g>
   <g id="PolyCollection_1">
    <defs>
     <path id="m4b18fb3170" d="M 83.236359 -168.378784 
L 83.236359 -122.48267 
L 125.368153 -99.834719 
L 167.499947 -91.278368 
L 209.63174 -97.908799 
L 251.763534 -125.332058 
L 251.763534 -163.392048 
L 251.763534 -163.392048 
L 209.63174 -125.874706 
L 167.499947 -116.242713 
L 125.368153 -119.580109 
L 83.236359 -168.378784 
z
" style="stroke: #3e51cc; stroke-opacity: 0.3; stroke-width: 1.5"/>
    </defs>
    <g clip-path="url(#pdab0f3c92f)">
     <use xlink:href="#m4b18fb3170" x="0" y="265.69" style="fill: #3e51cc; fill-opacity: 0.3; stroke: #3e51cc; stroke-opacity: 0.3; stroke-width: 1.5"/>
    </g>
   </g>
   <g id="PolyCollection_2">
    <defs>
     <path id="mf7849fef7e" d="M 83.236359 -204.434342 
L 83.236359 -166.640163 
L 125.368153 -127.543306 
L 167.499947 -86.255349 
L 209.63174 -112.698635 
L 251.763534 -183.538201 
L 251.763534 -249.225455 
L 251.763534 -249.225455 
L 209.63174 -152.704154 
L 167.499947 -107.306358 
L 125.368153 -169.643408 
L 83.236359 -204.434342 
z
" style="stroke: #85a7eb; stroke-opacity: 0.3; stroke-width: 1.5"/>
    </defs>
    <g clip-path="url(#pdab0f3c92f)">
     <use xlink:href="#mf7849fef7e" x="0" y="265.69" style="fill: #85a7eb; fill-opacity: 0.3; stroke: #85a7eb; stroke-opacity: 0.3; stroke-width: 1.5"/>
    </g>
   </g>
   <g id="matplotlib.axis_1">
    <g id="xtick_1">
     <g id="line2d_1">
      <defs>
       <path id="m318e132d71" d="M 0 0 
L 0 9 
" style="stroke: #000000; stroke-width: 1.875"/>
      </defs>
      <g>
       <use xlink:href="#m318e132d71" x="83.236359" y="211.02" style="stroke: #000000; stroke-width: 1.875"/>
      </g>
     </g>
     <g id="text_1">
      <text style="font: 16px 'DejaVu Sans', 'Bitstream Vera Sans', 'Computer Modern Sans Serif', 'Lucida Grande', 'Verdana', 'Geneva', 'Lucid', 'Arial', 'Helvetica', 'Avant Garde', sans-serif; text-anchor: middle" x="83.236359" y="235.6775" transform="rotate(-0 83.236359 235.6775)">0</text>
     </g>
    </g>
    <g id="xtick_2">
     <g id="line2d_2">
      <g>
       <use xlink:href="#m318e132d71" x="125.368153" y="211.02" style="stroke: #000000; stroke-width: 1.875"/>
      </g>
     </g>
     <g id="text_2">
      <text style="font: 16px 'DejaVu Sans', 'Bitstream Vera Sans', 'Computer Modern Sans Serif', 'Lucida Grande', 'Verdana', 'Geneva', 'Lucid', 'Arial', 'Helvetica', 'Avant Garde', sans-serif; text-anchor: middle" x="125.368153" y="235.6775" transform="rotate(-0 125.368153 235.6775)">22.5</text>
     </g>
    </g>
    <g id="xtick_3">
     <g id="line2d_3">
      <g>
       <use xlink:href="#m318e132d71" x="167.499947" y="211.02" style="stroke: #000000; stroke-width: 1.875"/>
      </g>
     </g>
     <g id="text_3">
      <text style="font: 16px 'DejaVu Sans', 'Bitstream Vera Sans', 'Computer Modern Sans Serif', 'Lucida Grande', 'Verdana', 'Geneva', 'Lucid', 'Arial', 'Helvetica', 'Avant Garde', sans-serif; text-anchor: middle" x="167.499947" y="235.6775" transform="rotate(-0 167.499947 235.6775)">45</text>
     </g>
    </g>
    <g id="xtick_4">
     <g id="line2d_4">
      <g>
       <use xlink:href="#m318e132d71" x="209.63174" y="211.02" style="stroke: #000000; stroke-width: 1.875"/>
      </g>
     </g>
     <g id="text_4">
      <text style="font: 16px 'DejaVu Sans', 'Bitstream Vera Sans', 'Computer Modern Sans Serif', 'Lucida Grande', 'Verdana', 'Geneva', 'Lucid', 'Arial', 'Helvetica', 'Avant Garde', sans-serif; text-anchor: middle" x="209.63174" y="235.6775" transform="rotate(-0 209.63174 235.6775)">67.5</text>
     </g>
    </g>
    <g id="xtick_5">
     <g id="line2d_5">
      <g>
       <use xlink:href="#m318e132d71" x="251.763534" y="211.02" style="stroke: #000000; stroke-width: 1.875"/>
      </g>
     </g>
     <g id="text_5">
      <text style="font: 16px 'DejaVu Sans', 'Bitstream Vera Sans', 'Computer Modern Sans Serif', 'Lucida Grande', 'Verdana', 'Geneva', 'Lucid', 'Arial', 'Helvetica', 'Avant Garde', sans-serif; text-anchor: middle" x="251.763534" y="235.6775" transform="rotate(-0 251.763534 235.6775)">90</text>
     </g>
    </g>
   </g>
   <g id="matplotlib.axis_2">
    <g id="ytick_1">
     <g id="line2d_6">
      <defs>
       <path id="m9d5399f978" d="M 0 0 
L -9 0 
" style="stroke: #000000; stroke-width: 1.875"/>
      </defs>
      <g>
       <use xlink:href="#m9d5399f978" x="74.81" y="184.030047" style="stroke: #000000; stroke-width: 1.875"/>
      </g>
     </g>
     <g id="text_6">
      <text style="font: 16px 'DejaVu Sans', 'Bitstream Vera Sans', 'Computer Modern Sans Serif', 'Lucida Grande', 'Verdana', 'Geneva', 'Lucid', 'Arial', 'Helvetica', 'Avant Garde', sans-serif; text-anchor: end" x="62.31" y="190.108797" transform="rotate(-0 62.31 190.108797)">0.01</text>
     </g>
    </g>
    <g id="ytick_2">
     <g id="line2d_7">
      <g>
       <use xlink:href="#m9d5399f978" x="74.81" y="120.005158" style="stroke: #000000; stroke-width: 1.875"/>
      </g>
     </g>
     <g id="text_7">
      <text style="font: 16px 'DejaVu Sans', 'Bitstream Vera Sans', 'Computer Modern Sans Serif', 'Lucida Grande', 'Verdana', 'Geneva', 'Lucid', 'Arial', 'Helvetica', 'Avant Garde', sans-serif; text-anchor: end" x="62.31" y="126.083908" transform="rotate(-0 62.31 126.083908)">0.02</text>
     </g>
    </g>
    <g id="ytick_3">
     <g id="line2d_8">
      <g>
       <use xlink:href="#m9d5399f978" x="74.81" y="55.980268" style="stroke: #000000; stroke-width: 1.875"/>
      </g>
     </g>
     <g id="text_8">
      <text style="font: 16px 'DejaVu Sans', 'Bitstream Vera Sans', 'Computer Modern Sans Serif', 'Lucida Grande', 'Verdana', 'Geneva', 'Lucid', 'Arial', 'Helvetica', 'Avant Garde', sans-serif; text-anchor: end" x="62.31" y="62.059018" transform="rotate(-0 62.31 62.059018)">0.03</text>
     </g>
    </g>
    <g id="text_9">
     <text style="font: 16px 'DejaVu Sans', 'Bitstream Vera Sans', 'Computer Modern Sans Serif', 'Lucida Grande', 'Verdana', 'Geneva', 'Lucid', 'Arial', 'Helvetica', 'Avant Garde', sans-serif; text-anchor: middle" x="19.3575" y="109.11" transform="rotate(-90 19.3575 109.11)">Normalized Noise</text>
    </g>
   </g>
   <g id="line2d_9">
    <path d="M 83.236359 120.259273 
L 125.368153 155.982586 
L 167.499947 161.929459 
L 209.63174 153.798247 
L 251.763534 121.327947 
" clip-path="url(#pdab0f3c92f)" style="fill: none; stroke: #3e51cc; stroke-opacity: 0.9; stroke-width: 2.25; stroke-linecap: square"/>
    <defs>
     <path id="m717c4d4e5d" d="M 0 2.25 
C 0.596707 2.25 1.169055 2.012926 1.59099 1.59099 
C 2.012926 1.169055 2.25 0.596707 2.25 0 
C 2.25 -0.596707 2.012926 -1.169055 1.59099 -1.59099 
C 1.169055 -2.012926 0.596707 -2.25 0 -2.25 
C -0.596707 -2.25 -1.169055 -2.012926 -1.59099 -1.59099 
C -2.012926 -1.169055 -2.25 -0.596707 -2.25 0 
C -2.25 0.596707 -2.012926 1.169055 -1.59099 1.59099 
C -1.169055 2.012926 -0.596707 2.25 0 2.25 
z
" style="stroke: #3e51cc; stroke-opacity: 0.9"/>
    </defs>
    <g clip-path="url(#pdab0f3c92f)">
     <use xlink:href="#m717c4d4e5d" x="83.236359" y="120.259273" style="fill: #3e51cc; fill-opacity: 0.9; stroke: #3e51cc; stroke-opacity: 0.9"/>
     <use xlink:href="#m717c4d4e5d" x="125.368153" y="155.982586" style="fill: #3e51cc; fill-opacity: 0.9; stroke: #3e51cc; stroke-opacity: 0.9"/>
     <use xlink:href="#m717c4d4e5d" x="167.499947" y="161.929459" style="fill: #3e51cc; fill-opacity: 0.9; stroke: #3e51cc; stroke-opacity: 0.9"/>
     <use xlink:href="#m717c4d4e5d" x="209.63174" y="153.798247" style="fill: #3e51cc; fill-opacity: 0.9; stroke: #3e51cc; stroke-opacity: 0.9"/>
     <use xlink:href="#m717c4d4e5d" x="251.763534" y="121.327947" style="fill: #3e51cc; fill-opacity: 0.9; stroke: #3e51cc; stroke-opacity: 0.9"/>
    </g>
   </g>
   <g id="line2d_10">
    <path d="M 83.236359 80.152748 
L 125.368153 117.096643 
L 167.499947 168.909146 
L 209.63174 132.988606 
L 251.763534 49.308172 
" clip-path="url(#pdab0f3c92f)" style="fill: none; stroke: #85a7eb; stroke-opacity: 0.9; stroke-width: 2.25; stroke-linecap: square"/>
    <defs>
     <path id="m3618e82e90" d="M 0 2.25 
C 0.596707 2.25 1.169055 2.012926 1.59099 1.59099 
C 2.012926 1.169055 2.25 0.596707 2.25 0 
C 2.25 -0.596707 2.012926 -1.169055 1.59099 -1.59099 
C 1.169055 -2.012926 0.596707 -2.25 0 -2.25 
C -0.596707 -2.25 -1.169055 -2.012926 -1.59099 -1.59099 
C -2.012926 -1.169055 -2.25 -0.596707 -2.25 0 
C -2.25 0.596707 -2.012926 1.169055 -1.59099 1.59099 
C -1.169055 2.012926 -0.596707 2.25 0 2.25 
z
" style="stroke: #85a7eb; stroke-opacity: 0.9"/>
    </defs>
    <g clip-path="url(#pdab0f3c92f)">
     <use xlink:href="#m3618e82e90" x="83.236359" y="80.152748" style="fill: #85a7eb; fill-opacity: 0.9; stroke: #85a7eb; stroke-opacity: 0.9"/>
     <use xlink:href="#m3618e82e90" x="125.368153" y="117.096643" style="fill: #85a7eb; fill-opacity: 0.9; stroke: #85a7eb; stroke-opacity: 0.9"/>
     <use xlink:href="#m3618e82e90" x="167.499947" y="168.909146" style="fill: #85a7eb; fill-opacity: 0.9; stroke: #85a7eb; stroke-opacity: 0.9"/>
     <use xlink:href="#m3618e82e90" x="209.63174" y="132.988606" style="fill: #85a7eb; fill-opacity: 0.9; stroke: #85a7eb; stroke-opacity: 0.9"/>
     <use xlink:href="#m3618e82e90" x="251.763534" y="49.308172" style="fill: #85a7eb; fill-opacity: 0.9; stroke: #85a7eb; stroke-opacity: 0.9"/>
    </g>
   </g>
   <g id="patch_3">
    <path d="M 74.81 211.02 
L 74.81 7.2 
" style="fill: none; stroke: #000000; stroke-width: 2; stroke-linejoin: miter; stroke-linecap: square"/>
   </g>
   <g id="patch_4">
    <path d="M 74.81 211.02 
L 260.189893 211.02 
" style="fill: none; stroke: #000000; stroke-width: 2; stroke-linejoin: miter; stroke-linecap: square"/>
   </g>
   <g id="legend_1">
    <g id="patch_5">
     <path d="M 102.535322 29.109938 
L 128.935322 29.109938 
L 128.935322 19.869937 
L 102.535322 19.869937 
z
" style="fill: #3e51cc; fill-opacity: 0.3; stroke: #3e51cc; stroke-opacity: 0.3; stroke-width: 1.5; stroke-linejoin: miter"/>
    </g>
    <g id="text_10">
     <text style="font: 13.2px 'DejaVu Sans', 'Bitstream Vera Sans', 'Computer Modern Sans Serif', 'Lucida Grande', 'Verdana', 'Geneva', 'Lucid', 'Arial', 'Helvetica', 'Avant Garde', sans-serif; text-anchor: start" x="139.495322" y="29.109938" transform="rotate(-0 139.495322 29.109938)">V1 adapted</text>
    </g>
    <g id="patch_6">
     <path d="M 102.535322 48.485062 
L 128.935322 48.485062 
L 128.935322 39.245062 
L 102.535322 39.245062 
z
" style="fill: #85a7eb; fill-opacity: 0.3; stroke: #85a7eb; stroke-opacity: 0.3; stroke-width: 1.5; stroke-linejoin: miter"/>
    </g>
    <g id="text_11">
     <text style="font: 13.2px 'DejaVu Sans', 'Bitstream Vera Sans', 'Computer Modern Sans Serif', 'Lucida Grande', 'Verdana', 'Geneva', 'Lucid', 'Arial', 'Helvetica', 'Avant Garde', sans-serif; text-anchor: start" x="139.495322" y="48.485062" transform="rotate(-0 139.495322 48.485062)">V1 unadapted</text>
    </g>
   </g>
  </g>
  <g id="axes_2">
   <g id="patch_7">
    <path d="M 289.18 211.02 
L 474.559893 211.02 
L 474.559893 7.2 
L 289.18 7.2 
z
" style="fill: #ffffff"/>
   </g>
   <g id="PolyCollection_3">
    <defs>
     <path id="m41636ef620" d="M 297.606359 -118.148225 
L 297.606359 -97.974318 
L 339.738153 -85.124929 
L 381.869947 -80.243634 
L 424.00174 -78.735549 
L 466.133534 -100.997333 
L 466.133534 -121.452562 
L 466.133534 -121.452562 
L 424.00174 -90.877416 
L 381.869947 -93.835826 
L 339.738153 -100.222826 
L 297.606359 -118.148225 
z
" style="stroke: #c48a5a; stroke-opacity: 0.3; stroke-width: 1.5"/>
    </defs>
    <g clip-path="url(#p14053b44ce)">
     <use xlink:href="#m41636ef620" x="0" y="265.69" style="fill: #c48a5a; fill-opacity: 0.3; stroke: #c48a5a; stroke-opacity: 0.3; stroke-width: 1.5"/>
    </g>
   </g>
   <g id="PolyCollection_4">
    <defs>
     <path id="m9bed066def" d="M 297.606359 -159.035846 
L 297.606359 -136.031255 
L 339.738153 -106.31681 
L 381.869947 -94.429789 
L 424.00174 -83.683184 
L 466.133534 -104.882846 
L 466.133534 -121.71915 
L 466.133534 -121.71915 
L 424.00174 -98.578409 
L 381.869947 -114.444345 
L 339.738153 -128.971919 
L 297.606359 -159.035846 
z
" style="stroke: #f6cd51; stroke-opacity: 0.3; stroke-width: 1.5"/>
    </defs>
    <g clip-path="url(#p14053b44ce)">
     <use xlink:href="#m9bed066def" x="0" y="265.69" style="fill: #f6cd51; fill-opacity: 0.3; stroke: #f6cd51; stroke-opacity: 0.3; stroke-width: 1.5"/>
    </g>
   </g>
   <g id="matplotlib.axis_3">
    <g id="xtick_6">
     <g id="line2d_11">
      <g>
       <use xlink:href="#m318e132d71" x="297.606359" y="211.02" style="stroke: #000000; stroke-width: 1.875"/>
      </g>
     </g>
     <g id="text_12">
      <text style="font: 16px 'DejaVu Sans', 'Bitstream Vera Sans', 'Computer Modern Sans Serif', 'Lucida Grande', 'Verdana', 'Geneva', 'Lucid', 'Arial', 'Helvetica', 'Avant Garde', sans-serif; text-anchor: middle" x="297.606359" y="235.6775" transform="rotate(-0 297.606359 235.6775)">0</text>
     </g>
    </g>
    <g id="xtick_7">
     <g id="line2d_12">
      <g>
       <use xlink:href="#m318e132d71" x="339.738153" y="211.02" style="stroke: #000000; stroke-width: 1.875"/>
      </g>
     </g>
     <g id="text_13">
      <text style="font: 16px 'DejaVu Sans', 'Bitstream Vera Sans', 'Computer Modern Sans Serif', 'Lucida Grande', 'Verdana', 'Geneva', 'Lucid', 'Arial', 'Helvetica', 'Avant Garde', sans-serif; text-anchor: middle" x="339.738153" y="235.6775" transform="rotate(-0 339.738153 235.6775)">22.5</text>
     </g>
    </g>
    <g id="xtick_8">
     <g id="line2d_13">
      <g>
       <use xlink:href="#m318e132d71" x="381.869947" y="211.02" style="stroke: #000000; stroke-width: 1.875"/>
      </g>
     </g>
     <g id="text_14">
      <text style="font: 16px 'DejaVu Sans', 'Bitstream Vera Sans', 'Computer Modern Sans Serif', 'Lucida Grande', 'Verdana', 'Geneva', 'Lucid', 'Arial', 'Helvetica', 'Avant Garde', sans-serif; text-anchor: middle" x="381.869947" y="235.6775" transform="rotate(-0 381.869947 235.6775)">45</text>
     </g>
    </g>
    <g id="xtick_9">
     <g id="line2d_14">
      <g>
       <use xlink:href="#m318e132d71" x="424.00174" y="211.02" style="stroke: #000000; stroke-width: 1.875"/>
      </g>
     </g>
     <g id="text_15">
      <text style="font: 16px 'DejaVu Sans', 'Bitstream Vera Sans', 'Computer Modern Sans Serif', 'Lucida Grande', 'Verdana', 'Geneva', 'Lucid', 'Arial', 'Helvetica', 'Avant Garde', sans-serif; text-anchor: middle" x="424.00174" y="235.6775" transform="rotate(-0 424.00174 235.6775)">67.5</text>
     </g>
    </g>
    <g id="xtick_10">
     <g id="line2d_15">
      <g>
       <use xlink:href="#m318e132d71" x="466.133534" y="211.02" style="stroke: #000000; stroke-width: 1.875"/>
      </g>
     </g>
     <g id="text_16">
      <text style="font: 16px 'DejaVu Sans', 'Bitstream Vera Sans', 'Computer Modern Sans Serif', 'Lucida Grande', 'Verdana', 'Geneva', 'Lucid', 'Arial', 'Helvetica', 'Avant Garde', sans-serif; text-anchor: middle" x="466.133534" y="235.6775" transform="rotate(-0 466.133534 235.6775)">90</text>
     </g>
    </g>
    <g id="text_17">
     <text style="font: 16px 'DejaVu Sans', 'Bitstream Vera Sans', 'Computer Modern Sans Serif', 'Lucida Grande', 'Verdana', 'Geneva', 'Lucid', 'Arial', 'Helvetica', 'Avant Garde', sans-serif; text-anchor: middle" x="381.869947" y="255.1625" transform="rotate(-0 381.869947 255.1625)">Stim2 distance from adapter (deg)</text>
    </g>
   </g>
   <g id="matplotlib.axis_4">
    <g id="ytick_4">
     <g id="line2d_16">
      <g>
       <use xlink:href="#m9d5399f978" x="289.18" y="184.030047" style="stroke: #000000; stroke-width: 1.875"/>
      </g>
     </g>
    </g>
    <g id="ytick_5">
     <g id="line2d_17">
      <g>
       <use xlink:href="#m9d5399f978" x="289.18" y="120.005158" style="stroke: #000000; stroke-width: 1.875"/>
      </g>
     </g>
    </g>
    <g id="ytick_6">
     <g id="line2d_18">
      <g>
       <use xlink:href="#m9d5399f978" x="289.18" y="55.980268" style="stroke: #000000; stroke-width: 1.875"/>
      </g>
     </g>
    </g>
   </g>
   <g id="line2d_19">
    <path d="M 297.606359 157.628728 
L 339.738153 173.016123 
L 381.869947 178.65027 
L 424.00174 180.883518 
L 466.133534 154.465052 
" clip-path="url(#p14053b44ce)" style="fill: none; stroke: #c48a5a; stroke-opacity: 0.9; stroke-width: 2.25; stroke-linecap: square"/>
    <defs>
     <path id="mb5fb1c3770" d="M 0 2.25 
C 0.596707 2.25 1.169055 2.012926 1.59099 1.59099 
C 2.012926 1.169055 2.25 0.596707 2.25 0 
C 2.25 -0.596707 2.012926 -1.169055 1.59099 -1.59099 
C 1.169055 -2.012926 0.596707 -2.25 0 -2.25 
C -0.596707 -2.25 -1.169055 -2.012926 -1.59099 -1.59099 
C -2.012926 -1.169055 -2.25 -0.596707 -2.25 0 
C -2.25 0.596707 -2.012926 1.169055 -1.59099 1.59099 
C -1.169055 2.012926 -0.596707 2.25 0 2.25 
z
" style="stroke: #c48a5a; stroke-opacity: 0.9"/>
    </defs>
    <g clip-path="url(#p14053b44ce)">
     <use xlink:href="#mb5fb1c3770" x="297.606359" y="157.628728" style="fill: #c48a5a; fill-opacity: 0.9; stroke: #c48a5a; stroke-opacity: 0.9"/>
     <use xlink:href="#mb5fb1c3770" x="339.738153" y="173.016123" style="fill: #c48a5a; fill-opacity: 0.9; stroke: #c48a5a; stroke-opacity: 0.9"/>
     <use xlink:href="#mb5fb1c3770" x="381.869947" y="178.65027" style="fill: #c48a5a; fill-opacity: 0.9; stroke: #c48a5a; stroke-opacity: 0.9"/>
     <use xlink:href="#mb5fb1c3770" x="424.00174" y="180.883518" style="fill: #c48a5a; fill-opacity: 0.9; stroke: #c48a5a; stroke-opacity: 0.9"/>
     <use xlink:href="#mb5fb1c3770" x="466.133534" y="154.465052" style="fill: #c48a5a; fill-opacity: 0.9; stroke: #c48a5a; stroke-opacity: 0.9"/>
    </g>
   </g>
   <g id="line2d_20">
    <path d="M 297.606359 118.156449 
L 339.738153 148.045636 
L 381.869947 161.252933 
L 424.00174 174.559203 
L 466.133534 152.389002 
" clip-path="url(#p14053b44ce)" style="fill: none; stroke: #f6cd51; stroke-opacity: 0.9; stroke-width: 2.25; stroke-linecap: square"/>
    <defs>
     <path id="mc110bb2d0f" d="M 0 2.25 
C 0.596707 2.25 1.169055 2.012926 1.59099 1.59099 
C 2.012926 1.169055 2.25 0.596707 2.25 0 
C 2.25 -0.596707 2.012926 -1.169055 1.59099 -1.59099 
C 1.169055 -2.012926 0.596707 -2.25 0 -2.25 
C -0.596707 -2.25 -1.169055 -2.012926 -1.59099 -1.59099 
C -2.012926 -1.169055 -2.25 -0.596707 -2.25 0 
C -2.25 0.596707 -2.012926 1.169055 -1.59099 1.59099 
C -1.169055 2.012926 -0.596707 2.25 0 2.25 
z
" style="stroke: #f6cd51; stroke-opacity: 0.9"/>
    </defs>
    <g clip-path="url(#p14053b44ce)">
     <use xlink:href="#mc110bb2d0f" x="297.606359" y="118.156449" style="fill: #f6cd51; fill-opacity: 0.9; stroke: #f6cd51; stroke-opacity: 0.9"/>
     <use xlink:href="#mc110bb2d0f" x="339.738153" y="148.045636" style="fill: #f6cd51; fill-opacity: 0.9; stroke: #f6cd51; stroke-opacity: 0.9"/>
     <use xlink:href="#mc110bb2d0f" x="381.869947" y="161.252933" style="fill: #f6cd51; fill-opacity: 0.9; stroke: #f6cd51; stroke-opacity: 0.9"/>
     <use xlink:href="#mc110bb2d0f" x="424.00174" y="174.559203" style="fill: #f6cd51; fill-opacity: 0.9; stroke: #f6cd51; stroke-opacity: 0.9"/>
     <use xlink:href="#mc110bb2d0f" x="466.133534" y="152.389002" style="fill: #f6cd51; fill-opacity: 0.9; stroke: #f6cd51; stroke-opacity: 0.9"/>
    </g>
   </g>
   <g id="patch_8">
    <path d="M 289.18 211.02 
L 289.18 7.2 
" style="fill: none; stroke: #000000; stroke-width: 2; stroke-linejoin: miter; stroke-linecap: square"/>
   </g>
   <g id="patch_9">
    <path d="M 289.18 211.02 
L 474.559893 211.02 
" style="fill: none; stroke: #000000; stroke-width: 2; stroke-linejoin: miter; stroke-linecap: square"/>
   </g>
   <g id="legend_2">
    <g id="patch_10">
     <path d="M 316.247384 29.109938 
L 342.647384 29.109938 
L 342.647384 19.869937 
L 316.247384 19.869937 
z
" style="fill: #c48a5a; fill-opacity: 0.3; stroke: #c48a5a; stroke-opacity: 0.3; stroke-width: 1.5; stroke-linejoin: miter"/>
    </g>
    <g id="text_18">
     <text style="font: 13.2px 'DejaVu Sans', 'Bitstream Vera Sans', 'Computer Modern Sans Serif', 'Lucida Grande', 'Verdana', 'Geneva', 'Lucid', 'Arial', 'Helvetica', 'Avant Garde', sans-serif; text-anchor: start" x="353.207384" y="29.109938" transform="rotate(-0 353.207384 29.109938)">LM adapted</text>
    </g>
    <g id="patch_11">
     <path d="M 316.247384 48.485062 
L 342.647384 48.485062 
L 342.647384 39.245062 
L 316.247384 39.245062 
z
" style="fill: #f6cd51; fill-opacity: 0.3; stroke: #f6cd51; stroke-opacity: 0.3; stroke-width: 1.5; stroke-linejoin: miter"/>
    </g>
    <g id="text_19">
     <text style="font: 13.2px 'DejaVu Sans', 'Bitstream Vera Sans', 'Computer Modern Sans Serif', 'Lucida Grande', 'Verdana', 'Geneva', 'Lucid', 'Arial', 'Helvetica', 'Avant Garde', sans-serif; text-anchor: start" x="353.207384" y="48.485062" transform="rotate(-0 353.207384 48.485062)">LM unadapted</text>
    </g>
   </g>
  </g>
  <g id="axes_3">
   <g id="patch_12">
    <path d="M 503.55 211.02 
L 688.929893 211.02 
L 688.929893 7.2 
L 503.55 7.2 
z
" style="fill: #ffffff"/>
   </g>
   <g id="PolyCollection_5">
    <defs>
     <path id="me1b8a72f7b" d="M 511.976359 -97.38948 
L 511.976359 -76.482735 
L 554.108153 -63.934545 
L 596.239947 -70.908039 
L 638.37174 -76.260762 
L 680.503534 -88.332956 
L 680.503534 -125.011394 
L 680.503534 -125.011394 
L 638.37174 -93.003966 
L 596.239947 -88.100715 
L 554.108153 -76.750481 
L 511.976359 -97.38948 
z
" style="stroke: #8c75e6; stroke-opacity: 0.3; stroke-width: 1.5"/>
    </defs>
    <g clip-path="url(#pde22d15a5a)">
     <use xlink:href="#me1b8a72f7b" x="0" y="265.69" style="fill: #8c75e6; fill-opacity: 0.3; stroke: #8c75e6; stroke-opacity: 0.3; stroke-width: 1.5"/>
    </g>
   </g>
   <g id="PolyCollection_6">
    <defs>
     <path id="m17a2370fd2" d="M 511.976359 -157.506958 
L 511.976359 -104.152945 
L 554.108153 -76.664352 
L 596.239947 -70.264893 
L 638.37174 -87.675876 
L 680.503534 -107.398738 
L 680.503534 -165.282915 
L 680.503534 -165.282915 
L 638.37174 -103.959465 
L 596.239947 -87.553824 
L 554.108153 -95.992168 
L 511.976359 -157.506958 
z
" style="stroke: #d1a6de; stroke-opacity: 0.3; stroke-width: 1.5"/>
    </defs>
    <g clip-path="url(#pde22d15a5a)">
     <use xlink:href="#m17a2370fd2" x="0" y="265.69" style="fill: #d1a6de; fill-opacity: 0.3; stroke: #d1a6de; stroke-opacity: 0.3; stroke-width: 1.5"/>
    </g>
   </g>
   <g id="matplotlib.axis_5">
    <g id="xtick_11">
     <g id="line2d_21">
      <g>
       <use xlink:href="#m318e132d71" x="511.976359" y="211.02" style="stroke: #000000; stroke-width: 1.875"/>
      </g>
     </g>
     <g id="text_20">
      <text style="font: 16px 'DejaVu Sans', 'Bitstream Vera Sans', 'Computer Modern Sans Serif', 'Lucida Grande', 'Verdana', 'Geneva', 'Lucid', 'Arial', 'Helvetica', 'Avant Garde', sans-serif; text-anchor: middle" x="511.976359" y="235.6775" transform="rotate(-0 511.976359 235.6775)">0</text>
     </g>
    </g>
    <g id="xtick_12">
     <g id="line2d_22">
      <g>
       <use xlink:href="#m318e132d71" x="554.108153" y="211.02" style="stroke: #000000; stroke-width: 1.875"/>
      </g>
     </g>
     <g id="text_21">
      <text style="font: 16px 'DejaVu Sans', 'Bitstream Vera Sans', 'Computer Modern Sans Serif', 'Lucida Grande', 'Verdana', 'Geneva', 'Lucid', 'Arial', 'Helvetica', 'Avant Garde', sans-serif; text-anchor: middle" x="554.108153" y="235.6775" transform="rotate(-0 554.108153 235.6775)">22.5</text>
     </g>
    </g>
    <g id="xtick_13">
     <g id="line2d_23">
      <g>
       <use xlink:href="#m318e132d71" x="596.239947" y="211.02" style="stroke: #000000; stroke-width: 1.875"/>
      </g>
     </g>
     <g id="text_22">
      <text style="font: 16px 'DejaVu Sans', 'Bitstream Vera Sans', 'Computer Modern Sans Serif', 'Lucida Grande', 'Verdana', 'Geneva', 'Lucid', 'Arial', 'Helvetica', 'Avant Garde', sans-serif; text-anchor: middle" x="596.239947" y="235.6775" transform="rotate(-0 596.239947 235.6775)">45</text>
     </g>
    </g>
    <g id="xtick_14">
     <g id="line2d_24">
      <g>
       <use xlink:href="#m318e132d71" x="638.37174" y="211.02" style="stroke: #000000; stroke-width: 1.875"/>
      </g>
     </g>
     <g id="text_23">
      <text style="font: 16px 'DejaVu Sans', 'Bitstream Vera Sans', 'Computer Modern Sans Serif', 'Lucida Grande', 'Verdana', 'Geneva', 'Lucid', 'Arial', 'Helvetica', 'Avant Garde', sans-serif; text-anchor: middle" x="638.37174" y="235.6775" transform="rotate(-0 638.37174 235.6775)">67.5</text>
     </g>
    </g>
    <g id="xtick_15">
     <g id="line2d_25">
      <g>
       <use xlink:href="#m318e132d71" x="680.503534" y="211.02" style="stroke: #000000; stroke-width: 1.875"/>
      </g>
     </g>
     <g id="text_24">
      <text style="font: 16px 'DejaVu Sans', 'Bitstream Vera Sans', 'Computer Modern Sans Serif', 'Lucida Grande', 'Verdana', 'Geneva', 'Lucid', 'Arial', 'Helvetica', 'Avant Garde', sans-serif; text-anchor: middle" x="680.503534" y="235.6775" transform="rotate(-0 680.503534 235.6775)">90</text>
     </g>
    </g>
   </g>
   <g id="matplotlib.axis_6">
    <g id="ytick_7">
     <g id="line2d_26">
      <g>
       <use xlink:href="#m9d5399f978" x="503.55" y="184.030047" style="stroke: #000000; stroke-width: 1.875"/>
      </g>
     </g>
    </g>
    <g id="ytick_8">
     <g id="line2d_27">
      <g>
       <use xlink:href="#m9d5399f978" x="503.55" y="120.005158" style="stroke: #000000; stroke-width: 1.875"/>
      </g>
     </g>
    </g>
    <g id="ytick_9">
     <g id="line2d_28">
      <g>
       <use xlink:href="#m9d5399f978" x="503.55" y="55.980268" style="stroke: #000000; stroke-width: 1.875"/>
      </g>
     </g>
    </g>
   </g>
   <g id="line2d_29">
    <path d="M 511.976359 178.753892 
L 554.108153 195.347487 
L 596.239947 186.185623 
L 638.37174 181.057636 
L 680.503534 159.017825 
" clip-path="url(#pde22d15a5a)" style="fill: none; stroke: #8c75e6; stroke-opacity: 0.9; stroke-width: 2.25; stroke-linecap: square"/>
    <defs>
     <path id="mda5b6f2691" d="M 0 2.25 
C 0.596707 2.25 1.169055 2.012926 1.59099 1.59099 
C 2.012926 1.169055 2.25 0.596707 2.25 0 
C 2.25 -0.596707 2.012926 -1.169055 1.59099 -1.59099 
C 1.169055 -2.012926 0.596707 -2.25 0 -2.25 
C -0.596707 -2.25 -1.169055 -2.012926 -1.59099 -1.59099 
C -2.012926 -1.169055 -2.25 -0.596707 -2.25 0 
C -2.25 0.596707 -2.012926 1.169055 -1.59099 1.59099 
C -1.169055 2.012926 -0.596707 2.25 0 2.25 
z
" style="stroke: #8c75e6; stroke-opacity: 0.9"/>
    </defs>
    <g clip-path="url(#pde22d15a5a)">
     <use xlink:href="#mda5b6f2691" x="511.976359" y="178.753892" style="fill: #8c75e6; fill-opacity: 0.9; stroke: #8c75e6; stroke-opacity: 0.9"/>
     <use xlink:href="#mda5b6f2691" x="554.108153" y="195.347487" style="fill: #8c75e6; fill-opacity: 0.9; stroke: #8c75e6; stroke-opacity: 0.9"/>
     <use xlink:href="#mda5b6f2691" x="596.239947" y="186.185623" style="fill: #8c75e6; fill-opacity: 0.9; stroke: #8c75e6; stroke-opacity: 0.9"/>
     <use xlink:href="#mda5b6f2691" x="638.37174" y="181.057636" style="fill: #8c75e6; fill-opacity: 0.9; stroke: #8c75e6; stroke-opacity: 0.9"/>
     <use xlink:href="#mda5b6f2691" x="680.503534" y="159.017825" style="fill: #8c75e6; fill-opacity: 0.9; stroke: #8c75e6; stroke-opacity: 0.9"/>
    </g>
   </g>
   <g id="line2d_30">
    <path d="M 511.976359 134.860048 
L 554.108153 179.36174 
L 596.239947 186.780642 
L 638.37174 169.872329 
L 680.503534 129.349173 
" clip-path="url(#pde22d15a5a)" style="fill: none; stroke: #d1a6de; stroke-opacity: 0.9; stroke-width: 2.25; stroke-linecap: square"/>
    <defs>
     <path id="m3fb11129c0" d="M 0 2.25 
C 0.596707 2.25 1.169055 2.012926 1.59099 1.59099 
C 2.012926 1.169055 2.25 0.596707 2.25 0 
C 2.25 -0.596707 2.012926 -1.169055 1.59099 -1.59099 
C 1.169055 -2.012926 0.596707 -2.25 0 -2.25 
C -0.596707 -2.25 -1.169055 -2.012926 -1.59099 -1.59099 
C -2.012926 -1.169055 -2.25 -0.596707 -2.25 0 
C -2.25 0.596707 -2.012926 1.169055 -1.59099 1.59099 
C -1.169055 2.012926 -0.596707 2.25 0 2.25 
z
" style="stroke: #d1a6de; stroke-opacity: 0.9"/>
    </defs>
    <g clip-path="url(#pde22d15a5a)">
     <use xlink:href="#m3fb11129c0" x="511.976359" y="134.860048" style="fill: #d1a6de; fill-opacity: 0.9; stroke: #d1a6de; stroke-opacity: 0.9"/>
     <use xlink:href="#m3fb11129c0" x="554.108153" y="179.36174" style="fill: #d1a6de; fill-opacity: 0.9; stroke: #d1a6de; stroke-opacity: 0.9"/>
     <use xlink:href="#m3fb11129c0" x="596.239947" y="186.780642" style="fill: #d1a6de; fill-opacity: 0.9; stroke: #d1a6de; stroke-opacity: 0.9"/>
     <use xlink:href="#m3fb11129c0" x="638.37174" y="169.872329" style="fill: #d1a6de; fill-opacity: 0.9; stroke: #d1a6de; stroke-opacity: 0.9"/>
     <use xlink:href="#m3fb11129c0" x="680.503534" y="129.349173" style="fill: #d1a6de; fill-opacity: 0.9; stroke: #d1a6de; stroke-opacity: 0.9"/>
    </g>
   </g>
   <g id="patch_13">
    <path d="M 503.55 211.02 
L 503.55 7.2 
" style="fill: none; stroke: #000000; stroke-width: 2; stroke-linejoin: miter; stroke-linecap: square"/>
   </g>
   <g id="patch_14">
    <path d="M 503.55 211.02 
L 688.929893 211.02 
" style="fill: none; stroke: #000000; stroke-width: 2; stroke-linejoin: miter; stroke-linecap: square"/>
   </g>
   <g id="legend_3">
    <g id="patch_15">
     <path d="M 534.364947 29.109938 
L 560.764947 29.109938 
L 560.764947 19.869937 
L 534.364947 19.869937 
z
" style="fill: #8c75e6; fill-opacity: 0.3; stroke: #8c75e6; stroke-opacity: 0.3; stroke-width: 1.5; stroke-linejoin: miter"/>
    </g>
    <g id="text_25">
     <text style="font: 13.2px 'DejaVu Sans', 'Bitstream Vera Sans', 'Computer Modern Sans Serif', 'Lucida Grande', 'Verdana', 'Geneva', 'Lucid', 'Arial', 'Helvetica', 'Avant Garde', sans-serif; text-anchor: start" x="571.324947" y="29.109938" transform="rotate(-0 571.324947 29.109938)">LI adapted</text>
    </g>
    <g id="patch_16">
     <path d="M 534.364947 48.485062 
L 560.764947 48.485062 
L 560.764947 39.245062 
L 534.364947 39.245062 
z
" style="fill: #d1a6de; fill-opacity: 0.3; stroke: #d1a6de; stroke-opacity: 0.3; stroke-width: 1.5; stroke-linejoin: miter"/>
    </g>
    <g id="text_26">
     <text style="font: 13.2px 'DejaVu Sans', 'Bitstream Vera Sans', 'Computer Modern Sans Serif', 'Lucida Grande', 'Verdana', 'Geneva', 'Lucid', 'Arial', 'Helvetica', 'Avant Garde', sans-serif; text-anchor: start" x="571.324947" y="48.485062" transform="rotate(-0 571.324947 48.485062)">LI unadapted</text>
    </g>
   </g>
  </g>
 </g>
 <defs>
  <clipPath id="pdab0f3c92f">
   <rect x="74.81" y="7.2" width="185.379893" height="203.82"/>
  </clipPath>
  <clipPath id="p14053b44ce">
   <rect x="289.18" y="7.2" width="185.379893" height="203.82"/>
  </clipPath>
  <clipPath id="pde22d15a5a">
   <rect x="503.55" y="7.2" width="185.379893" height="203.82"/>
  </clipPath>
 </defs>
</svg>
