<?xml version="1.0" encoding="utf-8" standalone="no"?>
<!DOCTYPE svg PUBLIC "-//W3C//DTD SVG 1.1//EN"
  "http://www.w3.org/Graphics/SVG/1.1/DTD/svg11.dtd">
<svg xmlns:xlink="http://www.w3.org/1999/xlink" width="697.719443pt" height="265.69pt" viewBox="0 0 697.719443 265.69" xmlns="http://www.w3.org/2000/svg" version="1.1">
 <metadata>
  <rdf:RDF xmlns:dc="http://purl.org/dc/elements/1.1/" xmlns:cc="http://creativecommons.org/ns#" xmlns:rdf="http://www.w3.org/1999/02/22-rdf-syntax-ns#">
   <cc:Work>
    <dc:type rdf:resource="http://purl.org/dc/dcmitype/StillImage"/>
    <dc:date>2023-12-06T13:29:22.282065</dc:date>
    <dc:format>image/svg+xml</dc:format>
    <dc:creator>
     <cc:Agent>
      <dc:title>Matplotlib v3.7.2, https://matplotlib.org/</dc:title>
     </cc:Agent>
    </dc:creator>
   </cc:Work>
  </rdf:RDF>
 </metadata>
 <defs>
  <style type="text/css">*{stroke-linejoin: round; stroke-linecap: butt}</style>
 </defs>
 <g id="figure_1">
  <g id="patch_1">
   <path d="M 0 265.69 
L 697.719443 265.69 
L 697.719443 0 
L 0 0 
z
" style="fill: #ffffff"/>
  </g>
  <g id="axes_1">
   <g id="patch_2">
    <path d="M 64.63 211.02 
L 253.399893 211.02 
L 253.399893 7.2 
L 64.63 7.2 
z
" style="fill: #ffffff"/>
   </g>
   <g id="PolyCollection_1">
    <defs>
     <path id="m26e62a71e3" d="M 73.21045 -248.784286 
L 73.21045 -248.784286 
L 116.112698 -218.175639 
L 159.014947 -213.103445 
L 201.917195 -197.034172 
L 244.819443 -211.812043 
L 244.819443 -223.805324 
L 244.819443 -223.805324 
L 201.917195 -205.577979 
L 159.014947 -221.568188 
L 116.112698 -227.398789 
L 73.21045 -248.784286 
z
" style="stroke: #3e51cc; stroke-opacity: 0.3; stroke-width: 1.5"/>
    </defs>
    <g clip-path="url(#p4afdf27f51)">
     <use xlink:href="#m26e62a71e3" x="0" y="265.69" style="fill: #3e51cc; fill-opacity: 0.3; stroke: #3e51cc; stroke-opacity: 0.3; stroke-width: 1.5"/>
    </g>
   </g>
   <g id="PolyCollection_2">
    <defs>
     <path id="m7d23b733d7" d="M 73.21045 -248.784286 
L 73.21045 -248.784286 
L 116.112698 -229.406376 
L 159.014947 -222.486127 
L 201.917195 -204.98888 
L 244.819443 -221.850662 
L 244.819443 -232.645305 
L 244.819443 -232.645305 
L 201.917195 -213.19578 
L 159.014947 -229.7566 
L 116.112698 -237.485387 
L 73.21045 -248.784286 
z
" style="stroke: #85a7eb; stroke-opacity: 0.3; stroke-width: 1.5"/>
    </defs>
    <g clip-path="url(#p4afdf27f51)">
     <use xlink:href="#m7d23b733d7" x="0" y="265.69" style="fill: #85a7eb; fill-opacity: 0.3; stroke: #85a7eb; stroke-opacity: 0.3; stroke-width: 1.5"/>
    </g>
   </g>
   <g id="matplotlib.axis_1">
    <g id="xtick_1">
     <g id="line2d_1">
      <defs>
       <path id="m3adc7d9984" d="M 0 0 
L 0 9 
" style="stroke: #000000; stroke-width: 1.875"/>
      </defs>
      <g>
       <use xlink:href="#m3adc7d9984" x="73.21045" y="211.02" style="stroke: #000000; stroke-width: 1.875"/>
      </g>
     </g>
     <g id="text_1">
      <text style="font: 16px 'DejaVu Sans', 'Bitstream Vera Sans', 'Computer Modern Sans Serif', 'Lucida Grande', 'Verdana', 'Geneva', 'Lucid', 'Arial', 'Helvetica', 'Avant Garde', sans-serif; text-anchor: middle" x="73.21045" y="235.6775" transform="rotate(-0 73.21045 235.6775)">0</text>
     </g>
    </g>
    <g id="xtick_2">
     <g id="line2d_2">
      <g>
       <use xlink:href="#m3adc7d9984" x="116.112698" y="211.02" style="stroke: #000000; stroke-width: 1.875"/>
      </g>
     </g>
     <g id="text_2">
      <text style="font: 16px 'DejaVu Sans', 'Bitstream Vera Sans', 'Computer Modern Sans Serif', 'Lucida Grande', 'Verdana', 'Geneva', 'Lucid', 'Arial', 'Helvetica', 'Avant Garde', sans-serif; text-anchor: middle" x="116.112698" y="235.6775" transform="rotate(-0 116.112698 235.6775)">22.5</text>
     </g>
    </g>
    <g id="xtick_3">
     <g id="line2d_3">
      <g>
       <use xlink:href="#m3adc7d9984" x="159.014947" y="211.02" style="stroke: #000000; stroke-width: 1.875"/>
      </g>
     </g>
     <g id="text_3">
      <text style="font: 16px 'DejaVu Sans', 'Bitstream Vera Sans', 'Computer Modern Sans Serif', 'Lucida Grande', 'Verdana', 'Geneva', 'Lucid', 'Arial', 'Helvetica', 'Avant Garde', sans-serif; text-anchor: middle" x="159.014947" y="235.6775" transform="rotate(-0 159.014947 235.6775)">45</text>
     </g>
    </g>
    <g id="xtick_4">
     <g id="line2d_4">
      <g>
       <use xlink:href="#m3adc7d9984" x="201.917195" y="211.02" style="stroke: #000000; stroke-width: 1.875"/>
      </g>
     </g>
     <g id="text_4">
      <text style="font: 16px 'DejaVu Sans', 'Bitstream Vera Sans', 'Computer Modern Sans Serif', 'Lucida Grande', 'Verdana', 'Geneva', 'Lucid', 'Arial', 'Helvetica', 'Avant Garde', sans-serif; text-anchor: middle" x="201.917195" y="235.6775" transform="rotate(-0 201.917195 235.6775)">67.5</text>
     </g>
    </g>
    <g id="xtick_5">
     <g id="line2d_5">
      <g>
       <use xlink:href="#m3adc7d9984" x="244.819443" y="211.02" style="stroke: #000000; stroke-width: 1.875"/>
      </g>
     </g>
     <g id="text_5">
      <text style="font: 16px 'DejaVu Sans', 'Bitstream Vera Sans', 'Computer Modern Sans Serif', 'Lucida Grande', 'Verdana', 'Geneva', 'Lucid', 'Arial', 'Helvetica', 'Avant Garde', sans-serif; text-anchor: middle" x="244.819443" y="235.6775" transform="rotate(-0 244.819443 235.6775)">90</text>
     </g>
    </g>
   </g>
   <g id="matplotlib.axis_2">
    <g id="ytick_1">
     <g id="line2d_6">
      <defs>
       <path id="me5953d4428" d="M 0 0 
L -9 0 
" style="stroke: #000000; stroke-width: 1.875"/>
      </defs>
      <g>
       <use xlink:href="#me5953d4428" x="64.63" y="211.02" style="stroke: #000000; stroke-width: 1.875"/>
      </g>
     </g>
     <g id="text_6">
      <text style="font: 16px 'DejaVu Sans', 'Bitstream Vera Sans', 'Computer Modern Sans Serif', 'Lucida Grande', 'Verdana', 'Geneva', 'Lucid', 'Arial', 'Helvetica', 'Avant Garde', sans-serif; text-anchor: end" x="52.13" y="217.09875" transform="rotate(-0 52.13 217.09875)">0.0</text>
     </g>
    </g>
    <g id="ytick_2">
     <g id="line2d_7">
      <g>
       <use xlink:href="#me5953d4428" x="64.63" y="172.197143" style="stroke: #000000; stroke-width: 1.875"/>
      </g>
     </g>
     <g id="text_7">
      <text style="font: 16px 'DejaVu Sans', 'Bitstream Vera Sans', 'Computer Modern Sans Serif', 'Lucida Grande', 'Verdana', 'Geneva', 'Lucid', 'Arial', 'Helvetica', 'Avant Garde', sans-serif; text-anchor: end" x="52.13" y="178.275893" transform="rotate(-0 52.13 178.275893)">0.2</text>
     </g>
    </g>
    <g id="ytick_3">
     <g id="line2d_8">
      <g>
       <use xlink:href="#me5953d4428" x="64.63" y="133.374286" style="stroke: #000000; stroke-width: 1.875"/>
      </g>
     </g>
     <g id="text_8">
      <text style="font: 16px 'DejaVu Sans', 'Bitstream Vera Sans', 'Computer Modern Sans Serif', 'Lucida Grande', 'Verdana', 'Geneva', 'Lucid', 'Arial', 'Helvetica', 'Avant Garde', sans-serif; text-anchor: end" x="52.13" y="139.453036" transform="rotate(-0 52.13 139.453036)">0.4</text>
     </g>
    </g>
    <g id="ytick_4">
     <g id="line2d_9">
      <g>
       <use xlink:href="#me5953d4428" x="64.63" y="94.551429" style="stroke: #000000; stroke-width: 1.875"/>
      </g>
     </g>
     <g id="text_9">
      <text style="font: 16px 'DejaVu Sans', 'Bitstream Vera Sans', 'Computer Modern Sans Serif', 'Lucida Grande', 'Verdana', 'Geneva', 'Lucid', 'Arial', 'Helvetica', 'Avant Garde', sans-serif; text-anchor: end" x="52.13" y="100.630179" transform="rotate(-0 52.13 100.630179)">0.6</text>
     </g>
    </g>
    <g id="ytick_5">
     <g id="line2d_10">
      <g>
       <use xlink:href="#me5953d4428" x="64.63" y="55.728571" style="stroke: #000000; stroke-width: 1.875"/>
      </g>
     </g>
     <g id="text_10">
      <text style="font: 16px 'DejaVu Sans', 'Bitstream Vera Sans', 'Computer Modern Sans Serif', 'Lucida Grande', 'Verdana', 'Geneva', 'Lucid', 'Arial', 'Helvetica', 'Avant Garde', sans-serif; text-anchor: end" x="52.13" y="61.807321" transform="rotate(-0 52.13 61.807321)">0.8</text>
     </g>
    </g>
    <g id="ytick_6">
     <g id="line2d_11">
      <g>
       <use xlink:href="#me5953d4428" x="64.63" y="16.905714" style="stroke: #000000; stroke-width: 1.875"/>
      </g>
     </g>
     <g id="text_11">
      <text style="font: 16px 'DejaVu Sans', 'Bitstream Vera Sans', 'Computer Modern Sans Serif', 'Lucida Grande', 'Verdana', 'Geneva', 'Lucid', 'Arial', 'Helvetica', 'Avant Garde', sans-serif; text-anchor: end" x="52.13" y="22.984464" transform="rotate(-0 52.13 22.984464)">1.0</text>
     </g>
    </g>
    <g id="text_12">
     <text style="font: 16px 'DejaVu Sans', 'Bitstream Vera Sans', 'Computer Modern Sans Serif', 'Lucida Grande', 'Verdana', 'Geneva', 'Lucid', 'Arial', 'Helvetica', 'Avant Garde', sans-serif; text-anchor: middle" x="19.3575" y="109.11" transform="rotate(-90 19.3575 109.11)">Cosine similarity</text>
    </g>
   </g>
   <g id="line2d_12">
    <path d="M 73.21045 16.905714 
L 116.112698 41.345868 
L 159.014947 46.866641 
L 201.917195 62.704704 
L 244.819443 45.100546 
" clip-path="url(#p4afdf27f51)" style="fill: none; stroke: #3e51cc; stroke-opacity: 0.9; stroke-width: 2; stroke-linecap: square"/>
    <defs>
     <path id="mb4a0839dc9" d="M 0 2.25 
C 0.596707 2.25 1.169055 2.012926 1.59099 1.59099 
C 2.012926 1.169055 2.25 0.596707 2.25 0 
C 2.25 -0.596707 2.012926 -1.169055 1.59099 -1.59099 
C 1.169055 -2.012926 0.596707 -2.25 0 -2.25 
C -0.596707 -2.25 -1.169055 -2.012926 -1.59099 -1.59099 
C -2.012926 -1.169055 -2.25 -0.596707 -2.25 0 
C -2.25 0.596707 -2.012926 1.169055 -1.59099 1.59099 
C -1.169055 2.012926 -0.596707 2.25 0 2.25 
z
" style="stroke: #3e51cc; stroke-opacity: 0.9"/>
    </defs>
    <g clip-path="url(#p4afdf27f51)">
     <use xlink:href="#mb4a0839dc9" x="73.21045" y="16.905714" style="fill: #3e51cc; fill-opacity: 0.9; stroke: #3e51cc; stroke-opacity: 0.9"/>
     <use xlink:href="#mb4a0839dc9" x="116.112698" y="41.345868" style="fill: #3e51cc; fill-opacity: 0.9; stroke: #3e51cc; stroke-opacity: 0.9"/>
     <use xlink:href="#mb4a0839dc9" x="159.014947" y="46.866641" style="fill: #3e51cc; fill-opacity: 0.9; stroke: #3e51cc; stroke-opacity: 0.9"/>
     <use xlink:href="#mb4a0839dc9" x="201.917195" y="62.704704" style="fill: #3e51cc; fill-opacity: 0.9; stroke: #3e51cc; stroke-opacity: 0.9"/>
     <use xlink:href="#mb4a0839dc9" x="244.819443" y="45.100546" style="fill: #3e51cc; fill-opacity: 0.9; stroke: #3e51cc; stroke-opacity: 0.9"/>
    </g>
   </g>
   <g id="line2d_13">
    <path d="M 73.21045 16.905714 
L 116.112698 31.194684 
L 159.014947 38.331736 
L 201.917195 54.95026 
L 244.819443 35.9146 
" clip-path="url(#p4afdf27f51)" style="fill: none; stroke: #85a7eb; stroke-opacity: 0.9; stroke-width: 2; stroke-linecap: square"/>
    <defs>
     <path id="m8094ad2139" d="M 0 2.25 
C 0.596707 2.25 1.169055 2.012926 1.59099 1.59099 
C 2.012926 1.169055 2.25 0.596707 2.25 0 
C 2.25 -0.596707 2.012926 -1.169055 1.59099 -1.59099 
C 1.169055 -2.012926 0.596707 -2.25 0 -2.25 
C -0.596707 -2.25 -1.169055 -2.012926 -1.59099 -1.59099 
C -2.012926 -1.169055 -2.25 -0.596707 -2.25 0 
C -2.25 0.596707 -2.012926 1.169055 -1.59099 1.59099 
C -1.169055 2.012926 -0.596707 2.25 0 2.25 
z
" style="stroke: #85a7eb; stroke-opacity: 0.9"/>
    </defs>
    <g clip-path="url(#p4afdf27f51)">
     <use xlink:href="#m8094ad2139" x="73.21045" y="16.905714" style="fill: #85a7eb; fill-opacity: 0.9; stroke: #85a7eb; stroke-opacity: 0.9"/>
     <use xlink:href="#m8094ad2139" x="116.112698" y="31.194684" style="fill: #85a7eb; fill-opacity: 0.9; stroke: #85a7eb; stroke-opacity: 0.9"/>
     <use xlink:href="#m8094ad2139" x="159.014947" y="38.331736" style="fill: #85a7eb; fill-opacity: 0.9; stroke: #85a7eb; stroke-opacity: 0.9"/>
     <use xlink:href="#m8094ad2139" x="201.917195" y="54.95026" style="fill: #85a7eb; fill-opacity: 0.9; stroke: #85a7eb; stroke-opacity: 0.9"/>
     <use xlink:href="#m8094ad2139" x="244.819443" y="35.9146" style="fill: #85a7eb; fill-opacity: 0.9; stroke: #85a7eb; stroke-opacity: 0.9"/>
    </g>
   </g>
   <g id="patch_3">
    <path d="M 64.63 211.02 
L 64.63 7.2 
" style="fill: none; stroke: #000000; stroke-width: 2; stroke-linejoin: miter; stroke-linecap: square"/>
   </g>
   <g id="patch_4">
    <path d="M 64.63 211.02 
L 253.399893 211.02 
" style="fill: none; stroke: #000000; stroke-width: 2; stroke-linejoin: miter; stroke-linecap: square"/>
   </g>
   <g id="legend_1">
    <g id="patch_5">
     <path d="M 76.51 177.019687 
L 102.91 177.019687 
L 102.91 167.779687 
L 76.51 167.779687 
z
" style="fill: #3e51cc; fill-opacity: 0.3; stroke: #3e51cc; stroke-opacity: 0.3; stroke-width: 1.5; stroke-linejoin: miter"/>
    </g>
    <g id="text_13">
     <text style="font: 13.2px 'DejaVu Sans', 'Bitstream Vera Sans', 'Computer Modern Sans Serif', 'Lucida Grande', 'Verdana', 'Geneva', 'Lucid', 'Arial', 'Helvetica', 'Avant Garde', sans-serif; text-anchor: start" x="113.47" y="177.019687" transform="rotate(-0 113.47 177.019687)">V1 adapted</text>
    </g>
    <g id="patch_6">
     <path d="M 76.51 196.394812 
L 102.91 196.394812 
L 102.91 187.154812 
L 76.51 187.154812 
z
" style="fill: #85a7eb; fill-opacity: 0.3; stroke: #85a7eb; stroke-opacity: 0.3; stroke-width: 1.5; stroke-linejoin: miter"/>
    </g>
    <g id="text_14">
     <text style="font: 13.2px 'DejaVu Sans', 'Bitstream Vera Sans', 'Computer Modern Sans Serif', 'Lucida Grande', 'Verdana', 'Geneva', 'Lucid', 'Arial', 'Helvetica', 'Avant Garde', sans-serif; text-anchor: start" x="113.47" y="196.394812" transform="rotate(-0 113.47 196.394812)">V1 unadapted</text>
    </g>
   </g>
  </g>
  <g id="axes_2">
   <g id="patch_7">
    <path d="M 282.39 211.02 
L 471.159893 211.02 
L 471.159893 7.2 
L 282.39 7.2 
z
" style="fill: #ffffff"/>
   </g>
   <g id="PolyCollection_3">
    <defs>
     <path id="m82065b9aed" d="M 290.97045 -248.784286 
L 290.97045 -248.784286 
L 333.872698 -199.383983 
L 376.774947 -182.964885 
L 419.677195 -202.042577 
L 462.579443 -198.043228 
L 462.579443 -202.913966 
L 462.579443 -202.913966 
L 419.677195 -206.161716 
L 376.774947 -190.491178 
L 333.872698 -207.08755 
L 290.97045 -248.784286 
z
" style="stroke: #c48a5a; stroke-opacity: 0.3; stroke-width: 1.5"/>
    </defs>
    <g clip-path="url(#p70d5b5d96a)">
     <use xlink:href="#m82065b9aed" x="0" y="265.69" style="fill: #c48a5a; fill-opacity: 0.3; stroke: #c48a5a; stroke-opacity: 0.3; stroke-width: 1.5"/>
    </g>
   </g>
   <g id="PolyCollection_4">
    <defs>
     <path id="mf4cb9620cf" d="M 290.97045 -248.784286 
L 290.97045 -248.784286 
L 333.872698 -212.987707 
L 376.774947 -200.194273 
L 419.677195 -194.225876 
L 462.579443 -197.924302 
L 462.579443 -212.0591 
L 462.579443 -212.0591 
L 419.677195 -208.178393 
L 376.774947 -206.913872 
L 333.872698 -221.676612 
L 290.97045 -248.784286 
z
" style="stroke: #f6cd51; stroke-opacity: 0.3; stroke-width: 1.5"/>
    </defs>
    <g clip-path="url(#p70d5b5d96a)">
     <use xlink:href="#mf4cb9620cf" x="0" y="265.69" style="fill: #f6cd51; fill-opacity: 0.3; stroke: #f6cd51; stroke-opacity: 0.3; stroke-width: 1.5"/>
    </g>
   </g>
   <g id="matplotlib.axis_3">
    <g id="xtick_6">
     <g id="line2d_14">
      <g>
       <use xlink:href="#m3adc7d9984" x="290.97045" y="211.02" style="stroke: #000000; stroke-width: 1.875"/>
      </g>
     </g>
     <g id="text_15">
      <text style="font: 16px 'DejaVu Sans', 'Bitstream Vera Sans', 'Computer Modern Sans Serif', 'Lucida Grande', 'Verdana', 'Geneva', 'Lucid', 'Arial', 'Helvetica', 'Avant Garde', sans-serif; text-anchor: middle" x="290.97045" y="235.6775" transform="rotate(-0 290.97045 235.6775)">0</text>
     </g>
    </g>
    <g id="xtick_7">
     <g id="line2d_15">
      <g>
       <use xlink:href="#m3adc7d9984" x="333.872698" y="211.02" style="stroke: #000000; stroke-width: 1.875"/>
      </g>
     </g>
     <g id="text_16">
      <text style="font: 16px 'DejaVu Sans', 'Bitstream Vera Sans', 'Computer Modern Sans Serif', 'Lucida Grande', 'Verdana', 'Geneva', 'Lucid', 'Arial', 'Helvetica', 'Avant Garde', sans-serif; text-anchor: middle" x="333.872698" y="235.6775" transform="rotate(-0 333.872698 235.6775)">22.5</text>
     </g>
    </g>
    <g id="xtick_8">
     <g id="line2d_16">
      <g>
       <use xlink:href="#m3adc7d9984" x="376.774947" y="211.02" style="stroke: #000000; stroke-width: 1.875"/>
      </g>
     </g>
     <g id="text_17">
      <text style="font: 16px 'DejaVu Sans', 'Bitstream Vera Sans', 'Computer Modern Sans Serif', 'Lucida Grande', 'Verdana', 'Geneva', 'Lucid', 'Arial', 'Helvetica', 'Avant Garde', sans-serif; text-anchor: middle" x="376.774947" y="235.6775" transform="rotate(-0 376.774947 235.6775)">45</text>
     </g>
    </g>
    <g id="xtick_9">
     <g id="line2d_17">
      <g>
       <use xlink:href="#m3adc7d9984" x="419.677195" y="211.02" style="stroke: #000000; stroke-width: 1.875"/>
      </g>
     </g>
     <g id="text_18">
      <text style="font: 16px 'DejaVu Sans', 'Bitstream Vera Sans', 'Computer Modern Sans Serif', 'Lucida Grande', 'Verdana', 'Geneva', 'Lucid', 'Arial', 'Helvetica', 'Avant Garde', sans-serif; text-anchor: middle" x="419.677195" y="235.6775" transform="rotate(-0 419.677195 235.6775)">67.5</text>
     </g>
    </g>
    <g id="xtick_10">
     <g id="line2d_18">
      <g>
       <use xlink:href="#m3adc7d9984" x="462.579443" y="211.02" style="stroke: #000000; stroke-width: 1.875"/>
      </g>
     </g>
     <g id="text_19">
      <text style="font: 16px 'DejaVu Sans', 'Bitstream Vera Sans', 'Computer Modern Sans Serif', 'Lucida Grande', 'Verdana', 'Geneva', 'Lucid', 'Arial', 'Helvetica', 'Avant Garde', sans-serif; text-anchor: middle" x="462.579443" y="235.6775" transform="rotate(-0 462.579443 235.6775)">90</text>
     </g>
    </g>
    <g id="text_20">
     <text style="font: 16px 'DejaVu Sans', 'Bitstream Vera Sans', 'Computer Modern Sans Serif', 'Lucida Grande', 'Verdana', 'Geneva', 'Lucid', 'Arial', 'Helvetica', 'Avant Garde', sans-serif; text-anchor: middle" x="376.774947" y="255.1625" transform="rotate(-0 376.774947 255.1625)">Stim2 distance from adapter (deg)</text>
    </g>
   </g>
   <g id="matplotlib.axis_4">
    <g id="ytick_7">
     <g id="line2d_19">
      <g>
       <use xlink:href="#me5953d4428" x="282.39" y="211.02" style="stroke: #000000; stroke-width: 1.875"/>
      </g>
     </g>
    </g>
    <g id="ytick_8">
     <g id="line2d_20">
      <g>
       <use xlink:href="#me5953d4428" x="282.39" y="172.197143" style="stroke: #000000; stroke-width: 1.875"/>
      </g>
     </g>
    </g>
    <g id="ytick_9">
     <g id="line2d_21">
      <g>
       <use xlink:href="#me5953d4428" x="282.39" y="133.374286" style="stroke: #000000; stroke-width: 1.875"/>
      </g>
     </g>
    </g>
    <g id="ytick_10">
     <g id="line2d_22">
      <g>
       <use xlink:href="#me5953d4428" x="282.39" y="94.551429" style="stroke: #000000; stroke-width: 1.875"/>
      </g>
     </g>
    </g>
    <g id="ytick_11">
     <g id="line2d_23">
      <g>
       <use xlink:href="#me5953d4428" x="282.39" y="55.728571" style="stroke: #000000; stroke-width: 1.875"/>
      </g>
     </g>
    </g>
    <g id="ytick_12">
     <g id="line2d_24">
      <g>
       <use xlink:href="#me5953d4428" x="282.39" y="16.905714" style="stroke: #000000; stroke-width: 1.875"/>
      </g>
     </g>
    </g>
   </g>
   <g id="line2d_25">
    <path d="M 290.97045 16.905714 
L 333.872698 61.35631 
L 376.774947 77.833464 
L 419.677195 61.35607 
L 462.579443 65.139343 
" clip-path="url(#p70d5b5d96a)" style="fill: none; stroke: #c48a5a; stroke-opacity: 0.9; stroke-width: 2; stroke-linecap: square"/>
    <defs>
     <path id="m09a8bd9e7a" d="M 0 2.25 
C 0.596707 2.25 1.169055 2.012926 1.59099 1.59099 
C 2.012926 1.169055 2.25 0.596707 2.25 0 
C 2.25 -0.596707 2.012926 -1.169055 1.59099 -1.59099 
C 1.169055 -2.012926 0.596707 -2.25 0 -2.25 
C -0.596707 -2.25 -1.169055 -2.012926 -1.59099 -1.59099 
C -2.012926 -1.169055 -2.25 -0.596707 -2.25 0 
C -2.25 0.596707 -2.012926 1.169055 -1.59099 1.59099 
C -1.169055 2.012926 -0.596707 2.25 0 2.25 
z
" style="stroke: #c48a5a; stroke-opacity: 0.9"/>
    </defs>
    <g clip-path="url(#p70d5b5d96a)">
     <use xlink:href="#m09a8bd9e7a" x="290.97045" y="16.905714" style="fill: #c48a5a; fill-opacity: 0.9; stroke: #c48a5a; stroke-opacity: 0.9"/>
     <use xlink:href="#m09a8bd9e7a" x="333.872698" y="61.35631" style="fill: #c48a5a; fill-opacity: 0.9; stroke: #c48a5a; stroke-opacity: 0.9"/>
     <use xlink:href="#m09a8bd9e7a" x="376.774947" y="77.833464" style="fill: #c48a5a; fill-opacity: 0.9; stroke: #c48a5a; stroke-opacity: 0.9"/>
     <use xlink:href="#m09a8bd9e7a" x="419.677195" y="61.35607" style="fill: #c48a5a; fill-opacity: 0.9; stroke: #c48a5a; stroke-opacity: 0.9"/>
     <use xlink:href="#m09a8bd9e7a" x="462.579443" y="65.139343" style="fill: #c48a5a; fill-opacity: 0.9; stroke: #c48a5a; stroke-opacity: 0.9"/>
    </g>
   </g>
   <g id="line2d_26">
    <path d="M 290.97045 16.905714 
L 333.872698 47.124541 
L 376.774947 61.337267 
L 419.677195 60.693804 
L 462.579443 56.361518 
" clip-path="url(#p70d5b5d96a)" style="fill: none; stroke: #f6cd51; stroke-opacity: 0.9; stroke-width: 2; stroke-linecap: square"/>
    <defs>
     <path id="m020b1ab2b6" d="M 0 2.25 
C 0.596707 2.25 1.169055 2.012926 1.59099 1.59099 
C 2.012926 1.169055 2.25 0.596707 2.25 0 
C 2.25 -0.596707 2.012926 -1.169055 1.59099 -1.59099 
C 1.169055 -2.012926 0.596707 -2.25 0 -2.25 
C -0.596707 -2.25 -1.169055 -2.012926 -1.59099 -1.59099 
C -2.012926 -1.169055 -2.25 -0.596707 -2.25 0 
C -2.25 0.596707 -2.012926 1.169055 -1.59099 1.59099 
C -1.169055 2.012926 -0.596707 2.25 0 2.25 
z
" style="stroke: #f6cd51; stroke-opacity: 0.9"/>
    </defs>
    <g clip-path="url(#p70d5b5d96a)">
     <use xlink:href="#m020b1ab2b6" x="290.97045" y="16.905714" style="fill: #f6cd51; fill-opacity: 0.9; stroke: #f6cd51; stroke-opacity: 0.9"/>
     <use xlink:href="#m020b1ab2b6" x="333.872698" y="47.124541" style="fill: #f6cd51; fill-opacity: 0.9; stroke: #f6cd51; stroke-opacity: 0.9"/>
     <use xlink:href="#m020b1ab2b6" x="376.774947" y="61.337267" style="fill: #f6cd51; fill-opacity: 0.9; stroke: #f6cd51; stroke-opacity: 0.9"/>
     <use xlink:href="#m020b1ab2b6" x="419.677195" y="60.693804" style="fill: #f6cd51; fill-opacity: 0.9; stroke: #f6cd51; stroke-opacity: 0.9"/>
     <use xlink:href="#m020b1ab2b6" x="462.579443" y="56.361518" style="fill: #f6cd51; fill-opacity: 0.9; stroke: #f6cd51; stroke-opacity: 0.9"/>
    </g>
   </g>
   <g id="patch_8">
    <path d="M 282.39 211.02 
L 282.39 7.2 
" style="fill: none; stroke: #000000; stroke-width: 2; stroke-linejoin: miter; stroke-linecap: square"/>
   </g>
   <g id="patch_9">
    <path d="M 282.39 211.02 
L 471.159893 211.02 
" style="fill: none; stroke: #000000; stroke-width: 2; stroke-linejoin: miter; stroke-linecap: square"/>
   </g>
   <g id="legend_2">
    <g id="patch_10">
     <path d="M 294.27 177.019687 
L 320.67 177.019687 
L 320.67 167.779687 
L 294.27 167.779687 
z
" style="fill: #c48a5a; fill-opacity: 0.3; stroke: #c48a5a; stroke-opacity: 0.3; stroke-width: 1.5; stroke-linejoin: miter"/>
    </g>
    <g id="text_21">
     <text style="font: 13.2px 'DejaVu Sans', 'Bitstream Vera Sans', 'Computer Modern Sans Serif', 'Lucida Grande', 'Verdana', 'Geneva', 'Lucid', 'Arial', 'Helvetica', 'Avant Garde', sans-serif; text-anchor: start" x="331.23" y="177.019687" transform="rotate(-0 331.23 177.019687)">LM adapted</text>
    </g>
    <g id="patch_11">
     <path d="M 294.27 196.394812 
L 320.67 196.394812 
L 320.67 187.154812 
L 294.27 187.154812 
z
" style="fill: #f6cd51; fill-opacity: 0.3; stroke: #f6cd51; stroke-opacity: 0.3; stroke-width: 1.5; stroke-linejoin: miter"/>
    </g>
    <g id="text_22">
     <text style="font: 13.2px 'DejaVu Sans', 'Bitstream Vera Sans', 'Computer Modern Sans Serif', 'Lucida Grande', 'Verdana', 'Geneva', 'Lucid', 'Arial', 'Helvetica', 'Avant Garde', sans-serif; text-anchor: start" x="331.23" y="196.394812" transform="rotate(-0 331.23 196.394812)">LM unadapted</text>
    </g>
   </g>
  </g>
  <g id="axes_3">
   <g id="patch_12">
    <path d="M 500.15 211.02 
L 688.919893 211.02 
L 688.919893 7.2 
L 500.15 7.2 
z
" style="fill: #ffffff"/>
   </g>
   <g id="PolyCollection_5">
    <defs>
     <path id="m0aa1f65a41" d="M 508.73045 -248.784286 
L 508.73045 -248.784286 
L 551.632698 -193.751575 
L 594.534947 -176.078058 
L 637.437195 -204.971654 
L 680.339443 -204.274022 
L 680.339443 -214.820779 
L 680.339443 -214.820779 
L 637.437195 -214.811189 
L 594.534947 -189.575453 
L 551.632698 -207.111258 
L 508.73045 -248.784286 
z
" style="stroke: #8c75e6; stroke-opacity: 0.3; stroke-width: 1.5"/>
    </defs>
    <g clip-path="url(#p55d75c8d62)">
     <use xlink:href="#m0aa1f65a41" x="0" y="265.69" style="fill: #8c75e6; fill-opacity: 0.3; stroke: #8c75e6; stroke-opacity: 0.3; stroke-width: 1.5"/>
    </g>
   </g>
   <g id="PolyCollection_6">
    <defs>
     <path id="mc5431d12da" d="M 508.73045 -248.784286 
L 508.73045 -248.784286 
L 551.632698 -221.715477 
L 594.534947 -222.872696 
L 637.437195 -217.206277 
L 680.339443 -214.512803 
L 680.339443 -224.341971 
L 680.339443 -224.341971 
L 637.437195 -225.622576 
L 594.534947 -233.478784 
L 551.632698 -230.273066 
L 508.73045 -248.784286 
z
" style="stroke: #d1a6de; stroke-opacity: 0.3; stroke-width: 1.5"/>
    </defs>
    <g clip-path="url(#p55d75c8d62)">
     <use xlink:href="#mc5431d12da" x="0" y="265.69" style="fill: #d1a6de; fill-opacity: 0.3; stroke: #d1a6de; stroke-opacity: 0.3; stroke-width: 1.5"/>
    </g>
   </g>
   <g id="matplotlib.axis_5">
    <g id="xtick_11">
     <g id="line2d_27">
      <g>
       <use xlink:href="#m3adc7d9984" x="508.73045" y="211.02" style="stroke: #000000; stroke-width: 1.875"/>
      </g>
     </g>
     <g id="text_23">
      <text style="font: 16px 'DejaVu Sans', 'Bitstream Vera Sans', 'Computer Modern Sans Serif', 'Lucida Grande', 'Verdana', 'Geneva', 'Lucid', 'Arial', 'Helvetica', 'Avant Garde', sans-serif; text-anchor: middle" x="508.73045" y="235.6775" transform="rotate(-0 508.73045 235.6775)">0</text>
     </g>
    </g>
    <g id="xtick_12">
     <g id="line2d_28">
      <g>
       <use xlink:href="#m3adc7d9984" x="551.632698" y="211.02" style="stroke: #000000; stroke-width: 1.875"/>
      </g>
     </g>
     <g id="text_24">
      <text style="font: 16px 'DejaVu Sans', 'Bitstream Vera Sans', 'Computer Modern Sans Serif', 'Lucida Grande', 'Verdana', 'Geneva', 'Lucid', 'Arial', 'Helvetica', 'Avant Garde', sans-serif; text-anchor: middle" x="551.632698" y="235.6775" transform="rotate(-0 551.632698 235.6775)">22.5</text>
     </g>
    </g>
    <g id="xtick_13">
     <g id="line2d_29">
      <g>
       <use xlink:href="#m3adc7d9984" x="594.534947" y="211.02" style="stroke: #000000; stroke-width: 1.875"/>
      </g>
     </g>
     <g id="text_25">
      <text style="font: 16px 'DejaVu Sans', 'Bitstream Vera Sans', 'Computer Modern Sans Serif', 'Lucida Grande', 'Verdana', 'Geneva', 'Lucid', 'Arial', 'Helvetica', 'Avant Garde', sans-serif; text-anchor: middle" x="594.534947" y="235.6775" transform="rotate(-0 594.534947 235.6775)">45</text>
     </g>
    </g>
    <g id="xtick_14">
     <g id="line2d_30">
      <g>
       <use xlink:href="#m3adc7d9984" x="637.437195" y="211.02" style="stroke: #000000; stroke-width: 1.875"/>
      </g>
     </g>
     <g id="text_26">
      <text style="font: 16px 'DejaVu Sans', 'Bitstream Vera Sans', 'Computer Modern Sans Serif', 'Lucida Grande', 'Verdana', 'Geneva', 'Lucid', 'Arial', 'Helvetica', 'Avant Garde', sans-serif; text-anchor: middle" x="637.437195" y="235.6775" transform="rotate(-0 637.437195 235.6775)">67.5</text>
     </g>
    </g>
    <g id="xtick_15">
     <g id="line2d_31">
      <g>
       <use xlink:href="#m3adc7d9984" x="680.339443" y="211.02" style="stroke: #000000; stroke-width: 1.875"/>
      </g>
     </g>
     <g id="text_27">
      <text style="font: 16px 'DejaVu Sans', 'Bitstream Vera Sans', 'Computer Modern Sans Serif', 'Lucida Grande', 'Verdana', 'Geneva', 'Lucid', 'Arial', 'Helvetica', 'Avant Garde', sans-serif; text-anchor: middle" x="680.339443" y="235.6775" transform="rotate(-0 680.339443 235.6775)">90</text>
     </g>
    </g>
   </g>
   <g id="matplotlib.axis_6">
    <g id="ytick_13">
     <g id="line2d_32">
      <g>
       <use xlink:href="#me5953d4428" x="500.15" y="211.02" style="stroke: #000000; stroke-width: 1.875"/>
      </g>
     </g>
    </g>
    <g id="ytick_14">
     <g id="line2d_33">
      <g>
       <use xlink:href="#me5953d4428" x="500.15" y="172.197143" style="stroke: #000000; stroke-width: 1.875"/>
      </g>
     </g>
    </g>
    <g id="ytick_15">
     <g id="line2d_34">
      <g>
       <use xlink:href="#me5953d4428" x="500.15" y="133.374286" style="stroke: #000000; stroke-width: 1.875"/>
      </g>
     </g>
    </g>
    <g id="ytick_16">
     <g id="line2d_35">
      <g>
       <use xlink:href="#me5953d4428" x="500.15" y="94.551429" style="stroke: #000000; stroke-width: 1.875"/>
      </g>
     </g>
    </g>
    <g id="ytick_17">
     <g id="line2d_36">
      <g>
       <use xlink:href="#me5953d4428" x="500.15" y="55.728571" style="stroke: #000000; stroke-width: 1.875"/>
      </g>
     </g>
    </g>
    <g id="ytick_18">
     <g id="line2d_37">
      <g>
       <use xlink:href="#me5953d4428" x="500.15" y="16.905714" style="stroke: #000000; stroke-width: 1.875"/>
      </g>
     </g>
    </g>
   </g>
   <g id="line2d_38">
    <path d="M 508.73045 16.905714 
L 551.632698 62.628644 
L 594.534947 79.070263 
L 637.437195 54.250003 
L 680.339443 54.92136 
" clip-path="url(#p55d75c8d62)" style="fill: none; stroke: #8c75e6; stroke-opacity: 0.9; stroke-width: 2; stroke-linecap: square"/>
    <defs>
     <path id="me0bb3fc852" d="M 0 2.25 
C 0.596707 2.25 1.169055 2.012926 1.59099 1.59099 
C 2.012926 1.169055 2.25 0.596707 2.25 0 
C 2.25 -0.596707 2.012926 -1.169055 1.59099 -1.59099 
C 1.169055 -2.012926 0.596707 -2.25 0 -2.25 
C -0.596707 -2.25 -1.169055 -2.012926 -1.59099 -1.59099 
C -2.012926 -1.169055 -2.25 -0.596707 -2.25 0 
C -2.25 0.596707 -2.012926 1.169055 -1.59099 1.59099 
C -1.169055 2.012926 -0.596707 2.25 0 2.25 
z
" style="stroke: #8c75e6; stroke-opacity: 0.9"/>
    </defs>
    <g clip-path="url(#p55d75c8d62)">
     <use xlink:href="#me0bb3fc852" x="508.73045" y="16.905714" style="fill: #8c75e6; fill-opacity: 0.9; stroke: #8c75e6; stroke-opacity: 0.9"/>
     <use xlink:href="#me0bb3fc852" x="551.632698" y="62.628644" style="fill: #8c75e6; fill-opacity: 0.9; stroke: #8c75e6; stroke-opacity: 0.9"/>
     <use xlink:href="#me0bb3fc852" x="594.534947" y="79.070263" style="fill: #8c75e6; fill-opacity: 0.9; stroke: #8c75e6; stroke-opacity: 0.9"/>
     <use xlink:href="#me0bb3fc852" x="637.437195" y="54.250003" style="fill: #8c75e6; fill-opacity: 0.9; stroke: #8c75e6; stroke-opacity: 0.9"/>
     <use xlink:href="#me0bb3fc852" x="680.339443" y="54.92136" style="fill: #8c75e6; fill-opacity: 0.9; stroke: #8c75e6; stroke-opacity: 0.9"/>
    </g>
   </g>
   <g id="line2d_39">
    <path d="M 508.73045 16.905714 
L 551.632698 38.160196 
L 594.534947 35.540744 
L 637.437195 42.826885 
L 680.339443 44.426358 
" clip-path="url(#p55d75c8d62)" style="fill: none; stroke: #d1a6de; stroke-opacity: 0.9; stroke-width: 2; stroke-linecap: square"/>
    <defs>
     <path id="ma38f885558" d="M 0 2.25 
C 0.596707 2.25 1.169055 2.012926 1.59099 1.59099 
C 2.012926 1.169055 2.25 0.596707 2.25 0 
C 2.25 -0.596707 2.012926 -1.169055 1.59099 -1.59099 
C 1.169055 -2.012926 0.596707 -2.25 0 -2.25 
C -0.596707 -2.25 -1.169055 -2.012926 -1.59099 -1.59099 
C -2.012926 -1.169055 -2.25 -0.596707 -2.25 0 
C -2.25 0.596707 -2.012926 1.169055 -1.59099 1.59099 
C -1.169055 2.012926 -0.596707 2.25 0 2.25 
z
" style="stroke: #d1a6de; stroke-opacity: 0.9"/>
    </defs>
    <g clip-path="url(#p55d75c8d62)">
     <use xlink:href="#ma38f885558" x="508.73045" y="16.905714" style="fill: #d1a6de; fill-opacity: 0.9; stroke: #d1a6de; stroke-opacity: 0.9"/>
     <use xlink:href="#ma38f885558" x="551.632698" y="38.160196" style="fill: #d1a6de; fill-opacity: 0.9; stroke: #d1a6de; stroke-opacity: 0.9"/>
     <use xlink:href="#ma38f885558" x="594.534947" y="35.540744" style="fill: #d1a6de; fill-opacity: 0.9; stroke: #d1a6de; stroke-opacity: 0.9"/>
     <use xlink:href="#ma38f885558" x="637.437195" y="42.826885" style="fill: #d1a6de; fill-opacity: 0.9; stroke: #d1a6de; stroke-opacity: 0.9"/>
     <use xlink:href="#ma38f885558" x="680.339443" y="44.426358" style="fill: #d1a6de; fill-opacity: 0.9; stroke: #d1a6de; stroke-opacity: 0.9"/>
    </g>
   </g>
   <g id="patch_13">
    <path d="M 500.15 211.02 
L 500.15 7.2 
" style="fill: none; stroke: #000000; stroke-width: 2; stroke-linejoin: miter; stroke-linecap: square"/>
   </g>
   <g id="patch_14">
    <path d="M 500.15 211.02 
L 688.919893 211.02 
" style="fill: none; stroke: #000000; stroke-width: 2; stroke-linejoin: miter; stroke-linecap: square"/>
   </g>
   <g id="legend_3">
    <g id="patch_15">
     <path d="M 512.03 177.019687 
L 538.43 177.019687 
L 538.43 167.779687 
L 512.03 167.779687 
z
" style="fill: #8c75e6; fill-opacity: 0.3; stroke: #8c75e6; stroke-opacity: 0.3; stroke-width: 1.5; stroke-linejoin: miter"/>
    </g>
    <g id="text_28">
     <text style="font: 13.2px 'DejaVu Sans', 'Bitstream Vera Sans', 'Computer Modern Sans Serif', 'Lucida Grande', 'Verdana', 'Geneva', 'Lucid', 'Arial', 'Helvetica', 'Avant Garde', sans-serif; text-anchor: start" x="548.99" y="177.019687" transform="rotate(-0 548.99 177.019687)">LI adapted</text>
    </g>
    <g id="patch_16">
     <path d="M 512.03 196.394812 
L 538.43 196.394812 
L 538.43 187.154812 
L 512.03 187.154812 
z
" style="fill: #d1a6de; fill-opacity: 0.3; stroke: #d1a6de; stroke-opacity: 0.3; stroke-width: 1.5; stroke-linejoin: miter"/>
    </g>
    <g id="text_29">
     <text style="font: 13.2px 'DejaVu Sans', 'Bitstream Vera Sans', 'Computer Modern Sans Serif', 'Lucida Grande', 'Verdana', 'Geneva', 'Lucid', 'Arial', 'Helvetica', 'Avant Garde', sans-serif; text-anchor: start" x="548.99" y="196.394812" transform="rotate(-0 548.99 196.394812)">LI unadapted</text>
    </g>
   </g>
  </g>
 </g>
 <defs>
  <clipPath id="p4afdf27f51">
   <rect x="64.63" y="7.2" width="188.769893" height="203.82"/>
  </clipPath>
  <clipPath id="p70d5b5d96a">
   <rect x="282.39" y="7.2" width="188.769893" height="203.82"/>
  </clipPath>
  <clipPath id="p55d75c8d62">
   <rect x="500.15" y="7.2" width="188.769893" height="203.82"/>
  </clipPath>
 </defs>
</svg>
