<?xml version="1.0" encoding="utf-8" standalone="no"?>
<!DOCTYPE svg PUBLIC "-//W3C//DTD SVG 1.1//EN"
  "http://www.w3.org/Graphics/SVG/1.1/DTD/svg11.dtd">
<svg xmlns:xlink="http://www.w3.org/1999/xlink" width="432pt" height="288pt" viewBox="0 0 432 288" xmlns="http://www.w3.org/2000/svg" version="1.1">
 <metadata>
  <rdf:RDF xmlns:dc="http://purl.org/dc/elements/1.1/" xmlns:cc="http://creativecommons.org/ns#" xmlns:rdf="http://www.w3.org/1999/02/22-rdf-syntax-ns#">
   <cc:Work>
    <dc:type rdf:resource="http://purl.org/dc/dcmitype/StillImage"/>
    <dc:date>2023-11-20T14:32:24.855190</dc:date>
    <dc:format>image/svg+xml</dc:format>
    <dc:creator>
     <cc:Agent>
      <dc:title>Matplotlib v3.7.2, https://matplotlib.org/</dc:title>
     </cc:Agent>
    </dc:creator>
   </cc:Work>
  </rdf:RDF>
 </metadata>
 <defs>
  <style type="text/css">*{stroke-linejoin: round; stroke-linecap: butt}</style>
 </defs>
 <g id="figure_1">
  <g id="patch_1">
   <path d="M 0 288 
L 432 288 
L 432 0 
L 0 0 
z
" style="fill: #ffffff"/>
  </g>
  <g id="axes_1">
   <g id="patch_2">
    <path d="M 54.016364 265.675895 
L 414.72 265.675895 
L 414.72 17.28 
L 54.016364 17.28 
z
" style="fill: #ffffff"/>
   </g>
   <g id="matplotlib.axis_1"/>
   <g id="matplotlib.axis_2"/>
   <g id="line2d_1">
    <path d="M 74.510888 218.02825 
L 78.609793 203.018612 
L 82.708698 214.542893 
L 86.807603 216.984833 
L 90.906508 220.516359 
L 95.005413 227.264282 
L 99.104318 225.868542 
L 103.203223 218.729374 
L 107.302128 219.389462 
L 111.401033 227.463762 
L 115.499938 222.430581 
L 119.598843 219.174205 
L 123.697748 212.076487 
L 127.796653 229.333285 
L 131.895558 213.893641 
L 135.994463 226.442313 
L 140.093368 227.38227 
L 144.192273 227.38227 
L 148.291178 241.437274 
L 152.390083 245.763764 
L 156.488988 223.261799 
L 160.587893 220.048682 
L 164.686798 230.423178 
L 168.785702 213.850552 
L 172.884607 198.064351 
L 176.983512 206.612528 
L 181.082417 212.090604 
L 185.181322 196.445988 
L 189.280227 186.603571 
L 193.379132 205.273739 
L 197.478037 204.556658 
L 201.576942 201.473444 
L 205.675847 189.102622 
L 209.774752 187.671803 
L 213.873657 165.330904 
L 217.972562 172.804523 
L 222.071467 184.153218 
L 226.170372 179.605239 
L 230.269277 186.610809 
L 234.368182 169.882503 
L 238.467087 174.316854 
L 242.565992 184.04323 
L 246.664897 178.868877 
L 250.763802 179.313961 
L 254.862707 175.939005 
L 258.961612 183.767731 
L 263.060517 166.904653 
L 267.159421 187.39806 
L 271.258326 183.313704 
L 275.357231 185.987007 
L 279.456136 175.433879 
L 283.555041 184.966638 
L 287.653946 173.813865 
L 291.752851 191.21808 
L 295.851756 184.806121 
L 299.950661 182.996491 
L 304.049566 199.413827 
L 308.148471 189.791958 
L 312.247376 197.509563 
L 316.346281 187.98108 
L 320.445186 197.279556 
L 324.544091 201.740446 
L 328.642996 187.41789 
L 332.741901 201.77615 
L 336.840806 192.288523 
L 340.939711 194.587914 
L 345.038616 194.621713 
L 349.137521 203.751492 
L 353.236426 192.475071 
L 357.335331 204.683122 
L 361.434236 203.443221 
L 365.53314 208.639384 
L 369.632045 210.287439 
L 373.73095 199.108625 
L 377.829855 196.56441 
L 381.92876 186.326696 
L 386.027665 192.355337 
L 390.12657 200.526227 
L 394.225475 188.581665 
L 398.32438 193.988048 
" clip-path="url(#p48f24c5f33)" style="fill: none; stroke: #808080; stroke-opacity: 0.3; stroke-width: 1.5; stroke-linecap: square"/>
   </g>
   <g id="line2d_2">
    <path d="M 74.510888 237.543298 
L 78.609793 230.160109 
L 82.708698 236.897753 
L 86.807603 239.278768 
L 90.906508 238.891531 
L 95.005413 251.442652 
L 99.104318 237.23535 
L 103.203223 237.63393 
L 107.302128 245.016678 
L 111.401033 246.284154 
L 115.499938 241.342639 
L 119.598843 245.507617 
L 123.697748 231.496498 
L 127.796653 245.798081 
L 131.895558 234.192188 
L 135.994463 241.219245 
L 140.093368 236.964602 
L 144.192273 236.964602 
L 148.291178 234.490726 
L 152.390083 241.095267 
L 156.488988 233.304315 
L 160.587893 239.951852 
L 164.686798 230.457883 
L 168.785702 227.297505 
L 172.884607 204.588442 
L 176.983512 171.054997 
L 181.082417 163.912107 
L 185.181322 181.905081 
L 189.280227 160.145433 
L 193.379132 159.53655 
L 197.478037 161.751342 
L 201.576942 157.742366 
L 205.675847 155.712104 
L 209.774752 139.310237 
L 213.873657 159.427409 
L 217.972562 155.641271 
L 222.071467 127.879607 
L 226.170372 134.595187 
L 230.269277 149.288836 
L 234.368182 123.266041 
L 238.467087 134.568781 
L 242.565992 137.085176 
L 246.664897 131.445447 
L 250.763802 138.910334 
L 254.862707 136.974925 
L 258.961612 136.020549 
L 263.060517 145.0546 
L 267.159421 155.03073 
L 271.258326 129.966986 
L 275.357231 142.542749 
L 279.456136 141.378295 
L 283.555041 155.175759 
L 287.653946 158.588555 
L 291.752851 150.178427 
L 295.851756 140.032985 
L 299.950661 138.279172 
L 304.049566 140.712116 
L 308.148471 156.050107 
L 312.247376 144.803113 
L 316.346281 167.827983 
L 320.445186 172.084106 
L 324.544091 172.962163 
L 328.642996 170.834925 
L 332.741901 159.947676 
L 336.840806 169.750285 
L 340.939711 177.412619 
L 345.038616 160.918535 
L 349.137521 173.732462 
L 353.236426 169.575606 
L 357.335331 164.864241 
L 361.434236 165.427158 
L 365.53314 167.654581 
L 369.632045 153.734606 
L 373.73095 169.993578 
L 377.829855 161.729743 
L 381.92876 184.1807 
L 386.027665 168.699469 
L 390.12657 173.028237 
L 394.225475 168.839548 
L 398.32438 179.975111 
" clip-path="url(#p48f24c5f33)" style="fill: none; stroke: #808080; stroke-opacity: 0.3; stroke-width: 1.5; stroke-linecap: square"/>
   </g>
   <g id="line2d_3">
    <path d="M 74.510888 252.661542 
L 78.609793 258.988023 
L 82.708698 245.782978 
L 86.807603 255.568666 
L 90.906508 253.327885 
L 95.005413 242.889342 
L 99.104318 242.197688 
L 103.203223 248.774893 
L 107.302128 253.202032 
L 111.401033 247.8648 
L 115.499938 257.557925 
L 119.598843 249.888447 
L 123.697748 242.225574 
L 127.796653 245.623985 
L 131.895558 247.24393 
L 135.994463 258.458664 
L 140.093368 245.009732 
L 144.192273 245.009732 
L 148.291178 236.924843 
L 152.390083 249.043273 
L 156.488988 234.798957 
L 160.587893 233.723335 
L 164.686798 237.122208 
L 168.785702 228.828015 
L 172.884607 205.526537 
L 176.983512 191.733543 
L 181.082417 182.765941 
L 185.181322 190.964419 
L 189.280227 189.580741 
L 193.379132 184.150762 
L 197.478037 182.803053 
L 201.576942 179.327704 
L 205.675847 172.485029 
L 209.774752 188.400929 
L 213.873657 182.325161 
L 217.972562 185.525168 
L 222.071467 181.604084 
L 226.170372 160.122179 
L 230.269277 172.858881 
L 234.368182 168.077127 
L 238.467087 156.203798 
L 242.565992 170.392202 
L 246.664897 171.82976 
L 250.763802 156.883305 
L 254.862707 176.342556 
L 258.961612 157.103718 
L 263.060517 157.244571 
L 267.159421 167.146792 
L 271.258326 173.320734 
L 275.357231 178.03996 
L 279.456136 185.838339 
L 283.555041 182.398624 
L 287.653946 178.118723 
L 291.752851 185.621263 
L 295.851756 193.288155 
L 299.950661 179.339147 
L 304.049566 176.68067 
L 308.148471 169.643309 
L 312.247376 180.399065 
L 316.346281 178.769685 
L 320.445186 171.746458 
L 324.544091 173.94762 
L 328.642996 182.894854 
L 332.741901 191.521121 
L 336.840806 199.119099 
L 340.939711 184.068823 
L 345.038616 185.611483 
L 349.137521 187.352385 
L 353.236426 196.207991 
L 357.335331 203.010575 
L 361.434236 199.373472 
L 365.53314 186.292537 
L 369.632045 199.919597 
L 373.73095 196.255035 
L 377.829855 184.892647 
L 381.92876 193.681729 
L 386.027665 211.086087 
L 390.12657 200.68528 
L 394.225475 212.529579 
L 398.32438 201.642993 
" clip-path="url(#p48f24c5f33)" style="fill: none; stroke: #808080; stroke-opacity: 0.3; stroke-width: 1.5; stroke-linecap: square"/>
   </g>
   <g id="line2d_4">
    <path d="M 74.510888 226.108539 
L 78.609793 242.839013 
L 82.708698 240.107539 
L 86.807603 234.968082 
L 90.906508 234.526351 
L 95.005413 250.979696 
L 99.104318 238.068038 
L 103.203223 244.566186 
L 107.302128 237.703158 
L 111.401033 243.306979 
L 115.499938 246.708899 
L 119.598843 236.456334 
L 123.697748 251.274521 
L 127.796653 245.587829 
L 131.895558 235.328766 
L 135.994463 243.417717 
L 140.093368 238.134786 
L 144.192273 238.134786 
L 148.291178 236.960868 
L 152.390083 239.412784 
L 156.488988 230.898669 
L 160.587893 239.693824 
L 164.686798 229.556854 
L 168.785702 220.156189 
L 172.884607 212.67162 
L 176.983512 188.989433 
L 181.082417 193.183436 
L 185.181322 195.510442 
L 189.280227 193.158021 
L 193.379132 188.418277 
L 197.478037 184.341317 
L 201.576942 201.987462 
L 205.675847 189.703241 
L 209.774752 178.078555 
L 213.873657 160.195108 
L 217.972562 164.136418 
L 222.071467 163.562023 
L 226.170372 175.318325 
L 230.269277 182.873622 
L 234.368182 186.537916 
L 238.467087 175.294939 
L 242.565992 176.566665 
L 246.664897 169.263481 
L 250.763802 164.026353 
L 254.862707 159.398236 
L 258.961612 181.590311 
L 263.060517 169.471068 
L 267.159421 183.837912 
L 271.258326 187.534976 
L 275.357231 186.818694 
L 279.456136 185.790631 
L 283.555041 185.872761 
L 287.653946 166.092341 
L 291.752851 196.311419 
L 295.851756 182.175503 
L 299.950661 191.719846 
L 304.049566 199.176971 
L 308.148471 190.91652 
L 312.247376 176.67714 
L 316.346281 194.567018 
L 320.445186 185.047155 
L 324.544091 191.522373 
L 328.642996 190.283724 
L 332.741901 205.568406 
L 336.840806 200.948704 
L 340.939711 191.878188 
L 345.038616 203.832636 
L 349.137521 194.258784 
L 353.236426 195.766135 
L 357.335331 195.163669 
L 361.434236 202.330826 
L 365.53314 187.03766 
L 369.632045 194.723124 
L 373.73095 207.76545 
L 377.829855 211.175043 
L 381.92876 205.395903 
L 386.027665 208.866361 
L 390.12657 207.980232 
L 394.225475 200.843873 
L 398.32438 206.914235 
" clip-path="url(#p48f24c5f33)" style="fill: none; stroke: #808080; stroke-opacity: 0.3; stroke-width: 1.5; stroke-linecap: square"/>
   </g>
   <g id="line2d_5">
    <path d="M 74.510888 220.424542 
L 78.609793 243.2352 
L 82.708698 230.782442 
L 86.807603 226.343361 
L 90.906508 233.761437 
L 95.005413 244.616737 
L 99.104318 226.013031 
L 103.203223 221.014505 
L 107.302128 234.149447 
L 111.401033 232.290317 
L 115.499938 232.680365 
L 119.598843 241.082451 
L 123.697748 240.610718 
L 127.796653 235.658008 
L 131.895558 235.689069 
L 135.994463 237.896652 
L 140.093368 241.879087 
L 144.192273 241.879087 
L 148.291178 230.464962 
L 152.390083 234.291759 
L 156.488988 246.645496 
L 160.587893 234.08399 
L 164.686798 235.105808 
L 168.785702 203.046436 
L 172.884607 190.653008 
L 176.983512 180.867336 
L 181.082417 187.076507 
L 185.181322 192.961395 
L 189.280227 188.79174 
L 193.379132 183.569195 
L 197.478037 182.288829 
L 201.576942 180.460107 
L 205.675847 177.642987 
L 209.774752 172.196766 
L 213.873657 171.393163 
L 217.972562 179.066275 
L 222.071467 186.835782 
L 226.170372 167.557227 
L 230.269277 177.479894 
L 234.368182 165.615592 
L 238.467087 168.214852 
L 242.565992 180.165391 
L 246.664897 178.787976 
L 250.763802 190.000391 
L 254.862707 186.061468 
L 258.961612 190.189007 
L 263.060517 178.192961 
L 267.159421 184.97724 
L 271.258326 190.25196 
L 275.357231 172.219851 
L 279.456136 196.379279 
L 283.555041 181.414807 
L 287.653946 178.217198 
L 291.752851 191.012483 
L 295.851756 194.553481 
L 299.950661 186.630196 
L 304.049566 180.281693 
L 308.148471 182.312812 
L 312.247376 169.169573 
L 316.346281 179.387366 
L 320.445186 176.245511 
L 324.544091 190.80981 
L 328.642996 174.710729 
L 332.741901 185.35363 
L 336.840806 172.157829 
L 340.939711 178.815248 
L 345.038616 183.80705 
L 349.137521 167.693281 
L 353.236426 178.735967 
L 357.335331 181.518591 
L 361.434236 182.28627 
L 365.53314 181.910589 
L 369.632045 190.961981 
L 373.73095 189.445997 
L 377.829855 191.401523 
L 381.92876 184.92738 
L 386.027665 186.646613 
L 390.12657 189.15949 
L 394.225475 182.635797 
L 398.32438 182.918106 
" clip-path="url(#p48f24c5f33)" style="fill: none; stroke: #808080; stroke-opacity: 0.3; stroke-width: 1.5; stroke-linecap: square"/>
   </g>
   <g id="line2d_6">
    <path d="M 74.510888 237.400364 
L 78.609793 237.337455 
L 82.708698 226.951094 
L 86.807603 229.276604 
L 90.906508 227.868689 
L 95.005413 237.62204 
L 99.104318 227.368628 
L 103.203223 248.534916 
L 107.302128 230.525653 
L 111.401033 239.26294 
L 115.499938 230.869393 
L 119.598843 236.436719 
L 123.697748 238.284386 
L 127.796653 244.514126 
L 131.895558 232.470644 
L 135.994463 257.32359 
L 140.093368 237.646903 
L 144.192273 237.646903 
L 148.291178 248.148759 
L 152.390083 226.893341 
L 156.488988 238.419364 
L 160.587893 231.534317 
L 164.686798 213.845813 
L 168.785702 219.100362 
L 172.884607 190.393934 
L 176.983512 200.663476 
L 181.082417 196.762049 
L 185.181322 186.084288 
L 189.280227 186.422579 
L 193.379132 186.6419 
L 197.478037 199.415896 
L 201.576942 194.742938 
L 205.675847 184.808167 
L 209.774752 181.116219 
L 213.873657 174.417267 
L 217.972562 170.810469 
L 222.071467 162.944726 
L 226.170372 168.291969 
L 230.269277 163.574172 
L 234.368182 181.709479 
L 238.467087 184.188385 
L 242.565992 179.06924 
L 246.664897 160.856507 
L 250.763802 158.989391 
L 254.862707 177.072762 
L 258.961612 162.426931 
L 263.060517 159.282159 
L 267.159421 184.497396 
L 271.258326 173.834757 
L 275.357231 180.726732 
L 279.456136 198.800575 
L 283.555041 190.731508 
L 287.653946 178.077906 
L 291.752851 180.224698 
L 295.851756 182.338218 
L 299.950661 182.097744 
L 304.049566 167.757516 
L 308.148471 185.521451 
L 312.247376 172.887142 
L 316.346281 191.459051 
L 320.445186 197.463506 
L 324.544091 181.968191 
L 328.642996 187.768548 
L 332.741901 183.437122 
L 336.840806 204.309195 
L 340.939711 194.163858 
L 345.038616 198.363849 
L 349.137521 195.515858 
L 353.236426 185.323777 
L 357.335331 185.813457 
L 361.434236 194.78975 
L 365.53314 189.181037 
L 369.632045 196.369322 
L 373.73095 199.410941 
L 377.829855 197.74437 
L 381.92876 189.870971 
L 386.027665 190.424279 
L 390.12657 198.015581 
L 394.225475 181.604364 
L 398.32438 195.82867 
" clip-path="url(#p48f24c5f33)" style="fill: none; stroke: #808080; stroke-opacity: 0.3; stroke-width: 1.5; stroke-linecap: square"/>
   </g>
   <g id="line2d_7">
    <path d="M 74.510888 249.838361 
L 78.609793 241.435228 
L 82.708698 243.13236 
L 86.807603 247.879707 
L 90.906508 247.877404 
L 95.005413 239.317873 
L 99.104318 242.287685 
L 103.203223 246.625128 
L 107.302128 246.255968 
L 111.401033 252.260783 
L 115.499938 249.740344 
L 119.598843 245.769471 
L 123.697748 245.021562 
L 127.796653 251.526869 
L 131.895558 245.666007 
L 135.994463 244.386562 
L 140.093368 242.297949 
L 144.192273 242.297949 
L 148.291178 237.681181 
L 152.390083 243.696104 
L 156.488988 236.400595 
L 160.587893 236.484152 
L 164.686798 224.566783 
L 168.785702 222.613708 
L 172.884607 211.584635 
L 176.983512 195.235138 
L 181.082417 185.467485 
L 185.181322 190.81148 
L 189.280227 178.095173 
L 193.379132 178.709835 
L 197.478037 179.749524 
L 201.576942 186.036975 
L 205.675847 178.19867 
L 209.774752 176.550076 
L 213.873657 163.66982 
L 217.972562 163.8748 
L 222.071467 147.919784 
L 226.170372 145.773189 
L 230.269277 155.079211 
L 234.368182 126.236455 
L 238.467087 148.760517 
L 242.565992 136.620143 
L 246.664897 150.100357 
L 250.763802 150.758198 
L 254.862707 148.93495 
L 258.961612 154.303801 
L 263.060517 152.477275 
L 267.159421 152.112587 
L 271.258326 149.424259 
L 275.357231 140.030671 
L 279.456136 146.262321 
L 283.555041 156.970085 
L 287.653946 149.850593 
L 291.752851 148.567494 
L 295.851756 163.914768 
L 299.950661 160.863347 
L 304.049566 158.175506 
L 308.148471 159.184848 
L 312.247376 167.049869 
L 316.346281 159.723038 
L 320.445186 168.033281 
L 324.544091 161.102261 
L 328.642996 174.44387 
L 332.741901 170.559787 
L 336.840806 171.26652 
L 340.939711 184.657077 
L 345.038616 185.271628 
L 349.137521 181.972978 
L 353.236426 178.322561 
L 357.335331 179.090321 
L 361.434236 176.549135 
L 365.53314 193.212301 
L 369.632045 186.478355 
L 373.73095 175.70838 
L 377.829855 193.445469 
L 381.92876 189.464908 
L 386.027665 186.575929 
L 390.12657 194.205634 
L 394.225475 188.551313 
L 398.32438 193.575638 
" clip-path="url(#p48f24c5f33)" style="fill: none; stroke: #808080; stroke-opacity: 0.3; stroke-width: 1.5; stroke-linecap: square"/>
   </g>
   <g id="line2d_8">
    <path d="M 74.510888 224.627649 
L 78.609793 232.847689 
L 82.708698 241.670925 
L 86.807603 219.296668 
L 90.906508 225.552811 
L 95.005413 233.204817 
L 99.104318 227.608887 
L 103.203223 233.941054 
L 107.302128 233.579448 
L 111.401033 226.762336 
L 115.499938 230.848449 
L 119.598843 235.693875 
L 123.697748 243.128971 
L 127.796653 236.230365 
L 131.895558 226.893126 
L 135.994463 229.743789 
L 140.093368 236.253836 
L 144.192273 236.253836 
L 148.291178 240.90397 
L 152.390083 226.202273 
L 156.488988 232.555548 
L 160.587893 222.305889 
L 164.686798 205.04516 
L 168.785702 192.770879 
L 172.884607 176.162394 
L 176.983512 163.637375 
L 181.082417 154.420129 
L 185.181322 152.37943 
L 189.280227 154.917082 
L 193.379132 148.530713 
L 197.478037 145.169632 
L 201.576942 142.521406 
L 205.675847 137.429641 
L 209.774752 118.793707 
L 213.873657 133.214287 
L 217.972562 115.005614 
L 222.071467 115.231625 
L 226.170372 98.123055 
L 230.269277 117.973048 
L 234.368182 121.885272 
L 238.467087 125.908341 
L 242.565992 112.07046 
L 246.664897 100.168593 
L 250.763802 115.630292 
L 254.862707 112.230454 
L 258.961612 121.968813 
L 263.060517 137.044835 
L 267.159421 115.361849 
L 271.258326 118.651125 
L 275.357231 115.279993 
L 279.456136 114.267116 
L 283.555041 129.017803 
L 287.653946 131.952946 
L 291.752851 132.288638 
L 295.851756 121.694547 
L 299.950661 128.813885 
L 304.049566 132.535317 
L 308.148471 119.866766 
L 312.247376 141.546496 
L 316.346281 136.06261 
L 320.445186 148.413321 
L 324.544091 142.796248 
L 328.642996 138.367252 
L 332.741901 139.795891 
L 336.840806 144.846976 
L 340.939711 146.391888 
L 345.038616 152.39544 
L 349.137521 152.287782 
L 353.236426 147.324173 
L 357.335331 163.774305 
L 361.434236 166.796799 
L 365.53314 161.475055 
L 369.632045 157.318754 
L 373.73095 165.134213 
L 377.829855 154.310267 
L 381.92876 162.254696 
L 386.027665 170.670797 
L 390.12657 170.433175 
L 394.225475 155.950976 
L 398.32438 182.583755 
" clip-path="url(#p48f24c5f33)" style="fill: none; stroke: #808080; stroke-opacity: 0.3; stroke-width: 1.5; stroke-linecap: square"/>
   </g>
   <g id="line2d_9">
    <path d="M 74.510888 246.434126 
L 78.609793 224.787636 
L 82.708698 234.239842 
L 86.807603 229.916599 
L 90.906508 223.044729 
L 95.005413 234.87434 
L 99.104318 230.169345 
L 103.203223 226.995533 
L 107.302128 236.414392 
L 111.401033 239.315312 
L 115.499938 235.364233 
L 119.598843 236.570373 
L 123.697748 233.782161 
L 127.796653 237.313386 
L 131.895558 243.16939 
L 135.994463 238.787771 
L 140.093368 239.880729 
L 144.192273 239.880729 
L 148.291178 239.376471 
L 152.390083 236.3248 
L 156.488988 227.804609 
L 160.587893 234.744445 
L 164.686798 219.549338 
L 168.785702 198.574815 
L 172.884607 175.867322 
L 176.983512 160.294971 
L 181.082417 159.06761 
L 185.181322 152.37311 
L 189.280227 154.212327 
L 193.379132 140.879286 
L 197.478037 163.82368 
L 201.576942 146.772357 
L 205.675847 149.32868 
L 209.774752 138.495539 
L 213.873657 150.436219 
L 217.972562 150.276934 
L 222.071467 134.804989 
L 226.170372 136.150554 
L 230.269277 129.569137 
L 234.368182 130.871016 
L 238.467087 140.157416 
L 242.565992 123.664346 
L 246.664897 133.887516 
L 250.763802 111.130111 
L 254.862707 138.200162 
L 258.961612 137.864563 
L 263.060517 137.99284 
L 267.159421 131.547918 
L 271.258326 131.132562 
L 275.357231 142.019996 
L 279.456136 162.708297 
L 283.555041 155.793086 
L 287.653946 151.045914 
L 291.752851 159.276452 
L 295.851756 147.249434 
L 299.950661 145.599662 
L 304.049566 158.833915 
L 308.148471 152.190166 
L 312.247376 157.07993 
L 316.346281 160.788515 
L 320.445186 151.377805 
L 324.544091 155.641309 
L 328.642996 162.855862 
L 332.741901 160.150534 
L 336.840806 163.130865 
L 340.939711 169.425686 
L 345.038616 173.214471 
L 349.137521 179.146532 
L 353.236426 175.602017 
L 357.335331 187.788163 
L 361.434236 170.103614 
L 365.53314 161.586817 
L 369.632045 174.562345 
L 373.73095 181.339768 
L 377.829855 177.184464 
L 381.92876 171.229889 
L 386.027665 189.972046 
L 390.12657 197.367343 
L 394.225475 179.091273 
L 398.32438 198.980434 
" clip-path="url(#p48f24c5f33)" style="fill: none; stroke: #808080; stroke-opacity: 0.3; stroke-width: 1.5; stroke-linecap: square"/>
   </g>
   <g id="line2d_10">
    <path d="M 74.510888 237.040662 
L 78.609793 233.400432 
L 82.708698 240.028241 
L 86.807603 231.558669 
L 90.906508 242.267177 
L 95.005413 235.712735 
L 99.104318 233.625573 
L 103.203223 241.967657 
L 107.302128 240.717413 
L 111.401033 245.757791 
L 115.499938 232.135059 
L 119.598843 238.03832 
L 123.697748 232.155339 
L 127.796653 233.294881 
L 131.895558 232.226837 
L 135.994463 231.977623 
L 140.093368 245.567571 
L 144.192273 245.567571 
L 148.291178 234.465116 
L 152.390083 239.209734 
L 156.488988 238.518549 
L 160.587893 231.960335 
L 164.686798 214.809098 
L 168.785702 208.963029 
L 172.884607 182.500863 
L 176.983512 188.280629 
L 181.082417 185.012196 
L 185.181322 181.265137 
L 189.280227 177.241229 
L 193.379132 177.342842 
L 197.478037 167.955719 
L 201.576942 175.272511 
L 205.675847 176.888144 
L 209.774752 165.205973 
L 213.873657 147.088539 
L 217.972562 126.371997 
L 222.071467 150.454234 
L 226.170372 138.276716 
L 230.269277 148.287898 
L 234.368182 128.115051 
L 238.467087 132.135877 
L 242.565992 149.240913 
L 246.664897 141.362927 
L 250.763802 142.607397 
L 254.862707 135.319262 
L 258.961612 142.28842 
L 263.060517 148.876436 
L 267.159421 140.778227 
L 271.258326 159.297673 
L 275.357231 145.4859 
L 279.456136 155.424304 
L 283.555041 154.724586 
L 287.653946 152.360843 
L 291.752851 149.602108 
L 295.851756 154.633853 
L 299.950661 158.398401 
L 304.049566 159.786167 
L 308.148471 155.008787 
L 312.247376 160.675983 
L 316.346281 154.217914 
L 320.445186 156.161468 
L 324.544091 172.354939 
L 328.642996 165.630545 
L 332.741901 166.081761 
L 336.840806 165.327532 
L 340.939711 171.94197 
L 345.038616 172.98752 
L 349.137521 171.629267 
L 353.236426 184.814934 
L 357.335331 168.447151 
L 361.434236 181.278453 
L 365.53314 172.874738 
L 369.632045 173.149706 
L 373.73095 177.432429 
L 377.829855 169.909886 
L 381.92876 170.956504 
L 386.027665 169.663731 
L 390.12657 168.724099 
L 394.225475 171.104328 
L 398.32438 187.497876 
" clip-path="url(#p48f24c5f33)" style="fill: none; stroke: #808080; stroke-opacity: 0.3; stroke-width: 1.5; stroke-linecap: square"/>
   </g>
   <g id="line2d_11">
    <path d="M 74.510888 235.884304 
L 78.609793 236.17628 
L 82.708698 243.384154 
L 86.807603 242.670231 
L 90.906508 233.673661 
L 95.005413 240.334518 
L 99.104318 238.16235 
L 103.203223 239.837366 
L 107.302128 230.592385 
L 111.401033 232.617506 
L 115.499938 229.153874 
L 119.598843 232.209087 
L 123.697748 241.830848 
L 127.796653 234.66534 
L 131.895558 231.119643 
L 135.994463 231.734869 
L 140.093368 237.251123 
L 144.192273 237.251123 
L 148.291178 238.552409 
L 152.390083 236.19932 
L 156.488988 236.220499 
L 160.587893 229.889481 
L 164.686798 216.214056 
L 168.785702 211.152552 
L 172.884607 202.040814 
L 176.983512 183.863368 
L 181.082417 168.007414 
L 185.181322 172.697342 
L 189.280227 154.386847 
L 193.379132 160.495623 
L 197.478037 164.909844 
L 201.576942 166.433221 
L 205.675847 153.694058 
L 209.774752 145.257787 
L 213.873657 161.92065 
L 217.972562 146.425058 
L 222.071467 152.906714 
L 226.170372 143.215795 
L 230.269277 150.162093 
L 234.368182 156.060702 
L 238.467087 148.55564 
L 242.565992 160.048773 
L 246.664897 155.886767 
L 250.763802 145.796037 
L 254.862707 146.17123 
L 258.961612 152.905543 
L 263.060517 165.562393 
L 267.159421 162.985839 
L 271.258326 163.827315 
L 275.357231 173.533472 
L 279.456136 163.300881 
L 283.555041 156.033362 
L 287.653946 171.903774 
L 291.752851 161.249972 
L 295.851756 172.98391 
L 299.950661 169.34402 
L 304.049566 162.604964 
L 308.148471 172.251583 
L 312.247376 164.783258 
L 316.346281 176.662825 
L 320.445186 173.617718 
L 324.544091 158.75753 
L 328.642996 179.364378 
L 332.741901 177.982019 
L 336.840806 193.523143 
L 340.939711 188.931441 
L 345.038616 184.201477 
L 349.137521 180.029596 
L 353.236426 191.666992 
L 357.335331 190.517859 
L 361.434236 180.686507 
L 365.53314 193.903761 
L 369.632045 194.549387 
L 373.73095 197.174549 
L 377.829855 195.698476 
L 381.92876 195.160447 
L 386.027665 199.271026 
L 390.12657 195.632785 
L 394.225475 195.478043 
L 398.32438 202.043173 
" clip-path="url(#p48f24c5f33)" style="fill: none; stroke: #808080; stroke-opacity: 0.3; stroke-width: 1.5; stroke-linecap: square"/>
   </g>
   <g id="line2d_12">
    <path d="M 74.510888 237.294546 
L 78.609793 246.649538 
L 82.708698 251.724297 
L 86.807603 243.426718 
L 90.906508 246.580219 
L 95.005413 246.282604 
L 99.104318 245.291861 
L 103.203223 238.878203 
L 107.302128 236.19226 
L 111.401033 248.388471 
L 115.499938 240.499806 
L 119.598843 234.139293 
L 123.697748 248.506788 
L 127.796653 235.301852 
L 131.895558 243.783087 
L 135.994463 257.409808 
L 140.093368 242.948684 
L 144.192273 242.948684 
L 148.291178 239.58388 
L 152.390083 237.136044 
L 156.488988 249.752921 
L 160.587893 237.722185 
L 164.686798 216.112683 
L 168.785702 202.105759 
L 172.884607 175.350361 
L 176.983512 179.451328 
L 181.082417 169.07932 
L 185.181322 169.058823 
L 189.280227 151.323886 
L 193.379132 158.053971 
L 197.478037 156.785988 
L 201.576942 161.458218 
L 205.675847 149.668549 
L 209.774752 149.132626 
L 213.873657 127.928126 
L 217.972562 119.903153 
L 222.071467 117.898875 
L 226.170372 115.62321 
L 230.269277 102.771595 
L 234.368182 119.1388 
L 238.467087 127.606887 
L 242.565992 119.36794 
L 246.664897 128.49806 
L 250.763802 113.063575 
L 254.862707 120.726703 
L 258.961612 131.077559 
L 263.060517 118.130797 
L 267.159421 120.741281 
L 271.258326 137.106081 
L 275.357231 122.219868 
L 279.456136 126.773604 
L 283.555041 132.95136 
L 287.653946 124.527759 
L 291.752851 139.864912 
L 295.851756 133.65002 
L 299.950661 150.950988 
L 304.049566 142.427373 
L 308.148471 144.734632 
L 312.247376 141.222667 
L 316.346281 154.505356 
L 320.445186 156.191633 
L 324.544091 165.827035 
L 328.642996 158.064358 
L 332.741901 150.248072 
L 336.840806 164.641185 
L 340.939711 142.909508 
L 345.038616 159.241284 
L 349.137521 173.497435 
L 353.236426 158.405762 
L 357.335331 172.481838 
L 361.434236 164.668511 
L 365.53314 164.30161 
L 369.632045 173.815392 
L 373.73095 184.982415 
L 377.829855 167.690603 
L 381.92876 173.498532 
L 386.027665 173.787201 
L 390.12657 175.16522 
L 394.225475 184.525633 
L 398.32438 178.848293 
" clip-path="url(#p48f24c5f33)" style="fill: none; stroke: #808080; stroke-opacity: 0.3; stroke-width: 1.5; stroke-linecap: square"/>
   </g>
   <g id="line2d_13">
    <path d="M 74.510888 236.140386 
L 78.609793 235.676394 
L 82.708698 229.17334 
L 86.807603 232.771479 
L 90.906508 223.515322 
L 95.005413 232.525129 
L 99.104318 231.689214 
L 103.203223 235.079653 
L 107.302128 226.631618 
L 111.401033 221.986391 
L 115.499938 232.173332 
L 119.598843 223.257551 
L 123.697748 229.379757 
L 127.796653 229.696071 
L 131.895558 243.29052 
L 135.994463 232.079648 
L 140.093368 232.895694 
L 144.192273 232.895694 
L 148.291178 230.444635 
L 152.390083 233.720274 
L 156.488988 232.07532 
L 160.587893 224.937597 
L 164.686798 225.116601 
L 168.785702 193.817728 
L 172.884607 174.611993 
L 176.983512 171.807523 
L 181.082417 173.716055 
L 185.181322 164.379603 
L 189.280227 135.957767 
L 193.379132 162.071943 
L 197.478037 169.191571 
L 201.576942 156.97703 
L 205.675847 157.131665 
L 209.774752 142.576733 
L 213.873657 134.397363 
L 217.972562 125.356781 
L 222.071467 103.739884 
L 226.170372 103.039274 
L 230.269277 110.250751 
L 234.368182 96.095545 
L 238.467087 111.768421 
L 242.565992 107.996486 
L 246.664897 107.862943 
L 250.763802 120.762492 
L 254.862707 124.978696 
L 258.961612 139.803932 
L 263.060517 134.893879 
L 267.159421 118.184235 
L 271.258326 135.371614 
L 275.357231 112.912848 
L 279.456136 135.924827 
L 283.555041 138.464593 
L 287.653946 124.470173 
L 291.752851 133.406336 
L 295.851756 125.633577 
L 299.950661 122.838009 
L 304.049566 123.307295 
L 308.148471 138.21285 
L 312.247376 143.16714 
L 316.346281 155.929294 
L 320.445186 145.622161 
L 324.544091 156.035914 
L 328.642996 157.673568 
L 332.741901 174.024165 
L 336.840806 159.679684 
L 340.939711 147.256025 
L 345.038616 158.867637 
L 349.137521 159.173705 
L 353.236426 151.178706 
L 357.335331 155.865395 
L 361.434236 161.465408 
L 365.53314 176.554651 
L 369.632045 157.478229 
L 373.73095 166.27438 
L 377.829855 165.354979 
L 381.92876 155.09816 
L 386.027665 142.373495 
L 390.12657 160.892168 
L 394.225475 162.669553 
L 398.32438 155.245545 
" clip-path="url(#p48f24c5f33)" style="fill: none; stroke: #808080; stroke-opacity: 0.3; stroke-width: 1.5; stroke-linecap: square"/>
   </g>
   <g id="line2d_14">
    <path d="M 74.510888 225.192462 
L 78.609793 218.630587 
L 82.708698 228.82506 
L 86.807603 226.584366 
L 90.906508 221.070413 
L 95.005413 219.810354 
L 99.104318 221.318859 
L 103.203223 229.84949 
L 107.302128 223.184582 
L 111.401033 230.211058 
L 115.499938 229.113337 
L 119.598843 223.289811 
L 123.697748 232.146121 
L 127.796653 224.339787 
L 131.895558 226.000273 
L 135.994463 218.832987 
L 140.093368 230.587166 
L 144.192273 230.587166 
L 148.291178 246.077572 
L 152.390083 238.004742 
L 156.488988 238.532235 
L 160.587893 224.789595 
L 164.686798 200.85248 
L 168.785702 188.773339 
L 172.884607 159.917349 
L 176.983512 135.015849 
L 181.082417 116.967648 
L 185.181322 122.991598 
L 189.280227 114.565876 
L 193.379132 126.173571 
L 197.478037 120.539551 
L 201.576942 126.846102 
L 205.675847 112.055749 
L 209.774752 88.756856 
L 213.873657 79.852479 
L 217.972562 60.306924 
L 222.071467 51.298974 
L 226.170372 18.821149 
L 230.269277 50.441043 
L 234.368182 55.594863 
L 238.467087 43.62019 
L 242.565992 64.226043 
L 246.664897 48.975991 
L 250.763802 75.072581 
L 254.862707 72.656104 
L 258.961612 67.125933 
L 263.060517 74.926064 
L 267.159421 67.403943 
L 271.258326 58.828248 
L 275.357231 78.681091 
L 279.456136 44.906954 
L 283.555041 79.829384 
L 287.653946 99.350885 
L 291.752851 84.847694 
L 295.851756 102.062991 
L 299.950661 77.155508 
L 304.049566 100.484032 
L 308.148471 67.566423 
L 312.247376 100.935198 
L 316.346281 108.88507 
L 320.445186 80.463653 
L 324.544091 97.708062 
L 328.642996 109.005898 
L 332.741901 104.36862 
L 336.840806 129.674423 
L 340.939711 104.354964 
L 345.038616 119.409362 
L 349.137521 126.829885 
L 353.236426 110.361813 
L 357.335331 115.391791 
L 361.434236 119.289903 
L 365.53314 124.547418 
L 369.632045 120.057485 
L 373.73095 120.956869 
L 377.829855 116.418749 
L 381.92876 138.194191 
L 386.027665 125.024195 
L 390.12657 137.699728 
L 394.225475 139.544973 
L 398.32438 115.083511 
" clip-path="url(#p48f24c5f33)" style="fill: none; stroke: #808080; stroke-opacity: 0.3; stroke-width: 1.5; stroke-linecap: square"/>
   </g>
   <g id="line2d_15">
    <path d="M 74.510888 223.789624 
L 78.609793 223.572767 
L 82.708698 231.448669 
L 86.807603 219.709227 
L 90.906508 221.643851 
L 95.005413 227.60191 
L 99.104318 233.351975 
L 103.203223 226.737862 
L 107.302128 228.264228 
L 111.401033 230.202787 
L 115.499938 224.960545 
L 119.598843 230.238418 
L 123.697748 231.187897 
L 127.796653 220.179682 
L 131.895558 226.715219 
L 135.994463 229.966466 
L 140.093368 235.964871 
L 144.192273 235.964871 
L 148.291178 241.828364 
L 152.390083 224.013997 
L 156.488988 238.289956 
L 160.587893 221.454458 
L 164.686798 204.69066 
L 168.785702 183.262546 
L 172.884607 161.292668 
L 176.983512 160.655723 
L 181.082417 152.326336 
L 185.181322 136.774525 
L 189.280227 144.299981 
L 193.379132 137.314068 
L 197.478037 141.975889 
L 201.576942 146.859201 
L 205.675847 138.664371 
L 209.774752 152.02107 
L 213.873657 140.417273 
L 217.972562 153.849641 
L 222.071467 152.574805 
L 226.170372 147.011981 
L 230.269277 146.650734 
L 234.368182 155.353978 
L 238.467087 143.332918 
L 242.565992 166.012739 
L 246.664897 156.93012 
L 250.763802 161.331028 
L 254.862707 162.275934 
L 258.961612 158.544186 
L 263.060517 149.332694 
L 267.159421 163.538868 
L 271.258326 175.149472 
L 275.357231 169.287291 
L 279.456136 145.015515 
L 283.555041 154.465916 
L 287.653946 173.873762 
L 291.752851 160.475879 
L 295.851756 153.536256 
L 299.950661 175.645868 
L 304.049566 168.331596 
L 308.148471 164.131863 
L 312.247376 170.826645 
L 316.346281 163.426233 
L 320.445186 165.885509 
L 324.544091 168.051951 
L 328.642996 166.185953 
L 332.741901 183.874803 
L 336.840806 180.940073 
L 340.939711 172.331726 
L 345.038616 166.443251 
L 349.137521 179.536388 
L 353.236426 174.731866 
L 357.335331 170.41841 
L 361.434236 166.767957 
L 365.53314 170.684902 
L 369.632045 170.341807 
L 373.73095 182.519831 
L 377.829855 167.579498 
L 381.92876 175.055154 
L 386.027665 173.245007 
L 390.12657 186.004173 
L 394.225475 177.750657 
L 398.32438 184.114409 
" clip-path="url(#p48f24c5f33)" style="fill: none; stroke: #808080; stroke-opacity: 0.3; stroke-width: 1.5; stroke-linecap: square"/>
   </g>
   <g id="line2d_16">
    <path d="M 74.510888 238.410568 
L 78.609793 244.908769 
L 82.708698 241.102018 
L 86.807603 242.357606 
L 90.906508 243.598423 
L 95.005413 245.79259 
L 99.104318 236.515066 
L 103.203223 248.823288 
L 107.302128 239.235382 
L 111.401033 238.857803 
L 115.499938 235.562612 
L 119.598843 235.284255 
L 123.697748 236.474507 
L 127.796653 239.314468 
L 131.895558 243.709006 
L 135.994463 233.262468 
L 140.093368 236.365487 
L 144.192273 236.365487 
L 148.291178 240.391301 
L 152.390083 229.602885 
L 156.488988 235.925821 
L 160.587893 232.051057 
L 164.686798 234.660331 
L 168.785702 237.059743 
L 172.884607 224.101098 
L 176.983512 228.429162 
L 181.082417 227.856033 
L 185.181322 237.494032 
L 189.280227 238.331895 
L 193.379132 245.867564 
L 197.478037 232.531891 
L 201.576942 237.960415 
L 205.675847 233.797507 
L 209.774752 233.323578 
L 213.873657 238.014828 
L 217.972562 235.820925 
L 222.071467 219.988249 
L 226.170372 226.847351 
L 230.269277 225.322146 
L 234.368182 223.491074 
L 238.467087 229.967059 
L 242.565992 225.098224 
L 246.664897 209.611114 
L 250.763802 225.976222 
L 254.862707 220.409892 
L 258.961612 227.60514 
L 263.060517 236.528242 
L 267.159421 215.572542 
L 271.258326 224.460448 
L 275.357231 221.909573 
L 279.456136 222.085894 
L 283.555041 231.799166 
L 287.653946 223.779769 
L 291.752851 230.646567 
L 295.851756 229.463735 
L 299.950661 233.074626 
L 304.049566 226.189117 
L 308.148471 218.993891 
L 312.247376 229.472143 
L 316.346281 228.301108 
L 320.445186 211.389141 
L 324.544091 228.37653 
L 328.642996 226.231055 
L 332.741901 234.856742 
L 336.840806 226.855437 
L 340.939711 245.498198 
L 345.038616 233.237565 
L 349.137521 232.338983 
L 353.236426 226.21016 
L 357.335331 221.983042 
L 361.434236 227.782322 
L 365.53314 229.612568 
L 369.632045 234.930728 
L 373.73095 240.725403 
L 377.829855 242.381924 
L 381.92876 227.588794 
L 386.027665 234.41007 
L 390.12657 237.48907 
L 394.225475 241.699866 
L 398.32438 237.40076 
" clip-path="url(#p48f24c5f33)" style="fill: none; stroke: #808080; stroke-opacity: 0.3; stroke-width: 1.5; stroke-linecap: square"/>
   </g>
   <g id="line2d_17">
    <path d="M 74.510888 227.681328 
L 78.609793 231.897428 
L 82.708698 225.834575 
L 86.807603 230.519538 
L 90.906508 229.87532 
L 95.005413 239.287396 
L 99.104318 230.316054 
L 103.203223 228.394234 
L 107.302128 221.528416 
L 111.401033 230.948326 
L 115.499938 235.422819 
L 119.598843 226.889393 
L 123.697748 243.85606 
L 127.796653 227.904513 
L 131.895558 224.533299 
L 135.994463 222.630079 
L 140.093368 228.829207 
L 144.192273 228.829207 
L 148.291178 232.155809 
L 152.390083 227.709779 
L 156.488988 226.149125 
L 160.587893 231.205574 
L 164.686798 195.940738 
L 168.785702 192.202493 
L 172.884607 179.199959 
L 176.983512 175.663217 
L 181.082417 177.761205 
L 185.181322 181.094084 
L 189.280227 176.991959 
L 193.379132 178.873646 
L 197.478037 188.603376 
L 201.576942 168.232829 
L 205.675847 181.46589 
L 209.774752 178.918269 
L 213.873657 182.283424 
L 217.972562 179.222694 
L 222.071467 180.146643 
L 226.170372 176.990997 
L 230.269277 184.212151 
L 234.368182 180.285999 
L 238.467087 192.85544 
L 242.565992 184.170151 
L 246.664897 184.659711 
L 250.763802 182.968773 
L 254.862707 184.029501 
L 258.961612 182.193617 
L 263.060517 184.037598 
L 267.159421 192.846632 
L 271.258326 183.748705 
L 275.357231 188.642971 
L 279.456136 190.029943 
L 283.555041 190.717628 
L 287.653946 203.425347 
L 291.752851 196.396648 
L 295.851756 194.782734 
L 299.950661 197.212349 
L 304.049566 190.234046 
L 308.148471 192.926795 
L 312.247376 202.564507 
L 316.346281 196.719845 
L 320.445186 211.258993 
L 324.544091 193.505809 
L 328.642996 205.190127 
L 332.741901 198.849857 
L 336.840806 200.331127 
L 340.939711 194.888463 
L 345.038616 194.412417 
L 349.137521 199.092559 
L 353.236426 194.446068 
L 357.335331 209.585178 
L 361.434236 195.612112 
L 365.53314 205.936294 
L 369.632045 195.236743 
L 373.73095 206.454408 
L 377.829855 201.178051 
L 381.92876 205.252893 
L 386.027665 197.273168 
L 390.12657 206.117364 
L 394.225475 200.983637 
L 398.32438 211.208655 
" clip-path="url(#p48f24c5f33)" style="fill: none; stroke: #808080; stroke-opacity: 0.3; stroke-width: 1.5; stroke-linecap: square"/>
   </g>
   <g id="line2d_18">
    <path d="M 74.510888 235.556333 
L 78.609793 233.656457 
L 82.708698 232.255682 
L 86.807603 230.334663 
L 90.906508 234.859104 
L 95.005413 230.123059 
L 99.104318 223.685299 
L 103.203223 231.397636 
L 107.302128 232.889391 
L 111.401033 224.043928 
L 115.499938 236.598906 
L 119.598843 232.94431 
L 123.697748 229.799331 
L 127.796653 236.696833 
L 131.895558 225.866683 
L 135.994463 242.717577 
L 140.093368 235.049711 
L 144.192273 235.049711 
L 148.291178 241.447424 
L 152.390083 236.353155 
L 156.488988 237.46829 
L 160.587893 233.364051 
L 164.686798 215.857899 
L 168.785702 209.580336 
L 172.884607 200.995215 
L 176.983512 195.768569 
L 181.082417 189.065186 
L 185.181322 196.633786 
L 189.280227 171.619594 
L 193.379132 189.714026 
L 197.478037 192.705822 
L 201.576942 170.390974 
L 205.675847 189.678663 
L 209.774752 152.711047 
L 213.873657 150.506515 
L 217.972562 163.664117 
L 222.071467 161.987993 
L 226.170372 162.493771 
L 230.269277 151.947494 
L 234.368182 151.685587 
L 238.467087 150.405616 
L 242.565992 160.392581 
L 246.664897 147.981858 
L 250.763802 165.31017 
L 254.862707 162.41092 
L 258.961612 164.119649 
L 263.060517 160.17563 
L 267.159421 169.137303 
L 271.258326 165.124168 
L 275.357231 168.771885 
L 279.456136 168.143896 
L 283.555041 177.789638 
L 287.653946 174.054318 
L 291.752851 171.489795 
L 295.851756 160.12491 
L 299.950661 177.623777 
L 304.049566 167.789005 
L 308.148471 178.357946 
L 312.247376 183.600928 
L 316.346281 186.938316 
L 320.445186 178.680255 
L 324.544091 178.485561 
L 328.642996 181.547295 
L 332.741901 176.578761 
L 336.840806 177.575951 
L 340.939711 185.373775 
L 345.038616 199.613017 
L 349.137521 187.650192 
L 353.236426 189.890909 
L 357.335331 194.231476 
L 361.434236 179.194432 
L 365.53314 189.247676 
L 369.632045 199.503044 
L 373.73095 189.251222 
L 377.829855 196.630578 
L 381.92876 194.298723 
L 386.027665 194.51921 
L 390.12657 197.735467 
L 394.225475 207.926538 
L 398.32438 201.285201 
" clip-path="url(#p48f24c5f33)" style="fill: none; stroke: #808080; stroke-opacity: 0.3; stroke-width: 1.5; stroke-linecap: square"/>
   </g>
   <g id="line2d_19">
    <path d="M 74.510888 237.095737 
L 78.609793 234.635884 
L 82.708698 240.490275 
L 86.807603 244.362015 
L 90.906508 235.674893 
L 95.005413 238.912451 
L 99.104318 244.964016 
L 103.203223 238.447586 
L 107.302128 238.540936 
L 111.401033 242.995068 
L 115.499938 236.583239 
L 119.598843 243.143334 
L 123.697748 235.141066 
L 127.796653 229.914839 
L 131.895558 239.050219 
L 135.994463 237.418931 
L 140.093368 243.035019 
L 144.192273 243.035019 
L 148.291178 240.442995 
L 152.390083 234.453086 
L 156.488988 242.075892 
L 160.587893 221.864161 
L 164.686798 210.948737 
L 168.785702 190.938006 
L 172.884607 191.184057 
L 176.983512 166.995364 
L 181.082417 165.712089 
L 185.181322 159.950516 
L 189.280227 167.448988 
L 193.379132 171.409821 
L 197.478037 175.39829 
L 201.576942 163.422629 
L 205.675847 172.356001 
L 209.774752 145.233733 
L 213.873657 139.365951 
L 217.972562 135.530316 
L 222.071467 114.321402 
L 226.170372 121.356572 
L 230.269277 129.871216 
L 234.368182 141.95598 
L 238.467087 125.688499 
L 242.565992 128.167762 
L 246.664897 137.093651 
L 250.763802 142.347348 
L 254.862707 142.023046 
L 258.961612 139.088729 
L 263.060517 151.726707 
L 267.159421 152.003076 
L 271.258326 161.863794 
L 275.357231 141.215766 
L 279.456136 151.828692 
L 283.555041 157.448528 
L 287.653946 152.483992 
L 291.752851 149.776714 
L 295.851756 147.923574 
L 299.950661 172.377307 
L 304.049566 160.669679 
L 308.148471 151.51093 
L 312.247376 162.602423 
L 316.346281 171.437213 
L 320.445186 173.872456 
L 324.544091 172.804592 
L 328.642996 174.434107 
L 332.741901 180.790731 
L 336.840806 164.996307 
L 340.939711 186.270082 
L 345.038616 171.736318 
L 349.137521 185.589806 
L 353.236426 176.346288 
L 357.335331 181.01266 
L 361.434236 194.101314 
L 365.53314 179.781908 
L 369.632045 181.273621 
L 373.73095 184.775997 
L 377.829855 175.326335 
L 381.92876 186.830513 
L 386.027665 191.431792 
L 390.12657 191.379736 
L 394.225475 186.477278 
L 398.32438 191.532935 
" clip-path="url(#p48f24c5f33)" style="fill: none; stroke: #808080; stroke-opacity: 0.3; stroke-width: 1.5; stroke-linecap: square"/>
   </g>
   <g id="line2d_20">
    <path d="M 74.510888 246.168439 
L 78.609793 243.55716 
L 82.708698 239.650858 
L 86.807603 238.406326 
L 90.906508 236.983072 
L 95.005413 245.338292 
L 99.104318 236.582204 
L 103.203223 227.599888 
L 107.302128 233.900152 
L 111.401033 247.4105 
L 115.499938 240.740751 
L 119.598843 239.648957 
L 123.697748 239.306429 
L 127.796653 244.387027 
L 131.895558 242.229243 
L 135.994463 242.262405 
L 140.093368 240.312144 
L 144.192273 240.312144 
L 148.291178 250.653 
L 152.390083 236.493799 
L 156.488988 241.527282 
L 160.587893 214.892763 
L 164.686798 209.162876 
L 168.785702 185.559175 
L 172.884607 143.459955 
L 176.983512 145.75299 
L 181.082417 155.212113 
L 185.181322 146.830742 
L 189.280227 151.454468 
L 193.379132 140.187714 
L 197.478037 158.685794 
L 201.576942 152.13153 
L 205.675847 148.782657 
L 209.774752 118.142083 
L 213.873657 112.547078 
L 217.972562 115.655121 
L 222.071467 126.063564 
L 226.170372 118.672366 
L 230.269277 109.453178 
L 234.368182 112.247729 
L 238.467087 110.260449 
L 242.565992 120.265453 
L 246.664897 119.092756 
L 250.763802 115.620114 
L 254.862707 120.548757 
L 258.961612 106.307009 
L 263.060517 128.859624 
L 267.159421 124.373184 
L 271.258326 135.128985 
L 275.357231 126.333295 
L 279.456136 126.726214 
L 283.555041 140.522315 
L 287.653946 136.047805 
L 291.752851 118.731098 
L 295.851756 134.249835 
L 299.950661 149.356813 
L 304.049566 131.815846 
L 308.148471 135.310413 
L 312.247376 134.439759 
L 316.346281 150.48585 
L 320.445186 149.178148 
L 324.544091 165.619226 
L 328.642996 149.255808 
L 332.741901 158.819827 
L 336.840806 163.422411 
L 340.939711 161.083021 
L 345.038616 164.623182 
L 349.137521 165.245985 
L 353.236426 162.262728 
L 357.335331 165.996 
L 361.434236 153.949625 
L 365.53314 166.023068 
L 369.632045 169.534182 
L 373.73095 167.623265 
L 377.829855 174.120934 
L 381.92876 170.413803 
L 386.027665 175.768738 
L 390.12657 181.871844 
L 394.225475 176.811047 
L 398.32438 178.945598 
" clip-path="url(#p48f24c5f33)" style="fill: none; stroke: #808080; stroke-opacity: 0.3; stroke-width: 1.5; stroke-linecap: square"/>
   </g>
   <g id="line2d_21">
    <path d="M 74.510888 244.909696 
L 78.609793 236.187113 
L 82.708698 247.981732 
L 86.807603 233.085442 
L 90.906508 235.780886 
L 95.005413 237.046951 
L 99.104318 242.52118 
L 103.203223 243.981792 
L 107.302128 249.253991 
L 111.401033 253.701736 
L 115.499938 245.420833 
L 119.598843 254.574167 
L 123.697748 238.170383 
L 127.796653 241.792842 
L 131.895558 242.1943 
L 135.994463 250.003706 
L 140.093368 237.638804 
L 144.192273 237.638804 
L 148.291178 237.869968 
L 152.390083 237.774708 
L 156.488988 240.135504 
L 160.587893 226.231317 
L 164.686798 217.60663 
L 168.785702 190.192208 
L 172.884607 146.006525 
L 176.983512 149.687 
L 181.082417 126.649132 
L 185.181322 134.04347 
L 189.280227 133.012903 
L 193.379132 128.339425 
L 197.478037 128.310268 
L 201.576942 126.880227 
L 205.675847 134.015694 
L 209.774752 110.995622 
L 213.873657 68.492463 
L 217.972562 75.079298 
L 222.071467 71.429679 
L 226.170372 53.22865 
L 230.269277 51.722878 
L 234.368182 21.638906 
L 238.467087 45.368267 
L 242.565992 36.613254 
L 246.664897 33.733905 
L 250.763802 49.056133 
L 254.862707 59.802835 
L 258.961612 53.80783 
L 263.060517 61.130144 
L 267.159421 70.067863 
L 271.258326 66.778946 
L 275.357231 59.788816 
L 279.456136 76.777198 
L 283.555041 64.996302 
L 287.653946 87.853312 
L 291.752851 91.996752 
L 295.851756 85.835866 
L 299.950661 76.242745 
L 304.049566 100.174353 
L 308.148471 91.473592 
L 312.247376 106.22224 
L 316.346281 106.23537 
L 320.445186 120.104412 
L 324.544091 98.449224 
L 328.642996 115.610206 
L 332.741901 114.332837 
L 336.840806 117.727189 
L 340.939711 102.839215 
L 345.038616 115.096548 
L 349.137521 118.28797 
L 353.236426 124.778358 
L 357.335331 142.430618 
L 361.434236 126.481073 
L 365.53314 134.445043 
L 369.632045 141.38488 
L 373.73095 131.979633 
L 377.829855 136.088886 
L 381.92876 137.35786 
L 386.027665 147.561382 
L 390.12657 142.766555 
L 394.225475 163.976231 
L 398.32438 166.233292 
" clip-path="url(#p48f24c5f33)" style="fill: none; stroke: #808080; stroke-opacity: 0.3; stroke-width: 1.5; stroke-linecap: square"/>
   </g>
   <g id="line2d_22">
    <path d="M 74.510888 229.748717 
L 78.609793 239.741585 
L 82.708698 236.953606 
L 86.807603 238.168488 
L 90.906508 231.142857 
L 95.005413 236.811045 
L 99.104318 229.438604 
L 103.203223 236.450034 
L 107.302128 235.179586 
L 111.401033 232.926537 
L 115.499938 228.709372 
L 119.598843 237.216033 
L 123.697748 233.631851 
L 127.796653 243.659833 
L 131.895558 240.04673 
L 135.994463 234.299243 
L 140.093368 235.475741 
L 144.192273 235.475741 
L 148.291178 238.178205 
L 152.390083 226.413143 
L 156.488988 241.664809 
L 160.587893 240.371217 
L 164.686798 217.741159 
L 168.785702 188.21405 
L 172.884607 189.19531 
L 176.983512 175.118917 
L 181.082417 170.837671 
L 185.181322 165.368348 
L 189.280227 173.95714 
L 193.379132 162.541776 
L 197.478037 161.825601 
L 201.576942 168.893233 
L 205.675847 147.188962 
L 209.774752 100.693962 
L 213.873657 91.504934 
L 217.972562 102.783399 
L 222.071467 87.938962 
L 226.170372 96.530965 
L 230.269277 79.102591 
L 234.368182 76.414743 
L 238.467087 88.074636 
L 242.565992 87.890895 
L 246.664897 90.00381 
L 250.763802 99.979266 
L 254.862707 85.961293 
L 258.961612 105.137042 
L 263.060517 107.538244 
L 267.159421 87.346478 
L 271.258326 108.774837 
L 275.357231 94.932124 
L 279.456136 102.949126 
L 283.555041 114.501792 
L 287.653946 97.406605 
L 291.752851 109.410628 
L 295.851756 106.304816 
L 299.950661 119.826671 
L 304.049566 131.7009 
L 308.148471 122.233835 
L 312.247376 127.941632 
L 316.346281 121.696327 
L 320.445186 135.110516 
L 324.544091 124.272142 
L 328.642996 130.895801 
L 332.741901 142.264692 
L 336.840806 135.076915 
L 340.939711 137.034503 
L 345.038616 135.707194 
L 349.137521 143.968945 
L 353.236426 138.209695 
L 357.335331 142.121588 
L 361.434236 141.19185 
L 365.53314 141.515632 
L 369.632045 127.999509 
L 373.73095 148.797081 
L 377.829855 149.534055 
L 381.92876 164.306737 
L 386.027665 158.44345 
L 390.12657 156.123997 
L 394.225475 148.087087 
L 398.32438 147.9945 
" clip-path="url(#p48f24c5f33)" style="fill: none; stroke: #808080; stroke-opacity: 0.3; stroke-width: 1.5; stroke-linecap: square"/>
   </g>
   <g id="line2d_23">
    <path d="M 74.510888 229.899824 
L 78.609793 219.343346 
L 82.708698 224.064718 
L 86.807603 219.636669 
L 90.906508 229.978486 
L 95.005413 224.532653 
L 99.104318 228.172116 
L 103.203223 230.064564 
L 107.302128 227.740432 
L 111.401033 219.867029 
L 115.499938 226.291166 
L 119.598843 218.565724 
L 123.697748 237.201034 
L 127.796653 224.110925 
L 131.895558 215.706185 
L 135.994463 228.462413 
L 140.093368 231.070967 
L 144.192273 231.070967 
L 148.291178 238.66022 
L 152.390083 231.965674 
L 156.488988 233.018273 
L 160.587893 231.511598 
L 164.686798 214.078521 
L 168.785702 200.40071 
L 172.884607 204.770353 
L 176.983512 191.341426 
L 181.082417 187.789014 
L 185.181322 189.477077 
L 189.280227 197.109025 
L 193.379132 191.007366 
L 197.478037 194.038575 
L 201.576942 190.067781 
L 205.675847 197.796914 
L 209.774752 184.788717 
L 213.873657 186.487567 
L 217.972562 162.794772 
L 222.071467 148.021833 
L 226.170372 126.94285 
L 230.269277 157.314836 
L 234.368182 151.855511 
L 238.467087 155.404837 
L 242.565992 145.267738 
L 246.664897 134.848659 
L 250.763802 141.893427 
L 254.862707 138.701573 
L 258.961612 137.631874 
L 263.060517 147.642088 
L 267.159421 147.001664 
L 271.258326 143.784487 
L 275.357231 149.452338 
L 279.456136 141.085748 
L 283.555041 159.471902 
L 287.653946 162.388969 
L 291.752851 162.618213 
L 295.851756 156.073764 
L 299.950661 152.638829 
L 304.049566 174.452264 
L 308.148471 167.259512 
L 312.247376 172.023816 
L 316.346281 168.378076 
L 320.445186 163.785489 
L 324.544091 177.134509 
L 328.642996 174.844291 
L 332.741901 164.236218 
L 336.840806 180.950304 
L 340.939711 172.889046 
L 345.038616 178.968124 
L 349.137521 176.466579 
L 353.236426 180.507585 
L 357.335331 176.424667 
L 361.434236 177.821828 
L 365.53314 187.271407 
L 369.632045 192.620932 
L 373.73095 179.794789 
L 377.829855 179.58326 
L 381.92876 190.154726 
L 386.027665 182.880962 
L 390.12657 180.168007 
L 394.225475 192.450639 
L 398.32438 195.604367 
" clip-path="url(#p48f24c5f33)" style="fill: none; stroke: #808080; stroke-opacity: 0.3; stroke-width: 1.5; stroke-linecap: square"/>
   </g>
   <g id="line2d_24">
    <path d="M 74.510888 248.664678 
L 78.609793 247.243134 
L 82.708698 237.342623 
L 86.807603 246.443362 
L 90.906508 251.40721 
L 95.005413 239.292888 
L 99.104318 242.237772 
L 103.203223 248.410778 
L 107.302128 245.541416 
L 111.401033 243.63361 
L 115.499938 248.581799 
L 119.598843 251.002221 
L 123.697748 244.968106 
L 127.796653 245.564684 
L 131.895558 252.039584 
L 135.994463 240.860327 
L 140.093368 238.361433 
L 144.192273 238.361433 
L 148.291178 239.243151 
L 152.390083 240.460897 
L 156.488988 229.189615 
L 160.587893 224.403165 
L 164.686798 202.949603 
L 168.785702 190.14792 
L 172.884607 182.035639 
L 176.983512 190.373141 
L 181.082417 187.241679 
L 185.181322 183.140164 
L 189.280227 181.592121 
L 193.379132 180.481001 
L 197.478037 186.30904 
L 201.576942 171.502025 
L 205.675847 170.71453 
L 209.774752 173.380321 
L 213.873657 173.478576 
L 217.972562 185.685435 
L 222.071467 167.372686 
L 226.170372 177.115594 
L 230.269277 177.391007 
L 234.368182 195.392319 
L 238.467087 200.312376 
L 242.565992 174.869836 
L 246.664897 177.202425 
L 250.763802 190.831409 
L 254.862707 192.795523 
L 258.961612 192.999173 
L 263.060517 189.182411 
L 267.159421 182.665952 
L 271.258326 201.331835 
L 275.357231 201.562591 
L 279.456136 208.098925 
L 283.555041 200.443306 
L 287.653946 218.267971 
L 291.752851 198.281601 
L 295.851756 207.351611 
L 299.950661 214.416073 
L 304.049566 214.825002 
L 308.148471 218.647539 
L 312.247376 208.466136 
L 316.346281 211.038752 
L 320.445186 201.040408 
L 324.544091 209.017886 
L 328.642996 205.760994 
L 332.741901 208.481648 
L 336.840806 205.40294 
L 340.939711 214.612491 
L 345.038616 213.869038 
L 349.137521 212.218412 
L 353.236426 216.183461 
L 357.335331 213.835485 
L 361.434236 219.973265 
L 365.53314 210.585439 
L 369.632045 214.93222 
L 373.73095 222.647359 
L 377.829855 209.469798 
L 381.92876 219.741597 
L 386.027665 218.902452 
L 390.12657 227.863547 
L 394.225475 222.259181 
L 398.32438 212.83442 
" clip-path="url(#p48f24c5f33)" style="fill: none; stroke: #808080; stroke-opacity: 0.3; stroke-width: 1.5; stroke-linecap: square"/>
   </g>
   <g id="line2d_25">
    <path d="M 74.510888 225.83536 
L 78.609793 230.12691 
L 82.708698 227.046053 
L 86.807603 218.91373 
L 90.906508 223.681885 
L 95.005413 221.112854 
L 99.104318 223.910353 
L 103.203223 222.360763 
L 107.302128 224.057622 
L 111.401033 228.93033 
L 115.499938 226.226991 
L 119.598843 231.912646 
L 123.697748 233.703174 
L 127.796653 227.732085 
L 131.895558 230.71399 
L 135.994463 221.49992 
L 140.093368 231.268759 
L 144.192273 231.268759 
L 148.291178 235.826096 
L 152.390083 235.6595 
L 156.488988 234.072944 
L 160.587893 219.578689 
L 164.686798 209.295343 
L 168.785702 191.731811 
L 172.884607 160.08392 
L 176.983512 153.991323 
L 181.082417 148.820939 
L 185.181322 140.130378 
L 189.280227 146.127195 
L 193.379132 143.425647 
L 197.478037 145.183795 
L 201.576942 131.120258 
L 205.675847 128.43596 
L 209.774752 128.251977 
L 213.873657 140.70565 
L 217.972562 132.233391 
L 222.071467 135.917381 
L 226.170372 107.110412 
L 230.269277 122.489321 
L 234.368182 128.580069 
L 238.467087 135.062379 
L 242.565992 128.898544 
L 246.664897 130.442464 
L 250.763802 142.956594 
L 254.862707 149.773089 
L 258.961612 143.142871 
L 263.060517 157.695815 
L 267.159421 154.688878 
L 271.258326 155.521769 
L 275.357231 156.811686 
L 279.456136 149.289296 
L 283.555041 152.197612 
L 287.653946 164.93648 
L 291.752851 168.649106 
L 295.851756 162.395412 
L 299.950661 165.355549 
L 304.049566 166.32115 
L 308.148471 158.495767 
L 312.247376 157.798235 
L 316.346281 168.388099 
L 320.445186 176.725627 
L 324.544091 175.041968 
L 328.642996 172.21379 
L 332.741901 176.348863 
L 336.840806 180.008722 
L 340.939711 164.811903 
L 345.038616 173.22237 
L 349.137521 182.623082 
L 353.236426 187.682421 
L 357.335331 180.139654 
L 361.434236 183.652768 
L 365.53314 185.369605 
L 369.632045 191.172968 
L 373.73095 182.770842 
L 377.829855 193.090708 
L 381.92876 180.96312 
L 386.027665 182.378584 
L 390.12657 195.14934 
L 394.225475 187.591775 
L 398.32438 191.934723 
" clip-path="url(#p48f24c5f33)" style="fill: none; stroke: #808080; stroke-opacity: 0.3; stroke-width: 1.5; stroke-linecap: square"/>
   </g>
   <g id="line2d_26">
    <path d="M 74.510888 237.02859 
L 78.609793 236.778951 
L 82.708698 251.747213 
L 86.807603 249.831741 
L 90.906508 245.255839 
L 95.005413 241.82653 
L 99.104318 244.714658 
L 103.203223 246.439492 
L 107.302128 237.743895 
L 111.401033 235.6402 
L 115.499938 238.072439 
L 119.598843 241.722309 
L 123.697748 244.256823 
L 127.796653 241.983165 
L 131.895558 232.204455 
L 135.994463 235.83208 
L 140.093368 236.831459 
L 144.192273 236.831459 
L 148.291178 236.19173 
L 152.390083 232.274346 
L 156.488988 223.773864 
L 160.587893 232.690913 
L 164.686798 226.873024 
L 168.785702 196.907678 
L 172.884607 176.4455 
L 176.983512 160.239599 
L 181.082417 156.022703 
L 185.181322 156.86465 
L 189.280227 156.394649 
L 193.379132 154.556944 
L 197.478037 158.218172 
L 201.576942 152.75092 
L 205.675847 151.652371 
L 209.774752 129.570084 
L 213.873657 131.86669 
L 217.972562 109.482219 
L 222.071467 78.295889 
L 226.170372 70.368973 
L 230.269277 63.808623 
L 234.368182 63.909233 
L 238.467087 49.898965 
L 242.565992 66.875105 
L 246.664897 64.209589 
L 250.763802 71.123881 
L 254.862707 68.893333 
L 258.961612 40.709386 
L 263.060517 62.687089 
L 267.159421 52.260739 
L 271.258326 67.17287 
L 275.357231 59.683395 
L 279.456136 67.116482 
L 283.555041 80.553126 
L 287.653946 76.575556 
L 291.752851 78.592576 
L 295.851756 70.245776 
L 299.950661 89.840562 
L 304.049566 81.97192 
L 308.148471 97.245719 
L 312.247376 90.933719 
L 316.346281 81.247345 
L 320.445186 94.134205 
L 324.544091 94.674191 
L 328.642996 93.109473 
L 332.741901 108.095234 
L 336.840806 100.432034 
L 340.939711 109.830301 
L 345.038616 115.211112 
L 349.137521 121.782819 
L 353.236426 130.434159 
L 357.335331 124.009699 
L 361.434236 138.819579 
L 365.53314 133.883265 
L 369.632045 124.039025 
L 373.73095 129.186652 
L 377.829855 131.076514 
L 381.92876 122.381643 
L 386.027665 117.693445 
L 390.12657 135.867854 
L 394.225475 129.567997 
L 398.32438 138.156514 
" clip-path="url(#p48f24c5f33)" style="fill: none; stroke: #808080; stroke-opacity: 0.3; stroke-width: 1.5; stroke-linecap: square"/>
   </g>
   <g id="line2d_27">
    <path d="M 74.510888 234.977228 
L 78.609793 234.878142 
L 82.708698 236.275421 
L 86.807603 234.165137 
L 90.906508 234.321378 
L 95.005413 237.098298 
L 99.104318 233.973629 
L 103.203223 236.212916 
L 107.302128 234.901152 
L 111.401033 237.035787 
L 115.499938 235.914989 
L 119.598843 236.179051 
L 123.697748 237.292938 
L 127.796653 236.620183 
L 131.895558 234.845232 
L 135.994463 237.266417 
L 140.093368 237.111682 
L 144.192273 237.111682 
L 148.291178 238.784651 
L 152.390083 235.391094 
L 156.488988 235.48001 
L 160.587893 229.67264 
L 164.686798 217.637826 
L 168.785702 203.355675 
L 172.884607 185.334762 
L 176.983512 177.366305 
L 181.082417 172.800869 
L 185.181322 172.216535 
L 189.280227 167.836238 
L 193.379132 168.598739 
L 197.478037 171.04112 
L 201.576942 167.625533 
L 205.675847 164.553801 
L 209.774752 153.060549 
L 213.873657 148.741056 
L 217.972562 145.665643 
L 222.071467 139.434369 
L 226.170372 133.430136 
L 230.269277 138.327199 
L 234.368182 135.842211 
L 238.467087 138.382013 
L 242.565992 139.426127 
L 246.664897 136.29251 
L 250.763802 140.474569 
L 254.862707 142.255085 
L 258.961612 142.681666 
L 263.060517 145.484262 
L 267.159421 145.519507 
L 271.258326 149.257781 
L 275.357231 146.72656 
L 279.456136 149.320624 
L 283.555041 154.201984 
L 287.653946 154.210206 
L 291.752851 155.412906 
L 295.851756 154.127148 
L 299.950661 157.639907 
L 304.049566 158.332778 
L 308.148471 156.916924 
L 312.247376 160.184551 
L 316.346281 163.886898 
L 320.445186 163.88125 
L 324.544091 165.715673 
L 328.642996 166.715204 
L 332.741901 169.936353 
L 336.840806 171.707053 
L 340.939711 170.163767 
L 345.038616 172.880162 
L 349.137521 175.064352 
L 353.236426 173.747893 
L 357.335331 176.561498 
L 361.434236 175.916813 
L 365.53314 177.058806 
L 369.632045 177.937515 
L 373.73095 180.673427 
L 377.829855 178.44543 
L 381.92876 179.79178 
L 386.027665 180.381724 
L 390.12657 184.925083 
L 394.225475 182.597417 
L 398.32438 185.860414 
" clip-path="url(#p48f24c5f33)" style="fill: none; stroke: #00ffff; stroke-opacity: 0.9; stroke-width: 4; stroke-linecap: square"/>
   </g>
   <g id="line2d_28">
    <path d="M 144.192273 236.111416 
L 156.447999 236.111416 
L 156.447999 236.111416 
" clip-path="url(#p48f24c5f33)" style="fill: none; stroke: #ff0000; stroke-opacity: 0.5; stroke-width: 4; stroke-linecap: square"/>
   </g>
   <g id="line2d_29">
    <path d="M 187.230775 236.111416 
L 199.486501 236.111416 
L 199.486501 236.111416 
" clip-path="url(#p48f24c5f33)" style="fill: none; stroke: #ff0000; stroke-opacity: 0.5; stroke-width: 4; stroke-linecap: square"/>
   </g>
   <g id="line2d_30">
    <path d="M 70.411983 236.111416 
L 70.411983 189.876945 
" clip-path="url(#p48f24c5f33)" style="fill: none; stroke: #000000; stroke-width: 2; stroke-linecap: square"/>
   </g>
   <g id="line2d_31">
    <path d="M 74.510888 251.522906 
L 197.478037 251.522906 
" clip-path="url(#p48f24c5f33)" style="fill: none; stroke: #000000; stroke-width: 2; stroke-linecap: square"/>
   </g>
   <g id="patch_3">
    <path d="M 189.280227 172.072262 
Q 189.280227 202.474086 189.280227 232.875909 
" style="fill: none; stroke: #696969; stroke-width: 2; stroke-linecap: round"/>
    <path d="M 186.080227 178.472262 
L 189.280227 172.072262 
L 192.480227 178.472262 
z
" style="fill: #696969; stroke: #696969; stroke-width: 2; stroke-linecap: round"/>
    <path d="M 192.480227 226.475909 
L 189.280227 232.875909 
L 186.080227 226.475909 
z
" style="fill: #696969; stroke: #696969; stroke-width: 2; stroke-linecap: round"/>
   </g>
   <g id="patch_4">
    <path d="M 226.170372 137.66337 
Q 226.170372 152.232137 226.170372 166.800905 
" style="fill: none; stroke: #696969; stroke-width: 2; stroke-linecap: round"/>
    <path d="M 222.970372 144.06337 
L 226.170372 137.66337 
L 229.370372 144.06337 
z
" style="fill: #696969; stroke: #696969; stroke-width: 2; stroke-linecap: round"/>
    <path d="M 229.370372 160.400905 
L 226.170372 166.800905 
L 222.970372 160.400905 
z
" style="fill: #696969; stroke: #696969; stroke-width: 2; stroke-linecap: round"/>
   </g>
   <g id="text_1">
    <text style="fill: #696969; font: 16px 'DejaVu Sans', 'Bitstream Vera Sans', 'Computer Modern Sans Serif', 'Lucida Grande', 'Verdana', 'Geneva', 'Lucid', 'Arial', 'Helvetica', 'Avant Garde', sans-serif; text-anchor: middle" x="205.675847" y="208.393354" transform="rotate(-0 205.675847 208.393354)">R1</text>
   </g>
   <g id="text_2">
    <text style="fill: #696969; font: 16px 'DejaVu Sans', 'Bitstream Vera Sans', 'Computer Modern Sans Serif', 'Lucida Grande', 'Verdana', 'Geneva', 'Lucid', 'Arial', 'Helvetica', 'Avant Garde', sans-serif; text-anchor: middle" x="242.565992" y="158.155022" transform="rotate(-0 242.565992 158.155022)">R2</text>
   </g>
   <g id="text_3">
    <text style="font: 12px 'DejaVu Sans', 'Bitstream Vera Sans', 'Computer Modern Sans Serif', 'Lucida Grande', 'Verdana', 'Geneva', 'Lucid', 'Arial', 'Helvetica', 'Avant Garde', sans-serif; text-anchor: end" x="66.313079" y="220.158303" transform="rotate(-0 66.313079 220.158303)">0.3 dF/F</text>
   </g>
   <g id="text_4">
    <text style="font: 12px 'DejaVu Sans', 'Bitstream Vera Sans', 'Computer Modern Sans Serif', 'Lucida Grande', 'Verdana', 'Geneva', 'Lucid', 'Arial', 'Helvetica', 'Avant Garde', sans-serif; text-anchor: middle" x="80.659246" y="268.346777" transform="rotate(-0 80.659246 268.346777)">1 sec</text>
   </g>
  </g>
 </g>
 <defs>
  <clipPath id="p48f24c5f33">
   <rect x="54.016364" y="17.28" width="360.703636" height="248.395895"/>
  </clipPath>
 </defs>
</svg>
