<?xml version="1.0" encoding="utf-8" standalone="no"?>
<!DOCTYPE svg PUBLIC "-//W3C//DTD SVG 1.1//EN"
  "http://www.w3.org/Graphics/SVG/1.1/DTD/svg11.dtd">
<svg xmlns:xlink="http://www.w3.org/1999/xlink" width="144.737008pt" height="114.462992pt" viewBox="0 0 144.737008 114.462992" xmlns="http://www.w3.org/2000/svg" version="1.1">
 <metadata>
  <rdf:RDF xmlns:dc="http://purl.org/dc/elements/1.1/" xmlns:cc="http://creativecommons.org/ns#" xmlns:rdf="http://www.w3.org/1999/02/22-rdf-syntax-ns#">
   <cc:Work>
    <dc:type rdf:resource="http://purl.org/dc/dcmitype/StillImage"/>
    <dc:date>2023-12-13T13:47:16.726290</dc:date>
    <dc:format>image/svg+xml</dc:format>
    <dc:creator>
     <cc:Agent>
      <dc:title>Matplotlib v3.7.2, https://matplotlib.org/</dc:title>
     </cc:Agent>
    </dc:creator>
   </cc:Work>
  </rdf:RDF>
 </metadata>
 <defs>
  <style type="text/css">*{stroke-linejoin: round; stroke-linecap: butt}</style>
 </defs>
 <g id="figure_1">
  <g id="patch_1">
   <path d="M 0 114.462992 
L 144.737008 114.462992 
L 144.737008 0 
L 0 0 
z
" style="fill: #ffffff"/>
  </g>
  <g id="axes_1">
   <g id="patch_2">
    <path d="M 39.195982 98.75062 
L 133.937008 98.75062 
L 133.937008 10.8 
L 39.195982 10.8 
z
" style="fill: #ffffff"/>
   </g>
   <g id="matplotlib.axis_1"/>
   <g id="matplotlib.axis_2"/>
   <g id="line2d_1">
    <path d="M 44.578995 80.191558 
L 45.655598 82.855949 
L 46.7322 81.196429 
L 47.808803 84.638869 
L 48.885406 81.203474 
L 49.962008 84.324069 
L 51.038611 84.294042 
L 52.115213 81.418141 
L 53.191816 86.982168 
L 54.268418 87.563591 
L 55.345021 84.100782 
L 56.421623 84.839358 
L 57.498226 84.937042 
L 58.574829 88.106807 
L 59.651431 92.224131 
L 60.728034 90.19975 
L 61.804636 89.596048 
L 62.881239 89.596048 
L 63.957841 88.815866 
L 65.034444 88.853418 
L 66.111046 88.37312 
L 67.187649 84.651003 
L 68.264252 80.141912 
L 69.340854 64.002379 
L 70.417457 68.95836 
L 71.494059 65.838834 
L 72.570662 65.707637 
L 73.647264 66.708136 
L 74.723867 68.4196 
L 75.80047 72.73804 
L 76.877072 70.905797 
L 77.953675 66.449106 
L 79.030277 63.291316 
L 80.10688 59.562432 
L 81.183482 54.283096 
L 82.260085 57.4704 
L 83.336687 56.75271 
L 84.41329 50.69369 
L 85.489893 55.589846 
L 86.566495 52.090239 
L 87.643098 58.113032 
L 88.7197 58.332225 
L 89.796303 56.614646 
L 90.872905 53.0614 
L 91.949508 59.874459 
L 93.026111 59.811783 
L 94.102713 62.042282 
L 95.179316 56.307959 
L 96.255918 63.201324 
L 97.332521 59.270715 
L 98.409123 62.311026 
L 99.485726 60.652887 
L 100.562328 62.496431 
L 101.638931 64.469249 
L 102.715534 64.768106 
L 103.792136 65.90419 
L 104.868739 66.376952 
L 105.945341 64.706076 
L 107.021944 62.907645 
L 108.098546 66.955153 
L 109.175149 65.46126 
L 110.251752 68.86977 
L 111.328354 64.355534 
L 112.404957 69.612048 
L 113.481559 67.037942 
L 114.558162 67.598414 
L 115.634764 67.922732 
L 116.711367 70.93345 
L 117.787969 72.326905 
L 118.864572 74.692196 
L 119.941175 71.286648 
L 121.017777 73.02613 
L 122.09438 76.838303 
L 123.170982 74.774125 
L 124.247585 70.849799 
L 125.324187 69.543261 
L 126.40079 63.303092 
L 127.477393 64.145863 
L 128.553995 62.985196 
L 129.630598 62.706876 
" clip-path="url(#p07c5a67375)" style="fill: none; stroke: #808080; stroke-opacity: 0.3; stroke-width: 0.5; stroke-linecap: square"/>
   </g>
   <g id="line2d_2">
    <path d="M 44.578995 88.37401 
L 45.655598 91.827816 
L 46.7322 90.266805 
L 47.808803 88.184309 
L 48.885406 86.603343 
L 49.962008 90.142568 
L 51.038611 88.301927 
L 52.115213 85.260851 
L 53.191816 87.149412 
L 54.268418 88.623307 
L 55.345021 89.339936 
L 56.421623 90.004213 
L 57.498226 90.07526 
L 58.574829 88.155056 
L 59.651431 92.033151 
L 60.728034 87.665087 
L 61.804636 87.228264 
L 62.881239 87.228264 
L 63.957841 86.595896 
L 65.034444 86.142589 
L 66.111046 85.679156 
L 67.187649 85.579102 
L 68.264252 73.033951 
L 69.340854 72.320754 
L 70.417457 63.875785 
L 71.494059 58.172041 
L 72.570662 59.565576 
L 73.647264 54.627944 
L 74.723867 53.000247 
L 75.80047 59.281185 
L 76.877072 57.634271 
L 77.953675 59.169715 
L 79.030277 50.258698 
L 80.10688 45.841856 
L 81.183482 42.231269 
L 82.260085 38.232811 
L 83.336687 32.036147 
L 84.41329 37.505579 
L 85.489893 30.592885 
L 86.566495 37.933109 
L 87.643098 36.32182 
L 88.7197 33.67977 
L 89.796303 38.681344 
L 90.872905 37.608875 
L 91.949508 42.492967 
L 93.026111 43.362978 
L 94.102713 38.162835 
L 95.179316 40.466482 
L 96.255918 45.359967 
L 97.332521 42.754118 
L 98.409123 46.703769 
L 99.485726 40.518777 
L 100.562328 43.311665 
L 101.638931 45.388164 
L 102.715534 47.309762 
L 103.792136 44.567017 
L 104.868739 47.793625 
L 105.945341 48.459745 
L 107.021944 42.277654 
L 108.098546 47.461418 
L 109.175149 54.964279 
L 110.251752 51.171278 
L 111.328354 55.390017 
L 112.404957 55.348271 
L 113.481559 56.098765 
L 114.558162 56.621159 
L 115.634764 54.789522 
L 116.711367 54.939086 
L 117.787969 59.583215 
L 118.864572 57.788386 
L 119.941175 62.905854 
L 121.017777 59.338125 
L 122.09438 60.226585 
L 123.170982 62.168839 
L 124.247585 62.052812 
L 125.324187 60.562455 
L 126.40079 62.996323 
L 127.477393 60.256392 
L 128.553995 64.579524 
L 129.630598 64.700885 
" clip-path="url(#p07c5a67375)" style="fill: none; stroke: #808080; stroke-opacity: 0.3; stroke-width: 0.5; stroke-linecap: square"/>
   </g>
   <g id="line2d_3">
    <path d="M 44.578995 98.204939 
L 45.655598 93.184995 
L 46.7322 93.214868 
L 47.808803 92.165795 
L 48.885406 94.291706 
L 49.962008 92.159441 
L 51.038611 94.242091 
L 52.115213 91.793015 
L 53.191816 93.308939 
L 54.268418 91.173782 
L 55.345021 94.762661 
L 56.421623 90.211635 
L 57.498226 91.509341 
L 58.574829 94.860025 
L 59.651431 90.205395 
L 60.728034 94.035537 
L 61.804636 90.96517 
L 62.881239 90.96517 
L 63.957841 87.472504 
L 65.034444 87.381425 
L 66.111046 87.057749 
L 67.187649 86.64331 
L 68.264252 80.020782 
L 69.340854 74.245641 
L 70.417457 72.86594 
L 71.494059 69.875404 
L 72.570662 69.660555 
L 73.647264 67.53571 
L 74.723867 63.899055 
L 75.80047 67.491766 
L 76.877072 63.830991 
L 77.953675 65.561129 
L 79.030277 67.953716 
L 80.10688 58.449422 
L 81.183482 56.258598 
L 82.260085 53.009686 
L 83.336687 53.712408 
L 84.41329 59.923475 
L 85.489893 52.25999 
L 86.566495 55.824102 
L 87.643098 58.807601 
L 88.7197 57.858225 
L 89.796303 59.113472 
L 90.872905 57.77265 
L 91.949508 54.581241 
L 93.026111 60.096644 
L 94.102713 60.009225 
L 95.179316 59.782958 
L 96.255918 60.419298 
L 97.332521 63.505527 
L 98.409123 61.25942 
L 99.485726 62.367326 
L 100.562328 63.575642 
L 101.638931 63.773166 
L 102.715534 63.489792 
L 103.792136 65.218549 
L 104.868739 69.547993 
L 105.945341 64.619184 
L 107.021944 66.829949 
L 108.098546 69.74098 
L 109.175149 68.530903 
L 110.251752 66.043337 
L 111.328354 71.370836 
L 112.404957 72.777968 
L 113.481559 67.654094 
L 114.558162 72.66398 
L 115.634764 68.654957 
L 116.711367 73.860075 
L 117.787969 67.74586 
L 118.864572 71.995651 
L 119.941175 71.734879 
L 121.017777 76.263885 
L 122.09438 76.195941 
L 123.170982 75.271704 
L 124.247585 75.579059 
L 125.324187 75.679223 
L 126.40079 74.626159 
L 127.477393 75.942021 
L 128.553995 76.744764 
L 129.630598 74.316454 
" clip-path="url(#p07c5a67375)" style="fill: none; stroke: #808080; stroke-opacity: 0.3; stroke-width: 0.5; stroke-linecap: square"/>
   </g>
   <g id="line2d_4">
    <path d="M 44.578995 88.288222 
L 45.655598 89.116004 
L 46.7322 95.27932 
L 47.808803 94.163021 
L 48.885406 90.775039 
L 49.962008 91.698389 
L 51.038611 89.455606 
L 52.115213 82.614462 
L 53.191816 89.587591 
L 54.268418 88.78702 
L 55.345021 91.439386 
L 56.421623 89.218989 
L 57.498226 89.474142 
L 58.574829 90.419119 
L 59.651431 91.004625 
L 60.728034 88.960513 
L 61.804636 88.654724 
L 62.881239 88.654724 
L 63.957841 91.167062 
L 65.034444 89.681481 
L 66.111046 89.803213 
L 67.187649 84.198244 
L 68.264252 77.248456 
L 69.340854 77.521739 
L 70.417457 77.37811 
L 71.494059 72.617251 
L 72.570662 72.352317 
L 73.647264 76.650713 
L 74.723867 75.261585 
L 75.80047 72.347855 
L 76.877072 77.31517 
L 77.953675 75.843396 
L 79.030277 68.42086 
L 80.10688 59.851313 
L 81.183482 56.249415 
L 82.260085 53.157003 
L 83.336687 52.047321 
L 84.41329 49.688518 
L 85.489893 52.131766 
L 86.566495 50.846398 
L 87.643098 59.38289 
L 88.7197 53.655064 
L 89.796303 59.011399 
L 90.872905 55.529691 
L 91.949508 56.83452 
L 93.026111 54.619374 
L 94.102713 56.560882 
L 95.179316 56.266121 
L 96.255918 59.604543 
L 97.332521 59.996946 
L 98.409123 60.933531 
L 99.485726 60.532437 
L 100.562328 62.179632 
L 101.638931 63.32694 
L 102.715534 62.14665 
L 103.792136 65.824781 
L 104.868739 66.828206 
L 105.945341 64.884062 
L 107.021944 68.684285 
L 108.098546 64.384962 
L 109.175149 66.832164 
L 110.251752 64.823369 
L 111.328354 67.421428 
L 112.404957 64.292901 
L 113.481559 68.162377 
L 114.558162 67.660908 
L 115.634764 67.645333 
L 116.711367 65.355639 
L 117.787969 69.451573 
L 118.864572 65.699203 
L 119.941175 72.20156 
L 121.017777 72.192184 
L 122.09438 69.915505 
L 123.170982 70.163868 
L 124.247585 75.639454 
L 125.324187 70.423176 
L 126.40079 75.989012 
L 127.477393 75.243304 
L 128.553995 71.157195 
L 129.630598 73.975073 
" clip-path="url(#p07c5a67375)" style="fill: none; stroke: #808080; stroke-opacity: 0.3; stroke-width: 0.5; stroke-linecap: square"/>
   </g>
   <g id="line2d_5">
    <path d="M 44.578995 82.081359 
L 45.655598 85.178621 
L 46.7322 84.756091 
L 47.808803 84.71324 
L 48.885406 83.0147 
L 49.962008 82.895689 
L 51.038611 86.95331 
L 52.115213 85.292188 
L 53.191816 83.254777 
L 54.268418 86.877025 
L 55.345021 85.055485 
L 56.421623 84.177737 
L 57.498226 84.278432 
L 58.574829 85.02085 
L 59.651431 88.342375 
L 60.728034 85.654672 
L 61.804636 87.544159 
L 62.881239 87.544159 
L 63.957841 90.789711 
L 65.034444 88.886879 
L 66.111046 89.303033 
L 67.187649 89.157645 
L 68.264252 81.091674 
L 69.340854 74.244285 
L 70.417457 72.497616 
L 71.494059 69.434253 
L 72.570662 73.23675 
L 73.647264 70.190079 
L 74.723867 69.257511 
L 75.80047 71.102482 
L 76.877072 71.574173 
L 77.953675 68.493631 
L 79.030277 66.450033 
L 80.10688 58.469092 
L 81.183482 50.785698 
L 82.260085 45.544187 
L 83.336687 46.807148 
L 84.41329 42.007473 
L 85.489893 45.185296 
L 86.566495 42.488072 
L 87.643098 44.013255 
L 88.7197 48.321052 
L 89.796303 43.522831 
L 90.872905 46.545168 
L 91.949508 46.696372 
L 93.026111 48.62678 
L 94.102713 44.822471 
L 95.179316 48.567181 
L 96.255918 51.318517 
L 97.332521 53.199172 
L 98.409123 52.078212 
L 99.485726 53.166922 
L 100.562328 51.168617 
L 101.638931 56.524752 
L 102.715534 50.681433 
L 103.792136 53.750525 
L 104.868739 51.861561 
L 105.945341 59.647483 
L 107.021944 50.880677 
L 108.098546 55.094235 
L 109.175149 52.973246 
L 110.251752 55.981839 
L 111.328354 55.32277 
L 112.404957 52.203081 
L 113.481559 55.96908 
L 114.558162 53.517197 
L 115.634764 58.017819 
L 116.711367 58.472128 
L 117.787969 61.31767 
L 118.864572 58.572927 
L 119.941175 58.467177 
L 121.017777 61.8763 
L 122.09438 62.929739 
L 123.170982 63.950463 
L 124.247585 60.96579 
L 125.324187 62.331456 
L 126.40079 65.408169 
L 127.477393 64.627811 
L 128.553995 64.168418 
L 129.630598 64.385326 
" clip-path="url(#p07c5a67375)" style="fill: none; stroke: #808080; stroke-opacity: 0.3; stroke-width: 0.5; stroke-linecap: square"/>
   </g>
   <g id="line2d_6">
    <path d="M 44.578995 82.143734 
L 45.655598 87.657554 
L 46.7322 89.4495 
L 47.808803 88.292038 
L 48.885406 87.826285 
L 49.962008 84.364593 
L 51.038611 81.769779 
L 52.115213 84.91565 
L 53.191816 88.857842 
L 54.268418 87.480938 
L 55.345021 84.174778 
L 56.421623 89.89772 
L 57.498226 85.504601 
L 58.574829 80.547779 
L 59.651431 84.472963 
L 60.728034 84.714963 
L 61.804636 87.381593 
L 62.881239 87.381593 
L 63.957841 87.91631 
L 65.034444 85.310926 
L 66.111046 89.596445 
L 67.187649 84.168888 
L 68.264252 82.952945 
L 69.340854 81.481284 
L 70.417457 81.689928 
L 71.494059 79.683822 
L 72.570662 81.018685 
L 73.647264 82.415857 
L 74.723867 85.097028 
L 75.80047 81.375848 
L 76.877072 81.98852 
L 77.953675 86.14058 
L 79.030277 80.76292 
L 80.10688 81.399246 
L 81.183482 81.654803 
L 82.260085 80.327009 
L 83.336687 79.635678 
L 84.41329 80.074137 
L 85.489893 79.559287 
L 86.566495 84.962515 
L 87.643098 78.071275 
L 88.7197 81.984323 
L 89.796303 82.816141 
L 90.872905 84.910413 
L 91.949508 81.721449 
L 93.026111 79.528703 
L 94.102713 80.601164 
L 95.179316 80.846359 
L 96.255918 85.997263 
L 97.332521 84.914044 
L 98.409123 82.336933 
L 99.485726 82.388136 
L 100.562328 85.38336 
L 101.638931 81.222464 
L 102.715534 79.827558 
L 103.792136 82.162416 
L 104.868739 85.906124 
L 105.945341 85.032473 
L 107.021944 86.663685 
L 108.098546 82.922462 
L 109.175149 84.510716 
L 110.251752 88.912782 
L 111.328354 83.431787 
L 112.404957 85.049254 
L 113.481559 83.915196 
L 114.558162 86.871921 
L 115.634764 84.70977 
L 116.711367 83.846916 
L 117.787969 84.951178 
L 118.864572 83.65505 
L 119.941175 84.397532 
L 121.017777 86.442842 
L 122.09438 83.201273 
L 123.170982 86.500655 
L 124.247585 87.694518 
L 125.324187 87.361046 
L 126.40079 84.852391 
L 127.477393 85.528365 
L 128.553995 84.199909 
L 129.630598 86.797422 
" clip-path="url(#p07c5a67375)" style="fill: none; stroke: #808080; stroke-opacity: 0.3; stroke-width: 0.5; stroke-linecap: square"/>
   </g>
   <g id="line2d_7">
    <path d="M 44.578995 88.945842 
L 45.655598 86.902213 
L 46.7322 89.549587 
L 47.808803 87.245999 
L 48.885406 87.158888 
L 49.962008 88.470742 
L 51.038611 89.296514 
L 52.115213 89.160965 
L 53.191816 89.033395 
L 54.268418 89.681399 
L 55.345021 86.806579 
L 56.421623 90.295518 
L 57.498226 84.659325 
L 58.574829 85.962782 
L 59.651431 84.176149 
L 60.728034 87.675301 
L 61.804636 87.57303 
L 62.881239 87.57303 
L 63.957841 91.008696 
L 65.034444 89.079749 
L 66.111046 87.353036 
L 67.187649 86.633162 
L 68.264252 84.255534 
L 69.340854 80.844292 
L 70.417457 78.172164 
L 71.494059 78.333547 
L 72.570662 74.412205 
L 73.647264 74.961048 
L 74.723867 77.035326 
L 75.80047 78.690655 
L 76.877072 79.30245 
L 77.953675 77.706714 
L 79.030277 76.070373 
L 80.10688 73.807022 
L 81.183482 65.685807 
L 82.260085 62.974647 
L 83.336687 63.842104 
L 84.41329 60.113815 
L 85.489893 65.995845 
L 86.566495 65.322888 
L 87.643098 63.050745 
L 88.7197 66.595914 
L 89.796303 65.584208 
L 90.872905 66.579589 
L 91.949508 65.987579 
L 93.026111 70.791908 
L 94.102713 62.474579 
L 95.179316 68.188013 
L 96.255918 68.949575 
L 97.332521 66.732867 
L 98.409123 71.427372 
L 99.485726 68.7439 
L 100.562328 72.637753 
L 101.638931 67.360917 
L 102.715534 70.707345 
L 103.792136 67.432333 
L 104.868739 70.682614 
L 105.945341 74.173609 
L 107.021944 73.004004 
L 108.098546 71.246464 
L 109.175149 75.697117 
L 110.251752 75.272535 
L 111.328354 73.963951 
L 112.404957 73.587293 
L 113.481559 75.492678 
L 114.558162 71.559439 
L 115.634764 74.41381 
L 116.711367 73.236543 
L 117.787969 76.857349 
L 118.864572 74.150563 
L 119.941175 77.495738 
L 121.017777 77.653112 
L 122.09438 77.027812 
L 123.170982 76.972239 
L 124.247585 74.231978 
L 125.324187 77.246202 
L 126.40079 75.857347 
L 127.477393 79.49518 
L 128.553995 78.818019 
L 129.630598 81.277231 
" clip-path="url(#p07c5a67375)" style="fill: none; stroke: #808080; stroke-opacity: 0.3; stroke-width: 0.5; stroke-linecap: square"/>
   </g>
   <g id="line2d_8">
    <path d="M 44.578995 88.517385 
L 45.655598 88.887963 
L 46.7322 86.380949 
L 47.808803 88.033864 
L 48.885406 85.224329 
L 49.962008 87.085399 
L 51.038611 88.07355 
L 52.115213 90.899252 
L 53.191816 85.760429 
L 54.268418 92.80902 
L 55.345021 87.694355 
L 56.421623 90.624007 
L 57.498226 88.425445 
L 58.574829 85.46327 
L 59.651431 87.430181 
L 60.728034 84.303081 
L 61.804636 89.432171 
L 62.881239 89.432171 
L 63.957841 86.437924 
L 65.034444 88.329341 
L 66.111046 86.879677 
L 67.187649 89.04093 
L 68.264252 78.434097 
L 69.340854 76.626134 
L 70.417457 74.804256 
L 71.494059 77.240166 
L 72.570662 72.487969 
L 73.647264 72.554707 
L 74.723867 74.398451 
L 75.80047 71.862621 
L 76.877072 68.826398 
L 77.953675 69.974255 
L 79.030277 72.670337 
L 80.10688 69.392997 
L 81.183482 61.424506 
L 82.260085 56.789019 
L 83.336687 61.670764 
L 84.41329 54.103391 
L 85.489893 53.574392 
L 86.566495 51.249922 
L 87.643098 53.128109 
L 88.7197 56.150315 
L 89.796303 56.052109 
L 90.872905 56.857103 
L 91.949508 55.347604 
L 93.026111 55.321873 
L 94.102713 59.863638 
L 95.179316 60.356999 
L 96.255918 58.530741 
L 97.332521 56.494931 
L 98.409123 60.823223 
L 99.485726 60.410073 
L 100.562328 58.154152 
L 101.638931 65.737112 
L 102.715534 59.697206 
L 103.792136 63.429724 
L 104.868739 60.615602 
L 105.945341 65.432798 
L 107.021944 66.879699 
L 108.098546 65.400147 
L 109.175149 64.198411 
L 110.251752 66.282908 
L 111.328354 65.738685 
L 112.404957 65.588161 
L 113.481559 69.957773 
L 114.558162 69.687991 
L 115.634764 64.773412 
L 116.711367 71.901995 
L 117.787969 69.19324 
L 118.864572 69.347454 
L 119.941175 65.646409 
L 121.017777 72.123863 
L 122.09438 69.279139 
L 123.170982 71.577081 
L 124.247585 74.728761 
L 125.324187 74.159841 
L 126.40079 73.518097 
L 127.477393 75.530797 
L 128.553995 73.028706 
L 129.630598 73.06428 
" clip-path="url(#p07c5a67375)" style="fill: none; stroke: #808080; stroke-opacity: 0.3; stroke-width: 0.5; stroke-linecap: square"/>
   </g>
   <g id="line2d_9">
    <path d="M 44.578995 90.4514 
L 45.655598 88.352087 
L 46.7322 85.166561 
L 47.808803 84.69673 
L 48.885406 91.156202 
L 49.962008 88.229212 
L 51.038611 83.684723 
L 52.115213 86.06804 
L 53.191816 90.062931 
L 54.268418 88.802985 
L 55.345021 89.635485 
L 56.421623 88.5675 
L 57.498226 88.942818 
L 58.574829 89.230228 
L 59.651431 89.478626 
L 60.728034 88.83148 
L 61.804636 87.453614 
L 62.881239 87.453614 
L 63.957841 88.314039 
L 65.034444 91.816366 
L 66.111046 89.672896 
L 67.187649 89.879763 
L 68.264252 86.325684 
L 69.340854 83.254626 
L 70.417457 80.020165 
L 71.494059 79.137513 
L 72.570662 81.847917 
L 73.647264 79.439312 
L 74.723867 82.294504 
L 75.80047 84.590443 
L 76.877072 81.595107 
L 77.953675 80.755239 
L 79.030277 83.830363 
L 80.10688 79.328365 
L 81.183482 72.96405 
L 82.260085 65.529095 
L 83.336687 51.561534 
L 84.41329 45.234094 
L 85.489893 38.132167 
L 86.566495 36.41338 
L 87.643098 35.063228 
L 88.7197 37.816643 
L 89.796303 40.001267 
L 90.872905 40.775196 
L 91.949508 35.252931 
L 93.026111 38.455042 
L 94.102713 42.348946 
L 95.179316 35.948886 
L 96.255918 39.834517 
L 97.332521 39.002039 
L 98.409123 41.343125 
L 99.485726 42.574461 
L 100.562328 43.016906 
L 101.638931 44.102629 
L 102.715534 45.502415 
L 103.792136 46.496665 
L 104.868739 46.212807 
L 105.945341 44.007812 
L 107.021944 49.044541 
L 108.098546 50.079436 
L 109.175149 49.66618 
L 110.251752 52.992718 
L 111.328354 53.681881 
L 112.404957 53.620569 
L 113.481559 54.190248 
L 114.558162 54.760148 
L 115.634764 54.557057 
L 116.711367 53.822215 
L 117.787969 58.391302 
L 118.864572 56.832573 
L 119.941175 58.851943 
L 121.017777 59.77928 
L 122.09438 57.740944 
L 123.170982 56.791172 
L 124.247585 59.020756 
L 125.324187 57.796897 
L 126.40079 63.261129 
L 127.477393 65.030607 
L 128.553995 60.841837 
L 129.630598 59.711501 
" clip-path="url(#p07c5a67375)" style="fill: none; stroke: #808080; stroke-opacity: 0.3; stroke-width: 0.5; stroke-linecap: square"/>
   </g>
   <g id="line2d_10">
    <path d="M 44.578995 93.441702 
L 45.655598 93.355491 
L 46.7322 93.284411 
L 47.808803 93.12451 
L 48.885406 92.181832 
L 49.962008 92.824758 
L 51.038611 91.049344 
L 52.115213 92.502504 
L 53.191816 90.466942 
L 54.268418 93.171588 
L 55.345021 87.424328 
L 56.421623 92.41295 
L 57.498226 88.134689 
L 58.574829 90.13958 
L 59.651431 88.103229 
L 60.728034 91.026304 
L 61.804636 88.964993 
L 62.881239 88.964993 
L 63.957841 84.531646 
L 65.034444 84.181289 
L 66.111046 87.278674 
L 67.187649 86.736852 
L 68.264252 76.999122 
L 69.340854 74.29543 
L 70.417457 72.742589 
L 71.494059 72.233726 
L 72.570662 70.374253 
L 73.647264 72.172025 
L 74.723867 71.627277 
L 75.80047 71.650049 
L 76.877072 72.653335 
L 77.953675 68.59443 
L 79.030277 63.446553 
L 80.10688 58.002257 
L 81.183482 53.843805 
L 82.260085 50.561061 
L 83.336687 47.753892 
L 84.41329 45.140311 
L 85.489893 45.972985 
L 86.566495 48.240417 
L 87.643098 49.966715 
L 88.7197 50.972304 
L 89.796303 46.552456 
L 90.872905 43.883924 
L 91.949508 56.296016 
L 93.026111 50.378472 
L 94.102713 53.354167 
L 95.179316 53.42348 
L 96.255918 53.607978 
L 97.332521 58.63535 
L 98.409123 54.983885 
L 99.485726 56.912445 
L 100.562328 57.25536 
L 101.638931 59.067663 
L 102.715534 61.261929 
L 103.792136 61.753879 
L 104.868739 62.776412 
L 105.945341 59.284412 
L 107.021944 58.651026 
L 108.098546 62.78973 
L 109.175149 61.881677 
L 110.251752 63.498287 
L 111.328354 64.708057 
L 112.404957 63.924107 
L 113.481559 66.266976 
L 114.558162 66.320821 
L 115.634764 67.141297 
L 116.711367 67.865768 
L 117.787969 67.346021 
L 118.864572 65.211059 
L 119.941175 68.023769 
L 121.017777 67.985608 
L 122.09438 66.948248 
L 123.170982 69.453457 
L 124.247585 68.03382 
L 125.324187 69.299699 
L 126.40079 71.614538 
L 127.477393 73.947086 
L 128.553995 72.383712 
L 129.630598 73.791141 
" clip-path="url(#p07c5a67375)" style="fill: none; stroke: #808080; stroke-opacity: 0.3; stroke-width: 0.5; stroke-linecap: square"/>
   </g>
   <g id="line2d_11">
    <path d="M 44.578995 89.232986 
L 45.655598 85.340692 
L 46.7322 88.116175 
L 47.808803 87.453335 
L 48.885406 87.967 
L 49.962008 87.634845 
L 51.038611 89.253255 
L 52.115213 89.256237 
L 53.191816 87.285601 
L 54.268418 83.200296 
L 55.345021 86.178142 
L 56.421623 89.088006 
L 57.498226 88.658812 
L 58.574829 83.264678 
L 59.651431 88.66395 
L 60.728034 85.12354 
L 61.804636 88.754093 
L 62.881239 88.754093 
L 63.957841 89.406727 
L 65.034444 89.350353 
L 66.111046 87.44424 
L 67.187649 85.371156 
L 68.264252 83.82112 
L 69.340854 83.994072 
L 70.417457 82.978403 
L 71.494059 79.516949 
L 72.570662 80.058928 
L 73.647264 81.302085 
L 74.723867 83.273572 
L 75.80047 82.162491 
L 76.877072 80.892455 
L 77.953675 84.337111 
L 79.030277 82.400468 
L 80.10688 82.335165 
L 81.183482 78.147293 
L 82.260085 74.835163 
L 83.336687 75.994443 
L 84.41329 74.58249 
L 85.489893 72.463865 
L 86.566495 75.186887 
L 87.643098 74.469003 
L 88.7197 77.285113 
L 89.796303 75.058887 
L 90.872905 74.033068 
L 91.949508 76.230696 
L 93.026111 76.471652 
L 94.102713 76.655465 
L 95.179316 73.677102 
L 96.255918 75.223379 
L 97.332521 83.014952 
L 98.409123 75.51179 
L 99.485726 76.465976 
L 100.562328 78.050302 
L 101.638931 78.016044 
L 102.715534 75.704935 
L 103.792136 78.588011 
L 104.868739 75.66173 
L 105.945341 78.264238 
L 107.021944 77.394816 
L 108.098546 75.971983 
L 109.175149 75.675905 
L 110.251752 78.747973 
L 111.328354 77.124748 
L 112.404957 77.186674 
L 113.481559 78.339841 
L 114.558162 81.76207 
L 115.634764 79.084883 
L 116.711367 81.447216 
L 117.787969 82.005502 
L 118.864572 83.018153 
L 119.941175 84.292258 
L 121.017777 77.426197 
L 122.09438 78.574197 
L 123.170982 83.440632 
L 124.247585 81.11138 
L 125.324187 77.353511 
L 126.40079 75.958057 
L 127.477393 79.502225 
L 128.553995 76.738117 
L 129.630598 78.6236 
" clip-path="url(#p07c5a67375)" style="fill: none; stroke: #808080; stroke-opacity: 0.3; stroke-width: 0.5; stroke-linecap: square"/>
   </g>
   <g id="line2d_12">
    <path d="M 44.578995 91.092807 
L 45.655598 90.458936 
L 46.7322 87.843151 
L 47.808803 89.669393 
L 48.885406 89.501278 
L 49.962008 90.57769 
L 51.038611 91.685976 
L 52.115213 92.988238 
L 53.191816 86.157871 
L 54.268418 90.704389 
L 55.345021 92.512493 
L 56.421623 91.02496 
L 57.498226 89.617128 
L 58.574829 87.910877 
L 59.651431 90.006821 
L 60.728034 90.669661 
L 61.804636 92.043897 
L 62.881239 92.043897 
L 63.957841 88.889962 
L 65.034444 91.038735 
L 66.111046 88.216635 
L 67.187649 88.084821 
L 68.264252 88.417444 
L 69.340854 87.278738 
L 70.417457 87.89932 
L 71.494059 87.799649 
L 72.570662 88.079658 
L 73.647264 89.080136 
L 74.723867 87.299471 
L 75.80047 87.4282 
L 76.877072 87.695598 
L 77.953675 85.774417 
L 79.030277 89.774418 
L 80.10688 87.452134 
L 81.183482 87.682901 
L 82.260085 87.980568 
L 83.336687 86.594125 
L 84.41329 89.845307 
L 85.489893 87.573 
L 86.566495 90.346799 
L 87.643098 86.604148 
L 88.7197 84.048019 
L 89.796303 85.733712 
L 90.872905 89.465651 
L 91.949508 90.764604 
L 93.026111 84.830283 
L 94.102713 87.083969 
L 95.179316 90.151485 
L 96.255918 89.049182 
L 97.332521 85.965181 
L 98.409123 89.085535 
L 99.485726 90.757504 
L 100.562328 89.431616 
L 101.638931 87.325485 
L 102.715534 90.563157 
L 103.792136 88.132975 
L 104.868739 86.614978 
L 105.945341 91.144286 
L 107.021944 88.099632 
L 108.098546 88.578294 
L 109.175149 84.508174 
L 110.251752 89.118855 
L 111.328354 91.909396 
L 112.404957 90.718813 
L 113.481559 91.340178 
L 114.558162 87.428598 
L 115.634764 88.570222 
L 116.711367 88.447186 
L 117.787969 91.790313 
L 118.864572 89.041701 
L 119.941175 90.44956 
L 121.017777 92.850653 
L 122.09438 88.563356 
L 123.170982 85.901509 
L 124.247585 88.485113 
L 125.324187 86.188813 
L 126.40079 87.375963 
L 127.477393 86.863322 
L 128.553995 88.543669 
L 129.630598 91.722478 
" clip-path="url(#p07c5a67375)" style="fill: none; stroke: #808080; stroke-opacity: 0.3; stroke-width: 0.5; stroke-linecap: square"/>
   </g>
   <g id="line2d_13">
    <path d="M 44.578995 84.655129 
L 45.655598 83.533803 
L 46.7322 81.281755 
L 47.808803 83.396546 
L 48.885406 82.719548 
L 49.962008 83.62872 
L 51.038611 85.394818 
L 52.115213 85.100199 
L 53.191816 84.867571 
L 54.268418 82.778573 
L 55.345021 84.074402 
L 56.421623 84.606431 
L 57.498226 81.626321 
L 58.574829 83.252105 
L 59.651431 84.847093 
L 60.728034 84.692334 
L 61.804636 86.052569 
L 62.881239 86.052569 
L 63.957841 86.736381 
L 65.034444 90.020796 
L 66.111046 92.384729 
L 67.187649 91.981906 
L 68.264252 88.044491 
L 69.340854 91.14824 
L 70.417457 87.647153 
L 71.494059 89.586762 
L 72.570662 86.404456 
L 73.647264 89.895843 
L 74.723867 91.449405 
L 75.80047 87.061736 
L 76.877072 87.699231 
L 77.953675 87.305179 
L 79.030277 90.255836 
L 80.10688 90.063412 
L 81.183482 85.69124 
L 82.260085 89.35749 
L 83.336687 88.52573 
L 84.41329 88.143202 
L 85.489893 85.492814 
L 86.566495 91.556973 
L 87.643098 84.218222 
L 88.7197 88.091698 
L 89.796303 86.660366 
L 90.872905 91.206974 
L 91.949508 89.308939 
L 93.026111 86.44807 
L 94.102713 90.239122 
L 95.179316 90.497082 
L 96.255918 85.85257 
L 97.332521 87.618927 
L 98.409123 90.911483 
L 99.485726 89.940884 
L 100.562328 89.135711 
L 101.638931 93.184244 
L 102.715534 90.408687 
L 103.792136 87.420158 
L 104.868739 87.018325 
L 105.945341 92.306587 
L 107.021944 88.813619 
L 108.098546 89.296494 
L 109.175149 90.007568 
L 110.251752 90.092791 
L 111.328354 91.511541 
L 112.404957 88.156533 
L 113.481559 90.424774 
L 114.558162 91.398907 
L 115.634764 89.950636 
L 116.711367 90.330894 
L 117.787969 88.376982 
L 118.864572 91.708185 
L 119.941175 90.369715 
L 121.017777 89.525066 
L 122.09438 93.318852 
L 123.170982 91.295951 
L 124.247585 89.434456 
L 125.324187 86.745359 
L 126.40079 90.016435 
L 127.477393 92.502219 
L 128.553995 91.372994 
L 129.630598 90.873704 
" clip-path="url(#p07c5a67375)" style="fill: none; stroke: #808080; stroke-opacity: 0.3; stroke-width: 0.5; stroke-linecap: square"/>
   </g>
   <g id="line2d_14">
    <path d="M 44.578995 82.990125 
L 45.655598 83.026976 
L 46.7322 85.311328 
L 47.808803 82.683636 
L 48.885406 81.481848 
L 49.962008 84.280581 
L 51.038611 83.621901 
L 52.115213 81.571956 
L 53.191816 82.346875 
L 54.268418 82.63128 
L 55.345021 81.437157 
L 56.421623 85.267108 
L 57.498226 81.631049 
L 58.574829 80.966436 
L 59.651431 81.130669 
L 60.728034 79.475709 
L 61.804636 86.703687 
L 62.881239 86.703687 
L 63.957841 85.96613 
L 65.034444 88.086167 
L 66.111046 89.847038 
L 67.187649 89.531543 
L 68.264252 86.142567 
L 69.340854 81.497178 
L 70.417457 85.954329 
L 71.494059 85.200924 
L 72.570662 91.572574 
L 73.647264 85.428338 
L 74.723867 84.302918 
L 75.80047 85.487926 
L 76.877072 88.95206 
L 77.953675 86.789533 
L 79.030277 87.162656 
L 80.10688 88.853751 
L 81.183482 84.897748 
L 82.260085 87.191272 
L 83.336687 86.445373 
L 84.41329 86.446125 
L 85.489893 88.60773 
L 86.566495 88.283679 
L 87.643098 90.815779 
L 88.7197 90.725296 
L 89.796303 86.920924 
L 90.872905 88.926207 
L 91.949508 84.418169 
L 93.026111 88.035014 
L 94.102713 86.446645 
L 95.179316 87.822748 
L 96.255918 90.690481 
L 97.332521 91.258978 
L 98.409123 88.73347 
L 99.485726 87.352595 
L 100.562328 90.717061 
L 101.638931 89.155245 
L 102.715534 89.125902 
L 103.792136 87.550049 
L 104.868739 90.26538 
L 105.945341 88.790894 
L 107.021944 88.142846 
L 108.098546 88.972371 
L 109.175149 92.824895 
L 110.251752 90.139607 
L 111.328354 90.650247 
L 112.404957 86.372454 
L 113.481559 91.838039 
L 114.558162 89.928671 
L 115.634764 86.769369 
L 116.711367 90.562511 
L 117.787969 89.053731 
L 118.864572 92.747654 
L 119.941175 91.355189 
L 121.017777 91.005537 
L 122.09438 90.078244 
L 123.170982 88.807584 
L 124.247585 86.408588 
L 125.324187 89.934055 
L 126.40079 88.885618 
L 127.477393 89.831339 
L 128.553995 90.885541 
L 129.630598 90.989863 
" clip-path="url(#p07c5a67375)" style="fill: none; stroke: #808080; stroke-opacity: 0.3; stroke-width: 0.5; stroke-linecap: square"/>
   </g>
   <g id="line2d_15">
    <path d="M 44.578995 80.076831 
L 45.655598 85.526975 
L 46.7322 84.595421 
L 47.808803 83.880751 
L 48.885406 85.044341 
L 49.962008 85.38371 
L 51.038611 80.668985 
L 52.115213 84.412564 
L 53.191816 86.347214 
L 54.268418 82.787189 
L 55.345021 87.220048 
L 56.421623 83.711715 
L 57.498226 83.985426 
L 58.574829 85.873683 
L 59.651431 87.769118 
L 60.728034 88.167686 
L 61.804636 87.03437 
L 62.881239 87.03437 
L 63.957841 89.0763 
L 65.034444 86.90574 
L 66.111046 89.668047 
L 67.187649 87.255086 
L 68.264252 87.850699 
L 69.340854 85.667927 
L 70.417457 89.651725 
L 71.494059 85.487568 
L 72.570662 86.668506 
L 73.647264 84.735521 
L 74.723867 84.784341 
L 75.80047 85.089244 
L 76.877072 85.806152 
L 77.953675 83.560806 
L 79.030277 83.690273 
L 80.10688 83.522221 
L 81.183482 84.980463 
L 82.260085 86.065856 
L 83.336687 88.780396 
L 84.41329 87.042456 
L 85.489893 83.259271 
L 86.566495 90.122888 
L 87.643098 87.442714 
L 88.7197 86.794671 
L 89.796303 85.749439 
L 90.872905 90.608386 
L 91.949508 87.08583 
L 93.026111 88.106602 
L 94.102713 87.593204 
L 95.179316 85.991483 
L 96.255918 89.737698 
L 97.332521 85.77303 
L 98.409123 87.542385 
L 99.485726 91.756662 
L 100.562328 85.034253 
L 101.638931 86.811815 
L 102.715534 85.335075 
L 103.792136 86.9289 
L 104.868739 90.446746 
L 105.945341 89.008248 
L 107.021944 90.216044 
L 108.098546 87.408761 
L 109.175149 88.260919 
L 110.251752 91.191337 
L 111.328354 89.089077 
L 112.404957 91.319503 
L 113.481559 89.068667 
L 114.558162 91.969011 
L 115.634764 91.562297 
L 116.711367 89.082208 
L 117.787969 90.499913 
L 118.864572 90.049438 
L 119.941175 90.291664 
L 121.017777 87.861502 
L 122.09438 91.358265 
L 123.170982 89.479218 
L 124.247585 91.037449 
L 125.324187 90.244216 
L 126.40079 91.794899 
L 127.477393 87.777575 
L 128.553995 90.338925 
L 129.630598 91.285941 
" clip-path="url(#p07c5a67375)" style="fill: none; stroke: #808080; stroke-opacity: 0.3; stroke-width: 0.5; stroke-linecap: square"/>
   </g>
   <g id="line2d_16">
    <path d="M 44.578995 85.485702 
L 45.655598 85.641342 
L 46.7322 85.981303 
L 47.808803 86.022572 
L 48.885406 84.154795 
L 49.962008 83.88373 
L 51.038611 84.818255 
L 52.115213 84.939591 
L 53.191816 84.660633 
L 54.268418 86.190497 
L 55.345021 85.884936 
L 56.421623 83.099418 
L 57.498226 84.933334 
L 58.574829 89.852241 
L 59.651431 87.436017 
L 60.728034 85.585117 
L 61.804636 84.61861 
L 62.881239 84.61861 
L 63.957841 88.950592 
L 65.034444 87.779172 
L 66.111046 89.263866 
L 67.187649 89.021094 
L 68.264252 86.295765 
L 69.340854 88.06247 
L 70.417457 88.103847 
L 71.494059 88.269399 
L 72.570662 86.907927 
L 73.647264 88.277408 
L 74.723867 88.329895 
L 75.80047 85.836507 
L 76.877072 87.482878 
L 77.953675 86.677832 
L 79.030277 85.292654 
L 80.10688 86.505909 
L 81.183482 87.33616 
L 82.260085 85.003202 
L 83.336687 86.99542 
L 84.41329 84.264418 
L 85.489893 85.053639 
L 86.566495 83.968446 
L 87.643098 85.687394 
L 88.7197 85.184077 
L 89.796303 85.696897 
L 90.872905 87.941795 
L 91.949508 86.597128 
L 93.026111 84.775035 
L 94.102713 87.959632 
L 95.179316 86.517501 
L 96.255918 85.368692 
L 97.332521 87.223622 
L 98.409123 87.88061 
L 99.485726 87.293507 
L 100.562328 89.976528 
L 101.638931 87.163367 
L 102.715534 90.039911 
L 103.792136 88.297149 
L 104.868739 85.829831 
L 105.945341 86.82317 
L 107.021944 85.942113 
L 108.098546 86.824226 
L 109.175149 85.964379 
L 110.251752 86.258585 
L 111.328354 89.20411 
L 112.404957 87.296157 
L 113.481559 85.255792 
L 114.558162 87.206654 
L 115.634764 85.043284 
L 116.711367 83.201557 
L 117.787969 84.937506 
L 118.864572 85.527366 
L 119.941175 85.40545 
L 121.017777 85.441468 
L 122.09438 84.1255 
L 123.170982 83.994422 
L 124.247585 87.196571 
L 125.324187 83.397525 
L 126.40079 84.422155 
L 127.477393 85.252807 
L 128.553995 85.291697 
L 129.630598 87.131289 
" clip-path="url(#p07c5a67375)" style="fill: none; stroke: #808080; stroke-opacity: 0.3; stroke-width: 0.5; stroke-linecap: square"/>
   </g>
   <g id="line2d_17">
    <path d="M 44.578995 89.596973 
L 45.655598 85.172972 
L 46.7322 86.452413 
L 47.808803 86.606305 
L 48.885406 86.188871 
L 49.962008 87.337932 
L 51.038611 86.167372 
L 52.115213 86.464148 
L 53.191816 83.901147 
L 54.268418 87.003248 
L 55.345021 88.144717 
L 56.421623 89.951569 
L 57.498226 85.544286 
L 58.574829 85.562454 
L 59.651431 87.738293 
L 60.728034 87.648242 
L 61.804636 85.486286 
L 62.881239 85.486286 
L 63.957841 91.544992 
L 65.034444 88.710168 
L 66.111046 89.511484 
L 67.187649 84.649725 
L 68.264252 83.050921 
L 69.340854 85.00811 
L 70.417457 83.993596 
L 71.494059 85.197662 
L 72.570662 86.229495 
L 73.647264 88.07238 
L 74.723867 83.09099 
L 75.80047 86.473108 
L 76.877072 83.293109 
L 77.953675 85.419745 
L 79.030277 88.604923 
L 80.10688 87.246339 
L 81.183482 86.212614 
L 82.260085 85.122344 
L 83.336687 85.461547 
L 84.41329 85.099363 
L 85.489893 83.498239 
L 86.566495 85.719035 
L 87.643098 89.162721 
L 88.7197 82.592444 
L 89.796303 85.683466 
L 90.872905 83.166554 
L 91.949508 87.05528 
L 93.026111 82.808728 
L 94.102713 87.649901 
L 95.179316 83.814383 
L 96.255918 86.091873 
L 97.332521 82.423091 
L 98.409123 85.840707 
L 99.485726 87.835907 
L 100.562328 84.36618 
L 101.638931 87.196171 
L 102.715534 87.830415 
L 103.792136 88.050116 
L 104.868739 85.814347 
L 105.945341 86.032518 
L 107.021944 85.028321 
L 108.098546 87.44819 
L 109.175149 86.338804 
L 110.251752 87.54443 
L 111.328354 87.770031 
L 112.404957 89.662925 
L 113.481559 88.363249 
L 114.558162 87.75017 
L 115.634764 85.421912 
L 116.711367 86.52964 
L 117.787969 88.267393 
L 118.864572 89.957578 
L 119.941175 85.920449 
L 121.017777 88.780067 
L 122.09438 85.085542 
L 123.170982 87.905384 
L 124.247585 88.397674 
L 125.324187 86.225988 
L 126.40079 88.055709 
L 127.477393 86.057539 
L 128.553995 84.874583 
L 129.630598 83.387713 
" clip-path="url(#p07c5a67375)" style="fill: none; stroke: #808080; stroke-opacity: 0.3; stroke-width: 0.5; stroke-linecap: square"/>
   </g>
   <g id="line2d_18">
    <path d="M 44.578995 88.060766 
L 45.655598 90.106863 
L 46.7322 91.878029 
L 47.808803 90.004744 
L 48.885406 90.785607 
L 49.962008 88.497594 
L 51.038611 87.536418 
L 52.115213 88.045702 
L 53.191816 86.416599 
L 54.268418 90.379888 
L 55.345021 85.45428 
L 56.421623 90.675807 
L 57.498226 83.53282 
L 58.574829 86.032735 
L 59.651431 89.763632 
L 60.728034 86.732518 
L 61.804636 85.063586 
L 62.881239 85.063586 
L 63.957841 87.489942 
L 65.034444 89.407055 
L 66.111046 88.34888 
L 67.187649 89.156789 
L 68.264252 87.862936 
L 69.340854 89.456258 
L 70.417457 84.41523 
L 71.494059 89.122224 
L 72.570662 86.605109 
L 73.647264 90.569359 
L 74.723867 89.429696 
L 75.80047 86.872961 
L 76.877072 89.132775 
L 77.953675 87.297961 
L 79.030277 85.867993 
L 80.10688 86.818295 
L 81.183482 90.506727 
L 82.260085 87.787374 
L 83.336687 84.742179 
L 84.41329 90.621012 
L 85.489893 88.952438 
L 86.566495 89.469665 
L 87.643098 90.170074 
L 88.7197 89.586013 
L 89.796303 90.61117 
L 90.872905 86.721514 
L 91.949508 88.761121 
L 93.026111 89.02991 
L 94.102713 91.982887 
L 95.179316 89.002446 
L 96.255918 92.083787 
L 97.332521 90.900232 
L 98.409123 92.452088 
L 99.485726 90.673432 
L 100.562328 90.42093 
L 101.638931 92.967194 
L 102.715534 91.810369 
L 103.792136 89.8374 
L 104.868739 92.527576 
L 105.945341 90.76077 
L 107.021944 95.620663 
L 108.098546 94.424669 
L 109.175149 92.837661 
L 110.251752 96.970618 
L 111.328354 93.800761 
L 112.404957 92.687691 
L 113.481559 91.984306 
L 114.558162 92.755365 
L 115.634764 91.367692 
L 116.711367 94.509655 
L 117.787969 96.994827 
L 118.864572 94.848351 
L 119.941175 95.072073 
L 121.017777 94.903829 
L 122.09438 96.704263 
L 123.170982 92.322261 
L 124.247585 91.66712 
L 125.324187 95.693373 
L 126.40079 92.38563 
L 127.477393 95.977164 
L 128.553995 96.303396 
L 129.630598 94.984488 
" clip-path="url(#p07c5a67375)" style="fill: none; stroke: #808080; stroke-opacity: 0.3; stroke-width: 0.5; stroke-linecap: square"/>
   </g>
   <g id="line2d_19">
    <path d="M 44.578995 86.409164 
L 45.655598 88.188411 
L 46.7322 89.502359 
L 47.808803 92.13184 
L 48.885406 87.5587 
L 49.962008 87.369057 
L 51.038611 86.106126 
L 52.115213 83.775629 
L 53.191816 90.574725 
L 54.268418 93.940209 
L 55.345021 88.835867 
L 56.421623 89.120663 
L 57.498226 86.431289 
L 58.574829 88.432837 
L 59.651431 91.374676 
L 60.728034 89.076954 
L 61.804636 88.160117 
L 62.881239 88.160117 
L 63.957841 87.973977 
L 65.034444 88.163877 
L 66.111046 88.400774 
L 67.187649 88.522331 
L 68.264252 81.137939 
L 69.340854 82.185727 
L 70.417457 85.625685 
L 71.494059 85.17568 
L 72.570662 84.946395 
L 73.647264 84.491955 
L 74.723867 83.023769 
L 75.80047 86.295897 
L 76.877072 84.005225 
L 77.953675 83.252302 
L 79.030277 83.564497 
L 80.10688 79.861377 
L 81.183482 82.399251 
L 82.260085 83.870491 
L 83.336687 81.191014 
L 84.41329 82.887132 
L 85.489893 80.752127 
L 86.566495 81.03709 
L 87.643098 80.18761 
L 88.7197 83.941273 
L 89.796303 83.652778 
L 90.872905 84.5842 
L 91.949508 82.966013 
L 93.026111 83.50787 
L 94.102713 82.671118 
L 95.179316 80.798066 
L 96.255918 81.803828 
L 97.332521 78.860342 
L 98.409123 86.54797 
L 99.485726 82.69048 
L 100.562328 86.762746 
L 101.638931 83.083982 
L 102.715534 83.245172 
L 103.792136 86.765842 
L 104.868739 80.784425 
L 105.945341 83.235944 
L 107.021944 84.741559 
L 108.098546 84.340456 
L 109.175149 83.101812 
L 110.251752 83.81329 
L 111.328354 87.131926 
L 112.404957 83.889555 
L 113.481559 82.468727 
L 114.558162 88.158386 
L 115.634764 88.550302 
L 116.711367 84.149725 
L 117.787969 87.746347 
L 118.864572 86.500567 
L 119.941175 81.967204 
L 121.017777 85.641287 
L 122.09438 82.970925 
L 123.170982 87.398935 
L 124.247585 85.918219 
L 125.324187 87.668215 
L 126.40079 87.014947 
L 127.477393 87.573566 
L 128.553995 85.345204 
L 129.630598 83.117115 
" clip-path="url(#p07c5a67375)" style="fill: none; stroke: #808080; stroke-opacity: 0.3; stroke-width: 0.5; stroke-linecap: square"/>
   </g>
   <g id="line2d_20">
    <path d="M 44.578995 85.593766 
L 45.655598 84.278065 
L 46.7322 84.975525 
L 47.808803 82.649866 
L 48.885406 88.486008 
L 49.962008 86.63701 
L 51.038611 83.239618 
L 52.115213 84.958868 
L 53.191816 84.926355 
L 54.268418 86.171066 
L 55.345021 83.067017 
L 56.421623 85.381051 
L 57.498226 85.156049 
L 58.574829 86.385548 
L 59.651431 84.250961 
L 60.728034 89.599323 
L 61.804636 85.685567 
L 62.881239 85.685567 
L 63.957841 84.976137 
L 65.034444 88.201485 
L 66.111046 88.90905 
L 67.187649 86.219873 
L 68.264252 87.495313 
L 69.340854 83.768246 
L 70.417457 85.745408 
L 71.494059 89.453775 
L 72.570662 86.436533 
L 73.647264 84.75617 
L 74.723867 87.376101 
L 75.80047 84.812672 
L 76.877072 84.764197 
L 77.953675 86.935153 
L 79.030277 85.312549 
L 80.10688 85.714934 
L 81.183482 83.991698 
L 82.260085 86.947522 
L 83.336687 84.742002 
L 84.41329 86.3506 
L 85.489893 88.640337 
L 86.566495 84.79507 
L 87.643098 84.10903 
L 88.7197 83.978155 
L 89.796303 85.520006 
L 90.872905 89.701671 
L 91.949508 86.648581 
L 93.026111 86.313106 
L 94.102713 83.499818 
L 95.179316 84.685411 
L 96.255918 85.152688 
L 97.332521 84.846204 
L 98.409123 87.117347 
L 99.485726 85.641613 
L 100.562328 85.623261 
L 101.638931 88.411771 
L 102.715534 84.354651 
L 103.792136 85.728354 
L 104.868739 86.44491 
L 105.945341 85.713212 
L 107.021944 87.377719 
L 108.098546 86.480475 
L 109.175149 84.177077 
L 110.251752 83.840383 
L 111.328354 85.318557 
L 112.404957 83.981297 
L 113.481559 88.396412 
L 114.558162 86.458392 
L 115.634764 88.715087 
L 116.711367 85.928499 
L 117.787969 86.43357 
L 118.864572 86.670521 
L 119.941175 85.901931 
L 121.017777 87.045216 
L 122.09438 90.008148 
L 123.170982 85.805802 
L 124.247585 88.629309 
L 125.324187 84.943372 
L 126.40079 87.435413 
L 127.477393 86.760258 
L 128.553995 88.990757 
L 129.630598 85.808811 
" clip-path="url(#p07c5a67375)" style="fill: none; stroke: #808080; stroke-opacity: 0.3; stroke-width: 0.5; stroke-linecap: square"/>
   </g>
   <g id="line2d_21">
    <path d="M 44.578995 91.243907 
L 45.655598 88.965386 
L 46.7322 88.828388 
L 47.808803 91.714522 
L 48.885406 86.811643 
L 49.962008 91.319806 
L 51.038611 86.082941 
L 52.115213 89.975643 
L 53.191816 88.85345 
L 54.268418 84.392623 
L 55.345021 89.897483 
L 56.421623 88.532089 
L 57.498226 91.168378 
L 58.574829 89.677948 
L 59.651431 88.054092 
L 60.728034 88.773795 
L 61.804636 88.351527 
L 62.881239 88.351527 
L 63.957841 90.936942 
L 65.034444 88.925709 
L 66.111046 90.666429 
L 67.187649 89.800054 
L 68.264252 85.847332 
L 69.340854 87.602703 
L 70.417457 88.743319 
L 71.494059 89.325044 
L 72.570662 88.81793 
L 73.647264 91.342749 
L 74.723867 89.508571 
L 75.80047 87.917519 
L 76.877072 88.317533 
L 77.953675 91.773478 
L 79.030277 87.399097 
L 80.10688 86.458574 
L 81.183482 88.686783 
L 82.260085 85.992903 
L 83.336687 84.231416 
L 84.41329 88.262722 
L 85.489893 85.379126 
L 86.566495 82.997186 
L 87.643098 88.02091 
L 88.7197 89.082083 
L 89.796303 90.443606 
L 90.872905 84.999273 
L 91.949508 87.917285 
L 93.026111 90.901402 
L 94.102713 87.267318 
L 95.179316 87.22069 
L 96.255918 91.513204 
L 97.332521 89.842387 
L 98.409123 87.153165 
L 99.485726 87.761139 
L 100.562328 88.474032 
L 101.638931 88.319822 
L 102.715534 87.585746 
L 103.792136 88.268809 
L 104.868739 86.606066 
L 105.945341 88.991542 
L 107.021944 84.623452 
L 108.098546 89.487806 
L 109.175149 86.100435 
L 110.251752 89.670861 
L 111.328354 89.422199 
L 112.404957 88.873893 
L 113.481559 88.856399 
L 114.558162 88.977447 
L 115.634764 89.722225 
L 116.711367 90.274856 
L 117.787969 88.908343 
L 118.864572 88.417099 
L 119.941175 87.853567 
L 121.017777 87.015257 
L 122.09438 89.006061 
L 123.170982 89.72895 
L 124.247585 91.722499 
L 125.324187 87.748854 
L 126.40079 86.571897 
L 127.477393 86.648548 
L 128.553995 90.20644 
L 129.630598 87.648483 
" clip-path="url(#p07c5a67375)" style="fill: none; stroke: #808080; stroke-opacity: 0.3; stroke-width: 0.5; stroke-linecap: square"/>
   </g>
   <g id="line2d_22">
    <path d="M 44.578995 87.809585 
L 45.655598 88.929594 
L 46.7322 87.65971 
L 47.808803 90.049712 
L 48.885406 90.245719 
L 49.962008 87.24131 
L 51.038611 90.642501 
L 52.115213 89.509093 
L 53.191816 87.798725 
L 54.268418 89.401204 
L 55.345021 91.051334 
L 56.421623 89.593957 
L 57.498226 87.364275 
L 58.574829 91.833756 
L 59.651431 89.155424 
L 60.728034 92.022648 
L 61.804636 88.414196 
L 62.881239 88.414196 
L 63.957841 86.985078 
L 65.034444 87.314913 
L 66.111046 85.781804 
L 67.187649 87.062274 
L 68.264252 88.023486 
L 69.340854 87.906627 
L 70.417457 88.236886 
L 71.494059 86.627959 
L 72.570662 85.181494 
L 73.647264 87.72185 
L 74.723867 83.212085 
L 75.80047 89.14199 
L 76.877072 85.878595 
L 77.953675 86.005754 
L 79.030277 83.752743 
L 80.10688 83.429571 
L 81.183482 85.728157 
L 82.260085 87.320388 
L 83.336687 86.705831 
L 84.41329 83.703646 
L 85.489893 87.853638 
L 86.566495 86.05826 
L 87.643098 86.919984 
L 88.7197 83.528734 
L 89.796303 87.97558 
L 90.872905 82.92878 
L 91.949508 89.859336 
L 93.026111 86.638972 
L 94.102713 87.634704 
L 95.179316 86.465584 
L 96.255918 87.764925 
L 97.332521 93.001109 
L 98.409123 88.270935 
L 99.485726 86.018578 
L 100.562328 85.967658 
L 101.638931 88.652283 
L 102.715534 86.650889 
L 103.792136 85.939137 
L 104.868739 85.737963 
L 105.945341 84.78664 
L 107.021944 88.399738 
L 108.098546 87.662743 
L 109.175149 89.640396 
L 110.251752 87.949349 
L 111.328354 85.565353 
L 112.404957 89.210524 
L 113.481559 85.581277 
L 114.558162 87.421752 
L 115.634764 87.301565 
L 116.711367 90.145091 
L 117.787969 84.690331 
L 118.864572 90.037966 
L 119.941175 87.550124 
L 121.017777 86.082062 
L 122.09438 90.037803 
L 123.170982 86.000008 
L 124.247585 89.482055 
L 125.324187 88.305475 
L 126.40079 87.068184 
L 127.477393 85.319079 
L 128.553995 86.873866 
L 129.630598 87.541943 
" clip-path="url(#p07c5a67375)" style="fill: none; stroke: #808080; stroke-opacity: 0.3; stroke-width: 0.5; stroke-linecap: square"/>
   </g>
   <g id="line2d_23">
    <path d="M 44.578995 87.070467 
L 45.655598 85.702487 
L 46.7322 88.443886 
L 47.808803 87.751931 
L 48.885406 85.965622 
L 49.962008 88.951074 
L 51.038611 86.598855 
L 52.115213 88.34729 
L 53.191816 86.3986 
L 54.268418 82.74593 
L 55.345021 83.141998 
L 56.421623 84.971163 
L 57.498226 83.052255 
L 58.574829 85.844834 
L 59.651431 82.253549 
L 60.728034 84.154157 
L 61.804636 87.18478 
L 62.881239 87.18478 
L 63.957841 89.983806 
L 65.034444 87.232063 
L 66.111046 90.78282 
L 67.187649 88.427467 
L 68.264252 85.431551 
L 69.340854 88.711137 
L 70.417457 87.918542 
L 71.494059 89.410546 
L 72.570662 89.370012 
L 73.647264 86.686021 
L 74.723867 86.140281 
L 75.80047 89.288847 
L 76.877072 88.317404 
L 77.953675 85.766373 
L 79.030277 85.594634 
L 80.10688 88.046523 
L 81.183482 86.300115 
L 82.260085 87.15069 
L 83.336687 86.790408 
L 84.41329 89.888253 
L 85.489893 88.246191 
L 86.566495 87.714607 
L 87.643098 89.226987 
L 88.7197 88.907492 
L 89.796303 87.05823 
L 90.872905 88.475724 
L 91.949508 86.523751 
L 93.026111 88.144778 
L 94.102713 87.96323 
L 95.179316 88.432602 
L 96.255918 86.8807 
L 97.332521 87.009042 
L 98.409123 87.857372 
L 99.485726 88.095065 
L 100.562328 90.449539 
L 101.638931 84.215688 
L 102.715534 88.720199 
L 103.792136 88.549809 
L 104.868739 89.612821 
L 105.945341 86.663163 
L 107.021944 87.874664 
L 108.098546 90.721011 
L 109.175149 88.023283 
L 110.251752 91.532446 
L 111.328354 91.808537 
L 112.404957 88.9249 
L 113.481559 89.140289 
L 114.558162 87.748651 
L 115.634764 90.194087 
L 116.711367 88.413 
L 117.787969 85.949608 
L 118.864572 85.000212 
L 119.941175 86.549043 
L 121.017777 84.510885 
L 122.09438 84.516617 
L 123.170982 83.104695 
L 124.247585 81.631179 
L 125.324187 83.32788 
L 126.40079 81.99432 
L 127.477393 82.256024 
L 128.553995 84.844032 
L 129.630598 84.230713 
" clip-path="url(#p07c5a67375)" style="fill: none; stroke: #808080; stroke-opacity: 0.3; stroke-width: 0.5; stroke-linecap: square"/>
   </g>
   <g id="line2d_24">
    <path d="M 44.578995 88.384414 
L 45.655598 90.87336 
L 46.7322 91.862693 
L 47.808803 89.184755 
L 48.885406 91.704321 
L 49.962008 89.477913 
L 51.038611 88.989082 
L 52.115213 90.703103 
L 53.191816 94.220279 
L 54.268418 91.140641 
L 55.345021 90.974295 
L 56.421623 89.75466 
L 57.498226 91.073789 
L 58.574829 89.087086 
L 59.651431 88.904149 
L 60.728034 90.720545 
L 61.804636 88.999328 
L 62.881239 88.999328 
L 63.957841 89.291856 
L 65.034444 88.483416 
L 66.111046 90.161181 
L 67.187649 87.921357 
L 68.264252 85.768153 
L 69.340854 85.643808 
L 70.417457 83.938276 
L 71.494059 82.903508 
L 72.570662 84.442746 
L 73.647264 82.648332 
L 74.723867 81.553277 
L 75.80047 81.009566 
L 76.877072 81.773428 
L 77.953675 85.193403 
L 79.030277 82.627645 
L 80.10688 81.168318 
L 81.183482 78.340395 
L 82.260085 80.347733 
L 83.336687 83.340122 
L 84.41329 83.337985 
L 85.489893 77.911184 
L 86.566495 76.038177 
L 87.643098 79.581142 
L 88.7197 76.311114 
L 89.796303 78.917948 
L 90.872905 80.072876 
L 91.949508 80.087643 
L 93.026111 79.198692 
L 94.102713 81.822307 
L 95.179316 80.131238 
L 96.255918 80.555976 
L 97.332521 80.854853 
L 98.409123 79.266037 
L 99.485726 78.579956 
L 100.562328 79.19959 
L 101.638931 75.58042 
L 102.715534 77.457593 
L 103.792136 77.195721 
L 104.868739 76.572035 
L 105.945341 80.889069 
L 107.021944 80.848257 
L 108.098546 79.608284 
L 109.175149 79.725411 
L 110.251752 78.602434 
L 111.328354 81.968525 
L 112.404957 78.44866 
L 113.481559 81.182762 
L 114.558162 80.728703 
L 115.634764 81.829349 
L 116.711367 80.885819 
L 117.787969 83.61795 
L 118.864572 84.960648 
L 119.941175 85.725463 
L 121.017777 82.695544 
L 122.09438 82.933509 
L 123.170982 83.916236 
L 124.247585 84.109929 
L 125.324187 81.663708 
L 126.40079 83.472694 
L 127.477393 83.535736 
L 128.553995 81.797233 
L 129.630598 84.922158 
" clip-path="url(#p07c5a67375)" style="fill: none; stroke: #808080; stroke-opacity: 0.3; stroke-width: 0.5; stroke-linecap: square"/>
   </g>
   <g id="line2d_25">
    <path d="M 44.578995 87.655317 
L 45.655598 85.987921 
L 46.7322 85.218257 
L 47.808803 87.195871 
L 48.885406 85.435555 
L 49.962008 85.164848 
L 51.038611 85.328997 
L 52.115213 84.706477 
L 53.191816 89.249603 
L 54.268418 85.541769 
L 55.345021 86.390647 
L 56.421623 85.916009 
L 57.498226 87.190964 
L 58.574829 83.574034 
L 59.651431 88.165338 
L 60.728034 85.803637 
L 61.804636 86.793671 
L 62.881239 86.793671 
L 63.957841 89.662266 
L 65.034444 89.386297 
L 66.111046 90.066345 
L 67.187649 86.617252 
L 68.264252 86.122177 
L 69.340854 84.403217 
L 70.417457 87.289255 
L 71.494059 85.501107 
L 72.570662 89.293342 
L 73.647264 84.696355 
L 74.723867 85.719203 
L 75.80047 86.397753 
L 76.877072 88.327702 
L 77.953675 90.300625 
L 79.030277 85.178941 
L 80.10688 87.65564 
L 81.183482 86.280201 
L 82.260085 86.679047 
L 83.336687 85.193808 
L 84.41329 88.12269 
L 85.489893 85.289903 
L 86.566495 86.085568 
L 87.643098 84.15852 
L 88.7197 86.073395 
L 89.796303 86.26289 
L 90.872905 87.256896 
L 91.949508 88.5555 
L 93.026111 85.519182 
L 94.102713 86.533222 
L 95.179316 88.524943 
L 96.255918 89.190531 
L 97.332521 88.685874 
L 98.409123 89.159415 
L 99.485726 87.111093 
L 100.562328 86.611224 
L 101.638931 84.821107 
L 102.715534 89.270371 
L 103.792136 86.93186 
L 104.868739 87.202903 
L 105.945341 83.230628 
L 107.021944 87.159759 
L 108.098546 87.820992 
L 109.175149 85.456859 
L 110.251752 86.646583 
L 111.328354 87.333151 
L 112.404957 88.035993 
L 113.481559 86.34866 
L 114.558162 88.743338 
L 115.634764 85.696004 
L 116.711367 89.703879 
L 117.787969 89.287723 
L 118.864572 86.472724 
L 119.941175 89.651527 
L 121.017777 87.048698 
L 122.09438 85.75657 
L 123.170982 88.184976 
L 124.247585 91.092266 
L 125.324187 86.717821 
L 126.40079 87.69414 
L 127.477393 91.60756 
L 128.553995 88.713735 
L 129.630598 87.809791 
" clip-path="url(#p07c5a67375)" style="fill: none; stroke: #808080; stroke-opacity: 0.3; stroke-width: 0.5; stroke-linecap: square"/>
   </g>
   <g id="line2d_26">
    <path d="M 44.578995 87.211335 
L 45.655598 88.318241 
L 46.7322 89.350479 
L 47.808803 87.605015 
L 48.885406 88.237503 
L 49.962008 89.317241 
L 51.038611 93.361577 
L 52.115213 88.541714 
L 53.191816 90.120456 
L 54.268418 86.821316 
L 55.345021 90.40597 
L 56.421623 87.944753 
L 57.498226 90.356682 
L 58.574829 88.292665 
L 59.651431 87.712267 
L 60.728034 89.746477 
L 61.804636 87.927511 
L 62.881239 87.927511 
L 63.957841 86.200135 
L 65.034444 88.342519 
L 66.111046 90.666109 
L 67.187649 89.993693 
L 68.264252 88.426472 
L 69.340854 87.509464 
L 70.417457 89.360501 
L 71.494059 86.167184 
L 72.570662 89.497913 
L 73.647264 87.897644 
L 74.723867 87.951324 
L 75.80047 86.912709 
L 76.877072 85.774314 
L 77.953675 89.527208 
L 79.030277 88.850896 
L 80.10688 87.946516 
L 81.183482 88.931803 
L 82.260085 86.657811 
L 83.336687 86.44034 
L 84.41329 90.759828 
L 85.489893 86.991792 
L 86.566495 85.686106 
L 87.643098 85.247566 
L 88.7197 89.658761 
L 89.796303 88.1892 
L 90.872905 88.691958 
L 91.949508 87.245607 
L 93.026111 89.302747 
L 94.102713 87.596103 
L 95.179316 89.318269 
L 96.255918 90.676202 
L 97.332521 88.833317 
L 98.409123 87.667337 
L 99.485726 88.689723 
L 100.562328 85.961667 
L 101.638931 86.871355 
L 102.715534 91.667768 
L 103.792136 89.20443 
L 104.868739 89.401202 
L 105.945341 87.582131 
L 107.021944 87.240638 
L 108.098546 88.305767 
L 109.175149 88.966115 
L 110.251752 91.291907 
L 111.328354 90.821965 
L 112.404957 89.9753 
L 113.481559 88.836588 
L 114.558162 87.430387 
L 115.634764 88.693918 
L 116.711367 90.411532 
L 117.787969 88.667273 
L 118.864572 87.720739 
L 119.941175 88.891719 
L 121.017777 89.01882 
L 122.09438 87.814394 
L 123.170982 85.462439 
L 124.247585 89.290546 
L 125.324187 87.39045 
L 126.40079 85.482191 
L 127.477393 86.529659 
L 128.553995 87.271411 
L 129.630598 88.301671 
" clip-path="url(#p07c5a67375)" style="fill: none; stroke: #808080; stroke-opacity: 0.3; stroke-width: 0.5; stroke-linecap: square"/>
   </g>
   <g id="line2d_27">
    <path d="M 44.578995 87.431132 
L 45.655598 87.591181 
L 46.7322 87.91713 
L 47.808803 87.81766 
L 48.885406 87.374006 
L 49.962008 87.64992 
L 51.038611 87.177599 
L 52.115213 87.046981 
L 53.191816 87.638082 
L 54.268418 87.723107 
L 55.345021 87.504022 
L 56.421623 88.034192 
L 57.498226 86.817844 
L 58.574829 87.067285 
L 59.651431 87.872957 
L 60.728034 87.73304 
L 61.804636 87.771829 
L 62.881239 87.771829 
L 63.957841 88.350803 
L 65.034444 88.346613 
L 66.111046 88.889093 
L 67.187649 87.550205 
L 68.264252 83.855482 
L 69.340854 82.256942 
L 70.417457 81.942553 
L 71.494059 81.050481 
L 72.570662 81.199111 
L 73.647264 80.956064 
L 74.723867 80.643672 
L 75.80047 81.127695 
L 76.877072 80.913033 
L 77.953675 80.946349 
L 79.030277 79.55713 
L 80.10688 77.583949 
L 81.183482 75.4421 
L 82.260085 74.30403 
L 83.336687 73.384379 
L 84.41329 73.224681 
L 85.489893 72.113837 
L 86.566495 72.709134 
L 87.643098 73.151557 
L 88.7197 73.50593 
L 89.796303 73.772499 
L 90.872905 73.934828 
L 91.949508 74.427332 
L 93.026111 74.270215 
L 94.102713 74.647647 
L 95.179316 74.354056 
L 96.255918 75.940748 
L 97.332521 75.792956 
L 98.409123 76.353775 
L 99.485726 75.958903 
L 100.562328 76.36007 
L 101.638931 76.644194 
L 102.715534 76.73704 
L 103.792136 76.920338 
L 104.868739 77.12089 
L 105.945341 77.479642 
L 107.021944 77.436423 
L 108.098546 78.054904 
L 109.175149 77.935602 
L 110.251752 79.125395 
L 111.328354 79.454426 
L 112.404957 78.874789 
L 113.481559 79.314273 
L 114.558162 79.735711 
L 115.634764 79.273021 
L 116.711367 79.932965 
L 117.787969 80.553524 
L 118.864572 80.408614 
L 119.941175 80.702248 
L 121.017777 80.905131 
L 122.09438 80.813682 
L 123.170982 80.783562 
L 124.247585 81.323504 
L 125.324187 80.305841 
L 126.40079 80.655943 
L 127.477393 81.297771 
L 128.553995 81.049957 
L 129.630598 81.273306 
" clip-path="url(#p07c5a67375)" style="fill: none; stroke: #00ff00; stroke-opacity: 0.9; stroke-linecap: square"/>
   </g>
   <g id="line2d_28">
    <path d="M 60.728034 88.282596 
L 63.947075 88.282596 
L 63.947075 88.282596 
" clip-path="url(#p07c5a67375)" style="fill: none; stroke: #ff0000; stroke-opacity: 0.5; stroke-width: 1.5; stroke-linecap: square"/>
   </g>
   <g id="line2d_29">
    <path d="M 72.032361 88.282596 
L 75.251402 88.282596 
L 75.251402 88.282596 
" clip-path="url(#p07c5a67375)" style="fill: none; stroke: #ff0000; stroke-opacity: 0.5; stroke-width: 1.5; stroke-linecap: square"/>
   </g>
   <g id="line2d_30">
    <path d="M 43.502393 88.282596 
L 43.502393 71.912155 
" clip-path="url(#p07c5a67375)" style="fill: none; stroke: #000000; stroke-linecap: square"/>
   </g>
   <g id="line2d_31">
    <path d="M 44.578995 93.73941 
L 60.728034 93.73941 
" clip-path="url(#p07c5a67375)" style="fill: none; stroke: #000000; stroke-linecap: square"/>
   </g>
   <g id="text_1">
    <text style="font: 8px 'DejaVu Sans', 'Bitstream Vera Sans', 'Computer Modern Sans Serif', 'Lucida Grande', 'Verdana', 'Geneva', 'Lucid', 'Arial', 'Helvetica', 'Avant Garde', sans-serif; text-anchor: end" x="42.42579" y="83.669079" transform="rotate(-0 42.42579 83.669079)">0.3 dF/F</text>
   </g>
   <g id="text_2">
    <text style="font: 8px 'DejaVu Sans', 'Bitstream Vera Sans', 'Computer Modern Sans Serif', 'Lucida Grande', 'Verdana', 'Geneva', 'Lucid', 'Arial', 'Helvetica', 'Avant Garde', sans-serif; text-anchor: middle" x="52.115213" y="102.546567" transform="rotate(-0 52.115213 102.546567)">0.5 s</text>
   </g>
  </g>
 </g>
 <defs>
  <clipPath id="p07c5a67375">
   <rect x="39.195982" y="10.8" width="94.741025" height="87.95062"/>
  </clipPath>
 </defs>
</svg>
