<?xml version="1.0" encoding="utf-8" standalone="no"?>
<!DOCTYPE svg PUBLIC "-//W3C//DTD SVG 1.1//EN"
  "http://www.w3.org/Graphics/SVG/1.1/DTD/svg11.dtd">
<svg xmlns:xlink="http://www.w3.org/1999/xlink" width="288pt" height="288pt" viewBox="0 0 288 288" xmlns="http://www.w3.org/2000/svg" version="1.1">
 <metadata>
  <rdf:RDF xmlns:dc="http://purl.org/dc/elements/1.1/" xmlns:cc="http://creativecommons.org/ns#" xmlns:rdf="http://www.w3.org/1999/02/22-rdf-syntax-ns#">
   <cc:Work>
    <dc:type rdf:resource="http://purl.org/dc/dcmitype/StillImage"/>
    <dc:date>2023-11-16T15:28:56.518144</dc:date>
    <dc:format>image/svg+xml</dc:format>
    <dc:creator>
     <cc:Agent>
      <dc:title>Matplotlib v3.7.2, https://matplotlib.org/</dc:title>
     </cc:Agent>
    </dc:creator>
   </cc:Work>
  </rdf:RDF>
 </metadata>
 <defs>
  <style type="text/css">*{stroke-linejoin: round; stroke-linecap: butt}</style>
 </defs>
 <g id="figure_1">
  <g id="patch_1">
   <path d="M 0 288 
L 288 288 
L 288 0 
L 0 0 
z
" style="fill: #ffffff"/>
  </g>
  <g id="axes_1">
   <g id="patch_2">
    <path d="M 59.342727 262.60129 
L 270.72 262.60129 
L 270.72 17.28 
L 59.342727 17.28 
z
" style="fill: #ffffff"/>
   </g>
   <g id="matplotlib.axis_1"/>
   <g id="matplotlib.axis_2"/>
   <g id="line2d_1">
    <path d="M 72.794008 240.194819 
L 76.637231 237.987674 
L 80.480455 238.093911 
L 84.323678 236.735142 
L 88.166901 226.205235 
L 92.010124 213.448971 
L 95.853347 167.79007 
L 99.69657 181.81059 
L 103.539793 172.985418 
L 107.383017 172.614262 
L 111.22624 175.444684 
L 115.069463 180.286431 
L 118.912686 192.503343 
L 122.755909 187.319908 
L 126.599132 174.711883 
L 130.442355 165.778463 
L 134.285579 155.229414 
L 138.128802 140.294119 
L 141.972025 149.311035 
L 145.815248 147.280681 
L 149.658471 130.139654 
L 153.501694 143.990928 
L 157.344917 134.090505 
L 161.18814 151.129046 
L 165.031364 151.749147 
L 168.874587 146.890097 
L 172.71781 136.837929 
L 176.561033 156.11214 
L 180.404256 155.93483 
L 184.247479 162.244933 
L 188.090702 146.022476 
L 191.933926 165.523876 
L 195.777149 154.404143 
L 199.620372 163.005215 
L 203.463595 158.314321 
L 207.306818 163.529728 
L 211.150041 169.110848 
L 214.993264 169.956319 
L 218.836488 173.17031 
L 222.679711 174.507761 
L 226.522934 169.780836 
L 230.366157 164.693055 
L 234.20938 176.143497 
L 238.052603 171.917259 
L 241.895826 181.559967 
L 245.73905 168.789149 
L 249.582273 183.659878 
L 253.425496 176.377708 
L 257.268719 177.963288 
L 261.111942 178.880789 
" clip-path="url(#pc570dd6779)" style="fill: none; stroke: #808080; stroke-opacity: 0.3; stroke-width: 1.5; stroke-linecap: square"/>
   </g>
   <g id="line2d_2">
    <path d="M 72.794008 233.496332 
L 76.637231 231.707359 
L 80.480455 230.424947 
L 84.323678 229.113892 
L 88.166901 228.830837 
L 92.010124 193.340478 
L 95.853347 191.322836 
L 99.69657 167.431934 
L 103.539793 151.295985 
L 107.383017 155.23831 
L 111.22624 141.269698 
L 115.069463 136.664925 
L 118.912686 154.433764 
L 122.755909 149.774626 
L 126.599132 154.118414 
L 130.442355 128.909057 
L 134.285579 116.413767 
L 138.128802 106.199379 
L 141.972025 94.8877 
L 145.815248 77.357275 
L 149.658471 92.830353 
L 153.501694 73.274273 
L 157.344917 94.03984 
L 161.18814 89.481487 
L 165.031364 82.007101 
L 168.874587 96.156604 
L 172.71781 93.122579 
L 176.561033 106.939726 
L 180.404256 109.400996 
L 184.247479 94.689737 
L 188.090702 101.206779 
L 191.933926 115.050497 
L 195.777149 107.678524 
L 199.620372 118.852127 
L 203.463595 101.354721 
L 207.306818 109.255829 
L 211.150041 115.130267 
L 214.993264 120.566485 
L 218.836488 112.807232 
L 222.679711 121.93534 
L 226.522934 123.819801 
L 230.366157 106.330602 
L 234.20938 120.995522 
L 238.052603 142.221194 
L 241.895826 131.490755 
L 245.73905 143.425609 
L 249.582273 143.307509 
L 253.425496 145.430665 
L 257.268719 146.908522 
L 261.111942 141.726802 
" clip-path="url(#pc570dd6779)" style="fill: none; stroke: #808080; stroke-opacity: 0.3; stroke-width: 1.5; stroke-linecap: square"/>
   </g>
   <g id="line2d_3">
    <path d="M 72.794008 244.068078 
L 76.637231 234.187289 
L 80.480455 233.929627 
L 84.323678 233.013945 
L 88.166901 231.841493 
L 92.010124 213.106293 
L 95.853347 196.768362 
L 99.69657 192.865173 
L 103.539793 184.404915 
L 107.383017 183.797105 
L 111.22624 177.785899 
L 115.069463 167.497765 
L 118.912686 177.66158 
L 122.755909 167.30521 
L 126.599132 172.199789 
L 130.442355 178.968441 
L 134.285579 152.080696 
L 138.128802 145.882835 
L 141.972025 136.691629 
L 145.815248 138.679636 
L 149.658471 156.250808 
L 153.501694 134.570732 
L 157.344917 144.65364 
L 161.18814 153.09399 
L 165.031364 150.408195 
L 168.874587 153.959302 
L 172.71781 150.166102 
L 176.561033 141.137573 
L 180.404256 156.740704 
L 184.247479 156.493396 
L 188.090702 155.853283 
L 191.933926 157.653497 
L 195.777149 166.384469 
L 199.620372 160.030211 
L 203.463595 163.164488 
L 207.306818 166.582826 
L 211.150041 167.141623 
L 214.993264 166.339954 
L 218.836488 171.230626 
L 222.679711 183.478668 
L 226.522934 169.535017 
L 230.366157 175.789293 
L 234.20938 184.024631 
L 238.052603 180.601309 
L 241.895826 173.563961 
L 245.73905 188.635508 
L 249.582273 192.6163 
L 253.425496 178.120807 
L 257.268719 192.293825 
L 261.111942 180.95226 
" clip-path="url(#pc570dd6779)" style="fill: none; stroke: #808080; stroke-opacity: 0.3; stroke-width: 1.5; stroke-linecap: square"/>
   </g>
   <g id="line2d_4">
    <path d="M 72.794008 237.531803 
L 76.637231 244.639232 
L 80.480455 240.43651 
L 84.323678 240.780888 
L 88.166901 224.924375 
L 92.010124 205.263356 
L 95.853347 206.036475 
L 99.69657 205.630147 
L 103.539793 192.161629 
L 107.383017 191.412128 
L 111.22624 203.572333 
L 115.069463 199.642476 
L 118.912686 191.399506 
L 122.755909 205.452089 
L 126.599132 201.288427 
L 130.442355 180.289996 
L 134.285579 156.04666 
L 138.128802 145.856855 
L 141.972025 137.108392 
L 145.815248 133.969088 
L 149.658471 127.296011 
L 153.501694 134.207984 
L 157.344917 130.571666 
L 161.18814 154.721487 
L 165.031364 138.517411 
L 168.874587 153.670535 
L 172.71781 143.82075 
L 176.561033 147.512122 
L 180.404256 141.245454 
L 184.247479 146.738 
L 188.090702 145.904116 
L 191.933926 155.348545 
L 195.777149 156.45866 
L 199.620372 159.108267 
L 203.463595 157.973569 
L 207.306818 162.6335 
L 211.150041 165.879244 
L 214.993264 162.540194 
L 218.836488 172.945663 
L 222.679711 175.784362 
L 226.522934 170.28436 
L 230.366157 181.035228 
L 234.20938 168.8724 
L 238.052603 175.79556 
L 241.895826 170.112657 
L 245.73905 177.462592 
L 249.582273 168.611959 
L 253.425496 179.558744 
L 257.268719 178.140085 
L 261.111942 178.096022 
" clip-path="url(#pc570dd6779)" style="fill: none; stroke: #808080; stroke-opacity: 0.3; stroke-width: 1.5; stroke-linecap: square"/>
   </g>
   <g id="line2d_5">
    <path d="M 72.794008 234.390004 
L 76.637231 243.571702 
L 80.480455 238.188571 
L 84.323678 239.365874 
L 88.166901 238.954571 
L 92.010124 216.135857 
L 95.853347 196.764526 
L 99.69657 191.823181 
L 103.539793 183.156895 
L 107.383017 193.914197 
L 111.22624 185.295134 
L 115.069463 182.656891 
L 118.912686 187.876332 
L 122.755909 189.21075 
L 126.599132 180.495867 
L 130.442355 174.714507 
L 134.285579 152.136343 
L 138.128802 130.399945 
L 141.972025 115.571656 
L 145.815248 119.144586 
L 149.658471 105.566258 
L 153.501694 114.55635 
L 157.344917 106.925877 
L 161.18814 111.240634 
L 165.031364 123.427436 
L 168.874587 109.853222 
L 172.71781 118.403441 
L 176.561033 118.8312 
L 180.404256 124.292343 
L 184.247479 113.529915 
L 188.090702 124.123739 
L 191.933926 131.907295 
L 195.777149 137.227688 
L 199.620372 134.05648 
L 203.463595 137.136452 
L 207.306818 131.483226 
L 211.150041 146.635788 
L 214.993264 130.104979 
L 218.836488 138.787469 
L 222.679711 133.443571 
L 226.522934 155.470025 
L 230.366157 130.668642 
L 234.20938 142.588838 
L 238.052603 136.588539 
L 241.895826 145.099881 
L 245.73905 143.235367 
L 249.582273 134.409735 
L 253.425496 145.063786 
L 257.268719 138.127382 
L 261.111942 150.859689 
" clip-path="url(#pc570dd6779)" style="fill: none; stroke: #808080; stroke-opacity: 0.3; stroke-width: 1.5; stroke-linecap: square"/>
   </g>
   <g id="line2d_6">
    <path d="M 72.794008 233.930101 
L 76.637231 235.442823 
L 80.480455 228.072163 
L 84.323678 240.19594 
L 88.166901 224.841327 
L 92.010124 221.401412 
L 95.853347 217.23807 
L 99.69657 217.828323 
L 103.539793 212.153031 
L 107.383017 215.929372 
L 111.22624 219.881985 
L 115.069463 227.467045 
L 118.912686 216.939788 
L 122.755909 218.673045 
L 126.599132 230.419263 
L 130.442355 215.20581 
L 134.285579 217.005982 
L 138.128802 217.728954 
L 141.972025 213.972613 
L 145.815248 212.016829 
L 149.658471 213.257235 
L 153.501694 211.800718 
L 157.344917 227.086507 
L 161.18814 207.591118 
L 165.031364 218.661172 
L 168.874587 221.014392 
L 172.71781 226.93911 
L 176.561033 217.917496 
L 180.404256 211.714197 
L 184.247479 214.748201 
L 188.090702 215.44186 
L 191.933926 230.013819 
L 195.777149 226.949381 
L 199.620372 219.658708 
L 203.463595 219.803561 
L 207.306818 228.277082 
L 211.150041 216.505864 
L 214.993264 212.559661 
L 218.836488 219.164997 
L 222.679711 229.755985 
L 226.522934 227.284417 
L 230.366157 231.899134 
L 234.20938 221.315176 
L 238.052603 225.808362 
L 241.895826 238.26185 
L 245.73905 222.756061 
L 249.582273 227.331892 
L 253.425496 224.123629 
L 257.268719 232.488235 
L 261.111942 226.371489 
" clip-path="url(#pc570dd6779)" style="fill: none; stroke: #808080; stroke-opacity: 0.3; stroke-width: 1.5; stroke-linecap: square"/>
   </g>
   <g id="line2d_7">
    <path d="M 72.794008 234.471679 
L 76.637231 244.191214 
L 80.480455 238.734202 
L 84.323678 233.849314 
L 88.166901 231.812782 
L 92.010124 225.086449 
L 95.853347 215.436011 
L 99.69657 207.876535 
L 103.539793 208.333087 
L 107.383017 197.239573 
L 111.22624 198.792254 
L 115.069463 204.660409 
L 118.912686 209.343351 
L 122.755909 211.074126 
L 126.599132 206.559772 
L 130.442355 201.930547 
L 134.285579 195.527504 
L 138.128802 172.552504 
L 141.972025 164.882605 
L 145.815248 167.336648 
L 149.658471 156.789281 
L 153.501694 173.429604 
L 157.344917 171.525803 
L 161.18814 165.097888 
L 165.031364 175.127206 
L 168.874587 172.26508 
L 172.71781 175.081023 
L 176.561033 173.40622 
L 180.404256 186.997715 
L 184.247479 163.467908 
L 188.090702 179.631269 
L 191.933926 181.785736 
L 195.777149 175.514647 
L 199.620372 188.79545 
L 203.463595 181.203879 
L 207.306818 192.21963 
L 211.150041 177.291407 
L 214.993264 186.758486 
L 218.836488 177.493443 
L 222.679711 186.688521 
L 226.522934 196.564583 
L 230.366157 193.255756 
L 234.20938 188.283658 
L 238.052603 200.874602 
L 241.895826 199.673454 
L 245.73905 195.971458 
L 249.582273 194.905889 
L 253.425496 200.296241 
L 257.268719 189.169069 
L 261.111942 197.244112 
" clip-path="url(#pc570dd6779)" style="fill: none; stroke: #808080; stroke-opacity: 0.3; stroke-width: 1.5; stroke-linecap: square"/>
   </g>
   <g id="line2d_8">
    <path d="M 72.794008 239.731208 
L 76.637231 231.260454 
L 80.480455 236.611292 
L 84.323678 232.510178 
L 88.166901 238.624383 
L 92.010124 208.617546 
L 95.853347 203.502799 
L 99.69657 198.348689 
L 103.539793 205.239904 
L 107.383017 191.795888 
L 111.22624 191.984691 
L 115.069463 197.200661 
L 118.912686 190.026773 
L 122.755909 181.437267 
L 126.599132 184.684567 
L 130.442355 192.311811 
L 134.285579 183.040181 
L 138.128802 160.497241 
L 141.972025 147.3834 
L 145.815248 161.193907 
L 149.658471 139.785731 
L 153.501694 138.289189 
L 157.344917 131.713239 
L 161.18814 137.02665 
L 165.031364 145.576501 
L 168.874587 145.298675 
L 172.71781 147.576012 
L 176.561033 143.305622 
L 180.404256 143.232829 
L 184.247479 156.081529 
L 188.090702 157.477253 
L 191.933926 152.31075 
L 195.777149 146.551423 
L 199.620372 158.796203 
L 203.463595 157.627399 
L 207.306818 151.245374 
L 211.150041 172.697645 
L 214.993264 155.61069 
L 218.836488 166.170021 
L 222.679711 158.208842 
L 226.522934 171.83674 
L 230.366157 175.930036 
L 234.20938 171.744369 
L 238.052603 168.344647 
L 241.895826 174.241709 
L 245.73905 172.702095 
L 249.582273 172.276262 
L 253.425496 184.63794 
L 257.268719 183.874723 
L 261.111942 169.971329 
" clip-path="url(#pc570dd6779)" style="fill: none; stroke: #808080; stroke-opacity: 0.3; stroke-width: 1.5; stroke-linecap: square"/>
   </g>
   <g id="line2d_9">
    <path d="M 72.794008 234.133851 
L 76.637231 236.568003 
L 80.480455 246.476119 
L 84.323678 240.412222 
L 88.166901 240.997451 
L 92.010124 230.942924 
L 95.853347 222.25487 
L 99.69657 213.104548 
L 103.539793 210.607516 
L 107.383017 218.275277 
L 111.22624 211.461309 
L 115.069463 219.538677 
L 118.912686 226.033911 
L 122.755909 217.560074 
L 126.599132 215.184079 
L 130.442355 223.883637 
L 134.285579 211.147438 
L 138.128802 193.142727 
L 141.972025 172.109164 
L 145.815248 132.594791 
L 149.658471 114.694401 
L 153.501694 94.602977 
L 157.344917 89.740512 
L 161.18814 85.920918 
L 165.031364 93.710357 
L 168.874587 99.890679 
L 172.71781 102.080134 
L 176.561033 86.457589 
L 180.404256 95.516394 
L 184.247479 106.532287 
L 188.090702 88.426452 
L 191.933926 99.418941 
L 195.777149 97.063855 
L 199.620372 103.68681 
L 203.463595 107.170273 
L 207.306818 108.421953 
L 211.150041 111.493474 
L 214.993264 115.453484 
L 218.836488 118.266226 
L 222.679711 117.463189 
L 226.522934 111.225235 
L 230.366157 125.474193 
L 234.20938 128.401924 
L 238.052603 127.232816 
L 241.895826 136.643627 
L 245.73905 138.593276 
L 249.582273 138.419823 
L 253.425496 140.03145 
L 257.268719 141.643703 
L 261.111942 141.069156 
" clip-path="url(#pc570dd6779)" style="fill: none; stroke: #808080; stroke-opacity: 0.3; stroke-width: 1.5; stroke-linecap: square"/>
   </g>
   <g id="line2d_10">
    <path d="M 72.794008 238.409557 
L 76.637231 225.867574 
L 80.480455 224.87641 
L 84.323678 233.638944 
L 88.166901 232.106124 
L 92.010124 204.557985 
L 95.853347 196.909214 
L 99.69657 192.516211 
L 103.539793 191.076632 
L 107.383017 185.816165 
L 111.22624 190.902081 
L 115.069463 189.360982 
L 118.912686 189.425406 
L 122.755909 192.263712 
L 126.599132 180.781028 
L 130.442355 166.217633 
L 134.285579 150.815663 
L 138.128802 139.051359 
L 141.972025 129.764443 
L 145.815248 121.822934 
L 149.658471 114.429089 
L 153.501694 116.784731 
L 157.344917 123.199319 
L 161.18814 128.083034 
L 165.031364 130.927856 
L 168.874587 118.424059 
L 172.71781 110.874755 
L 176.561033 145.98869 
L 180.404256 129.247899 
L 184.247479 137.666168 
L 188.090702 137.862256 
L 191.933926 138.384202 
L 195.777149 152.60669 
L 199.620372 142.276657 
L 203.463595 147.732574 
L 207.306818 148.702685 
L 211.150041 153.829707 
L 214.993264 160.037308 
L 218.836488 161.429039 
L 222.679711 164.321797 
L 226.522934 154.442892 
L 230.366157 152.651038 
L 234.20938 164.359473 
L 238.052603 161.790581 
L 241.895826 166.363987 
L 245.73905 169.786438 
L 249.582273 167.568638 
L 253.425496 174.196637 
L 257.268719 174.348964 
L 261.111942 176.670099 
" clip-path="url(#pc570dd6779)" style="fill: none; stroke: #808080; stroke-opacity: 0.3; stroke-width: 1.5; stroke-linecap: square"/>
   </g>
   <g id="line2d_11">
    <path d="M 72.794008 237.812919 
L 76.637231 239.659227 
L 80.480455 239.499745 
L 84.323678 234.10733 
L 88.166901 228.242557 
L 92.010124 223.857489 
L 95.853347 224.34677 
L 99.69657 221.473433 
L 103.539793 211.680943 
L 107.383017 213.214207 
L 111.22624 216.731113 
L 115.069463 222.308469 
L 118.912686 219.16521 
L 122.755909 215.572266 
L 126.599132 225.317232 
L 130.442355 219.838449 
L 134.285579 219.653705 
L 138.128802 207.806173 
L 141.972025 198.436126 
L 145.815248 201.715739 
L 149.658471 197.72131 
L 153.501694 191.727699 
L 157.344917 199.431155 
L 161.18814 197.400253 
L 165.031364 205.367058 
L 168.874587 199.069042 
L 172.71781 196.166989 
L 176.561033 202.384103 
L 180.404256 203.065768 
L 184.247479 203.585779 
L 188.090702 195.159957 
L 191.933926 199.53439 
L 195.777149 221.57683 
L 199.620372 200.350311 
L 203.463595 203.049711 
L 207.306818 207.531785 
L 211.150041 207.434871 
L 214.993264 200.896719 
L 218.836488 209.05297 
L 222.679711 200.774492 
L 226.522934 208.137013 
L 230.366157 205.67741 
L 234.20938 201.652199 
L 238.052603 200.814591 
L 241.895826 209.505504 
L 245.73905 204.913383 
L 249.582273 205.088573 
L 253.425496 208.350894 
L 257.268719 218.032415 
L 261.111942 210.458626 
" clip-path="url(#pc570dd6779)" style="fill: none; stroke: #808080; stroke-opacity: 0.3; stroke-width: 1.5; stroke-linecap: square"/>
   </g>
   <g id="line2d_12">
    <path d="M 72.794008 247.119809 
L 76.637231 238.197294 
L 80.480455 244.276194 
L 84.323678 236.292445 
L 88.166901 235.919541 
L 92.010124 236.860535 
L 95.853347 233.639125 
L 99.69657 235.394756 
L 103.539793 235.112788 
L 107.383017 235.904934 
L 111.22624 238.735298 
L 115.069463 233.697778 
L 118.912686 234.061955 
L 122.755909 234.818425 
L 126.599132 229.383386 
L 130.442355 240.699429 
L 134.285579 234.129663 
L 138.128802 234.782505 
L 141.972025 235.624608 
L 145.815248 231.702349 
L 149.658471 240.899973 
L 153.501694 234.471593 
L 157.344917 242.318701 
L 161.18814 231.730702 
L 165.031364 224.499388 
L 168.874587 229.268229 
L 172.71781 239.825922 
L 176.561033 243.500674 
L 180.404256 226.71242 
L 184.247479 233.088122 
L 188.090702 241.766154 
L 191.933926 238.64773 
L 195.777149 229.923059 
L 199.620372 238.750571 
L 203.463595 243.48059 
L 207.306818 239.729638 
L 211.150041 233.771372 
L 214.993264 242.930778 
L 218.836488 236.05577 
L 222.679711 231.76134 
L 226.522934 244.574798 
L 230.366157 235.961442 
L 234.20938 237.315581 
L 238.052603 225.80117 
L 241.895826 238.844833 
L 245.73905 246.739303 
L 249.582273 243.371131 
L 253.425496 245.12898 
L 257.268719 234.06308 
L 261.111942 237.292744 
" clip-path="url(#pc570dd6779)" style="fill: none; stroke: #808080; stroke-opacity: 0.3; stroke-width: 1.5; stroke-linecap: square"/>
   </g>
   <g id="line2d_13">
    <path d="M 72.794008 230.17028 
L 76.637231 232.104791 
L 80.480455 241.396435 
L 84.323678 248.084024 
L 88.166901 246.944435 
L 92.010124 235.805447 
L 95.853347 244.585985 
L 99.69657 234.681374 
L 103.539793 240.168549 
L 107.383017 231.165773 
L 111.22624 241.042941 
L 115.069463 245.437983 
L 118.912686 233.025223 
L 122.755909 234.828704 
L 126.599132 233.713926 
L 130.442355 242.061364 
L 134.285579 241.516995 
L 138.128802 229.148077 
L 141.972025 239.519935 
L 145.815248 237.166879 
L 149.658471 236.084701 
L 153.501694 228.586726 
L 157.344917 245.742295 
L 161.18814 224.980894 
L 165.031364 235.938996 
L 168.874587 231.889744 
L 172.71781 244.752145 
L 176.561033 239.382585 
L 180.404256 231.289157 
L 184.247479 242.01408 
L 188.090702 242.743853 
L 191.933926 229.60448 
L 195.777149 234.601524 
L 199.620372 243.916197 
L 203.463595 241.170362 
L 207.306818 238.892519 
L 211.150041 250.345862 
L 214.993264 242.493782 
L 218.836488 234.039203 
L 222.679711 232.902415 
L 226.522934 247.862961 
L 230.366157 237.981317 
L 234.20938 239.347376 
L 238.052603 241.359012 
L 241.895826 241.600108 
L 245.73905 245.613767 
L 249.582273 236.122416 
L 253.425496 242.539293 
L 257.268719 245.295125 
L 261.111942 241.197952 
" clip-path="url(#pc570dd6779)" style="fill: none; stroke: #808080; stroke-opacity: 0.3; stroke-width: 1.5; stroke-linecap: square"/>
   </g>
   <g id="line2d_14">
    <path d="M 72.794008 232.0123 
L 76.637231 229.925744 
L 80.480455 235.92335 
L 84.323678 240.90487 
L 88.166901 240.012332 
L 92.010124 230.424884 
L 95.853347 217.283031 
L 99.69657 229.892359 
L 103.539793 227.760969 
L 107.383017 245.786431 
L 111.22624 228.404323 
L 115.069463 225.2205 
L 118.912686 228.572898 
L 122.755909 238.37297 
L 126.599132 232.255158 
L 130.442355 233.310728 
L 134.285579 238.094851 
L 138.128802 226.903278 
L 141.972025 233.391683 
L 145.815248 231.281525 
L 149.658471 231.283654 
L 153.501694 237.398857 
L 157.344917 236.482112 
L 161.18814 243.64545 
L 165.031364 243.389471 
L 168.874587 232.626866 
L 172.71781 238.29983 
L 176.561033 225.546545 
L 180.404256 235.778636 
L 184.247479 231.285126 
L 188.090702 235.178134 
L 191.933926 243.290981 
L 195.777149 244.899263 
L 199.620372 237.754576 
L 203.463595 233.848067 
L 207.306818 243.366176 
L 211.150041 238.947781 
L 214.993264 238.864771 
L 218.836488 234.406665 
L 222.679711 242.088365 
L 226.522934 237.917029 
L 230.366157 236.083694 
L 234.20938 238.43043 
L 238.052603 249.32926 
L 241.895826 241.732553 
L 245.73905 243.177157 
L 249.582273 231.075237 
L 253.425496 246.537433 
L 257.268719 241.135812 
L 261.111942 232.198114 
" clip-path="url(#pc570dd6779)" style="fill: none; stroke: #808080; stroke-opacity: 0.3; stroke-width: 1.5; stroke-linecap: square"/>
   </g>
   <g id="line2d_15">
    <path d="M 72.794008 232.947804 
L 76.637231 238.724445 
L 80.480455 232.58391 
L 84.323678 240.398503 
L 88.166901 233.572214 
L 92.010124 235.257209 
L 95.853347 229.082123 
L 99.69657 240.352328 
L 103.539793 228.571886 
L 107.383017 231.912772 
L 111.22624 226.444336 
L 115.069463 226.582449 
L 118.912686 227.445024 
L 122.755909 229.473163 
L 126.599132 223.121057 
L 130.442355 223.48732 
L 134.285579 223.011901 
L 138.128802 227.137281 
L 141.972025 230.20787 
L 145.815248 237.887331 
L 149.658471 232.970681 
L 153.501694 222.268012 
L 157.344917 241.685253 
L 161.18814 234.103014 
L 165.031364 232.269694 
L 168.874587 229.312722 
L 172.71781 243.058731 
L 176.561033 233.093385 
L 180.404256 235.98116 
L 184.247479 234.528752 
L 188.090702 229.997466 
L 191.933926 240.595547 
L 195.777149 229.379461 
L 199.620372 234.384984 
L 203.463595 246.307216 
L 207.306818 227.289452 
L 211.150041 232.318194 
L 214.993264 228.140482 
L 218.836488 232.649429 
L 222.679711 242.601451 
L 226.522934 238.531927 
L 230.366157 241.948792 
L 234.20938 234.00696 
L 238.052603 236.417726 
L 241.895826 244.707905 
L 245.73905 238.760593 
L 249.582273 245.07049 
L 253.425496 238.702852 
L 257.268719 246.907956 
L 261.111942 245.757357 
" clip-path="url(#pc570dd6779)" style="fill: none; stroke: #808080; stroke-opacity: 0.3; stroke-width: 1.5; stroke-linecap: square"/>
   </g>
   <g id="line2d_16">
    <path d="M 72.794008 226.113596 
L 76.637231 238.368817 
L 80.480455 235.054858 
L 84.323678 239.255071 
L 88.166901 238.568267 
L 92.010124 230.858285 
L 95.853347 235.85631 
L 99.69657 235.973365 
L 103.539793 236.441714 
L 107.383017 232.590095 
L 111.22624 236.464372 
L 115.069463 236.612859 
L 118.912686 229.559039 
L 122.755909 234.216638 
L 126.599132 231.939155 
L 130.442355 228.020474 
L 134.285579 231.452784 
L 138.128802 233.801571 
L 141.972025 227.20161 
L 145.815248 232.837616 
L 149.658471 225.111582 
L 153.501694 227.344297 
L 157.344917 224.274276 
L 161.18814 229.137195 
L 165.031364 227.713306 
L 168.874587 229.164079 
L 172.71781 235.514919 
L 176.561033 231.710844 
L 180.404256 226.556125 
L 184.247479 235.565381 
L 188.090702 231.485576 
L 191.933926 228.235585 
L 195.777149 233.4832 
L 199.620372 235.341826 
L 203.463595 233.680907 
L 207.306818 241.271199 
L 211.150041 233.312738 
L 214.993264 241.450511 
L 218.836488 236.520219 
L 222.679711 229.540152 
L 226.522934 232.350319 
L 230.366157 229.857798 
L 234.20938 232.353305 
L 238.052603 229.920788 
L 241.895826 230.7531 
L 245.73905 239.086021 
L 249.582273 233.688402 
L 253.425496 227.91619 
L 257.268719 233.435197 
L 261.111942 227.315002 
" clip-path="url(#pc570dd6779)" style="fill: none; stroke: #808080; stroke-opacity: 0.3; stroke-width: 1.5; stroke-linecap: square"/>
   </g>
   <g id="line2d_17">
    <path d="M 72.794008 228.568258 
L 76.637231 245.7084 
L 80.480455 237.688655 
L 84.323678 239.955586 
L 88.166901 226.201619 
L 92.010124 221.678588 
L 95.853347 227.215494 
L 99.69657 224.345425 
L 103.539793 227.751738 
L 107.383017 230.670806 
L 111.22624 235.884347 
L 115.069463 221.791944 
L 118.912686 231.359989 
L 122.755909 222.36374 
L 126.599132 228.380013 
L 130.442355 237.390915 
L 134.285579 233.547467 
L 138.128802 230.62305 
L 141.972025 227.538663 
L 145.815248 228.498273 
L 149.658471 227.473651 
L 153.501694 222.944053 
L 157.344917 229.226709 
L 161.18814 238.968931 
L 165.031364 220.38155 
L 168.874587 229.126084 
L 172.71781 222.005714 
L 176.561033 233.006959 
L 180.404256 220.993421 
L 184.247479 234.689147 
L 188.090702 223.838429 
L 191.933926 230.281471 
L 195.777149 219.90245 
L 199.620372 229.570919 
L 203.463595 235.215361 
L 207.306818 225.399467 
L 211.150041 233.405542 
L 214.993264 235.199823 
L 218.836488 235.82136 
L 222.679711 229.496348 
L 226.522934 230.113554 
L 230.366157 227.272671 
L 234.20938 234.118506 
L 238.052603 230.980041 
L 241.895826 234.390769 
L 245.73905 235.028997 
L 249.582273 240.384013 
L 253.425496 236.707218 
L 257.268719 234.972811 
L 261.111942 228.386145 
" clip-path="url(#pc570dd6779)" style="fill: none; stroke: #808080; stroke-opacity: 0.3; stroke-width: 1.5; stroke-linecap: square"/>
   </g>
   <g id="line2d_18">
    <path d="M 72.794008 227.372437 
L 76.637231 234.236622 
L 80.480455 239.660153 
L 84.323678 236.666568 
L 88.166901 238.95215 
L 92.010124 235.291826 
L 95.853347 239.799349 
L 99.69657 225.538233 
L 103.539793 238.854364 
L 107.383017 231.73342 
L 111.22624 242.948324 
L 115.069463 239.724208 
L 118.912686 232.491178 
L 122.755909 238.884214 
L 126.599132 233.693507 
L 130.442355 229.648114 
L 134.285579 232.336527 
L 138.128802 242.771139 
L 141.972025 235.078062 
L 145.815248 226.463174 
L 149.658471 243.094452 
L 153.501694 238.37404 
L 157.344917 239.837278 
L 161.18814 241.818744 
L 165.031364 240.166428 
L 168.874587 243.066609 
L 172.71781 232.062733 
L 176.561033 237.832802 
L 180.404256 238.593208 
L 184.247479 246.94721 
L 188.090702 238.515511 
L 191.933926 247.232656 
L 195.777149 243.884367 
L 199.620372 248.274584 
L 203.463595 243.242747 
L 207.306818 242.528418 
L 211.150041 249.731824 
L 214.993264 246.459155 
L 218.836488 240.877606 
L 222.679711 248.488141 
L 226.522934 243.489827 
L 230.366157 257.238514 
L 234.20938 253.855036 
L 238.052603 249.365374 
L 241.895826 261.057552 
L 245.73905 252.089993 
L 249.582273 248.941108 
L 253.425496 246.951223 
L 257.268719 249.132558 
L 261.111942 245.206818 
" clip-path="url(#pc570dd6779)" style="fill: none; stroke: #808080; stroke-opacity: 0.3; stroke-width: 1.5; stroke-linecap: square"/>
   </g>
   <g id="line2d_19">
    <path d="M 72.794008 236.132554 
L 76.637231 235.605963 
L 80.480455 236.143193 
L 84.323678 236.813374 
L 88.166901 237.157262 
L 92.010124 216.266741 
L 95.853347 219.230946 
L 99.69657 228.962622 
L 103.539793 227.689551 
L 107.383017 227.040903 
L 111.22624 225.755287 
L 115.069463 221.601774 
L 118.912686 230.858657 
L 122.755909 224.378324 
L 126.599132 222.248295 
L 130.442355 223.131498 
L 134.285579 212.655336 
L 138.128802 219.835006 
L 141.972025 223.99716 
L 145.815248 216.416891 
L 149.658471 221.215226 
L 153.501694 215.175276 
L 157.344917 215.981438 
L 161.18814 213.578252 
L 165.031364 224.197401 
L 168.874587 223.381246 
L 172.71781 226.01625 
L 176.561033 221.438381 
L 180.404256 222.9713 
L 184.247479 220.60412 
L 188.090702 215.305237 
L 191.933926 218.150549 
L 195.777149 209.823396 
L 199.620372 231.571776 
L 203.463595 220.658897 
L 207.306818 232.179377 
L 211.150041 221.772117 
L 214.993264 222.228124 
L 218.836488 232.188137 
L 222.679711 215.266646 
L 226.522934 222.202019 
L 230.366157 226.461419 
L 234.20938 225.326696 
L 238.052603 221.822558 
L 241.895826 223.835337 
L 245.73905 233.22379 
L 249.582273 224.051091 
L 253.425496 220.031553 
L 257.268719 236.127657 
L 261.111942 237.236393 
" clip-path="url(#pc570dd6779)" style="fill: none; stroke: #808080; stroke-opacity: 0.3; stroke-width: 1.5; stroke-linecap: square"/>
   </g>
   <g id="line2d_20">
    <path d="M 72.794008 229.132027 
L 76.637231 227.125041 
L 80.480455 236.249584 
L 84.323678 238.251295 
L 88.166901 230.643583 
L 92.010124 234.251817 
L 95.853347 223.707908 
L 99.69657 229.301319 
L 103.539793 239.792325 
L 107.383017 231.256519 
L 111.22624 226.502753 
L 115.069463 233.914564 
L 118.912686 226.662598 
L 122.755909 226.525463 
L 126.599132 232.667119 
L 130.442355 228.076755 
L 134.285579 229.215107 
L 138.128802 224.340054 
L 141.972025 232.702111 
L 145.815248 226.462673 
L 149.658471 231.013412 
L 153.501694 237.491101 
L 157.344917 226.612804 
L 161.18814 224.671987 
L 165.031364 224.301741 
L 168.874587 228.663655 
L 172.71781 240.493627 
L 176.561033 231.856405 
L 180.404256 230.907341 
L 184.247479 222.94852 
L 188.090702 226.302577 
L 191.933926 227.624507 
L 195.777149 226.757462 
L 199.620372 233.182549 
L 203.463595 229.00768 
L 207.306818 228.955762 
L 211.150041 236.844487 
L 214.993264 225.366852 
L 218.836488 229.253071 
L 222.679711 231.280217 
L 226.522934 229.210235 
L 230.366157 233.919143 
L 234.20938 231.380831 
L 238.052603 224.864495 
L 241.895826 223.911983 
L 245.73905 228.093753 
L 249.582273 224.310629 
L 253.425496 236.801036 
L 257.268719 231.318356 
L 261.111942 237.702571 
" clip-path="url(#pc570dd6779)" style="fill: none; stroke: #808080; stroke-opacity: 0.3; stroke-width: 1.5; stroke-linecap: square"/>
   </g>
   <g id="line2d_21">
    <path d="M 72.794008 236.674055 
L 76.637231 243.98822 
L 80.480455 238.298421 
L 84.323678 243.222937 
L 88.166901 240.771954 
L 92.010124 229.589662 
L 95.853347 234.555624 
L 99.69657 237.78244 
L 103.539793 239.428144 
L 107.383017 237.993513 
L 111.22624 245.136251 
L 115.069463 239.947345 
L 118.912686 235.446242 
L 122.755909 236.577886 
L 126.599132 246.354789 
L 130.442355 233.979621 
L 134.285579 231.318872 
L 138.128802 237.622499 
L 141.972025 230.001483 
L 145.815248 225.018219 
L 149.658471 236.422824 
L 153.501694 228.265103 
L 157.344917 221.52657 
L 161.18814 235.738738 
L 165.031364 238.740805 
L 168.874587 242.592567 
L 172.71781 227.190494 
L 176.561033 235.445581 
L 180.404256 243.887677 
L 184.247479 233.606817 
L 188.090702 233.474905 
L 191.933926 245.618471 
L 195.777149 240.891712 
L 199.620372 233.283878 
L 203.463595 235.003843 
L 207.306818 237.020623 
L 211.150041 236.584363 
L 214.993264 234.507654 
L 218.836488 236.440046 
L 222.679711 231.736129 
L 226.522934 238.484663 
L 230.366157 226.127294 
L 234.20938 239.8886 
L 238.052603 230.305694 
L 241.895826 240.406465 
L 245.73905 239.702997 
L 249.582273 238.151835 
L 253.425496 238.102344 
L 257.268719 238.444788 
L 261.111942 240.551773 
" clip-path="url(#pc570dd6779)" style="fill: none; stroke: #808080; stroke-opacity: 0.3; stroke-width: 1.5; stroke-linecap: square"/>
   </g>
   <g id="line2d_22">
    <path d="M 72.794008 236.851345 
L 76.637231 232.808358 
L 80.480455 233.741464 
L 84.323678 229.404284 
L 88.166901 233.026746 
L 92.010124 235.746023 
L 95.853347 235.41543 
L 99.69657 236.349735 
L 103.539793 231.798063 
L 107.383017 227.705999 
L 111.22624 234.892692 
L 115.069463 222.134522 
L 118.912686 238.910283 
L 122.755909 229.678105 
L 126.599132 230.03784 
L 130.442355 223.664048 
L 134.285579 222.749793 
L 138.128802 229.252514 
L 141.972025 233.756953 
L 145.815248 232.018363 
L 149.658471 223.525154 
L 153.501694 235.265521 
L 157.344917 230.186379 
L 161.18814 232.624206 
L 165.031364 223.030325 
L 168.874587 235.610496 
L 172.71781 221.33305 
L 176.561033 240.939661 
L 180.404256 231.82922 
L 184.247479 234.646155 
L 188.090702 231.338702 
L 191.933926 235.014551 
L 195.777149 249.82777 
L 199.620372 236.44606 
L 203.463595 230.074118 
L 207.306818 229.930067 
L 211.150041 237.524898 
L 214.993264 231.862934 
L 218.836488 229.849381 
L 222.679711 229.280257 
L 226.522934 226.588955 
L 230.366157 236.810446 
L 234.20938 234.725479 
L 238.052603 240.32028 
L 241.895826 235.53629 
L 245.73905 228.79194 
L 249.582273 239.104166 
L 253.425496 228.836991 
L 257.268719 234.043712 
L 261.111942 233.703702 
" clip-path="url(#pc570dd6779)" style="fill: none; stroke: #808080; stroke-opacity: 0.3; stroke-width: 1.5; stroke-linecap: square"/>
   </g>
   <g id="line2d_23">
    <path d="M 72.794008 233.373316 
L 76.637231 241.291789 
L 80.480455 233.50708 
L 84.323678 243.552207 
L 88.166901 236.888891 
L 92.010124 228.413414 
L 95.853347 237.691397 
L 99.69657 235.449136 
L 103.539793 239.67003 
L 107.383017 239.55536 
L 111.22624 231.962323 
L 115.069463 230.418418 
L 118.912686 239.325742 
L 122.755909 236.577522 
L 126.599132 229.360629 
L 130.442355 228.874777 
L 134.285579 235.811196 
L 138.128802 230.870591 
L 141.972025 233.276874 
L 145.815248 232.257634 
L 149.658471 241.02147 
L 153.501694 236.376059 
L 157.344917 234.872201 
L 161.18814 239.150741 
L 165.031364 238.246887 
L 168.874587 233.015304 
L 172.71781 237.025409 
L 176.561033 231.503259 
L 180.404256 236.089161 
L 184.247479 235.575558 
L 188.090702 236.903416 
L 191.933926 232.513072 
L 195.777149 232.876152 
L 199.620372 235.276086 
L 203.463595 235.948522 
L 207.306818 242.609352 
L 211.150041 224.973725 
L 214.993264 237.717032 
L 218.836488 237.234996 
L 222.679711 240.242268 
L 226.522934 231.897657 
L 230.366157 235.325006 
L 234.20938 243.377349 
L 238.052603 235.745451 
L 241.895826 245.672908 
L 245.73905 246.453973 
L 249.582273 238.296134 
L 253.425496 238.90547 
L 257.268719 234.968514 
L 261.111942 241.886676 
" clip-path="url(#pc570dd6779)" style="fill: none; stroke: #808080; stroke-opacity: 0.3; stroke-width: 1.5; stroke-linecap: square"/>
   </g>
   <g id="line2d_24">
    <path d="M 72.794008 238.50669 
L 76.637231 239.334254 
L 80.480455 237.04717 
L 84.323678 241.793585 
L 88.166901 235.457101 
L 92.010124 229.365665 
L 95.853347 229.013891 
L 99.69657 224.188923 
L 103.539793 221.261553 
L 107.383017 225.616073 
L 111.22624 220.539659 
L 115.069463 217.441738 
L 118.912686 215.903572 
L 122.755909 218.064546 
L 126.599132 227.739692 
L 130.442355 220.481135 
L 134.285579 216.352685 
L 138.128802 208.352463 
L 141.972025 214.03124 
L 145.815248 222.496739 
L 149.658471 222.490694 
L 153.501694 207.138221 
L 157.344917 201.839463 
L 161.18814 211.862546 
L 165.031364 202.611606 
L 168.874587 209.986364 
L 172.71781 213.253667 
L 176.561033 213.295443 
L 180.404256 210.780593 
L 184.247479 218.202826 
L 188.090702 213.418774 
L 191.933926 214.620364 
L 195.777149 215.465888 
L 199.620372 210.971113 
L 203.463595 209.030181 
L 207.306818 210.783131 
L 211.150041 200.544466 
L 214.993264 205.855005 
L 218.836488 205.114168 
L 222.679711 203.349752 
L 226.522934 215.562687 
L 230.366157 215.447227 
L 234.20938 211.939332 
L 238.052603 212.270685 
L 241.895826 209.093772 
L 245.73905 218.616477 
L 249.582273 208.658745 
L 253.425496 216.393548 
L 257.268719 215.10901 
L 261.111942 218.222747 
" clip-path="url(#pc570dd6779)" style="fill: none; stroke: #808080; stroke-opacity: 0.3; stroke-width: 1.5; stroke-linecap: square"/>
   </g>
   <g id="line2d_25">
    <path d="M 72.794008 232.266866 
L 76.637231 240.38215 
L 80.480455 239.601431 
L 84.323678 241.525292 
L 88.166901 231.767773 
L 92.010124 230.367201 
L 95.853347 225.504246 
L 99.69657 233.668876 
L 103.539793 228.610188 
L 107.383017 239.338458 
L 111.22624 226.333537 
L 115.069463 229.227183 
L 118.912686 231.146808 
L 122.755909 236.606655 
L 126.599132 242.188073 
L 130.442355 227.698777 
L 134.285579 234.705385 
L 138.128802 230.814252 
L 141.972025 231.942592 
L 145.815248 227.740836 
L 149.658471 236.026674 
L 153.501694 228.012691 
L 157.344917 230.263634 
L 161.18814 224.811997 
L 165.031364 230.229196 
L 168.874587 230.76528 
L 172.71781 233.577333 
L 176.561033 237.251098 
L 180.404256 228.661322 
L 184.247479 231.530051 
L 188.090702 237.164651 
L 191.933926 239.047605 
L 195.777149 237.619926 
L 199.620372 238.959578 
L 203.463595 233.164854 
L 207.306818 231.750721 
L 211.150041 226.686461 
L 214.993264 239.273474 
L 218.836488 232.657803 
L 222.679711 233.424586 
L 226.522934 222.18698 
L 230.366157 233.302532 
L 234.20938 235.173168 
L 238.052603 228.48501 
L 241.895826 231.850751 
L 245.73905 233.793059 
L 249.582273 235.781407 
L 253.425496 231.007924 
L 257.268719 237.782492 
L 261.111942 229.161555 
" clip-path="url(#pc570dd6779)" style="fill: none; stroke: #808080; stroke-opacity: 0.3; stroke-width: 1.5; stroke-linecap: square"/>
   </g>
   <g id="line2d_26">
    <path d="M 72.794008 235.47451 
L 76.637231 230.587746 
L 80.480455 236.648571 
L 84.323678 243.22203 
L 88.166901 241.319758 
L 92.010124 236.886076 
L 95.853347 234.291852 
L 99.69657 239.528454 
L 103.539793 230.494526 
L 107.383017 239.917194 
L 111.22624 235.390016 
L 115.069463 235.541877 
L 118.912686 232.603625 
L 122.755909 229.383095 
L 126.599132 240.000068 
L 130.442355 238.086777 
L 134.285579 235.528274 
L 138.128802 238.315663 
L 141.972025 231.882516 
L 145.815248 231.267287 
L 149.658471 243.487164 
L 153.501694 232.827351 
L 157.344917 229.133552 
L 161.18814 227.892919 
L 165.031364 240.372233 
L 168.874587 236.214831 
L 172.71781 237.637139 
L 176.561033 233.545397 
L 180.404256 239.365067 
L 184.247479 234.536954 
L 188.090702 239.408978 
L 191.933926 243.250584 
L 195.777149 238.037043 
L 199.620372 234.738475 
L 203.463595 237.630816 
L 207.306818 229.913118 
L 211.150041 232.486634 
L 214.993264 246.055736 
L 218.836488 239.086926 
L 222.679711 239.643595 
L 226.522934 234.497425 
L 230.366157 233.531338 
L 234.20938 236.544599 
L 238.052603 238.412732 
L 241.895826 244.992419 
L 245.73905 243.662948 
L 249.582273 241.267726 
L 253.425496 238.046297 
L 257.268719 234.06814 
L 261.111942 237.642683 
" clip-path="url(#pc570dd6779)" style="fill: none; stroke: #808080; stroke-opacity: 0.3; stroke-width: 1.5; stroke-linecap: square"/>
   </g>
   <g id="line2d_27">
    <path d="M 72.794008 235.034084 
L 76.637231 236.672007 
L 80.480455 236.660153 
L 84.323678 238.194836 
L 88.166901 234.407106 
L 92.010124 223.954697 
L 95.853347 219.432412 
L 99.69657 218.543004 
L 103.539793 216.019321 
L 107.383017 216.439798 
L 111.22624 215.752217 
L 115.069463 214.868457 
L 118.912686 216.237761 
L 122.755909 215.630482 
L 126.599132 215.724732 
L 130.442355 211.794618 
L 134.285579 206.212469 
L 138.128802 200.153155 
L 141.972025 196.933543 
L 145.815248 194.331842 
L 149.658471 193.880056 
L 153.501694 190.737465 
L 157.344917 192.421567 
L 161.18814 193.673185 
L 165.031364 194.67571 
L 168.874587 195.429837 
L 172.71781 195.889069 
L 176.561033 197.282365 
L 180.404256 196.837882 
L 184.247479 197.905641 
L 188.090702 197.075069 
L 191.933926 201.563835 
L 195.777149 201.14573 
L 199.620372 202.732293 
L 203.463595 201.615197 
L 207.306818 202.750102 
L 211.150041 203.553892 
L 214.993264 203.816554 
L 218.836488 204.335107 
L 222.679711 204.902469 
L 226.522934 205.917383 
L 230.366157 205.795116 
L 234.20938 207.544805 
L 238.052603 207.207298 
L 241.895826 210.573234 
L 245.73905 211.504065 
L 249.582273 209.864269 
L 253.425496 211.107571 
L 257.268719 212.299824 
L 261.111942 210.99087 
" clip-path="url(#pc570dd6779)" style="fill: none; stroke: #ffa500; stroke-opacity: 0.5; stroke-width: 7; stroke-linecap: square"/>
   </g>
   <g id="line2d_28">
    <path d="M 72.794008 236.479049 
L 84.285245 236.479049 
L 84.285245 236.479049 
" clip-path="url(#pc570dd6779)" style="fill: none; stroke: #ff0000; stroke-opacity: 0.5; stroke-width: 8; stroke-linecap: square"/>
   </g>
   <g id="line2d_29">
    <path d="M 113.147851 236.479049 
L 124.639088 236.479049 
L 124.639088 236.479049 
" clip-path="url(#pc570dd6779)" style="fill: none; stroke: #ff0000; stroke-opacity: 0.5; stroke-width: 8; stroke-linecap: square"/>
   </g>
   <g id="line2d_30">
    <path d="M 68.950785 236.479049 
L 68.950785 190.166905 
" clip-path="url(#pc570dd6779)" style="fill: none; stroke: #000000; stroke-width: 2; stroke-linecap: square"/>
   </g>
   <g id="line2d_31">
    <path d="M 72.794008 251.916431 
L 188.090702 251.916431 
" clip-path="url(#pc570dd6779)" style="fill: none; stroke: #000000; stroke-width: 2; stroke-linecap: square"/>
   </g>
   <g id="text_1">
    <text style="font: 12px 'DejaVu Sans', 'Bitstream Vera Sans', 'Computer Modern Sans Serif', 'Lucida Grande', 'Verdana', 'Geneva', 'Lucid', 'Arial', 'Helvetica', 'Avant Garde', sans-serif; text-anchor: end" x="65.107562" y="220.493572" transform="rotate(-0 65.107562 220.493572)">0.3 dF/F</text>
   </g>
   <g id="text_2">
    <text style="font: 12px 'DejaVu Sans', 'Bitstream Vera Sans', 'Computer Modern Sans Serif', 'Lucida Grande', 'Verdana', 'Geneva', 'Lucid', 'Arial', 'Helvetica', 'Avant Garde', sans-serif; text-anchor: middle" x="78.558843" y="268.753246" transform="rotate(-0 78.558843 268.753246)">1 sec</text>
   </g>
  </g>
 </g>
 <defs>
  <clipPath id="pc570dd6779">
   <rect x="59.342727" y="17.28" width="211.377273" height="245.32129"/>
  </clipPath>
 </defs>
</svg>
