<?xml version="1.0" encoding="utf-8" standalone="no"?>
<!DOCTYPE svg PUBLIC "-//W3C//DTD SVG 1.1//EN"
  "http://www.w3.org/Graphics/SVG/1.1/DTD/svg11.dtd">
<svg xmlns:xlink="http://www.w3.org/1999/xlink" width="288pt" height="288pt" viewBox="0 0 288 288" xmlns="http://www.w3.org/2000/svg" version="1.1">
 <metadata>
  <rdf:RDF xmlns:dc="http://purl.org/dc/elements/1.1/" xmlns:cc="http://creativecommons.org/ns#" xmlns:rdf="http://www.w3.org/1999/02/22-rdf-syntax-ns#">
   <cc:Work>
    <dc:type rdf:resource="http://purl.org/dc/dcmitype/StillImage"/>
    <dc:date>2023-11-16T15:28:56.471132</dc:date>
    <dc:format>image/svg+xml</dc:format>
    <dc:creator>
     <cc:Agent>
      <dc:title>Matplotlib v3.7.2, https://matplotlib.org/</dc:title>
     </cc:Agent>
    </dc:creator>
   </cc:Work>
  </rdf:RDF>
 </metadata>
 <defs>
  <style type="text/css">*{stroke-linejoin: round; stroke-linecap: butt}</style>
 </defs>
 <g id="figure_1">
  <g id="patch_1">
   <path d="M 0 288 
L 288 288 
L 288 0 
L 0 0 
z
" style="fill: #ffffff"/>
  </g>
  <g id="axes_1">
   <g id="patch_2">
    <path d="M 59.342727 262.60129 
L 270.72 262.60129 
L 270.72 17.28 
L 59.342727 17.28 
z
" style="fill: #ffffff"/>
   </g>
   <g id="matplotlib.axis_1"/>
   <g id="matplotlib.axis_2"/>
   <g id="line2d_1">
    <path d="M 72.794008 227.735239 
L 76.637231 241.813855 
L 80.480455 246.147613 
L 84.323678 223.607845 
L 88.166901 220.38933 
L 92.010124 230.781255 
L 95.853347 214.180787 
L 99.69657 198.368066 
L 103.539793 206.930604 
L 107.383017 212.417882 
L 111.22624 196.746984 
L 115.069463 186.888032 
L 118.912686 205.589566 
L 122.755909 204.871279 
L 126.599132 201.782886 
L 130.442355 189.391282 
L 134.285579 187.958058 
L 138.128802 165.579627 
L 141.972025 173.065801 
L 145.815248 184.433563 
L 149.658471 179.877942 
L 153.501694 186.895283 
L 157.344917 170.138873 
L 161.18814 174.580674 
L 165.031364 184.32339 
L 168.874587 179.140343 
L 172.71781 179.586176 
L 176.561033 176.20555 
L 180.404256 184.047428 
L 184.247479 167.15602 
L 188.090702 187.683855 
L 191.933926 183.592638 
L 195.777149 186.270432 
L 199.620372 175.699575 
L 203.463595 185.248349 
L 207.306818 174.07684 
L 211.150041 191.510293 
L 214.993264 185.087562 
L 218.836488 183.274892 
L 222.679711 199.719809 
L 226.522934 190.081776 
L 230.366157 197.812346 
L 234.20938 188.267855 
L 238.052603 197.581952 
L 241.895826 202.050337 
L 245.73905 187.703719 
L 249.582273 202.0861 
L 253.425496 192.582534 
L 257.268719 194.885789 
L 261.111942 194.919644 
" clip-path="url(#pf41ebe1a40)" style="fill: none; stroke: #808080; stroke-opacity: 0.3; stroke-width: 1.5; stroke-linecap: square"/>
   </g>
   <g id="line2d_2">
    <path d="M 72.794008 237.333669 
L 76.637231 234.855636 
L 80.480455 241.471273 
L 84.323678 233.667232 
L 88.166901 240.325937 
L 92.010124 230.816019 
L 95.853347 227.650331 
L 99.69657 204.903117 
L 103.539793 171.313336 
L 107.383017 164.158446 
L 111.22624 182.181649 
L 115.069463 160.385445 
L 118.912686 159.775539 
L 122.755909 161.994052 
L 126.599132 157.97834 
L 130.442355 155.944667 
L 134.285579 139.515246 
L 138.128802 159.666214 
L 141.972025 155.873716 
L 145.815248 128.065413 
L 149.658471 134.792274 
L 153.501694 149.510609 
L 157.344917 123.444096 
L 161.18814 134.765824 
L 165.031364 137.286447 
L 168.874587 131.637243 
L 172.71781 139.114671 
L 176.561033 137.176011 
L 180.404256 136.220031 
L 184.247479 145.269259 
L 188.090702 155.262149 
L 191.933926 130.156299 
L 195.777149 142.753188 
L 199.620372 141.586778 
L 203.463595 155.407422 
L 207.306818 158.825951 
L 211.150041 150.401694 
L 214.993264 140.239208 
L 218.836488 138.482449 
L 222.679711 140.91948 
L 226.522934 156.283239 
L 230.366157 145.01735 
L 234.20938 168.080902 
L 238.052603 172.344174 
L 241.895826 173.223706 
L 245.73905 171.092894 
L 249.582273 160.187356 
L 253.425496 170.006432 
L 257.268719 177.681639 
L 261.111942 161.159846 
" clip-path="url(#pf41ebe1a40)" style="fill: none; stroke: #808080; stroke-opacity: 0.3; stroke-width: 1.5; stroke-linecap: square"/>
   </g>
   <g id="line2d_3">
    <path d="M 72.794008 245.392314 
L 76.637231 237.293843 
L 80.480455 249.432631 
L 84.323678 235.164386 
L 88.166901 234.086957 
L 92.010124 237.491539 
L 95.853347 229.183412 
L 99.69657 205.842788 
L 103.539793 192.026623 
L 107.383017 183.043954 
L 111.22624 191.256206 
L 115.069463 189.870203 
L 118.912686 184.431102 
L 122.755909 183.08113 
L 126.599132 179.599941 
L 130.442355 172.745771 
L 134.285579 188.688409 
L 138.128802 182.602434 
L 141.972025 185.807817 
L 145.815248 181.880146 
L 149.658471 160.362152 
L 153.501694 173.120251 
L 157.344917 168.330464 
L 161.18814 156.437188 
L 165.031364 170.649428 
L 168.874587 172.089401 
L 172.71781 157.117836 
L 176.561033 176.609779 
L 180.404256 157.33862 
L 184.247479 157.479709 
L 188.090702 167.398566 
L 191.933926 173.58288 
L 195.777149 178.310034 
L 199.620372 186.121514 
L 203.463595 182.676021 
L 207.306818 178.38893 
L 211.150041 185.904074 
L 214.993264 193.583845 
L 218.836488 179.611404 
L 222.679711 176.94846 
L 226.522934 169.899277 
L 230.366157 180.673102 
L 234.20938 179.040985 
L 238.052603 172.005959 
L 241.895826 174.210819 
L 245.73905 183.173084 
L 249.582273 191.813843 
L 253.425496 199.424585 
L 257.268719 184.349026 
L 261.111942 185.894277 
" clip-path="url(#pf41ebe1a40)" style="fill: none; stroke: #808080; stroke-opacity: 0.3; stroke-width: 1.5; stroke-linecap: square"/>
   </g>
   <g id="line2d_4">
    <path d="M 72.794008 238.505819 
L 76.637231 237.329928 
L 80.480455 239.785963 
L 84.323678 231.257545 
L 88.166901 240.067475 
L 92.010124 229.913476 
L 95.853347 220.497018 
L 99.69657 212.999874 
L 103.539793 189.277902 
L 107.383017 193.478951 
L 111.22624 195.809866 
L 115.069463 193.453493 
L 118.912686 188.705787 
L 122.755909 184.621977 
L 126.599132 202.297767 
L 130.442355 189.992909 
L 134.285579 178.348694 
L 138.128802 160.435203 
L 141.972025 164.383134 
L 145.815248 163.807775 
L 149.658471 175.583827 
L 153.501694 183.151816 
L 157.344917 186.822267 
L 161.18814 175.560401 
L 165.031364 176.834264 
L 168.874587 169.518811 
L 172.71781 164.272884 
L 176.561033 159.636992 
L 180.404256 181.86635 
L 184.247479 169.726747 
L 188.090702 184.117727 
L 191.933926 187.821002 
L 195.777149 187.103516 
L 199.620372 186.073726 
L 203.463595 186.155994 
L 207.306818 166.342343 
L 211.150041 196.612189 
L 214.993264 182.452525 
L 218.836488 192.012902 
L 222.679711 199.482555 
L 226.522934 191.208227 
L 230.366157 176.944925 
L 234.20938 194.864857 
L 238.052603 185.329001 
L 241.895826 191.815097 
L 245.73905 190.574367 
L 249.582273 205.884728 
L 253.425496 201.257264 
L 257.268719 192.17151 
L 261.111942 204.146041 
" clip-path="url(#pf41ebe1a40)" style="fill: none; stroke: #808080; stroke-opacity: 0.3; stroke-width: 1.5; stroke-linecap: square"/>
   </g>
   <g id="line2d_5">
    <path d="M 72.794008 242.25641 
L 76.637231 230.823109 
L 80.480455 234.656335 
L 84.323678 247.030826 
L 88.166901 234.448217 
L 92.010124 235.471752 
L 95.853347 203.35852 
L 99.69657 190.944272 
L 103.539793 181.142161 
L 107.383017 187.361762 
L 111.22624 193.256537 
L 115.069463 189.079877 
L 118.912686 183.848558 
L 122.755909 182.566041 
L 126.599132 180.734247 
L 130.442355 177.912395 
L 134.285579 172.457024 
L 138.128802 171.65207 
L 141.972025 179.338073 
L 145.815248 187.120633 
L 149.658471 167.809691 
L 153.501694 177.749027 
L 157.344917 165.864794 
L 161.18814 168.46842 
L 165.031364 180.439036 
L 168.874587 179.059306 
L 172.71781 190.290558 
L 176.561033 186.345018 
L 180.404256 190.479491 
L 184.247479 178.463292 
L 188.090702 185.258968 
L 191.933926 190.54255 
L 195.777149 172.480148 
L 199.620372 196.680163 
L 203.463595 181.69055 
L 207.306818 178.48757 
L 211.150041 191.304351 
L 214.993264 194.851298 
L 218.836488 186.914702 
L 222.679711 180.555534 
L 226.522934 182.590064 
L 230.366157 169.424745 
L 234.20938 179.659704 
L 238.052603 176.51257 
L 241.895826 191.101337 
L 245.73905 174.97521 
L 249.582273 185.635991 
L 253.425496 172.418021 
L 257.268719 179.086625 
L 261.111942 184.086813 
" clip-path="url(#pf41ebe1a40)" style="fill: none; stroke: #808080; stroke-opacity: 0.3; stroke-width: 1.5; stroke-linecap: square"/>
   </g>
   <g id="line2d_6">
    <path d="M 72.794008 238.017116 
L 76.637231 248.536614 
L 80.480455 227.245488 
L 84.323678 238.790875 
L 88.166901 231.894261 
L 92.010124 214.176041 
L 95.853347 219.439417 
L 99.69657 190.684762 
L 103.539793 200.971557 
L 107.383017 197.063576 
L 111.22624 186.367876 
L 115.069463 186.706736 
L 118.912686 186.926426 
L 122.755909 199.721881 
L 126.599132 195.041073 
L 130.442355 185.089612 
L 134.285579 181.391461 
L 138.128802 174.681255 
L 141.972025 171.068397 
L 145.815248 163.189441 
L 149.658471 168.545667 
L 153.501694 163.819944 
L 157.344917 181.985718 
L 161.18814 184.468788 
L 165.031364 179.341044 
L 168.874587 161.097713 
L 172.71781 159.22746 
L 176.561033 177.341211 
L 180.404256 162.670776 
L 184.247479 159.52072 
L 188.090702 184.778319 
L 191.933926 174.097767 
L 195.777149 181.00132 
L 199.620372 199.105526 
L 203.463595 191.022904 
L 207.306818 178.348044 
L 211.150041 180.498442 
L 214.993264 182.615513 
L 218.836488 182.374635 
L 222.679711 168.010316 
L 226.522934 185.804094 
L 230.366157 173.14856 
L 234.20938 191.751669 
L 238.052603 197.766212 
L 241.895826 182.244865 
L 245.73905 188.054966 
L 249.582273 183.716263 
L 253.425496 204.623401 
L 257.268719 194.46102 
L 261.111942 198.668067 
" clip-path="url(#pf41ebe1a40)" style="fill: none; stroke: #808080; stroke-opacity: 0.3; stroke-width: 1.5; stroke-linecap: square"/>
   </g>
   <g id="line2d_7">
    <path d="M 72.794008 242.675975 
L 76.637231 238.051451 
L 80.480455 244.076479 
L 84.323678 236.768714 
L 88.166901 236.852412 
L 92.010124 224.915021 
L 95.853347 222.958666 
L 99.69657 211.911064 
L 103.539793 195.5341 
L 107.383017 185.750037 
L 111.22624 191.10301 
L 115.069463 178.36534 
L 118.912686 178.981034 
L 122.755909 180.022471 
L 126.599132 186.320484 
L 130.442355 178.469011 
L 134.285579 176.817647 
L 138.128802 163.915753 
L 141.972025 164.121077 
L 145.815248 148.139256 
L 149.658471 145.989055 
L 153.501694 155.310712 
L 157.344917 126.4195 
L 161.18814 148.981402 
L 165.031364 136.820632 
L 168.874587 150.323493 
L 172.71781 150.98244 
L 176.561033 149.156128 
L 180.404256 154.533998 
L 184.247479 152.704404 
L 188.090702 152.339104 
L 191.933926 149.646259 
L 195.777149 140.23689 
L 199.620372 146.479009 
L 203.463595 157.204762 
L 207.306818 150.073309 
L 211.150041 148.788055 
L 214.993264 164.161112 
L 218.836488 161.104564 
L 222.679711 158.412208 
L 226.522934 159.423246 
L 230.366157 167.30148 
L 234.20938 159.96234 
L 238.052603 168.286544 
L 241.895826 161.34388 
L 245.73905 174.707903 
L 249.582273 170.817295 
L 253.425496 171.525215 
L 257.268719 184.938268 
L 261.111942 185.553852 
" clip-path="url(#pf41ebe1a40)" style="fill: none; stroke: #808080; stroke-opacity: 0.3; stroke-width: 1.5; stroke-linecap: square"/>
   </g>
   <g id="line2d_8">
    <path d="M 72.794008 236.621709 
L 76.637231 241.279655 
L 80.480455 226.553259 
L 84.323678 232.917208 
L 88.166901 222.650329 
L 92.010124 205.360603 
L 95.853347 193.065701 
L 99.69657 176.429313 
L 103.539793 163.883253 
L 107.383017 154.650523 
L 111.22624 152.606395 
L 115.069463 155.14831 
L 118.912686 148.751212 
L 122.755909 145.384485 
L 126.599132 142.73181 
L 130.442355 137.631491 
L 134.285579 118.964249 
L 138.128802 133.409055 
L 141.972025 115.169792 
L 145.815248 115.396182 
L 149.658471 98.25887 
L 153.501694 118.14221 
L 157.344917 122.061007 
L 161.18814 126.090835 
L 165.031364 112.229706 
L 168.874587 100.307845 
L 172.71781 115.795519 
L 176.561033 112.389969 
L 180.404256 122.144688 
L 184.247479 137.246038 
L 188.090702 115.526625 
L 191.933926 118.821427 
L 195.777149 115.444631 
L 199.620372 114.430053 
L 203.463595 129.205521 
L 207.306818 132.145595 
L 211.150041 132.481851 
L 214.993264 121.869962 
L 218.836488 129.00126 
L 222.679711 132.728944 
L 226.522934 120.03911 
L 230.366157 141.755262 
L 234.20938 136.262163 
L 238.052603 148.633623 
L 241.895826 143.007113 
L 245.73905 138.570677 
L 249.582273 140.001716 
L 253.425496 145.061286 
L 257.268719 146.608793 
L 261.111942 152.622432 
" clip-path="url(#pf41ebe1a40)" style="fill: none; stroke: #808080; stroke-opacity: 0.3; stroke-width: 1.5; stroke-linecap: square"/>
   </g>
   <g id="line2d_9">
    <path d="M 72.794008 240.254695 
L 76.637231 239.74959 
L 80.480455 236.692791 
L 84.323678 228.158287 
L 88.166901 235.109782 
L 92.010124 219.889147 
L 95.853347 198.879388 
L 99.69657 176.133746 
L 103.539793 160.535234 
L 107.383017 159.30581 
L 111.22624 152.600064 
L 115.069463 154.442371 
L 118.912686 141.086931 
L 122.755909 164.069871 
L 126.599132 146.989902 
L 130.442355 149.550519 
L 134.285579 138.699179 
L 138.128802 150.65992 
L 141.972025 150.500367 
L 145.815248 135.002429 
L 149.658471 136.350255 
L 153.501694 129.757781 
L 157.344917 131.061848 
L 161.18814 140.363848 
L 165.031364 123.84307 
L 168.874587 134.083415 
L 172.71781 111.287778 
L 176.561033 138.403306 
L 180.404256 138.067143 
L 184.247479 138.195635 
L 188.090702 131.739886 
L 191.933926 131.323833 
L 195.777149 142.229557 
L 199.620372 162.952614 
L 203.463595 156.025786 
L 207.306818 151.270639 
L 211.150041 159.515003 
L 214.993264 147.467781 
L 218.836488 145.815237 
L 222.679711 159.071723 
L 226.522934 152.416812 
L 230.366157 157.314791 
L 234.20938 161.029607 
L 238.052603 151.603087 
L 241.895826 155.873754 
L 245.73905 163.100427 
L 249.582273 160.390554 
L 253.425496 163.375892 
L 257.268719 169.681288 
L 261.111942 173.476439 
" clip-path="url(#pf41ebe1a40)" style="fill: none; stroke: #808080; stroke-opacity: 0.3; stroke-width: 1.5; stroke-linecap: square"/>
   </g>
   <g id="line2d_10">
    <path d="M 72.794008 245.95109 
L 76.637231 234.829984 
L 80.480455 239.582573 
L 84.323678 238.890226 
L 88.166901 232.320995 
L 92.010124 215.140944 
L 95.853347 209.285054 
L 99.69657 182.778431 
L 103.539793 188.567907 
L 107.383017 185.293984 
L 111.22624 181.540629 
L 115.069463 177.509962 
L 118.912686 177.611745 
L 122.755909 168.208852 
L 126.599132 175.537936 
L 130.442355 177.156283 
L 134.285579 165.454487 
L 138.128802 147.306615 
L 141.972025 126.55527 
L 145.815248 150.677965 
L 149.658471 138.479989 
L 153.501694 148.507989 
L 157.344917 128.301252 
L 161.18814 132.328833 
L 165.031364 149.462605 
L 168.874587 141.571384 
L 172.71781 142.817945 
L 176.561033 135.517566 
L 180.404256 142.498432 
L 184.247479 149.097516 
L 188.090702 140.985702 
L 191.933926 159.53626 
L 195.777149 145.701283 
L 199.620372 155.656384 
L 203.463595 154.955491 
L 207.306818 152.587777 
L 211.150041 149.824407 
L 214.993264 154.864606 
L 218.836488 158.635477 
L 222.679711 160.025575 
L 226.522934 155.240169 
L 230.366157 160.916886 
L 234.20938 154.447967 
L 238.052603 156.394786 
L 241.895826 172.615462 
L 245.73905 165.879772 
L 249.582273 166.331746 
L 253.425496 165.57625 
L 257.268719 172.201799 
L 261.111942 173.249106 
" clip-path="url(#pf41ebe1a40)" style="fill: none; stroke: #808080; stroke-opacity: 0.3; stroke-width: 1.5; stroke-linecap: square"/>
   </g>
   <g id="line2d_11">
    <path d="M 72.794008 237.620671 
L 76.637231 238.924143 
L 80.480455 236.567101 
L 84.323678 236.588316 
L 88.166901 230.246662 
L 92.010124 216.548262 
L 95.853347 211.478255 
L 99.69657 202.35121 
L 103.539793 184.143225 
L 107.383017 168.260634 
L 111.22624 172.958441 
L 115.069463 154.617184 
L 118.912686 160.736223 
L 122.755909 165.157859 
L 126.599132 166.683796 
L 130.442355 153.923232 
L 134.285579 145.472787 
L 138.128802 162.163644 
L 141.972025 146.64202 
L 145.815248 153.134564 
L 149.658471 143.427365 
L 153.501694 150.385333 
L 157.344917 156.293852 
L 161.18814 148.776181 
L 165.031364 160.288622 
L 168.874587 156.119624 
L 172.71781 146.011942 
L 176.561033 146.387765 
L 180.404256 153.133392 
L 184.247479 165.811505 
L 188.090702 163.230622 
L 191.933926 164.073512 
L 195.777149 173.795976 
L 199.620372 163.546194 
L 203.463595 156.266465 
L 207.306818 172.16354 
L 211.150041 161.491839 
L 214.993264 173.24549 
L 218.836488 169.599485 
L 222.679711 162.849107 
L 226.522934 172.511932 
L 230.366157 165.031061 
L 234.20938 176.930585 
L 238.052603 173.880363 
L 241.895826 158.99521 
L 245.73905 179.636677 
L 249.582273 178.251996 
L 253.425496 193.819228 
L 257.268719 189.219812 
L 261.111942 184.481903 
" clip-path="url(#pf41ebe1a40)" style="fill: none; stroke: #808080; stroke-opacity: 0.3; stroke-width: 1.5; stroke-linecap: square"/>
   </g>
   <g id="line2d_12">
    <path d="M 72.794008 243.327804 
L 76.637231 239.957347 
L 80.480455 237.505399 
L 84.323678 250.143472 
L 88.166901 238.092524 
L 92.010124 216.446719 
L 95.853347 202.416263 
L 99.69657 175.615917 
L 103.539793 179.723773 
L 107.383017 169.33434 
L 111.22624 169.313809 
L 115.069463 151.549077 
L 118.912686 158.290469 
L 122.755909 157.020356 
L 126.599132 161.700435 
L 130.442355 149.89096 
L 134.285579 149.354137 
L 138.128802 128.114013 
L 141.972025 120.075558 
L 145.815248 118.067913 
L 149.658471 115.788425 
L 153.501694 102.915219 
L 157.344917 119.309921 
L 161.18814 127.792235 
L 165.031364 119.539446 
L 168.874587 128.684904 
L 172.71781 113.22449 
L 176.561033 120.900492 
L 180.404256 131.268737 
L 184.247479 118.300225 
L 188.090702 120.915094 
L 191.933926 137.307386 
L 195.777149 122.396166 
L 199.620372 126.957552 
L 203.463595 133.145686 
L 207.306818 124.707934 
L 211.150041 140.070853 
L 214.993264 133.845519 
L 218.836488 151.175553 
L 222.679711 142.637619 
L 226.522934 144.948754 
L 230.366157 141.430888 
L 234.20938 154.735893 
L 238.052603 156.425002 
L 241.895826 166.076591 
L 245.73905 158.300874 
L 249.582273 150.471456 
L 253.425496 164.888749 
L 257.268719 143.120564 
L 261.111942 159.479777 
" clip-path="url(#pf41ebe1a40)" style="fill: none; stroke: #808080; stroke-opacity: 0.3; stroke-width: 1.5; stroke-linecap: square"/>
   </g>
   <g id="line2d_13">
    <path d="M 72.794008 233.257925 
L 76.637231 230.802748 
L 80.480455 234.08389 
L 84.323678 232.436173 
L 88.166901 225.286458 
L 92.010124 225.465763 
L 95.853347 194.114308 
L 99.69657 174.876308 
L 103.539793 172.067127 
L 107.383017 173.978866 
L 111.22624 164.626728 
L 115.069463 136.157143 
L 118.912686 162.315191 
L 122.755909 169.44678 
L 126.599132 157.211719 
L 130.442355 157.366614 
L 134.285579 142.787229 
L 138.128802 134.594118 
L 141.972025 125.538348 
L 145.815248 103.885135 
L 149.658471 103.183348 
L 153.501694 110.40694 
L 157.344917 96.227954 
L 161.18814 111.92716 
L 165.031364 108.148889 
L 168.874587 108.015121 
L 172.71781 120.93634 
L 176.561033 125.159628 
L 180.404256 140.00977 
L 184.247479 135.091468 
L 188.090702 118.353752 
L 191.933926 135.570006 
L 195.777149 113.07351 
L 199.620372 136.124148 
L 203.463595 138.668181 
L 207.306818 124.650251 
L 211.150041 133.601427 
L 214.993264 125.815609 
L 218.836488 123.015344 
L 222.679711 123.485419 
L 226.522934 138.416015 
L 230.366157 143.378629 
L 234.20938 156.162223 
L 238.052603 145.837773 
L 241.895826 156.269022 
L 245.73905 157.909427 
L 249.582273 174.287493 
L 253.425496 159.918914 
L 257.268719 147.474382 
L 261.111942 159.105502 
" clip-path="url(#pf41ebe1a40)" style="fill: none; stroke: #808080; stroke-opacity: 0.3; stroke-width: 1.5; stroke-linecap: square"/>
   </g>
   <g id="line2d_14">
    <path d="M 72.794008 230.945519 
L 76.637231 246.461949 
L 80.480455 238.375556 
L 84.323678 238.903936 
L 88.166901 225.138207 
L 92.010124 201.160879 
L 95.853347 189.061445 
L 99.69657 160.156978 
L 103.539793 135.213644 
L 107.383017 117.135122 
L 111.22624 123.169191 
L 115.069463 114.729314 
L 118.912686 126.35651 
L 122.755909 120.713025 
L 126.599132 127.030172 
L 130.442355 112.214971 
L 134.285579 88.876936 
L 138.128802 79.9576 
L 141.972025 60.379208 
L 145.815248 51.356125 
L 149.658471 18.823738 
L 153.501694 50.496753 
L 157.344917 55.659232 
L 161.18814 43.664441 
L 165.031364 64.304912 
L 168.874587 49.02924 
L 172.71781 75.169672 
L 176.561033 72.749135 
L 180.404256 67.209673 
L 184.247479 75.022908 
L 188.090702 67.48815 
L 191.933926 58.898049 
L 195.777149 78.784244 
L 199.620372 44.953366 
L 203.463595 79.934466 
L 207.306818 99.488763 
L 211.150041 84.961206 
L 214.993264 102.205425 
L 218.836488 77.256098 
L 222.679711 100.623814 
L 226.522934 67.650904 
L 230.366157 101.075737 
L 234.20938 109.038965 
L 238.052603 80.5698 
L 241.895826 97.84318 
L 245.73905 109.159996 
L 249.582273 104.514928 
L 253.425496 129.863243 
L 257.268719 104.501249 
L 261.111942 119.580938 
" clip-path="url(#pf41ebe1a40)" style="fill: none; stroke: #808080; stroke-opacity: 0.3; stroke-width: 1.5; stroke-linecap: square"/>
   </g>
   <g id="line2d_15">
    <path d="M 72.794008 236.332258 
L 76.637231 242.205602 
L 80.480455 224.361307 
L 84.323678 238.661249 
L 88.166901 221.797468 
L 92.010124 205.005507 
L 95.853347 183.541394 
L 99.69657 161.534607 
L 103.539793 160.896592 
L 107.383017 152.553211 
L 111.22624 136.975274 
L 115.069463 144.513373 
L 118.912686 137.515723 
L 122.755909 142.185376 
L 126.599132 147.076892 
L 130.442355 138.868295 
L 134.285579 152.247433 
L 138.128802 140.624142 
L 141.972025 154.079075 
L 145.815248 152.802098 
L 149.658471 147.229929 
L 153.501694 146.868075 
L 157.344917 155.58594 
L 161.18814 143.544684 
L 165.031364 166.262608 
L 168.874587 157.16473 
L 172.71781 161.573032 
L 176.561033 162.519524 
L 180.404256 158.781507 
L 184.247479 149.55454 
L 188.090702 163.784581 
L 191.933926 175.41469 
L 195.777149 169.542661 
L 199.620372 145.230108 
L 203.463595 154.696386 
L 207.306818 174.136837 
L 211.150041 160.716446 
L 214.993264 153.765164 
L 218.836488 175.91192 
L 222.679711 168.58536 
L 226.522934 164.378572 
L 230.366157 171.0846 
L 234.20938 163.671756 
L 238.052603 166.135164 
L 241.895826 168.305245 
L 245.73905 166.436113 
L 249.582273 184.15468 
L 253.425496 181.215019 
L 257.268719 172.592211 
L 261.111942 166.693842 
" clip-path="url(#pf41ebe1a40)" style="fill: none; stroke: #808080; stroke-opacity: 0.3; stroke-width: 1.5; stroke-linecap: square"/>
   </g>
   <g id="line2d_16">
    <path d="M 72.794008 236.733547 
L 76.637231 240.766124 
L 80.480455 229.959584 
L 84.323678 236.293143 
L 88.166901 232.411869 
L 92.010124 235.025527 
L 95.853347 237.428969 
L 99.69657 224.448554 
L 103.539793 228.783889 
L 107.383017 228.209797 
L 111.22624 237.863988 
L 115.069463 238.703259 
L 118.912686 246.251587 
L 122.755909 232.893511 
L 126.599132 238.331155 
L 130.442355 234.161253 
L 134.285579 233.686527 
L 138.128802 238.385659 
L 141.972025 236.18807 
L 145.815248 220.328796 
L 149.658471 227.19942 
L 153.501694 225.671654 
L 157.344917 223.837505 
L 161.18814 230.32437 
L 165.031364 225.447356 
L 168.874587 209.934228 
L 172.71781 226.326828 
L 176.561033 220.751146 
L 180.404256 227.958483 
L 184.247479 236.896575 
L 188.090702 215.90567 
L 191.933926 224.808508 
L 195.777149 222.253347 
L 199.620372 222.429964 
L 203.463595 232.159554 
L 207.306818 224.126685 
L 211.150041 231.005019 
L 214.993264 229.8202 
L 218.836488 233.437158 
L 222.679711 226.540081 
L 226.522934 219.332767 
L 230.366157 229.828622 
L 234.20938 228.65562 
L 238.052603 211.715242 
L 241.895826 228.731168 
L 245.73905 226.582089 
L 249.582273 235.222268 
L 253.425496 227.207521 
L 257.268719 245.8816 
L 261.111942 233.60037 
" clip-path="url(#pf41ebe1a40)" style="fill: none; stroke: #808080; stroke-opacity: 0.3; stroke-width: 1.5; stroke-linecap: square"/>
   </g>
   <g id="line2d_17">
    <path d="M 72.794008 229.184606 
L 76.637231 232.516797 
L 80.480455 228.063298 
L 84.323678 226.500022 
L 88.166901 231.564965 
L 92.010124 196.240885 
L 95.853347 192.49636 
L 99.69657 179.471982 
L 103.539793 175.929298 
L 107.383017 178.030811 
L 111.22624 181.369289 
L 115.069463 177.260273 
L 118.912686 179.145121 
L 122.755909 188.891196 
L 126.599132 168.486427 
L 130.442355 181.74172 
L 134.285579 179.189819 
L 138.128802 182.560627 
L 141.972025 179.494755 
L 145.815248 180.420257 
L 149.658471 177.259309 
L 153.501694 184.492594 
L 157.344917 180.559847 
L 161.18814 193.150403 
L 165.031364 184.450523 
L 168.874587 184.940907 
L 172.71781 183.247127 
L 176.561033 184.309637 
L 180.404256 182.470669 
L 184.247479 184.317748 
L 188.090702 193.141581 
L 191.933926 184.028369 
L 195.777149 188.930858 
L 199.620372 190.32016 
L 203.463595 191.009 
L 207.306818 203.738068 
L 211.150041 196.697561 
L 214.993264 195.080936 
L 218.836488 197.514633 
L 222.679711 190.524606 
L 226.522934 193.221879 
L 230.366157 202.875782 
L 234.20938 197.021301 
L 238.052603 211.584875 
L 241.895826 193.801865 
L 245.73905 205.505813 
L 249.582273 199.154892 
L 253.425496 200.638649 
L 257.268719 195.186842 
L 261.111942 194.709997 
" clip-path="url(#pf41ebe1a40)" style="fill: none; stroke: #808080; stroke-opacity: 0.3; stroke-width: 1.5; stroke-linecap: square"/>
   </g>
   <g id="line2d_18">
    <path d="M 72.794008 235.41556 
L 76.637231 241.824022 
L 80.480455 236.721195 
L 84.323678 237.838202 
L 88.166901 233.727068 
L 92.010124 216.191507 
L 95.853347 209.903398 
L 99.69657 201.303854 
L 103.539793 196.068427 
L 107.383017 189.353783 
L 111.22624 196.935098 
L 115.069463 171.878882 
L 118.912686 190.003713 
L 122.755909 193.000534 
L 126.599132 170.648198 
L 130.442355 189.96829 
L 134.285579 152.938569 
L 138.128802 150.730333 
L 141.972025 163.91004 
L 145.815248 162.2311 
L 149.658471 162.737728 
L 153.501694 152.173733 
L 157.344917 151.911386 
L 161.18814 150.629265 
L 165.031364 160.633008 
L 168.874587 148.201435 
L 172.71781 165.558858 
L 176.561033 162.654737 
L 180.404256 164.366337 
L 184.247479 160.415692 
L 188.090702 169.392421 
L 191.933926 165.372544 
L 195.777149 169.026389 
L 199.620372 168.397345 
L 203.463595 178.059291 
L 207.306818 174.317696 
L 211.150041 171.748865 
L 214.993264 160.364887 
L 218.836488 177.893152 
L 222.679711 168.041857 
L 226.522934 178.628554 
L 230.366157 183.880345 
L 234.20938 187.223339 
L 238.052603 178.951405 
L 241.895826 178.756384 
L 245.73905 181.823261 
L 249.582273 176.84638 
L 253.425496 177.845246 
L 257.268719 185.65617 
L 261.111942 199.919334 
" clip-path="url(#pf41ebe1a40)" style="fill: none; stroke: #808080; stroke-opacity: 0.3; stroke-width: 1.5; stroke-linecap: square"/>
   </g>
   <g id="line2d_19">
    <path d="M 72.794008 243.414284 
L 76.637231 240.817906 
L 80.480455 234.817934 
L 84.323678 242.453545 
L 88.166901 222.207859 
L 92.010124 211.274097 
L 95.853347 191.229749 
L 99.69657 191.476213 
L 103.539793 167.246883 
L 107.383017 165.961452 
L 111.22624 160.1902 
L 115.069463 167.701269 
L 118.912686 171.668757 
L 122.755909 175.663926 
L 126.599132 163.668146 
L 130.442355 172.616526 
L 134.285579 145.448693 
L 138.128802 139.571054 
L 141.972025 135.728975 
L 145.815248 114.48443 
L 149.658471 121.531419 
L 153.501694 130.060368 
L 157.344917 142.165433 
L 161.18814 125.870623 
L 165.031364 128.354052 
L 168.874587 137.294936 
L 172.71781 142.55746 
L 176.561033 142.232612 
L 180.404256 139.293365 
L 184.247479 151.952575 
L 188.090702 152.229409 
L 191.933926 162.106693 
L 195.777149 141.423976 
L 199.620372 152.054732 
L 203.463595 157.684008 
L 207.306818 152.711133 
L 211.150041 149.999306 
L 214.993264 148.143053 
L 218.836488 172.637868 
L 222.679711 160.910571 
L 226.522934 151.736436 
L 230.366157 162.846562 
L 234.20938 171.696195 
L 238.052603 174.135529 
L 241.895826 173.065871 
L 245.73905 174.698124 
L 249.582273 181.065427 
L 253.425496 165.244468 
L 257.268719 186.553982 
L 261.111942 171.995802 
" clip-path="url(#pf41ebe1a40)" style="fill: none; stroke: #808080; stroke-opacity: 0.3; stroke-width: 1.5; stroke-linecap: square"/>
   </g>
   <g id="line2d_20">
    <path d="M 72.794008 240.686834 
L 76.637231 251.045063 
L 80.480455 236.862075 
L 84.323678 241.904014 
L 88.166901 215.224749 
L 92.010124 209.485236 
L 95.853347 185.841882 
L 99.69657 143.671935 
L 103.539793 145.968823 
L 107.383017 155.443837 
L 111.22624 147.048385 
L 115.069463 151.679879 
L 118.912686 140.394197 
L 122.755909 158.923354 
L 126.599132 152.358078 
L 130.442355 149.00358 
L 134.285579 118.311529 
L 138.128802 112.707125 
L 141.972025 115.820389 
L 145.815248 126.246319 
L 149.658471 118.842704 
L 153.501694 109.608028 
L 157.344917 112.407273 
L 161.18814 110.416655 
L 165.031364 120.438466 
L 168.874587 119.2638 
L 172.71781 115.785324 
L 176.561033 120.722247 
L 180.404256 106.456573 
L 184.247479 129.047076 
L 188.090702 124.553099 
L 191.933926 135.32697 
L 195.777149 126.516503 
L 199.620372 126.910082 
L 203.463595 140.72936 
L 207.306818 136.247333 
L 211.150041 118.901534 
L 214.993264 134.446342 
L 218.836488 149.5787 
L 222.679711 132.008264 
L 226.522934 135.508702 
L 230.366157 134.636585 
L 234.20938 150.709634 
L 238.052603 149.399734 
L 241.895826 165.868433 
L 245.73905 149.477525 
L 249.582273 159.057612 
L 253.425496 163.667928 
L 257.268719 161.324608 
L 261.111942 164.870716 
" clip-path="url(#pf41ebe1a40)" style="fill: none; stroke: #808080; stroke-opacity: 0.3; stroke-width: 1.5; stroke-linecap: square"/>
   </g>
   <g id="line2d_21">
    <path d="M 72.794008 238.009004 
L 76.637231 238.240555 
L 80.480455 238.145135 
L 84.323678 240.509898 
L 88.166901 226.582352 
L 92.010124 217.943175 
L 95.853347 190.482698 
L 99.69657 146.222784 
L 103.539793 149.909441 
L 107.383017 126.832871 
L 111.22624 134.239631 
L 115.069463 133.207333 
L 118.912686 128.526003 
L 122.755909 128.496797 
L 126.599132 127.064354 
L 130.442355 134.211808 
L 134.285579 111.153062 
L 138.128802 68.578499 
L 141.972025 75.1764 
L 145.815248 71.520649 
L 149.658471 53.289043 
L 153.501694 51.780741 
L 157.344917 21.646229 
L 161.18814 45.415455 
L 165.031364 36.645733 
L 168.874587 33.761548 
L 172.71781 49.109517 
L 176.561033 59.874272 
L 180.404256 53.869196 
L 184.247479 61.203812 
L 188.090702 70.156546 
L 191.933926 66.862103 
L 195.777149 59.86023 
L 199.620372 76.877153 
L 203.463595 65.076465 
L 207.306818 87.971874 
L 211.150041 92.122275 
L 214.993264 85.951039 
L 218.836488 76.341802 
L 222.679711 100.313614 
L 226.522934 91.598236 
L 230.366157 106.371662 
L 234.20938 106.384813 
L 238.052603 120.277155 
L 241.895826 98.585587 
L 245.73905 115.775399 
L 249.582273 114.495884 
L 253.425496 117.895939 
L 257.268719 102.982953 
L 261.111942 115.260878 
" clip-path="url(#pf41ebe1a40)" style="fill: none; stroke: #808080; stroke-opacity: 0.3; stroke-width: 1.5; stroke-linecap: square"/>
   </g>
   <g id="line2d_22">
    <path d="M 72.794008 235.842306 
L 76.637231 238.549311 
L 80.480455 226.764483 
L 84.323678 242.041772 
L 88.166901 240.746007 
L 92.010124 218.077931 
L 95.853347 188.501216 
L 99.69657 189.484125 
L 103.539793 175.384084 
L 107.383017 171.095645 
L 111.22624 165.617135 
L 115.069463 174.220355 
L 118.912686 162.785814 
L 122.755909 162.068435 
L 126.599132 169.14794 
L 130.442355 147.407207 
L 134.285579 100.834096 
L 138.128802 91.629631 
L 141.972025 102.927043 
L 145.815248 88.057668 
L 149.658471 96.664105 
L 153.501694 79.206452 
L 157.344917 76.514088 
L 161.18814 88.193569 
L 165.031364 88.00952 
L 168.874587 90.125985 
L 172.71781 100.118199 
L 176.561033 86.076676 
L 180.404256 105.28464 
L 184.247479 107.689876 
L 188.090702 87.464188 
L 191.933926 108.928547 
L 195.777149 95.062579 
L 199.620372 103.093049 
L 203.463595 114.665123 
L 207.306818 97.541217 
L 211.150041 109.565406 
L 214.993264 106.454377 
L 218.836488 119.998947 
L 222.679711 131.893126 
L 226.522934 122.410155 
L 230.366157 128.127542 
L 234.20938 121.871745 
L 238.052603 135.30847 
L 241.895826 124.451887 
L 245.73905 131.086674 
L 249.582273 142.474664 
L 253.425496 135.274812 
L 257.268719 137.235688 
L 261.111942 135.90615 
" clip-path="url(#pf41ebe1a40)" style="fill: none; stroke: #808080; stroke-opacity: 0.3; stroke-width: 1.5; stroke-linecap: square"/>
   </g>
   <g id="line2d_23">
    <path d="M 72.794008 231.430133 
L 76.637231 239.032135 
L 80.480455 232.326342 
L 84.323678 233.38071 
L 88.166901 231.871504 
L 92.010124 214.40914 
L 95.853347 200.70835 
L 99.69657 205.085334 
L 103.539793 191.633846 
L 107.383017 188.075467 
L 111.22624 189.766366 
L 115.069463 197.411135 
L 118.912686 191.299225 
L 122.755909 194.335526 
L 126.599132 190.358062 
L 130.442355 198.100179 
L 134.285579 185.070129 
L 138.128802 186.771833 
L 141.972025 163.039234 
L 145.815248 148.241477 
L 149.658471 127.127081 
L 153.501694 157.550092 
L 157.344917 152.081596 
L 161.18814 155.636885 
L 165.031364 145.482755 
L 168.874587 135.046173 
L 172.71781 142.102776 
L 176.561033 138.905559 
L 180.404256 137.834063 
L 184.247479 147.861094 
L 188.090702 147.219594 
L 191.933926 143.997012 
L 195.777149 149.674385 
L 199.620372 141.29374 
L 203.463595 159.710782 
L 207.306818 162.632749 
L 211.150041 162.862379 
L 214.993264 156.306935 
L 218.836488 152.866229 
L 222.679711 174.716311 
L 226.522934 167.511475 
L 230.366157 172.283783 
L 234.20938 168.631918 
L 238.052603 164.031616 
L 241.895826 177.403062 
L 245.73905 175.108996 
L 249.582273 164.483102 
L 253.425496 181.225268 
L 257.268719 173.150467 
L 261.111942 179.239757 
" clip-path="url(#pf41ebe1a40)" style="fill: none; stroke: #808080; stroke-opacity: 0.3; stroke-width: 1.5; stroke-linecap: square"/>
   </g>
   <g id="line2d_24">
    <path d="M 72.794008 238.732846 
L 76.637231 239.616046 
L 80.480455 240.835837 
L 84.323678 229.54562 
L 88.166901 224.751128 
L 92.010124 203.261525 
L 95.853347 190.438335 
L 99.69657 182.312426 
L 103.539793 190.663935 
L 107.383017 187.527212 
L 111.22624 183.418807 
L 115.069463 181.868163 
L 118.912686 180.755176 
L 122.755909 186.593006 
L 126.599132 171.761116 
L 130.442355 170.972297 
L 134.285579 173.642567 
L 138.128802 173.740987 
L 141.972025 185.968354 
L 145.815248 167.62484 
L 149.658471 177.384115 
L 153.501694 177.659991 
L 157.344917 195.691544 
L 161.18814 200.619867 
L 165.031364 175.134584 
L 168.874587 177.471092 
L 172.71781 191.122972 
L 176.561033 193.090386 
L 180.404256 193.294379 
L 184.247479 189.471205 
L 188.090702 182.943798 
L 191.933926 201.641039 
L 195.777149 201.872183 
L 199.620372 208.419498 
L 203.463595 200.751017 
L 207.306818 218.605627 
L 211.150041 198.58568 
L 214.993264 207.670928 
L 218.836488 214.747258 
L 222.679711 215.156875 
L 226.522934 218.985833 
L 230.366157 208.787325 
L 234.20938 211.364264 
L 238.052603 201.349122 
L 241.895826 209.340002 
L 245.73905 206.077639 
L 249.582273 208.802863 
L 253.425496 205.718984 
L 257.268719 214.944007 
L 261.111942 214.199304 
" clip-path="url(#pf41ebe1a40)" style="fill: none; stroke: #808080; stroke-opacity: 0.3; stroke-width: 1.5; stroke-linecap: square"/>
   </g>
   <g id="line2d_25">
    <path d="M 72.794008 231.628257 
L 76.637231 236.19325 
L 80.480455 236.026374 
L 84.323678 234.437153 
L 88.166901 219.918547 
L 92.010124 209.617925 
L 95.853347 192.024887 
L 99.69657 160.323828 
L 103.539793 154.220996 
L 107.383017 149.041926 
L 111.22624 140.336765 
L 115.069463 146.343656 
L 118.912686 143.637569 
L 122.755909 145.398672 
L 126.599132 131.311508 
L 130.442355 128.622701 
L 134.285579 128.438408 
L 138.128802 140.913003 
L 141.972025 132.426511 
L 145.815248 136.116689 
L 149.658471 107.261325 
L 153.501694 122.666071 
L 157.344917 128.767052 
L 161.18814 135.260252 
L 165.031364 129.086061 
L 168.874587 130.632575 
L 172.71781 143.167728 
L 176.561033 149.995675 
L 180.404256 143.354318 
L 184.247479 157.931711 
L 188.090702 154.919723 
L 191.933926 155.754012 
L 195.777149 157.046097 
L 199.620372 149.511069 
L 203.463595 152.424271 
L 207.306818 165.18454 
L 211.150041 168.903404 
L 214.993264 162.639204 
L 218.836488 165.604313 
L 222.679711 166.571537 
L 226.522934 158.733007 
L 230.366157 158.034303 
L 234.20938 168.641958 
L 238.052603 176.993493 
L 241.895826 175.307006 
L 245.73905 172.474076 
L 249.582273 176.616096 
L 253.425496 180.282104 
L 257.268719 165.059754 
L 261.111942 173.48435 
" clip-path="url(#pf41ebe1a40)" style="fill: none; stroke: #808080; stroke-opacity: 0.3; stroke-width: 1.5; stroke-linecap: square"/>
   </g>
   <g id="line2d_26">
    <path d="M 72.794008 237.200302 
L 76.637231 236.559498 
L 80.480455 232.635533 
L 84.323678 224.12077 
L 88.166901 233.052799 
L 92.010124 227.225137 
L 95.853347 197.20945 
L 99.69657 176.712895 
L 103.539793 160.479769 
L 107.383017 156.255789 
L 111.22624 157.09915 
L 115.069463 156.628359 
L 118.912686 154.787567 
L 122.755909 158.454946 
L 126.599132 152.978509 
L 130.442355 151.878115 
L 134.285579 129.758729 
L 138.128802 132.059194 
L 141.972025 109.637117 
L 145.815248 78.398395 
L 149.658471 70.458161 
L 153.501694 63.88679 
L 157.344917 63.98757 
L 161.18814 49.953764 
L 165.031364 66.958424 
L 168.874587 64.28843 
L 172.71781 71.214338 
L 176.561033 68.980042 
L 180.404256 40.748747 
L 184.247479 62.763373 
L 188.090702 52.319506 
L 191.933926 67.25669 
L 195.777149 59.754632 
L 199.620372 67.200206 
L 203.463595 80.659424 
L 207.306818 76.675172 
L 211.150041 78.69558 
L 214.993264 70.334758 
L 218.836488 89.962462 
L 222.679711 82.080602 
L 226.522934 97.38006 
L 230.366157 91.057456 
L 234.20938 81.354809 
L 238.052603 94.263319 
L 241.895826 94.804212 
L 245.73905 93.236865 
L 249.582273 108.247803 
L 253.425496 100.571728 
L 257.268719 109.985784 
L 261.111942 115.375635 
" clip-path="url(#pf41ebe1a40)" style="fill: none; stroke: #808080; stroke-opacity: 0.3; stroke-width: 1.5; stroke-linecap: square"/>
   </g>
   <g id="line2d_27">
    <path d="M 72.794008 237.480996 
L 76.637231 239.156775 
L 80.480455 235.757517 
L 84.323678 235.846582 
L 88.166901 230.029456 
L 92.010124 217.974423 
L 95.853347 203.668279 
L 99.69657 185.617092 
L 103.539793 177.635247 
L 107.383017 173.062142 
L 111.22624 172.476826 
L 115.069463 168.08917 
L 118.912686 168.852952 
L 122.755909 171.299436 
L 126.599132 167.878111 
L 130.442355 164.801219 
L 134.285579 153.288658 
L 138.128802 148.961908 
L 141.972025 145.881328 
L 145.815248 139.639587 
L 149.658471 133.625267 
L 153.501694 138.530556 
L 157.344917 136.041394 
L 161.18814 138.585462 
L 165.031364 139.63133 
L 168.874587 136.492449 
L 172.71781 140.681534 
L 176.561033 142.465041 
L 180.404256 142.892339 
L 184.247479 145.699643 
L 188.090702 145.734948 
L 191.933926 149.479502 
L 195.777149 146.944028 
L 199.620372 149.54245 
L 203.463595 154.432011 
L 207.306818 154.440247 
L 211.150041 155.644967 
L 214.993264 154.357049 
L 218.836488 157.875709 
L 222.679711 158.569745 
L 226.522934 157.151511 
L 230.366157 160.424628 
L 234.20938 164.133195 
L 238.052603 164.127537 
L 241.895826 165.965042 
L 245.73905 166.966253 
L 249.582273 170.192813 
L 253.425496 171.966488 
L 257.268719 170.420609 
L 261.111942 173.141568 
" clip-path="url(#pf41ebe1a40)" style="fill: none; stroke: #0000ff; stroke-opacity: 0.5; stroke-width: 7; stroke-linecap: square"/>
   </g>
   <g id="line2d_28">
    <path d="M 72.794008 236.479049 
L 84.285245 236.479049 
L 84.285245 236.479049 
" clip-path="url(#pf41ebe1a40)" style="fill: none; stroke: #ff0000; stroke-opacity: 0.5; stroke-width: 8; stroke-linecap: square"/>
   </g>
   <g id="line2d_29">
    <path d="M 113.147851 236.479049 
L 124.639088 236.479049 
L 124.639088 236.479049 
" clip-path="url(#pf41ebe1a40)" style="fill: none; stroke: #ff0000; stroke-opacity: 0.5; stroke-width: 8; stroke-linecap: square"/>
   </g>
   <g id="line2d_30">
    <path d="M 68.950785 236.479049 
L 68.950785 190.166905 
" clip-path="url(#pf41ebe1a40)" style="fill: none; stroke: #000000; stroke-width: 2; stroke-linecap: square"/>
   </g>
   <g id="line2d_31">
    <path d="M 72.794008 251.916431 
L 188.090702 251.916431 
" clip-path="url(#pf41ebe1a40)" style="fill: none; stroke: #000000; stroke-width: 2; stroke-linecap: square"/>
   </g>
   <g id="text_1">
    <text style="font: 12px 'DejaVu Sans', 'Bitstream Vera Sans', 'Computer Modern Sans Serif', 'Lucida Grande', 'Verdana', 'Geneva', 'Lucid', 'Arial', 'Helvetica', 'Avant Garde', sans-serif; text-anchor: end" x="65.107562" y="220.493572" transform="rotate(-0 65.107562 220.493572)">0.3 dF/F</text>
   </g>
   <g id="text_2">
    <text style="font: 12px 'DejaVu Sans', 'Bitstream Vera Sans', 'Computer Modern Sans Serif', 'Lucida Grande', 'Verdana', 'Geneva', 'Lucid', 'Arial', 'Helvetica', 'Avant Garde', sans-serif; text-anchor: middle" x="78.558843" y="268.753246" transform="rotate(-0 78.558843 268.753246)">1 sec</text>
   </g>
  </g>
 </g>
 <defs>
  <clipPath id="pf41ebe1a40">
   <rect x="59.342727" y="17.28" width="211.377273" height="245.32129"/>
  </clipPath>
 </defs>
</svg>
