<?xml version="1.0" encoding="utf-8" standalone="no"?>
<!DOCTYPE svg PUBLIC "-//W3C//DTD SVG 1.1//EN"
  "http://www.w3.org/Graphics/SVG/1.1/DTD/svg11.dtd">
<svg xmlns:xlink="http://www.w3.org/1999/xlink" width="137.537008pt" height="107.262992pt" viewBox="0 0 137.537008 107.262992" xmlns="http://www.w3.org/2000/svg" version="1.1">
 <metadata>
  <rdf:RDF xmlns:dc="http://purl.org/dc/elements/1.1/" xmlns:cc="http://creativecommons.org/ns#" xmlns:rdf="http://www.w3.org/1999/02/22-rdf-syntax-ns#">
   <cc:Work>
    <dc:type rdf:resource="http://purl.org/dc/dcmitype/StillImage"/>
    <dc:date>2024-04-02T14:45:49.135739</dc:date>
    <dc:format>image/svg+xml</dc:format>
    <dc:creator>
     <cc:Agent>
      <dc:title>Matplotlib v3.7.2, https://matplotlib.org/</dc:title>
     </cc:Agent>
    </dc:creator>
   </cc:Work>
  </rdf:RDF>
 </metadata>
 <defs>
  <style type="text/css">*{stroke-linejoin: round; stroke-linecap: butt}</style>
 </defs>
 <g id="figure_1">
  <g id="patch_1">
   <path d="M 0 107.262992 
L 137.537008 107.262992 
L 137.537008 0 
L 0 0 
L 0 107.262992 
z
" style="fill: none"/>
  </g>
  <g id="axes_1">
   <g id="patch_2">
    <path d="M 7.2 100.062992 
L 130.337008 100.062992 
L 130.337008 7.2 
L 7.2 7.2 
L 7.2 100.062992 
z
" style="fill: none"/>
   </g>
   <g id="matplotlib.axis_1"/>
   <g id="matplotlib.axis_2"/>
   <g id="line2d_1">
    <path d="M 12.797137 84.076713 
L 14.214133 85.271005 
L 15.63113 84.712572 
L 17.048127 86.94388 
L 18.465123 84.449996 
L 19.88212 87.965471 
L 21.299117 87.220816 
L 22.716113 89.942341 
L 24.13311 88.140496 
L 25.550106 89.716572 
L 26.967103 90.488738 
L 28.3841 89.993209 
L 29.801096 90.772106 
L 31.218093 93.733194 
L 32.63509 93.231162 
L 34.052086 93.807547 
L 35.469083 93.705969 
L 36.88608 93.705969 
L 38.303076 94.357798 
L 39.720073 94.486024 
L 41.137069 93.871365 
L 42.554066 93.730273 
L 43.971063 86.211251 
L 45.388059 79.054294 
L 46.805056 69.865487 
L 48.222053 64.927797 
L 49.639049 66.154951 
L 51.056046 61.249123 
L 52.473043 65.57226 
L 53.890039 62.529735 
L 55.307036 63.965622 
L 56.724033 60.920206 
L 58.141029 56.14407 
L 59.558026 51.409359 
L 60.975022 48.471617 
L 62.392019 41.310076 
L 63.809016 40.217388 
L 65.226012 38.186702 
L 66.643009 38.125307 
L 68.060006 40.293618 
L 69.477002 36.373883 
L 70.893999 36.670491 
L 72.310996 39.802692 
L 73.727992 38.739104 
L 75.144989 37.894054 
L 76.561985 39.238829 
L 77.978982 35.687819 
L 79.395979 42.712567 
L 80.812975 43.339013 
L 82.229972 39.942745 
L 83.646969 43.036218 
L 85.063965 46.235318 
L 86.480962 43.986359 
L 87.897959 43.98451 
L 89.314955 48.047962 
L 90.731952 45.744534 
L 92.148948 44.63932 
L 93.565945 45.987861 
L 94.982942 47.320087 
L 96.399938 44.838511 
L 97.816935 48.216792 
L 99.233932 50.689335 
L 100.650928 48.4081 
L 102.067925 48.361916 
L 103.484922 50.539145 
L 104.901918 50.768673 
L 106.318915 52.167627 
L 107.735911 51.996531 
L 109.152908 55.417973 
L 110.569905 56.525484 
L 111.986901 56.106808 
L 113.403898 57.310051 
L 114.820895 58.45107 
L 116.237891 56.030086 
L 117.654888 55.298841 
L 119.071885 48.763749 
L 120.488881 47.082466 
L 121.905878 46.074876 
L 123.322875 48.758097 
L 124.739871 45.891278 
" clip-path="url(#pb5a7e9a287)" style="fill: none; stroke: #808080; stroke-opacity: 0.3; stroke-width: 0.5; stroke-linecap: square"/>
   </g>
   <g id="line2d_2">
    <path d="M 12.797137 89.854368 
L 14.214133 90.659376 
L 15.63113 91.415801 
L 17.048127 90.226849 
L 18.465123 91.569889 
L 19.88212 90.786895 
L 21.299117 92.031422 
L 22.716113 91.524964 
L 24.13311 92.417925 
L 25.550106 91.944846 
L 26.967103 91.900531 
L 28.3841 93.34254 
L 29.801096 94.712925 
L 31.218093 93.43117 
L 32.63509 91.946267 
L 34.052086 94.634041 
L 35.469083 93.340583 
L 36.88608 93.340583 
L 38.303076 94.321586 
L 39.720073 95.035954 
L 41.137069 94.436596 
L 42.554066 91.497727 
L 43.971063 81.002636 
L 45.388059 73.614957 
L 46.805056 64.028889 
L 48.222053 57.749531 
L 49.639049 47.37869 
L 51.056046 39.071642 
L 52.473043 33.421104 
L 53.890039 30.439881 
L 55.307036 26.696034 
L 56.724033 29.507843 
L 58.141029 26.685676 
L 59.558026 23.737255 
L 60.975022 20.357366 
L 62.392019 15.347902 
L 63.809016 11.001592 
L 65.226012 7.564541 
L 66.643009 7.630696 
L 68.060006 9.607532 
L 69.477002 15.388102 
L 70.893999 10.881902 
L 72.310996 14.832028 
L 73.727992 14.594329 
L 75.144989 10.296601 
L 76.561985 9.028346 
L 77.978982 13.623469 
L 79.395979 15.043648 
L 80.812975 15.248705 
L 82.229972 17.105596 
L 83.646969 21.24769 
L 85.063965 18.635372 
L 86.480962 18.727385 
L 87.897959 21.497927 
L 89.314955 19.119875 
L 90.731952 24.396492 
L 92.148948 21.102092 
L 93.565945 23.957983 
L 94.982942 22.199528 
L 96.399938 29.824142 
L 97.816935 25.192807 
L 99.233932 31.926232 
L 100.650928 30.187402 
L 102.067925 29.60868 
L 103.484922 32.941006 
L 104.901918 34.294958 
L 106.318915 35.737197 
L 107.735911 34.348539 
L 109.152908 35.31722 
L 110.569905 38.671724 
L 111.986901 37.219314 
L 113.403898 39.987026 
L 114.820895 39.165065 
L 116.237891 41.563343 
L 117.654888 46.578148 
L 119.071885 41.577533 
L 120.488881 44.579601 
L 121.905878 44.137053 
L 123.322875 45.955947 
L 124.739871 45.12606 
" clip-path="url(#pb5a7e9a287)" style="fill: none; stroke: #808080; stroke-opacity: 0.3; stroke-width: 0.5; stroke-linecap: square"/>
   </g>
   <g id="line2d_3">
    <path d="M 12.797137 88.290886 
L 14.214133 89.21129 
L 15.63113 89.033395 
L 17.048127 90.799414 
L 18.465123 90.159935 
L 19.88212 90.943925 
L 21.299117 90.477388 
L 22.716113 90.08576 
L 24.13311 91.353846 
L 25.550106 90.561546 
L 26.967103 90.183259 
L 28.3841 89.803291 
L 29.801096 91.748176 
L 31.218093 91.843818 
L 32.63509 91.027428 
L 34.052086 91.160395 
L 35.469083 91.837851 
L 36.88608 91.837851 
L 38.303076 92.842335 
L 39.720073 92.682056 
L 41.137069 94.15797 
L 42.554066 91.211732 
L 43.971063 84.643568 
L 45.388059 80.169812 
L 46.805056 70.508882 
L 48.222053 65.744869 
L 49.639049 58.83577 
L 51.056046 57.040524 
L 52.473043 55.972043 
L 53.890039 54.329567 
L 55.307036 55.240655 
L 56.724033 55.574564 
L 58.141029 53.400093 
L 59.558026 50.260077 
L 60.975022 46.221589 
L 62.392019 41.570904 
L 63.809016 43.213986 
L 65.226012 43.365792 
L 66.643009 43.782045 
L 68.060006 42.973295 
L 69.477002 41.84041 
L 70.893999 44.797896 
L 72.310996 44.700375 
L 73.727992 41.540791 
L 75.144989 46.49084 
L 76.561985 45.935503 
L 77.978982 50.014531 
L 79.395979 49.793422 
L 80.812975 46.769196 
L 82.229972 47.24188 
L 83.646969 47.479039 
L 85.063965 46.45207 
L 86.480962 46.142373 
L 87.897959 51.326272 
L 89.314955 50.683878 
L 90.731952 47.972249 
L 92.148948 50.838272 
L 93.565945 48.819489 
L 94.982942 49.671762 
L 96.399938 50.744756 
L 97.816935 50.226138 
L 99.233932 51.755125 
L 100.650928 49.48835 
L 102.067925 49.148969 
L 103.484922 51.473389 
L 104.901918 52.42354 
L 106.318915 55.641972 
L 107.735911 54.073411 
L 109.152908 53.109613 
L 110.569905 54.495158 
L 111.986901 57.156281 
L 113.403898 54.382494 
L 114.820895 55.501041 
L 116.237891 56.372707 
L 117.654888 55.611831 
L 119.071885 59.268514 
L 120.488881 58.868404 
L 121.905878 58.395236 
L 123.322875 60.417759 
L 124.739871 61.658865 
" clip-path="url(#pb5a7e9a287)" style="fill: none; stroke: #808080; stroke-opacity: 0.3; stroke-width: 0.5; stroke-linecap: square"/>
   </g>
   <g id="line2d_4">
    <path d="M 12.797137 91.242069 
L 14.214133 94.317514 
L 15.63113 93.541674 
L 17.048127 95.141071 
L 18.465123 96.609738 
L 19.88212 93.985073 
L 21.299117 95.248261 
L 22.716113 94.881069 
L 24.13311 98.478877 
L 25.550106 95.947391 
L 26.967103 97.068025 
L 28.3841 94.129681 
L 29.801096 96.094526 
L 31.218093 97.451792 
L 32.63509 96.444082 
L 34.052086 97.180965 
L 35.469083 95.262522 
L 36.88608 95.262522 
L 38.303076 94.00077 
L 39.720073 94.083001 
L 41.137069 92.001392 
L 42.554066 90.179311 
L 43.971063 80.973592 
L 45.388059 74.58496 
L 46.805056 68.562346 
L 48.222053 66.842601 
L 49.639049 65.740606 
L 51.056046 66.223808 
L 52.473043 64.362942 
L 53.890039 63.991141 
L 55.307036 66.957677 
L 56.724033 64.000092 
L 58.141029 58.184047 
L 59.558026 49.160242 
L 60.975022 47.528013 
L 62.392019 43.258865 
L 63.809016 45.799936 
L 65.226012 44.548332 
L 66.643009 44.138431 
L 68.060006 45.277033 
L 69.477002 47.177424 
L 70.893999 44.855775 
L 72.310996 47.957308 
L 73.727992 48.27324 
L 75.144989 48.962816 
L 76.561985 49.004315 
L 77.978982 47.128088 
L 79.395979 49.097908 
L 80.812975 49.346238 
L 82.229972 52.122307 
L 83.646969 54.377624 
L 85.063965 54.505321 
L 86.480962 55.93171 
L 87.897959 50.626685 
L 89.314955 52.111385 
L 90.731952 56.556932 
L 92.148948 55.069965 
L 93.565945 58.11165 
L 94.982942 57.754533 
L 96.399938 58.425534 
L 97.816935 59.376635 
L 99.233932 59.621498 
L 100.650928 61.713544 
L 102.067925 61.125105 
L 103.484922 61.162189 
L 104.901918 64.119512 
L 106.318915 61.152485 
L 107.735911 64.273777 
L 109.152908 65.715978 
L 110.569905 66.544637 
L 111.986901 64.946323 
L 113.403898 66.244103 
L 114.820895 66.346902 
L 116.237891 65.175795 
L 117.654888 68.012322 
L 119.071885 69.466244 
L 120.488881 67.883341 
L 121.905878 67.690704 
L 123.322875 68.619265 
L 124.739871 70.725531 
" clip-path="url(#pb5a7e9a287)" style="fill: none; stroke: #808080; stroke-opacity: 0.3; stroke-width: 0.5; stroke-linecap: square"/>
   </g>
   <g id="line2d_5">
    <path d="M 12.797137 86.652833 
L 14.214133 83.951201 
L 15.63113 86.5492 
L 17.048127 86.258037 
L 18.465123 87.495131 
L 19.88212 88.353323 
L 21.299117 87.245823 
L 22.716113 86.045752 
L 24.13311 88.389562 
L 25.550106 89.300442 
L 26.967103 88.828582 
L 28.3841 89.518217 
L 29.801096 91.046995 
L 31.218093 89.196078 
L 32.63509 90.126352 
L 34.052086 90.056114 
L 35.469083 92.146885 
L 36.88608 92.146885 
L 38.303076 92.342669 
L 39.720073 91.894612 
L 41.137069 93.429573 
L 42.554066 89.033197 
L 43.971063 83.689774 
L 45.388059 78.457818 
L 46.805056 68.041237 
L 48.222053 63.536569 
L 49.639049 57.854238 
L 51.056046 55.266563 
L 52.473043 54.149895 
L 53.890039 53.542869 
L 55.307036 54.075649 
L 56.724033 56.003964 
L 58.141029 53.107837 
L 59.558026 53.341216 
L 60.975022 55.146072 
L 62.392019 54.872313 
L 63.809016 55.365931 
L 65.226012 52.108404 
L 66.643009 52.429052 
L 68.060006 53.235383 
L 69.477002 49.186109 
L 70.893999 54.810463 
L 72.310996 54.335958 
L 73.727992 55.331227 
L 75.144989 52.654459 
L 76.561985 54.579119 
L 77.978982 56.304191 
L 79.395979 55.220525 
L 80.812975 56.817043 
L 82.229972 55.148798 
L 83.646969 55.531578 
L 85.063965 59.036868 
L 86.480962 58.383542 
L 87.897959 59.375103 
L 89.314955 54.215208 
L 90.731952 51.07186 
L 92.148948 43.954048 
L 93.565945 42.628418 
L 94.982942 39.316827 
L 96.399938 39.391926 
L 97.816935 38.779549 
L 99.233932 38.118115 
L 100.650928 40.510575 
L 102.067925 38.642456 
L 103.484922 45.418658 
L 104.901918 43.21105 
L 106.318915 43.852171 
L 107.735911 41.623488 
L 109.152908 44.170487 
L 110.569905 44.754232 
L 111.986901 44.397836 
L 113.403898 47.023056 
L 114.820895 44.485895 
L 116.237891 46.529476 
L 117.654888 49.961715 
L 119.071885 48.237614 
L 120.488881 52.764636 
L 121.905878 53.888762 
L 123.322875 46.719408 
L 124.739871 47.87945 
" clip-path="url(#pb5a7e9a287)" style="fill: none; stroke: #808080; stroke-opacity: 0.3; stroke-width: 0.5; stroke-linecap: square"/>
   </g>
   <g id="line2d_6">
    <path d="M 12.797137 92.054605 
L 14.214133 92.195869 
L 15.63113 92.520787 
L 17.048127 91.518555 
L 18.465123 93.861881 
L 19.88212 91.129349 
L 21.299117 92.398423 
L 22.716113 93.708711 
L 24.13311 93.804943 
L 25.550106 92.933341 
L 26.967103 93.763092 
L 28.3841 93.203199 
L 29.801096 92.819667 
L 31.218093 91.618637 
L 32.63509 91.307503 
L 34.052086 92.008686 
L 35.469083 92.633373 
L 36.88608 92.633373 
L 38.303076 93.087145 
L 39.720073 95.220366 
L 41.137069 93.0407 
L 42.554066 86.857091 
L 43.971063 80.807301 
L 45.388059 71.681705 
L 46.805056 63.777302 
L 48.222053 58.153083 
L 49.639049 56.394476 
L 51.056046 54.31509 
L 52.473043 56.015979 
L 53.890039 55.730978 
L 55.307036 58.000825 
L 56.724033 53.344037 
L 58.141029 47.401341 
L 59.558026 46.871494 
L 60.975022 40.161764 
L 62.392019 38.128674 
L 63.809016 35.491016 
L 65.226012 33.658935 
L 66.643009 34.059658 
L 68.060006 36.183169 
L 69.477002 37.3926 
L 70.893999 38.855137 
L 72.310996 40.422145 
L 73.727992 33.583825 
L 75.144989 39.048651 
L 76.561985 40.713578 
L 77.978982 38.429281 
L 79.395979 40.994655 
L 80.812975 39.078919 
L 82.229972 47.235802 
L 83.646969 41.271412 
L 85.063965 43.329791 
L 86.480962 42.82865 
L 87.897959 44.290182 
L 89.314955 46.755814 
L 90.731952 47.360039 
L 92.148948 48.821418 
L 93.565945 48.678942 
L 94.982942 46.693705 
L 96.399938 50.62175 
L 97.816935 48.966154 
L 99.233932 49.524071 
L 100.650928 52.421917 
L 102.067925 49.238961 
L 103.484922 51.517744 
L 104.901918 54.24604 
L 106.318915 54.626752 
L 107.735911 52.741934 
L 109.152908 51.013163 
L 110.569905 53.99016 
L 111.986901 53.62241 
L 113.403898 54.444359 
L 114.820895 55.32099 
L 116.237891 55.084468 
L 117.654888 55.516014 
L 119.071885 55.526544 
L 120.488881 56.347542 
L 121.905878 53.354309 
L 123.322875 59.845411 
L 124.739871 58.04158 
" clip-path="url(#pb5a7e9a287)" style="fill: none; stroke: #808080; stroke-opacity: 0.3; stroke-width: 0.5; stroke-linecap: square"/>
   </g>
   <g id="line2d_7">
    <path d="M 12.797137 89.442232 
L 14.214133 89.055981 
L 15.63113 89.427829 
L 17.048127 91.041637 
L 18.465123 90.014301 
L 19.88212 88.997361 
L 21.299117 90.35647 
L 22.716113 90.995563 
L 24.13311 90.954268 
L 25.550106 89.719013 
L 26.967103 90.642293 
L 28.3841 90.352093 
L 29.801096 90.979769 
L 31.218093 90.436193 
L 32.63509 92.426461 
L 34.052086 91.539944 
L 35.469083 93.27188 
L 36.88608 93.27188 
L 38.303076 93.568415 
L 39.720073 94.179945 
L 41.137069 92.980346 
L 42.554066 93.247099 
L 43.971063 88.580939 
L 45.388059 82.269393 
L 46.805056 75.386188 
L 48.222053 66.588098 
L 49.639049 62.24249 
L 51.056046 62.417283 
L 52.473043 64.250151 
L 53.890039 59.255955 
L 55.307036 63.931259 
L 56.724033 60.89807 
L 58.141029 60.786164 
L 59.558026 60.921798 
L 60.975022 56.602601 
L 62.392019 49.058095 
L 63.809016 46.107128 
L 65.226012 44.882772 
L 66.643009 43.157832 
L 68.060006 42.582584 
L 69.477002 43.041185 
L 70.893999 38.128638 
L 72.310996 44.85294 
L 73.727992 43.582782 
L 75.144989 43.353399 
L 76.561985 40.527209 
L 77.978982 41.500601 
L 79.395979 42.434957 
L 80.812975 44.982362 
L 82.229972 46.887997 
L 83.646969 45.687163 
L 85.063965 47.944057 
L 86.480962 49.537008 
L 87.897959 49.638097 
L 89.314955 51.331116 
L 90.731952 51.470783 
L 92.148948 46.651924 
L 93.565945 47.875209 
L 94.982942 49.847955 
L 96.399938 47.790453 
L 97.816935 52.64016 
L 99.233932 49.90737 
L 100.650928 51.78235 
L 102.067925 54.004015 
L 103.484922 54.149648 
L 104.901918 51.903499 
L 106.318915 55.983913 
L 107.735911 56.130245 
L 109.152908 53.252605 
L 110.569905 56.940092 
L 111.986901 57.66536 
L 113.403898 56.732801 
L 114.820895 59.089745 
L 116.237891 61.631913 
L 117.654888 60.007692 
L 119.071885 60.414981 
L 120.488881 63.179815 
L 121.905878 60.711881 
L 123.322875 62.142685 
L 124.739871 63.232321 
" clip-path="url(#pb5a7e9a287)" style="fill: none; stroke: #808080; stroke-opacity: 0.3; stroke-width: 0.5; stroke-linecap: square"/>
   </g>
   <g id="line2d_8">
    <path d="M 12.797137 93.485312 
L 14.214133 93.45643 
L 15.63113 91.870663 
L 17.048127 94.093155 
L 18.465123 91.40306 
L 19.88212 93.38277 
L 21.299117 94.072246 
L 22.716113 94.910433 
L 24.13311 96.055293 
L 25.550106 94.758285 
L 26.967103 92.545098 
L 28.3841 94.609603 
L 29.801096 96.11109 
L 31.218093 94.351318 
L 32.63509 95.660418 
L 34.052086 92.307971 
L 35.469083 93.002432 
L 36.88608 93.002432 
L 38.303076 93.196041 
L 39.720073 92.922589 
L 41.137069 92.31632 
L 42.554066 87.604057 
L 43.971063 81.687048 
L 45.388059 71.247864 
L 46.805056 62.549049 
L 48.222053 57.269272 
L 49.639049 52.595825 
L 51.056046 48.069597 
L 52.473043 46.941709 
L 53.890039 48.25946 
L 55.307036 50.173739 
L 56.724033 46.943241 
L 58.141029 48.088756 
L 59.558026 48.207144 
L 60.975022 44.61612 
L 62.392019 36.659364 
L 63.809016 35.496751 
L 65.226012 28.864767 
L 66.643009 34.078612 
L 68.060006 32.237858 
L 69.477002 32.021406 
L 70.893999 33.467701 
L 72.310996 30.235099 
L 73.727992 30.113834 
L 75.144989 32.18199 
L 76.561985 27.880108 
L 77.978982 34.7933 
L 79.395979 33.770517 
L 80.812975 35.839488 
L 82.229972 39.947498 
L 83.646969 38.176737 
L 85.063965 39.981599 
L 86.480962 40.163981 
L 87.897959 37.328252 
L 89.314955 41.696799 
L 90.731952 41.840845 
L 92.148948 39.652269 
L 93.565945 41.380779 
L 94.982942 43.500712 
L 96.399938 45.875853 
L 97.816935 46.90511 
L 99.233932 45.180653 
L 100.650928 48.30903 
L 102.067925 47.659479 
L 103.484922 47.991493 
L 104.901918 46.693508 
L 106.318915 50.101542 
L 107.735911 50.705268 
L 109.152908 51.35603 
L 110.569905 51.236705 
L 111.986901 51.707986 
L 113.403898 54.61276 
L 114.820895 52.508197 
L 116.237891 55.294475 
L 117.654888 55.266125 
L 119.071885 55.539388 
L 120.488881 56.983253 
L 121.905878 60.069429 
L 123.322875 58.627953 
L 124.739871 59.203218 
" clip-path="url(#pb5a7e9a287)" style="fill: none; stroke: #808080; stroke-opacity: 0.3; stroke-width: 0.5; stroke-linecap: square"/>
   </g>
   <g id="line2d_9">
    <path d="M 12.797137 85.935545 
L 14.214133 87.11647 
L 15.63113 87.187253 
L 17.048127 87.315808 
L 18.465123 88.562518 
L 19.88212 88.25184 
L 21.299117 90.758921 
L 22.716113 90.35213 
L 24.13311 89.522062 
L 25.550106 88.683473 
L 26.967103 90.699041 
L 28.3841 91.987401 
L 29.801096 90.725593 
L 31.218093 91.673394 
L 32.63509 92.417813 
L 34.052086 91.937289 
L 35.469083 92.475876 
L 36.88608 92.475876 
L 38.303076 91.88314 
L 39.720073 91.62237 
L 41.137069 91.688561 
L 42.554066 90.324086 
L 43.971063 85.323767 
L 45.388059 79.824946 
L 46.805056 74.691315 
L 48.222053 65.296086 
L 49.639049 63.53325 
L 51.056046 61.186973 
L 52.473043 63.260027 
L 53.890039 60.604412 
L 55.307036 60.606873 
L 56.724033 60.720806 
L 58.141029 63.518833 
L 59.558026 61.770377 
L 60.975022 59.090124 
L 62.392019 59.456713 
L 63.809016 56.278816 
L 65.226012 54.30098 
L 66.643009 55.80741 
L 68.060006 51.462588 
L 69.477002 55.62049 
L 70.893999 53.713989 
L 72.310996 56.29538 
L 73.727992 56.434515 
L 75.144989 55.702225 
L 76.561985 56.286306 
L 77.978982 57.066137 
L 79.395979 57.697164 
L 80.812975 57.158853 
L 82.229972 59.616153 
L 83.646969 61.915084 
L 85.063965 60.79539 
L 86.480962 58.598626 
L 87.897959 61.020277 
L 89.314955 63.199715 
L 90.731952 64.677499 
L 92.148948 64.97471 
L 93.565945 64.671409 
L 94.982942 66.107252 
L 96.399938 66.36438 
L 97.816935 64.334038 
L 99.233932 65.438913 
L 100.650928 64.99627 
L 102.067925 67.576261 
L 103.484922 67.762968 
L 104.901918 68.428271 
L 106.318915 69.973636 
L 107.735911 69.108856 
L 109.152908 69.030469 
L 110.569905 70.367086 
L 111.986901 72.484917 
L 113.403898 71.439751 
L 114.820895 71.120838 
L 116.237891 73.261203 
L 117.654888 73.297572 
L 119.071885 75.120993 
L 120.488881 73.551119 
L 121.905878 73.785591 
L 123.322875 76.800119 
L 124.739871 74.005808 
" clip-path="url(#pb5a7e9a287)" style="fill: none; stroke: #808080; stroke-opacity: 0.3; stroke-width: 0.5; stroke-linecap: square"/>
   </g>
   <g id="line2d_10">
    <path d="M 12.797137 92.642606 
L 14.214133 91.410539 
L 15.63113 92.762844 
L 17.048127 92.468403 
L 18.465123 93.61702 
L 19.88212 93.29232 
L 21.299117 91.709676 
L 22.716113 92.029816 
L 24.13311 92.283721 
L 25.550106 93.39617 
L 26.967103 94.083718 
L 28.3841 93.470306 
L 29.801096 93.610929 
L 31.218093 92.392237 
L 32.63509 93.660417 
L 34.052086 94.366508 
L 35.469083 92.561459 
L 36.88608 92.561459 
L 38.303076 95.128954 
L 39.720073 92.979139 
L 41.137069 93.135964 
L 42.554066 90.297126 
L 43.971063 83.298705 
L 45.388059 77.542655 
L 46.805056 72.713361 
L 48.222053 69.010756 
L 49.639049 69.270719 
L 51.056046 67.707423 
L 52.473043 69.005751 
L 53.890039 65.633315 
L 55.307036 67.7334 
L 56.724033 68.65237 
L 58.141029 63.237058 
L 59.558026 59.708582 
L 60.975022 56.93716 
L 62.392019 53.870019 
L 63.809016 50.732132 
L 65.226012 50.064289 
L 66.643009 50.559479 
L 68.060006 51.302654 
L 69.477002 51.841135 
L 70.893999 51.029793 
L 72.310996 52.623056 
L 73.727992 48.157583 
L 75.144989 51.572214 
L 76.561985 51.797275 
L 77.978982 51.956365 
L 79.395979 53.596939 
L 80.812975 55.408655 
L 82.229972 54.455137 
L 83.646969 56.512221 
L 85.063965 57.47842 
L 86.480962 55.760446 
L 87.897959 58.149633 
L 89.314955 57.644656 
L 90.731952 58.196795 
L 92.148948 59.93474 
L 93.565945 58.380123 
L 94.982942 58.799917 
L 96.399938 58.419537 
L 97.816935 60.051379 
L 99.233932 60.107788 
L 100.650928 63.619345 
L 102.067925 63.535315 
L 103.484922 64.3094 
L 104.901918 65.073861 
L 106.318915 62.878392 
L 107.735911 66.588143 
L 109.152908 64.99807 
L 110.569905 65.846271 
L 111.986901 65.514356 
L 113.403898 64.413549 
L 114.820895 68.7156 
L 116.237891 68.844876 
L 117.654888 69.085053 
L 119.071885 68.831106 
L 120.488881 70.823459 
L 121.905878 69.823321 
L 123.322875 71.335276 
L 124.739871 71.831572 
" clip-path="url(#pb5a7e9a287)" style="fill: none; stroke: #808080; stroke-opacity: 0.3; stroke-width: 0.5; stroke-linecap: square"/>
   </g>
   <g id="line2d_11">
    <path d="M 12.797137 94.689763 
L 14.214133 93.436766 
L 15.63113 94.604628 
L 17.048127 93.541522 
L 18.465123 93.00528 
L 19.88212 92.107398 
L 21.299117 91.948571 
L 22.716113 92.602788 
L 24.13311 91.245287 
L 25.550106 91.607682 
L 26.967103 92.24574 
L 28.3841 92.119495 
L 29.801096 92.815677 
L 31.218093 93.219268 
L 32.63509 92.769646 
L 34.052086 92.717161 
L 35.469083 94.259492 
L 36.88608 94.259492 
L 38.303076 93.926841 
L 39.720073 94.161527 
L 41.137069 94.654674 
L 42.554066 91.161073 
L 43.971063 86.767907 
L 45.388059 81.086554 
L 46.805056 77.15619 
L 48.222053 70.675262 
L 49.639049 69.143939 
L 51.056046 64.310798 
L 52.473043 62.515517 
L 53.890039 63.12025 
L 55.307036 61.521399 
L 56.724033 62.808795 
L 58.141029 64.618584 
L 59.558026 62.478715 
L 60.975022 58.126617 
L 62.392019 58.716626 
L 63.809016 57.145633 
L 65.226012 57.683145 
L 66.643009 56.550094 
L 68.060006 56.946083 
L 69.477002 59.056501 
L 70.893999 58.225728 
L 72.310996 60.071044 
L 73.727992 62.153621 
L 75.144989 60.808865 
L 76.561985 60.036524 
L 77.978982 63.050794 
L 79.395979 62.982324 
L 80.812975 57.116304 
L 82.229972 62.585211 
L 83.646969 59.47302 
L 85.063965 60.626935 
L 86.480962 62.901437 
L 87.897959 63.112832 
L 89.314955 62.035822 
L 90.731952 63.936008 
L 92.148948 62.502812 
L 93.565945 64.256521 
L 94.982942 64.445166 
L 96.399938 64.284097 
L 97.816935 68.79298 
L 99.233932 66.499235 
L 100.650928 66.266748 
L 102.067925 66.349546 
L 103.484922 68.75301 
L 104.901918 70.544801 
L 106.318915 68.507308 
L 107.735911 70.71136 
L 109.152908 70.672273 
L 110.569905 70.337288 
L 111.986901 71.800779 
L 113.403898 70.488651 
L 114.820895 69.615476 
L 116.237891 72.484955 
L 117.654888 73.473958 
L 119.071885 71.758673 
L 120.488881 73.59442 
L 121.905878 73.803719 
L 123.322875 73.599742 
L 124.739871 76.716067 
" clip-path="url(#pb5a7e9a287)" style="fill: none; stroke: #808080; stroke-opacity: 0.3; stroke-width: 0.5; stroke-linecap: square"/>
   </g>
   <g id="line2d_12">
    <path d="M 12.797137 93.79946 
L 14.214133 93.21172 
L 15.63113 94.299706 
L 17.048127 92.874749 
L 18.465123 92.636755 
L 19.88212 92.104163 
L 21.299117 95.182895 
L 22.716113 93.236171 
L 24.13311 93.196723 
L 25.550106 92.805433 
L 26.967103 93.579432 
L 28.3841 94.823124 
L 29.801096 94.640343 
L 31.218093 93.551767 
L 32.63509 95.626371 
L 34.052086 95.116244 
L 35.469083 94.21553 
L 36.88608 94.21553 
L 38.303076 93.865313 
L 39.720073 93.833809 
L 41.137069 92.311959 
L 42.554066 87.538902 
L 43.971063 83.669347 
L 45.388059 74.154032 
L 46.805056 68.891296 
L 48.222053 62.270957 
L 49.639049 57.771793 
L 51.056046 51.266487 
L 52.473043 54.405084 
L 53.890039 52.971527 
L 55.307036 49.923924 
L 56.724033 51.414458 
L 58.141029 51.5217 
L 59.558026 47.783949 
L 60.975022 39.017549 
L 62.392019 33.93843 
L 63.809016 32.947435 
L 65.226012 37.401156 
L 66.643009 32.987546 
L 68.060006 33.746201 
L 69.477002 35.159956 
L 70.893999 31.640336 
L 72.310996 33.883111 
L 73.727992 33.426757 
L 75.144989 34.259262 
L 76.561985 35.914188 
L 77.978982 36.903664 
L 79.395979 35.316901 
L 80.812975 33.462476 
L 82.229972 35.649547 
L 83.646969 33.523175 
L 85.063965 38.785067 
L 86.480962 39.773102 
L 87.897959 40.125004 
L 89.314955 42.614411 
L 90.731952 43.871212 
L 92.148948 42.403038 
L 93.565945 40.409978 
L 94.982942 43.187622 
L 96.399938 41.526021 
L 97.816935 45.068262 
L 99.233932 45.554246 
L 100.650928 46.069789 
L 102.067925 48.087074 
L 103.484922 50.035656 
L 104.901918 46.658483 
L 106.318915 48.33804 
L 107.735911 51.389107 
L 109.152908 51.289836 
L 110.569905 50.352197 
L 111.986901 50.337472 
L 113.403898 54.872583 
L 114.820895 52.613764 
L 116.237891 51.688208 
L 117.654888 55.688844 
L 119.071885 53.767574 
L 120.488881 52.859111 
L 121.905878 57.763546 
L 123.322875 56.231013 
L 124.739871 56.938141 
" clip-path="url(#pb5a7e9a287)" style="fill: none; stroke: #808080; stroke-opacity: 0.3; stroke-width: 0.5; stroke-linecap: square"/>
   </g>
   <g id="line2d_13">
    <path d="M 12.797137 87.80891 
L 14.214133 87.813239 
L 15.63113 89.180103 
L 17.048127 89.352468 
L 18.465123 88.441896 
L 19.88212 89.053122 
L 21.299117 88.557669 
L 22.716113 88.256707 
L 24.13311 89.067694 
L 25.550106 89.421517 
L 26.967103 91.206894 
L 28.3841 88.892986 
L 29.801096 91.802645 
L 31.218093 90.387912 
L 32.63509 91.407796 
L 34.052086 90.959455 
L 35.469083 92.041851 
L 36.88608 92.041851 
L 38.303076 95.160789 
L 39.720073 94.201694 
L 41.137069 93.159374 
L 42.554066 92.201243 
L 43.971063 87.622916 
L 45.388059 84.25927 
L 46.805056 74.638178 
L 48.222053 70.08289 
L 49.639049 64.145663 
L 51.056046 66.155487 
L 52.473043 63.524675 
L 53.890039 65.106676 
L 55.307036 63.201265 
L 56.724033 67.103789 
L 58.141029 63.266057 
L 59.558026 57.395324 
L 60.975022 55.175042 
L 62.392019 48.753821 
L 63.809016 50.226214 
L 65.226012 49.054235 
L 66.643009 48.271147 
L 68.060006 47.981443 
L 69.477002 47.300542 
L 70.893999 47.795777 
L 72.310996 45.658668 
L 73.727992 43.165651 
L 75.144989 46.117566 
L 76.561985 46.167818 
L 77.978982 50.10886 
L 79.395979 48.702285 
L 80.812975 49.475478 
L 82.229972 50.909701 
L 83.646969 55.136273 
L 85.063965 53.560112 
L 86.480962 56.503031 
L 87.897959 54.656009 
L 89.314955 56.852702 
L 90.731952 54.635786 
L 92.148948 55.91808 
L 93.565945 58.5233 
L 94.982942 57.054981 
L 96.399938 57.474638 
L 97.816935 58.203846 
L 99.233932 60.267222 
L 100.650928 59.448387 
L 102.067925 58.827323 
L 103.484922 61.970971 
L 104.901918 64.630805 
L 106.318915 63.52158 
L 107.735911 63.002835 
L 109.152908 63.260765 
L 110.569905 64.14021 
L 111.986901 65.801082 
L 113.403898 65.115124 
L 114.820895 68.258512 
L 116.237891 69.361184 
L 117.654888 70.105611 
L 119.071885 69.104168 
L 120.488881 69.858377 
L 121.905878 72.685225 
L 123.322875 71.500764 
L 124.739871 72.326878 
" clip-path="url(#pb5a7e9a287)" style="fill: none; stroke: #808080; stroke-opacity: 0.3; stroke-width: 0.5; stroke-linecap: square"/>
   </g>
   <g id="line2d_14">
    <path d="M 12.797137 91.490292 
L 14.214133 91.105095 
L 15.63113 93.739027 
L 17.048127 91.203038 
L 18.465123 91.094069 
L 19.88212 93.452175 
L 21.299117 90.486265 
L 22.716113 89.693019 
L 24.13311 90.742302 
L 25.550106 89.997832 
L 26.967103 90.590731 
L 28.3841 87.673806 
L 29.801096 91.745126 
L 31.218093 91.257623 
L 32.63509 92.437703 
L 34.052086 90.993275 
L 35.469083 92.313341 
L 36.88608 92.313341 
L 38.303076 91.272409 
L 39.720073 89.012003 
L 41.137069 90.179827 
L 42.554066 86.586629 
L 43.971063 79.684391 
L 45.388059 72.654836 
L 46.805056 65.587769 
L 48.222053 58.613344 
L 49.639049 55.877858 
L 51.056046 52.405623 
L 52.473043 56.638952 
L 53.890039 51.623933 
L 55.307036 56.568378 
L 56.724033 54.85864 
L 58.141029 47.850255 
L 59.558026 46.610908 
L 60.975022 43.694069 
L 62.392019 42.806305 
L 63.809016 42.203425 
L 65.226012 42.730003 
L 66.643009 41.629624 
L 68.060006 43.820874 
L 69.477002 44.234181 
L 70.893999 44.176299 
L 72.310996 45.240677 
L 73.727992 41.873686 
L 75.144989 45.258508 
L 76.561985 47.809045 
L 77.978982 49.392928 
L 79.395979 47.449524 
L 80.812975 49.368419 
L 82.229972 53.228747 
L 83.646969 48.514001 
L 85.063965 52.668314 
L 86.480962 49.483176 
L 87.897959 51.771164 
L 89.314955 51.430409 
L 90.731952 51.322811 
L 92.148948 50.916661 
L 93.565945 52.118271 
L 94.982942 54.234295 
L 96.399938 54.665392 
L 97.816935 56.320891 
L 99.233932 58.229369 
L 100.650928 57.236868 
L 102.067925 60.377788 
L 103.484922 58.437517 
L 104.901918 56.728048 
L 106.318915 59.256035 
L 107.735911 57.000497 
L 109.152908 60.836086 
L 110.569905 60.688502 
L 111.986901 60.805219 
L 113.403898 61.824785 
L 114.820895 63.44972 
L 116.237891 60.785886 
L 117.654888 60.836046 
L 119.071885 61.888116 
L 120.488881 63.475691 
L 121.905878 63.499096 
L 123.322875 66.378852 
L 124.739871 66.326602 
" clip-path="url(#pb5a7e9a287)" style="fill: none; stroke: #808080; stroke-opacity: 0.3; stroke-width: 0.5; stroke-linecap: square"/>
   </g>
   <g id="line2d_15">
    <path d="M 12.797137 90.550044 
L 14.214133 89.829086 
L 15.63113 92.272046 
L 17.048127 90.162082 
L 18.465123 89.52325 
L 19.88212 91.054008 
L 21.299117 91.536246 
L 22.716113 91.137807 
L 24.13311 89.278768 
L 25.550106 90.555672 
L 26.967103 91.065748 
L 28.3841 90.139406 
L 29.801096 90.091122 
L 31.218093 91.124313 
L 32.63509 89.758255 
L 34.052086 91.484863 
L 35.469083 92.024035 
L 36.88608 92.024035 
L 38.303076 93.986569 
L 39.720073 91.420432 
L 41.137069 90.950192 
L 42.554066 87.542326 
L 43.971063 84.284718 
L 45.388059 76.857525 
L 46.805056 73.418106 
L 48.222053 68.271837 
L 49.639049 65.826118 
L 51.056046 62.676654 
L 52.473043 62.113176 
L 53.890039 62.903343 
L 55.307036 65.695404 
L 56.724033 62.936554 
L 58.141029 62.959229 
L 59.558026 65.2092 
L 60.975022 65.005247 
L 62.392019 62.743555 
L 63.809016 64.241773 
L 65.226012 63.07653 
L 66.643009 64.89359 
L 68.060006 66.317495 
L 69.477002 65.111648 
L 70.893999 64.33418 
L 72.310996 67.3734 
L 73.727992 66.721159 
L 75.144989 69.665707 
L 76.561985 66.458859 
L 77.978982 72.092673 
L 79.395979 69.00106 
L 80.812975 70.52085 
L 82.229972 67.953122 
L 83.646969 68.906329 
L 85.063965 70.163441 
L 86.480962 72.260787 
L 87.897959 69.424511 
L 89.314955 71.22013 
L 90.731952 70.708268 
L 92.148948 70.926747 
L 93.565945 71.121171 
L 94.982942 72.148571 
L 96.399938 73.751964 
L 97.816935 71.361786 
L 99.233932 72.347254 
L 100.650928 73.084134 
L 102.067925 73.052443 
L 103.484922 73.260509 
L 104.901918 75.079993 
L 106.318915 75.606396 
L 107.735911 74.410716 
L 109.152908 78.666833 
L 110.569905 76.05783 
L 111.986901 76.664165 
L 113.403898 76.985771 
L 114.820895 76.69789 
L 116.237891 78.354422 
L 117.654888 79.333959 
L 119.071885 78.691399 
L 120.488881 78.107024 
L 121.905878 78.448722 
L 123.322875 80.78118 
L 124.739871 78.642495 
" clip-path="url(#pb5a7e9a287)" style="fill: none; stroke: #808080; stroke-opacity: 0.3; stroke-width: 0.5; stroke-linecap: square"/>
   </g>
   <g id="line2d_16">
    <path d="M 12.797137 91.39604 
L 14.214133 91.754579 
L 15.63113 90.831342 
L 17.048127 89.559804 
L 18.465123 90.121702 
L 19.88212 91.72043 
L 21.299117 91.250743 
L 22.716113 92.088383 
L 24.13311 93.270962 
L 25.550106 92.261213 
L 26.967103 94.274054 
L 28.3841 93.221286 
L 29.801096 91.718815 
L 31.218093 93.634345 
L 32.63509 91.155643 
L 34.052086 95.423542 
L 35.469083 94.47571 
L 36.88608 94.47571 
L 38.303076 94.181075 
L 39.720073 94.14846 
L 41.137069 94.149355 
L 42.554066 94.879089 
L 43.971063 93.886631 
L 45.388059 93.345016 
L 46.805056 93.057689 
L 48.222053 93.995721 
L 49.639049 93.29611 
L 51.056046 94.559941 
L 52.473043 92.820728 
L 53.890039 95.10995 
L 55.307036 92.917019 
L 56.724033 92.46742 
L 58.141029 92.717434 
L 59.558026 93.538521 
L 60.975022 94.134378 
L 62.392019 90.545549 
L 63.809016 87.814247 
L 65.226012 88.489245 
L 66.643009 88.036392 
L 68.060006 87.487526 
L 69.477002 85.661756 
L 70.893999 87.065433 
L 72.310996 87.444819 
L 73.727992 87.265242 
L 75.144989 86.01368 
L 76.561985 87.166986 
L 77.978982 88.955648 
L 79.395979 87.646507 
L 80.812975 89.04072 
L 82.229972 88.92741 
L 83.646969 87.138732 
L 85.063965 89.360249 
L 86.480962 90.22203 
L 87.897959 89.521356 
L 89.314955 88.305459 
L 90.731952 88.649948 
L 92.148948 89.013297 
L 93.565945 89.643939 
L 94.982942 90.041963 
L 96.399938 89.011023 
L 97.816935 89.785643 
L 99.233932 91.0042 
L 100.650928 90.684139 
L 102.067925 92.21925 
L 103.484922 89.235942 
L 104.901918 90.35492 
L 106.318915 89.941063 
L 107.735911 90.235418 
L 109.152908 91.252146 
L 110.569905 90.696386 
L 111.986901 91.839432 
L 113.403898 91.542406 
L 114.820895 91.120051 
L 116.237891 91.325098 
L 117.654888 90.096382 
L 119.071885 92.63447 
L 120.488881 92.752032 
L 121.905878 92.567521 
L 123.322875 92.634241 
L 124.739871 91.5444 
" clip-path="url(#pb5a7e9a287)" style="fill: none; stroke: #808080; stroke-opacity: 0.3; stroke-width: 0.5; stroke-linecap: square"/>
   </g>
   <g id="line2d_17">
    <path d="M 12.797137 92.218644 
L 14.214133 92.374772 
L 15.63113 91.79936 
L 17.048127 93.596119 
L 18.465123 92.431332 
L 19.88212 91.533032 
L 21.299117 94.683642 
L 22.716113 91.461005 
L 24.13311 92.291382 
L 25.550106 93.888517 
L 26.967103 94.399505 
L 28.3841 92.437582 
L 29.801096 93.321253 
L 31.218093 94.792072 
L 32.63509 95.336807 
L 34.052086 93.488318 
L 35.469083 94.223302 
L 36.88608 94.223302 
L 38.303076 92.509418 
L 39.720073 93.027738 
L 41.137069 91.850103 
L 42.554066 92.459491 
L 43.971063 87.622049 
L 45.388059 84.826634 
L 46.805056 78.676328 
L 48.222053 76.826877 
L 49.639049 77.032975 
L 51.056046 76.497193 
L 52.473043 76.666156 
L 53.890039 75.343861 
L 55.307036 77.124767 
L 56.724033 75.896653 
L 58.141029 76.32162 
L 59.558026 76.388178 
L 60.975022 77.181062 
L 62.392019 78.269312 
L 63.809016 76.812644 
L 65.226012 76.34546 
L 66.643009 77.047656 
L 68.060006 80.032245 
L 69.477002 79.220398 
L 70.893999 78.283108 
L 72.310996 78.537977 
L 73.727992 80.24764 
L 75.144989 78.573083 
L 76.561985 78.803286 
L 77.978982 78.588181 
L 79.395979 80.53394 
L 80.812975 79.053466 
L 82.229972 82.193862 
L 83.646969 81.348173 
L 85.063965 80.557022 
L 86.480962 79.84745 
L 87.897959 81.105581 
L 89.314955 80.79837 
L 90.731952 80.491102 
L 92.148948 83.228425 
L 93.565945 81.96041 
L 94.982942 82.123056 
L 96.399938 81.761996 
L 97.816935 83.088165 
L 99.233932 82.896296 
L 100.650928 83.901451 
L 102.067925 83.475167 
L 103.484922 83.969691 
L 104.901918 84.209794 
L 106.318915 82.46081 
L 107.735911 84.201095 
L 109.152908 80.587089 
L 110.569905 81.975644 
L 111.986901 83.10558 
L 113.403898 81.811245 
L 114.820895 82.819871 
L 116.237891 84.336174 
L 117.654888 83.127513 
L 119.071885 83.229911 
L 120.488881 84.167857 
L 121.905878 84.688607 
L 123.322875 84.405521 
L 124.739871 85.073596 
" clip-path="url(#pb5a7e9a287)" style="fill: none; stroke: #808080; stroke-opacity: 0.3; stroke-width: 0.5; stroke-linecap: square"/>
   </g>
   <g id="line2d_18">
    <path d="M 12.797137 92.320123 
L 14.214133 92.901785 
L 15.63113 92.312192 
L 17.048127 92.600943 
L 18.465123 92.342936 
L 19.88212 92.379983 
L 21.299117 92.802653 
L 22.716113 92.995986 
L 24.13311 92.270761 
L 25.550106 93.055905 
L 26.967103 92.484263 
L 28.3841 93.124702 
L 29.801096 93.301724 
L 31.218093 92.922986 
L 32.63509 92.279386 
L 34.052086 91.295171 
L 35.469083 92.487638 
L 36.88608 92.487638 
L 38.303076 94.157662 
L 39.720073 93.662337 
L 41.137069 92.244254 
L 42.554066 92.113585 
L 43.971063 89.026996 
L 45.388059 87.010557 
L 46.805056 83.361413 
L 48.222053 82.793612 
L 49.639049 79.120861 
L 51.056046 78.419501 
L 52.473043 77.53482 
L 53.890039 76.736485 
L 55.307036 80.132323 
L 56.724033 78.022655 
L 58.141029 78.280882 
L 59.558026 77.873533 
L 60.975022 79.452963 
L 62.392019 77.084275 
L 63.809016 76.885789 
L 65.226012 75.430546 
L 66.643009 77.459047 
L 68.060006 76.49503 
L 69.477002 76.358195 
L 70.893999 78.624585 
L 72.310996 77.762313 
L 73.727992 77.607416 
L 75.144989 79.105529 
L 76.561985 76.776693 
L 77.978982 77.698773 
L 79.395979 80.182041 
L 80.812975 77.20539 
L 82.229972 78.136607 
L 83.646969 80.305215 
L 85.063965 82.379714 
L 86.480962 79.556614 
L 87.897959 81.776669 
L 89.314955 80.28328 
L 90.731952 82.168663 
L 92.148948 80.519072 
L 93.565945 80.37211 
L 94.982942 81.676253 
L 96.399938 81.747935 
L 97.816935 83.695504 
L 99.233932 83.354855 
L 100.650928 83.80738 
L 102.067925 83.802409 
L 103.484922 84.405558 
L 104.901918 84.319895 
L 106.318915 84.571166 
L 107.735911 85.009025 
L 109.152908 86.117797 
L 110.569905 85.20724 
L 111.986901 85.635918 
L 113.403898 86.772714 
L 114.820895 85.290574 
L 116.237891 88.805892 
L 117.654888 86.837553 
L 119.071885 88.302607 
L 120.488881 85.606042 
L 121.905878 87.703596 
L 123.322875 87.288891 
L 124.739871 88.063319 
" clip-path="url(#pb5a7e9a287)" style="fill: none; stroke: #808080; stroke-opacity: 0.3; stroke-width: 0.5; stroke-linecap: square"/>
   </g>
   <g id="line2d_19">
    <path d="M 12.797137 90.121023 
L 14.214133 89.364104 
L 15.63113 92.303209 
L 17.048127 92.66779 
L 18.465123 89.872706 
L 19.88212 90.723178 
L 21.299117 89.867079 
L 22.716113 90.927539 
L 24.13311 91.229936 
L 25.550106 90.565985 
L 26.967103 90.415629 
L 28.3841 90.063643 
L 29.801096 90.878116 
L 31.218093 90.869432 
L 32.63509 91.557936 
L 34.052086 90.374229 
L 35.469083 92.431369 
L 36.88608 92.431369 
L 38.303076 92.458799 
L 39.720073 92.375278 
L 41.137069 91.677236 
L 42.554066 90.07098 
L 43.971063 86.889386 
L 45.388059 83.245354 
L 46.805056 81.581007 
L 48.222053 77.796175 
L 49.639049 76.708642 
L 51.056046 79.230499 
L 52.473043 76.159372 
L 53.890039 75.406669 
L 55.307036 78.528554 
L 56.724033 76.148473 
L 58.141029 77.817643 
L 59.558026 74.209147 
L 60.975022 71.426316 
L 62.392019 67.540953 
L 63.809016 67.226755 
L 65.226012 66.763868 
L 66.643009 63.78119 
L 68.060006 64.662257 
L 69.477002 64.401139 
L 70.893999 64.173183 
L 72.310996 65.210134 
L 73.727992 66.266747 
L 75.144989 67.142204 
L 76.561985 65.305799 
L 77.978982 66.87972 
L 79.395979 68.41677 
L 80.812975 69.202933 
L 82.229972 69.5289 
L 83.646969 68.220103 
L 85.063965 68.290548 
L 86.480962 68.375917 
L 87.897959 71.28364 
L 89.314955 70.773637 
L 90.731952 72.700411 
L 92.148948 69.694319 
L 93.565945 71.76862 
L 94.982942 71.255853 
L 96.399938 71.315131 
L 97.816935 72.072816 
L 99.233932 71.47495 
L 100.650928 74.447391 
L 102.067925 73.356156 
L 103.484922 77.467784 
L 104.901918 74.607334 
L 106.318915 72.630484 
L 107.735911 72.592607 
L 109.152908 74.466709 
L 110.569905 73.347282 
L 111.986901 74.009084 
L 113.403898 72.703691 
L 114.820895 75.72579 
L 116.237891 75.235747 
L 117.654888 75.202742 
L 119.071885 77.413615 
L 120.488881 74.898379 
L 121.905878 75.793843 
L 123.322875 75.919931 
L 124.739871 77.085513 
" clip-path="url(#pb5a7e9a287)" style="fill: none; stroke: #808080; stroke-opacity: 0.3; stroke-width: 0.5; stroke-linecap: square"/>
   </g>
   <g id="line2d_20">
    <path d="M 12.797137 91.584182 
L 14.214133 90.980592 
L 15.63113 93.200007 
L 17.048127 91.884809 
L 18.465123 92.913435 
L 19.88212 93.228687 
L 21.299117 92.555657 
L 22.716113 93.125664 
L 24.13311 91.582938 
L 25.550106 90.956904 
L 26.967103 92.660021 
L 28.3841 92.51383 
L 29.801096 91.655749 
L 31.218093 93.439615 
L 32.63509 93.884911 
L 34.052086 92.996939 
L 35.469083 92.615278 
L 36.88608 92.615278 
L 38.303076 94.955625 
L 39.720073 94.10318 
L 41.137069 94.473028 
L 42.554066 92.545239 
L 43.971063 90.056575 
L 45.388059 88.182741 
L 46.805056 83.43752 
L 48.222053 82.562854 
L 49.639049 81.950957 
L 51.056046 81.223928 
L 52.473043 81.398351 
L 53.890039 81.526702 
L 55.307036 82.909648 
L 56.724033 80.134407 
L 58.141029 79.540479 
L 59.558026 80.261945 
L 60.975022 79.277327 
L 62.392019 77.42191 
L 63.809016 76.06923 
L 65.226012 77.401348 
L 66.643009 76.134228 
L 68.060006 74.589886 
L 69.477002 75.781228 
L 70.893999 75.08825 
L 72.310996 75.364855 
L 73.727992 76.924171 
L 75.144989 76.389322 
L 76.561985 77.494284 
L 77.978982 78.662814 
L 79.395979 79.199361 
L 80.812975 79.811567 
L 82.229972 78.827432 
L 83.646969 78.032652 
L 85.063965 78.441707 
L 86.480962 80.064979 
L 87.897959 79.609276 
L 89.314955 78.904833 
L 90.731952 81.616974 
L 92.148948 78.155386 
L 93.565945 80.763091 
L 94.982942 80.868201 
L 96.399938 80.063163 
L 97.816935 81.553879 
L 99.233932 82.109889 
L 100.650928 82.678328 
L 102.067925 82.736639 
L 103.484922 83.146927 
L 104.901918 80.818706 
L 106.318915 82.601796 
L 107.735911 84.833043 
L 109.152908 82.201723 
L 110.569905 82.814256 
L 111.986901 85.269035 
L 113.403898 83.050586 
L 114.820895 84.276954 
L 116.237891 85.373148 
L 117.654888 84.179214 
L 119.071885 85.72277 
L 120.488881 86.6926 
L 121.905878 86.685051 
L 123.322875 85.269464 
L 124.739871 86.258797 
" clip-path="url(#pb5a7e9a287)" style="fill: none; stroke: #808080; stroke-opacity: 0.3; stroke-width: 0.5; stroke-linecap: square"/>
   </g>
   <g id="line2d_21">
    <path d="M 12.797137 93.759054 
L 14.214133 92.708067 
L 15.63113 91.931433 
L 17.048127 92.846255 
L 18.465123 90.937147 
L 19.88212 92.068835 
L 21.299117 93.278934 
L 22.716113 93.967458 
L 24.13311 92.0998 
L 25.550106 94.95215 
L 26.967103 92.544341 
L 28.3841 95.177564 
L 29.801096 93.717083 
L 31.218093 93.69415 
L 32.63509 93.75092 
L 34.052086 92.845522 
L 35.469083 93.895145 
L 36.88608 93.895145 
L 38.303076 93.802128 
L 39.720073 91.698405 
L 41.137069 92.322233 
L 42.554066 93.021663 
L 43.971063 91.791471 
L 45.388059 87.704694 
L 46.805056 87.453944 
L 48.222053 80.924679 
L 49.639049 80.217037 
L 51.056046 78.958217 
L 52.473043 79.064504 
L 53.890039 80.023455 
L 55.307036 79.134114 
L 56.724033 78.349537 
L 58.141029 79.139217 
L 59.558026 75.918599 
L 60.975022 72.679535 
L 62.392019 70.148262 
L 63.809016 70.204114 
L 65.226012 68.587022 
L 66.643009 68.915464 
L 68.060006 68.974474 
L 69.477002 69.159911 
L 70.893999 70.501487 
L 72.310996 70.588877 
L 73.727992 68.166222 
L 75.144989 69.957466 
L 76.561985 69.351274 
L 77.978982 71.586181 
L 79.395979 72.780135 
L 80.812975 71.148671 
L 82.229972 71.149495 
L 83.646969 74.235242 
L 85.063965 74.420441 
L 86.480962 72.540073 
L 87.897959 74.384627 
L 89.314955 73.5267 
L 90.731952 73.173521 
L 92.148948 73.730376 
L 93.565945 76.202146 
L 94.982942 75.040273 
L 96.399938 75.08899 
L 97.816935 73.244481 
L 99.233932 75.639162 
L 100.650928 73.998176 
L 102.067925 73.03452 
L 103.484922 76.673667 
L 104.901918 74.29607 
L 106.318915 76.092225 
L 107.735911 77.277369 
L 109.152908 75.988934 
L 110.569905 75.322921 
L 111.986901 76.218211 
L 113.403898 77.855713 
L 114.820895 76.550562 
L 116.237891 78.284078 
L 117.654888 79.520082 
L 119.071885 79.234136 
L 120.488881 80.324516 
L 121.905878 79.423187 
L 123.322875 79.324414 
L 124.739871 78.654367 
" clip-path="url(#pb5a7e9a287)" style="fill: none; stroke: #808080; stroke-opacity: 0.3; stroke-width: 0.5; stroke-linecap: square"/>
   </g>
   <g id="line2d_22">
    <path d="M 12.797137 90.848997 
L 14.214133 92.667432 
L 15.63113 95.971402 
L 17.048127 94.043595 
L 18.465123 93.450069 
L 19.88212 95.15626 
L 21.299117 95.083048 
L 22.716113 93.798675 
L 24.13311 93.993225 
L 25.550106 94.317446 
L 26.967103 94.606993 
L 28.3841 92.995664 
L 29.801096 95.666135 
L 31.218093 94.293627 
L 32.63509 94.618445 
L 34.052086 94.627264 
L 35.469083 93.734257 
L 36.88608 93.734257 
L 38.303076 91.490417 
L 39.720073 93.187469 
L 41.137069 90.92997 
L 42.554066 92.609137 
L 43.971063 89.117648 
L 45.388059 87.507277 
L 46.805056 84.94783 
L 48.222053 81.428366 
L 49.639049 81.049348 
L 51.056046 81.20892 
L 52.473043 79.539643 
L 53.890039 82.03221 
L 55.307036 80.614299 
L 56.724033 79.132792 
L 58.141029 80.364198 
L 59.558026 77.970474 
L 60.975022 71.442764 
L 62.392019 73.002777 
L 63.809016 73.202224 
L 65.226012 73.769119 
L 66.643009 74.519646 
L 68.060006 74.075815 
L 69.477002 72.524545 
L 70.893999 71.873318 
L 72.310996 75.58845 
L 73.727992 73.577703 
L 75.144989 74.573803 
L 76.561985 73.425826 
L 77.978982 74.849836 
L 79.395979 75.113662 
L 80.812975 76.39492 
L 82.229972 74.324019 
L 83.646969 74.893228 
L 85.063965 74.986918 
L 86.480962 75.821665 
L 87.897959 77.841006 
L 89.314955 77.82727 
L 90.731952 74.695254 
L 92.148948 75.61471 
L 93.565945 76.13772 
L 94.982942 77.26864 
L 96.399938 78.653647 
L 97.816935 76.590626 
L 99.233932 75.481298 
L 100.650928 77.431813 
L 102.067925 78.341271 
L 103.484922 77.61784 
L 104.901918 76.503956 
L 106.318915 78.144353 
L 107.735911 80.443654 
L 109.152908 82.736263 
L 110.569905 79.118276 
L 111.986901 79.433163 
L 113.403898 80.430324 
L 114.820895 79.111981 
L 116.237891 79.04006 
L 117.654888 79.395954 
L 119.071885 82.115632 
L 120.488881 83.290608 
L 121.905878 80.185563 
L 123.322875 81.464696 
L 124.739871 82.876995 
" clip-path="url(#pb5a7e9a287)" style="fill: none; stroke: #808080; stroke-opacity: 0.3; stroke-width: 0.5; stroke-linecap: square"/>
   </g>
   <g id="line2d_23">
    <path d="M 12.797137 91.462737 
L 14.214133 91.027892 
L 15.63113 91.479084 
L 17.048127 90.006412 
L 18.465123 91.932448 
L 19.88212 90.36665 
L 21.299117 91.986036 
L 22.716113 90.283589 
L 24.13311 89.592804 
L 25.550106 90.137788 
L 26.967103 90.700528 
L 28.3841 91.308656 
L 29.801096 89.867337 
L 31.218093 90.259111 
L 32.63509 91.384617 
L 34.052086 91.274528 
L 35.469083 90.025703 
L 36.88608 90.025703 
L 38.303076 93.43062 
L 39.720073 92.522748 
L 41.137069 92.473188 
L 42.554066 91.803688 
L 43.971063 90.88256 
L 45.388059 84.768831 
L 46.805056 84.111829 
L 48.222053 82.250334 
L 49.639049 82.696854 
L 51.056046 81.615734 
L 52.473043 80.970495 
L 53.890039 81.768867 
L 55.307036 81.395624 
L 56.724033 81.760726 
L 58.141029 83.369237 
L 59.558026 82.117582 
L 60.975022 79.466545 
L 62.392019 79.077666 
L 63.809016 75.610594 
L 65.226012 75.232147 
L 66.643009 75.520587 
L 68.060006 76.802505 
L 69.477002 77.120368 
L 70.893999 76.710399 
L 72.310996 78.220359 
L 73.727992 78.533818 
L 75.144989 76.618142 
L 76.561985 78.331984 
L 77.978982 78.442937 
L 79.395979 79.798377 
L 80.812975 77.978363 
L 82.229972 77.399189 
L 83.646969 77.378252 
L 85.063965 79.396687 
L 86.480962 79.609482 
L 87.897959 77.822873 
L 89.314955 78.34644 
L 90.731952 78.295259 
L 92.148948 79.301265 
L 93.565945 81.056274 
L 94.982942 79.883331 
L 96.399938 82.879316 
L 97.816935 79.395753 
L 99.233932 81.355594 
L 100.650928 79.693793 
L 102.067925 80.799423 
L 103.484922 82.912421 
L 104.901918 80.457815 
L 106.318915 82.439242 
L 107.735911 82.505512 
L 109.152908 83.403014 
L 110.569905 82.636431 
L 111.986901 84.645545 
L 113.403898 80.136425 
L 114.820895 82.252374 
L 116.237891 82.559213 
L 117.654888 81.926434 
L 119.071885 84.592869 
L 120.488881 83.294245 
L 121.905878 82.097563 
L 123.322875 82.417171 
L 124.739871 82.79491 
" clip-path="url(#pb5a7e9a287)" style="fill: none; stroke: #808080; stroke-opacity: 0.3; stroke-width: 0.5; stroke-linecap: square"/>
   </g>
   <g id="line2d_24">
    <path d="M 12.797137 92.151403 
L 14.214133 88.84599 
L 15.63113 90.6913 
L 17.048127 91.32073 
L 18.465123 91.101294 
L 19.88212 91.577506 
L 21.299117 90.150144 
L 22.716113 93.631909 
L 24.13311 91.235563 
L 25.550106 91.151782 
L 26.967103 92.461705 
L 28.3841 91.170443 
L 29.801096 90.558794 
L 31.218093 90.786653 
L 32.63509 89.732434 
L 34.052086 91.401787 
L 35.469083 92.84287 
L 36.88608 92.84287 
L 38.303076 93.984851 
L 39.720073 94.361059 
L 41.137069 94.467922 
L 42.554066 92.253739 
L 43.971063 90.285597 
L 45.388059 86.553042 
L 46.805056 85.610094 
L 48.222053 83.561403 
L 49.639049 84.074014 
L 51.056046 84.584054 
L 52.473043 85.394433 
L 53.890039 84.191292 
L 55.307036 83.660705 
L 56.724033 84.21129 
L 58.141029 84.655876 
L 59.558026 80.287233 
L 60.975022 76.691883 
L 62.392019 72.215067 
L 63.809016 74.535157 
L 65.226012 72.405393 
L 66.643009 69.540631 
L 68.060006 71.648476 
L 69.477002 72.241547 
L 70.893999 73.741706 
L 72.310996 73.521505 
L 73.727992 71.575114 
L 75.144989 71.636687 
L 76.561985 73.50251 
L 77.978982 74.309052 
L 79.395979 74.812379 
L 80.812975 76.261262 
L 82.229972 73.763884 
L 83.646969 70.992841 
L 85.063965 74.111225 
L 86.480962 74.939351 
L 87.897959 74.857469 
L 89.314955 76.2662 
L 90.731952 75.831637 
L 92.148948 73.619242 
L 93.565945 74.803753 
L 94.982942 74.218368 
L 96.399938 77.022493 
L 97.816935 76.636005 
L 99.233932 76.372997 
L 100.650928 77.940921 
L 102.067925 77.541221 
L 103.484922 77.308757 
L 104.901918 74.130272 
L 106.318915 77.387492 
L 107.735911 77.767029 
L 109.152908 79.620119 
L 110.569905 78.17176 
L 111.986901 78.748391 
L 113.403898 78.586894 
L 114.820895 77.31479 
L 116.237891 76.991699 
L 117.654888 80.466983 
L 119.071885 78.0082 
L 120.488881 79.560744 
L 121.905878 78.670804 
L 123.322875 79.252007 
L 124.739871 80.995559 
" clip-path="url(#pb5a7e9a287)" style="fill: none; stroke: #808080; stroke-opacity: 0.3; stroke-width: 0.5; stroke-linecap: square"/>
   </g>
   <g id="line2d_25">
    <path d="M 12.797137 91.519466 
L 14.214133 92.773755 
L 15.63113 92.987323 
L 17.048127 95.041048 
L 18.465123 92.350207 
L 19.88212 92.296659 
L 21.299117 92.799738 
L 22.716113 92.898069 
L 24.13311 93.473869 
L 25.550106 92.78766 
L 26.967103 92.486512 
L 28.3841 94.852825 
L 29.801096 93.31724 
L 31.218093 93.617718 
L 32.63509 94.256006 
L 34.052086 91.798011 
L 35.469083 92.804769 
L 36.88608 92.804769 
L 38.303076 93.382868 
L 39.720073 93.926968 
L 41.137069 92.081336 
L 42.554066 90.822967 
L 43.971063 88.389106 
L 45.388059 85.354041 
L 46.805056 84.2523 
L 48.222053 82.337559 
L 49.639049 80.820779 
L 51.056046 80.175615 
L 52.473043 81.816714 
L 53.890039 81.006686 
L 55.307036 79.869412 
L 56.724033 80.290258 
L 58.141029 81.651058 
L 59.558026 80.448157 
L 60.975022 76.616102 
L 62.392019 77.72032 
L 63.809016 74.160889 
L 65.226012 76.770118 
L 66.643009 73.101534 
L 68.060006 75.240048 
L 69.477002 74.274143 
L 70.893999 76.111607 
L 72.310996 73.136884 
L 73.727992 76.355049 
L 75.144989 74.764795 
L 76.561985 75.693366 
L 77.978982 75.514341 
L 79.395979 75.848752 
L 80.812975 76.069197 
L 82.229972 77.657448 
L 83.646969 77.105651 
L 85.063965 78.785412 
L 86.480962 78.293173 
L 87.897959 79.809645 
L 89.314955 78.190894 
L 90.731952 80.420938 
L 92.148948 78.217332 
L 93.565945 79.18741 
L 94.982942 80.926513 
L 96.399938 81.107237 
L 97.816935 82.101624 
L 99.233932 80.900285 
L 100.650928 82.682416 
L 102.067925 82.696781 
L 103.484922 83.211754 
L 104.901918 83.188188 
L 106.318915 84.495297 
L 107.735911 83.055491 
L 109.152908 81.282708 
L 110.569905 84.915534 
L 111.986901 84.189812 
L 113.403898 82.289325 
L 114.820895 83.987407 
L 116.237891 82.329645 
L 117.654888 84.340777 
L 119.071885 85.045215 
L 120.488881 82.519977 
L 121.905878 86.976298 
L 123.322875 85.696485 
L 124.739871 85.812215 
" clip-path="url(#pb5a7e9a287)" style="fill: none; stroke: #808080; stroke-opacity: 0.3; stroke-width: 0.5; stroke-linecap: square"/>
   </g>
   <g id="line2d_26">
    <path d="M 12.797137 90.34781 
L 14.214133 91.749038 
L 15.63113 93.091344 
L 17.048127 92.611519 
L 18.465123 91.984516 
L 19.88212 91.784677 
L 21.299117 90.305206 
L 22.716113 89.941082 
L 24.13311 92.960285 
L 25.550106 90.576968 
L 26.967103 90.211048 
L 28.3841 93.762943 
L 29.801096 91.536942 
L 31.218093 90.848541 
L 32.63509 92.237134 
L 34.052086 89.42961 
L 35.469083 91.150994 
L 36.88608 91.150994 
L 38.303076 92.650821 
L 39.720073 91.799027 
L 41.137069 91.908146 
L 42.554066 91.051878 
L 43.971063 92.32128 
L 45.388059 90.450761 
L 46.805056 89.544263 
L 48.222053 85.828168 
L 49.639049 88.619096 
L 51.056046 86.22551 
L 52.473043 86.611657 
L 53.890039 87.390908 
L 55.307036 84.954496 
L 56.724033 87.097421 
L 58.141029 87.317201 
L 59.558026 86.757556 
L 60.975022 84.687993 
L 62.392019 80.921195 
L 63.809016 81.806081 
L 65.226012 81.965214 
L 66.643009 80.315087 
L 68.060006 80.210274 
L 69.477002 82.218508 
L 70.893999 79.731872 
L 72.310996 81.208011 
L 73.727992 80.214448 
L 75.144989 79.98192 
L 76.561985 80.283671 
L 77.978982 80.236892 
L 79.395979 81.107996 
L 80.812975 82.859028 
L 82.229972 83.431348 
L 83.646969 84.511058 
L 85.063965 84.509387 
L 86.480962 83.295237 
L 87.897959 85.413416 
L 89.314955 84.361428 
L 90.731952 84.286239 
L 92.148948 84.521319 
L 93.565945 83.115506 
L 94.982942 84.938937 
L 96.399938 82.209689 
L 97.816935 84.770025 
L 99.233932 85.84774 
L 100.650928 83.966105 
L 102.067925 84.302527 
L 103.484922 86.738718 
L 104.901918 85.500113 
L 106.318915 83.067617 
L 107.735911 83.925206 
L 109.152908 85.109172 
L 110.569905 85.48503 
L 111.986901 84.638213 
L 113.403898 84.918214 
L 114.820895 84.726694 
L 116.237891 87.126198 
L 117.654888 85.605602 
L 119.071885 85.454131 
L 120.488881 85.33826 
L 121.905878 88.233552 
L 123.322875 85.556196 
L 124.739871 85.197683 
" clip-path="url(#pb5a7e9a287)" style="fill: none; stroke: #808080; stroke-opacity: 0.3; stroke-width: 0.5; stroke-linecap: square"/>
   </g>
   <g id="line2d_27">
    <path d="M 12.797137 90.759428 
L 14.214133 90.738061 
L 15.63113 91.52752 
L 17.048127 91.504603 
L 18.465123 91.22625 
L 19.88212 91.449811 
L 21.299117 91.692076 
L 22.716113 91.7124 
L 24.13311 91.88205 
L 25.550106 91.76929 
L 26.967103 92.159059 
L 28.3841 92.103365 
L 29.801096 92.509841 
L 31.218093 92.493345 
L 32.63509 92.709304 
L 34.052086 92.508668 
L 35.469083 92.91462 
L 36.88608 92.91462 
L 38.303076 93.459425 
L 39.720073 93.17493 
L 41.137069 92.726599 
L 42.554066 90.870897 
L 43.971063 86.481429 
L 45.388059 81.400368 
L 46.805056 76.378839 
L 48.222053 72.128412 
L 49.639049 69.936656 
L 51.056046 68.156238 
L 52.473043 68.081774 
L 53.890039 67.330005 
L 55.307036 67.905118 
L 56.724033 67.276887 
L 58.141029 66.228636 
L 59.558026 64.255253 
L 60.975022 61.507993 
L 62.392019 58.632267 
L 63.809016 57.722957 
L 65.226012 56.948079 
L 66.643009 56.633538 
L 68.060006 57.08409 
L 69.477002 57.296435 
L 70.893999 57.126502 
L 72.310996 58.264156 
L 73.727992 57.477911 
L 75.144989 58.039376 
L 76.561985 57.981258 
L 77.978982 59.376041 
L 79.395979 59.97132 
L 80.812975 59.959904 
L 82.229972 60.975763 
L 83.646969 60.959566 
L 85.063965 62.132207 
L 86.480962 62.059523 
L 87.897959 62.68277 
L 89.314955 62.944015 
L 90.731952 63.311233 
L 92.148948 62.458494 
L 93.565945 63.151234 
L 94.982942 63.481704 
L 96.399938 64.033061 
L 97.816935 64.514271 
L 99.233932 65.061681 
L 100.650928 65.568259 
L 102.067925 65.688488 
L 103.484922 67.01586 
L 104.901918 66.661235 
L 106.318915 67.352946 
L 107.735911 67.690391 
L 109.152908 68.110503 
L 110.569905 68.48609 
L 111.986901 68.998565 
L 113.403898 69.075938 
L 114.820895 69.404529 
L 116.237891 70.148844 
L 117.654888 70.722037 
L 119.071885 70.758083 
L 120.488881 71.092443 
L 121.905878 71.429118 
L 123.322875 71.80548 
L 124.739871 72.034739 
" clip-path="url(#pb5a7e9a287)" style="fill: none; stroke: #7fffd4; stroke-opacity: 0.9; stroke-linecap: square"/>
   </g>
   <g id="line2d_28">
    <path d="M 36.88608 93.069859 
L 41.1229 93.069859 
L 41.1229 93.069859 
" clip-path="url(#pb5a7e9a287)" style="fill: none; stroke: #ff0000; stroke-opacity: 0.5; stroke-width: 1.5; stroke-linecap: square"/>
   </g>
   <g id="line2d_29">
    <path d="M 51.764544 93.069859 
L 56.001364 93.069859 
L 56.001364 93.069859 
" clip-path="url(#pb5a7e9a287)" style="fill: none; stroke: #ff0000; stroke-opacity: 0.5; stroke-width: 1.5; stroke-linecap: square"/>
   </g>
  </g>
 </g>
 <defs>
  <clipPath id="pb5a7e9a287">
   <rect x="7.2" y="7.2" width="123.137008" height="92.862992"/>
  </clipPath>
 </defs>
</svg>
