<?xml version="1.0" encoding="utf-8" standalone="no"?>
<!DOCTYPE svg PUBLIC "-//W3C//DTD SVG 1.1//EN"
  "http://www.w3.org/Graphics/SVG/1.1/DTD/svg11.dtd">
<svg xmlns:xlink="http://www.w3.org/1999/xlink" width="432pt" height="288pt" viewBox="0 0 432 288" xmlns="http://www.w3.org/2000/svg" version="1.1">
 <metadata>
  <rdf:RDF xmlns:dc="http://purl.org/dc/elements/1.1/" xmlns:cc="http://creativecommons.org/ns#" xmlns:rdf="http://www.w3.org/1999/02/22-rdf-syntax-ns#">
   <cc:Work>
    <dc:type rdf:resource="http://purl.org/dc/dcmitype/StillImage"/>
    <dc:date>2023-11-20T14:32:24.916205</dc:date>
    <dc:format>image/svg+xml</dc:format>
    <dc:creator>
     <cc:Agent>
      <dc:title>Matplotlib v3.7.2, https://matplotlib.org/</dc:title>
     </cc:Agent>
    </dc:creator>
   </cc:Work>
  </rdf:RDF>
 </metadata>
 <defs>
  <style type="text/css">*{stroke-linejoin: round; stroke-linecap: butt}</style>
 </defs>
 <g id="figure_1">
  <g id="patch_1">
   <path d="M 0 288 
L 432 288 
L 432 0 
L 0 0 
z
" style="fill: #ffffff"/>
  </g>
  <g id="axes_1">
   <g id="patch_2">
    <path d="M 54.016364 265.675895 
L 414.72 265.675895 
L 414.72 17.28 
L 54.016364 17.28 
z
" style="fill: #ffffff"/>
   </g>
   <g id="matplotlib.axis_1"/>
   <g id="matplotlib.axis_2"/>
   <g id="line2d_1">
    <path d="M 74.510888 213.260178 
L 78.609793 220.785126 
L 82.708698 216.098198 
L 86.807603 225.820563 
L 90.906508 216.118097 
L 95.005413 224.931485 
L 99.104318 224.846681 
L 103.203223 216.724373 
L 107.302128 232.43866 
L 111.401033 234.080756 
L 115.499938 224.300863 
L 119.598843 226.386799 
L 123.697748 226.662683 
L 127.796653 235.61494 
L 131.895558 247.243357 
L 135.994463 241.525967 
L 140.093368 239.820954 
L 144.192273 239.820954 
L 148.291178 237.61751 
L 152.390083 237.72357 
L 156.488988 236.367079 
L 160.587893 225.854833 
L 164.686798 213.119963 
L 168.785702 167.53764 
L 172.884607 181.534645 
L 176.983512 172.724274 
L 181.082417 172.353741 
L 185.181322 175.179416 
L 189.280227 180.013042 
L 193.379132 192.209465 
L 197.478037 187.034723 
L 201.576942 174.447844 
L 205.675847 165.529407 
L 209.774752 154.99805 
L 213.873657 140.087804 
L 217.972562 149.089597 
L 222.071467 147.062648 
L 226.170372 129.95037 
L 230.269277 143.778412 
L 234.368182 133.894594 
L 238.467087 150.904559 
L 242.565992 151.52362 
L 246.664897 146.672719 
L 250.763802 136.63741 
L 254.862707 155.879296 
L 258.961612 155.702283 
L 263.060517 162.001803 
L 267.159421 145.806554 
L 271.258326 165.275246 
L 275.357231 154.174163 
L 279.456136 162.76081 
L 283.555041 158.077783 
L 287.653946 163.284443 
L 291.752851 168.856203 
L 295.851756 169.700255 
L 299.950661 172.908856 
L 304.049566 174.244064 
L 308.148471 169.525067 
L 312.247376 164.445819 
L 316.346281 175.877056 
L 320.445186 171.657907 
L 324.544091 181.284442 
L 328.642996 168.535043 
L 332.741901 183.380832 
L 336.840806 176.110875 
L 340.939711 177.693795 
L 345.038616 178.609757 
L 349.137521 187.112823 
L 353.236426 191.04831 
L 357.335331 197.728519 
L 361.434236 188.110346 
L 365.53314 193.023107 
L 369.632045 203.789694 
L 373.73095 197.959907 
L 377.829855 186.876569 
L 381.92876 183.186559 
L 386.027665 165.562666 
L 390.12657 167.942875 
L 394.225475 164.664844 
L 398.32438 163.878796 
" clip-path="url(#pf8fdbe78eb)" style="fill: none; stroke: #808080; stroke-opacity: 0.3; stroke-width: 1.5; stroke-linecap: square"/>
   </g>
   <g id="line2d_2">
    <path d="M 74.510888 236.369594 
L 78.609793 246.124057 
L 82.708698 241.71535 
L 86.807603 235.833827 
L 90.906508 231.36876 
L 95.005413 241.36447 
L 99.104318 236.16601 
L 103.203223 227.577206 
L 107.302128 232.911002 
L 111.401033 237.073675 
L 115.499938 239.097624 
L 119.598843 240.97372 
L 123.697748 241.174374 
L 127.796653 235.751209 
L 131.895558 246.703979 
L 135.994463 234.367407 
L 140.093368 233.133701 
L 144.192273 233.133701 
L 148.291178 231.347728 
L 152.390083 230.067467 
L 156.488988 228.758611 
L 160.587893 228.476031 
L 164.686798 193.045196 
L 168.785702 191.030938 
L 172.884607 167.180104 
L 176.983512 151.071218 
L 181.082417 155.00693 
L 185.181322 141.061746 
L 189.280227 136.464697 
L 193.379132 154.203735 
L 197.478037 149.552411 
L 201.576942 153.888914 
L 205.675847 128.721836 
L 209.774752 116.247503 
L 213.873657 106.050246 
L 217.972562 94.757539 
L 222.071467 77.256515 
L 226.170372 92.703643 
L 230.269277 73.180361 
L 234.368182 93.911101 
L 238.467087 89.360393 
L 242.565992 81.898543 
L 246.664897 96.024315 
L 250.763802 92.995378 
L 254.862707 106.789351 
L 258.961612 109.246494 
L 263.060517 94.559908 
L 267.159421 101.066019 
L 271.258326 114.88652 
L 275.357231 107.526911 
L 279.456136 118.681774 
L 283.555041 101.213713 
L 287.653946 109.10157 
L 291.752851 114.966156 
L 295.851756 120.393257 
L 299.950661 112.647017 
L 304.049566 121.759815 
L 308.148471 123.641116 
L 312.247376 106.181249 
L 316.346281 120.821574 
L 320.445186 142.011647 
L 324.544091 131.299204 
L 328.642996 143.214042 
L 332.741901 143.09614 
L 336.840806 145.215735 
L 340.939711 146.691113 
L 345.038616 141.518084 
L 349.137521 141.940494 
L 353.236426 155.056747 
L 357.335331 149.987672 
L 361.434236 164.440761 
L 365.53314 154.364547 
L 369.632045 156.873796 
L 373.73095 162.359235 
L 377.829855 162.031544 
L 381.92876 157.822382 
L 386.027665 164.696269 
L 390.12657 156.957977 
L 394.225475 169.167648 
L 398.32438 169.510404 
" clip-path="url(#pf8fdbe78eb)" style="fill: none; stroke: #808080; stroke-opacity: 0.3; stroke-width: 1.5; stroke-linecap: square"/>
   </g>
   <g id="line2d_3">
    <path d="M 74.510888 264.134746 
L 78.609793 249.957091 
L 82.708698 250.04146 
L 86.807603 247.078599 
L 90.906508 253.082736 
L 95.005413 247.060656 
L 99.104318 252.942611 
L 103.203223 246.025771 
L 107.302128 250.307143 
L 111.401033 244.276892 
L 115.499938 254.412838 
L 119.598843 241.559533 
L 123.697748 245.2246 
L 127.796653 254.687821 
L 131.895558 241.541911 
L 135.994463 252.359249 
L 140.093368 243.687716 
L 144.192273 243.687716 
L 148.291178 233.823499 
L 152.390083 233.56627 
L 156.488988 232.652123 
L 160.587893 231.481638 
L 164.686798 212.77786 
L 168.785702 196.46733 
L 172.884607 192.570687 
L 176.983512 184.124619 
L 181.082417 183.517829 
L 185.181322 177.516704 
L 189.280227 167.245825 
L 193.379132 177.392594 
L 197.478037 167.053593 
L 201.576942 171.939963 
L 205.675847 178.697262 
L 209.774752 151.854613 
L 213.873657 145.667147 
L 217.972562 136.491356 
L 222.071467 138.476029 
L 226.170372 156.01773 
L 230.269277 134.374016 
L 234.368182 144.440013 
L 238.467087 152.866207 
L 242.565992 150.184917 
L 246.664897 153.730068 
L 250.763802 149.94323 
L 254.862707 140.929843 
L 258.961612 156.506805 
L 263.060517 156.259912 
L 267.159421 155.620873 
L 271.258326 157.418067 
L 275.357231 166.134396 
L 279.456136 159.790796 
L 283.555041 162.919816 
L 287.653946 166.332421 
L 291.752851 166.89028 
L 295.851756 166.089956 
L 299.950661 170.972425 
L 304.049566 183.199926 
L 308.148471 169.27966 
L 312.247376 175.523446 
L 316.346281 183.744972 
L 320.445186 180.327392 
L 324.544091 173.301847 
L 328.642996 188.348116 
L 332.741901 192.322232 
L 336.840806 177.85105 
L 340.939711 192.000298 
L 345.038616 180.677755 
L 349.137521 195.378388 
L 353.236426 178.110222 
L 357.335331 190.112762 
L 361.434236 189.376271 
L 365.53314 202.167387 
L 369.632045 201.975494 
L 373.73095 199.365203 
L 377.829855 200.233255 
L 381.92876 200.516145 
L 386.027665 197.542012 
L 390.12657 201.258356 
L 394.225475 203.525515 
L 398.32438 196.667324 
" clip-path="url(#pf8fdbe78eb)" style="fill: none; stroke: #808080; stroke-opacity: 0.3; stroke-width: 1.5; stroke-linecap: square"/>
   </g>
   <g id="line2d_4">
    <path d="M 74.510888 236.127304 
L 78.609793 238.465181 
L 82.708698 255.87202 
L 86.807603 252.719297 
L 90.906508 243.150735 
L 95.005413 245.758522 
L 99.104318 239.424306 
L 103.203223 220.103101 
L 107.302128 239.797066 
L 111.401033 237.536044 
L 115.499938 245.027029 
L 119.598843 238.756037 
L 123.697748 239.476656 
L 127.796653 242.145524 
L 131.895558 243.799148 
L 135.994463 238.026033 
L 140.093368 237.162404 
L 144.192273 237.162404 
L 148.291178 244.257913 
L 152.390083 240.062239 
L 156.488988 240.40604 
L 160.587893 224.576121 
L 164.686798 204.948077 
L 168.785702 205.719899 
L 172.884607 205.314253 
L 176.983512 191.868323 
L 181.082417 191.12008 
L 185.181322 203.25989 
L 189.280227 199.336624 
L 193.379132 191.107478 
L 197.478037 205.136493 
L 201.576942 200.979814 
L 205.675847 180.016601 
L 209.774752 155.813925 
L 213.873657 145.641211 
L 217.972562 136.907419 
L 222.071467 133.773381 
L 226.170372 127.111496 
L 230.269277 134.011876 
L 234.368182 130.381657 
L 238.467087 154.490975 
L 242.565992 138.314076 
L 246.664897 153.441785 
L 250.763802 143.60852 
L 254.862707 147.293701 
L 258.961612 141.037543 
L 263.060517 146.520877 
L 267.159421 145.688392 
L 271.258326 155.116981 
L 275.357231 156.225234 
L 279.456136 158.870397 
L 283.555041 157.737603 
L 287.653946 162.389718 
L 291.752851 165.630018 
L 295.851756 162.296568 
L 299.950661 172.684586 
L 304.049566 175.518524 
L 308.148471 170.027746 
L 312.247376 180.760584 
L 316.346281 168.618155 
L 320.445186 175.529703 
L 324.544091 169.856331 
L 328.642996 177.193939 
L 332.741901 168.35815 
L 336.840806 179.286576 
L 340.939711 177.870296 
L 345.038616 177.826307 
L 349.137521 171.359604 
L 353.236426 182.927608 
L 357.335331 172.329919 
L 361.434236 190.694302 
L 365.53314 190.667823 
L 369.632045 184.237877 
L 373.73095 184.939318 
L 377.829855 200.403827 
L 381.92876 185.671674 
L 386.027665 201.39107 
L 390.12657 199.284994 
L 394.225475 187.744739 
L 398.32438 195.703174 
" clip-path="url(#pf8fdbe78eb)" style="fill: none; stroke: #808080; stroke-opacity: 0.3; stroke-width: 1.5; stroke-linecap: square"/>
   </g>
   <g id="line2d_5">
    <path d="M 74.510888 218.597477 
L 78.609793 227.344966 
L 82.708698 226.151629 
L 86.807603 226.030608 
L 90.906508 221.233478 
L 95.005413 220.897361 
L 99.104318 232.35716 
L 103.203223 227.665711 
L 107.302128 221.911521 
L 111.401033 232.141711 
L 115.499938 226.997198 
L 119.598843 224.518203 
L 123.697748 224.802595 
L 127.796653 226.899379 
L 131.895558 236.280248 
L 135.994463 228.68946 
L 140.093368 234.025874 
L 144.192273 234.025874 
L 148.291178 243.192174 
L 152.390083 237.81807 
L 156.488988 238.9934 
L 160.587893 238.582786 
L 164.686798 215.802343 
L 168.785702 196.463501 
L 172.884607 191.530443 
L 176.983512 182.878692 
L 181.082417 193.617952 
L 185.181322 185.013345 
L 189.280227 182.379526 
L 193.379132 187.590214 
L 197.478037 188.922393 
L 201.576942 180.222127 
L 205.675847 174.450464 
L 209.774752 151.910166 
L 213.873657 130.210224 
L 217.972562 115.406805 
L 222.071467 118.973742 
L 226.170372 105.418187 
L 230.269277 114.393201 
L 234.368182 106.775526 
L 238.467087 111.083046 
L 242.565992 123.249409 
L 246.664897 109.697961 
L 250.763802 118.233841 
L 254.862707 118.660882 
L 258.961612 124.112865 
L 263.060517 113.368488 
L 267.159421 123.944544 
L 271.258326 131.715046 
L 275.357231 137.026516 
L 279.456136 133.860626 
L 283.555041 136.935433 
L 287.653946 131.291689 
L 291.752851 146.418836 
L 295.851756 129.915752 
L 299.950661 138.583681 
L 304.049566 133.248745 
L 308.148471 155.238257 
L 312.247376 130.478471 
L 316.346281 142.378674 
L 320.445186 136.388439 
L 324.544091 144.885506 
L 328.642996 143.024119 
L 332.741901 134.213289 
L 336.840806 144.849471 
L 340.939711 137.924701 
L 345.038616 150.635654 
L 349.137521 151.918742 
L 353.236426 159.955309 
L 357.335331 152.203426 
L 361.434236 151.90476 
L 365.53314 161.533028 
L 369.632045 164.508218 
L 373.73095 167.391013 
L 377.829855 158.961504 
L 381.92876 162.81851 
L 386.027665 171.507963 
L 390.12657 169.304026 
L 394.225475 168.006578 
L 398.32438 168.619182 
" clip-path="url(#pf8fdbe78eb)" style="fill: none; stroke: #808080; stroke-opacity: 0.3; stroke-width: 1.5; stroke-linecap: square"/>
   </g>
   <g id="line2d_6">
    <path d="M 74.510888 218.773641 
L 78.609793 234.346132 
L 82.708698 239.407062 
L 86.807603 236.138082 
L 90.906508 234.822672 
L 95.005413 225.045936 
L 99.104318 217.717491 
L 103.203223 226.602266 
L 107.302128 237.736064 
L 111.401033 233.84732 
L 115.499938 224.509847 
L 119.598843 240.672956 
L 123.697748 228.265621 
L 127.796653 214.26624 
L 131.895558 225.352001 
L 135.994463 226.035472 
L 140.093368 233.566743 
L 144.192273 233.566743 
L 148.291178 235.076927 
L 152.390083 227.71863 
L 156.488988 239.822073 
L 160.587893 224.493213 
L 164.686798 221.059066 
L 168.785702 216.902707 
L 172.884607 217.49197 
L 176.983512 211.826197 
L 181.082417 215.596204 
L 185.181322 219.542188 
L 189.280227 227.114527 
L 193.379132 216.604925 
L 197.478037 218.335275 
L 201.576942 230.061793 
L 205.675847 214.873856 
L 209.774752 216.671008 
L 213.873657 217.392768 
L 217.972562 213.642727 
L 222.071467 211.690223 
L 226.170372 212.928548 
L 230.269277 211.474475 
L 234.368182 226.734627 
L 238.467087 207.271935 
L 242.565992 218.323422 
L 246.664897 220.672696 
L 250.763802 226.587476 
L 254.862707 217.580994 
L 258.961612 211.388099 
L 263.060517 214.417014 
L 267.159421 215.109509 
L 271.258326 229.657029 
L 275.357231 226.59773 
L 279.456136 219.319285 
L 283.555041 219.463895 
L 287.653946 227.923205 
L 291.752851 216.171729 
L 295.851756 212.232144 
L 299.950661 218.826402 
L 304.049566 229.399628 
L 308.148471 226.932205 
L 312.247376 231.539182 
L 316.346281 220.972975 
L 320.445186 225.458625 
L 324.544091 237.891227 
L 328.642996 222.411443 
L 332.741901 226.9796 
L 336.840806 223.776718 
L 340.939711 232.127295 
L 345.038616 226.020808 
L 349.137521 223.583879 
L 353.236426 226.702608 
L 357.335331 223.041996 
L 361.434236 225.138964 
L 365.53314 230.915462 
L 369.632045 221.760412 
L 373.73095 231.078741 
L 377.829855 234.450528 
L 381.92876 233.508713 
L 386.027665 226.423606 
L 390.12657 228.332737 
L 394.225475 224.580825 
L 398.32438 231.916891 
" clip-path="url(#pf8fdbe78eb)" style="fill: none; stroke: #808080; stroke-opacity: 0.3; stroke-width: 1.5; stroke-linecap: square"/>
   </g>
   <g id="line2d_7">
    <path d="M 74.510888 237.984598 
L 78.609793 232.212847 
L 82.708698 239.689734 
L 86.807603 233.183792 
L 90.906508 232.937767 
L 95.005413 236.64279 
L 99.104318 238.97499 
L 103.203223 238.592162 
L 107.302128 238.231872 
L 111.401033 240.062006 
L 115.499938 231.942753 
L 119.598843 241.796442 
L 123.697748 225.878335 
L 127.796653 229.559645 
L 131.895558 224.513718 
L 135.994463 234.396255 
L 140.093368 234.107413 
L 144.192273 234.107413 
L 148.291178 243.810646 
L 152.390083 238.362786 
L 156.488988 233.486091 
L 160.587893 231.452975 
L 164.686798 224.737923 
L 168.785702 215.10367 
L 172.884607 207.556873 
L 176.983512 208.012659 
L 181.082417 196.937751 
L 185.181322 198.487827 
L 189.280227 204.346141 
L 193.379132 209.021229 
L 197.478037 210.749101 
L 201.576942 206.242319 
L 205.675847 201.620857 
L 209.774752 195.228554 
L 213.873657 172.292086 
L 217.972562 164.63505 
L 222.071467 167.084978 
L 226.170372 156.555301 
L 230.269277 173.167715 
L 234.368182 171.267108 
L 238.467087 164.849973 
L 242.565992 174.86247 
L 246.664897 172.005144 
L 250.763802 174.816364 
L 254.862707 173.14437 
L 258.961612 186.713071 
L 263.060517 163.222727 
L 267.159421 179.358979 
L 271.258326 181.509833 
L 275.357231 175.249262 
L 279.456136 188.50779 
L 283.555041 180.928951 
L 287.653946 191.926227 
L 291.752851 177.023041 
L 295.851756 186.474243 
L 299.950661 177.224739 
L 304.049566 186.404395 
L 308.148471 196.263893 
L 312.247376 192.960616 
L 316.346281 187.996857 
L 320.445186 200.566684 
L 324.544091 199.36755 
L 328.642996 195.671763 
L 332.741901 194.60798 
L 336.840806 199.989292 
L 340.939711 188.880783 
L 345.038616 196.942282 
L 349.137521 193.617369 
L 353.236426 203.843487 
L 357.335331 196.198803 
L 361.434236 205.646465 
L 365.53314 206.09093 
L 369.632045 204.324919 
L 373.73095 204.167966 
L 377.829855 196.428742 
L 381.92876 204.941709 
L 386.027665 201.019216 
L 390.12657 211.29342 
L 394.225475 209.380938 
L 398.32438 216.326407 
" clip-path="url(#pf8fdbe78eb)" style="fill: none; stroke: #808080; stroke-opacity: 0.3; stroke-width: 1.5; stroke-linecap: square"/>
   </g>
   <g id="line2d_8">
    <path d="M 74.510888 236.774521 
L 78.609793 237.821134 
L 82.708698 230.74066 
L 86.807603 235.40893 
L 90.906508 227.474057 
L 95.005413 232.730214 
L 99.104318 235.521015 
L 103.203223 243.501546 
L 107.302128 228.988145 
L 111.401033 248.895239 
L 115.499938 234.450066 
L 119.598843 242.724182 
L 123.697748 236.514858 
L 127.796653 228.14889 
L 131.895558 233.703969 
L 135.994463 224.87221 
L 140.093368 239.35812 
L 144.192273 239.35812 
L 148.291178 230.901573 
L 152.390083 236.243437 
L 156.488988 232.149201 
L 160.587893 238.253152 
L 164.686798 208.296641 
L 168.785702 203.190472 
L 172.884607 198.045007 
L 176.983512 204.924664 
L 181.082417 191.503196 
L 185.181322 191.691682 
L 189.280227 196.898904 
L 193.379132 189.737048 
L 197.478037 181.161948 
L 201.576942 184.403802 
L 205.675847 192.018253 
L 209.774752 182.762174 
L 213.873657 160.257041 
L 217.972562 147.165195 
L 222.071467 160.95254 
L 226.170372 139.580269 
L 230.269277 138.086236 
L 234.368182 131.521316 
L 238.467087 136.825815 
L 242.565992 145.361327 
L 246.664897 145.083966 
L 250.763802 147.357484 
L 254.862707 143.094256 
L 258.961612 143.021585 
L 263.060517 155.848736 
L 267.159421 157.242119 
L 271.258326 152.084281 
L 275.357231 146.334613 
L 279.456136 158.558857 
L 283.555041 157.392014 
L 287.653946 151.020692 
L 291.752851 172.436984 
L 295.851756 155.378686 
L 299.950661 165.920308 
L 304.049566 157.972481 
L 308.148471 171.577523 
L 312.247376 175.663954 
L 316.346281 171.485307 
L 320.445186 168.091286 
L 324.544091 173.978458 
L 328.642996 172.441426 
L 332.741901 172.016307 
L 336.840806 184.357253 
L 340.939711 183.595316 
L 345.038616 169.71524 
L 349.137521 189.848251 
L 353.236426 182.198008 
L 357.335331 182.633548 
L 361.434236 172.180815 
L 365.53314 190.474865 
L 369.632045 182.440609 
L 373.73095 188.930608 
L 377.829855 197.831789 
L 381.92876 196.225008 
L 386.027665 194.41255 
L 390.12657 200.09695 
L 394.225475 193.030381 
L 398.32438 193.130853 
" clip-path="url(#pf8fdbe78eb)" style="fill: none; stroke: #808080; stroke-opacity: 0.3; stroke-width: 1.5; stroke-linecap: square"/>
   </g>
   <g id="line2d_9">
    <path d="M 74.510888 242.236695 
L 78.609793 236.307678 
L 82.708698 227.310907 
L 86.807603 225.983977 
L 90.906508 244.227242 
L 95.005413 235.960644 
L 99.104318 223.125803 
L 103.203223 229.856921 
L 107.302128 241.139555 
L 111.401033 237.581133 
L 115.499938 239.932334 
L 119.598843 236.916059 
L 123.697748 237.976058 
L 127.796653 238.78778 
L 131.895558 239.489321 
L 135.994463 237.661609 
L 140.093368 233.770151 
L 144.192273 233.770151 
L 148.291178 236.20022 
L 152.390083 246.091719 
L 156.488988 240.037993 
L 160.587893 240.62224 
L 164.686798 230.584576 
L 168.785702 221.911093 
L 172.884607 212.776118 
L 176.983512 210.283274 
L 181.082417 217.938175 
L 185.181322 211.135635 
L 189.280227 219.199455 
L 193.379132 225.683796 
L 197.478037 217.224171 
L 201.576942 214.852161 
L 205.675847 223.537128 
L 209.774752 210.82229 
L 213.873657 192.847776 
L 217.972562 171.84949 
L 222.071467 132.401389 
L 226.170372 114.531021 
L 230.269277 94.473294 
L 234.368182 89.618984 
L 238.467087 85.805796 
L 242.565992 93.58217 
L 246.664897 99.752127 
L 250.763802 101.93791 
L 254.862707 86.341567 
L 258.961612 95.385178 
L 263.060517 106.382596 
L 267.159421 88.307128 
L 271.258326 99.281181 
L 275.357231 96.930044 
L 279.456136 103.541892 
L 283.555041 107.019512 
L 287.653946 108.269093 
L 291.752851 111.335462 
L 295.851756 115.288831 
L 299.950661 118.096855 
L 304.049566 117.295165 
L 308.148471 111.067674 
L 312.247376 125.292733 
L 316.346281 128.215554 
L 320.445186 127.048407 
L 324.544091 136.443435 
L 328.642996 138.389813 
L 332.741901 138.216652 
L 336.840806 139.825576 
L 340.939711 141.435125 
L 345.038616 140.861541 
L 349.137521 138.786154 
L 353.236426 151.690468 
L 357.335331 147.288203 
L 361.434236 152.99144 
L 365.53314 155.610485 
L 369.632045 149.853685 
L 373.73095 147.171277 
L 377.829855 153.468214 
L 381.92876 150.011709 
L 386.027665 165.444152 
L 390.12657 170.441627 
L 394.225475 158.611429 
L 398.32438 155.41906 
" clip-path="url(#pf8fdbe78eb)" style="fill: none; stroke: #808080; stroke-opacity: 0.3; stroke-width: 1.5; stroke-linecap: square"/>
   </g>
   <g id="line2d_10">
    <path d="M 74.510888 250.6821 
L 78.609793 250.438617 
L 82.708698 250.237869 
L 86.807603 249.786265 
L 90.906508 247.123893 
L 95.005413 248.939686 
L 99.104318 243.925448 
L 103.203223 248.029556 
L 107.302128 242.28059 
L 111.401033 249.919226 
L 115.499938 233.687438 
L 119.598843 247.776632 
L 123.697748 235.693687 
L 127.796653 241.356033 
L 131.895558 235.604834 
L 135.994463 243.860374 
L 140.093368 238.038686 
L 144.192273 238.038686 
L 148.291178 225.517738 
L 152.390083 224.528236 
L 156.488988 233.276074 
L 160.587893 231.745825 
L 164.686798 204.243889 
L 168.785702 196.607946 
L 172.884607 192.22231 
L 176.983512 190.785146 
L 181.082417 185.533502 
L 185.181322 190.610888 
L 189.280227 189.072374 
L 193.379132 189.136689 
L 197.478037 191.970235 
L 201.576942 180.50681 
L 205.675847 165.96784 
L 209.774752 150.591701 
L 213.873657 138.847128 
L 217.972562 129.575788 
L 222.071467 121.647598 
L 226.170372 114.266154 
L 230.269277 116.617845 
L 234.368182 123.021675 
L 238.467087 127.897198 
L 242.565992 130.737249 
L 246.664897 118.254424 
L 250.763802 110.717781 
L 254.862707 145.772824 
L 258.961612 129.060111 
L 263.060517 137.464261 
L 267.159421 137.660019 
L 271.258326 138.18109 
L 275.357231 152.379725 
L 279.456136 142.067017 
L 283.555041 147.513783 
L 287.653946 148.482267 
L 291.752851 153.600691 
L 295.851756 159.797881 
L 299.950661 161.187277 
L 304.049566 164.075183 
L 308.148471 154.212847 
L 312.247376 152.423998 
L 316.346281 164.112797 
L 320.445186 161.548213 
L 324.544091 166.113948 
L 328.642996 169.530659 
L 332.741901 167.316579 
L 336.840806 173.933462 
L 340.939711 174.085533 
L 345.038616 176.402776 
L 349.137521 178.448874 
L 353.236426 176.980971 
L 357.335331 170.951272 
L 361.434236 178.895111 
L 365.53314 178.787334 
L 369.632045 175.857555 
L 373.73095 182.932931 
L 377.829855 178.923497 
L 381.92876 182.498676 
L 386.027665 189.036396 
L 390.12657 195.62413 
L 394.225475 191.208749 
L 398.32438 195.1837 
" clip-path="url(#pf8fdbe78eb)" style="fill: none; stroke: #808080; stroke-opacity: 0.3; stroke-width: 1.5; stroke-linecap: square"/>
   </g>
   <g id="line2d_11">
    <path d="M 74.510888 238.79557 
L 78.609793 227.802697 
L 82.708698 235.641399 
L 86.807603 233.769361 
L 90.906508 235.220089 
L 95.005413 234.281996 
L 99.104318 238.852814 
L 103.203223 238.861237 
L 107.302128 233.295638 
L 111.401033 221.75765 
L 115.499938 230.167879 
L 119.598843 238.386108 
L 123.697748 237.173948 
L 127.796653 221.939483 
L 131.895558 237.188461 
L 135.994463 227.189403 
L 140.093368 237.443048 
L 144.192273 237.443048 
L 148.291178 239.28626 
L 152.390083 239.127045 
L 156.488988 233.743674 
L 160.587893 227.888737 
L 164.686798 223.511024 
L 168.785702 223.999484 
L 172.884607 221.130967 
L 176.983512 211.354901 
L 181.082417 212.885593 
L 185.181322 216.396601 
L 189.280227 221.964602 
L 193.379132 218.826615 
L 197.478037 215.239697 
L 201.576942 224.968319 
L 205.675847 219.498724 
L 209.774752 219.314291 
L 213.873657 207.486629 
L 217.972562 198.132297 
L 222.071467 201.40641 
L 226.170372 197.41868 
L 230.269277 191.435122 
L 234.368182 199.125657 
L 238.467087 197.098162 
L 242.565992 205.051605 
L 246.664897 198.764152 
L 250.763802 195.866966 
L 254.862707 202.073652 
L 258.961612 202.754174 
L 263.060517 203.273313 
L 267.159421 194.861623 
L 271.258326 199.228719 
L 275.357231 221.23419 
L 279.456136 200.043271 
L 283.555041 202.738145 
L 287.653946 207.212702 
L 291.752851 207.115949 
L 295.851756 200.588763 
L 299.950661 208.731334 
L 304.049566 200.466742 
L 308.148471 207.816914 
L 312.247376 205.361436 
L 316.346281 201.342976 
L 320.445186 200.506773 
L 324.544091 209.18311 
L 328.642996 204.59869 
L 332.741901 204.773587 
L 336.840806 208.030436 
L 340.939711 217.69572 
L 345.038616 210.134633 
L 349.137521 216.806488 
L 353.236426 218.383236 
L 357.335331 221.243232 
L 361.434236 224.841642 
L 365.53314 205.450062 
L 369.632045 208.692321 
L 373.73095 222.436425 
L 377.829855 215.857997 
L 381.92876 205.24478 
L 386.027665 201.303648 
L 390.12657 211.313316 
L 394.225475 203.506743 
L 398.32438 208.831848 
" clip-path="url(#pf8fdbe78eb)" style="fill: none; stroke: #808080; stroke-opacity: 0.3; stroke-width: 1.5; stroke-linecap: square"/>
   </g>
   <g id="line2d_12">
    <path d="M 74.510888 244.048197 
L 78.609793 242.257977 
L 82.708698 234.870306 
L 86.807603 240.028099 
L 90.906508 239.553298 
L 95.005413 242.59337 
L 99.104318 245.723465 
L 103.203223 249.401397 
L 107.302128 230.110627 
L 111.401033 242.951203 
L 115.499938 248.057766 
L 119.598843 243.856579 
L 123.697748 239.880488 
L 127.796653 235.061582 
L 131.895558 240.981086 
L 135.994463 242.85312 
L 140.093368 246.734329 
L 144.192273 246.734329 
L 148.291178 237.826779 
L 152.390083 243.895484 
L 156.488988 235.925124 
L 160.587893 235.552846 
L 164.686798 236.492261 
L 168.785702 233.276255 
L 172.884607 235.028942 
L 176.983512 234.747446 
L 181.082417 235.538264 
L 185.181322 238.36388 
L 189.280227 233.334809 
L 193.379132 233.698375 
L 197.478037 234.453577 
L 201.576942 229.027653 
L 205.675847 240.324717 
L 209.774752 233.76597 
L 213.873657 234.417717 
L 217.972562 235.258408 
L 222.071467 231.342727 
L 226.170372 240.524925 
L 230.269277 234.107327 
L 234.368182 241.941274 
L 238.467087 231.371032 
L 242.565992 224.151846 
L 246.664897 228.91269 
L 250.763802 239.452676 
L 254.862707 243.121264 
L 258.961612 226.361167 
L 263.060517 232.726176 
L 267.159421 241.389653 
L 271.258326 238.276459 
L 275.357231 229.566422 
L 279.456136 238.379128 
L 283.555041 243.101214 
L 287.653946 239.356553 
L 291.752851 233.40828 
L 295.851756 242.552324 
L 299.950661 235.688847 
L 304.049566 231.401619 
L 308.148471 244.193587 
L 312.247376 235.594677 
L 316.346281 236.946545 
L 320.445186 225.451446 
L 324.544091 238.473232 
L 328.642996 246.354461 
L 332.741901 242.991939 
L 336.840806 244.74684 
L 340.939711 233.699499 
L 345.038616 236.923746 
L 349.137521 236.576261 
L 353.236426 246.01814 
L 357.335331 238.255331 
L 361.434236 242.231498 
L 365.53314 249.012821 
L 369.632045 236.904355 
L 373.73095 229.386595 
L 377.829855 236.683378 
L 381.92876 230.198017 
L 386.027665 233.550844 
L 390.12657 232.10301 
L 394.225475 236.848755 
L 398.32438 245.826557 
" clip-path="url(#pf8fdbe78eb)" style="fill: none; stroke: #808080; stroke-opacity: 0.3; stroke-width: 1.5; stroke-linecap: square"/>
   </g>
   <g id="line2d_13">
    <path d="M 74.510888 225.866485 
L 78.609793 222.699564 
L 82.708698 216.339181 
L 86.807603 222.311913 
L 90.906508 220.399893 
L 95.005413 222.967634 
L 99.104318 227.955565 
L 103.203223 227.123483 
L 107.302128 226.466479 
L 111.401033 220.566595 
L 115.499938 224.22636 
L 119.598843 225.728951 
L 123.697748 217.312328 
L 127.796653 221.903973 
L 131.895558 226.408644 
L 135.994463 225.971561 
L 140.093368 229.813227 
L 144.192273 229.813227 
L 148.291178 231.744494 
L 152.390083 241.020555 
L 156.488988 247.696927 
L 160.587893 246.55925 
L 164.686798 235.438943 
L 168.785702 244.204755 
L 172.884607 234.316755 
L 176.983512 239.794728 
L 181.082417 230.807051 
L 185.181322 240.667654 
L 189.280227 245.055324 
L 193.379132 232.663382 
L 197.478037 234.463839 
L 201.576942 233.35093 
L 205.675847 241.684368 
L 209.774752 241.140912 
L 213.873657 228.792739 
L 217.972562 239.147202 
L 222.071467 236.798092 
L 226.170372 235.71773 
L 230.269277 228.232329 
L 234.368182 245.359126 
L 238.467087 224.632545 
L 242.565992 235.572268 
L 246.664897 231.529807 
L 250.763802 244.370636 
L 254.862707 239.010082 
L 258.961612 230.930228 
L 263.060517 241.637164 
L 267.159421 242.365713 
L 271.258326 229.248376 
L 275.357231 234.23704 
L 279.456136 243.53609 
L 283.555041 240.794861 
L 287.653946 238.520838 
L 291.752851 249.954971 
L 295.851756 242.116061 
L 299.950661 233.675662 
L 304.049566 232.54078 
L 308.148471 247.476235 
L 312.247376 237.611164 
L 316.346281 238.974932 
L 320.445186 240.983195 
L 324.544091 241.223885 
L 328.642996 245.230813 
L 332.741901 235.755381 
L 336.840806 242.161496 
L 340.939711 244.912706 
L 345.038616 240.822405 
L 349.137521 241.896351 
L 353.236426 236.377987 
L 357.335331 245.78619 
L 361.434236 242.005992 
L 365.53314 239.620481 
L 369.632045 250.335139 
L 373.73095 244.62193 
L 377.829855 239.364574 
L 381.92876 231.769851 
L 386.027665 241.008237 
L 390.12657 248.028751 
L 394.225475 244.839518 
L 398.32438 243.429392 
" clip-path="url(#pf8fdbe78eb)" style="fill: none; stroke: #808080; stroke-opacity: 0.3; stroke-width: 1.5; stroke-linecap: square"/>
   </g>
   <g id="line2d_14">
    <path d="M 74.510888 221.164072 
L 78.609793 221.268151 
L 82.708698 227.719766 
L 86.807603 220.298466 
L 90.906508 216.904297 
L 95.005413 224.808663 
L 99.104318 222.948376 
L 103.203223 217.158786 
L 107.302128 219.347364 
L 111.401033 220.150599 
L 115.499938 216.77808 
L 119.598843 227.594876 
L 123.697748 217.325682 
L 127.796653 215.448637 
L 131.895558 215.912477 
L 135.994463 211.23843 
L 140.093368 231.652158 
L 144.192273 231.652158 
L 148.291178 229.569102 
L 152.390083 235.556649 
L 156.488988 240.529814 
L 160.587893 239.638773 
L 164.686798 230.067405 
L 168.785702 216.947593 
L 172.884607 229.535773 
L 176.983512 227.407957 
L 181.082417 245.403188 
L 185.181322 228.050232 
L 189.280227 224.87175 
L 193.379132 228.218525 
L 197.478037 238.00216 
L 201.576942 231.894609 
L 205.675847 232.948408 
L 209.774752 237.724508 
L 213.873657 226.551705 
L 217.972562 233.029227 
L 222.071467 230.922609 
L 226.170372 230.924734 
L 230.269277 237.029681 
L 234.368182 236.114473 
L 238.467087 243.265798 
L 242.565992 243.010248 
L 246.664897 232.265694 
L 250.763802 237.929143 
L 254.862707 225.197247 
L 258.961612 235.412177 
L 263.060517 230.926204 
L 267.159421 234.812683 
L 271.258326 242.911923 
L 275.357231 244.517508 
L 279.456136 237.384804 
L 283.555041 233.484846 
L 287.653946 242.986992 
L 291.752851 238.576008 
L 295.851756 238.493137 
L 299.950661 234.042508 
L 304.049566 241.711324 
L 308.148471 237.546984 
L 312.247376 235.716724 
L 316.346281 238.059523 
L 320.445186 248.940075 
L 324.544091 241.356109 
L 328.642996 242.79829 
L 332.741901 230.716667 
L 336.840806 246.15293 
L 340.939711 240.760369 
L 345.038616 231.837661 
L 349.137521 242.550502 
L 353.236426 238.289307 
L 357.335331 248.721925 
L 361.434236 244.789233 
L 365.53314 243.801723 
L 369.632045 241.182801 
L 373.73095 237.594121 
L 377.829855 230.81872 
L 381.92876 240.775573 
L 386.027665 237.814509 
L 390.12657 240.485477 
L 394.225475 243.462823 
L 398.32438 243.757456 
" clip-path="url(#pf8fdbe78eb)" style="fill: none; stroke: #808080; stroke-opacity: 0.3; stroke-width: 1.5; stroke-linecap: square"/>
   </g>
   <g id="line2d_15">
    <path d="M 74.510888 212.936157 
L 78.609793 228.328812 
L 82.708698 225.697856 
L 86.807603 223.679436 
L 90.906508 226.965725 
L 95.005413 227.924193 
L 99.104318 214.608559 
L 103.203223 225.181419 
L 107.302128 230.645383 
L 111.401033 220.590928 
L 115.499938 233.110497 
L 119.598843 223.202034 
L 123.697748 223.975068 
L 127.796653 229.308005 
L 131.895558 234.661217 
L 135.994463 235.786879 
L 140.093368 232.586093 
L 144.192273 232.586093 
L 148.291178 238.353046 
L 152.390083 232.22281 
L 156.488988 240.024296 
L 160.587893 233.209456 
L 164.686798 234.891625 
L 168.785702 228.726896 
L 172.884607 239.978199 
L 176.983512 228.217514 
L 181.082417 231.552797 
L 185.181322 226.093533 
L 189.280227 226.231414 
L 193.379132 227.092542 
L 197.478037 229.11728 
L 201.576942 222.775827 
L 205.675847 223.141476 
L 209.774752 222.666854 
L 213.873657 226.785315 
L 217.972562 229.850754 
L 222.071467 237.517336 
L 226.170372 232.608932 
L 230.269277 221.924213 
L 234.368182 241.308888 
L 238.467087 233.739366 
L 242.565992 231.909121 
L 246.664897 228.957108 
L 250.763802 242.680063 
L 254.862707 232.73143 
L 258.961612 235.614362 
L 263.060517 234.16439 
L 267.159421 229.640704 
L 271.258326 240.22101 
L 275.357231 229.023735 
L 279.456136 234.020863 
L 283.555041 245.9231 
L 287.653946 226.937232 
L 291.752851 231.957539 
L 295.851756 227.786834 
L 299.950661 232.288219 
L 304.049566 242.22355 
L 308.148471 238.160851 
L 312.247376 241.571985 
L 316.346281 233.643472 
L 320.445186 236.050195 
L 324.544091 244.326471 
L 328.642996 238.389133 
L 332.741901 244.688448 
L 336.840806 238.331489 
L 340.939711 246.522831 
L 345.038616 245.374162 
L 349.137521 238.369732 
L 353.236426 242.373707 
L 357.335331 241.101447 
L 361.434236 241.785557 
L 365.53314 234.922134 
L 369.632045 244.797921 
L 373.73095 239.490995 
L 377.829855 243.891851 
L 381.92876 241.65155 
L 386.027665 246.031092 
L 390.12657 234.685102 
L 394.225475 241.919035 
L 398.32438 244.593658 
" clip-path="url(#pf8fdbe78eb)" style="fill: none; stroke: #808080; stroke-opacity: 0.3; stroke-width: 1.5; stroke-linecap: square"/>
   </g>
   <g id="line2d_16">
    <path d="M 74.510888 228.212243 
L 78.609793 228.651814 
L 82.708698 229.611953 
L 86.807603 229.728509 
L 90.906508 224.45341 
L 95.005413 223.68785 
L 99.104318 226.327196 
L 103.203223 226.669882 
L 107.302128 225.88203 
L 111.401033 230.202774 
L 115.499938 229.339788 
L 119.598843 221.472745 
L 123.697748 226.65221 
L 127.796653 240.544509 
L 131.895558 233.720452 
L 135.994463 228.49302 
L 140.093368 225.763347 
L 144.192273 225.763347 
L 148.291178 237.998014 
L 152.390083 234.689613 
L 156.488988 238.882782 
L 160.587893 238.19713 
L 164.686798 230.500078 
L 168.785702 235.489721 
L 172.884607 235.60658 
L 176.983512 236.074143 
L 181.082417 232.228984 
L 185.181322 236.096764 
L 189.280227 236.245002 
L 193.379132 229.203012 
L 197.478037 233.852799 
L 201.576942 231.579136 
L 205.675847 227.667027 
L 209.774752 231.093581 
L 213.873657 233.438428 
L 217.972562 226.849537 
L 222.071467 232.47609 
L 226.170372 224.763014 
L 230.269277 226.991985 
L 234.368182 223.927112 
L 238.467087 228.781875 
L 242.565992 227.360374 
L 246.664897 228.808714 
L 250.763802 235.148903 
L 254.862707 231.351208 
L 258.961612 226.205134 
L 263.060517 235.199281 
L 267.159421 231.126318 
L 271.258326 227.881778 
L 275.357231 233.120592 
L 279.456136 234.9761 
L 283.555041 233.317967 
L 287.653946 240.895529 
L 291.752851 232.950416 
L 295.851756 241.074539 
L 299.950661 236.152517 
L 304.049566 229.184156 
L 308.148471 231.98961 
L 312.247376 229.501269 
L 316.346281 231.992591 
L 320.445186 229.564154 
L 324.544091 230.39507 
L 328.642996 238.714015 
L 332.741901 233.32545 
L 336.840806 227.562918 
L 340.939711 233.072669 
L 345.038616 226.962739 
L 349.137521 221.761212 
L 353.236426 226.663993 
L 357.335331 228.329915 
L 361.434236 227.985591 
L 365.53314 228.087315 
L 369.632045 224.370674 
L 373.73095 224.000474 
L 377.829855 233.044192 
L 381.92876 222.314679 
L 386.027665 225.208505 
L 390.12657 227.554488 
L 394.225475 227.664323 
L 398.32438 232.859818 
" clip-path="url(#pf8fdbe78eb)" style="fill: none; stroke: #808080; stroke-opacity: 0.3; stroke-width: 1.5; stroke-linecap: square"/>
   </g>
   <g id="line2d_17">
    <path d="M 74.510888 239.823565 
L 78.609793 227.329013 
L 82.708698 230.942492 
L 86.807603 231.377125 
L 90.906508 230.198179 
L 95.005413 233.443434 
L 99.104318 230.137461 
L 103.203223 230.975635 
L 107.302128 223.73704 
L 111.401033 232.498198 
L 115.499938 235.722009 
L 119.598843 240.82504 
L 123.697748 228.377701 
L 127.796653 228.429011 
L 131.895558 234.57416 
L 135.994463 234.319832 
L 140.093368 228.213893 
L 144.192273 228.213893 
L 148.291178 245.325287 
L 152.390083 237.318993 
L 156.488988 239.582122 
L 160.587893 225.851223 
L 164.686798 221.335777 
L 168.785702 226.863398 
L 172.884607 223.998142 
L 176.983512 227.398742 
L 181.082417 230.312914 
L 185.181322 235.517711 
L 189.280227 221.448944 
L 193.379132 231.000941 
L 197.478037 222.01978 
L 201.576942 228.025963 
L 205.675847 237.021753 
L 209.774752 233.184751 
L 213.873657 230.265238 
L 217.972562 227.186024 
L 222.071467 228.144025 
L 226.170372 227.121122 
L 230.269277 222.599121 
L 234.368182 228.871239 
L 238.467087 238.597122 
L 242.565992 220.040915 
L 246.664897 228.770783 
L 250.763802 221.662355 
L 254.862707 232.645149 
L 258.961612 220.65176 
L 263.060517 234.324516 
L 267.159421 223.491997 
L 271.258326 229.924232 
L 275.357231 219.562618 
L 279.456136 229.214872 
L 283.555041 234.849847 
L 287.653946 225.050416 
L 291.752851 233.043064 
L 295.851756 234.834335 
L 299.950661 235.454829 
L 304.049566 229.140426 
L 308.148471 229.756597 
L 312.247376 226.920479 
L 316.346281 233.754832 
L 320.445186 230.621631 
L 324.544091 234.026638 
L 328.642996 234.663796 
L 332.741901 240.009831 
L 336.840806 236.339202 
L 340.939711 234.607704 
L 345.038616 228.032085 
L 349.137521 231.160602 
L 353.236426 236.06848 
L 357.335331 240.84201 
L 361.434236 229.440084 
L 365.53314 237.516407 
L 369.632045 227.082087 
L 373.73095 235.046068 
L 377.829855 236.436426 
L 381.92876 230.30301 
L 386.027665 235.470625 
L 390.12657 229.827263 
L 394.225475 226.486284 
L 398.32438 222.286967 
" clip-path="url(#pf8fdbe78eb)" style="fill: none; stroke: #808080; stroke-opacity: 0.3; stroke-width: 1.5; stroke-linecap: square"/>
   </g>
   <g id="line2d_18">
    <path d="M 74.510888 235.484909 
L 78.609793 241.263629 
L 82.708698 246.265872 
L 86.807603 240.97522 
L 90.906508 243.180582 
L 95.005413 236.718627 
L 99.104318 234.00401 
L 103.203223 235.442364 
L 107.302128 230.841343 
L 111.401033 242.034725 
L 115.499938 228.123502 
L 119.598843 242.870478 
L 123.697748 222.696787 
L 127.796653 229.757211 
L 131.895558 240.294254 
L 135.994463 231.733583 
L 140.093368 227.020077 
L 144.192273 227.020077 
L 148.291178 233.872749 
L 152.390083 239.287185 
L 156.488988 236.29862 
L 160.587893 238.580369 
L 164.686798 234.926184 
L 168.785702 239.426147 
L 172.884607 225.188949 
L 176.983512 238.482747 
L 181.082417 231.373746 
L 185.181322 242.569841 
L 189.280227 239.351132 
L 193.379132 232.130233 
L 197.478037 238.512547 
L 201.576942 233.330545 
L 205.675847 229.291937 
L 209.774752 231.975841 
L 213.873657 242.392953 
L 217.972562 234.712778 
L 222.071467 226.112339 
L 226.170372 242.715723 
L 230.269277 238.003229 
L 234.368182 239.464012 
L 238.467087 241.442156 
L 242.565992 239.79261 
L 246.664897 242.687927 
L 250.763802 231.702507 
L 254.862707 237.462898 
L 258.961612 238.222029 
L 263.060517 246.56202 
L 267.159421 238.144463 
L 271.258326 246.846987 
L 275.357231 243.504314 
L 279.456136 247.887168 
L 283.555041 242.86377 
L 287.653946 242.150639 
L 291.752851 249.341964 
L 295.851756 246.074783 
L 299.950661 240.502595 
L 304.049566 248.100367 
L 308.148471 243.110436 
L 312.247376 256.836064 
L 316.346281 253.45826 
L 320.445186 248.976128 
L 324.544091 260.648697 
L 328.642996 251.696178 
L 332.741901 248.552574 
L 336.840806 246.566026 
L 340.939711 248.743703 
L 345.038616 244.824546 
L 349.137521 253.698282 
L 353.236426 260.717068 
L 357.335331 254.654852 
L 361.434236 255.286701 
L 365.53314 254.811535 
L 369.632045 259.89644 
L 373.73095 247.520501 
L 377.829855 245.670211 
L 381.92876 257.041417 
L 386.027665 247.699472 
L 390.12657 257.842918 
L 394.225475 258.764283 
L 398.32438 255.039338 
" clip-path="url(#pf8fdbe78eb)" style="fill: none; stroke: #808080; stroke-opacity: 0.3; stroke-width: 1.5; stroke-linecap: square"/>
   </g>
   <g id="line2d_19">
    <path d="M 74.510888 230.820346 
L 78.609793 235.845411 
L 82.708698 239.55635 
L 86.807603 246.982701 
L 90.906508 234.06694 
L 95.005413 233.531338 
L 99.104318 229.964486 
L 103.203223 223.382544 
L 107.302128 242.584997 
L 111.401033 252.090017 
L 115.499938 237.673999 
L 119.598843 238.478341 
L 123.697748 230.882832 
L 127.796653 236.535737 
L 131.895558 244.844271 
L 135.994463 238.354895 
L 140.093368 235.765501 
L 144.192273 235.765501 
L 148.291178 235.239794 
L 152.390083 235.776123 
L 156.488988 236.44518 
L 160.587893 236.788491 
L 164.686798 215.933007 
L 168.785702 218.89224 
L 172.884607 228.607595 
L 176.983512 227.336659 
L 181.082417 226.689099 
L 185.181322 225.405639 
L 189.280227 221.259092 
L 193.379132 230.50045 
L 197.478037 224.030985 
L 201.576942 221.904529 
L 205.675847 222.786251 
L 209.774752 212.327659 
L 213.873657 219.495287 
L 217.972562 223.650461 
L 222.071467 216.082905 
L 226.170372 220.873193 
L 230.269277 214.843373 
L 234.368182 215.648183 
L 238.467087 213.249028 
L 242.565992 223.850366 
L 246.664897 223.03558 
L 250.763802 225.666165 
L 254.862707 221.095974 
L 258.961612 222.626321 
L 263.060517 220.263112 
L 267.159421 214.973116 
L 271.258326 217.813655 
L 275.357231 209.500469 
L 279.456136 231.212373 
L 283.555041 220.317797 
L 287.653946 231.818955 
L 291.752851 221.42915 
L 295.851756 221.884392 
L 299.950661 231.8277 
L 304.049566 214.93459 
L 308.148471 221.858331 
L 312.247376 226.110587 
L 316.346281 224.977767 
L 320.445186 221.479506 
L 324.544091 223.488909 
L 328.642996 232.861617 
L 332.741901 223.704302 
L 336.840806 219.691505 
L 340.939711 235.760613 
L 345.038616 236.86749 
L 349.137521 224.43909 
L 353.236426 234.596905 
L 357.335331 231.078493 
L 361.434236 218.275073 
L 365.53314 228.651658 
L 369.632045 221.109847 
L 373.73095 233.615723 
L 377.829855 229.433787 
L 381.92876 234.376241 
L 386.027665 232.531239 
L 390.12657 234.108928 
L 394.225475 227.815442 
L 398.32438 221.522726 
" clip-path="url(#pf8fdbe78eb)" style="fill: none; stroke: #808080; stroke-opacity: 0.3; stroke-width: 1.5; stroke-linecap: square"/>
   </g>
   <g id="line2d_20">
    <path d="M 74.510888 228.517445 
L 78.609793 224.801558 
L 82.708698 226.77137 
L 86.807603 220.203091 
L 90.906508 236.685904 
L 95.005413 231.463844 
L 99.104318 221.868706 
L 103.203223 226.724327 
L 107.302128 226.632501 
L 111.401033 230.147896 
L 115.499938 221.381236 
L 119.598843 227.916684 
L 123.697748 227.281216 
L 127.796653 230.75365 
L 131.895558 224.725009 
L 135.994463 239.830201 
L 140.093368 228.776716 
L 144.192273 228.776716 
L 148.291178 226.773096 
L 152.390083 235.882335 
L 156.488988 237.880689 
L 160.587893 230.285737 
L 164.686798 233.88792 
L 168.785702 223.361694 
L 172.884607 228.945724 
L 176.983512 239.419135 
L 181.082417 230.897645 
L 185.181322 226.151852 
L 189.280227 233.551232 
L 193.379132 226.311428 
L 197.478037 226.174524 
L 201.576942 232.305879 
L 205.675847 227.723213 
L 209.774752 228.859657 
L 213.873657 223.99278 
L 217.972562 232.340812 
L 222.071467 226.111838 
L 226.170372 230.654946 
L 230.269277 237.12177 
L 234.368182 226.261718 
L 238.467087 224.324156 
L 242.565992 223.954531 
L 246.664897 228.30913 
L 250.763802 240.119261 
L 254.862707 231.496525 
L 258.961612 230.549052 
L 263.060517 222.60358 
L 267.159421 225.952012 
L 271.258326 227.271724 
L 275.357231 226.406134 
L 279.456136 232.820444 
L 283.555041 228.652578 
L 287.653946 228.600747 
L 291.752851 236.476241 
L 295.851756 225.017856 
L 299.950661 228.897557 
L 304.049566 230.921303 
L 308.148471 228.854793 
L 312.247376 233.555803 
L 316.346281 231.021749 
L 320.445186 224.516341 
L 324.544091 223.565427 
L 328.642996 227.740183 
L 332.741901 223.963404 
L 336.840806 236.432863 
L 340.939711 230.959378 
L 345.038616 237.332886 
L 349.137521 229.46282 
L 353.236426 230.889276 
L 357.335331 231.558489 
L 361.434236 229.387785 
L 365.53314 232.616727 
L 369.632045 240.984832 
L 373.73095 229.116291 
L 377.829855 237.090627 
L 381.92876 226.680561 
L 386.027665 233.718745 
L 390.12657 231.811929 
L 394.225475 238.111449 
L 398.32438 229.124789 
" clip-path="url(#pf8fdbe78eb)" style="fill: none; stroke: #808080; stroke-opacity: 0.3; stroke-width: 1.5; stroke-linecap: square"/>
   </g>
   <g id="line2d_21">
    <path d="M 74.510888 244.474945 
L 78.609793 238.039795 
L 82.708698 237.652877 
L 86.807603 245.804084 
L 90.906508 231.957054 
L 95.005413 244.689302 
L 99.104318 229.899006 
L 103.203223 240.893028 
L 107.302128 237.72366 
L 111.401033 225.125099 
L 115.499938 240.672285 
L 119.598843 236.816049 
L 123.697748 244.261631 
L 127.796653 240.052261 
L 131.895558 235.46606 
L 135.994463 237.498691 
L 140.093368 236.306095 
L 144.192273 236.306095 
L 148.291178 243.607993 
L 152.390083 237.927736 
L 156.488988 242.843993 
L 160.587893 240.397121 
L 164.686798 229.233583 
L 168.785702 234.191217 
L 172.884607 237.412621 
L 176.983512 239.055565 
L 181.082417 237.62334 
L 185.181322 244.754099 
L 189.280227 239.573895 
L 193.379132 235.080341 
L 197.478037 236.210087 
L 201.576942 245.970592 
L 205.675847 233.61618 
L 209.774752 230.959894 
L 213.873657 237.252948 
L 217.972562 229.644714 
L 222.071467 224.669808 
L 226.170372 236.055285 
L 230.269277 227.911246 
L 234.368182 221.184015 
L 238.467087 235.372346 
L 242.565992 238.369379 
L 246.664897 242.214681 
L 250.763802 226.838439 
L 254.862707 235.079681 
L 258.961612 243.507619 
L 263.060517 233.244001 
L 267.159421 233.11231 
L 271.258326 245.235509 
L 275.357231 240.516678 
L 279.456136 232.921604 
L 283.555041 234.638684 
L 287.653946 236.652082 
L 291.752851 236.216553 
L 295.851756 234.143327 
L 299.950661 236.072478 
L 304.049566 231.37645 
L 308.148471 238.113666 
L 312.247376 225.777023 
L 316.346281 239.515249 
L 320.445186 229.948415 
L 324.544091 240.032245 
L 328.642996 239.329957 
L 332.741901 237.781396 
L 336.840806 237.731988 
L 340.939711 238.073858 
L 345.038616 240.177309 
L 349.137521 241.738086 
L 353.236426 237.87869 
L 357.335331 236.491289 
L 361.434236 234.899724 
L 365.53314 232.532113 
L 369.632045 238.154673 
L 373.73095 240.196303 
L 377.829855 245.826616 
L 381.92876 234.603986 
L 386.027665 231.279946 
L 390.12657 231.496431 
L 394.225475 241.544861 
L 398.32438 234.320512 
" clip-path="url(#pf8fdbe78eb)" style="fill: none; stroke: #808080; stroke-opacity: 0.3; stroke-width: 1.5; stroke-linecap: square"/>
   </g>
   <g id="line2d_22">
    <path d="M 74.510888 234.775506 
L 78.609793 237.93871 
L 82.708698 234.352221 
L 86.807603 241.10222 
L 90.906508 241.655796 
L 95.005413 233.170548 
L 99.104318 242.776414 
L 103.203223 239.575368 
L 107.302128 234.744836 
L 111.401033 239.27066 
L 115.499938 243.931067 
L 119.598843 239.815046 
L 123.697748 233.517833 
L 127.796653 246.140833 
L 131.895558 238.576514 
L 135.994463 246.674315 
L 140.093368 236.483088 
L 144.192273 236.483088 
L 148.291178 232.446881 
L 152.390083 233.378423 
L 156.488988 229.048516 
L 160.587893 232.664903 
L 164.686798 235.379619 
L 168.785702 235.04958 
L 172.884607 235.982318 
L 176.983512 231.43828 
L 181.082417 227.353079 
L 185.181322 234.52772 
L 189.280227 221.790947 
L 193.379132 238.538572 
L 197.478037 229.321878 
L 201.576942 229.681009 
L 205.675847 223.317907 
L 209.774752 222.405186 
L 213.873657 228.897001 
L 217.972562 233.393885 
L 222.071467 231.658211 
L 226.170372 223.179246 
L 230.269277 234.899923 
L 234.368182 229.8293 
L 238.467087 232.263038 
L 242.565992 222.685248 
L 246.664897 235.24432 
L 250.763802 220.990819 
L 254.862707 240.564547 
L 258.961612 231.469385 
L 263.060517 234.281596 
L 267.159421 230.97969 
L 271.258326 234.649374 
L 275.357231 249.437749 
L 279.456136 236.078482 
L 283.555041 229.717227 
L 287.653946 229.573417 
L 291.752851 237.15551 
L 295.851756 231.503043 
L 299.950661 229.492867 
L 304.049566 228.924697 
L 308.148471 226.237909 
L 312.247376 236.442257 
L 316.346281 234.360787 
L 320.445186 239.946204 
L 324.544091 235.170238 
L 328.642996 228.4372 
L 332.741901 238.73213 
L 336.840806 228.482175 
L 340.939711 233.680164 
L 345.038616 233.340724 
L 349.137521 241.371597 
L 353.236426 225.965907 
L 357.335331 241.069047 
L 361.434236 234.042719 
L 365.53314 229.896523 
L 369.632045 241.068585 
L 373.73095 229.664783 
L 377.829855 239.499006 
L 381.92876 236.176031 
L 386.027665 232.681595 
L 390.12657 227.741658 
L 394.225475 232.132788 
L 398.32438 234.019614 
" clip-path="url(#pf8fdbe78eb)" style="fill: none; stroke: #808080; stroke-opacity: 0.3; stroke-width: 1.5; stroke-linecap: square"/>
   </g>
   <g id="line2d_23">
    <path d="M 74.510888 232.688041 
L 78.609793 228.824503 
L 82.708698 236.566941 
L 86.807603 234.612676 
L 90.906508 229.567666 
L 95.005413 237.999375 
L 99.104318 231.356085 
L 103.203223 236.294128 
L 107.302128 230.790512 
L 111.401033 220.474401 
L 115.499938 221.593003 
L 119.598843 226.75905 
L 123.697748 221.339546 
L 127.796653 229.22653 
L 131.895558 219.083787 
L 135.994463 224.451608 
L 140.093368 233.010892 
L 144.192273 233.010892 
L 148.291178 240.916084 
L 152.390083 233.144431 
L 156.488988 243.172711 
L 160.587893 236.52057 
L 164.686798 228.059309 
L 168.785702 237.32173 
L 172.884607 235.08323 
L 176.983512 239.297045 
L 181.082417 239.182568 
L 185.181322 231.602265 
L 189.280227 230.060949 
L 193.379132 238.953335 
L 197.478037 236.209724 
L 201.576942 229.004934 
L 205.675847 228.519897 
L 209.774752 235.444683 
L 213.873657 230.512364 
L 217.972562 232.914612 
L 222.071467 231.897081 
L 226.170372 240.646218 
L 230.269277 236.008599 
L 234.368182 234.507263 
L 238.467087 238.778627 
L 242.565992 237.876289 
L 246.664897 232.65348 
L 250.763802 236.65686 
L 254.862707 231.143971 
L 258.961612 235.722182 
L 263.060517 235.209441 
L 267.159421 236.535071 
L 271.258326 232.15209 
L 275.357231 232.514562 
L 279.456136 234.91047 
L 283.555041 235.581779 
L 287.653946 242.231437 
L 291.752851 224.625388 
L 295.851756 237.347323 
L 299.950661 236.866095 
L 304.049566 239.868323 
L 308.148471 231.537708 
L 312.247376 234.959308 
L 316.346281 242.998146 
L 320.445186 235.379048 
L 324.544091 245.289855 
L 328.642996 246.06961 
L 332.741901 237.925454 
L 336.840806 238.533768 
L 340.939711 234.603414 
L 345.038616 241.509974 
L 349.137521 236.47971 
L 353.236426 229.522439 
L 357.335331 226.841093 
L 361.434236 231.215403 
L 365.53314 225.459104 
L 369.632045 225.475291 
L 373.73095 221.487649 
L 377.829855 217.32605 
L 381.92876 222.117984 
L 386.027665 218.351654 
L 390.12657 219.090776 
L 394.225475 226.4 
L 398.32438 224.667821 
" clip-path="url(#pf8fdbe78eb)" style="fill: none; stroke: #808080; stroke-opacity: 0.3; stroke-width: 1.5; stroke-linecap: square"/>
   </g>
   <g id="line2d_24">
    <path d="M 74.510888 236.398976 
L 78.609793 243.428421 
L 82.708698 246.222559 
L 86.807603 238.659351 
L 90.906508 245.775275 
L 95.005413 239.487308 
L 99.104318 238.10672 
L 103.203223 242.947569 
L 107.302128 252.881007 
L 111.401033 244.183293 
L 115.499938 243.713488 
L 119.598843 240.268914 
L 123.697748 243.994487 
L 127.796653 238.383509 
L 131.895558 237.866848 
L 135.994463 242.996831 
L 140.093368 238.135657 
L 144.192273 238.135657 
L 148.291178 238.961832 
L 152.390083 236.678584 
L 156.488988 241.417039 
L 160.587893 235.091182 
L 164.686798 229.009962 
L 168.785702 228.658778 
L 172.884607 223.841902 
L 176.983512 220.919442 
L 181.082417 225.266659 
L 185.181322 220.198758 
L 189.280227 217.106033 
L 193.379132 215.570448 
L 197.478037 217.727797 
L 201.576942 227.386716 
L 205.675847 220.140333 
L 209.774752 216.018807 
L 213.873657 208.032002 
L 217.972562 213.701256 
L 222.071467 222.152557 
L 226.170372 222.146521 
L 230.269277 206.819797 
L 234.368182 201.529926 
L 238.467087 211.536199 
L 242.565992 202.300774 
L 246.664897 209.663163 
L 250.763802 212.924986 
L 254.862707 212.966693 
L 258.961612 210.45606 
L 263.060517 217.865845 
L 267.159421 213.089817 
L 271.258326 214.289391 
L 275.357231 215.133497 
L 279.456136 210.646261 
L 283.555041 208.708585 
L 287.653946 210.458595 
L 291.752851 200.237101 
L 295.851756 205.538733 
L 299.950661 204.799139 
L 304.049566 203.037682 
L 308.148471 215.230134 
L 312.247376 215.114868 
L 316.346281 211.612856 
L 320.445186 211.943653 
L 324.544091 208.772068 
L 328.642996 218.278802 
L 332.741901 208.337771 
L 336.840806 216.059601 
L 340.939711 214.777218 
L 345.038616 217.885733 
L 349.137521 215.220954 
L 353.236426 222.937216 
L 357.335331 226.729353 
L 361.434236 228.889393 
L 365.53314 220.332098 
L 369.632045 221.004174 
L 373.73095 223.779657 
L 377.829855 224.326696 
L 381.92876 217.417919 
L 386.027665 222.526977 
L 390.12657 222.705025 
L 394.225475 217.795029 
L 398.32438 226.620648 
" clip-path="url(#pf8fdbe78eb)" style="fill: none; stroke: #808080; stroke-opacity: 0.3; stroke-width: 1.5; stroke-linecap: square"/>
   </g>
   <g id="line2d_25">
    <path d="M 74.510888 234.339813 
L 78.609793 229.630646 
L 82.708698 227.456909 
L 86.807603 233.042217 
L 90.906508 228.070616 
L 95.005413 227.306068 
L 99.104318 227.769668 
L 103.203223 226.011508 
L 107.302128 238.842501 
L 111.401033 228.370592 
L 115.499938 230.768049 
L 119.598843 229.427547 
L 123.697748 233.028356 
L 127.796653 222.813186 
L 131.895558 235.780249 
L 135.994463 229.110178 
L 140.093368 231.906297 
L 144.192273 231.906297 
L 148.291178 240.00797 
L 152.390083 239.228561 
L 156.488988 241.149196 
L 160.587893 231.408042 
L 164.686798 230.009819 
L 168.785702 225.155019 
L 172.884607 233.305956 
L 176.983512 228.255753 
L 181.082417 238.96603 
L 185.181322 225.982919 
L 189.280227 228.871712 
L 193.379132 230.788118 
L 197.478037 236.238808 
L 201.576942 241.810865 
L 205.675847 227.34587 
L 209.774752 234.340727 
L 213.873657 230.45612 
L 217.972562 231.582567 
L 222.071467 227.387859 
L 226.170372 235.6598 
L 230.269277 227.659257 
L 234.368182 229.906425 
L 238.467087 224.463931 
L 242.565992 229.872045 
L 246.664897 230.40723 
L 250.763802 233.214566 
L 254.862707 236.88217 
L 258.961612 228.3068 
L 263.060517 231.170718 
L 267.159421 236.795868 
L 271.258326 238.675664 
L 275.357231 237.25038 
L 279.456136 238.587785 
L 283.555041 232.802779 
L 287.653946 231.391018 
L 291.752851 226.335252 
L 295.851756 238.901154 
L 299.950661 232.296578 
L 304.049566 233.062076 
L 308.148471 221.843317 
L 312.247376 232.940227 
L 316.346281 234.807725 
L 320.445186 228.130784 
L 324.544091 231.49088 
L 328.642996 233.42993 
L 332.741901 235.414944 
L 336.840806 230.649467 
L 340.939711 237.412673 
L 345.038616 228.806194 
L 349.137521 240.125497 
L 353.236426 238.95016 
L 357.335331 230.999856 
L 361.434236 239.977641 
L 365.53314 232.62656 
L 369.632045 228.977249 
L 373.73095 235.83571 
L 377.829855 244.046671 
L 381.92876 231.692075 
L 386.027665 234.449459 
L 390.12657 245.501998 
L 394.225475 237.329066 
L 398.32438 234.77609 
" clip-path="url(#pf8fdbe78eb)" style="fill: none; stroke: #808080; stroke-opacity: 0.3; stroke-width: 1.5; stroke-linecap: square"/>
   </g>
   <g id="line2d_26">
    <path d="M 74.510888 233.085891 
L 78.609793 236.212086 
L 82.708698 239.127401 
L 86.807603 234.197746 
L 90.906508 235.984061 
L 95.005413 239.033527 
L 99.104318 250.455807 
L 103.203223 236.843234 
L 107.302128 241.302019 
L 111.401033 231.984373 
L 115.499938 242.108386 
L 119.598843 235.157259 
L 123.697748 241.969186 
L 127.796653 236.139852 
L 131.895558 234.500654 
L 135.994463 240.245805 
L 140.093368 235.108561 
L 144.192273 235.108561 
L 148.291178 230.229994 
L 152.390083 236.280654 
L 156.488988 242.843088 
L 160.587893 240.944006 
L 164.686798 236.51776 
L 168.785702 233.927887 
L 172.884607 239.155706 
L 176.983512 230.13693 
L 181.082417 239.543794 
L 185.181322 235.02421 
L 189.280227 235.175815 
L 193.379132 232.242491 
L 197.478037 229.027363 
L 201.576942 239.626529 
L 205.675847 237.716447 
L 209.774752 235.162235 
L 213.873657 237.94495 
L 217.972562 231.522592 
L 222.071467 230.908395 
L 226.170372 243.107777 
L 230.269277 232.465842 
L 234.368182 228.778238 
L 238.467087 227.539687 
L 242.565992 239.99807 
L 246.664897 235.847641 
L 250.763802 237.267563 
L 254.862707 233.182684 
L 258.961612 238.992593 
L 263.060517 234.172578 
L 267.159421 239.036431 
L 271.258326 242.871594 
L 275.357231 237.666797 
L 279.456136 234.373761 
L 283.555041 237.261251 
L 287.653946 229.556497 
L 291.752851 232.125697 
L 295.851756 245.672041 
L 299.950661 238.714919 
L 304.049566 239.270655 
L 308.148471 234.133115 
L 312.247376 233.168648 
L 316.346281 236.176856 
L 320.445186 238.041856 
L 324.544091 244.610507 
L 328.642996 243.283266 
L 332.741901 240.892062 
L 336.840806 237.676035 
L 340.939711 233.704551 
L 345.038616 237.273098 
L 349.137521 242.124097 
L 353.236426 237.197846 
L 357.335331 234.524582 
L 361.434236 237.831742 
L 365.53314 238.190707 
L 369.632045 234.789088 
L 373.73095 228.146543 
L 377.829855 238.958133 
L 381.92876 233.591759 
L 386.027665 228.202329 
L 390.12657 231.160657 
L 394.225475 233.255561 
L 398.32438 236.16529 
" clip-path="url(#pf8fdbe78eb)" style="fill: none; stroke: #808080; stroke-opacity: 0.3; stroke-width: 1.5; stroke-linecap: square"/>
   </g>
   <g id="line2d_27">
    <path d="M 74.510888 233.706654 
L 78.609793 234.158677 
L 82.708698 235.079244 
L 86.807603 234.798314 
L 90.906508 233.545316 
L 95.005413 234.324571 
L 99.104318 232.99061 
L 103.203223 232.621712 
L 107.302128 234.291137 
L 111.401033 234.531269 
L 115.499938 233.912515 
L 119.598843 235.409856 
L 123.697748 231.974568 
L 127.796653 232.679055 
L 131.895558 234.954486 
L 135.994463 234.559323 
L 140.093368 234.668875 
L 144.192273 234.668875 
L 148.291178 236.30405 
L 152.390083 236.292216 
L 156.488988 237.824325 
L 160.587893 234.042948 
L 164.686798 223.60807 
L 168.785702 219.093369 
L 172.884607 218.205453 
L 176.983512 215.686002 
L 181.082417 216.105773 
L 185.181322 215.419346 
L 189.280227 214.537068 
L 193.379132 215.904076 
L 197.478037 215.297815 
L 201.576942 215.391907 
L 205.675847 211.468385 
L 209.774752 205.895598 
L 213.873657 199.846446 
L 217.972562 196.632234 
L 222.071467 194.034897 
L 226.170372 193.583868 
L 230.269277 190.446548 
L 234.368182 192.127825 
L 238.467087 193.377345 
L 242.565992 194.378188 
L 246.664897 195.13105 
L 250.763802 195.589512 
L 254.862707 196.980471 
L 258.961612 196.536734 
L 263.060517 197.602702 
L 267.159421 196.773523 
L 271.258326 201.25476 
L 275.357231 200.837357 
L 279.456136 202.421258 
L 283.555041 201.306036 
L 287.653946 202.439037 
L 291.752851 203.24148 
L 295.851756 203.503701 
L 299.950661 204.021384 
L 304.049566 204.587795 
L 308.148471 205.601007 
L 312.247376 205.478945 
L 316.346281 207.2257 
L 320.445186 206.888758 
L 324.544091 210.24905 
L 328.642996 211.178319 
L 332.741901 209.541273 
L 336.840806 210.78249 
L 340.939711 211.972743 
L 345.038616 210.665984 
L 349.137521 212.529841 
L 353.236426 214.282465 
L 357.335331 213.873201 
L 361.434236 214.702501 
L 365.53314 215.275497 
L 369.632045 215.017221 
L 373.73095 214.932153 
L 377.829855 216.457092 
L 381.92876 213.582943 
L 386.027665 214.571722 
L 390.12657 216.384416 
L 394.225475 215.684523 
L 398.32438 216.31532 
" clip-path="url(#pf8fdbe78eb)" style="fill: none; stroke: #00ff00; stroke-opacity: 0.9; stroke-width: 4; stroke-linecap: square"/>
   </g>
   <g id="line2d_28">
    <path d="M 144.192273 236.111416 
L 156.447999 236.111416 
L 156.447999 236.111416 
" clip-path="url(#pf8fdbe78eb)" style="fill: none; stroke: #ff0000; stroke-opacity: 0.5; stroke-width: 4; stroke-linecap: square"/>
   </g>
   <g id="line2d_29">
    <path d="M 187.230775 236.111416 
L 199.486501 236.111416 
L 199.486501 236.111416 
" clip-path="url(#pf8fdbe78eb)" style="fill: none; stroke: #ff0000; stroke-opacity: 0.5; stroke-width: 4; stroke-linecap: square"/>
   </g>
   <g id="line2d_30">
    <path d="M 70.411983 236.111416 
L 70.411983 189.876945 
" clip-path="url(#pf8fdbe78eb)" style="fill: none; stroke: #000000; stroke-width: 2; stroke-linecap: square"/>
   </g>
   <g id="line2d_31">
    <path d="M 74.510888 251.522906 
L 197.478037 251.522906 
" clip-path="url(#pf8fdbe78eb)" style="fill: none; stroke: #000000; stroke-width: 2; stroke-linecap: square"/>
   </g>
   <g id="text_1">
    <text style="font: 12px 'DejaVu Sans', 'Bitstream Vera Sans', 'Computer Modern Sans Serif', 'Lucida Grande', 'Verdana', 'Geneva', 'Lucid', 'Arial', 'Helvetica', 'Avant Garde', sans-serif; text-anchor: end" x="66.313079" y="220.158303" transform="rotate(-0 66.313079 220.158303)">0.3 dF/F</text>
   </g>
   <g id="text_2">
    <text style="font: 12px 'DejaVu Sans', 'Bitstream Vera Sans', 'Computer Modern Sans Serif', 'Lucida Grande', 'Verdana', 'Geneva', 'Lucid', 'Arial', 'Helvetica', 'Avant Garde', sans-serif; text-anchor: middle" x="80.659246" y="268.346777" transform="rotate(-0 80.659246 268.346777)">1 sec</text>
   </g>
  </g>
 </g>
 <defs>
  <clipPath id="pf8fdbe78eb">
   <rect x="54.016364" y="17.28" width="360.703636" height="248.395895"/>
  </clipPath>
 </defs>
</svg>
