<?xml version="1.0" encoding="utf-8" standalone="no"?>
<!DOCTYPE svg PUBLIC "-//W3C//DTD SVG 1.1//EN"
  "http://www.w3.org/Graphics/SVG/1.1/DTD/svg11.dtd">
<svg xmlns:xlink="http://www.w3.org/1999/xlink" width="144.737008pt" height="114.462992pt" viewBox="0 0 144.737008 114.462992" xmlns="http://www.w3.org/2000/svg" version="1.1">
 <metadata>
  <rdf:RDF xmlns:dc="http://purl.org/dc/elements/1.1/" xmlns:cc="http://creativecommons.org/ns#" xmlns:rdf="http://www.w3.org/1999/02/22-rdf-syntax-ns#">
   <cc:Work>
    <dc:type rdf:resource="http://purl.org/dc/dcmitype/StillImage"/>
    <dc:date>2023-12-13T13:47:16.670279</dc:date>
    <dc:format>image/svg+xml</dc:format>
    <dc:creator>
     <cc:Agent>
      <dc:title>Matplotlib v3.7.2, https://matplotlib.org/</dc:title>
     </cc:Agent>
    </dc:creator>
   </cc:Work>
  </rdf:RDF>
 </metadata>
 <defs>
  <style type="text/css">*{stroke-linejoin: round; stroke-linecap: butt}</style>
 </defs>
 <g id="figure_1">
  <g id="patch_1">
   <path d="M 0 114.462992 
L 144.737008 114.462992 
L 144.737008 0 
L 0 0 
z
" style="fill: #ffffff"/>
  </g>
  <g id="axes_1">
   <g id="patch_2">
    <path d="M 39.195982 98.75062 
L 133.937008 98.75062 
L 133.937008 10.8 
L 39.195982 10.8 
z
" style="fill: #ffffff"/>
   </g>
   <g id="matplotlib.axis_1"/>
   <g id="matplotlib.axis_2"/>
   <g id="line2d_1">
    <path d="M 44.578995 81.879811 
L 45.655598 76.565282 
L 46.7322 80.645735 
L 47.808803 81.510363 
L 48.885406 82.760786 
L 49.962008 85.150053 
L 51.038611 84.655857 
L 52.115213 82.128061 
L 53.191816 82.361781 
L 54.268418 85.220683 
L 55.345021 83.438563 
L 56.421623 82.285564 
L 57.498226 79.772444 
L 58.574829 85.882634 
L 59.651431 80.415851 
L 60.728034 84.859015 
L 61.804636 85.191829 
L 62.881239 85.191829 
L 63.957841 90.168346 
L 65.034444 91.700245 
L 66.111046 83.732876 
L 67.187649 82.595194 
L 68.264252 86.268537 
L 69.340854 80.400595 
L 70.417457 74.811105 
L 71.494059 77.837796 
L 72.570662 79.777442 
L 73.647264 74.238085 
L 74.723867 70.753137 
L 75.80047 77.363765 
L 76.877072 77.109865 
L 77.953675 76.018178 
L 79.030277 71.637987 
L 80.10688 71.13137 
L 81.183482 63.221031 
L 82.260085 65.867248 
L 83.336687 69.88553 
L 84.41329 68.275207 
L 85.489893 70.7557 
L 86.566495 64.832635 
L 87.643098 66.402726 
L 88.7197 69.846586 
L 89.796303 68.01448 
L 90.872905 68.172073 
L 91.949508 66.977088 
L 93.026111 69.749039 
L 94.102713 63.778255 
L 95.179316 71.034445 
L 96.255918 69.58828 
L 97.332521 70.534828 
L 98.409123 66.798235 
L 99.485726 70.173541 
L 100.562328 66.22463 
L 101.638931 72.387016 
L 102.715534 70.116706 
L 103.792136 69.475962 
L 104.868739 75.288921 
L 105.945341 71.882063 
L 107.021944 74.614669 
L 108.098546 71.240878 
L 109.175149 74.53323 
L 110.251752 76.112717 
L 111.328354 71.041467 
L 112.404957 76.125358 
L 113.481559 72.766033 
L 114.558162 73.580188 
L 115.634764 73.592156 
L 116.711367 76.824776 
L 117.787969 72.832085 
L 118.864572 77.154643 
L 119.941175 76.715625 
L 121.017777 78.555454 
L 122.09438 79.138988 
L 123.170982 75.180856 
L 124.247585 74.280015 
L 125.324187 70.655103 
L 126.40079 72.78969 
L 127.477393 75.682793 
L 128.553995 71.45353 
L 129.630598 73.367791 
" clip-path="url(#p65b87b7a17)" style="fill: none; stroke: #808080; stroke-opacity: 0.3; stroke-width: 0.5; stroke-linecap: square"/>
   </g>
   <g id="line2d_2">
    <path d="M 44.578995 88.789589 
L 45.655598 86.175391 
L 46.7322 88.561018 
L 47.808803 89.404074 
L 48.885406 89.266964 
L 49.962008 93.710994 
L 51.038611 88.680553 
L 52.115213 88.821679 
L 53.191816 91.435721 
L 54.268418 91.884502 
L 55.345021 90.134838 
L 56.421623 91.60955 
L 57.498226 86.648572 
L 58.574829 91.712396 
L 59.651431 87.603047 
L 60.728034 90.091148 
L 61.804636 88.584687 
L 62.881239 88.584687 
L 63.957841 87.708751 
L 65.034444 90.04725 
L 66.111046 87.288674 
L 67.187649 89.642396 
L 68.264252 86.280825 
L 69.340854 85.161816 
L 70.417457 77.121119 
L 71.494059 65.247785 
L 72.570662 62.718671 
L 73.647264 69.089522 
L 74.723867 61.384989 
L 75.80047 61.169399 
L 76.877072 61.9536 
L 77.953675 60.534124 
L 79.030277 59.81526 
L 80.10688 54.00778 
L 81.183482 61.130754 
L 82.260085 59.79018 
L 83.336687 49.960487 
L 84.41329 52.338301 
L 85.489893 57.540946 
L 86.566495 48.326941 
L 87.643098 52.328951 
L 88.7197 53.219942 
L 89.796303 51.223059 
L 90.872905 53.866184 
L 91.949508 53.180906 
L 93.026111 52.842985 
L 94.102713 56.041711 
L 95.179316 59.574003 
L 96.255918 50.699574 
L 97.332521 55.152329 
L 98.409123 54.740026 
L 99.485726 59.625354 
L 100.562328 60.833738 
L 101.638931 57.855927 
L 102.715534 54.263686 
L 103.792136 53.642706 
L 104.868739 54.504149 
L 105.945341 59.934938 
L 107.021944 55.952666 
L 108.098546 64.105183 
L 109.175149 65.612166 
L 110.251752 65.923064 
L 111.328354 65.169863 
L 112.404957 61.314968 
L 113.481559 64.78582 
L 114.558162 67.498857 
L 115.634764 61.658724 
L 116.711367 66.195807 
L 117.787969 64.723971 
L 118.864572 63.055797 
L 119.941175 63.255112 
L 121.017777 64.043785 
L 122.09438 59.115079 
L 123.170982 64.871964 
L 124.247585 61.945952 
L 125.324187 69.89526 
L 126.40079 64.413753 
L 127.477393 65.946459 
L 128.553995 64.463352 
L 129.630598 68.406169 
" clip-path="url(#p65b87b7a17)" style="fill: none; stroke: #808080; stroke-opacity: 0.3; stroke-width: 0.5; stroke-linecap: square"/>
   </g>
   <g id="line2d_3">
    <path d="M 44.578995 94.142572 
L 45.655598 96.382616 
L 46.7322 91.707048 
L 47.808803 95.17191 
L 48.885406 94.378507 
L 49.962008 90.682486 
L 51.038611 90.437589 
L 52.115213 92.766409 
L 53.191816 94.333945 
L 54.268418 92.444168 
L 55.345021 95.876255 
L 56.421623 93.16069 
L 57.498226 90.447463 
L 58.574829 91.650753 
L 59.651431 92.224334 
L 60.728034 96.195184 
L 61.804636 91.433262 
L 62.881239 91.433262 
L 63.957841 88.57061 
L 65.034444 92.861435 
L 66.111046 87.817888 
L 67.187649 87.437038 
L 68.264252 88.640492 
L 69.340854 85.70373 
L 70.417457 77.453274 
L 71.494059 72.569529 
L 72.570662 69.394331 
L 73.647264 72.297202 
L 74.723867 71.807277 
L 75.80047 69.88466 
L 76.877072 69.407471 
L 77.953675 68.176939 
L 79.030277 65.754123 
L 80.10688 71.389535 
L 81.183482 69.238262 
L 82.260085 70.371302 
L 83.336687 68.982947 
L 84.41329 61.376755 
L 85.489893 65.886495 
L 86.566495 64.193398 
L 87.643098 59.989357 
L 88.7197 65.013107 
L 89.796303 65.522109 
L 90.872905 60.229953 
L 91.949508 67.119975 
L 93.026111 60.307995 
L 94.102713 60.357867 
L 95.179316 63.86399 
L 96.255918 66.050025 
L 97.332521 67.720982 
L 98.409123 70.482188 
L 99.485726 69.264273 
L 100.562328 67.74887 
L 101.638931 70.405327 
L 102.715534 73.119977 
L 103.792136 68.180991 
L 104.868739 67.239692 
L 105.945341 64.747943 
L 107.021944 68.55628 
L 108.098546 67.979359 
L 109.175149 65.492614 
L 110.251752 66.271989 
L 111.328354 69.439975 
L 112.404957 72.494315 
L 113.481559 75.184565 
L 114.558162 69.855648 
L 115.634764 70.401864 
L 116.711367 71.018273 
L 117.787969 74.153816 
L 118.864572 76.562437 
L 119.941175 75.274632 
L 121.017777 70.643008 
L 122.09438 75.468 
L 123.170982 74.170473 
L 124.247585 70.147343 
L 125.324187 73.259332 
L 126.40079 79.421768 
L 127.477393 75.739109 
L 128.553995 79.932872 
L 129.630598 76.078211 
" clip-path="url(#p65b87b7a17)" style="fill: none; stroke: #808080; stroke-opacity: 0.3; stroke-width: 0.5; stroke-linecap: square"/>
   </g>
   <g id="line2d_4">
    <path d="M 44.578995 84.740834 
L 45.655598 90.664666 
L 46.7322 89.697521 
L 47.808803 87.877771 
L 48.885406 87.721365 
L 49.962008 93.547073 
L 51.038611 88.975386 
L 52.115213 91.276214 
L 53.191816 88.846191 
L 54.268418 90.830361 
L 55.345021 92.034893 
L 56.421623 88.404723 
L 57.498226 93.651463 
L 58.574829 91.637951 
L 59.651431 88.00548 
L 60.728034 90.86957 
L 61.804636 88.99902 
L 62.881239 88.99902 
L 63.957841 88.583365 
L 65.034444 89.451526 
L 66.111046 86.436896 
L 67.187649 89.551035 
L 68.264252 85.961794 
L 69.340854 82.633259 
L 70.417457 79.983165 
L 71.494059 71.59791 
L 72.570662 73.082899 
L 73.647264 73.906832 
L 74.723867 73.0739 
L 75.80047 71.395678 
L 76.877072 69.952131 
L 77.953675 76.200178 
L 79.030277 71.850651 
L 80.10688 67.734647 
L 81.183482 61.402577 
L 82.260085 62.798094 
L 83.336687 62.594716 
L 84.41329 66.757321 
L 85.489893 69.432458 
L 86.566495 70.72989 
L 87.643098 66.74904 
L 88.7197 67.199326 
L 89.796303 64.613455 
L 90.872905 62.759123 
L 91.949508 61.120425 
L 93.026111 68.97807 
L 94.102713 64.686957 
L 95.179316 69.773888 
L 96.255918 71.082924 
L 97.332521 70.829306 
L 98.409123 70.465296 
L 99.485726 70.494376 
L 100.562328 63.490636 
L 101.638931 74.190437 
L 102.715534 69.185272 
L 103.792136 72.564679 
L 104.868739 75.205056 
L 105.945341 72.280242 
L 107.021944 67.238442 
L 108.098546 73.572789 
L 109.175149 70.20205 
L 110.251752 72.494759 
L 111.328354 72.056185 
L 112.404957 77.468099 
L 113.481559 75.832381 
L 114.558162 72.620744 
L 115.634764 76.853507 
L 116.711367 73.463652 
L 117.787969 73.997366 
L 118.864572 73.784048 
L 119.941175 76.321755 
L 121.017777 70.906837 
L 122.09438 73.628063 
L 123.170982 78.246016 
L 124.247585 79.453266 
L 125.324187 77.40702 
L 126.40079 78.63582 
L 127.477393 78.322065 
L 128.553995 75.795263 
L 129.630598 77.944623 
" clip-path="url(#p65b87b7a17)" style="fill: none; stroke: #808080; stroke-opacity: 0.3; stroke-width: 0.5; stroke-linecap: square"/>
   </g>
   <g id="line2d_5">
    <path d="M 44.578995 82.728276 
L 45.655598 90.804946 
L 46.7322 86.395743 
L 47.808803 84.823978 
L 48.885406 87.450529 
L 49.962008 91.294112 
L 51.038611 84.707017 
L 52.115213 82.937167 
L 53.191816 87.587913 
L 54.268418 86.929643 
L 55.345021 87.067749 
L 56.421623 90.042712 
L 57.498226 89.875684 
L 58.574829 88.122056 
L 59.651431 88.133054 
L 60.728034 88.914702 
L 61.804636 90.324781 
L 62.881239 90.324781 
L 63.957841 86.283332 
L 65.034444 87.638302 
L 66.111046 92.012444 
L 67.187649 87.564737 
L 68.264252 87.926536 
L 69.340854 76.575134 
L 70.417457 72.186939 
L 71.494059 68.722083 
L 72.570662 70.920591 
L 73.647264 73.00428 
L 74.723867 71.527912 
L 75.80047 69.678742 
L 76.877072 69.225398 
L 77.953675 68.577894 
L 79.030277 67.580424 
L 80.10688 65.652057 
L 81.183482 65.367521 
L 82.260085 68.084374 
L 83.336687 70.835357 
L 84.41329 64.009315 
L 85.489893 67.522677 
L 86.566495 63.321832 
L 87.643098 64.242163 
L 88.7197 68.473543 
L 89.796303 67.985835 
L 90.872905 71.955864 
L 91.949508 70.561192 
L 93.026111 72.022648 
L 94.102713 67.775156 
L 95.179316 70.177295 
L 96.255918 72.044938 
L 97.332521 65.660231 
L 98.409123 74.214465 
L 99.485726 68.915929 
L 100.562328 67.783737 
L 101.638931 72.31422 
L 102.715534 73.567996 
L 103.792136 70.762564 
L 104.868739 68.514722 
L 105.945341 69.233889 
L 107.021944 64.580205 
L 108.098546 68.198064 
L 109.175149 67.085613 
L 110.251752 72.242458 
L 111.328354 66.542186 
L 112.404957 70.310565 
L 113.481559 65.63827 
L 114.558162 67.995492 
L 115.634764 69.762961 
L 116.711367 64.057488 
L 117.787969 67.96742 
L 118.864572 68.952676 
L 119.941175 69.224491 
L 121.017777 69.091472 
L 122.09438 72.296338 
L 123.170982 71.759567 
L 124.247585 72.451969 
L 125.324187 70.159641 
L 126.40079 70.768377 
L 127.477393 71.658122 
L 128.553995 69.34825 
L 129.630598 69.448208 
" clip-path="url(#p65b87b7a17)" style="fill: none; stroke: #808080; stroke-opacity: 0.3; stroke-width: 0.5; stroke-linecap: square"/>
   </g>
   <g id="line2d_6">
    <path d="M 44.578995 88.73898 
L 45.655598 88.716705 
L 46.7322 85.039161 
L 47.808803 85.862565 
L 48.885406 85.364058 
L 49.962008 88.817469 
L 51.038611 85.186999 
L 52.115213 92.681439 
L 53.191816 86.304821 
L 54.268418 89.39847 
L 55.345021 86.42653 
L 56.421623 88.397778 
L 57.498226 89.051989 
L 58.574829 91.25778 
L 59.651431 86.993492 
L 60.728034 95.793283 
L 61.804636 88.826273 
L 62.881239 88.826273 
L 63.957841 92.544711 
L 65.034444 85.018712 
L 66.111046 89.099781 
L 67.187649 86.661963 
L 68.264252 80.398917 
L 69.340854 82.259418 
L 70.417457 72.095207 
L 71.494059 75.731389 
L 72.570662 74.349994 
L 73.647264 70.569272 
L 74.723867 70.689052 
L 75.80047 70.766708 
L 76.877072 75.289653 
L 77.953675 73.635078 
L 79.030277 70.117431 
L 80.10688 68.810206 
L 81.183482 66.438279 
L 82.260085 65.161204 
L 83.336687 62.376146 
L 84.41329 64.269468 
L 85.489893 62.599017 
L 86.566495 69.020264 
L 87.643098 69.897981 
L 88.7197 68.085424 
L 89.796303 61.636761 
L 90.872905 60.975663 
L 91.949508 67.378522 
L 93.026111 62.192808 
L 94.102713 61.079325 
L 95.179316 70.007394 
L 96.255918 66.232027 
L 97.332521 68.672299 
L 98.409123 75.071783 
L 99.485726 72.214734 
L 100.562328 67.734418 
L 101.638931 68.494541 
L 102.715534 69.242885 
L 103.792136 69.157739 
L 104.868739 64.080232 
L 105.945341 70.369986 
L 107.021944 65.896501 
L 108.098546 72.472338 
L 109.175149 74.598362 
L 110.251752 69.111868 
L 111.328354 71.165626 
L 112.404957 69.631978 
L 113.481559 77.022245 
L 114.558162 73.430041 
L 115.634764 74.91715 
L 116.711367 73.90875 
L 117.787969 70.299995 
L 118.864572 70.473378 
L 119.941175 73.651653 
L 121.017777 71.665752 
L 122.09438 74.210939 
L 123.170982 75.287899 
L 124.247585 74.697808 
L 125.324187 71.91004 
L 126.40079 72.105952 
L 127.477393 74.793837 
L 128.553995 68.983046 
L 129.630598 74.019508 
" clip-path="url(#p65b87b7a17)" style="fill: none; stroke: #808080; stroke-opacity: 0.3; stroke-width: 0.5; stroke-linecap: square"/>
   </g>
   <g id="line2d_7">
    <path d="M 44.578995 93.142956 
L 45.655598 90.167621 
L 46.7322 90.768532 
L 47.808803 92.449446 
L 48.885406 92.448631 
L 49.962008 89.41792 
L 51.038611 90.469455 
L 52.115213 92.005232 
L 53.191816 91.874522 
L 54.268418 94.000673 
L 55.345021 93.10825 
L 56.421623 91.702266 
L 57.498226 91.437451 
L 58.574829 93.740813 
L 59.651431 91.665632 
L 60.728034 91.212613 
L 61.804636 90.473089 
L 62.881239 90.473089 
L 63.957841 88.83841 
L 65.034444 90.96814 
L 66.111046 88.384987 
L 67.187649 88.414573 
L 68.264252 84.194937 
L 69.340854 83.503404 
L 70.417457 79.598292 
L 71.494059 73.809354 
L 72.570662 70.350878 
L 73.647264 72.24305 
L 74.723867 67.740531 
L 75.80047 67.958167 
L 76.877072 68.326295 
L 77.953675 70.55252 
L 79.030277 67.777177 
L 80.10688 67.193452 
L 81.183482 62.632884 
L 82.260085 62.705462 
L 83.336687 57.056199 
L 84.41329 56.296145 
L 85.489893 59.591169 
L 86.566495 49.378688 
L 87.643098 57.353881 
L 88.7197 53.055286 
L 89.796303 57.828285 
L 90.872905 58.061209 
L 91.949508 57.415644 
L 93.026111 59.316616 
L 94.102713 58.66989 
L 95.179316 58.540764 
L 96.255918 57.588895 
L 97.332521 54.262867 
L 98.409123 56.469334 
L 99.485726 60.260679 
L 100.562328 57.739849 
L 101.638931 57.285537 
L 102.715534 62.719613 
L 103.792136 61.639183 
L 104.868739 60.687488 
L 105.945341 61.04487 
L 107.021944 63.829672 
L 108.098546 61.235429 
L 109.175149 64.177873 
L 110.251752 61.723777 
L 111.328354 66.447699 
L 112.404957 65.072444 
L 113.481559 65.32268 
L 114.558162 70.063933 
L 115.634764 70.28153 
L 116.711367 69.113563 
L 117.787969 67.821044 
L 118.864572 68.092888 
L 119.941175 67.193119 
L 121.017777 73.093119 
L 122.09438 70.708801 
L 123.170982 66.895429 
L 124.247585 73.175678 
L 125.324187 71.766263 
L 126.40079 70.74335 
L 127.477393 73.444833 
L 128.553995 71.442783 
L 129.630598 73.221767 
" clip-path="url(#p65b87b7a17)" style="fill: none; stroke: #808080; stroke-opacity: 0.3; stroke-width: 0.5; stroke-linecap: square"/>
   </g>
   <g id="line2d_8">
    <path d="M 44.578995 84.216488 
L 45.655598 87.126994 
L 46.7322 90.251076 
L 47.808803 82.328925 
L 48.885406 84.544065 
L 49.962008 87.253444 
L 51.038611 85.272069 
L 52.115213 87.514126 
L 53.191816 87.386091 
L 54.268418 84.972327 
L 55.345021 86.419114 
L 56.421623 88.134755 
L 57.498226 90.767333 
L 58.574829 88.324713 
L 59.651431 85.018636 
L 60.728034 86.027983 
L 61.804636 88.333024 
L 62.881239 88.333024 
L 63.957841 89.979517 
L 65.034444 84.774022 
L 66.111046 87.023554 
L 67.187649 83.394413 
L 68.264252 77.282831 
L 69.340854 72.936823 
L 70.417457 67.056184 
L 71.494059 62.621396 
L 72.570662 59.357805 
L 73.647264 58.635246 
L 74.723867 59.533763 
L 75.80047 57.272514 
L 76.877072 56.082441 
L 77.953675 55.144772 
L 79.030277 53.341909 
L 80.10688 46.743402 
L 81.183482 51.84936 
L 82.260085 45.402135 
L 83.336687 45.48216 
L 84.41329 39.424454 
L 85.489893 46.452828 
L 86.566495 47.838046 
L 87.643098 49.262512 
L 88.7197 44.362872 
L 89.796303 40.148727 
L 90.872905 45.623318 
L 91.949508 44.419522 
L 93.026111 47.867626 
L 94.102713 53.205659 
L 95.179316 45.528269 
L 96.255918 46.692917 
L 97.332521 45.499286 
L 98.409123 45.140652 
L 99.485726 50.363492 
L 100.562328 51.402751 
L 101.638931 51.521611 
L 102.715534 47.770515 
L 103.792136 50.29129 
L 104.868739 51.608954 
L 105.945341 47.123345 
L 107.021944 54.799582 
L 108.098546 52.857878 
L 109.175149 57.230948 
L 110.251752 55.242087 
L 111.328354 53.673893 
L 112.404957 54.179737 
L 113.481559 55.968197 
L 114.558162 56.51521 
L 115.634764 58.640914 
L 116.711367 58.602796 
L 117.787969 56.845309 
L 118.864572 62.669879 
L 119.941175 63.740067 
L 121.017777 61.855774 
L 122.09438 60.384134 
L 123.170982 63.151388 
L 124.247585 59.318906 
L 125.324187 62.131824 
L 126.40079 65.11175 
L 127.477393 65.027614 
L 128.553995 59.899839 
L 129.630598 69.329823 
" clip-path="url(#p65b87b7a17)" style="fill: none; stroke: #808080; stroke-opacity: 0.3; stroke-width: 0.5; stroke-linecap: square"/>
   </g>
   <g id="line2d_9">
    <path d="M 44.578995 91.937603 
L 45.655598 84.273136 
L 46.7322 87.61992 
L 47.808803 86.08917 
L 48.885406 83.656017 
L 49.962008 87.844579 
L 51.038611 86.178661 
L 52.115213 85.054896 
L 53.191816 88.389872 
L 54.268418 89.417014 
L 55.345021 88.018038 
L 56.421623 88.445101 
L 57.498226 87.457867 
L 58.574829 88.708183 
L 59.651431 90.781644 
L 60.728034 89.230225 
L 61.804636 89.617213 
L 62.881239 89.617213 
L 63.957841 89.438669 
L 65.034444 88.35815 
L 66.111046 85.341369 
L 67.187649 87.798587 
L 68.264252 82.418389 
L 69.340854 74.991848 
L 70.417457 66.951706 
L 71.494059 61.437936 
L 72.570662 61.003359 
L 73.647264 58.633008 
L 74.723867 59.284228 
L 75.80047 54.56334 
L 76.877072 62.687362 
L 77.953675 56.649925 
L 79.030277 57.555053 
L 80.10688 53.719316 
L 81.183482 57.947205 
L 82.260085 57.890806 
L 83.336687 52.412587 
L 84.41329 52.889017 
L 85.489893 50.558706 
L 86.566495 51.019668 
L 87.643098 54.307744 
L 88.7197 48.467971 
L 89.796303 52.087733 
L 90.872905 44.029919 
L 91.949508 53.614731 
L 93.026111 53.495903 
L 94.102713 53.541323 
L 95.179316 51.259341 
L 96.255918 51.112274 
L 97.332521 54.967236 
L 98.409123 62.292433 
L 99.485726 59.843934 
L 100.562328 58.163082 
L 101.638931 61.077304 
L 102.715534 56.818846 
L 103.792136 56.234704 
L 104.868739 60.920614 
L 105.945341 58.568232 
L 107.021944 60.299572 
L 108.098546 61.612687 
L 109.175149 58.280596 
L 110.251752 59.790193 
L 111.328354 62.344682 
L 112.404957 61.386795 
L 113.481559 62.442053 
L 114.558162 64.670888 
L 115.634764 66.0124 
L 116.711367 68.112791 
L 117.787969 66.857769 
L 118.864572 71.172571 
L 119.941175 64.910925 
L 121.017777 61.895345 
L 122.09438 66.489648 
L 123.170982 68.889359 
L 124.247585 67.418073 
L 125.324187 65.30971 
L 126.40079 71.945828 
L 127.477393 74.564313 
L 128.553995 68.093225 
L 129.630598 75.135467 
" clip-path="url(#p65b87b7a17)" style="fill: none; stroke: #808080; stroke-opacity: 0.3; stroke-width: 0.5; stroke-linecap: square"/>
   </g>
   <g id="line2d_10">
    <path d="M 44.578995 88.611618 
L 45.655598 87.322706 
L 46.7322 89.669444 
L 47.808803 86.670585 
L 48.885406 90.462193 
L 49.962008 88.141433 
L 51.038611 87.402423 
L 52.115213 90.356141 
L 53.191816 89.913462 
L 54.268418 91.69813 
L 55.345021 86.87467 
L 56.421623 88.964863 
L 57.498226 86.881851 
L 58.574829 87.285333 
L 59.651431 86.907166 
L 60.728034 86.818926 
L 61.804636 91.630778 
L 62.881239 91.630778 
L 63.957841 87.699684 
L 65.034444 89.379631 
L 66.111046 89.1349 
L 67.187649 86.812805 
L 68.264252 80.739991 
L 69.340854 78.670048 
L 70.417457 69.300473 
L 71.494059 71.34694 
L 72.570662 70.189672 
L 73.647264 68.862934 
L 74.723867 67.438172 
L 75.80047 67.47415 
L 76.877072 64.150411 
L 77.953675 66.741099 
L 79.030277 67.313153 
L 80.10688 63.176796 
L 81.183482 56.761877 
L 82.260085 49.42668 
L 83.336687 57.953583 
L 84.41329 53.641836 
L 85.489893 57.186539 
L 86.566495 50.043851 
L 87.643098 51.467523 
L 88.7197 57.523977 
L 89.796303 54.734584 
L 90.872905 55.175219 
L 91.949508 52.594677 
L 93.026111 55.062278 
L 94.102713 57.394926 
L 95.179316 54.527557 
L 96.255918 61.084818 
L 97.332521 56.194423 
L 98.409123 59.713358 
L 99.485726 59.465605 
L 100.562328 58.628665 
L 101.638931 57.651867 
L 102.715534 59.433479 
L 103.792136 60.766409 
L 104.868739 61.257782 
L 105.945341 59.566234 
L 107.021944 61.572843 
L 108.098546 59.286206 
L 109.175149 59.974368 
L 110.251752 65.708062 
L 111.328354 63.327126 
L 112.404957 63.48689 
L 113.481559 63.219837 
L 114.558162 65.56184 
L 115.634764 65.932042 
L 116.711367 65.45112 
L 117.787969 70.119827 
L 118.864572 64.324414 
L 119.941175 68.867649 
L 121.017777 65.892109 
L 122.09438 65.989468 
L 123.170982 67.505871 
L 124.247585 64.842331 
L 125.324187 65.212912 
L 126.40079 64.755174 
L 127.477393 64.422474 
L 128.553995 65.265252 
L 129.630598 71.069788 
" clip-path="url(#p65b87b7a17)" style="fill: none; stroke: #808080; stroke-opacity: 0.3; stroke-width: 0.5; stroke-linecap: square"/>
   </g>
   <g id="line2d_11">
    <path d="M 44.578995 88.202182 
L 45.655598 88.305563 
L 46.7322 90.857686 
L 47.808803 90.604904 
L 48.885406 87.41945 
L 49.962008 89.777888 
L 51.038611 89.008779 
L 52.115213 89.60186 
L 53.191816 86.328449 
L 54.268418 87.045492 
L 55.345021 85.819109 
L 56.421623 86.900881 
L 57.498226 90.3077 
L 58.574829 87.770578 
L 59.651431 86.515137 
L 60.728034 86.732973 
L 61.804636 88.686137 
L 62.881239 88.686137 
L 63.957841 89.146889 
L 65.034444 88.313721 
L 66.111046 88.32122 
L 67.187649 86.079569 
L 68.264252 81.237451 
L 69.340854 79.445302 
L 70.417457 76.219069 
L 71.494059 69.782901 
L 72.570662 64.168715 
L 73.647264 65.829298 
L 74.723867 59.346021 
L 75.80047 61.508982 
L 76.877072 63.071944 
L 77.953675 63.611333 
L 79.030277 59.100722 
L 80.10688 56.113654 
L 81.183482 62.013547 
L 82.260085 56.526955 
L 83.336687 58.821943 
L 84.41329 55.390638 
L 85.489893 57.850144 
L 86.566495 59.93869 
L 87.643098 57.28134 
L 88.7197 61.350764 
L 89.796303 59.877104 
L 90.872905 56.304235 
L 91.949508 56.437081 
L 93.026111 58.821529 
L 94.102713 63.302995 
L 95.179316 62.390703 
L 96.255918 62.688648 
L 97.332521 66.12535 
L 98.409123 62.502252 
L 99.485726 59.929009 
L 100.562328 65.548316 
L 101.638931 61.776077 
L 102.715534 65.930764 
L 103.792136 64.641972 
L 104.868739 62.255845 
L 105.945341 65.671466 
L 107.021944 63.027123 
L 108.098546 67.233373 
L 109.175149 66.155179 
L 110.251752 60.893568 
L 111.328354 68.189924 
L 112.404957 67.700466 
L 113.481559 73.20318 
L 114.558162 71.577376 
L 115.634764 69.902617 
L 116.711367 68.425461 
L 117.787969 72.545965 
L 118.864572 72.139086 
L 119.941175 68.658056 
L 121.017777 73.337947 
L 122.09438 73.566547 
L 123.170982 74.496049 
L 124.247585 73.97341 
L 125.324187 73.782907 
L 126.40079 75.238358 
L 127.477393 73.95015 
L 128.553995 73.89536 
L 129.630598 76.219904 
" clip-path="url(#p65b87b7a17)" style="fill: none; stroke: #808080; stroke-opacity: 0.3; stroke-width: 0.5; stroke-linecap: square"/>
   </g>
   <g id="line2d_12">
    <path d="M 44.578995 88.701512 
L 45.655598 92.013875 
L 46.7322 93.810717 
L 47.808803 90.872757 
L 48.885406 91.989331 
L 49.962008 91.883953 
L 51.038611 91.533156 
L 52.115213 89.262245 
L 53.191816 88.311221 
L 54.268418 92.629587 
L 55.345021 89.836413 
L 56.421623 87.584318 
L 57.498226 92.67148 
L 58.574829 87.99595 
L 59.651431 90.998938 
L 60.728034 95.823811 
L 61.804636 90.703498 
L 62.881239 90.703498 
L 63.957841 89.512107 
L 65.034444 88.645391 
L 66.111046 93.112703 
L 67.187649 88.852928 
L 68.264252 81.201557 
L 69.340854 76.242065 
L 70.417457 66.768664 
L 71.494059 68.220711 
L 72.570662 64.548249 
L 73.647264 64.540991 
L 74.723867 58.261505 
L 75.80047 60.644455 
L 76.877072 60.195495 
L 77.953675 61.849812 
L 79.030277 57.675392 
L 80.10688 57.485636 
L 81.183482 49.977666 
L 82.260085 47.136228 
L 83.336687 46.426565 
L 84.41329 45.62081 
L 85.489893 41.070383 
L 86.566495 46.865591 
L 87.643098 49.863923 
L 88.7197 46.946723 
L 89.796303 50.179465 
L 90.872905 44.714509 
L 91.949508 47.427826 
L 93.026111 51.092799 
L 94.102713 46.508683 
L 95.179316 47.432988 
L 96.255918 53.227344 
L 97.332521 47.956518 
L 98.409123 49.568879 
L 99.485726 51.756264 
L 100.562328 48.773683 
L 101.638931 54.204176 
L 102.715534 52.003642 
L 103.792136 58.129471 
L 104.868739 55.111477 
L 105.945341 55.928419 
L 107.021944 54.684922 
L 108.098546 59.387982 
L 109.175149 59.985049 
L 110.251752 63.396698 
L 111.328354 60.648133 
L 112.404957 57.880586 
L 113.481559 62.976819 
L 114.558162 55.282189 
L 115.634764 61.064853 
L 116.711367 66.11259 
L 117.787969 60.769015 
L 118.864572 65.752993 
L 119.941175 62.986494 
L 121.017777 62.856584 
L 122.09438 66.225171 
L 123.170982 70.179127 
L 124.247585 64.05654 
L 125.324187 66.112979 
L 126.40079 66.215189 
L 127.477393 66.70311 
L 128.553995 70.017392 
L 129.630598 68.007192 
" clip-path="url(#p65b87b7a17)" style="fill: none; stroke: #808080; stroke-opacity: 0.3; stroke-width: 0.5; stroke-linecap: square"/>
   </g>
   <g id="line2d_13">
    <path d="M 44.578995 88.292854 
L 45.655598 88.128566 
L 46.7322 85.826001 
L 47.808803 87.10001 
L 48.885406 83.822642 
L 49.962008 87.012784 
L 51.038611 86.716808 
L 52.115213 87.917275 
L 53.191816 84.926043 
L 54.268418 83.281287 
L 55.345021 86.888222 
L 56.421623 83.731372 
L 57.498226 85.899088 
L 58.574829 86.011087 
L 59.651431 90.824533 
L 60.728034 86.855051 
L 61.804636 87.143991 
L 62.881239 87.143991 
L 63.957841 86.276134 
L 65.034444 87.435954 
L 66.111046 86.853518 
L 67.187649 84.326233 
L 68.264252 84.389614 
L 69.340854 73.307485 
L 70.417457 66.507226 
L 71.494059 65.514236 
L 72.570662 66.189998 
L 73.647264 62.8842 
L 74.723867 52.820756 
L 75.80047 62.067116 
L 76.877072 64.587994 
L 77.953675 60.263138 
L 79.030277 60.317891 
L 80.10688 55.164362 
L 81.183482 52.268257 
L 82.260085 49.067218 
L 83.336687 41.413229 
L 84.41329 41.165161 
L 85.489893 43.71856 
L 86.566495 38.706565 
L 87.643098 44.255928 
L 88.7197 42.920383 
L 89.796303 42.873099 
L 90.872905 47.440498 
L 91.949508 48.933348 
L 93.026111 54.182584 
L 94.102713 52.44406 
L 95.179316 46.527604 
L 96.255918 52.613214 
L 97.332521 44.661141 
L 98.409123 52.809093 
L 99.485726 53.708359 
L 100.562328 48.753293 
L 101.638931 51.91736 
L 102.715534 49.165225 
L 103.792136 48.175386 
L 104.868739 48.341548 
L 105.945341 53.619223 
L 107.021944 55.37341 
L 108.098546 59.892162 
L 109.175149 56.24267 
L 110.251752 59.929913 
L 111.328354 60.509764 
L 112.404957 66.299092 
L 113.481559 61.220079 
L 114.558162 56.821179 
L 115.634764 60.932554 
L 116.711367 61.040924 
L 117.787969 58.2101 
L 118.864572 59.869537 
L 119.941175 61.852358 
L 121.017777 67.195072 
L 122.09438 60.4406 
L 123.170982 63.555092 
L 124.247585 63.229555 
L 125.324187 59.597879 
L 126.40079 55.092401 
L 127.477393 61.649388 
L 128.553995 62.278714 
L 129.630598 59.650064 
" clip-path="url(#p65b87b7a17)" style="fill: none; stroke: #808080; stroke-opacity: 0.3; stroke-width: 0.5; stroke-linecap: square"/>
   </g>
   <g id="line2d_14">
    <path d="M 44.578995 84.416474 
L 45.655598 82.093083 
L 46.7322 85.702684 
L 47.808803 84.909312 
L 48.885406 82.956962 
L 49.962008 82.510808 
L 51.038611 83.044931 
L 52.115213 86.065409 
L 53.191816 83.705536 
L 54.268418 86.193431 
L 55.345021 85.804756 
L 56.421623 83.742795 
L 57.498226 86.878587 
L 58.574829 84.114564 
L 59.651431 84.7025 
L 60.728034 82.164747 
L 61.804636 86.326601 
L 62.881239 86.326601 
L 63.957841 91.811357 
L 65.034444 88.952974 
L 66.111046 89.139746 
L 67.187649 84.273829 
L 68.264252 75.798311 
L 69.340854 71.521396 
L 70.417457 61.30423 
L 71.494059 52.487247 
L 72.570662 46.096841 
L 73.647264 48.229767 
L 74.723867 45.246435 
L 75.80047 49.356423 
L 76.877072 47.361561 
L 77.953675 49.594549 
L 79.030277 44.357664 
L 80.10688 36.108123 
L 81.183482 32.955311 
L 82.260085 26.034731 
L 83.336687 22.845247 
L 84.41329 11.345681 
L 85.489893 22.541476 
L 86.566495 24.366311 
L 87.643098 20.126386 
L 88.7197 27.422391 
L 89.796303 22.022738 
L 90.872905 31.262872 
L 91.949508 30.407259 
L 93.026111 28.449167 
L 94.102713 31.210994 
L 95.179316 28.547604 
L 96.255918 25.51117 
L 97.332521 32.540553 
L 98.409123 20.581996 
L 99.485726 32.947134 
L 100.562328 39.859197 
L 101.638931 34.723989 
L 102.715534 40.819484 
L 103.792136 32.000383 
L 104.868739 40.260415 
L 105.945341 28.605134 
L 107.021944 40.420162 
L 108.098546 43.235007 
L 109.175149 33.171712 
L 110.251752 39.277515 
L 111.328354 43.27779 
L 112.404957 41.635848 
L 113.481559 50.595985 
L 114.558162 41.631013 
L 115.634764 46.96139 
L 116.711367 49.588807 
L 117.787969 43.757885 
L 118.864572 45.538871 
L 119.941175 46.919092 
L 121.017777 48.780643 
L 122.09438 47.190873 
L 123.170982 47.509322 
L 124.247585 45.90249 
L 125.324187 53.612616 
L 126.40079 48.949458 
L 127.477393 53.437539 
L 128.553995 54.090893 
L 129.630598 45.429717 
" clip-path="url(#p65b87b7a17)" style="fill: none; stroke: #808080; stroke-opacity: 0.3; stroke-width: 0.5; stroke-linecap: square"/>
   </g>
   <g id="line2d_15">
    <path d="M 44.578995 83.919765 
L 45.655598 83.842982 
L 46.7322 86.631637 
L 47.808803 82.475001 
L 48.885406 83.160002 
L 49.962008 85.269598 
L 51.038611 87.305549 
L 52.115213 84.963661 
L 53.191816 85.504108 
L 54.268418 86.190502 
L 55.345021 84.334358 
L 56.421623 86.203118 
L 57.498226 86.539304 
L 58.574829 82.641578 
L 59.651431 84.955644 
L 60.728034 86.106827 
L 61.804636 88.230708 
L 62.881239 88.230708 
L 63.957841 90.306821 
L 65.034444 83.99921 
L 66.111046 89.053961 
L 67.187649 83.092943 
L 68.264252 77.157312 
L 69.340854 69.570166 
L 70.417457 61.791195 
L 71.494059 61.565669 
L 72.570662 58.616447 
L 73.647264 53.109949 
L 74.723867 55.77452 
L 75.80047 53.300987 
L 76.877072 54.951619 
L 77.953675 56.680674 
L 79.030277 53.779095 
L 80.10688 58.50836 
L 81.183482 54.399753 
L 82.260085 59.15581 
L 83.336687 58.704423 
L 84.41329 56.73477 
L 85.489893 56.606861 
L 86.566495 59.688457 
L 87.643098 55.432108 
L 88.7197 63.462451 
L 89.796303 60.246529 
L 90.872905 61.804777 
L 91.949508 62.139344 
L 93.026111 60.818028 
L 94.102713 57.556474 
L 95.179316 62.586517 
L 96.255918 66.697534 
L 97.332521 64.621886 
L 98.409123 56.027872 
L 99.485726 59.374017 
L 100.562328 66.245838 
L 101.638931 61.501991 
L 102.715534 59.044848 
L 103.792136 66.873295 
L 104.868739 64.283499 
L 105.945341 62.796481 
L 107.021944 65.166932 
L 108.098546 62.546636 
L 109.175149 63.417402 
L 110.251752 64.184484 
L 111.328354 63.523782 
L 112.404957 69.78695 
L 113.481559 68.747837 
L 114.558162 65.699843 
L 115.634764 63.614884 
L 116.711367 68.250829 
L 117.787969 66.549671 
L 118.864572 65.022386 
L 119.941175 63.729854 
L 121.017777 65.116744 
L 122.09438 64.995263 
L 123.170982 69.307189 
L 124.247585 64.0172 
L 125.324187 66.664139 
L 126.40079 66.023212 
L 127.477393 70.540906 
L 128.553995 67.618547 
L 129.630598 69.871789 
" clip-path="url(#p65b87b7a17)" style="fill: none; stroke: #808080; stroke-opacity: 0.3; stroke-width: 0.5; stroke-linecap: square"/>
   </g>
   <g id="line2d_16">
    <path d="M 44.578995 89.096667 
L 45.655598 91.397513 
L 46.7322 90.04964 
L 47.808803 90.494212 
L 48.885406 90.933553 
L 49.962008 91.710452 
L 51.038611 88.425518 
L 52.115213 92.783544 
L 53.191816 89.388713 
L 54.268418 89.255021 
L 55.345021 88.088279 
L 56.421623 87.989719 
L 57.498226 88.411157 
L 58.574829 89.416715 
L 59.651431 90.972708 
L 60.728034 87.273857 
L 61.804636 88.372556 
L 62.881239 88.372556 
L 63.957841 89.797994 
L 65.034444 85.978092 
L 66.111046 88.216882 
L 67.187649 86.844927 
L 68.264252 87.768804 
L 69.340854 88.618374 
L 70.417457 84.03005 
L 71.494059 85.562507 
L 72.570662 85.359576 
L 73.647264 88.772145 
L 74.723867 89.068811 
L 75.80047 91.736998 
L 76.877072 87.015178 
L 77.953675 88.937279 
L 79.030277 87.4633 
L 80.10688 87.295494 
L 81.183482 88.956546 
L 82.260085 88.179741 
L 83.336687 82.573796 
L 84.41329 85.002428 
L 85.489893 84.462392 
L 86.566495 83.814056 
L 87.643098 86.107037 
L 88.7197 84.383107 
L 89.796303 78.899519 
L 90.872905 84.693984 
L 91.949508 82.723089 
L 93.026111 85.270742 
L 94.102713 88.430183 
L 95.179316 81.010307 
L 96.255918 84.157287 
L 97.332521 83.254087 
L 98.409123 83.316518 
L 99.485726 86.755739 
L 100.562328 83.916276 
L 101.638931 86.347633 
L 102.715534 85.928823 
L 103.792136 87.207347 
L 104.868739 84.769364 
L 105.945341 82.221719 
L 107.021944 85.9318 
L 108.098546 85.517166 
L 109.175149 79.529072 
L 110.251752 85.543871 
L 111.328354 84.784213 
L 112.404957 87.838348 
L 113.481559 85.005291 
L 114.558162 91.606215 
L 115.634764 87.265039 
L 116.711367 86.946874 
L 117.787969 84.776815 
L 118.864572 83.280101 
L 119.941175 85.333478 
L 121.017777 85.981521 
L 122.09438 87.864545 
L 123.170982 89.916291 
L 124.247585 90.502822 
L 125.324187 85.264954 
L 126.40079 87.680193 
L 127.477393 88.770388 
L 128.553995 90.261323 
L 129.630598 88.73912 
" clip-path="url(#p65b87b7a17)" style="fill: none; stroke: #808080; stroke-opacity: 0.3; stroke-width: 0.5; stroke-linecap: square"/>
   </g>
   <g id="line2d_17">
    <path d="M 44.578995 85.297718 
L 45.655598 86.790531 
L 46.7322 84.64383 
L 47.808803 86.302656 
L 48.885406 86.074554 
L 49.962008 89.407129 
L 51.038611 86.230607 
L 52.115213 85.55014 
L 53.191816 83.11913 
L 54.268418 86.454478 
L 55.345021 88.038781 
L 56.421623 85.017314 
L 57.498226 91.024776 
L 58.574829 85.376742 
L 59.651431 84.183082 
L 60.728034 83.5092 
L 61.804636 85.704152 
L 62.881239 85.704152 
L 63.957841 86.882017 
L 65.034444 85.307792 
L 66.111046 84.755204 
L 67.187649 86.545563 
L 68.264252 74.059189 
L 69.340854 72.735572 
L 70.417457 68.131708 
L 71.494059 66.879438 
L 72.570662 67.622282 
L 73.647264 68.802369 
L 74.723867 67.349912 
L 75.80047 68.016169 
L 76.877072 71.461217 
L 77.953675 64.248528 
L 79.030277 68.934016 
L 80.10688 68.031969 
L 81.183482 69.223484 
L 82.260085 68.139758 
L 83.336687 68.466904 
L 84.41329 67.349571 
L 85.489893 69.906396 
L 86.566495 68.516247 
L 87.643098 72.966763 
L 88.7197 69.891525 
L 89.796303 70.064866 
L 90.872905 69.466148 
L 91.949508 69.841725 
L 93.026111 69.191685 
L 94.102713 69.844592 
L 95.179316 72.963645 
L 96.255918 69.742302 
L 97.332521 71.475236 
L 98.409123 71.966327 
L 99.485726 72.209819 
L 100.562328 76.709297 
L 101.638931 74.220615 
L 102.715534 73.649169 
L 103.792136 74.509434 
L 104.868739 72.038595 
L 105.945341 72.992029 
L 107.021944 76.404495 
L 108.098546 74.33505 
L 109.175149 79.48299 
L 110.251752 73.197042 
L 111.328354 77.33416 
L 112.404957 75.089233 
L 113.481559 75.613713 
L 114.558162 73.686605 
L 115.634764 73.518049 
L 116.711367 75.175167 
L 117.787969 73.529964 
L 118.864572 78.890335 
L 119.941175 73.94283 
L 121.017777 77.598359 
L 122.09438 73.809922 
L 123.170982 77.78181 
L 124.247585 75.913587 
L 125.324187 77.356384 
L 126.40079 74.530968 
L 127.477393 77.662471 
L 128.553995 75.84475 
L 129.630598 79.465167 
" clip-path="url(#p65b87b7a17)" style="fill: none; stroke: #808080; stroke-opacity: 0.3; stroke-width: 0.5; stroke-linecap: square"/>
   </g>
   <g id="line2d_18">
    <path d="M 44.578995 88.086056 
L 45.655598 87.413358 
L 46.7322 86.91738 
L 47.808803 86.237196 
L 48.885406 87.839185 
L 49.962008 86.162272 
L 51.038611 83.882826 
L 52.115213 86.613568 
L 53.191816 87.14176 
L 54.268418 84.009808 
L 55.345021 88.455204 
L 56.421623 87.161205 
L 57.498226 86.047649 
L 58.574829 88.489877 
L 59.651431 84.655199 
L 60.728034 90.621669 
L 61.804636 87.906674 
L 62.881239 87.906674 
L 63.957841 90.17194 
L 65.034444 88.36819 
L 66.111046 88.76303 
L 67.187649 87.309824 
L 68.264252 81.111345 
L 69.340854 78.888621 
L 70.417457 75.848849 
L 71.494059 73.998228 
L 72.570662 71.624732 
L 73.647264 74.304579 
L 74.723867 65.447695 
L 75.80047 71.85447 
L 76.877072 72.913788 
L 77.953675 65.012672 
L 79.030277 71.841948 
L 80.10688 58.752663 
L 81.183482 57.972095 
L 82.260085 62.630864 
L 83.336687 62.037392 
L 84.41329 62.216475 
L 85.489893 58.482308 
L 86.566495 58.389574 
L 87.643098 57.936369 
L 88.7197 61.472497 
L 89.796303 57.078178 
L 90.872905 63.21369 
L 91.949508 62.187139 
L 93.026111 62.792156 
L 94.102713 61.39568 
L 95.179316 64.568779 
L 96.255918 63.147831 
L 97.332521 64.439394 
L 98.409123 64.217039 
L 99.485726 67.632349 
L 100.562328 66.309768 
L 101.638931 65.401736 
L 102.715534 61.377722 
L 103.792136 67.573622 
L 104.868739 64.091381 
L 105.945341 67.833572 
L 107.021944 69.689978 
L 108.098546 70.871662 
L 109.175149 67.947694 
L 110.251752 67.878758 
L 111.328354 68.962839 
L 112.404957 67.203609 
L 113.481559 67.556688 
L 114.558162 70.317698 
L 115.634764 75.359449 
L 116.711367 71.123719 
L 117.787969 71.917099 
L 118.864572 73.453983 
L 119.941175 68.129751 
L 121.017777 71.689347 
L 122.09438 75.32051 
L 123.170982 71.690602 
L 124.247585 74.303443 
L 125.324187 73.477793 
L 126.40079 73.555862 
L 127.477393 74.694656 
L 128.553995 78.303053 
L 129.630598 75.951526 
" clip-path="url(#p65b87b7a17)" style="fill: none; stroke: #808080; stroke-opacity: 0.3; stroke-width: 0.5; stroke-linecap: square"/>
   </g>
   <g id="line2d_19">
    <path d="M 44.578995 88.631119 
L 45.655598 87.760148 
L 46.7322 89.833038 
L 47.808803 91.203922 
L 48.885406 88.128034 
L 49.962008 89.274371 
L 51.038611 91.417075 
L 52.115213 89.109774 
L 53.191816 89.142827 
L 54.268418 90.719921 
L 55.345021 88.449656 
L 56.421623 90.772418 
L 57.498226 87.93902 
L 58.574829 86.088547 
L 59.651431 89.323151 
L 60.728034 88.745554 
L 61.804636 90.734067 
L 62.881239 90.734067 
L 63.957841 89.816297 
L 65.034444 87.695424 
L 66.111046 90.394464 
L 67.187649 83.238008 
L 68.264252 79.373136 
L 69.340854 72.287849 
L 70.417457 72.37497 
L 71.494059 63.810373 
L 72.570662 63.355999 
L 73.647264 61.315973 
L 74.723867 63.97099 
L 75.80047 65.37342 
L 76.877072 66.785634 
L 77.953675 62.54536 
L 79.030277 65.708438 
L 80.10688 56.105138 
L 81.183482 54.027506 
L 82.260085 52.669406 
L 83.336687 45.159873 
L 84.41329 47.650847 
L 85.489893 50.665664 
L 86.566495 54.944569 
L 87.643098 49.184671 
L 88.7197 50.062515 
L 89.796303 53.222943 
L 90.872905 55.083143 
L 91.949508 54.968316 
L 93.026111 53.929349 
L 94.102713 58.404133 
L 95.179316 58.501988 
L 96.255918 61.993416 
L 97.332521 54.682478 
L 98.409123 58.440244 
L 99.485726 60.430083 
L 100.562328 58.672269 
L 101.638931 57.713691 
L 102.715534 57.057541 
L 103.792136 65.715982 
L 104.868739 61.57061 
L 105.945341 58.327732 
L 107.021944 62.254946 
L 108.098546 65.383118 
L 109.175149 66.245376 
L 110.251752 65.867272 
L 111.328354 66.444242 
L 112.404957 68.694959 
L 113.481559 63.102559 
L 114.558162 70.635057 
L 115.634764 65.489024 
L 116.711367 70.394189 
L 117.787969 67.121296 
L 118.864572 68.773539 
L 119.941175 73.407896 
L 121.017777 68.337761 
L 122.09438 68.865938 
L 123.170982 70.10604 
L 124.247585 66.760157 
L 125.324187 70.833492 
L 126.40079 72.462686 
L 127.477393 72.444254 
L 128.553995 70.70842 
L 129.630598 72.498499 
" clip-path="url(#p65b87b7a17)" style="fill: none; stroke: #808080; stroke-opacity: 0.3; stroke-width: 0.5; stroke-linecap: square"/>
   </g>
   <g id="line2d_20">
    <path d="M 44.578995 91.84353 
L 45.655598 90.918943 
L 46.7322 89.535822 
L 47.808803 89.095165 
L 48.885406 88.591227 
L 49.962008 91.549597 
L 51.038611 88.44929 
L 52.115213 85.268882 
L 53.191816 87.499644 
L 54.268418 92.283312 
L 55.345021 89.921725 
L 56.421623 89.535149 
L 57.498226 89.413868 
L 58.574829 91.212778 
L 59.651431 90.448762 
L 60.728034 90.460504 
L 61.804636 89.769966 
L 62.881239 89.769966 
L 63.957841 93.431399 
L 65.034444 88.417988 
L 66.111046 90.200216 
L 67.187649 80.769615 
L 68.264252 78.740809 
L 69.340854 70.383343 
L 70.417457 55.477088 
L 71.494059 56.288993 
L 72.570662 59.638226 
L 73.647264 56.670597 
L 74.723867 58.30774 
L 75.80047 54.318472 
L 76.877072 60.868168 
L 77.953675 58.547471 
L 79.030277 57.361721 
L 80.10688 46.512679 
L 81.183482 44.531631 
L 82.260085 45.632109 
L 83.336687 49.317472 
L 84.41329 46.700438 
L 85.489893 43.43616 
L 86.566495 44.425639 
L 87.643098 43.721994 
L 88.7197 47.264509 
L 89.796303 46.849288 
L 90.872905 45.619714 
L 91.949508 47.36482 
L 93.026111 42.322182 
L 94.102713 50.307485 
L 95.179316 48.718952 
L 96.255918 52.527305 
L 97.332521 49.412977 
L 98.409123 49.5521 
L 99.485726 54.436945 
L 100.562328 52.852636 
L 101.638931 46.721234 
L 102.715534 52.216021 
L 103.792136 57.565015 
L 104.868739 51.354208 
L 105.945341 52.591544 
L 107.021944 52.283268 
L 108.098546 57.964778 
L 109.175149 57.501754 
L 110.251752 63.323118 
L 111.328354 57.529251 
L 112.404957 60.915625 
L 113.481559 62.545282 
L 114.558162 61.716964 
L 115.634764 62.970445 
L 116.711367 63.190963 
L 117.787969 62.134668 
L 118.864572 63.456524 
L 119.941175 59.191212 
L 121.017777 63.466108 
L 122.09438 64.709304 
L 123.170982 64.032697 
L 124.247585 66.333355 
L 125.324187 65.020755 
L 126.40079 66.9168 
L 127.477393 69.077754 
L 128.553995 67.285855 
L 129.630598 68.041645 
" clip-path="url(#p65b87b7a17)" style="fill: none; stroke: #808080; stroke-opacity: 0.3; stroke-width: 0.5; stroke-linecap: square"/>
   </g>
   <g id="line2d_21">
    <path d="M 44.578995 91.397842 
L 45.655598 88.309398 
L 46.7322 92.485571 
L 47.808803 87.211176 
L 48.885406 88.165564 
L 49.962008 88.613845 
L 51.038611 90.552129 
L 52.115213 91.069294 
L 53.191816 92.936045 
L 54.268418 94.510878 
L 55.345021 91.578822 
L 56.421623 94.819783 
L 57.498226 89.011624 
L 58.574829 90.294243 
L 59.651431 90.43639 
L 60.728034 93.2015 
L 61.804636 88.823405 
L 62.881239 88.823405 
L 63.957841 88.905254 
L 65.034444 88.871525 
L 66.111046 89.707423 
L 67.187649 84.784306 
L 68.264252 81.730526 
L 69.340854 72.023781 
L 70.417457 56.378763 
L 71.494059 57.681925 
L 72.570662 49.524807 
L 73.647264 52.142952 
L 74.723867 51.778055 
L 75.80047 50.123296 
L 76.877072 50.112972 
L 77.953675 49.606632 
L 79.030277 52.133118 
L 80.10688 43.9823 
L 81.183482 28.933021 
L 82.260085 31.26525 
L 83.336687 29.973014 
L 84.41329 23.528496 
L 85.489893 22.99534 
L 86.566495 12.343377 
L 87.643098 20.745335 
L 88.7197 17.64541 
L 89.796303 16.625906 
L 90.872905 22.051114 
L 91.949508 25.856246 
L 93.026111 23.733568 
L 94.102713 26.326212 
L 95.179316 29.49083 
L 96.255918 28.326308 
L 97.332521 25.851282 
L 98.409123 31.866433 
L 99.485726 27.69512 
L 100.562328 35.788201 
L 101.638931 37.255287 
L 102.715534 35.073875 
L 103.792136 31.677197 
L 104.868739 40.150766 
L 105.945341 37.070049 
L 107.021944 42.292168 
L 108.098546 42.296817 
L 109.175149 47.207489 
L 110.251752 39.539942 
L 111.328354 45.616206 
L 112.404957 45.163922 
L 113.481559 46.365775 
L 114.558162 41.094325 
L 115.634764 45.434333 
L 116.711367 46.564333 
L 117.787969 48.862414 
L 118.864572 55.112627 
L 119.941175 49.465301 
L 121.017777 52.285139 
L 122.09438 54.742357 
L 123.170982 51.4122 
L 124.247585 52.867182 
L 125.324187 53.316493 
L 126.40079 56.929298 
L 127.477393 55.231573 
L 128.553995 62.741376 
L 129.630598 63.540543 
" clip-path="url(#p65b87b7a17)" style="fill: none; stroke: #808080; stroke-opacity: 0.3; stroke-width: 0.5; stroke-linecap: square"/>
   </g>
   <g id="line2d_22">
    <path d="M 44.578995 86.029728 
L 45.655598 89.567946 
L 46.7322 88.580794 
L 47.808803 89.010953 
L 48.885406 86.523357 
L 49.962008 88.530317 
L 51.038611 85.919924 
L 52.115213 88.402492 
L 53.191816 87.952659 
L 54.268418 87.154912 
L 55.345021 85.661722 
L 56.421623 88.673713 
L 57.498226 87.404646 
L 58.574829 90.955297 
L 59.651431 89.67599 
L 60.728034 87.640952 
L 61.804636 88.05752 
L 62.881239 88.05752 
L 63.957841 89.014393 
L 65.034444 84.848686 
L 66.111046 90.24891 
L 67.187649 89.790883 
L 68.264252 81.778159 
L 69.340854 71.323366 
L 70.417457 71.670805 
L 71.494059 66.686715 
L 72.570662 65.170836 
L 73.647264 63.234289 
L 74.723867 66.27536 
L 75.80047 62.233472 
L 76.877072 61.979893 
L 77.953675 64.48236 
L 79.030277 56.797434 
L 80.10688 40.334746 
L 81.183482 37.081147 
L 82.260085 41.074562 
L 83.336687 35.818527 
L 84.41329 38.860736 
L 85.489893 32.689795 
L 86.566495 31.738097 
L 87.643098 35.866566 
L 88.7197 35.801508 
L 89.796303 36.549637 
L 90.872905 40.08169 
L 91.949508 35.118286 
L 93.026111 41.907927 
L 94.102713 42.758131 
L 95.179316 35.608744 
L 96.255918 43.195977 
L 97.332521 38.294627 
L 98.409123 41.133242 
L 99.485726 45.223745 
L 100.562328 39.170777 
L 101.638931 43.421094 
L 102.715534 42.321406 
L 103.792136 47.109148 
L 104.868739 51.313508 
L 105.945341 47.961463 
L 107.021944 49.982448 
L 108.098546 47.771146 
L 109.175149 52.520766 
L 110.251752 48.683176 
L 111.328354 51.028443 
L 112.404957 55.053876 
L 113.481559 52.508869 
L 114.558162 53.202 
L 115.634764 52.732034 
L 116.711367 55.657309 
L 117.787969 53.618106 
L 118.864572 55.003207 
L 119.941175 54.67401 
L 121.017777 54.788653 
L 122.09438 50.00294 
L 123.170982 57.366828 
L 124.247585 57.627771 
L 125.324187 62.8584 
L 126.40079 60.78236 
L 127.477393 59.961101 
L 128.553995 57.115437 
L 129.630598 57.082655 
" clip-path="url(#p65b87b7a17)" style="fill: none; stroke: #808080; stroke-opacity: 0.3; stroke-width: 0.5; stroke-linecap: square"/>
   </g>
   <g id="line2d_23">
    <path d="M 44.578995 86.083231 
L 45.655598 82.345452 
L 46.7322 84.017169 
L 47.808803 82.44931 
L 48.885406 86.111083 
L 49.962008 84.182853 
L 51.038611 85.471493 
L 52.115213 86.141561 
L 53.191816 85.318645 
L 54.268418 82.530875 
L 55.345021 84.805497 
L 56.421623 82.070116 
L 57.498226 88.668402 
L 58.574829 84.03353 
L 59.651431 81.057627 
L 60.728034 85.57428 
L 61.804636 86.497902 
L 62.881239 86.497902 
L 63.957841 89.185062 
L 65.034444 86.814695 
L 66.111046 87.187394 
L 67.187649 86.653919 
L 68.264252 80.481313 
L 69.340854 75.63835 
L 70.417457 77.185529 
L 71.494059 72.43069 
L 72.570662 71.172872 
L 73.647264 71.770572 
L 74.723867 74.472849 
L 75.80047 72.312408 
L 76.877072 73.385681 
L 77.953675 71.979725 
L 79.030277 74.716413 
L 80.10688 70.110544 
L 81.183482 70.712063 
L 82.260085 62.323051 
L 83.336687 57.092332 
L 84.41329 49.628805 
L 85.489893 60.382746 
L 86.566495 58.44974 
L 87.643098 59.706465 
L 88.7197 56.117178 
L 89.796303 52.428049 
L 90.872905 54.922421 
L 91.949508 53.792267 
L 93.026111 53.413514 
L 94.102713 56.957874 
L 95.179316 56.731117 
L 96.255918 55.591997 
L 97.332521 57.598837 
L 98.409123 54.636442 
L 99.485726 61.146508 
L 100.562328 62.179367 
L 101.638931 62.260537 
L 102.715534 59.943315 
L 103.792136 58.727092 
L 104.868739 66.450671 
L 105.945341 63.903901 
L 107.021944 65.590819 
L 108.098546 64.299956 
L 109.175149 62.673839 
L 110.251752 67.400385 
L 111.328354 66.589477 
L 112.404957 62.833431 
L 113.481559 68.75146 
L 114.558162 65.897175 
L 115.634764 68.049621 
L 116.711367 67.163888 
L 117.787969 68.594705 
L 118.864572 67.149048 
L 119.941175 67.643747 
L 121.017777 70.9896 
L 122.09438 72.88373 
L 123.170982 68.342322 
L 124.247585 68.267425 
L 125.324187 72.01051 
L 126.40079 69.435057 
L 127.477393 68.474469 
L 128.553995 72.823434 
L 129.630598 73.940088 
" clip-path="url(#p65b87b7a17)" style="fill: none; stroke: #808080; stroke-opacity: 0.3; stroke-width: 0.5; stroke-linecap: square"/>
   </g>
   <g id="line2d_24">
    <path d="M 44.578995 92.727384 
L 45.655598 92.224052 
L 46.7322 88.718535 
L 47.808803 91.940873 
L 48.885406 93.698445 
L 49.962008 89.409074 
L 51.038611 90.451782 
L 52.115213 92.637485 
L 53.191816 91.621518 
L 54.268418 90.946012 
L 55.345021 92.698039 
L 56.421623 93.555049 
L 57.498226 91.418523 
L 58.574829 91.629756 
L 59.651431 93.922352 
L 60.728034 89.964064 
L 61.804636 89.07927 
L 62.881239 89.07927 
L 63.957841 89.391463 
L 65.034444 89.822636 
L 66.111046 85.831764 
L 67.187649 84.137004 
L 68.264252 76.540848 
L 69.340854 72.0081 
L 70.417457 69.135749 
L 71.494059 72.087845 
L 72.570662 70.979075 
L 73.647264 69.526834 
L 74.723867 68.978711 
L 75.80047 68.585292 
L 76.877072 70.648851 
L 77.953675 65.406067 
L 79.030277 65.127235 
L 80.10688 66.071123 
L 81.183482 66.105913 
L 82.260085 70.428049 
L 83.336687 63.943974 
L 84.41329 67.393687 
L 85.489893 67.491204 
L 86.566495 73.865007 
L 87.643098 75.607073 
L 88.7197 66.598522 
L 89.796303 67.424432 
L 90.872905 72.250106 
L 91.949508 72.945548 
L 93.026111 73.017656 
L 94.102713 71.666238 
L 95.179316 69.358927 
L 96.255918 75.968038 
L 97.332521 76.049743 
L 98.409123 78.364091 
L 99.485726 75.653432 
L 100.562328 81.964689 
L 101.638931 74.888028 
L 102.715534 78.099486 
L 103.792136 80.600831 
L 104.868739 80.745623 
L 105.945341 82.099085 
L 107.021944 78.494111 
L 108.098546 79.405008 
L 109.175149 75.864851 
L 110.251752 78.689471 
L 111.328354 77.53629 
L 112.404957 78.499603 
L 113.481559 77.409512 
L 114.558162 80.670378 
L 115.634764 80.40714 
L 116.711367 79.822696 
L 117.787969 81.226618 
L 118.864572 80.39526 
L 119.941175 82.56849 
L 121.017777 79.244502 
L 122.09438 80.783586 
L 123.170982 83.515319 
L 124.247585 78.849482 
L 125.324187 82.486463 
L 126.40079 82.189343 
L 127.477393 85.362237 
L 128.553995 83.377875 
L 129.630598 80.040808 
" clip-path="url(#p65b87b7a17)" style="fill: none; stroke: #808080; stroke-opacity: 0.3; stroke-width: 0.5; stroke-linecap: square"/>
   </g>
   <g id="line2d_25">
    <path d="M 44.578995 84.644108 
L 45.655598 86.163636 
L 46.7322 85.072783 
L 47.808803 82.193336 
L 48.885406 83.881618 
L 49.962008 82.97199 
L 51.038611 83.962512 
L 52.115213 83.413842 
L 53.191816 84.014657 
L 54.268418 85.739958 
L 55.345021 84.782774 
L 56.421623 86.795919 
L 57.498226 87.429899 
L 58.574829 85.31569 
L 59.651431 86.371506 
L 60.728034 83.10904 
L 61.804636 86.567936 
L 62.881239 86.567936 
L 63.957841 88.181572 
L 65.034444 88.122584 
L 66.111046 87.560826 
L 67.187649 82.428781 
L 68.264252 78.787712 
L 69.340854 72.568915 
L 70.417457 61.363208 
L 71.494059 59.205976 
L 72.570662 57.375275 
L 73.647264 54.29817 
L 74.723867 56.42149 
L 75.80047 55.464941 
L 76.877072 56.087456 
L 77.953675 51.107918 
L 79.030277 50.157477 
L 80.10688 50.092333 
L 81.183482 54.501859 
L 82.260085 51.50205 
L 83.336687 52.806456 
L 84.41329 42.606647 
L 85.489893 48.051924 
L 86.566495 50.208502 
L 87.643098 52.503722 
L 88.7197 50.321266 
L 89.796303 50.867928 
L 90.872905 55.298861 
L 91.949508 57.712407 
L 93.026111 55.364817 
L 94.102713 60.517641 
L 95.179316 59.452962 
L 96.255918 59.747867 
L 97.332521 60.204594 
L 98.409123 57.541108 
L 99.485726 58.570869 
L 100.562328 63.081375 
L 101.638931 64.395921 
L 102.715534 62.181648 
L 103.792136 63.229757 
L 104.868739 63.571652 
L 105.945341 60.800884 
L 107.021944 60.553906 
L 108.098546 64.303505 
L 109.175149 67.25561 
L 110.251752 66.65947 
L 111.328354 65.658084 
L 112.404957 67.122208 
L 113.481559 68.41807 
L 114.558162 63.037266 
L 115.634764 66.015197 
L 116.711367 69.343748 
L 117.787969 71.13513 
L 118.864572 68.46443 
L 119.941175 69.708333 
L 121.017777 70.316221 
L 122.09438 72.371043 
L 123.170982 69.396066 
L 124.247585 73.050066 
L 125.324187 68.755998 
L 126.40079 69.257177 
L 127.477393 73.778975 
L 128.553995 71.103035 
L 129.630598 72.640761 
" clip-path="url(#p65b87b7a17)" style="fill: none; stroke: #808080; stroke-opacity: 0.3; stroke-width: 0.5; stroke-linecap: square"/>
   </g>
   <g id="line2d_26">
    <path d="M 44.578995 88.607344 
L 45.655598 88.518953 
L 46.7322 93.818831 
L 47.808803 93.140612 
L 48.885406 91.520402 
L 49.962008 90.306171 
L 51.038611 91.328784 
L 52.115213 91.939503 
L 53.191816 88.860615 
L 54.268418 88.115751 
L 55.345021 88.976944 
L 56.421623 90.269269 
L 57.498226 91.166676 
L 58.574829 90.361632 
L 59.651431 86.899242 
L 60.728034 88.18369 
L 61.804636 88.537545 
L 62.881239 88.537545 
L 63.957841 88.311033 
L 65.034444 86.923988 
L 66.111046 83.914185 
L 67.187649 87.071484 
L 68.264252 85.011518 
L 69.340854 74.401557 
L 70.417457 67.156424 
L 71.494059 61.41833 
L 72.570662 59.925236 
L 73.647264 60.223347 
L 74.723867 60.056932 
L 75.80047 59.406248 
L 76.877072 60.702595 
L 77.953675 58.766781 
L 79.030277 58.377813 
L 80.10688 50.559041 
L 81.183482 51.37221 
L 82.260085 43.446443 
L 83.336687 32.404163 
L 84.41329 29.597445 
L 85.489893 27.274593 
L 86.566495 27.310216 
L 87.643098 22.34954 
L 88.7197 28.360356 
L 89.796303 27.416565 
L 90.872905 29.864738 
L 91.949508 29.074958 
L 93.026111 19.095745 
L 94.102713 26.877487 
L 95.179316 23.185783 
L 96.255918 28.465787 
L 97.332521 25.813955 
L 98.409123 28.445821 
L 99.485726 33.203392 
L 100.562328 31.795037 
L 101.638931 32.509212 
L 102.715534 29.553824 
L 103.792136 36.491835 
L 104.868739 33.705751 
L 105.945341 39.113812 
L 107.021944 36.878894 
L 108.098546 33.449197 
L 109.175149 38.012104 
L 110.251752 38.203299 
L 111.328354 37.649273 
L 112.404957 42.955347 
L 113.481559 40.242004 
L 114.558162 43.56969 
L 115.634764 45.474897 
L 116.711367 47.80177 
L 117.787969 50.864988 
L 118.864572 48.590251 
L 119.941175 53.83405 
L 121.017777 52.086228 
L 122.09438 48.600635 
L 123.170982 50.423277 
L 124.247585 51.092429 
L 125.324187 48.013798 
L 126.40079 46.353828 
L 127.477393 52.78892 
L 128.553995 50.558302 
L 129.630598 53.599276 
" clip-path="url(#p65b87b7a17)" style="fill: none; stroke: #808080; stroke-opacity: 0.3; stroke-width: 0.5; stroke-linecap: square"/>
   </g>
   <g id="line2d_27">
    <path d="M 44.578995 87.881009 
L 45.655598 87.845925 
L 46.7322 88.340666 
L 47.808803 87.593469 
L 48.885406 87.648789 
L 49.962008 88.632026 
L 51.038611 87.52566 
L 52.115213 88.318535 
L 53.191816 87.854073 
L 54.268418 88.609892 
L 55.345021 88.213046 
L 56.421623 88.306544 
L 57.498226 88.700943 
L 58.574829 88.462738 
L 59.651431 87.834273 
L 60.728034 88.691553 
L 61.804636 88.636765 
L 62.881239 88.636765 
L 63.957841 89.22912 
L 65.034444 88.027549 
L 66.111046 88.059031 
L 67.187649 86.002791 
L 68.264252 81.741571 
L 69.340854 76.684628 
L 70.417457 70.303884 
L 71.494059 67.482458 
L 72.570662 65.865954 
L 73.647264 65.659056 
L 74.723867 64.108105 
L 75.80047 64.378087 
L 76.877072 65.242872 
L 77.953675 64.0335 
L 79.030277 62.945879 
L 80.10688 58.876412 
L 81.183482 57.346991 
L 82.260085 56.258066 
L 83.336687 54.051732 
L 84.41329 51.925787 
L 85.489893 53.659711 
L 86.566495 52.77984 
L 87.643098 53.679119 
L 88.7197 54.048813 
L 89.796303 52.93928 
L 90.872905 54.420039 
L 91.949508 55.050475 
L 93.026111 55.201516 
L 94.102713 56.193844 
L 95.179316 56.206323 
L 96.255918 57.52995 
L 97.332521 56.633709 
L 98.409123 57.552201 
L 99.485726 59.280566 
L 100.562328 59.283477 
L 101.638931 59.709322 
L 102.715534 59.254068 
L 103.792136 60.497846 
L 104.868739 60.743174 
L 105.945341 60.241856 
L 107.021944 61.398839 
L 108.098546 62.709745 
L 109.175149 62.707745 
L 110.251752 63.357268 
L 111.328354 63.711176 
L 112.404957 64.851702 
L 113.481559 65.478662 
L 114.558162 64.932224 
L 115.634764 65.89403 
L 116.711367 66.667395 
L 117.787969 66.201271 
L 118.864572 67.197496 
L 119.941175 66.96923 
L 121.017777 67.37358 
L 122.09438 67.684709 
L 123.170982 68.653425 
L 124.247585 67.864548 
L 125.324187 68.341256 
L 126.40079 68.55014 
L 127.477393 70.158827 
L 128.553995 69.334661 
L 129.630598 70.490004 
" clip-path="url(#p65b87b7a17)" style="fill: none; stroke: #00ffff; stroke-opacity: 0.9; stroke-linecap: square"/>
   </g>
   <g id="line2d_28">
    <path d="M 60.728034 88.282596 
L 63.947075 88.282596 
L 63.947075 88.282596 
" clip-path="url(#p65b87b7a17)" style="fill: none; stroke: #ff0000; stroke-opacity: 0.5; stroke-width: 1.5; stroke-linecap: square"/>
   </g>
   <g id="line2d_29">
    <path d="M 72.032361 88.282596 
L 75.251402 88.282596 
L 75.251402 88.282596 
" clip-path="url(#p65b87b7a17)" style="fill: none; stroke: #ff0000; stroke-opacity: 0.5; stroke-width: 1.5; stroke-linecap: square"/>
   </g>
   <g id="line2d_30">
    <path d="M 43.502393 88.282596 
L 43.502393 71.912155 
" clip-path="url(#p65b87b7a17)" style="fill: none; stroke: #000000; stroke-linecap: square"/>
   </g>
   <g id="line2d_31">
    <path d="M 44.578995 93.73941 
L 60.728034 93.73941 
" clip-path="url(#p65b87b7a17)" style="fill: none; stroke: #000000; stroke-linecap: square"/>
   </g>
   <g id="patch_3">
    <path d="M 74.723867 66.109712 
Q 74.723867 76.401375 74.723867 86.693038 
" style="fill: none; stroke: #696969; stroke-linecap: round"/>
   </g>
   <g id="patch_4">
    <path d="M 84.41329 53.9253 
Q 84.41329 58.585233 84.41329 63.245166 
" style="fill: none; stroke: #696969; stroke-linecap: round"/>
   </g>
   <g id="text_1">
    <text style="fill: #696969; font: 8px 'DejaVu Sans', 'Bitstream Vera Sans', 'Computer Modern Sans Serif', 'Lucida Grande', 'Verdana', 'Geneva', 'Lucid', 'Arial', 'Helvetica', 'Avant Garde', sans-serif; text-anchor: middle" x="80.645181" y="79.10153" transform="rotate(-0 80.645181 79.10153)">R1</text>
   </g>
   <g id="text_2">
    <text style="fill: #696969; font: 8px 'DejaVu Sans', 'Bitstream Vera Sans', 'Computer Modern Sans Serif', 'Lucida Grande', 'Verdana', 'Geneva', 'Lucid', 'Arial', 'Helvetica', 'Avant Garde', sans-serif; text-anchor: middle" x="90.334604" y="61.28603" transform="rotate(-0 90.334604 61.28603)">R2</text>
   </g>
   <g id="text_3">
    <text style="font: 8px 'DejaVu Sans', 'Bitstream Vera Sans', 'Computer Modern Sans Serif', 'Lucida Grande', 'Verdana', 'Geneva', 'Lucid', 'Arial', 'Helvetica', 'Avant Garde', sans-serif; text-anchor: end" x="42.42579" y="83.669079" transform="rotate(-0 42.42579 83.669079)">0.3 dF/F</text>
   </g>
   <g id="text_4">
    <text style="font: 8px 'DejaVu Sans', 'Bitstream Vera Sans', 'Computer Modern Sans Serif', 'Lucida Grande', 'Verdana', 'Geneva', 'Lucid', 'Arial', 'Helvetica', 'Avant Garde', sans-serif; text-anchor: middle" x="52.115213" y="102.546567" transform="rotate(-0 52.115213 102.546567)">0.5 s</text>
   </g>
  </g>
 </g>
 <defs>
  <clipPath id="p65b87b7a17">
   <rect x="39.195982" y="10.8" width="94.741025" height="87.95062"/>
  </clipPath>
 </defs>
</svg>
