<?xml version="1.0" encoding="utf-8" standalone="no"?>
<!DOCTYPE svg PUBLIC "-//W3C//DTD SVG 1.1//EN"
  "http://www.w3.org/Graphics/SVG/1.1/DTD/svg11.dtd">
<svg xmlns:xlink="http://www.w3.org/1999/xlink" width="137.537008pt" height="107.262992pt" viewBox="0 0 137.537008 107.262992" xmlns="http://www.w3.org/2000/svg" version="1.1">
 <metadata>
  <rdf:RDF xmlns:dc="http://purl.org/dc/elements/1.1/" xmlns:cc="http://creativecommons.org/ns#" xmlns:rdf="http://www.w3.org/1999/02/22-rdf-syntax-ns#">
   <cc:Work>
    <dc:type rdf:resource="http://purl.org/dc/dcmitype/StillImage"/>
    <dc:date>2024-04-02T14:45:49.093729</dc:date>
    <dc:format>image/svg+xml</dc:format>
    <dc:creator>
     <cc:Agent>
      <dc:title>Matplotlib v3.7.2, https://matplotlib.org/</dc:title>
     </cc:Agent>
    </dc:creator>
   </cc:Work>
  </rdf:RDF>
 </metadata>
 <defs>
  <style type="text/css">*{stroke-linejoin: round; stroke-linecap: butt}</style>
 </defs>
 <g id="figure_1">
  <g id="patch_1">
   <path d="M 0 107.262992 
L 137.537008 107.262992 
L 137.537008 0 
L 0 0 
L 0 107.262992 
z
" style="fill: none"/>
  </g>
  <g id="axes_1">
   <g id="patch_2">
    <path d="M 7.2 100.062992 
L 130.337008 100.062992 
L 130.337008 7.2 
L 7.2 7.2 
L 7.2 100.062992 
z
" style="fill: none"/>
   </g>
   <g id="matplotlib.axis_1"/>
   <g id="matplotlib.axis_2"/>
   <g id="line2d_1">
    <path d="M 12.797137 87.664665 
L 14.214133 89.444604 
L 15.63113 88.335966 
L 17.048127 90.635678 
L 18.465123 88.340673 
L 19.88212 90.425377 
L 21.299117 90.405318 
L 22.716113 88.48408 
L 24.13311 92.201112 
L 25.550106 92.58953 
L 26.967103 90.276211 
L 28.3841 90.769614 
L 29.801096 90.834872 
L 31.218093 92.952424 
L 32.63509 95.70299 
L 34.052086 94.350608 
L 35.469083 93.947307 
L 36.88608 93.947307 
L 38.303076 93.426108 
L 39.720073 93.451195 
L 41.137069 93.130333 
L 42.554066 90.643784 
L 43.971063 87.631499 
L 45.388059 76.849532 
L 46.805056 80.16036 
L 48.222053 78.07637 
L 49.639049 77.988724 
L 51.056046 78.657105 
L 52.473043 79.800443 
L 53.890039 82.685364 
L 55.307036 81.46134 
L 56.724033 78.48406 
L 58.141029 76.374508 
L 59.558026 73.883438 
L 60.975022 70.356593 
L 62.392019 72.485862 
L 63.809016 72.006411 
L 65.226012 67.958701 
L 66.643009 71.229564 
L 68.060006 68.891662 
L 69.477002 72.91517 
L 70.893999 73.061602 
L 72.310996 71.914178 
L 73.727992 69.540443 
L 75.144989 74.091887 
L 76.561985 74.050016 
L 77.978982 75.540094 
L 79.395979 71.709297 
L 80.812975 76.314389 
L 82.229972 73.688557 
L 83.646969 75.719628 
L 85.063965 74.611913 
L 86.480962 75.843488 
L 87.897959 77.161423 
L 89.314955 77.361073 
L 90.731952 78.120031 
L 92.148948 78.435858 
L 93.565945 77.319635 
L 94.982942 76.118198 
L 96.399938 78.822124 
L 97.816935 77.824133 
L 99.233932 80.101178 
L 100.650928 77.085456 
L 102.067925 80.597054 
L 103.484922 78.877431 
L 104.901918 79.251852 
L 106.318915 79.468512 
L 107.735911 81.479813 
L 109.152908 82.410707 
L 110.569905 83.990832 
L 111.986901 81.715766 
L 113.403898 82.877822 
L 114.820895 85.424533 
L 116.237891 84.045565 
L 117.654888 81.42393 
L 119.071885 80.551101 
L 120.488881 76.382375 
L 121.905878 76.945385 
L 123.322875 76.170006 
L 124.739871 75.984075 
" clip-path="url(#p0a5d0f19be)" style="fill: none; stroke: #808080; stroke-opacity: 0.3; stroke-width: 0.5; stroke-linecap: square"/>
   </g>
   <g id="line2d_2">
    <path d="M 12.797137 93.130928 
L 14.214133 95.438233 
L 15.63113 94.395404 
L 17.048127 93.004199 
L 18.465123 91.948039 
L 19.88212 94.312408 
L 21.299117 93.082773 
L 22.716113 91.051191 
L 24.13311 92.312839 
L 25.550106 93.29747 
L 26.967103 93.776212 
L 28.3841 94.219981 
L 29.801096 94.267443 
L 31.218093 92.984657 
L 32.63509 95.575407 
L 34.052086 92.657334 
L 35.469083 92.365516 
L 36.88608 92.365516 
L 38.303076 91.943064 
L 39.720073 91.640234 
L 41.137069 91.330639 
L 42.554066 91.263798 
L 43.971063 82.883047 
L 45.388059 82.406598 
L 46.805056 76.764961 
L 48.222053 72.954592 
L 49.639049 73.885539 
L 51.056046 70.586968 
L 52.473043 69.49959 
L 53.890039 73.695552 
L 55.307036 72.595336 
L 56.724033 73.621085 
L 58.141029 67.668106 
L 59.558026 64.717448 
L 60.975022 62.305406 
L 62.392019 59.634248 
L 63.809016 55.494584 
L 65.226012 59.148422 
L 66.643009 54.530418 
L 68.060006 59.434032 
L 69.477002 58.357616 
L 70.893999 56.592602 
L 72.310996 59.933889 
L 73.727992 59.217429 
L 75.144989 62.480232 
L 76.561985 63.061441 
L 77.978982 59.5875 
L 79.395979 61.126445 
L 80.812975 64.395523 
L 82.229972 62.654694 
L 83.646969 65.293246 
L 85.063965 61.16138 
L 86.480962 63.027161 
L 87.897959 64.41436 
L 89.314955 65.698078 
L 90.731952 63.865795 
L 92.148948 66.021321 
L 93.565945 66.466321 
L 94.982942 62.336393 
L 96.399938 65.799391 
L 97.816935 70.811656 
L 99.233932 68.277752 
L 100.650928 71.096068 
L 102.067925 71.06818 
L 103.484922 71.569545 
L 104.901918 71.918529 
L 106.318915 70.694909 
L 107.735911 70.794825 
L 109.152908 73.897322 
L 110.569905 72.698292 
L 111.986901 76.117001 
L 113.403898 73.73359 
L 114.820895 74.327124 
L 116.237891 75.624641 
L 117.654888 75.547129 
L 119.071885 74.551501 
L 120.488881 76.177439 
L 121.905878 74.347036 
L 123.322875 77.235091 
L 124.739871 77.316166 
" clip-path="url(#p0a5d0f19be)" style="fill: none; stroke: #808080; stroke-opacity: 0.3; stroke-width: 0.5; stroke-linecap: square"/>
   </g>
   <g id="line2d_3">
    <path d="M 12.797137 99.698451 
L 14.214133 96.344892 
L 15.63113 96.364849 
L 17.048127 95.664019 
L 18.465123 97.084227 
L 19.88212 95.659774 
L 21.299117 97.051082 
L 22.716113 95.414984 
L 24.13311 96.427693 
L 25.550106 95.001307 
L 26.967103 97.398847 
L 28.3841 94.358548 
L 29.801096 95.225477 
L 31.218093 97.463891 
L 32.63509 94.35438 
L 34.052086 96.913095 
L 35.469083 94.861945 
L 36.88608 94.861945 
L 38.303076 92.528679 
L 39.720073 92.467835 
L 41.137069 92.251604 
L 42.554066 91.974739 
L 43.971063 87.550579 
L 45.388059 83.692513 
L 46.805056 82.770807 
L 48.222053 80.772988 
L 49.639049 80.629459 
L 51.056046 79.209963 
L 52.473043 76.780506 
L 53.890039 79.180606 
L 55.307036 76.735036 
L 56.724033 77.89085 
L 58.141029 79.48921 
L 59.558026 73.139895 
L 60.975022 71.676322 
L 62.392019 69.505895 
L 63.809016 69.975347 
L 65.226012 74.124632 
L 66.643009 69.005063 
L 68.060006 71.386058 
L 69.477002 73.379176 
L 70.893999 72.744948 
L 72.310996 73.583512 
L 73.727992 72.687779 
L 75.144989 70.555768 
L 76.561985 74.240317 
L 77.978982 74.181917 
L 79.395979 74.03076 
L 80.812975 74.455865 
L 82.229972 76.517611 
L 83.646969 75.017106 
L 85.063965 75.757239 
L 86.480962 76.564451 
L 87.897959 76.696407 
L 89.314955 76.507099 
L 90.731952 77.66199 
L 92.148948 80.554263 
L 93.565945 77.261586 
L 94.982942 78.738481 
L 96.399938 80.683187 
L 97.816935 79.874799 
L 99.233932 78.212988 
L 100.650928 81.772007 
L 102.067925 82.712038 
L 103.484922 79.289049 
L 104.901918 82.635888 
L 106.318915 79.957673 
L 107.735911 83.434936 
L 109.152908 79.350353 
L 110.569905 82.189414 
L 111.986901 82.015206 
L 113.403898 85.040795 
L 114.820895 84.995405 
L 116.237891 84.377971 
L 117.654888 84.583299 
L 119.071885 84.650213 
L 120.488881 83.946716 
L 121.905878 84.825774 
L 123.322875 85.362044 
L 124.739871 83.739819 
" clip-path="url(#p0a5d0f19be)" style="fill: none; stroke: #808080; stroke-opacity: 0.3; stroke-width: 0.5; stroke-linecap: square"/>
   </g>
   <g id="line2d_4">
    <path d="M 12.797137 93.073617 
L 14.214133 93.626615 
L 15.63113 97.744 
L 17.048127 96.99826 
L 18.465123 94.734928 
L 19.88212 95.35177 
L 21.299117 93.853485 
L 22.716113 89.283279 
L 24.13311 93.941657 
L 25.550106 93.406838 
L 26.967103 95.178744 
L 28.3841 93.695413 
L 29.801096 93.865868 
L 31.218093 94.497157 
L 32.63509 94.888303 
L 34.052086 93.52274 
L 35.469083 93.318458 
L 36.88608 93.318458 
L 38.303076 94.996818 
L 39.720073 94.004381 
L 41.137069 94.085703 
L 42.554066 90.34132 
L 43.971063 85.698535 
L 45.388059 85.8811 
L 46.805056 85.785149 
L 48.222053 82.604671 
L 49.639049 82.427683 
L 51.056046 85.299214 
L 52.473043 84.371211 
L 53.890039 82.424702 
L 55.307036 85.743102 
L 56.724033 84.759888 
L 58.141029 79.801285 
L 59.558026 74.076424 
L 60.975022 71.670187 
L 62.392019 69.60431 
L 63.809016 68.86299 
L 65.226012 67.287199 
L 66.643009 68.919403 
L 68.060006 68.060717 
L 69.477002 73.763495 
L 70.893999 69.937038 
L 72.310996 73.515322 
L 73.727992 71.189378 
L 75.144989 72.061064 
L 76.561985 70.581243 
L 77.978982 71.878262 
L 79.395979 71.681347 
L 80.812975 73.91157 
L 82.229972 74.173714 
L 83.646969 74.799397 
L 85.063965 74.531447 
L 86.480962 75.631851 
L 87.897959 76.398306 
L 89.314955 75.609818 
L 90.731952 78.066982 
L 92.148948 78.737317 
L 93.565945 77.438538 
L 94.982942 79.977265 
L 96.399938 77.105115 
L 97.816935 78.739961 
L 99.233932 77.397991 
L 100.650928 79.133617 
L 102.067925 77.043614 
L 103.484922 79.628606 
L 104.901918 79.293601 
L 106.318915 79.283196 
L 107.735911 77.753573 
L 109.152908 80.48985 
L 110.569905 77.98309 
L 111.986901 82.32697 
L 113.403898 82.320707 
L 114.820895 80.799778 
L 116.237891 80.965696 
L 117.654888 84.623645 
L 119.071885 81.138926 
L 120.488881 84.857166 
L 121.905878 84.358998 
L 123.322875 81.629286 
L 124.739871 83.511761 
" clip-path="url(#p0a5d0f19be)" style="fill: none; stroke: #808080; stroke-opacity: 0.3; stroke-width: 0.5; stroke-linecap: square"/>
   </g>
   <g id="line2d_5">
    <path d="M 12.797137 88.927141 
L 14.214133 90.996258 
L 15.63113 90.713988 
L 17.048127 90.685362 
L 18.465123 89.550657 
L 19.88212 89.471152 
L 21.299117 92.181834 
L 22.716113 91.072126 
L 24.13311 89.71104 
L 25.550106 92.130872 
L 26.967103 90.913997 
L 28.3841 90.32762 
L 29.801096 90.394889 
L 31.218093 90.890859 
L 32.63509 93.109795 
L 34.052086 91.314282 
L 35.469083 92.576549 
L 36.88608 92.576549 
L 38.303076 94.74473 
L 39.720073 93.473548 
L 41.137069 93.751559 
L 42.554066 93.654433 
L 43.971063 88.265985 
L 45.388059 83.691607 
L 46.805056 82.52475 
L 48.222053 80.478279 
L 49.639049 83.018526 
L 51.056046 80.983206 
L 52.473043 80.360207 
L 53.890039 81.592734 
L 55.307036 81.907846 
L 56.724033 79.849899 
L 58.141029 78.48468 
L 59.558026 73.153035 
L 60.975022 68.020167 
L 62.392019 64.518591 
L 63.809016 65.362308 
L 65.226012 62.155899 
L 66.643009 64.278834 
L 68.060006 62.476962 
L 69.477002 63.495856 
L 70.893999 66.373667 
L 72.310996 63.16823 
L 73.727992 65.187293 
L 75.144989 65.288305 
L 76.561985 66.577908 
L 77.978982 64.036451 
L 79.395979 66.538093 
L 80.812975 68.376115 
L 82.229972 69.632481 
L 83.646969 68.883627 
L 85.063965 69.610937 
L 86.480962 68.275975 
L 87.897959 71.854125 
L 89.314955 67.950513 
L 90.731952 70.00081 
L 92.148948 68.738894 
L 93.565945 73.940256 
L 94.982942 68.083617 
L 96.399938 70.898472 
L 97.816935 69.481552 
L 99.233932 71.491434 
L 100.650928 71.051144 
L 102.067925 68.967045 
L 103.484922 71.48291 
L 104.901918 69.844936 
L 106.318915 72.851564 
L 107.735911 73.155064 
L 109.152908 75.05602 
L 110.569905 73.222402 
L 111.986901 73.151756 
L 113.403898 75.429211 
L 114.820895 76.132958 
L 116.237891 76.814849 
L 117.654888 74.820947 
L 119.071885 75.733277 
L 120.488881 77.788666 
L 121.905878 77.26735 
L 123.322875 76.960454 
L 124.739871 77.105358 
" clip-path="url(#p0a5d0f19be)" style="fill: none; stroke: #808080; stroke-opacity: 0.3; stroke-width: 0.5; stroke-linecap: square"/>
   </g>
   <g id="line2d_6">
    <path d="M 12.797137 88.968811 
L 14.214133 92.652302 
L 15.63113 93.849406 
L 17.048127 93.076167 
L 18.465123 92.765022 
L 19.88212 90.452449 
L 21.299117 88.718991 
L 22.716113 90.820581 
L 24.13311 93.454151 
L 25.550106 92.534314 
L 26.967103 90.325643 
L 28.3841 94.148838 
L 29.801096 91.214028 
L 31.218093 87.902638 
L 32.63509 90.524845 
L 34.052086 90.686512 
L 35.469083 92.467947 
L 36.88608 92.467947 
L 38.303076 92.825163 
L 39.720073 91.084643 
L 41.137069 93.947572 
L 42.554066 90.321709 
L 43.971063 89.509401 
L 45.388059 88.526263 
L 46.805056 88.665646 
L 48.222053 87.325474 
L 49.639049 88.217225 
L 51.056046 89.150601 
L 52.473043 90.94175 
L 53.890039 88.455826 
L 55.307036 88.86512 
L 56.724033 91.638892 
L 58.141029 88.046362 
L 59.558026 88.471457 
L 60.975022 88.642181 
L 62.392019 87.755153 
L 63.809016 87.293311 
L 65.226012 87.586222 
L 66.643009 87.242278 
L 68.060006 90.851889 
L 69.477002 86.248216 
L 70.893999 88.862317 
L 72.310996 89.41801 
L 73.727992 90.817082 
L 75.144989 88.686704 
L 76.561985 87.221847 
L 77.978982 87.938301 
L 79.395979 88.102103 
L 80.812975 91.543149 
L 82.229972 90.819508 
L 83.646969 89.097877 
L 85.063965 89.132082 
L 86.480962 91.133033 
L 87.897959 88.353359 
L 89.314955 87.421496 
L 90.731952 88.981291 
L 92.148948 91.482264 
L 93.565945 90.898624 
L 94.982942 91.988351 
L 96.399938 89.489037 
L 97.816935 90.550066 
L 99.233932 93.490853 
L 100.650928 89.82929 
L 102.067925 90.909835 
L 103.484922 90.15223 
L 104.901918 92.127462 
L 106.318915 90.683044 
L 107.735911 90.106616 
L 109.152908 90.844315 
L 110.569905 89.97844 
L 111.986901 90.474454 
L 113.403898 91.840817 
L 114.820895 89.675296 
L 116.237891 91.879439 
L 117.654888 92.676996 
L 119.071885 92.45422 
L 120.488881 90.778321 
L 121.905878 91.229903 
L 123.322875 90.342432 
L 124.739871 92.077693 
" clip-path="url(#p0a5d0f19be)" style="fill: none; stroke: #808080; stroke-opacity: 0.3; stroke-width: 0.5; stroke-linecap: square"/>
   </g>
   <g id="line2d_7">
    <path d="M 12.797137 93.512939 
L 14.214133 92.147698 
L 15.63113 93.916269 
L 17.048127 92.377364 
L 18.465123 92.31917 
L 19.88212 93.19555 
L 21.299117 93.747204 
L 22.716113 93.656651 
L 24.13311 93.571428 
L 25.550106 94.004325 
L 26.967103 92.083811 
L 28.3841 94.414586 
L 29.801096 90.649343 
L 31.218093 91.520114 
L 32.63509 90.326559 
L 34.052086 92.664158 
L 35.469083 92.595836 
L 36.88608 92.595836 
L 38.303076 94.891022 
L 39.720073 93.602395 
L 41.137069 92.448869 
L 42.554066 91.967959 
L 43.971063 90.379592 
L 45.388059 88.100722 
L 46.805056 86.315615 
L 48.222053 86.423426 
L 49.639049 83.803786 
L 51.056046 84.170438 
L 52.473043 85.556154 
L 53.890039 86.661991 
L 55.307036 87.070699 
L 56.724033 86.004672 
L 58.141029 84.91152 
L 59.558026 83.399495 
L 60.975022 77.974141 
L 62.392019 76.162958 
L 63.809016 76.74246 
L 65.226012 74.251788 
L 66.643009 78.181261 
L 68.060006 77.731694 
L 69.477002 76.213796 
L 70.893999 78.582135 
L 72.310996 77.906268 
L 73.727992 78.571229 
L 75.144989 78.175739 
L 76.561985 81.385257 
L 77.978982 75.82889 
L 79.395979 79.645732 
L 80.812975 80.154491 
L 82.229972 78.673626 
L 83.646969 81.809777 
L 85.063965 80.01709 
L 86.480962 82.618368 
L 87.897959 79.093193 
L 89.314955 81.328765 
L 90.731952 79.140902 
L 92.148948 81.312243 
L 93.565945 83.644392 
L 94.982942 82.86304 
L 96.399938 81.688921 
L 97.816935 84.662167 
L 99.233932 84.378526 
L 100.650928 83.504331 
L 102.067925 83.252705 
L 103.484922 84.525592 
L 104.901918 81.898004 
L 106.318915 83.804857 
L 107.735911 83.018388 
L 109.152908 85.437257 
L 110.569905 83.628996 
L 111.986901 85.86373 
L 113.403898 85.968863 
L 114.820895 85.551134 
L 116.237891 85.514009 
L 117.654888 83.683385 
L 119.071885 85.697029 
L 120.488881 84.769208 
L 121.905878 87.199452 
L 123.322875 86.747076 
L 124.739871 88.389946 
" clip-path="url(#p0a5d0f19be)" style="fill: none; stroke: #808080; stroke-opacity: 0.3; stroke-width: 0.5; stroke-linecap: square"/>
   </g>
   <g id="line2d_8">
    <path d="M 12.797137 93.226709 
L 14.214133 93.474273 
L 15.63113 91.79947 
L 17.048127 92.903694 
L 18.465123 91.026793 
L 19.88212 92.270075 
L 21.299117 92.930207 
L 22.716113 94.817908 
L 24.13311 91.384933 
L 25.550106 96.093724 
L 26.967103 92.676886 
L 28.3841 94.634032 
L 29.801096 93.165289 
L 31.218093 91.186417 
L 32.63509 92.500406 
L 34.052086 90.411356 
L 35.469083 93.837829 
L 36.88608 93.837829 
L 38.303076 91.837532 
L 39.720073 93.101087 
L 41.137069 92.132644 
L 42.554066 93.576462 
L 43.971063 86.490599 
L 45.388059 85.282794 
L 46.805056 84.065694 
L 48.222053 85.692997 
L 49.639049 82.518305 
L 51.056046 82.562889 
L 52.473043 83.794597 
L 53.890039 82.100543 
L 55.307036 80.072203 
L 56.724033 80.839026 
L 58.141029 82.640136 
L 59.558026 80.450718 
L 60.975022 75.127391 
L 62.392019 72.030667 
L 63.809016 75.291903 
L 65.226012 70.236542 
L 66.643009 69.883146 
L 68.060006 68.33029 
L 69.477002 69.585008 
L 70.893999 71.603984 
L 72.310996 71.538377 
L 73.727992 72.076151 
L 75.144989 71.067734 
L 76.561985 71.050545 
L 77.978982 74.084658 
L 79.395979 74.414246 
L 80.812975 73.19422 
L 82.229972 71.834203 
L 83.646969 74.725706 
L 85.063965 74.449702 
L 86.480962 72.94264 
L 87.897959 78.008415 
L 89.314955 73.973473 
L 90.731952 76.466971 
L 92.148948 74.587005 
L 93.565945 77.805119 
L 94.982942 78.771717 
L 96.399938 77.783306 
L 97.816935 76.98049 
L 99.233932 78.373032 
L 100.650928 78.009465 
L 102.067925 77.908908 
L 103.484922 80.828015 
L 104.901918 80.647788 
L 106.318915 77.364618 
L 107.735911 82.126847 
L 109.152908 80.317271 
L 110.569905 80.420293 
L 111.986901 77.947821 
L 113.403898 82.275065 
L 114.820895 80.374655 
L 116.237891 81.909789 
L 117.654888 84.01526 
L 119.071885 83.635194 
L 120.488881 83.206479 
L 121.905878 84.551057 
L 123.322875 82.879543 
L 124.739871 82.903308 
" clip-path="url(#p0a5d0f19be)" style="fill: none; stroke: #808080; stroke-opacity: 0.3; stroke-width: 0.5; stroke-linecap: square"/>
   </g>
   <g id="line2d_9">
    <path d="M 12.797137 94.518723 
L 14.214133 93.116283 
L 15.63113 90.988201 
L 17.048127 90.674332 
L 18.465123 94.989563 
L 19.88212 93.034196 
L 21.299117 89.998264 
L 22.716113 91.590431 
L 24.13311 94.259207 
L 25.550106 93.417504 
L 26.967103 93.973653 
L 28.3841 93.260188 
L 29.801096 93.510919 
L 31.218093 93.702922 
L 32.63509 93.868863 
L 34.052086 93.436539 
L 35.469083 92.51606 
L 36.88608 92.51606 
L 38.303076 93.090865 
L 39.720073 95.430584 
L 41.137069 93.998645 
L 42.554066 94.136842 
L 43.971063 91.76255 
L 45.388059 89.710939 
L 46.805056 87.550167 
L 48.222053 86.960513 
L 49.639049 88.771191 
L 51.056046 87.162129 
L 52.473043 89.069532 
L 53.890039 90.603327 
L 55.307036 88.602302 
L 56.724033 88.04123 
L 58.141029 90.095558 
L 59.558026 87.088011 
L 60.975022 82.83635 
L 62.392019 77.86945 
L 63.809016 68.538461 
L 65.226012 64.311434 
L 66.643009 59.567013 
L 68.060006 58.418782 
L 69.477002 57.516817 
L 70.893999 59.356228 
L 72.310996 60.815659 
L 73.727992 61.332681 
L 75.144989 57.643547 
L 76.561985 59.782708 
L 77.978982 62.384019 
L 79.395979 58.108478 
L 80.812975 60.704262 
L 82.229972 60.148128 
L 83.646969 61.712084 
L 85.063965 62.534674 
L 86.480962 62.830248 
L 87.897959 63.555562 
L 89.314955 64.490685 
L 90.731952 65.154891 
L 92.148948 64.96526 
L 93.565945 63.49222 
L 94.982942 66.856992 
L 96.399938 67.548351 
L 97.816935 67.272276 
L 99.233932 69.49456 
L 100.650928 69.954953 
L 102.067925 69.913994 
L 103.484922 70.294566 
L 104.901918 70.675286 
L 106.318915 70.539612 
L 107.735911 70.048703 
L 109.152908 73.101068 
L 110.569905 72.059764 
L 111.986901 73.408798 
L 113.403898 74.028302 
L 114.820895 72.666599 
L 116.237891 72.032106 
L 117.654888 73.521573 
L 119.071885 72.703977 
L 120.488881 76.354342 
L 121.905878 77.536436 
L 123.322875 74.738141 
L 124.739871 73.983023 
" clip-path="url(#p0a5d0f19be)" style="fill: none; stroke: #808080; stroke-opacity: 0.3; stroke-width: 0.5; stroke-linecap: square"/>
   </g>
   <g id="line2d_10">
    <path d="M 12.797137 96.516385 
L 14.214133 96.458792 
L 15.63113 96.411307 
L 17.048127 96.304485 
L 18.465123 95.674732 
L 19.88212 96.104237 
L 21.299117 94.918177 
L 22.716113 95.888956 
L 24.13311 94.529105 
L 25.550106 96.335936 
L 26.967103 92.496496 
L 28.3841 95.82913 
L 29.801096 92.97105 
L 31.218093 94.310412 
L 32.63509 92.950033 
L 34.052086 94.902785 
L 35.469083 93.525732 
L 36.88608 93.525732 
L 38.303076 90.564048 
L 39.720073 90.329993 
L 41.137069 92.399192 
L 42.554066 92.03723 
L 43.971063 85.531967 
L 45.388059 83.725774 
L 46.805056 82.688403 
L 48.222053 82.348459 
L 49.639049 81.106243 
L 51.056046 82.30724 
L 52.473043 81.943322 
L 53.890039 81.958535 
L 55.307036 82.628778 
L 56.724033 79.917238 
L 58.141029 76.478214 
L 59.558026 72.841168 
L 60.975022 70.063126 
L 62.392019 67.870098 
L 63.809016 65.994777 
L 65.226012 64.248783 
L 66.643009 64.805048 
L 68.060006 66.319799 
L 69.477002 67.473048 
L 70.893999 68.144829 
L 72.310996 65.192162 
L 73.727992 63.409457 
L 75.144989 71.701318 
L 76.561985 67.748121 
L 77.978982 69.736025 
L 79.395979 69.782329 
L 80.812975 69.905582 
L 82.229972 73.264104 
L 83.646969 70.824753 
L 85.063965 72.113122 
L 86.480962 72.342206 
L 87.897959 73.552909 
L 89.314955 75.018782 
L 90.731952 75.347428 
L 92.148948 76.030528 
L 93.565945 73.697707 
L 94.982942 73.274576 
L 96.399938 76.039425 
L 97.816935 75.432803 
L 99.233932 76.512774 
L 100.650928 77.320957 
L 102.067925 76.797242 
L 103.484922 78.362389 
L 104.901918 78.39836 
L 106.318915 78.946476 
L 107.735911 79.430457 
L 109.152908 79.083242 
L 110.569905 77.656987 
L 111.986901 79.536009 
L 113.403898 79.510516 
L 114.820895 78.817511 
L 116.237891 80.491109 
L 117.654888 79.542724 
L 119.071885 80.388391 
L 120.488881 81.934812 
L 121.905878 83.493064 
L 123.322875 82.448657 
L 124.739871 83.388885 
" clip-path="url(#p0a5d0f19be)" style="fill: none; stroke: #808080; stroke-opacity: 0.3; stroke-width: 0.5; stroke-linecap: square"/>
   </g>
   <g id="line2d_11">
    <path d="M 12.797137 93.704765 
L 14.214133 91.104529 
L 15.63113 92.958682 
L 17.048127 92.515874 
L 18.465123 92.859026 
L 19.88212 92.637131 
L 21.299117 93.718305 
L 22.716113 93.720297 
L 24.13311 92.40382 
L 25.550106 89.674643 
L 26.967103 91.663985 
L 28.3841 93.607911 
L 29.801096 93.321189 
L 31.218093 89.717654 
L 32.63509 93.324622 
L 34.052086 90.959461 
L 35.469083 93.384841 
L 36.88608 93.384841 
L 38.303076 93.820832 
L 39.720073 93.783171 
L 41.137069 92.509798 
L 42.554066 91.12488 
L 43.971063 90.089384 
L 45.388059 90.204923 
L 46.805056 89.526409 
L 48.222053 87.213994 
L 49.639049 87.576062 
L 51.056046 88.40655 
L 52.473043 89.723595 
L 53.890039 88.981341 
L 55.307036 88.132897 
L 56.724033 90.434089 
L 58.141029 89.140321 
L 59.558026 89.096695 
L 60.975022 86.299 
L 62.392019 84.086341 
L 63.809016 84.860795 
L 65.226012 83.917544 
L 66.643009 82.502203 
L 68.060006 84.321309 
L 69.477002 83.841729 
L 70.893999 85.723023 
L 72.310996 84.235799 
L 73.727992 83.550504 
L 75.144989 85.018623 
L 76.561985 85.179593 
L 77.978982 85.302389 
L 79.395979 83.312702 
L 80.812975 84.345687 
L 82.229972 89.550825 
L 83.646969 84.53836 
L 85.063965 85.175801 
L 86.480962 86.234205 
L 87.897959 86.21132 
L 89.314955 84.66739 
L 90.731952 86.59342 
L 92.148948 84.638527 
L 93.565945 86.377125 
L 94.982942 85.79631 
L 96.399938 84.84579 
L 97.816935 84.647996 
L 99.233932 86.700282 
L 100.650928 85.615891 
L 102.067925 85.657261 
L 103.484922 86.427631 
L 104.901918 88.713841 
L 106.318915 86.925354 
L 107.735911 88.503504 
L 109.152908 88.876465 
L 110.569905 89.552964 
L 111.986901 90.404126 
L 113.403898 85.817273 
L 114.820895 86.584192 
L 116.237891 89.8352 
L 117.654888 88.279149 
L 119.071885 85.768716 
L 120.488881 84.836487 
L 121.905878 87.204158 
L 123.322875 85.357604 
L 124.739871 86.617195 
" clip-path="url(#p0a5d0f19be)" style="fill: none; stroke: #808080; stroke-opacity: 0.3; stroke-width: 0.5; stroke-linecap: square"/>
   </g>
   <g id="line2d_12">
    <path d="M 12.797137 94.947212 
L 14.214133 94.523757 
L 15.63113 92.776289 
L 17.048127 93.996305 
L 18.465123 93.883996 
L 19.88212 94.60309 
L 21.299117 95.343478 
L 22.716113 96.213449 
L 24.13311 91.650443 
L 25.550106 94.687731 
L 26.967103 95.895629 
L 28.3841 94.901887 
L 29.801096 93.961389 
L 31.218093 92.821533 
L 32.63509 94.221723 
L 34.052086 94.664531 
L 35.469083 95.582586 
L 36.88608 95.582586 
L 38.303076 93.475608 
L 39.720073 94.91109 
L 41.137069 93.025794 
L 42.554066 92.937736 
L 43.971063 93.159944 
L 45.388059 92.399235 
L 46.805056 92.813813 
L 48.222053 92.747228 
L 49.639049 92.934287 
L 51.056046 93.602653 
L 52.473043 92.413085 
L 53.890039 92.499083 
L 55.307036 92.677717 
L 56.724033 91.394278 
L 58.141029 94.066467 
L 59.558026 92.515071 
L 60.975022 92.669235 
L 62.392019 92.86809 
L 63.809016 91.941881 
L 65.226012 94.113824 
L 66.643009 92.595815 
L 68.060006 94.448844 
L 69.477002 91.948577 
L 70.893999 90.240962 
L 72.310996 91.367084 
L 73.727992 93.860195 
L 75.144989 94.727957 
L 76.561985 90.763552 
L 77.978982 92.26912 
L 79.395979 94.318365 
L 80.812975 93.581975 
L 82.229972 91.521717 
L 83.646969 93.60626 
L 85.063965 94.723214 
L 86.480962 93.837459 
L 87.897959 92.430464 
L 89.314955 94.593381 
L 90.731952 92.969905 
L 92.148948 91.955812 
L 93.565945 94.981603 
L 94.982942 92.947631 
L 96.399938 93.267399 
L 97.816935 90.548368 
L 99.233932 93.628519 
L 100.650928 95.492732 
L 102.067925 94.697367 
L 103.484922 95.112468 
L 104.901918 92.499348 
L 106.318915 93.262007 
L 107.735911 93.179813 
L 109.152908 95.413179 
L 110.569905 93.576977 
L 111.986901 94.517493 
L 113.403898 96.121536 
L 114.820895 93.25742 
L 116.237891 91.479181 
L 117.654888 93.20515 
L 119.071885 91.671114 
L 120.488881 92.464186 
L 121.905878 92.121717 
L 123.322875 93.244268 
L 124.739871 95.367863 
" clip-path="url(#p0a5d0f19be)" style="fill: none; stroke: #808080; stroke-opacity: 0.3; stroke-width: 0.5; stroke-linecap: square"/>
   </g>
   <g id="line2d_13">
    <path d="M 12.797137 90.64654 
L 14.214133 89.897442 
L 15.63113 88.392968 
L 17.048127 89.805748 
L 18.465123 89.353482 
L 19.88212 89.960851 
L 21.299117 91.140688 
L 22.716113 90.943868 
L 24.13311 90.788462 
L 25.550106 89.392913 
L 26.967103 90.258588 
L 28.3841 90.614008 
L 29.801096 88.623154 
L 31.218093 89.709254 
L 32.63509 90.774782 
L 34.052086 90.671395 
L 35.469083 91.580096 
L 36.88608 91.580096 
L 38.303076 92.036915 
L 39.720073 94.231059 
L 41.137069 95.810277 
L 42.554066 95.541173 
L 43.971063 92.910794 
L 45.388059 94.984244 
L 46.805056 92.645353 
L 48.222053 93.941104 
L 49.639049 91.815174 
L 51.056046 94.147584 
L 52.473043 95.185436 
L 53.890039 92.254267 
L 55.307036 92.680144 
L 56.724033 92.416899 
L 58.141029 94.388076 
L 59.558026 94.259528 
L 60.975022 91.338712 
L 62.392019 93.787939 
L 63.809016 93.232284 
L 65.226012 92.976737 
L 66.643009 91.206153 
L 68.060006 95.257297 
L 69.477002 90.354666 
L 70.893999 92.94233 
L 72.310996 91.986133 
L 73.727992 95.023482 
L 75.144989 93.755505 
L 76.561985 91.84431 
L 77.978982 94.376911 
L 79.395979 94.54924 
L 80.812975 91.446487 
L 82.229972 92.626497 
L 83.646969 94.826079 
L 85.063965 94.177674 
L 86.480962 93.63978 
L 87.897959 96.344391 
L 89.314955 94.490188 
L 90.731952 92.49371 
L 92.148948 92.225267 
L 93.565945 95.758075 
L 94.982942 93.424607 
L 96.399938 93.747191 
L 97.816935 94.222222 
L 99.233932 94.279154 
L 100.650928 95.226946 
L 102.067925 92.985643 
L 103.484922 94.500935 
L 104.901918 95.151702 
L 106.318915 94.184189 
L 107.735911 94.438218 
L 109.152908 93.132914 
L 110.569905 95.358314 
L 111.986901 94.464153 
L 113.403898 93.899888 
L 114.820895 96.434315 
L 116.237891 95.082922 
L 117.654888 93.839356 
L 119.071885 92.042913 
L 120.488881 94.228145 
L 121.905878 95.888766 
L 123.322875 95.13439 
L 124.739871 94.800841 
" clip-path="url(#p0a5d0f19be)" style="fill: none; stroke: #808080; stroke-opacity: 0.3; stroke-width: 0.5; stroke-linecap: square"/>
   </g>
   <g id="line2d_14">
    <path d="M 12.797137 89.534239 
L 14.214133 89.558858 
L 15.63113 91.084912 
L 17.048127 89.32949 
L 18.465123 88.526639 
L 19.88212 90.396325 
L 21.299117 89.956296 
L 22.716113 88.586836 
L 24.13311 89.104518 
L 25.550106 89.294514 
L 26.967103 88.496784 
L 28.3841 91.055371 
L 29.801096 88.626313 
L 31.218093 88.18232 
L 32.63509 88.292036 
L 34.052086 87.186444 
L 35.469083 92.015074 
L 36.88608 92.015074 
L 38.303076 91.522351 
L 39.720073 92.938636 
L 41.137069 94.11498 
L 42.554066 93.904214 
L 43.971063 91.640219 
L 45.388059 88.53688 
L 46.805056 91.514468 
L 48.222053 91.011158 
L 49.639049 95.26772 
L 51.056046 91.16308 
L 52.473043 90.411247 
L 53.890039 91.202888 
L 55.307036 93.517093 
L 56.724033 92.072423 
L 58.141029 92.321687 
L 59.558026 93.451417 
L 60.975022 90.808621 
L 62.392019 92.340804 
L 63.809016 91.842507 
L 65.226012 91.84301 
L 66.643009 93.287064 
L 68.060006 93.070582 
L 69.477002 94.762145 
L 70.893999 94.701697 
L 72.310996 92.160199 
L 73.727992 93.499821 
L 75.144989 90.48824 
L 76.561985 92.904463 
L 77.978982 91.843358 
L 79.395979 92.762659 
L 80.812975 94.67844 
L 82.229972 95.058222 
L 83.646969 93.371064 
L 85.063965 92.448575 
L 86.480962 94.696197 
L 87.897959 93.65283 
L 89.314955 93.633228 
L 90.731952 92.580483 
L 92.148948 94.394452 
L 93.565945 93.409426 
L 94.982942 92.976499 
L 96.399938 93.530661 
L 97.816935 96.104329 
L 99.233932 94.31043 
L 100.650928 94.651561 
L 102.067925 91.793794 
L 103.484922 95.445062 
L 104.901918 94.169515 
L 106.318915 92.058952 
L 107.735911 94.59295 
L 109.152908 93.585014 
L 110.569905 96.052728 
L 111.986901 95.122496 
L 113.403898 94.888912 
L 114.820895 94.269436 
L 116.237891 93.420576 
L 117.654888 91.817934 
L 119.071885 94.173111 
L 120.488881 93.472706 
L 121.905878 94.104492 
L 123.322875 94.808749 
L 124.739871 94.878441 
" clip-path="url(#p0a5d0f19be)" style="fill: none; stroke: #808080; stroke-opacity: 0.3; stroke-width: 0.5; stroke-linecap: square"/>
   </g>
   <g id="line2d_15">
    <path d="M 12.797137 87.588022 
L 14.214133 91.228975 
L 15.63113 90.606653 
L 17.048127 90.129219 
L 18.465123 90.906553 
L 19.88212 91.133267 
L 21.299117 87.983609 
L 22.716113 90.484496 
L 24.13311 91.776933 
L 25.550106 89.398669 
L 26.967103 92.360027 
L 28.3841 90.016295 
L 29.801096 90.199148 
L 31.218093 91.460592 
L 32.63509 92.726832 
L 34.052086 92.993094 
L 35.469083 92.235985 
L 36.88608 92.235985 
L 38.303076 93.600091 
L 39.720073 92.150055 
L 41.137069 93.995405 
L 42.554066 92.383434 
L 43.971063 92.781332 
L 45.388059 91.323137 
L 46.805056 93.984502 
L 48.222053 91.202649 
L 49.639049 91.991571 
L 51.056046 90.700246 
L 52.473043 90.73286 
L 53.890039 90.93655 
L 55.307036 91.415478 
L 56.724033 89.915481 
L 58.141029 90.001971 
L 59.558026 89.889705 
L 60.975022 90.863879 
L 62.392019 91.588973 
L 63.809016 93.402413 
L 65.226012 92.241388 
L 66.643009 89.714042 
L 68.060006 94.299261 
L 69.477002 92.508779 
L 70.893999 92.075855 
L 72.310996 91.377591 
L 73.727992 94.623596 
L 75.144989 92.270363 
L 76.561985 92.952287 
L 77.978982 92.609313 
L 79.395979 91.539288 
L 80.812975 94.041936 
L 82.229972 91.393351 
L 83.646969 92.575363 
L 85.063965 95.390699 
L 86.480962 90.899813 
L 87.897959 92.087308 
L 89.314955 91.100776 
L 90.731952 92.165527 
L 92.148948 94.515613 
L 93.565945 93.554629 
L 94.982942 94.361493 
L 96.399938 92.486096 
L 97.816935 93.055378 
L 99.233932 95.013035 
L 100.650928 93.608627 
L 102.067925 95.098656 
L 103.484922 93.594992 
L 104.901918 95.532558 
L 106.318915 95.260854 
L 107.735911 93.604038 
L 109.152908 94.551131 
L 110.569905 94.250193 
L 111.986901 94.412011 
L 113.403898 92.788548 
L 114.820895 95.124551 
L 116.237891 93.869259 
L 117.654888 94.910231 
L 119.071885 94.380313 
L 120.488881 95.416243 
L 121.905878 92.732481 
L 123.322875 94.443584 
L 124.739871 95.076235 
" clip-path="url(#p0a5d0f19be)" style="fill: none; stroke: #808080; stroke-opacity: 0.3; stroke-width: 0.5; stroke-linecap: square"/>
   </g>
   <g id="line2d_16">
    <path d="M 12.797137 91.201402 
L 14.214133 91.305377 
L 15.63113 91.532487 
L 17.048127 91.560057 
L 18.465123 90.312294 
L 19.88212 90.13121 
L 21.299117 90.755516 
L 22.716113 90.836574 
L 24.13311 90.650217 
L 25.550106 91.672239 
L 26.967103 91.46811 
L 28.3841 89.607252 
L 29.801096 90.832394 
L 31.218093 94.118456 
L 32.63509 92.504305 
L 34.052086 91.267816 
L 35.469083 90.622144 
L 36.88608 90.622144 
L 38.303076 93.516112 
L 39.720073 92.733548 
L 41.137069 93.725394 
L 42.554066 93.563211 
L 43.971063 91.742563 
L 45.388059 92.922805 
L 46.805056 92.950446 
L 48.222053 93.061043 
L 49.639049 92.151515 
L 51.056046 93.066393 
L 52.473043 93.101457 
L 53.890039 91.435757 
L 55.307036 92.53561 
L 56.724033 91.997801 
L 58.141029 91.072437 
L 59.558026 91.882949 
L 60.975022 92.437595 
L 62.392019 90.87907 
L 63.809016 92.209965 
L 65.226012 90.385527 
L 66.643009 90.912764 
L 68.060006 90.187804 
L 69.477002 91.336142 
L 70.893999 90.999902 
L 72.310996 91.34249 
L 73.727992 92.842188 
L 75.144989 91.943887 
L 76.561985 90.726644 
L 77.978982 92.854104 
L 79.395979 91.890692 
L 80.812975 91.123234 
L 82.229972 92.362415 
L 83.646969 92.801313 
L 85.063965 92.409101 
L 86.480962 94.201485 
L 87.897959 92.322161 
L 89.314955 94.243828 
L 90.731952 93.079581 
L 92.148948 91.431297 
L 93.565945 92.094894 
L 94.982942 91.506306 
L 96.399938 92.095599 
L 97.816935 91.521181 
L 99.233932 91.717724 
L 100.650928 93.685474 
L 102.067925 92.410871 
L 103.484922 91.047812 
L 104.901918 92.351079 
L 106.318915 90.905846 
L 107.735911 89.675486 
L 109.152908 90.835182 
L 110.569905 91.229236 
L 111.986901 91.14779 
L 113.403898 91.171852 
L 114.820895 90.292724 
L 116.237891 90.205157 
L 117.654888 92.344343 
L 119.071885 89.806402 
L 120.488881 90.490903 
L 121.905878 91.045818 
L 123.322875 91.071798 
L 124.739871 92.300732 
" clip-path="url(#p0a5d0f19be)" style="fill: none; stroke: #808080; stroke-opacity: 0.3; stroke-width: 0.5; stroke-linecap: square"/>
   </g>
   <g id="line2d_17">
    <path d="M 12.797137 93.947925 
L 14.214133 90.992484 
L 15.63113 91.847211 
L 17.048127 91.950018 
L 18.465123 91.671152 
L 19.88212 92.438779 
L 21.299117 91.65679 
L 22.716113 91.85505 
L 24.13311 90.142845 
L 25.550106 92.215195 
L 26.967103 92.97775 
L 28.3841 94.184812 
L 29.801096 91.240539 
L 31.218093 91.252676 
L 32.63509 92.706239 
L 34.052086 92.646081 
L 35.469083 91.201792 
L 36.88608 91.201792 
L 38.303076 95.249293 
L 39.720073 93.355497 
L 41.137069 93.890814 
L 42.554066 90.64293 
L 43.971063 89.574854 
L 45.388059 90.882348 
L 46.805056 90.204606 
L 48.222053 91.008978 
L 49.639049 91.698291 
L 51.056046 92.929425 
L 52.473043 89.601622 
L 53.890039 91.861036 
L 55.307036 89.736647 
L 56.724033 91.15734 
L 58.141029 93.285189 
L 59.558026 92.377591 
L 60.975022 91.687014 
L 62.392019 90.958662 
L 63.809016 91.185266 
L 65.226012 90.94331 
L 66.643009 89.873683 
L 68.060006 91.35728 
L 69.477002 93.657824 
L 70.893999 89.26857 
L 72.310996 91.333518 
L 73.727992 89.652102 
L 75.144989 92.249954 
L 76.561985 89.413058 
L 77.978982 92.647189 
L 79.395979 90.084883 
L 80.812975 91.606353 
L 82.229972 89.155434 
L 83.646969 91.438562 
L 85.063965 92.77145 
L 86.480962 90.453509 
L 87.897959 92.344076 
L 89.314955 92.767781 
L 90.731952 92.914551 
L 92.148948 91.420953 
L 93.565945 91.566701 
L 94.982942 90.89585 
L 96.399938 92.512437 
L 97.816935 91.771315 
L 99.233932 92.576729 
L 100.650928 92.727442 
L 102.067925 93.991984 
L 103.484922 93.123739 
L 104.901918 92.714174 
L 106.318915 91.158788 
L 107.735911 91.898802 
L 109.152908 93.059703 
L 110.569905 94.188826 
L 111.986901 91.491834 
L 113.403898 93.402194 
L 114.820895 90.934077 
L 116.237891 92.817864 
L 117.654888 93.146737 
L 119.071885 91.695949 
L 120.488881 92.918288 
L 121.905878 91.583416 
L 123.322875 90.793146 
L 124.739871 89.799847 
" clip-path="url(#p0a5d0f19be)" style="fill: none; stroke: #808080; stroke-opacity: 0.3; stroke-width: 0.5; stroke-linecap: square"/>
   </g>
   <g id="line2d_18">
    <path d="M 12.797137 92.921666 
L 14.214133 94.288555 
L 15.63113 95.471777 
L 17.048127 94.220335 
L 18.465123 94.741988 
L 19.88212 93.213488 
L 21.299117 92.571377 
L 22.716113 92.911603 
L 24.13311 91.823285 
L 25.550106 94.470949 
L 26.967103 91.180411 
L 28.3841 94.668637 
L 29.801096 89.896785 
L 31.218093 91.566846 
L 32.63509 94.059261 
L 34.052086 92.034334 
L 35.469083 90.919409 
L 36.88608 90.919409 
L 38.303076 92.540329 
L 39.720073 93.82105 
L 41.137069 93.11414 
L 42.554066 93.653861 
L 43.971063 92.789506 
L 45.388059 93.85392 
L 46.805056 90.486277 
L 48.222053 93.63077 
L 49.639049 91.949219 
L 51.056046 94.597524 
L 52.473043 93.836176 
L 53.890039 92.128157 
L 55.307036 93.637819 
L 56.724033 92.412077 
L 58.141029 91.456791 
L 59.558026 92.091637 
L 60.975022 94.555684 
L 62.392019 92.739028 
L 63.809016 90.704694 
L 65.226012 94.632031 
L 66.643009 93.517346 
L 68.060006 93.862877 
L 69.477002 94.330784 
L 70.893999 93.940603 
L 72.310996 94.625456 
L 73.727992 92.026983 
L 75.144989 93.389537 
L 76.561985 93.5691 
L 77.978982 95.541828 
L 79.395979 93.550753 
L 80.812975 95.609233 
L 82.229972 94.818563 
L 83.646969 95.855276 
L 85.063965 94.66705 
L 86.480962 94.498367 
L 87.897959 96.199391 
L 89.314955 95.426578 
L 90.731952 94.108542 
L 92.148948 95.905706 
L 93.565945 94.725396 
L 94.982942 97.972033 
L 96.399938 97.173053 
L 97.816935 96.112857 
L 99.233932 98.873867 
L 100.650928 96.756253 
L 102.067925 96.01267 
L 103.484922 95.542775 
L 104.901918 96.05788 
L 106.318915 95.130849 
L 107.735911 97.229827 
L 109.152908 98.890039 
L 110.569905 97.456093 
L 111.986901 97.605549 
L 113.403898 97.493154 
L 114.820895 98.695929 
L 116.237891 95.768545 
L 117.654888 95.330881 
L 119.071885 98.020607 
L 120.488881 95.810879 
L 121.905878 98.210193 
L 123.322875 98.428131 
L 124.739871 97.547039 
" clip-path="url(#p0a5d0f19be)" style="fill: none; stroke: #808080; stroke-opacity: 0.3; stroke-width: 0.5; stroke-linecap: square"/>
   </g>
   <g id="line2d_19">
    <path d="M 12.797137 91.818318 
L 14.214133 93.006939 
L 15.63113 93.884718 
L 17.048127 95.641335 
L 18.465123 92.586262 
L 19.88212 92.459572 
L 21.299117 91.615875 
L 22.716113 90.058993 
L 24.13311 94.601109 
L 25.550106 96.849411 
L 26.967103 93.43947 
L 28.3841 93.629728 
L 29.801096 91.833099 
L 31.218093 93.170227 
L 32.63509 95.135514 
L 34.052086 93.600528 
L 35.469083 92.988037 
L 36.88608 92.988037 
L 38.303076 92.863687 
L 39.720073 92.99055 
L 41.137069 93.148807 
L 42.554066 93.230013 
L 43.971063 88.296892 
L 45.388059 88.996864 
L 46.805056 91.294918 
L 48.222053 90.994293 
L 49.639049 90.84112 
L 51.056046 90.537533 
L 52.473043 89.556715 
L 53.890039 91.742651 
L 55.307036 90.212374 
L 56.724033 89.709386 
L 58.141029 89.917947 
L 59.558026 87.444089 
L 60.975022 89.139508 
L 62.392019 90.122366 
L 63.809016 88.332349 
L 65.226012 89.465435 
L 66.643009 88.039152 
L 68.060006 88.22952 
L 69.477002 87.662028 
L 70.893999 90.169651 
L 72.310996 89.976923 
L 73.727992 90.599157 
L 75.144989 89.518131 
L 76.561985 89.880117 
L 77.978982 89.321128 
L 79.395979 88.069841 
L 80.812975 88.741737 
L 82.229972 86.77535 
L 83.646969 91.911048 
L 85.063965 89.334063 
L 86.480962 92.054528 
L 87.897959 89.59694 
L 89.314955 89.704623 
L 90.731952 92.056596 
L 92.148948 88.060728 
L 93.565945 89.698458 
L 94.982942 90.70428 
L 96.399938 90.436324 
L 97.816935 89.608852 
L 99.233932 90.084152 
L 100.650928 92.301157 
L 102.067925 90.135101 
L 103.484922 89.185921 
L 104.901918 92.986881 
L 106.318915 93.2487 
L 107.735911 90.308907 
L 109.152908 92.711619 
L 110.569905 91.87938 
L 111.986901 88.85088 
L 113.403898 91.305341 
L 114.820895 89.521413 
L 116.237891 92.479532 
L 117.654888 91.490344 
L 119.071885 92.659424 
L 120.488881 92.22301 
L 121.905878 92.596194 
L 123.322875 91.107543 
L 124.739871 89.619075 
" clip-path="url(#p0a5d0f19be)" style="fill: none; stroke: #808080; stroke-opacity: 0.3; stroke-width: 0.5; stroke-linecap: square"/>
   </g>
   <g id="line2d_20">
    <path d="M 12.797137 91.273594 
L 14.214133 90.394644 
L 15.63113 90.86058 
L 17.048127 89.30693 
L 18.465123 93.205748 
L 19.88212 91.97053 
L 21.299117 89.700912 
L 22.716113 90.849453 
L 24.13311 90.827732 
L 25.550106 91.659258 
L 26.967103 89.585607 
L 28.3841 91.131491 
L 29.801096 90.981178 
L 31.218093 91.802542 
L 32.63509 90.376538 
L 34.052086 93.949494 
L 35.469083 91.334922 
L 36.88608 91.334922 
L 38.303076 90.860989 
L 39.720073 93.015673 
L 41.137069 93.48836 
L 42.554066 91.691863 
L 43.971063 92.543917 
L 45.388059 90.054061 
L 46.805056 91.374898 
L 48.222053 93.852262 
L 49.639049 91.836602 
L 51.056046 90.714041 
L 52.473043 92.464278 
L 53.890039 90.751786 
L 55.307036 90.719403 
L 56.724033 92.169704 
L 58.141029 91.085728 
L 59.558026 91.35454 
L 60.975022 90.203337 
L 62.392019 92.177967 
L 63.809016 90.704576 
L 65.226012 91.779195 
L 66.643009 93.308847 
L 68.060006 90.740028 
L 69.477002 90.28172 
L 70.893999 90.19429 
L 72.310996 91.224319 
L 73.727992 94.017868 
L 75.144989 91.978261 
L 76.561985 91.754147 
L 77.978982 89.874738 
L 79.395979 90.666771 
L 80.812975 90.978933 
L 82.229972 90.774188 
L 83.646969 92.291418 
L 85.063965 91.305558 
L 86.480962 91.293298 
L 87.897959 93.156154 
L 89.314955 90.445807 
L 90.731952 91.363505 
L 92.148948 91.842199 
L 93.565945 91.35339 
L 94.982942 92.465359 
L 96.399938 91.865958 
L 97.816935 90.327179 
L 99.233932 90.102252 
L 100.650928 91.089742 
L 102.067925 90.196389 
L 103.484922 93.145894 
L 104.901918 91.851205 
L 106.318915 93.358784 
L 107.735911 91.497211 
L 109.152908 91.834623 
L 110.569905 91.992918 
L 111.986901 91.479463 
L 113.403898 92.243231 
L 114.820895 94.222609 
L 116.237891 91.415244 
L 117.654888 93.30148 
L 119.071885 90.8391 
L 120.488881 92.503901 
L 121.905878 92.052866 
L 123.322875 93.542944 
L 124.739871 91.417254 
" clip-path="url(#p0a5d0f19be)" style="fill: none; stroke: #808080; stroke-opacity: 0.3; stroke-width: 0.5; stroke-linecap: square"/>
   </g>
   <g id="line2d_21">
    <path d="M 12.797137 95.048155 
L 14.214133 93.525995 
L 15.63113 93.434474 
L 17.048127 95.362547 
L 18.465123 92.087193 
L 19.88212 95.098858 
L 21.299117 91.600386 
L 22.716113 94.200894 
L 24.13311 93.451217 
L 25.550106 90.471174 
L 26.967103 94.14868 
L 28.3841 93.236532 
L 29.801096 94.997698 
L 31.218093 94.00202 
L 32.63509 92.917208 
L 34.052086 93.398003 
L 35.469083 93.115908 
L 36.88608 93.115908 
L 38.303076 94.843087 
L 39.720073 93.499489 
L 41.137069 94.662372 
L 42.554066 94.083593 
L 43.971063 91.442988 
L 45.388059 92.615659 
L 46.805056 93.377644 
L 48.222053 93.766263 
L 49.639049 93.427487 
L 51.056046 95.114185 
L 52.473043 93.888868 
L 53.890039 92.825971 
L 55.307036 93.093199 
L 56.724033 95.401933 
L 58.141029 92.47964 
L 59.558026 91.851327 
L 60.975022 93.339875 
L 62.392019 91.540236 
L 63.809016 90.36348 
L 65.226012 93.056582 
L 66.643009 91.130205 
L 68.060006 89.538957 
L 69.477002 92.895041 
L 70.893999 93.603954 
L 72.310996 94.513515 
L 73.727992 90.876445 
L 75.144989 92.825815 
L 76.561985 94.819345 
L 77.978982 92.391606 
L 79.395979 92.360456 
L 80.812975 95.228057 
L 82.229972 94.111873 
L 83.646969 92.315346 
L 85.063965 92.721502 
L 86.480962 93.197747 
L 87.897959 93.094728 
L 89.314955 92.604331 
L 90.731952 93.060649 
L 92.148948 91.949858 
L 93.565945 93.543468 
L 94.982942 90.625379 
L 96.399938 93.874996 
L 97.816935 91.612073 
L 99.233932 93.997286 
L 100.650928 93.831168 
L 102.067925 93.464874 
L 103.484922 93.453187 
L 104.901918 93.534052 
L 106.318915 94.031599 
L 107.735911 94.400783 
L 109.152908 93.487887 
L 110.569905 93.159714 
L 111.986901 92.783248 
L 113.403898 92.223217 
L 114.820895 93.553168 
L 116.237891 94.036092 
L 117.654888 95.367877 
L 119.071885 92.713294 
L 120.488881 91.927031 
L 121.905878 91.978238 
L 123.322875 94.355077 
L 124.739871 92.646242 
" clip-path="url(#p0a5d0f19be)" style="fill: none; stroke: #808080; stroke-opacity: 0.3; stroke-width: 0.5; stroke-linecap: square"/>
   </g>
   <g id="line2d_22">
    <path d="M 12.797137 92.753865 
L 14.214133 93.502084 
L 15.63113 92.653742 
L 17.048127 94.250376 
L 18.465123 94.381318 
L 19.88212 92.374231 
L 21.299117 94.646387 
L 22.716113 93.889217 
L 24.13311 92.746611 
L 25.550106 93.817142 
L 26.967103 94.919507 
L 28.3841 93.94591 
L 29.801096 92.456377 
L 31.218093 95.442201 
L 32.63509 93.65295 
L 34.052086 95.56839 
L 35.469083 93.157774 
L 36.88608 93.157774 
L 38.303076 92.203056 
L 39.720073 92.423402 
L 41.137069 91.399213 
L 42.554066 92.254627 
L 43.971063 92.896761 
L 45.388059 92.818694 
L 46.805056 93.039323 
L 48.222053 91.964483 
L 49.639049 90.998177 
L 51.056046 92.695254 
L 52.473043 89.682519 
L 53.890039 93.643975 
L 55.307036 91.463873 
L 56.724033 91.548822 
L 58.141029 90.043704 
L 59.558026 89.82781 
L 60.975022 91.363374 
L 62.392019 92.427059 
L 63.809016 92.016506 
L 65.226012 90.010905 
L 66.643009 92.783295 
L 68.060006 91.583898 
L 69.477002 92.15957 
L 70.893999 89.894056 
L 72.310996 92.864758 
L 73.727992 89.493258 
L 75.144989 94.123195 
L 76.561985 91.971841 
L 77.978982 92.637037 
L 79.395979 91.856009 
L 80.812975 92.72403 
L 82.229972 96.222048 
L 83.646969 93.062069 
L 85.063965 91.557388 
L 86.480962 91.523372 
L 87.897959 93.316828 
L 89.314955 91.979802 
L 90.731952 91.504319 
L 92.148948 91.369925 
L 93.565945 90.734396 
L 94.982942 93.148116 
L 96.399938 92.655768 
L 97.816935 93.976934 
L 99.233932 92.847234 
L 100.650928 91.254613 
L 102.067925 93.689759 
L 103.484922 91.265251 
L 104.901918 92.494775 
L 106.318915 92.414484 
L 107.735911 94.314094 
L 109.152908 90.670057 
L 110.569905 94.242529 
L 111.986901 92.580533 
L 113.403898 91.599799 
L 114.820895 94.24242 
L 116.237891 91.544983 
L 117.654888 93.871154 
L 119.071885 93.085143 
L 120.488881 92.258575 
L 121.905878 91.09009 
L 123.322875 92.128761 
L 124.739871 92.575068 
" clip-path="url(#p0a5d0f19be)" style="fill: none; stroke: #808080; stroke-opacity: 0.3; stroke-width: 0.5; stroke-linecap: square"/>
   </g>
   <g id="line2d_23">
    <path d="M 12.797137 92.2601 
L 14.214133 91.346225 
L 15.63113 93.177608 
L 17.048127 92.71535 
L 18.465123 91.522011 
L 19.88212 93.516434 
L 21.299117 91.945041 
L 22.716113 93.113078 
L 24.13311 91.811262 
L 25.550106 89.371106 
L 26.967103 89.635698 
L 28.3841 90.857666 
L 29.801096 89.575746 
L 31.218093 91.44132 
L 32.63509 89.042172 
L 34.052086 90.311868 
L 35.469083 92.336466 
L 36.88608 92.336466 
L 38.303076 94.206347 
L 39.720073 92.368054 
L 41.137069 94.740126 
L 42.554066 93.16664 
L 43.971063 91.165227 
L 45.388059 93.356145 
L 46.805056 92.826654 
L 48.222053 93.823383 
L 49.639049 93.796304 
L 51.056046 92.003272 
L 52.473043 91.638692 
L 53.890039 93.742082 
L 55.307036 93.093113 
L 56.724033 91.388904 
L 58.141029 91.274174 
L 59.558026 92.912151 
L 60.975022 91.745469 
L 62.392019 92.313692 
L 63.809016 92.073008 
L 65.226012 94.142514 
L 66.643009 93.045539 
L 68.060006 92.690416 
L 69.477002 93.700757 
L 70.893999 93.487319 
L 72.310996 92.251925 
L 73.727992 93.198878 
L 75.144989 91.894868 
L 76.561985 92.977791 
L 77.978982 92.856508 
L 79.395979 93.17007 
L 80.812975 92.133327 
L 82.229972 92.219065 
L 83.646969 92.785789 
L 85.063965 92.94458 
L 86.480962 94.517479 
L 87.897959 90.352973 
L 89.314955 93.362199 
L 90.731952 93.24837 
L 92.148948 93.958512 
L 93.565945 91.988002 
L 94.982942 92.797342 
L 96.399938 94.698835 
L 97.816935 92.896626 
L 99.233932 95.240912 
L 100.650928 95.425354 
L 102.067925 93.498949 
L 103.484922 93.642838 
L 104.901918 92.713159 
L 106.318915 94.346825 
L 107.735911 93.156975 
L 109.152908 91.511314 
L 110.569905 90.877072 
L 111.986901 91.911765 
L 113.403898 90.550179 
L 114.820895 90.554008 
L 116.237891 89.610778 
L 117.654888 88.6264 
L 119.071885 89.759876 
L 120.488881 88.868995 
L 121.905878 89.043825 
L 123.322875 90.772737 
L 124.739871 90.36301 
" clip-path="url(#p0a5d0f19be)" style="fill: none; stroke: #808080; stroke-opacity: 0.3; stroke-width: 0.5; stroke-linecap: square"/>
   </g>
   <g id="line2d_24">
    <path d="M 12.797137 93.137878 
L 14.214133 94.800611 
L 15.63113 95.461532 
L 17.048127 93.672544 
L 18.465123 95.355732 
L 19.88212 93.868387 
L 21.299117 93.541825 
L 22.716113 94.686872 
L 24.13311 97.036511 
L 25.550106 94.979168 
L 26.967103 94.868041 
L 28.3841 94.053267 
L 29.801096 94.934508 
L 31.218093 93.607296 
L 32.63509 93.485086 
L 34.052086 94.698524 
L 35.469083 93.54867 
L 36.88608 93.54867 
L 38.303076 93.744092 
L 39.720073 93.204016 
L 41.137069 94.324842 
L 42.554066 92.828535 
L 43.971063 91.390093 
L 45.388059 91.307025 
L 46.805056 90.167649 
L 48.222053 89.476375 
L 49.639049 90.504658 
L 51.056046 89.305906 
L 52.473043 88.574358 
L 53.890039 88.211133 
L 55.307036 88.721428 
L 56.724033 91.006133 
L 58.141029 89.292086 
L 59.558026 88.317187 
L 60.975022 86.428001 
L 62.392019 87.768997 
L 63.809016 89.768054 
L 65.226012 89.766626 
L 66.643009 86.141268 
L 68.060006 84.890011 
L 69.477002 87.256878 
L 70.893999 85.072346 
L 72.310996 86.813833 
L 73.727992 87.58538 
L 75.144989 87.595245 
L 76.561985 87.001384 
L 77.978982 88.754082 
L 79.395979 87.624368 
L 80.812975 87.908114 
L 82.229972 88.107777 
L 83.646969 87.046374 
L 85.063965 86.588039 
L 86.480962 87.001983 
L 87.897959 84.584208 
L 89.314955 85.838248 
L 90.731952 85.663305 
L 92.148948 85.246653 
L 93.565945 88.130636 
L 94.982942 88.103371 
L 96.399938 87.275011 
L 97.816935 87.353257 
L 99.233932 86.603055 
L 100.650928 88.851762 
L 102.067925 86.500327 
L 103.484922 88.326836 
L 104.901918 88.023503 
L 106.318915 88.758786 
L 107.735911 88.128464 
L 109.152908 89.953656 
L 110.569905 90.850642 
L 111.986901 91.361574 
L 113.403898 89.337445 
L 114.820895 89.496417 
L 116.237891 90.152925 
L 117.654888 90.282321 
L 119.071885 88.648131 
L 120.488881 89.856618 
L 121.905878 89.898734 
L 123.322875 88.737332 
L 124.739871 90.824929 
" clip-path="url(#p0a5d0f19be)" style="fill: none; stroke: #808080; stroke-opacity: 0.3; stroke-width: 0.5; stroke-linecap: square"/>
   </g>
   <g id="line2d_25">
    <path d="M 12.797137 92.650807 
L 14.214133 91.536909 
L 15.63113 91.022736 
L 17.048127 92.343876 
L 18.465123 91.167902 
L 19.88212 90.987057 
L 21.299117 91.096716 
L 22.716113 90.680844 
L 24.13311 93.715866 
L 25.550106 91.238858 
L 26.967103 91.805948 
L 28.3841 91.488868 
L 29.801096 92.340597 
L 31.218093 89.924318 
L 32.63509 92.991526 
L 34.052086 91.413798 
L 35.469083 92.075187 
L 36.88608 92.075187 
L 38.303076 93.991544 
L 39.720073 93.807184 
L 41.137069 94.261487 
L 42.554066 91.957331 
L 43.971063 91.626598 
L 45.388059 90.478251 
L 46.805056 92.40626 
L 48.222053 91.211694 
L 49.639049 93.745085 
L 51.056046 90.674081 
L 52.473043 91.357392 
L 53.890039 91.810695 
L 55.307036 93.099992 
L 56.724033 94.417997 
L 58.141029 90.996472 
L 59.558026 92.651023 
L 60.975022 91.732165 
L 62.392019 91.998613 
L 63.809016 91.006403 
L 65.226012 92.963035 
L 66.643009 91.0706 
L 68.060006 91.602141 
L 69.477002 90.314783 
L 70.893999 91.594009 
L 72.310996 91.720601 
L 73.727992 92.384643 
L 75.144989 93.252172 
L 76.561985 91.223768 
L 77.978982 91.901195 
L 79.395979 93.231758 
L 80.812975 93.676402 
L 82.229972 93.339268 
L 83.646969 93.655615 
L 85.063965 92.28724 
L 86.480962 91.953304 
L 87.897959 90.757422 
L 89.314955 93.729739 
L 90.731952 92.167504 
L 92.148948 92.348573 
L 93.565945 89.694907 
L 94.982942 92.319751 
L 96.399938 92.761486 
L 97.816935 91.182134 
L 99.233932 91.976925 
L 100.650928 92.435585 
L 102.067925 92.905117 
L 103.484922 91.777899 
L 104.901918 93.377656 
L 106.318915 91.341894 
L 107.735911 94.019343 
L 109.152908 93.741331 
L 110.569905 91.860779 
L 111.986901 93.98437 
L 113.403898 92.245557 
L 114.820895 91.382355 
L 116.237891 93.004644 
L 117.654888 94.946851 
L 119.071885 92.024516 
L 120.488881 92.676743 
L 121.905878 95.291092 
L 123.322875 93.35788 
L 124.739871 92.754003 
" clip-path="url(#p0a5d0f19be)" style="fill: none; stroke: #808080; stroke-opacity: 0.3; stroke-width: 0.5; stroke-linecap: square"/>
   </g>
   <g id="line2d_26">
    <path d="M 12.797137 92.354207 
L 14.214133 93.093672 
L 15.63113 93.783255 
L 17.048127 92.617203 
L 18.465123 93.039735 
L 19.88212 93.76105 
L 21.299117 96.462858 
L 22.716113 93.242962 
L 24.13311 94.297636 
L 25.550106 92.093655 
L 26.967103 94.488373 
L 28.3841 92.844164 
L 29.801096 94.455446 
L 31.218093 93.076585 
L 32.63509 92.688852 
L 34.052086 94.047801 
L 35.469083 92.832646 
L 36.88608 92.832646 
L 38.303076 91.678677 
L 39.720073 93.109891 
L 41.137069 94.662158 
L 42.554066 94.212952 
L 43.971063 93.165975 
L 45.388059 92.553371 
L 46.805056 93.789951 
L 48.222053 91.656664 
L 49.639049 93.881748 
L 51.056046 92.812693 
L 52.473043 92.848554 
L 53.890039 92.15471 
L 55.307036 91.394209 
L 56.724033 93.901318 
L 58.141029 93.449511 
L 59.558026 92.845342 
L 60.975022 93.50356 
L 62.392019 91.984426 
L 63.809016 91.839145 
L 65.226012 94.724767 
L 66.643009 92.207541 
L 68.060006 91.335282 
L 69.477002 91.042317 
L 70.893999 93.989202 
L 72.310996 93.007466 
L 73.727992 93.343332 
L 75.144989 92.377102 
L 76.561985 93.751368 
L 77.978982 92.61125 
L 79.395979 93.761737 
L 80.812975 94.668901 
L 82.229972 93.437767 
L 83.646969 92.658837 
L 85.063965 93.341839 
L 86.480962 91.51937 
L 87.897959 92.127084 
L 89.314955 95.331314 
L 90.731952 93.685688 
L 92.148948 93.81714 
L 93.565945 92.601915 
L 94.982942 92.373782 
L 96.399938 93.085338 
L 97.816935 93.526482 
L 99.233932 95.08022 
L 100.650928 94.766277 
L 102.067925 94.200665 
L 103.484922 93.439952 
L 104.901918 92.500543 
L 106.318915 93.344642 
L 107.735911 94.492089 
L 109.152908 93.326842 
L 110.569905 92.694512 
L 111.986901 93.476782 
L 113.403898 93.561691 
L 114.820895 92.757078 
L 116.237891 91.185861 
L 117.654888 93.743217 
L 119.071885 92.473864 
L 120.488881 91.199057 
L 121.905878 91.898815 
L 123.322875 92.39434 
L 124.739871 93.082602 
" clip-path="url(#p0a5d0f19be)" style="fill: none; stroke: #808080; stroke-opacity: 0.3; stroke-width: 0.5; stroke-linecap: square"/>
   </g>
   <g id="line2d_27">
    <path d="M 12.797137 92.501041 
L 14.214133 92.607962 
L 15.63113 92.825711 
L 17.048127 92.75926 
L 18.465123 92.462878 
L 19.88212 92.647202 
L 21.299117 92.331669 
L 22.716113 92.244411 
L 24.13311 92.639293 
L 25.550106 92.696094 
L 26.967103 92.549735 
L 28.3841 92.903913 
L 29.801096 92.091336 
L 31.218093 92.257974 
L 32.63509 92.796201 
L 34.052086 92.70273 
L 35.469083 92.728643 
L 36.88608 92.728643 
L 38.303076 93.115425 
L 39.720073 93.112625 
L 41.137069 93.475028 
L 42.554066 92.580587 
L 43.971063 90.112338 
L 45.388059 89.044439 
L 46.805056 88.834412 
L 48.222053 88.238466 
L 49.639049 88.337758 
L 51.056046 88.175391 
L 52.473043 87.966699 
L 53.890039 88.290049 
L 55.307036 88.146645 
L 56.724033 88.168901 
L 58.141029 87.240838 
L 59.558026 85.92266 
L 60.975022 84.491803 
L 62.392019 83.731519 
L 63.809016 83.117149 
L 65.226012 83.010464 
L 66.643009 82.268367 
L 68.060006 82.666054 
L 69.477002 82.961613 
L 70.893999 83.198351 
L 72.310996 83.376431 
L 73.727992 83.484875 
L 75.144989 83.813891 
L 76.561985 83.70893 
L 77.978982 83.961072 
L 79.395979 83.764939 
L 80.812975 84.824924 
L 82.229972 84.726192 
L 83.646969 85.100845 
L 85.063965 84.837052 
L 86.480962 85.105051 
L 87.897959 85.294859 
L 89.314955 85.356884 
L 90.731952 85.479336 
L 92.148948 85.613314 
L 93.565945 85.852978 
L 94.982942 85.824105 
L 96.399938 86.23728 
L 97.816935 86.15758 
L 99.233932 86.952418 
L 100.650928 87.172226 
L 102.067925 86.785002 
L 103.484922 87.078597 
L 104.901918 87.360138 
L 106.318915 87.051039 
L 107.735911 87.491913 
L 109.152908 87.906475 
L 110.569905 87.809669 
L 111.986901 88.00583 
L 113.403898 88.141366 
L 114.820895 88.080273 
L 116.237891 88.060151 
L 117.654888 88.420858 
L 119.071885 87.741012 
L 120.488881 87.974896 
L 121.905878 88.403667 
L 123.322875 88.238116 
L 124.739871 88.387324 
" clip-path="url(#p0a5d0f19be)" style="fill: none; stroke: #87cefa; stroke-opacity: 0.9; stroke-linecap: square"/>
   </g>
   <g id="line2d_28">
    <path d="M 36.88608 93.069859 
L 41.1229 93.069859 
L 41.1229 93.069859 
" clip-path="url(#p0a5d0f19be)" style="fill: none; stroke: #ff0000; stroke-opacity: 0.5; stroke-width: 1.5; stroke-linecap: square"/>
   </g>
   <g id="line2d_29">
    <path d="M 51.764544 93.069859 
L 56.001364 93.069859 
L 56.001364 93.069859 
" clip-path="url(#p0a5d0f19be)" style="fill: none; stroke: #ff0000; stroke-opacity: 0.5; stroke-width: 1.5; stroke-linecap: square"/>
   </g>
  </g>
 </g>
 <defs>
  <clipPath id="p0a5d0f19be">
   <rect x="7.2" y="7.2" width="123.137008" height="92.862992"/>
  </clipPath>
 </defs>
</svg>
