<?xml version="1.0" encoding="utf-8" standalone="no"?>
<!DOCTYPE svg PUBLIC "-//W3C//DTD SVG 1.1//EN"
  "http://www.w3.org/Graphics/SVG/1.1/DTD/svg11.dtd">
<svg xmlns:xlink="http://www.w3.org/1999/xlink" width="137.537008pt" height="107.262992pt" viewBox="0 0 137.537008 107.262992" xmlns="http://www.w3.org/2000/svg" version="1.1">
 <metadata>
  <rdf:RDF xmlns:dc="http://purl.org/dc/elements/1.1/" xmlns:cc="http://creativecommons.org/ns#" xmlns:rdf="http://www.w3.org/1999/02/22-rdf-syntax-ns#">
   <cc:Work>
    <dc:type rdf:resource="http://purl.org/dc/dcmitype/StillImage"/>
    <dc:date>2024-04-02T14:45:49.052718</dc:date>
    <dc:format>image/svg+xml</dc:format>
    <dc:creator>
     <cc:Agent>
      <dc:title>Matplotlib v3.7.2, https://matplotlib.org/</dc:title>
     </cc:Agent>
    </dc:creator>
   </cc:Work>
  </rdf:RDF>
 </metadata>
 <defs>
  <style type="text/css">*{stroke-linejoin: round; stroke-linecap: butt}</style>
 </defs>
 <g id="figure_1">
  <g id="patch_1">
   <path d="M 0 107.262992 
L 137.537008 107.262992 
L 137.537008 0 
L 0 0 
L 0 107.262992 
z
" style="fill: none"/>
  </g>
  <g id="axes_1">
   <g id="patch_2">
    <path d="M 7.2 100.062992 
L 130.337008 100.062992 
L 130.337008 7.2 
L 7.2 7.2 
L 7.2 100.062992 
z
" style="fill: none"/>
   </g>
   <g id="matplotlib.axis_1"/>
   <g id="matplotlib.axis_2"/>
   <g id="line2d_1">
    <path d="M 12.797137 88.792497 
L 14.214133 85.242142 
L 15.63113 87.968077 
L 17.048127 88.545689 
L 18.465123 89.38103 
L 19.88212 90.977173 
L 21.299117 90.647027 
L 22.716113 88.95834 
L 24.13311 89.114476 
L 25.550106 91.024357 
L 26.967103 89.833817 
L 28.3841 89.06356 
L 29.801096 87.384677 
L 31.218093 91.466571 
L 32.63509 87.814504 
L 34.052086 90.782746 
L 35.469083 91.005082 
L 36.88608 91.005082 
L 38.303076 94.329629 
L 39.720073 95.35301 
L 41.137069 90.030432 
L 42.554066 89.270407 
L 43.971063 91.724373 
L 45.388059 87.804311 
L 46.805056 84.07027 
L 48.222053 86.092241 
L 49.639049 87.388016 
L 51.056046 83.687465 
L 52.473043 81.359356 
L 53.890039 85.775566 
L 55.307036 85.605949 
L 56.724033 84.876651 
L 58.141029 81.950477 
L 59.558026 81.612033 
L 60.975022 76.327554 
L 62.392019 78.095352 
L 63.809016 80.779753 
L 65.226012 79.703982 
L 66.643009 81.361068 
L 68.060006 77.404182 
L 69.477002 78.453076 
L 70.893999 80.753737 
L 72.310996 79.529804 
L 73.727992 79.635084 
L 75.144989 78.836777 
L 76.561985 80.688571 
L 77.978982 76.699806 
L 79.395979 81.547283 
L 80.812975 80.581176 
L 82.229972 81.213515 
L 83.646969 78.717295 
L 85.063965 80.972158 
L 86.480962 78.3341 
L 87.897959 82.450864 
L 89.314955 80.93419 
L 90.731952 80.506143 
L 92.148948 84.389473 
L 93.565945 82.113532 
L 94.982942 83.939041 
L 96.399938 81.685189 
L 97.816935 83.884635 
L 99.233932 84.939807 
L 100.650928 81.551973 
L 102.067925 84.948252 
L 103.484922 82.704065 
L 104.901918 83.247959 
L 106.318915 83.255954 
L 107.735911 85.415497 
L 109.152908 82.74819 
L 110.569905 85.635863 
L 111.986901 85.342578 
L 113.403898 86.57167 
L 114.820895 86.961499 
L 116.237891 84.31728 
L 117.654888 83.715476 
L 119.071885 81.293864 
L 120.488881 82.719869 
L 121.905878 84.652598 
L 123.322875 81.827251 
L 124.739871 83.106068 
" clip-path="url(#pe82e165cbd)" style="fill: none; stroke: #808080; stroke-opacity: 0.3; stroke-width: 0.5; stroke-linecap: square"/>
   </g>
   <g id="line2d_2">
    <path d="M 12.797137 93.408554 
L 14.214133 91.662147 
L 15.63113 93.255858 
L 17.048127 93.819059 
L 18.465123 93.727463 
L 19.88212 96.696285 
L 21.299117 93.335713 
L 22.716113 93.429992 
L 24.13311 95.176295 
L 25.550106 95.476102 
L 26.967103 94.307244 
L 28.3841 95.292421 
L 29.801096 91.978254 
L 31.218093 95.361127 
L 32.63509 92.615888 
L 34.052086 94.278057 
L 35.469083 93.27167 
L 36.88608 93.27167 
L 38.303076 92.686504 
L 39.720073 94.248731 
L 41.137069 92.405872 
L 42.554066 93.97827 
L 43.971063 91.732582 
L 45.388059 90.985031 
L 46.805056 85.613467 
L 48.222053 77.681522 
L 49.639049 75.991954 
L 51.056046 80.247983 
L 52.473043 75.100992 
L 53.890039 74.956967 
L 55.307036 75.480851 
L 56.724033 74.532574 
L 58.141029 74.052339 
L 59.558026 70.172669 
L 60.975022 74.931151 
L 62.392019 74.035585 
L 63.809016 67.468887 
L 65.226012 69.057379 
L 66.643009 72.53299 
L 68.060006 66.377601 
L 69.477002 69.051133 
L 70.893999 69.646357 
L 72.310996 68.312344 
L 73.727992 70.078076 
L 75.144989 69.620278 
L 76.561985 69.394532 
L 77.978982 71.531431 
L 79.395979 73.891168 
L 80.812975 67.962632 
L 82.229972 70.937282 
L 83.646969 70.661844 
L 85.063965 73.925473 
L 86.480962 74.73273 
L 87.897959 72.743412 
L 89.314955 70.343626 
L 90.731952 69.928782 
L 92.148948 70.504267 
L 93.565945 74.13229 
L 94.982942 71.471945 
L 96.399938 76.918209 
L 97.816935 77.924945 
L 99.233932 78.13264 
L 100.650928 77.629466 
L 102.067925 75.054214 
L 103.484922 77.372907 
L 104.901918 79.185343 
L 106.318915 75.28386 
L 107.735911 78.314845 
L 109.152908 77.331589 
L 110.569905 76.217171 
L 111.986901 76.350322 
L 113.403898 76.877193 
L 114.820895 73.584585 
L 116.237891 77.430455 
L 117.654888 75.475742 
L 119.071885 80.786254 
L 120.488881 77.124349 
L 121.905878 78.148269 
L 123.322875 77.157483 
L 124.739871 79.791471 
" clip-path="url(#pe82e165cbd)" style="fill: none; stroke: #808080; stroke-opacity: 0.3; stroke-width: 0.5; stroke-linecap: square"/>
   </g>
   <g id="line2d_3">
    <path d="M 12.797137 96.984599 
L 14.214133 98.481054 
L 15.63113 95.357555 
L 17.048127 97.672245 
L 18.465123 97.142214 
L 19.88212 94.673099 
L 21.299117 94.509496 
L 22.716113 96.065257 
L 24.13311 97.112445 
L 25.550106 95.849985 
L 26.967103 98.142781 
L 28.3841 96.328655 
L 29.801096 94.516092 
L 31.218093 95.319947 
L 32.63509 95.703126 
L 34.052086 98.35584 
L 35.469083 95.174652 
L 36.88608 95.174652 
L 38.303076 93.262266 
L 39.720073 96.128739 
L 41.137069 92.759412 
L 42.554066 92.504987 
L 43.971063 93.30895 
L 45.388059 91.347056 
L 46.805056 85.835363 
L 48.222053 82.572791 
L 49.639049 80.451609 
L 51.056046 82.390863 
L 52.473043 82.063571 
L 53.890039 80.779172 
L 55.307036 80.460388 
L 56.724033 79.638334 
L 58.141029 78.019779 
L 59.558026 81.7845 
L 60.975022 80.347348 
L 62.392019 81.104272 
L 63.809016 80.176785 
L 65.226012 75.095491 
L 66.643009 78.108209 
L 68.060006 76.977141 
L 69.477002 74.168644 
L 70.893999 77.524745 
L 72.310996 77.864783 
L 73.727992 74.329373 
L 75.144989 78.932232 
L 76.561985 74.381509 
L 77.978982 74.414826 
L 79.395979 76.757081 
L 80.812975 78.217455 
L 82.229972 79.333733 
L 83.646969 81.178349 
L 85.063965 80.364725 
L 86.480962 79.352364 
L 87.897959 81.127002 
L 89.314955 82.940516 
L 90.731952 79.641041 
L 92.148948 79.012209 
L 93.565945 77.347603 
L 94.982942 79.891752 
L 96.399938 79.506341 
L 97.816935 77.845079 
L 99.233932 78.365738 
L 100.650928 80.482102 
L 102.067925 82.522545 
L 103.484922 84.319758 
L 104.901918 80.759791 
L 106.318915 81.124689 
L 107.735911 81.536479 
L 109.152908 83.631169 
L 110.569905 85.240241 
L 111.986901 84.379927 
L 113.403898 81.285784 
L 114.820895 84.509106 
L 116.237891 83.642297 
L 117.654888 80.954656 
L 119.071885 83.033612 
L 120.488881 87.150409 
L 121.905878 84.69022 
L 123.322875 87.491851 
L 124.739871 84.916756 
" clip-path="url(#pe82e165cbd)" style="fill: none; stroke: #808080; stroke-opacity: 0.3; stroke-width: 0.5; stroke-linecap: square"/>
   </g>
   <g id="line2d_4">
    <path d="M 12.797137 90.703795 
L 14.214133 94.661194 
L 15.63113 94.015096 
L 17.048127 92.799417 
L 18.465123 92.694931 
L 19.88212 96.586778 
L 21.299117 93.532675 
L 22.716113 95.069737 
L 24.13311 93.446367 
L 25.550106 94.771886 
L 26.967103 95.57657 
L 28.3841 93.151446 
L 29.801096 96.656515 
L 31.218093 95.311394 
L 32.63509 92.884732 
L 34.052086 94.79808 
L 35.469083 93.548464 
L 36.88608 93.548464 
L 38.303076 93.270787 
L 39.720073 93.850759 
L 41.137069 91.836845 
L 42.554066 93.917236 
L 43.971063 91.519454 
L 45.388059 89.295836 
L 46.805056 87.525449 
L 48.222053 81.923704 
L 49.639049 82.915746 
L 51.056046 83.466172 
L 52.473043 82.909734 
L 53.890039 81.788603 
L 55.307036 80.824246 
L 56.724033 84.998236 
L 58.141029 82.092547 
L 59.558026 79.342862 
L 60.975022 75.112742 
L 62.392019 76.045012 
L 63.809016 75.909146 
L 65.226012 78.689962 
L 66.643009 80.47708 
L 68.060006 81.343826 
L 69.477002 78.684431 
L 70.893999 78.985243 
L 72.310996 77.257759 
L 73.727992 76.018978 
L 75.144989 74.924251 
L 76.561985 80.173527 
L 77.978982 77.306862 
L 79.395979 80.705171 
L 80.812975 81.579669 
L 82.229972 81.41024 
L 83.646969 81.167064 
L 85.063965 81.186491 
L 86.480962 76.507663 
L 87.897959 83.655634 
L 89.314955 80.311948 
L 90.731952 82.569551 
L 92.148948 84.333447 
L 93.565945 82.379533 
L 94.982942 79.011374 
L 96.399938 83.243016 
L 97.816935 80.991204 
L 99.233932 82.522841 
L 100.650928 82.229853 
L 102.067925 85.845266 
L 103.484922 84.75253 
L 104.901918 82.607005 
L 106.318915 85.43469 
L 107.735911 83.170107 
L 109.152908 83.526653 
L 110.569905 83.384147 
L 111.986901 85.079454 
L 113.403898 81.462034 
L 114.820895 83.279941 
L 116.237891 86.364951 
L 117.654888 87.171451 
L 119.071885 85.804463 
L 120.488881 86.625359 
L 121.905878 86.415756 
L 123.322875 84.727733 
L 124.739871 86.163606 
" clip-path="url(#pe82e165cbd)" style="fill: none; stroke: #808080; stroke-opacity: 0.3; stroke-width: 0.5; stroke-linecap: square"/>
   </g>
   <g id="line2d_5">
    <path d="M 12.797137 89.359312 
L 14.214133 94.754907 
L 15.63113 91.809353 
L 17.048127 90.75934 
L 18.465123 92.513999 
L 19.88212 95.081694 
L 21.299117 90.681204 
L 22.716113 89.498861 
L 24.13311 92.605778 
L 25.550106 92.166023 
L 26.967103 92.258284 
L 28.3841 94.2457 
L 29.801096 94.134117 
L 31.218093 92.962611 
L 32.63509 92.969958 
L 34.052086 93.492136 
L 35.469083 94.434135 
L 36.88608 94.434135 
L 38.303076 91.734256 
L 39.720073 92.639441 
L 41.137069 95.561573 
L 42.554066 92.590295 
L 43.971063 92.831994 
L 45.388059 85.248724 
L 46.805056 82.317203 
L 48.222053 80.002516 
L 49.639049 81.471223 
L 51.056046 82.863225 
L 52.473043 81.876942 
L 53.890039 80.641609 
L 55.307036 80.338754 
L 56.724033 79.906191 
L 58.141029 79.239834 
L 59.558026 77.951594 
L 60.975022 77.761511 
L 62.392019 79.576496 
L 63.809016 81.414283 
L 65.226012 76.854165 
L 66.643009 79.201256 
L 68.060006 76.394894 
L 69.477002 77.009718 
L 70.893999 79.836479 
L 72.310996 79.510668 
L 73.727992 82.162834 
L 75.144989 81.231128 
L 76.561985 82.207449 
L 77.978982 79.369924 
L 79.395979 80.974666 
L 80.812975 82.22234 
L 82.229972 77.957054 
L 83.646969 83.671685 
L 85.063965 80.132014 
L 86.480962 79.375657 
L 87.897959 82.402232 
L 89.314955 83.239814 
L 90.731952 81.365653 
L 92.148948 79.863989 
L 93.565945 80.344427 
L 94.982942 77.235547 
L 96.399938 79.652446 
L 97.816935 78.909277 
L 99.233932 82.354292 
L 100.650928 78.546242 
L 102.067925 81.063697 
L 103.484922 77.942384 
L 104.901918 79.517119 
L 106.318915 80.697871 
L 107.735911 76.886347 
L 109.152908 79.498366 
L 110.569905 80.156563 
L 111.986901 80.338149 
L 113.403898 80.249286 
L 114.820895 82.390287 
L 116.237891 82.031698 
L 117.654888 82.494255 
L 119.071885 80.962872 
L 120.488881 81.369537 
L 121.905878 81.963928 
L 123.322875 80.420825 
L 124.739871 80.487602 
" clip-path="url(#pe82e165cbd)" style="fill: none; stroke: #808080; stroke-opacity: 0.3; stroke-width: 0.5; stroke-linecap: square"/>
   </g>
   <g id="line2d_6">
    <path d="M 12.797137 93.374745 
L 14.214133 93.359864 
L 15.63113 90.903092 
L 17.048127 91.453164 
L 18.465123 91.120138 
L 19.88212 93.42718 
L 21.299117 91.001855 
L 22.716113 96.008493 
L 24.13311 91.748612 
L 25.550106 93.815316 
L 26.967103 91.82992 
L 28.3841 93.146806 
L 29.801096 93.58385 
L 31.218093 95.057422 
L 32.63509 92.208677 
L 34.052086 98.087352 
L 35.469083 93.433061 
L 36.88608 93.433061 
L 38.303076 95.917152 
L 39.720073 90.889431 
L 41.137069 93.615777 
L 42.554066 91.9872 
L 43.971063 87.803191 
L 45.388059 89.046093 
L 46.805056 82.255922 
L 48.222053 84.685062 
L 49.639049 83.762225 
L 51.056046 81.236525 
L 52.473043 81.316544 
L 53.890039 81.368422 
L 55.307036 84.389962 
L 56.724033 83.284628 
L 58.141029 80.934674 
L 59.558026 80.061386 
L 60.975022 78.476828 
L 62.392019 77.623681 
L 63.809016 75.763132 
L 65.226012 77.02796 
L 66.643009 75.91202 
L 68.060006 80.201715 
L 69.477002 80.788072 
L 70.893999 79.577198 
L 72.310996 75.269188 
L 73.727992 74.827543 
L 75.144989 79.104954 
L 76.561985 75.640653 
L 77.978982 74.896794 
L 79.395979 80.861165 
L 80.812975 78.339042 
L 82.229972 79.969258 
L 83.646969 84.244415 
L 85.063965 82.335771 
L 86.480962 79.342709 
L 87.897959 79.850508 
L 89.314955 80.350436 
L 90.731952 80.293555 
L 92.148948 76.901541 
L 93.565945 81.103393 
L 94.982942 78.114894 
L 96.399938 82.507863 
L 97.816935 83.928147 
L 99.233932 80.262911 
L 100.650928 81.634918 
L 102.067925 80.610369 
L 103.484922 85.547415 
L 104.901918 83.147654 
L 106.318915 84.141112 
L 107.735911 83.467453 
L 109.152908 81.056635 
L 110.569905 81.172463 
L 111.986901 83.295701 
L 113.403898 81.969025 
L 114.820895 83.66933 
L 116.237891 84.38879 
L 117.654888 83.994582 
L 119.071885 82.132221 
L 120.488881 82.2631 
L 121.905878 84.058734 
L 123.322875 80.176851 
L 124.739871 83.541445 
" clip-path="url(#pe82e165cbd)" style="fill: none; stroke: #808080; stroke-opacity: 0.3; stroke-width: 0.5; stroke-linecap: square"/>
   </g>
   <g id="line2d_7">
    <path d="M 12.797137 96.316808 
L 14.214133 94.329145 
L 15.63113 94.730582 
L 17.048127 95.853511 
L 18.465123 95.852967 
L 19.88212 93.828309 
L 21.299117 94.530784 
L 22.716113 95.556755 
L 24.13311 95.469435 
L 25.550106 96.889804 
L 26.967103 96.293623 
L 28.3841 95.35436 
L 29.801096 95.177451 
L 31.218093 96.716205 
L 32.63509 95.329886 
L 34.052086 95.027249 
L 35.469083 94.533212 
L 36.88608 94.533212 
L 38.303076 93.441169 
L 39.720073 94.863929 
L 41.137069 93.138261 
L 42.554066 93.158026 
L 43.971063 90.339111 
L 45.388059 89.877134 
L 46.805056 87.268335 
L 48.222053 83.401052 
L 49.639049 81.090628 
L 51.056046 82.354688 
L 52.473043 79.346793 
L 53.890039 79.492184 
L 55.307036 79.738111 
L 56.724033 81.225334 
L 58.141029 79.371274 
L 59.558026 78.981319 
L 60.975022 75.934644 
L 62.392019 75.98313 
L 63.809016 72.209157 
L 65.226012 71.701405 
L 66.643009 73.902636 
L 68.060006 67.080218 
L 69.477002 72.408022 
L 70.893999 69.536358 
L 72.310996 72.724946 
L 73.727992 72.880551 
L 75.144989 72.449282 
L 76.561985 73.719222 
L 77.978982 73.287178 
L 79.395979 73.200916 
L 80.812975 72.565023 
L 82.229972 70.343079 
L 83.646969 71.817103 
L 85.063965 74.3499 
L 86.480962 72.665867 
L 87.897959 72.362365 
L 89.314955 75.992584 
L 90.731952 75.270806 
L 92.148948 74.635028 
L 93.565945 74.873776 
L 94.982942 76.734155 
L 96.399938 75.001079 
L 97.816935 76.96677 
L 99.233932 75.327318 
L 100.650928 78.48312 
L 102.067925 77.564386 
L 103.484922 77.731555 
L 104.901918 80.898935 
L 106.318915 81.0443 
L 107.735911 80.264043 
L 109.152908 79.400579 
L 110.569905 79.582184 
L 111.986901 78.981096 
L 113.403898 82.922574 
L 114.820895 81.329737 
L 116.237891 78.782225 
L 117.654888 82.977727 
L 119.071885 82.036172 
L 120.488881 81.352817 
L 121.905878 83.157535 
L 123.322875 81.820071 
L 124.739871 83.008517 
" clip-path="url(#pe82e165cbd)" style="fill: none; stroke: #808080; stroke-opacity: 0.3; stroke-width: 0.5; stroke-linecap: square"/>
   </g>
   <g id="line2d_8">
    <path d="M 12.797137 90.353508 
L 14.214133 92.297863 
L 15.63113 94.384896 
L 17.048127 89.092527 
L 18.465123 90.572344 
L 19.88212 92.382337 
L 21.299117 91.058685 
L 22.716113 92.556485 
L 24.13311 92.470952 
L 25.550106 90.858443 
L 26.967103 91.824966 
L 28.3841 92.971095 
L 29.801096 94.72978 
L 31.218093 93.097995 
L 32.63509 90.88938 
L 34.052086 91.563671 
L 35.469083 93.103547 
L 36.88608 93.103547 
L 38.303076 94.203482 
L 39.720073 90.725967 
L 41.137069 92.22876 
L 42.554066 89.804323 
L 43.971063 85.721499 
L 45.388059 82.818161 
L 46.805056 78.889617 
L 48.222053 75.92697 
L 49.639049 73.746738 
L 51.056046 73.264034 
L 52.473043 73.864286 
L 53.890039 72.353665 
L 55.307036 71.55864 
L 56.724033 70.932233 
L 58.141029 69.727836 
L 59.558026 65.319723 
L 60.975022 68.730743 
L 62.392019 64.423694 
L 63.809016 64.477154 
L 65.226012 60.430321 
L 66.643009 65.125605 
L 68.060006 66.050996 
L 69.477002 67.002607 
L 70.893999 63.729417 
L 72.310996 60.914169 
L 73.727992 64.571454 
L 75.144989 63.767262 
L 76.561985 66.070757 
L 77.978982 69.636814 
L 79.395979 64.507957 
L 80.812975 65.285997 
L 82.229972 64.488595 
L 83.646969 64.249011 
L 85.063965 67.738114 
L 86.480962 68.432387 
L 87.897959 68.511792 
L 89.314955 66.005883 
L 90.731952 67.689879 
L 92.148948 68.57014 
L 93.565945 65.573542 
L 94.982942 70.70163 
L 96.399938 69.404481 
L 97.816935 72.325897 
L 99.233932 70.997244 
L 100.650928 69.949617 
L 102.067925 70.287545 
L 103.484922 71.48232 
L 104.901918 71.847751 
L 106.318915 73.267821 
L 107.735911 73.242356 
L 109.152908 72.068272 
L 110.569905 75.959359 
L 111.986901 76.674295 
L 113.403898 75.415498 
L 114.820895 74.432373 
L 116.237891 76.281029 
L 117.654888 73.720751 
L 119.071885 75.599913 
L 120.488881 77.590644 
L 121.905878 77.534437 
L 123.322875 74.108842 
L 124.739871 80.408515 
" clip-path="url(#pe82e165cbd)" style="fill: none; stroke: #808080; stroke-opacity: 0.3; stroke-width: 0.5; stroke-linecap: square"/>
   </g>
   <g id="line2d_9">
    <path d="M 12.797137 95.511576 
L 14.214133 90.391351 
L 15.63113 92.62716 
L 17.048127 91.604548 
L 18.465123 89.979087 
L 19.88212 92.777243 
L 21.299117 91.664332 
L 22.716113 90.913603 
L 24.13311 93.141525 
L 25.550106 93.827704 
L 26.967103 92.893122 
L 28.3841 93.17842 
L 29.801096 92.518901 
L 31.218093 93.354171 
L 32.63509 94.739341 
L 34.052086 93.70292 
L 35.469083 93.961446 
L 36.88608 93.961446 
L 38.303076 93.84217 
L 39.720073 93.120333 
L 41.137069 91.104981 
L 42.554066 92.746518 
L 43.971063 89.152293 
L 45.388059 84.191014 
L 46.805056 78.819821 
L 48.222053 75.136363 
L 49.639049 74.846045 
L 51.056046 73.262539 
L 52.473043 73.697584 
L 53.890039 70.543809 
L 55.307036 75.971038 
L 56.724033 71.937746 
L 58.141029 72.542415 
L 59.558026 69.979961 
L 60.975022 72.80439 
L 62.392019 72.766713 
L 63.809016 69.107005 
L 65.226012 69.425283 
L 66.643009 67.868525 
L 68.060006 68.17647 
L 69.477002 70.373059 
L 70.893999 66.471816 
L 72.310996 68.889987 
L 73.727992 63.506989 
L 75.144989 69.910094 
L 76.561985 69.830711 
L 77.978982 69.861054 
L 79.395979 68.336583 
L 80.812975 68.238335 
L 82.229972 70.813631 
L 83.646969 75.707207 
L 85.063965 74.071495 
L 86.480962 72.948607 
L 87.897959 74.895444 
L 89.314955 72.050593 
L 90.731952 71.660359 
L 92.148948 74.790767 
L 93.565945 73.219266 
L 94.982942 74.375882 
L 96.399938 75.253105 
L 97.816935 73.027111 
L 99.233932 74.035593 
L 100.650928 75.742112 
L 102.067925 75.102198 
L 103.484922 75.807161 
L 104.901918 77.296127 
L 106.318915 78.19232 
L 107.735911 79.59548 
L 109.152908 78.757066 
L 110.569905 81.639557 
L 111.986901 77.456483 
L 113.403898 75.441934 
L 114.820895 78.511144 
L 116.237891 80.114265 
L 117.654888 79.131376 
L 119.071885 77.72289 
L 120.488881 82.156129 
L 121.905878 83.905401 
L 123.322875 79.582409 
L 124.739871 84.286958 
" clip-path="url(#pe82e165cbd)" style="fill: none; stroke: #808080; stroke-opacity: 0.3; stroke-width: 0.5; stroke-linecap: square"/>
   </g>
   <g id="line2d_10">
    <path d="M 12.797137 93.289661 
L 14.214133 92.428608 
L 15.63113 93.996339 
L 17.048127 91.99296 
L 18.465123 94.525933 
L 19.88212 92.975556 
L 21.299117 92.481862 
L 22.716113 94.455085 
L 24.13311 94.159354 
L 25.550106 95.351597 
L 26.967103 92.129298 
L 28.3841 93.525646 
L 29.801096 92.134095 
L 31.218093 92.403641 
L 32.63509 92.151007 
L 34.052086 92.092059 
L 35.469083 95.306602 
L 36.88608 95.306602 
L 38.303076 92.680446 
L 39.720073 93.80273 
L 41.137069 93.639238 
L 42.554066 92.08797 
L 43.971063 88.031044 
L 45.388059 86.648225 
L 46.805056 80.388908 
L 48.222053 81.756044 
L 49.639049 80.982935 
L 51.056046 80.096611 
L 52.473043 79.144803 
L 53.890039 79.168838 
L 55.307036 76.948424 
L 56.724033 78.679126 
L 58.141029 79.061285 
L 59.558026 76.298003 
L 60.975022 72.012535 
L 62.392019 67.112279 
L 63.809016 72.808651 
L 65.226012 69.928201 
L 66.643009 72.29623 
L 68.060006 67.524578 
L 69.477002 68.475658 
L 70.893999 72.521655 
L 72.310996 70.658209 
L 73.727992 70.952574 
L 75.144989 69.22865 
L 76.561985 70.877123 
L 77.978982 72.435442 
L 79.395979 70.519905 
L 80.812975 74.900464 
L 82.229972 71.63345 
L 83.646969 73.984264 
L 85.063965 73.818753 
L 86.480962 73.259638 
L 87.897959 72.607091 
L 89.314955 73.797292 
L 90.731952 74.687751 
L 92.148948 75.016011 
L 93.565945 73.885978 
L 94.982942 75.226487 
L 96.399938 73.698906 
L 97.816935 74.158631 
L 99.233932 77.989008 
L 100.650928 76.398431 
L 102.067925 76.505161 
L 103.484922 76.326757 
L 104.901918 77.891325 
L 106.318915 78.138637 
L 107.735911 77.817359 
L 109.152908 80.936274 
L 110.569905 77.064666 
L 111.986901 80.099761 
L 113.403898 78.11196 
L 114.820895 78.177001 
L 116.237891 79.190029 
L 117.654888 77.410659 
L 119.071885 77.658224 
L 120.488881 77.352434 
L 121.905878 77.130175 
L 123.322875 77.69319 
L 124.739871 81.570893 
" clip-path="url(#pe82e165cbd)" style="fill: none; stroke: #808080; stroke-opacity: 0.3; stroke-width: 0.5; stroke-linecap: square"/>
   </g>
   <g id="line2d_11">
    <path d="M 12.797137 93.016139 
L 14.214133 93.085202 
L 15.63113 94.790141 
L 17.048127 94.621271 
L 18.465123 92.493237 
L 19.88212 94.068785 
L 21.299117 93.554984 
L 22.716113 93.951189 
L 24.13311 91.764397 
L 25.550106 92.243416 
L 26.967103 91.424134 
L 28.3841 92.146809 
L 29.801096 94.422724 
L 31.218093 92.727807 
L 32.63509 91.889113 
L 34.052086 92.034638 
L 35.469083 93.339444 
L 36.88608 93.339444 
L 38.303076 93.647248 
L 39.720073 93.090652 
L 41.137069 93.095662 
L 42.554066 91.598133 
L 43.971063 88.363371 
L 45.388059 87.166131 
L 46.805056 85.010856 
L 48.222053 80.711192 
L 49.639049 76.960652 
L 51.056046 78.069999 
L 52.473043 73.738865 
L 53.890039 75.183825 
L 55.307036 76.227957 
L 56.724033 76.588295 
L 58.141029 73.574994 
L 59.558026 71.579492 
L 60.975022 75.520898 
L 62.392019 71.855597 
L 63.809016 73.388757 
L 65.226012 71.096483 
L 66.643009 72.739549 
L 68.060006 74.134796 
L 69.477002 72.359561 
L 70.893999 75.078128 
L 72.310996 74.093654 
L 73.727992 71.706809 
L 75.144989 71.795557 
L 76.561985 73.38848 
L 77.978982 76.38231 
L 79.395979 75.772856 
L 80.812975 75.971898 
L 82.229972 78.267776 
L 83.646969 75.847376 
L 85.063965 74.128329 
L 86.480962 77.88229 
L 87.897959 75.362257 
L 89.314955 78.137784 
L 90.731952 77.27681 
L 92.148948 75.682765 
L 93.565945 77.96456 
L 94.982942 76.198015 
L 96.399938 79.007988 
L 97.816935 78.287704 
L 99.233932 74.772699 
L 100.650928 79.647009 
L 102.067925 79.320028 
L 103.484922 82.9961 
L 104.901918 81.909986 
L 106.318915 80.791168 
L 107.735911 79.804358 
L 109.152908 82.557049 
L 110.569905 82.285235 
L 111.986901 79.959743 
L 113.403898 83.086131 
L 114.820895 83.238846 
L 116.237891 83.859797 
L 117.654888 83.510649 
L 119.071885 83.383385 
L 120.488881 84.355694 
L 121.905878 83.495111 
L 123.322875 83.458508 
L 124.739871 85.011413 
" clip-path="url(#pe82e165cbd)" style="fill: none; stroke: #808080; stroke-opacity: 0.3; stroke-width: 0.5; stroke-linecap: square"/>
   </g>
   <g id="line2d_12">
    <path d="M 12.797137 93.349715 
L 14.214133 95.562529 
L 15.63113 96.762904 
L 17.048127 94.800209 
L 18.465123 95.546133 
L 19.88212 95.475735 
L 21.299117 95.241386 
L 22.716113 93.724311 
L 24.13311 93.088982 
L 25.550106 95.973853 
L 26.967103 94.107882 
L 28.3841 92.603377 
L 29.801096 96.00184 
L 31.218093 92.878366 
L 32.63509 94.884504 
L 34.052086 98.107746 
L 35.469083 94.687135 
L 36.88608 94.687135 
L 38.303076 93.89123 
L 39.720073 93.312223 
L 41.137069 96.296598 
L 42.554066 93.450868 
L 43.971063 88.339392 
L 45.388059 85.026218 
L 46.805056 78.69754 
L 48.222053 79.667576 
L 49.639049 77.214198 
L 51.056046 77.20935 
L 52.473043 73.014357 
L 53.890039 74.606281 
L 55.307036 74.306354 
L 56.724033 75.411516 
L 58.141029 72.622807 
L 59.558026 72.496041 
L 60.975022 67.480363 
L 62.392019 65.582149 
L 63.809016 65.108061 
L 65.226012 64.569779 
L 66.643009 61.529879 
L 68.060006 65.401351 
L 69.477002 67.404378 
L 70.893999 65.455551 
L 72.310996 67.615174 
L 73.727992 63.964327 
L 75.144989 65.776951 
L 76.561985 68.225325 
L 77.978982 65.162919 
L 79.395979 65.780399 
L 80.812975 69.651301 
L 82.229972 66.130141 
L 83.646969 67.207274 
L 85.063965 68.668551 
L 86.480962 66.676046 
L 87.897959 70.303871 
L 89.314955 68.83381 
L 90.731952 72.926153 
L 92.148948 70.909991 
L 93.565945 71.455746 
L 94.982942 70.625032 
L 96.399938 73.766897 
L 97.816935 74.165766 
L 99.233932 76.444908 
L 100.650928 74.608738 
L 102.067925 72.759886 
L 103.484922 76.164409 
L 104.901918 71.024035 
L 106.318915 74.887126 
L 107.735911 78.259252 
L 109.152908 74.689493 
L 110.569905 78.019024 
L 111.986901 76.170873 
L 113.403898 76.084087 
L 114.820895 78.334461 
L 116.237891 80.97589 
L 117.654888 76.885714 
L 119.071885 78.259511 
L 120.488881 78.327793 
L 121.905878 78.653747 
L 123.322875 80.867844 
L 124.739871 79.524935 
" clip-path="url(#pe82e165cbd)" style="fill: none; stroke: #808080; stroke-opacity: 0.3; stroke-width: 0.5; stroke-linecap: square"/>
   </g>
   <g id="line2d_13">
    <path d="M 12.797137 93.076712 
L 14.214133 92.96696 
L 15.63113 91.428738 
L 17.048127 92.279836 
L 18.465123 90.0904 
L 19.88212 92.221565 
L 21.299117 92.023839 
L 22.716113 92.825808 
L 24.13311 90.827524 
L 25.550106 89.728749 
L 26.967103 92.138351 
L 28.3841 90.029427 
L 29.801096 91.477564 
L 31.218093 91.552384 
L 32.63509 94.767993 
L 34.052086 92.116192 
L 35.469083 92.309218 
L 36.88608 92.309218 
L 38.303076 91.729448 
L 39.720073 92.504262 
L 41.137069 92.115168 
L 42.554066 90.426823 
L 43.971063 90.469164 
L 45.388059 83.06578 
L 46.805056 78.522888 
L 48.222053 77.859523 
L 49.639049 78.310964 
L 51.056046 76.102535 
L 52.473043 69.379681 
L 53.890039 75.556685 
L 55.307036 77.24075 
L 56.724033 74.351543 
L 58.141029 74.38812 
L 59.558026 70.94532 
L 60.975022 69.010586 
L 62.392019 66.872141 
L 63.809016 61.758916 
L 65.226012 61.593195 
L 66.643009 63.298986 
L 68.060006 59.950737 
L 69.477002 63.657973 
L 70.893999 62.765766 
L 72.310996 62.734178 
L 73.727992 65.785416 
L 75.144989 66.78271 
L 76.561985 70.289447 
L 77.978982 69.128031 
L 79.395979 65.175559 
L 80.812975 69.241033 
L 82.229972 63.928674 
L 83.646969 69.37189 
L 85.063965 69.972642 
L 86.480962 66.662425 
L 87.897959 68.77617 
L 89.314955 66.937614 
L 90.731952 66.276355 
L 92.148948 66.387359 
L 93.565945 69.913095 
L 94.982942 71.084974 
L 96.399938 74.103713 
L 97.816935 71.665681 
L 99.233932 74.128933 
L 100.650928 74.516301 
L 102.067925 78.383844 
L 103.484922 74.990824 
L 104.901918 72.052152 
L 106.318915 74.798744 
L 107.735911 74.871141 
L 109.152908 72.980017 
L 110.569905 74.088599 
L 111.986901 75.413216 
L 113.403898 78.982401 
L 114.820895 74.470095 
L 116.237891 76.550723 
L 117.654888 76.333249 
L 119.071885 73.907118 
L 120.488881 70.897247 
L 121.905878 75.277623 
L 123.322875 75.698043 
L 124.739871 73.94198 
" clip-path="url(#pe82e165cbd)" style="fill: none; stroke: #808080; stroke-opacity: 0.3; stroke-width: 0.5; stroke-linecap: square"/>
   </g>
   <g id="line2d_14">
    <path d="M 12.797137 90.487108 
L 14.214133 88.934973 
L 15.63113 91.346357 
L 17.048127 90.816347 
L 18.465123 89.512085 
L 19.88212 89.214033 
L 21.299117 89.570852 
L 22.716113 91.588674 
L 24.13311 90.012167 
L 25.550106 91.674198 
L 26.967103 91.414545 
L 28.3841 90.037058 
L 29.801096 92.131915 
L 31.218093 90.285418 
L 32.63509 90.678186 
L 34.052086 88.982848 
L 35.469083 91.763162 
L 36.88608 91.763162 
L 38.303076 95.427237 
L 39.720073 93.517703 
L 41.137069 93.642476 
L 42.554066 90.391814 
L 43.971063 84.729769 
L 45.388059 81.872589 
L 46.805056 75.047041 
L 48.222053 69.156882 
L 49.639049 64.88779 
L 51.056046 66.312685 
L 52.473043 64.319679 
L 53.890039 67.065344 
L 55.307036 65.732682 
L 56.724033 67.224423 
L 58.141029 63.725937 
L 59.558026 58.214856 
L 60.975022 56.108629 
L 62.392019 51.485356 
L 63.809016 49.35463 
L 65.226012 41.67238 
L 66.643009 49.151697 
L 68.060006 50.370773 
L 69.477002 47.538304 
L 70.893999 52.412378 
L 72.310996 48.805156 
L 73.727992 54.978 
L 75.144989 54.406411 
L 76.561985 53.098313 
L 77.978982 54.943343 
L 79.395979 53.164073 
L 80.812975 51.135593 
L 82.229972 55.831551 
L 83.646969 47.842673 
L 85.063965 56.103167 
L 86.480962 60.72075 
L 87.897959 57.290189 
L 89.314955 61.362267 
L 90.731952 55.470692 
L 92.148948 60.988783 
L 93.565945 53.202506 
L 94.982942 61.095501 
L 96.399938 62.97595 
L 97.816935 56.253195 
L 99.233932 60.332159 
L 100.650928 63.004531 
L 102.067925 61.907637 
L 103.484922 67.893429 
L 104.901918 61.904406 
L 106.318915 65.465349 
L 107.735911 67.220587 
L 109.152908 63.325257 
L 110.569905 64.515039 
L 111.986901 65.437092 
L 113.403898 66.680696 
L 114.820895 65.618655 
L 116.237891 65.831394 
L 117.654888 64.757954 
L 119.071885 69.908681 
L 120.488881 66.793472 
L 121.905878 69.791722 
L 123.322875 70.228193 
L 124.739871 64.442119 
" clip-path="url(#pe82e165cbd)" style="fill: none; stroke: #808080; stroke-opacity: 0.3; stroke-width: 0.5; stroke-linecap: square"/>
   </g>
   <g id="line2d_15">
    <path d="M 12.797137 90.155283 
L 14.214133 90.103988 
L 15.63113 91.966941 
L 17.048127 89.190113 
L 18.465123 89.647725 
L 19.88212 91.057035 
L 21.299117 92.417146 
L 22.716113 90.852654 
L 24.13311 91.213698 
L 25.550106 91.672242 
L 26.967103 90.432251 
L 28.3841 91.68067 
L 29.801096 91.905258 
L 31.218093 89.301393 
L 32.63509 90.847298 
L 34.052086 91.616343 
L 35.469083 93.035196 
L 36.88608 93.035196 
L 38.303076 94.422137 
L 39.720073 90.208356 
L 41.137069 93.585167 
L 42.554066 89.602927 
L 43.971063 85.637646 
L 45.388059 80.569075 
L 46.805056 75.372357 
L 48.222053 75.221695 
L 49.639049 73.251475 
L 51.056046 69.572876 
L 52.473043 71.352935 
L 53.890039 69.700498 
L 55.307036 70.803198 
L 56.724033 71.958288 
L 58.141029 70.019897 
L 59.558026 73.179268 
L 60.975022 70.434525 
L 62.392019 73.611795 
L 63.809016 73.310248 
L 65.226012 71.994427 
L 66.643009 71.908978 
L 68.060006 73.967629 
L 69.477002 71.124187 
L 70.893999 76.488834 
L 72.310996 74.340447 
L 73.727992 75.38143 
L 75.144989 75.604937 
L 76.561985 74.722235 
L 77.978982 72.543364 
L 79.395979 75.903669 
L 80.812975 78.650022 
L 82.229972 77.263392 
L 83.646969 71.522186 
L 85.063965 73.757568 
L 86.480962 78.348268 
L 87.897959 75.179155 
L 89.314955 73.537668 
L 90.731952 78.767439 
L 92.148948 77.037333 
L 93.565945 76.043935 
L 94.982942 77.627508 
L 96.399938 75.877026 
L 97.816935 76.45874 
L 99.233932 76.971186 
L 100.650928 76.529806 
L 102.067925 80.713897 
L 103.484922 80.019721 
L 104.901918 77.983517 
L 106.318915 76.590667 
L 107.735911 79.687696 
L 109.152908 78.551242 
L 110.569905 77.530944 
L 111.986901 76.667472 
L 113.403898 77.59398 
L 114.820895 77.512825 
L 116.237891 80.393395 
L 117.654888 76.859433 
L 119.071885 78.627712 
L 120.488881 78.199543 
L 121.905878 81.217575 
L 123.322875 79.265302 
L 124.739871 80.770574 
" clip-path="url(#pe82e165cbd)" style="fill: none; stroke: #808080; stroke-opacity: 0.3; stroke-width: 0.5; stroke-linecap: square"/>
   </g>
   <g id="line2d_16">
    <path d="M 12.797137 93.613697 
L 14.214133 95.150771 
L 15.63113 94.250328 
L 17.048127 94.547323 
L 18.465123 94.840824 
L 19.88212 95.359828 
L 21.299117 93.165338 
L 22.716113 96.076704 
L 24.13311 93.808797 
L 25.550106 93.719485 
L 26.967103 92.940046 
L 28.3841 92.874204 
L 29.801096 93.155744 
L 31.218093 93.827504 
L 32.63509 94.866981 
L 34.052086 92.395974 
L 35.469083 93.129957 
L 36.88608 93.129957 
L 38.303076 94.082216 
L 39.720073 91.530342 
L 41.137069 93.025959 
L 42.554066 92.109429 
L 43.971063 92.726622 
L 45.388059 93.294175 
L 46.805056 90.228959 
L 48.222053 91.252712 
L 49.639049 91.117145 
L 51.056046 93.396901 
L 52.473043 93.595088 
L 53.890039 95.377562 
L 55.307036 92.223164 
L 56.724033 93.507219 
L 58.141029 92.522531 
L 59.558026 92.410429 
L 60.975022 93.520089 
L 62.392019 93.001147 
L 63.809016 89.256112 
L 65.226012 90.878553 
L 66.643009 90.517783 
L 68.060006 90.084664 
L 69.477002 91.616483 
L 70.893999 90.464817 
L 72.310996 86.801522 
L 73.727992 90.672497 
L 75.144989 89.355847 
L 76.561985 91.057799 
L 77.978982 93.168455 
L 79.395979 88.211628 
L 80.812975 90.313959 
L 82.229972 89.710579 
L 83.646969 89.752285 
L 85.063965 92.049847 
L 86.480962 90.152952 
L 87.897959 91.777213 
L 89.314955 91.497428 
L 90.731952 92.351542 
L 92.148948 90.722855 
L 93.565945 89.020908 
L 94.982942 91.499417 
L 96.399938 91.222422 
L 97.816935 87.222093 
L 99.233932 91.240262 
L 100.650928 90.732775 
L 102.067925 92.773081 
L 103.484922 90.880465 
L 104.901918 95.290193 
L 106.318915 92.390083 
L 107.735911 92.177534 
L 109.152908 90.727833 
L 110.569905 89.727957 
L 111.986901 91.099709 
L 113.403898 91.532633 
L 114.820895 92.790581 
L 116.237891 94.161244 
L 117.654888 94.553075 
L 119.071885 91.053933 
L 120.488881 92.667426 
L 121.905878 93.395727 
L 123.322875 94.391742 
L 124.739871 93.374839 
" clip-path="url(#pe82e165cbd)" style="fill: none; stroke: #808080; stroke-opacity: 0.3; stroke-width: 0.5; stroke-linecap: square"/>
   </g>
   <g id="line2d_17">
    <path d="M 12.797137 91.07582 
L 14.214133 92.07309 
L 15.63113 90.638992 
L 17.048127 91.747166 
L 18.465123 91.594783 
L 19.88212 93.8211 
L 21.299117 91.699034 
L 22.716113 91.24445 
L 24.13311 89.620421 
L 25.550106 91.848591 
L 26.967103 92.90698 
L 28.3841 90.888497 
L 29.801096 94.901765 
L 31.218093 91.128612 
L 32.63509 90.331191 
L 34.052086 89.881006 
L 35.469083 91.347338 
L 36.88608 91.347338 
L 38.303076 92.134207 
L 39.720073 91.08255 
L 41.137069 90.713395 
L 42.554066 91.90944 
L 43.971063 83.567954 
L 45.388059 82.683716 
L 46.805056 79.608117 
L 48.222053 78.771543 
L 49.639049 79.267797 
L 51.056046 80.056151 
L 52.473043 79.085841 
L 53.890039 79.530932 
L 55.307036 81.832386 
L 56.724033 77.013971 
L 58.141029 80.144097 
L 59.558026 79.541487 
L 60.975022 80.337475 
L 62.392019 79.613495 
L 63.809016 79.832045 
L 65.226012 79.085613 
L 66.643009 80.793693 
L 68.060006 79.865008 
L 69.477002 82.838162 
L 70.893999 80.783758 
L 72.310996 80.899558 
L 73.727992 80.499586 
L 75.144989 80.750489 
L 76.561985 80.316232 
L 77.978982 80.752405 
L 79.395979 82.836079 
L 80.812975 80.68407 
L 82.229972 81.841752 
L 83.646969 82.169824 
L 85.063965 82.332488 
L 86.480962 85.338351 
L 87.897959 83.675794 
L 89.314955 83.294041 
L 90.731952 83.868739 
L 92.148948 82.218102 
L 93.565945 82.855041 
L 94.982942 85.134729 
L 96.399938 83.752242 
L 97.816935 87.191308 
L 99.233932 82.991999 
L 100.650928 85.755789 
L 102.067925 84.256072 
L 103.484922 84.606449 
L 104.901918 83.31905 
L 106.318915 83.206447 
L 107.735911 84.31348 
L 109.152908 83.214407 
L 110.569905 86.795387 
L 111.986901 83.490221 
L 113.403898 85.932286 
L 114.820895 83.401432 
L 116.237891 86.05484 
L 117.654888 84.806779 
L 119.071885 85.770635 
L 120.488881 83.883124 
L 121.905878 85.975116 
L 123.322875 84.760793 
L 124.739871 87.179401 
" clip-path="url(#pe82e165cbd)" style="fill: none; stroke: #808080; stroke-opacity: 0.3; stroke-width: 0.5; stroke-linecap: square"/>
   </g>
   <g id="line2d_18">
    <path d="M 12.797137 92.938561 
L 14.214133 92.489167 
L 15.63113 92.15783 
L 17.048127 91.703436 
L 18.465123 92.773639 
L 19.88212 91.653383 
L 21.299117 90.130606 
L 22.716113 91.95487 
L 24.13311 92.307727 
L 25.550106 90.215436 
L 26.967103 93.185169 
L 28.3841 92.320717 
L 29.801096 91.576809 
L 31.218093 93.208333 
L 32.63509 90.646587 
L 34.052086 94.63247 
L 35.469083 92.818725 
L 36.88608 92.818725 
L 38.303076 94.33203 
L 39.720073 93.12704 
L 41.137069 93.390812 
L 42.554066 92.420002 
L 43.971063 88.279126 
L 45.388059 86.794242 
L 46.805056 84.763531 
L 48.222053 83.527229 
L 49.639049 81.941622 
L 51.056046 83.731886 
L 52.473043 77.815071 
L 53.890039 82.095098 
L 55.307036 82.802772 
L 56.724033 77.524455 
L 58.141029 82.086733 
L 59.558026 73.342474 
L 60.975022 72.821018 
L 62.392019 75.933295 
L 63.809016 75.536828 
L 65.226012 75.656464 
L 66.643009 73.161865 
L 68.060006 73.099914 
L 69.477002 72.797151 
L 70.893999 75.159452 
L 72.310996 72.22384 
L 73.727992 76.32265 
L 75.144989 75.636866 
L 76.561985 76.041046 
L 77.978982 75.108134 
L 79.395979 77.227914 
L 80.812975 76.278653 
L 82.229972 77.141478 
L 83.646969 76.992935 
L 85.063965 79.274523 
L 86.480962 78.390976 
L 87.897959 77.784368 
L 89.314955 75.096137 
L 90.731952 79.23529 
L 92.148948 76.908989 
L 93.565945 79.408949 
L 94.982942 80.649116 
L 96.399938 81.438536 
L 97.816935 79.485188 
L 99.233932 79.439135 
L 100.650928 80.163352 
L 102.067925 78.988104 
L 103.484922 79.223977 
L 104.901918 81.068462 
L 106.318915 84.436589 
L 107.735911 81.606922 
L 109.152908 82.136937 
L 110.569905 83.163648 
L 111.986901 79.60681 
L 113.403898 81.984788 
L 114.820895 84.410576 
L 116.237891 81.985627 
L 117.654888 83.731127 
L 119.071885 83.179554 
L 120.488881 83.231708 
L 121.905878 83.992476 
L 123.322875 86.403055 
L 124.739871 84.832124 
" clip-path="url(#pe82e165cbd)" style="fill: none; stroke: #808080; stroke-opacity: 0.3; stroke-width: 0.5; stroke-linecap: square"/>
   </g>
   <g id="line2d_19">
    <path d="M 12.797137 93.302689 
L 14.214133 92.720839 
L 15.63113 94.105627 
L 17.048127 95.021442 
L 18.465123 92.966605 
L 19.88212 93.732411 
L 21.299117 95.163839 
L 22.716113 93.622453 
L 24.13311 93.644534 
L 25.550106 94.698107 
L 26.967103 93.181463 
L 28.3841 94.733178 
L 29.801096 92.840334 
L 31.218093 91.604131 
L 32.63509 93.764999 
L 34.052086 93.379137 
L 35.469083 94.707557 
L 36.88608 94.707557 
L 38.303076 94.094444 
L 39.720073 92.677601 
L 41.137069 94.480686 
L 42.554066 89.699837 
L 43.971063 87.117921 
L 45.388059 82.384616 
L 46.805056 82.442816 
L 48.222053 76.721263 
L 49.639049 76.417719 
L 51.056046 75.054886 
L 52.473043 76.828562 
L 53.890039 77.765451 
L 55.307036 78.708877 
L 56.724033 75.876174 
L 58.141029 77.989259 
L 59.558026 71.573803 
L 60.975022 70.185847 
L 62.392019 69.278573 
L 63.809016 64.261851 
L 65.226012 65.925939 
L 66.643009 67.939979 
L 68.060006 70.798488 
L 69.477002 66.950605 
L 70.893999 67.537046 
L 72.310996 69.648361 
L 73.727992 70.891062 
L 75.144989 70.814352 
L 76.561985 70.120274 
L 77.978982 73.10964 
L 79.395979 73.175012 
L 80.812975 75.50745 
L 82.229972 70.623399 
L 83.646969 73.133763 
L 85.063965 74.46307 
L 86.480962 73.288767 
L 87.897959 72.648392 
L 89.314955 72.210053 
L 90.731952 77.994299 
L 92.148948 75.224996 
L 93.565945 73.058601 
L 94.982942 75.682164 
L 96.399938 77.77193 
L 97.816935 78.347959 
L 99.233932 78.095368 
L 100.650928 78.480811 
L 102.067925 79.984396 
L 103.484922 76.248409 
L 104.901918 81.280473 
L 106.318915 77.84268 
L 107.735911 81.119561 
L 109.152908 78.933115 
L 110.569905 80.036891 
L 111.986901 83.132859 
L 113.403898 79.745771 
L 114.820895 80.098618 
L 116.237891 80.927064 
L 117.654888 78.691857 
L 119.071885 81.413036 
L 120.488881 82.501415 
L 121.905878 82.489102 
L 123.322875 81.329483 
L 124.739871 82.525339 
" clip-path="url(#pe82e165cbd)" style="fill: none; stroke: #808080; stroke-opacity: 0.3; stroke-width: 0.5; stroke-linecap: square"/>
   </g>
   <g id="line2d_20">
    <path d="M 12.797137 95.448731 
L 14.214133 94.831063 
L 15.63113 93.907073 
L 17.048127 93.612693 
L 18.465123 93.276039 
L 19.88212 95.252369 
L 21.299117 93.181219 
L 22.716113 91.056556 
L 24.13311 92.546811 
L 25.550106 95.742526 
L 26.967103 94.164875 
L 28.3841 93.906623 
L 29.801096 93.825602 
L 31.218093 95.027359 
L 32.63509 94.51696 
L 34.052086 94.524804 
L 35.469083 94.063492 
L 36.88608 94.063492 
L 38.303076 96.509502 
L 39.720073 93.160308 
L 41.137069 94.350919 
L 42.554066 88.050834 
L 43.971063 86.695496 
L 45.388059 81.112316 
L 46.805056 71.154236 
L 48.222053 71.696627 
L 49.639049 73.934072 
L 51.056046 71.951556 
L 52.473043 73.045245 
L 53.890039 70.380226 
L 55.307036 74.755731 
L 56.724033 73.205396 
L 58.141029 72.413259 
L 59.558026 65.165589 
L 60.975022 63.842155 
L 62.392019 64.577327 
L 63.809016 67.039323 
L 65.226012 65.291021 
L 66.643009 63.11033 
L 68.060006 63.771348 
L 69.477002 63.30128 
L 70.893999 65.667847 
L 72.310996 65.390459 
L 73.727992 64.569046 
L 75.144989 65.734859 
L 76.561985 62.36614 
L 77.978982 67.700698 
L 79.395979 66.639483 
L 80.812975 69.183642 
L 82.229972 67.103125 
L 83.646969 67.196065 
L 85.063965 70.459372 
L 86.480962 69.400979 
L 87.897959 65.304913 
L 89.314955 68.97569 
L 90.731952 72.549069 
L 92.148948 68.399958 
L 93.565945 69.226557 
L 94.982942 69.020614 
L 96.399938 72.81613 
L 97.816935 72.506808 
L 99.233932 76.395753 
L 100.650928 72.525178 
L 102.067925 74.787435 
L 103.484922 75.876122 
L 104.901918 75.322767 
L 106.318915 76.160151 
L 107.735911 76.307468 
L 109.152908 75.601813 
L 110.569905 76.484875 
L 111.986901 73.635445 
L 113.403898 76.491278 
L 114.820895 77.321791 
L 116.237891 76.869786 
L 117.654888 78.406733 
L 119.071885 77.529855 
L 120.488881 78.796502 
L 121.905878 80.240121 
L 123.322875 79.043048 
L 124.739871 79.547951 
" clip-path="url(#pe82e165cbd)" style="fill: none; stroke: #808080; stroke-opacity: 0.3; stroke-width: 0.5; stroke-linecap: square"/>
   </g>
   <g id="line2d_21">
    <path d="M 12.797137 95.15099 
L 14.214133 93.087765 
L 15.63113 95.877644 
L 17.048127 92.3541 
L 18.465123 92.991676 
L 19.88212 93.291149 
L 21.299117 94.586014 
L 22.716113 94.931505 
L 24.13311 96.178582 
L 25.550106 97.230644 
L 26.967103 95.271893 
L 28.3841 97.437008 
L 29.801096 93.556884 
L 31.218093 94.413734 
L 32.63509 94.508695 
L 34.052086 96.355918 
L 35.469083 93.431145 
L 36.88608 93.431145 
L 38.303076 93.485824 
L 39.720073 93.463292 
L 41.137069 94.021711 
L 42.554066 90.732837 
L 43.971063 88.692768 
L 45.388059 82.208206 
L 46.805056 71.756598 
L 48.222053 72.627171 
L 49.639049 67.177832 
L 51.056046 68.926877 
L 52.473043 68.683108 
L 53.890039 67.577651 
L 55.307036 67.570754 
L 56.724033 67.232495 
L 58.141029 68.920306 
L 59.558026 63.475177 
L 60.975022 53.42155 
L 62.392019 54.979589 
L 63.809016 54.116314 
L 65.226012 49.811073 
L 66.643009 49.4549 
L 68.060006 42.338887 
L 69.477002 47.951791 
L 70.893999 45.880895 
L 72.310996 45.199818 
L 73.727992 48.824113 
L 75.144989 51.36612 
L 76.561985 49.948071 
L 77.978982 51.680079 
L 79.395979 53.794192 
L 80.812975 53.016237 
L 82.229972 51.362804 
L 83.646969 55.381207 
L 85.063965 52.594574 
L 86.480962 58.001133 
L 87.897959 58.981215 
L 89.314955 57.52393 
L 90.731952 55.254789 
L 92.148948 60.915532 
L 93.565945 58.857468 
L 94.982942 62.346089 
L 96.399938 62.349195 
L 97.816935 65.629755 
L 99.233932 60.507472 
L 100.650928 64.566703 
L 102.067925 64.264556 
L 103.484922 65.06745 
L 104.901918 61.545874 
L 106.318915 64.445203 
L 107.735911 65.200097 
L 109.152908 66.735322 
L 110.569905 70.910759 
L 111.986901 67.13808 
L 113.403898 69.021864 
L 114.820895 70.663401 
L 116.237891 68.4387 
L 117.654888 69.410696 
L 119.071885 69.710857 
L 120.488881 72.124381 
L 121.905878 70.990221 
L 123.322875 76.007122 
L 124.739871 76.541004 
" clip-path="url(#pe82e165cbd)" style="fill: none; stroke: #808080; stroke-opacity: 0.3; stroke-width: 0.5; stroke-linecap: square"/>
   </g>
   <g id="line2d_22">
    <path d="M 12.797137 91.564837 
L 14.214133 93.928534 
L 15.63113 93.269069 
L 17.048127 93.556436 
L 18.465123 91.894605 
L 19.88212 93.235348 
L 21.299117 91.491483 
L 22.716113 93.149955 
L 24.13311 92.849446 
L 25.550106 92.316513 
L 26.967103 91.318992 
L 28.3841 93.331144 
L 29.801096 92.483347 
L 31.218093 94.855349 
L 32.63509 94.000712 
L 34.052086 92.641211 
L 35.469083 92.919498 
L 36.88608 92.919498 
L 38.303076 93.558734 
L 39.720073 90.775846 
L 41.137069 94.38345 
L 42.554066 94.077466 
L 43.971063 88.724589 
L 45.388059 81.740296 
L 46.805056 81.972401 
L 48.222053 78.642795 
L 49.639049 77.630116 
L 51.056046 76.336411 
L 52.473043 78.36799 
L 53.890039 75.667819 
L 55.307036 75.498416 
L 56.724033 77.170182 
L 58.141029 72.036289 
L 59.558026 61.038439 
L 60.975022 58.864882 
L 62.392019 61.532671 
L 63.809016 58.021392 
L 65.226012 60.053731 
L 66.643009 55.931252 
L 68.060006 55.295473 
L 69.477002 58.053485 
L 70.893999 58.010023 
L 72.310996 58.509808 
L 73.727992 60.869386 
L 75.144989 57.553598 
L 76.561985 62.089398 
L 77.978982 62.657374 
L 79.395979 57.881247 
L 80.812975 62.949876 
L 82.229972 59.675544 
L 83.646969 61.571872 
L 85.063965 64.30452 
L 86.480962 60.260853 
L 87.897959 63.100265 
L 89.314955 62.365621 
L 90.731952 65.564058 
L 92.148948 68.372769 
L 93.565945 66.133445 
L 94.982942 67.483558 
L 96.399938 66.006304 
L 97.816935 69.179274 
L 99.233932 66.615583 
L 100.650928 68.182332 
L 102.067925 70.871511 
L 103.484922 69.171326 
L 104.901918 69.63437 
L 106.318915 69.320411 
L 107.735911 71.274632 
L 109.152908 69.912348 
L 110.569905 70.837661 
L 111.986901 70.617742 
L 113.403898 70.694329 
L 114.820895 67.497248 
L 116.237891 72.416671 
L 117.654888 72.590994 
L 119.071885 76.0853 
L 120.488881 74.698407 
L 121.905878 74.149768 
L 123.322875 72.24873 
L 124.739871 72.22683 
" clip-path="url(#pe82e165cbd)" style="fill: none; stroke: #808080; stroke-opacity: 0.3; stroke-width: 0.5; stroke-linecap: square"/>
   </g>
   <g id="line2d_23">
    <path d="M 12.797137 91.60058 
L 14.214133 89.103568 
L 15.63113 90.220353 
L 17.048127 89.17295 
L 18.465123 91.619186 
L 19.88212 90.331038 
L 21.299117 91.19191 
L 22.716113 91.639547 
L 24.13311 91.089801 
L 25.550106 89.227439 
L 26.967103 90.746994 
L 28.3841 88.91963 
L 29.801096 93.327596 
L 31.218093 90.231283 
L 32.63509 88.24324 
L 34.052086 91.260577 
L 35.469083 91.8776 
L 36.88608 91.8776 
L 38.303076 93.672749 
L 39.720073 92.089232 
L 41.137069 92.338212 
L 42.554066 91.981826 
L 43.971063 87.858235 
L 45.388059 84.622908 
L 46.805056 85.656496 
L 48.222053 82.48004 
L 49.639049 81.639758 
L 51.056046 82.03905 
L 52.473043 83.844298 
L 53.890039 82.401022 
L 55.307036 83.118019 
L 56.724033 82.178774 
L 58.141029 84.00701 
L 59.558026 80.930073 
L 60.975022 81.331916 
L 62.392019 75.727662 
L 63.809016 72.233295 
L 65.226012 67.247307 
L 66.643009 74.431447 
L 68.060006 73.140107 
L 69.477002 73.979659 
L 70.893999 71.581846 
L 72.310996 69.117335 
L 73.727992 70.783692 
L 75.144989 70.028696 
L 76.561985 69.775672 
L 77.978982 72.143471 
L 79.395979 71.991986 
L 80.812975 71.231 
L 82.229972 72.571665 
L 83.646969 70.592645 
L 85.063965 74.941676 
L 86.480962 75.631674 
L 87.897959 75.685899 
L 89.314955 74.137886 
L 90.731952 73.325392 
L 92.148948 78.485106 
L 93.565945 76.783744 
L 94.982942 77.910684 
L 96.399938 77.048327 
L 97.816935 75.962004 
L 99.233932 79.119559 
L 100.650928 78.577835 
L 102.067925 76.068619 
L 103.484922 80.022141 
L 104.901918 78.115345 
L 106.318915 79.55328 
L 107.735911 78.961568 
L 109.152908 79.917421 
L 110.569905 78.951655 
L 111.986901 79.282137 
L 113.403898 81.517324 
L 114.820895 82.782692 
L 116.237891 79.748818 
L 117.654888 79.698783 
L 119.071885 82.19934 
L 120.488881 80.478816 
L 121.905878 79.837098 
L 123.322875 82.742412 
L 124.739871 83.488389 
" clip-path="url(#pe82e165cbd)" style="fill: none; stroke: #808080; stroke-opacity: 0.3; stroke-width: 0.5; stroke-linecap: square"/>
   </g>
   <g id="line2d_24">
    <path d="M 12.797137 96.039187 
L 14.214133 95.702937 
L 15.63113 93.361087 
L 17.048127 95.513761 
L 18.465123 96.687901 
L 19.88212 93.822399 
L 21.299117 94.518977 
L 22.716113 95.97913 
L 24.13311 95.300416 
L 25.550106 94.849147 
L 26.967103 96.019583 
L 28.3841 96.592106 
L 29.801096 95.164806 
L 31.218093 95.30592 
L 32.63509 96.837482 
L 34.052086 94.193159 
L 35.469083 93.602075 
L 36.88608 93.602075 
L 38.303076 93.810635 
L 39.720073 94.098678 
L 41.137069 91.432588 
L 42.554066 90.300409 
L 43.971063 85.225819 
L 45.388059 82.19773 
L 46.805056 80.278865 
L 48.222053 82.251004 
L 49.639049 81.510293 
L 51.056046 80.540127 
L 52.473043 80.173956 
L 53.890039 79.911133 
L 55.307036 81.289688 
L 56.724033 77.787261 
L 58.141029 77.600988 
L 59.558026 78.23155 
L 60.975022 78.254791 
L 62.392019 81.142181 
L 63.809016 76.810514 
L 65.226012 79.115085 
L 66.643009 79.180231 
L 68.060006 83.438231 
L 69.477002 84.602014 
L 70.893999 78.583877 
L 72.310996 79.135624 
L 73.727992 82.359401 
L 75.144989 82.82399 
L 76.561985 82.872161 
L 77.978982 81.96935 
L 79.395979 80.427958 
L 80.812975 84.843155 
L 82.229972 84.897738 
L 83.646969 86.443831 
L 85.063965 84.632984 
L 86.480962 88.8492 
L 87.897959 84.121657 
L 89.314955 86.267063 
L 90.731952 87.938079 
L 92.148948 88.034806 
L 93.565945 88.938983 
L 94.982942 86.53069 
L 96.399938 87.139213 
L 97.816935 84.774221 
L 99.233932 86.661201 
L 100.650928 85.890821 
L 102.067925 86.53436 
L 103.484922 85.806127 
L 104.901918 87.984539 
L 106.318915 87.808684 
L 107.735911 87.418248 
L 109.152908 88.356134 
L 110.569905 87.800748 
L 111.986901 89.252568 
L 113.403898 87.031987 
L 114.820895 88.060167 
L 116.237891 89.885094 
L 117.654888 86.768095 
L 119.071885 89.197769 
L 120.488881 88.999279 
L 121.905878 91.118922 
L 123.322875 89.793275 
L 124.739871 87.563957 
" clip-path="url(#pe82e165cbd)" style="fill: none; stroke: #808080; stroke-opacity: 0.3; stroke-width: 0.5; stroke-linecap: square"/>
   </g>
   <g id="line2d_25">
    <path d="M 12.797137 90.639178 
L 14.214133 91.654294 
L 15.63113 90.925553 
L 17.048127 89.001947 
L 18.465123 90.129799 
L 19.88212 89.522124 
L 21.299117 90.18384 
L 22.716113 89.817303 
L 24.13311 90.218675 
L 25.550106 91.371257 
L 26.967103 90.731814 
L 28.3841 92.076689 
L 29.801096 92.500218 
L 31.218093 91.087826 
L 32.63509 91.793161 
L 34.052086 89.61368 
L 35.469083 91.924385 
L 36.88608 91.924385 
L 38.303076 93.00237 
L 39.720073 92.962964 
L 41.137069 92.587683 
L 42.554066 89.159235 
L 43.971063 86.72683 
L 45.388059 82.572381 
L 46.805056 75.086441 
L 48.222053 73.645309 
L 49.639049 72.422315 
L 51.056046 70.366664 
L 52.473043 71.785141 
L 53.890039 71.146121 
L 55.307036 71.561991 
L 56.724033 68.235425 
L 58.141029 67.600485 
L 59.558026 67.556966 
L 60.975022 70.502737 
L 62.392019 68.498723 
L 63.809016 69.370128 
L 65.226012 62.556176 
L 66.643009 66.193877 
L 68.060006 67.634573 
L 69.477002 69.167888 
L 70.893999 67.709904 
L 72.310996 68.0751 
L 73.727992 71.035172 
L 75.144989 72.647535 
L 76.561985 71.079234 
L 77.978982 74.521563 
L 79.395979 73.810307 
L 80.812975 74.007318 
L 82.229972 74.312433 
L 83.646969 72.533099 
L 85.063965 73.221027 
L 86.480962 76.234258 
L 87.897959 77.112436 
L 89.314955 75.633198 
L 90.731952 76.333384 
L 92.148948 76.561785 
L 93.565945 74.710782 
L 94.982942 74.545789 
L 96.399938 77.050698 
L 97.816935 79.022843 
L 99.233932 78.624593 
L 100.650928 77.955621 
L 102.067925 78.933724 
L 103.484922 79.799421 
L 104.901918 76.204791 
L 106.318915 78.194189 
L 107.735911 80.417817 
L 109.152908 81.614545 
L 110.569905 79.830391 
L 111.986901 80.661378 
L 113.403898 81.067475 
L 114.820895 82.440193 
L 116.237891 80.452768 
L 117.654888 82.893812 
L 119.071885 80.025173 
L 120.488881 80.359984 
L 121.905878 83.380758 
L 123.322875 81.593104 
L 124.739871 82.620377 
" clip-path="url(#pe82e165cbd)" style="fill: none; stroke: #808080; stroke-opacity: 0.3; stroke-width: 0.5; stroke-linecap: square"/>
   </g>
   <g id="line2d_26">
    <path d="M 12.797137 93.286806 
L 14.214133 93.227757 
L 15.63113 96.768325 
L 17.048127 96.315242 
L 18.465123 95.232866 
L 19.88212 94.421703 
L 21.299117 95.104856 
L 22.716113 95.512845 
L 24.13311 93.456003 
L 25.550106 92.958399 
L 26.967103 93.533716 
L 28.3841 94.397051 
L 29.801096 94.99656 
L 31.218093 94.458753 
L 32.63509 92.145713 
L 34.052086 93.003786 
L 35.469083 93.240177 
L 36.88608 93.240177 
L 38.303076 93.088857 
L 39.720073 92.162245 
L 41.137069 90.151555 
L 42.554066 92.260779 
L 43.971063 90.884625 
L 45.388059 83.796672 
L 46.805056 78.956582 
L 48.222053 75.123265 
L 49.639049 74.125808 
L 51.056046 74.324961 
L 52.473043 74.213787 
L 53.890039 73.7791 
L 55.307036 74.64512 
L 56.724033 73.351906 
L 58.141029 73.092057 
L 59.558026 67.868749 
L 60.975022 68.411985 
L 62.392019 63.117199 
L 63.809016 55.740436 
L 65.226012 53.865416 
L 66.643009 52.313642 
L 68.060006 52.33744 
L 69.477002 49.023475 
L 70.893999 53.038983 
L 72.310996 52.408486 
L 73.727992 54.043981 
L 75.144989 53.516371 
L 76.561985 46.849787 
L 77.978982 52.048356 
L 79.395979 49.582125 
L 80.812975 53.109416 
L 82.229972 51.337867 
L 83.646969 53.096078 
L 85.063965 56.274359 
L 86.480962 55.333511 
L 87.897959 55.810614 
L 89.314955 53.836276 
L 90.731952 58.471194 
L 92.148948 56.609958 
L 93.565945 60.222797 
L 94.982942 58.729767 
L 96.399938 56.438569 
L 97.816935 59.486805 
L 99.233932 59.614532 
L 100.650928 59.244417 
L 102.067925 62.789124 
L 103.484922 60.976483 
L 104.901918 63.199534 
L 106.318915 64.472302 
L 107.735911 66.026762 
L 109.152908 68.073136 
L 110.569905 66.553505 
L 111.986901 70.056609 
L 113.403898 68.888982 
L 114.820895 66.560442 
L 116.237891 67.778053 
L 117.654888 68.225078 
L 119.071885 66.168407 
L 120.488881 65.059469 
L 121.905878 69.358413 
L 123.322875 67.868256 
L 124.739871 69.899769 
" clip-path="url(#pe82e165cbd)" style="fill: none; stroke: #808080; stroke-opacity: 0.3; stroke-width: 0.5; stroke-linecap: square"/>
   </g>
   <g id="line2d_27">
    <path d="M 12.797137 92.80158 
L 14.214133 92.778143 
L 15.63113 93.108653 
L 17.048127 92.60949 
L 18.465123 92.646447 
L 19.88212 93.303295 
L 21.299117 92.564191 
L 22.716113 93.093868 
L 24.13311 92.783585 
L 25.550106 93.288508 
L 26.967103 93.023397 
L 28.3841 93.085858 
L 29.801096 93.349335 
L 31.218093 93.190202 
L 32.63509 92.770358 
L 34.052086 93.343061 
L 35.469083 93.306461 
L 36.88608 93.306461 
L 38.303076 93.702182 
L 39.720073 92.899476 
L 41.137069 92.920507 
L 42.554066 91.546842 
L 43.971063 88.700147 
L 45.388059 85.321871 
L 46.805056 81.059234 
L 48.222053 79.174388 
L 49.639049 78.094487 
L 51.056046 77.95627 
L 52.473043 76.920162 
L 53.890039 77.100522 
L 55.307036 77.678239 
L 56.724033 76.870322 
L 58.141029 76.14374 
L 59.558026 73.425145 
L 60.975022 72.403419 
L 62.392019 71.675966 
L 63.809016 70.202031 
L 65.226012 68.7818 
L 66.643009 69.940143 
L 68.060006 69.352348 
L 69.477002 69.953108 
L 70.893999 70.200081 
L 72.310996 69.458861 
L 73.727992 70.448078 
L 75.144989 70.869238 
L 76.561985 70.970141 
L 77.978982 71.633062 
L 79.395979 71.641399 
L 80.812975 72.525644 
L 82.229972 71.926914 
L 83.646969 72.540509 
L 85.063965 73.695138 
L 86.480962 73.697083 
L 87.897959 73.981567 
L 89.314955 73.677436 
L 90.731952 74.508339 
L 92.148948 74.672229 
L 93.565945 74.337325 
L 94.982942 75.110244 
L 96.399938 75.985991 
L 97.816935 75.984655 
L 99.233932 76.418567 
L 100.650928 76.654994 
L 102.067925 77.416919 
L 103.484922 77.835758 
L 104.901918 77.470712 
L 106.318915 78.113243 
L 107.735911 78.629888 
L 109.152908 78.318495 
L 110.569905 78.98402 
L 111.986901 78.831528 
L 113.403898 79.101653 
L 114.820895 79.309501 
L 116.237891 79.956649 
L 117.654888 79.429642 
L 119.071885 79.748106 
L 120.488881 79.88765 
L 121.905878 80.962329 
L 123.322875 80.411747 
L 124.739871 81.183571 
" clip-path="url(#pe82e165cbd)" style="fill: none; stroke: #40e0d0; stroke-opacity: 0.9; stroke-linecap: square"/>
   </g>
   <g id="line2d_28">
    <path d="M 36.88608 93.069859 
L 41.1229 93.069859 
L 41.1229 93.069859 
" clip-path="url(#pe82e165cbd)" style="fill: none; stroke: #ff0000; stroke-opacity: 0.5; stroke-width: 1.5; stroke-linecap: square"/>
   </g>
   <g id="line2d_29">
    <path d="M 51.764544 93.069859 
L 56.001364 93.069859 
L 56.001364 93.069859 
" clip-path="url(#pe82e165cbd)" style="fill: none; stroke: #ff0000; stroke-opacity: 0.5; stroke-width: 1.5; stroke-linecap: square"/>
   </g>
  </g>
 </g>
 <defs>
  <clipPath id="pe82e165cbd">
   <rect x="7.2" y="7.2" width="123.137008" height="92.862992"/>
  </clipPath>
 </defs>
</svg>
