<?xml version="1.0" encoding="utf-8" standalone="no"?>
<!DOCTYPE svg PUBLIC "-//W3C//DTD SVG 1.1//EN"
  "http://www.w3.org/Graphics/SVG/1.1/DTD/svg11.dtd">
<svg xmlns:xlink="http://www.w3.org/1999/xlink" width="576pt" height="360pt" viewBox="0 0 576 360" xmlns="http://www.w3.org/2000/svg" version="1.1">
 <metadata>
  <rdf:RDF xmlns:dc="http://purl.org/dc/elements/1.1/" xmlns:cc="http://creativecommons.org/ns#" xmlns:rdf="http://www.w3.org/1999/02/22-rdf-syntax-ns#">
   <cc:Work>
    <dc:type rdf:resource="http://purl.org/dc/dcmitype/StillImage"/>
    <dc:date>2023-11-16T15:26:24.354120</dc:date>
    <dc:format>image/svg+xml</dc:format>
    <dc:creator>
     <cc:Agent>
      <dc:title>Matplotlib v3.7.2, https://matplotlib.org/</dc:title>
     </cc:Agent>
    </dc:creator>
   </cc:Work>
  </rdf:RDF>
 </metadata>
 <defs>
  <style type="text/css">*{stroke-linejoin: round; stroke-linecap: butt}</style>
 </defs>
 <g id="figure_1">
  <g id="patch_1">
   <path d="M 0 360 
L 576 360 
L 576 0 
L 0 0 
z
" style="fill: #ffffff"/>
  </g>
  <g id="axes_1">
   <g id="patch_2">
    <path d="M 86.89 292.1 
L 558.72 292.1 
L 558.72 17.28 
L 86.89 17.28 
z
" style="fill: #ffffff"/>
   </g>
   <g id="PolyCollection_1">
    <defs>
     <path id="m7a366f5724" d="M 108.336818 -77.793421 
L 108.336818 -74.48483 
L 112.669509 -72.530275 
L 117.002199 -72.280123 
L 121.33489 -77.938636 
L 125.66758 -96.744681 
L 130.000271 -129.965043 
L 134.332961 -165.959735 
L 138.665652 -194.668101 
L 142.998343 -207.077561 
L 147.331033 -212.193666 
L 151.663724 -213.048694 
L 155.996414 -209.771031 
L 160.329105 -206.308476 
L 164.661795 -204.755368 
L 168.994486 -199.327846 
L 173.327176 -208.092572 
L 177.659867 -230.437298 
L 181.992557 -261.90617 
L 186.325248 -282.102756 
L 190.657938 -297.295982 
L 194.990629 -292.590946 
L 199.32332 -294.900851 
L 203.65601 -291.148877 
L 207.988701 -287.129245 
L 212.321391 -279.075618 
L 216.654082 -275.656918 
L 220.986772 -274.670199 
L 225.319463 -266.046155 
L 229.652153 -260.117912 
L 233.984844 -257.1952 
L 238.317534 -253.635153 
L 242.650225 -249.005028 
L 246.982916 -243.545277 
L 251.315606 -237.22118 
L 255.648297 -235.817215 
L 259.980987 -230.454883 
L 264.313678 -226.850748 
L 268.646368 -221.853519 
L 272.979059 -220.415449 
L 277.311749 -216.749717 
L 281.64444 -212.117294 
L 285.97713 -211.635156 
L 290.309821 -204.747178 
L 294.642511 -206.855107 
L 298.975202 -203.064567 
L 303.307893 -198.575141 
L 307.640583 -196.200413 
L 311.973274 -190.805937 
L 316.305964 -192.035621 
L 320.638655 -189.090752 
L 324.971345 -191.10899 
L 329.304036 -185.275307 
L 333.636726 -182.437941 
L 337.969417 -183.535462 
L 342.302107 -180.095963 
L 346.634798 -177.831393 
L 350.967489 -174.1212 
L 355.300179 -173.350203 
L 359.63287 -171.414981 
L 363.96556 -171.108236 
L 368.298251 -166.405011 
L 372.630941 -163.106945 
L 376.963632 -158.164874 
L 381.296322 -156.182255 
L 385.629013 -153.613051 
L 389.961703 -150.532323 
L 394.294394 -149.792134 
L 398.627084 -146.165528 
L 402.959775 -142.028158 
L 407.292466 -140.961515 
L 411.625156 -140.958189 
L 415.957847 -133.658974 
L 420.290537 -134.567441 
L 424.623228 -134.416399 
L 428.955918 -133.105077 
L 433.288609 -131.158083 
L 437.621299 -129.07422 
L 441.95399 -128.826974 
L 446.28668 -128.085502 
L 450.619371 -127.385179 
L 454.952062 -126.420569 
L 459.284752 -128.06862 
L 463.617443 -126.127809 
L 467.950133 -127.261052 
L 472.282824 -125.693527 
L 476.615514 -123.051136 
L 480.948205 -122.68601 
L 485.280895 -123.742932 
L 489.613586 -121.922995 
L 493.946276 -121.383299 
L 498.278967 -122.428887 
L 502.611657 -121.269541 
L 506.944348 -119.653376 
L 511.277039 -116.825196 
L 515.609729 -117.410373 
L 519.94242 -117.891265 
L 524.27511 -115.568935 
L 528.607801 -115.419597 
L 532.940491 -115.049969 
L 537.273182 -113.054298 
L 537.273182 -122.158975 
L 537.273182 -122.158975 
L 532.940491 -124.617519 
L 528.607801 -124.639521 
L 524.27511 -125.104699 
L 519.94242 -127.765868 
L 515.609729 -127.411832 
L 511.277039 -126.765037 
L 506.944348 -130.120302 
L 502.611657 -131.494762 
L 498.278967 -132.969221 
L 493.946276 -132.117012 
L 489.613586 -132.767852 
L 485.280895 -134.517324 
L 480.948205 -133.649163 
L 476.615514 -134.095387 
L 472.282824 -136.723927 
L 467.950133 -138.226153 
L 463.617443 -137.820483 
L 459.284752 -139.455143 
L 454.952062 -137.681716 
L 450.619371 -139.00244 
L 446.28668 -139.742674 
L 441.95399 -140.268333 
L 437.621299 -141.160662 
L 433.288609 -143.368241 
L 428.955918 -145.29152 
L 424.623228 -146.993316 
L 420.290537 -147.572409 
L 415.957847 -146.640399 
L 411.625156 -153.912937 
L 407.292466 -154.246842 
L 402.959775 -155.240158 
L 398.627084 -159.72981 
L 394.294394 -163.769423 
L 389.961703 -164.655907 
L 385.629013 -167.678092 
L 381.296322 -170.727118 
L 376.963632 -172.679118 
L 372.630941 -178.40801 
L 368.298251 -181.551161 
L 363.96556 -186.577188 
L 359.63287 -187.205402 
L 355.300179 -189.405987 
L 350.967489 -190.224116 
L 346.634798 -194.338094 
L 342.302107 -196.948421 
L 337.969417 -200.594674 
L 333.636726 -199.77621 
L 329.304036 -202.853634 
L 324.971345 -208.916149 
L 320.638655 -207.517622 
L 316.305964 -210.254472 
L 311.973274 -209.296378 
L 307.640583 -214.872357 
L 303.307893 -217.536427 
L 298.975202 -222.57267 
L 294.642511 -226.825797 
L 290.309821 -224.696346 
L 285.97713 -232.094847 
L 281.64444 -232.960099 
L 277.311749 -237.967579 
L 272.979059 -241.645038 
L 268.646368 -243.674789 
L 264.313678 -248.792555 
L 259.980987 -253.112418 
L 255.648297 -258.634361 
L 251.315606 -260.012441 
L 246.982916 -267.274315 
L 242.650225 -272.93935 
L 238.317534 -278.393129 
L 233.984844 -282.336727 
L 229.652153 -285.570941 
L 225.319463 -291.796888 
L 220.986772 -301.036859 
L 216.654082 -302.854396 
L 212.321391 -306.01931 
L 207.988701 -314.298133 
L 203.65601 -318.665162 
L 199.32332 -322.090357 
L 194.990629 -320.2815 
L 190.657938 -324.439845 
L 186.325248 -308.331099 
L 181.992557 -285.837016 
L 177.659867 -251.181359 
L 173.327176 -226.563394 
L 168.994486 -216.337405 
L 164.661795 -221.600976 
L 160.329105 -223.078423 
L 155.996414 -226.421405 
L 151.663724 -229.931015 
L 147.331033 -228.299084 
L 142.998343 -222.651682 
L 138.665652 -208.429444 
L 134.332961 -176.578156 
L 130.000271 -137.327686 
L 125.66758 -101.455382 
L 121.33489 -81.350467 
L 117.002199 -75.698221 
L 112.669509 -75.954281 
L 108.336818 -77.793421 
z
" style="stroke: #85a7eb; stroke-opacity: 0.3"/>
    </defs>
    <g clip-path="url(#p85c4da75eb)">
     <use xlink:href="#m7a366f5724" x="0" y="360" style="fill: #85a7eb; fill-opacity: 0.3; stroke: #85a7eb; stroke-opacity: 0.3"/>
    </g>
   </g>
   <g id="PolyCollection_2">
    <defs>
     <path id="m240111da24" d="M 108.336818 -75.132066 
L 108.336818 -73.290063 
L 112.669509 -73.384284 
L 117.002199 -74.128119 
L 121.33489 -76.172423 
L 125.66758 -88.029652 
L 130.000271 -116.452662 
L 134.332961 -146.907563 
L 138.665652 -173.455366 
L 142.998343 -191.66711 
L 147.331033 -202.525317 
L 151.663724 -206.212266 
L 155.996414 -208.411249 
L 160.329105 -210.494044 
L 164.661795 -208.616421 
L 168.994486 -206.714214 
L 173.327176 -212.4593 
L 177.659867 -231.271535 
L 181.992557 -252.914596 
L 186.325248 -268.857551 
L 190.657938 -280.811259 
L 194.990629 -286.515126 
L 199.32332 -289.038742 
L 203.65601 -287.004718 
L 207.988701 -283.736651 
L 212.321391 -279.607582 
L 216.654082 -276.613008 
L 220.986772 -275.089347 
L 225.319463 -269.507516 
L 229.652153 -264.338591 
L 233.984844 -261.033652 
L 238.317534 -256.144763 
L 242.650225 -253.456093 
L 246.982916 -248.667584 
L 251.315606 -245.312685 
L 255.648297 -240.250285 
L 259.980987 -237.066604 
L 264.313678 -233.485372 
L 268.646368 -229.798908 
L 272.979059 -227.362921 
L 277.311749 -223.4823 
L 281.64444 -219.74609 
L 285.97713 -217.836722 
L 290.309821 -213.97156 
L 294.642511 -210.269541 
L 298.975202 -206.904302 
L 303.307893 -205.047259 
L 307.640583 -202.529496 
L 311.973274 -200.209415 
L 316.305964 -197.997738 
L 320.638655 -195.68749 
L 324.971345 -192.211122 
L 329.304036 -191.629967 
L 333.636726 -186.918088 
L 337.969417 -184.890562 
L 342.302107 -182.139785 
L 346.634798 -178.970873 
L 350.967489 -179.447977 
L 355.300179 -178.21733 
L 359.63287 -176.187115 
L 363.96556 -173.116386 
L 368.298251 -171.402834 
L 372.630941 -169.700547 
L 376.963632 -166.031207 
L 381.296322 -163.649901 
L 385.629013 -161.814296 
L 389.961703 -160.50403 
L 394.294394 -160.375171 
L 398.627084 -157.647881 
L 402.959775 -157.775487 
L 407.292466 -155.658728 
L 411.625156 -154.466821 
L 415.957847 -154.170993 
L 420.290537 -151.198872 
L 424.623228 -151.234773 
L 428.955918 -148.565532 
L 433.288609 -147.911268 
L 437.621299 -146.294259 
L 441.95399 -144.480103 
L 446.28668 -144.619803 
L 450.619371 -143.176008 
L 454.952062 -140.197254 
L 459.284752 -140.234802 
L 463.617443 -139.288566 
L 467.950133 -137.370308 
L 472.282824 -136.907224 
L 476.615514 -137.464452 
L 480.948205 -136.168006 
L 485.280895 -136.017088 
L 489.613586 -136.063769 
L 493.946276 -134.272027 
L 498.278967 -133.268261 
L 502.611657 -132.39256 
L 506.944348 -131.915725 
L 511.277039 -131.074121 
L 515.609729 -129.809351 
L 519.94242 -130.403821 
L 524.27511 -129.697275 
L 528.607801 -128.175699 
L 532.940491 -128.300488 
L 537.273182 -128.066016 
L 537.273182 -135.706436 
L 537.273182 -135.706436 
L 532.940491 -135.737262 
L 528.607801 -135.621799 
L 524.27511 -137.25216 
L 519.94242 -137.928838 
L 515.609729 -137.453426 
L 511.277039 -138.585603 
L 506.944348 -139.648639 
L 502.611657 -140.16299 
L 498.278967 -141.056649 
L 493.946276 -142.058538 
L 489.613586 -143.981192 
L 485.280895 -143.984766 
L 480.948205 -144.061715 
L 476.615514 -145.469329 
L 472.282824 -144.915643 
L 467.950133 -145.48455 
L 463.617443 -147.50958 
L 459.284752 -148.47829 
L 454.952062 -148.483235 
L 450.619371 -151.644556 
L 446.28668 -153.128123 
L 441.95399 -153.032705 
L 437.621299 -155.030968 
L 433.288609 -156.723286 
L 428.955918 -157.477526 
L 424.623228 -160.316741 
L 420.290537 -160.400868 
L 415.957847 -163.565357 
L 411.625156 -163.942157 
L 407.292466 -165.249211 
L 402.959775 -167.580379 
L 398.627084 -167.432355 
L 394.294394 -170.157348 
L 389.961703 -170.595989 
L 385.629013 -172.061639 
L 381.296322 -174.042648 
L 376.963632 -176.675124 
L 372.630941 -180.503792 
L 368.298251 -182.192707 
L 363.96556 -184.117427 
L 359.63287 -187.320223 
L 355.300179 -189.713602 
L 350.967489 -190.87881 
L 346.634798 -190.744374 
L 342.302107 -194.091225 
L 337.969417 -196.846193 
L 333.636726 -199.105209 
L 329.304036 -204.285975 
L 324.971345 -204.903094 
L 320.638655 -208.572922 
L 316.305964 -211.107196 
L 311.973274 -213.600171 
L 307.640583 -216.017822 
L 303.307893 -218.752573 
L 298.975202 -220.834818 
L 294.642511 -224.487287 
L 290.309821 -228.410447 
L 285.97713 -232.636211 
L 281.64444 -234.555504 
L 277.311749 -238.726873 
L 272.979059 -242.593259 
L 268.646368 -245.37182 
L 264.313678 -249.227682 
L 259.980987 -252.957876 
L 255.648297 -256.611617 
L 251.315606 -262.008264 
L 246.982916 -265.736168 
L 242.650225 -270.514122 
L 238.317534 -273.633237 
L 233.984844 -278.713095 
L 229.652153 -282.351673 
L 225.319463 -287.73785 
L 220.986772 -293.616696 
L 216.654082 -295.077895 
L 212.321391 -298.301316 
L 207.988701 -302.432923 
L 203.65601 -305.572448 
L 199.32332 -307.527534 
L 194.990629 -304.862998 
L 190.657938 -298.480762 
L 186.325248 -285.521165 
L 181.992557 -268.274117 
L 177.659867 -245.043409 
L 173.327176 -224.98685 
L 168.994486 -218.516437 
L 164.661795 -220.346798 
L 160.329105 -222.099959 
L 155.996414 -219.865988 
L 151.663724 -217.182348 
L 147.331033 -213.015229 
L 142.998343 -201.231656 
L 138.665652 -181.652551 
L 134.332961 -153.261816 
L 130.000271 -120.523203 
L 125.66758 -90.549957 
L 121.33489 -78.072958 
L 117.002199 -76.036008 
L 112.669509 -75.169579 
L 108.336818 -75.132066 
z
" style="stroke: #f6cd51; stroke-opacity: 0.3"/>
    </defs>
    <g clip-path="url(#p85c4da75eb)">
     <use xlink:href="#m240111da24" x="0" y="360" style="fill: #f6cd51; fill-opacity: 0.3; stroke: #f6cd51; stroke-opacity: 0.3"/>
    </g>
   </g>
   <g id="PolyCollection_3">
    <defs>
     <path id="md98024eb3b" d="M 108.336818 -80.154027 
L 108.336818 -74.814205 
L 112.669509 -72.566044 
L 117.002199 -75.537401 
L 121.33489 -74.818678 
L 125.66758 -82.139463 
L 130.000271 -106.934373 
L 134.332961 -142.825326 
L 138.665652 -167.091441 
L 142.998343 -181.328782 
L 147.331033 -193.978304 
L 151.663724 -193.165261 
L 155.996414 -193.4092 
L 160.329105 -191.660469 
L 164.661795 -191.42806 
L 168.994486 -190.600902 
L 173.327176 -187.010565 
L 177.659867 -195.398474 
L 181.992557 -213.201601 
L 186.325248 -221.401205 
L 190.657938 -235.381979 
L 194.990629 -233.602495 
L 199.32332 -234.048102 
L 203.65601 -231.250714 
L 207.988701 -233.510305 
L 212.321391 -227.32169 
L 216.654082 -226.623025 
L 220.986772 -219.789898 
L 225.319463 -214.964924 
L 229.652153 -209.374008 
L 233.984844 -208.910462 
L 238.317534 -206.502299 
L 242.650225 -204.857133 
L 246.982916 -196.796509 
L 251.315606 -193.782916 
L 255.648297 -191.353235 
L 259.980987 -189.773607 
L 264.313678 -185.872392 
L 268.646368 -183.197144 
L 272.979059 -183.498903 
L 277.311749 -178.852578 
L 281.64444 -176.05705 
L 285.97713 -172.190559 
L 290.309821 -170.970854 
L 294.642511 -177.592757 
L 298.975202 -167.376781 
L 303.307893 -165.127215 
L 307.640583 -167.579514 
L 311.973274 -161.446163 
L 316.305964 -160.838424 
L 320.638655 -155.785216 
L 324.971345 -157.006727 
L 329.304036 -154.246974 
L 333.636726 -151.451295 
L 337.969417 -146.627829 
L 342.302107 -147.629452 
L 346.634798 -147.361683 
L 350.967489 -145.627526 
L 355.300179 -143.269208 
L 359.63287 -140.646289 
L 363.96556 -138.471667 
L 368.298251 -136.084227 
L 372.630941 -138.935204 
L 376.963632 -136.754371 
L 381.296322 -132.829005 
L 385.629013 -127.981092 
L 389.961703 -127.40023 
L 394.294394 -121.326974 
L 398.627084 -126.62828 
L 402.959775 -122.529892 
L 407.292466 -121.405575 
L 411.625156 -119.782628 
L 415.957847 -118.27881 
L 420.290537 -115.048918 
L 424.623228 -120.499099 
L 428.955918 -118.443584 
L 433.288609 -115.954744 
L 437.621299 -118.422322 
L 441.95399 -114.135594 
L 446.28668 -118.065426 
L 450.619371 -119.962175 
L 454.952062 -116.539382 
L 459.284752 -116.639676 
L 463.617443 -113.839911 
L 467.950133 -112.836829 
L 472.282824 -111.170732 
L 476.615514 -111.624277 
L 480.948205 -110.635955 
L 485.280895 -111.041389 
L 489.613586 -113.523263 
L 493.946276 -112.98911 
L 498.278967 -110.516865 
L 502.611657 -112.30956 
L 506.944348 -109.474059 
L 511.277039 -111.723194 
L 515.609729 -110.655732 
L 519.94242 -106.443843 
L 524.27511 -102.915834 
L 528.607801 -108.323449 
L 532.940491 -106.51157 
L 537.273182 -99.587924 
L 537.273182 -112.363492 
L 537.273182 -112.363492 
L 532.940491 -118.738444 
L 528.607801 -120.551738 
L 524.27511 -116.040395 
L 519.94242 -119.248513 
L 515.609729 -122.995843 
L 511.277039 -124.527791 
L 506.944348 -122.866037 
L 502.611657 -125.303738 
L 498.278967 -124.206821 
L 493.946276 -126.323572 
L 489.613586 -126.601477 
L 485.280895 -124.840457 
L 480.948205 -124.511785 
L 476.615514 -125.434428 
L 472.282824 -124.520322 
L 467.950133 -126.40505 
L 463.617443 -127.899269 
L 459.284752 -130.319242 
L 454.952062 -130.540994 
L 450.619371 -134.179464 
L 446.28668 -132.223707 
L 441.95399 -127.784656 
L 437.621299 -132.544547 
L 433.288609 -130.023142 
L 428.955918 -132.766477 
L 424.623228 -134.93359 
L 420.290537 -129.737356 
L 415.957847 -132.800483 
L 411.625156 -134.648512 
L 407.292466 -136.413551 
L 402.959775 -137.697262 
L 398.627084 -141.797545 
L 394.294394 -136.839504 
L 389.961703 -143.353013 
L 385.629013 -143.976575 
L 381.296322 -148.932099 
L 376.963632 -153.269303 
L 372.630941 -155.795355 
L 368.298251 -152.619824 
L 363.96556 -155.496035 
L 359.63287 -157.929097 
L 355.300179 -161.234207 
L 350.967489 -163.466229 
L 346.634798 -165.928766 
L 342.302107 -166.656653 
L 337.969417 -165.450624 
L 333.636726 -170.809717 
L 329.304036 -174.545143 
L 324.971345 -176.551178 
L 320.638655 -175.767631 
L 316.305964 -181.857349 
L 311.973274 -182.266573 
L 307.640583 -188.703289 
L 303.307893 -187.083852 
L 298.975202 -189.752187 
L 294.642511 -199.80951 
L 290.309821 -193.561464 
L 285.97713 -195.559996 
L 281.64444 -199.737593 
L 277.311749 -202.743898 
L 272.979059 -207.415316 
L 268.646368 -207.869807 
L 264.313678 -210.850132 
L 259.980987 -215.219387 
L 255.648297 -217.088798 
L 251.315606 -219.955624 
L 246.982916 -223.668591 
L 242.650225 -231.970926 
L 238.317534 -234.347708 
L 233.984844 -236.923986 
L 229.652153 -238.014117 
L 225.319463 -244.190954 
L 220.986772 -249.165123 
L 216.654082 -256.343615 
L 212.321391 -257.137532 
L 207.988701 -263.765164 
L 203.65601 -261.46092 
L 199.32332 -263.878776 
L 194.990629 -262.563196 
L 190.657938 -263.285425 
L 186.325248 -247.575908 
L 181.992557 -236.627729 
L 177.659867 -215.572855 
L 173.327176 -207.106618 
L 168.994486 -210.092346 
L 164.661795 -211.730902 
L 160.329105 -211.455597 
L 155.996414 -213.419461 
L 151.663724 -211.976798 
L 147.331033 -211.555965 
L 142.998343 -197.377415 
L 138.665652 -179.86228 
L 134.332961 -152.19625 
L 130.000271 -113.806385 
L 125.66758 -87.969221 
L 121.33489 -79.637648 
L 117.002199 -80.561988 
L 112.669509 -77.543809 
L 108.336818 -80.154027 
z
" style="stroke: #d1a6de; stroke-opacity: 0.3"/>
    </defs>
    <g clip-path="url(#p85c4da75eb)">
     <use xlink:href="#md98024eb3b" x="0" y="360" style="fill: #d1a6de; fill-opacity: 0.3; stroke: #d1a6de; stroke-opacity: 0.3"/>
    </g>
   </g>
   <g id="matplotlib.axis_1">
    <g id="xtick_1">
     <g id="line2d_1">
      <defs>
       <path id="mc4f826d9ca" d="M 0 0 
L 0 10 
" style="stroke: #000000; stroke-width: 2"/>
      </defs>
      <g>
       <use xlink:href="#mc4f826d9ca" x="108.336818" y="292.1" style="stroke: #000000; stroke-width: 2"/>
      </g>
     </g>
     <g id="text_1">
      <text style="font: 16px 'DejaVu Sans', 'Bitstream Vera Sans', 'Computer Modern Sans Serif', 'Lucida Grande', 'Verdana', 'Geneva', 'Lucid', 'Arial', 'Helvetica', 'Avant Garde', sans-serif; text-anchor: middle" x="108.336818" y="317.7575" transform="rotate(-0 108.336818 317.7575)">0.0</text>
     </g>
    </g>
    <g id="xtick_2">
     <g id="line2d_2">
      <g>
       <use xlink:href="#mc4f826d9ca" x="212.321391" y="292.1" style="stroke: #000000; stroke-width: 2"/>
      </g>
     </g>
     <g id="text_2">
      <text style="font: 16px 'DejaVu Sans', 'Bitstream Vera Sans', 'Computer Modern Sans Serif', 'Lucida Grande', 'Verdana', 'Geneva', 'Lucid', 'Arial', 'Helvetica', 'Avant Garde', sans-serif; text-anchor: middle" x="212.321391" y="317.7575" transform="rotate(-0 212.321391 317.7575)">0.8</text>
     </g>
    </g>
    <g id="xtick_3">
     <g id="line2d_3">
      <g>
       <use xlink:href="#mc4f826d9ca" x="316.305964" y="292.1" style="stroke: #000000; stroke-width: 2"/>
      </g>
     </g>
     <g id="text_3">
      <text style="font: 16px 'DejaVu Sans', 'Bitstream Vera Sans', 'Computer Modern Sans Serif', 'Lucida Grande', 'Verdana', 'Geneva', 'Lucid', 'Arial', 'Helvetica', 'Avant Garde', sans-serif; text-anchor: middle" x="316.305964" y="317.7575" transform="rotate(-0 316.305964 317.7575)">1.6</text>
     </g>
    </g>
    <g id="xtick_4">
     <g id="line2d_4">
      <g>
       <use xlink:href="#mc4f826d9ca" x="420.290537" y="292.1" style="stroke: #000000; stroke-width: 2"/>
      </g>
     </g>
     <g id="text_4">
      <text style="font: 16px 'DejaVu Sans', 'Bitstream Vera Sans', 'Computer Modern Sans Serif', 'Lucida Grande', 'Verdana', 'Geneva', 'Lucid', 'Arial', 'Helvetica', 'Avant Garde', sans-serif; text-anchor: middle" x="420.290537" y="317.7575" transform="rotate(-0 420.290537 317.7575)">2.4</text>
     </g>
    </g>
    <g id="xtick_5">
     <g id="line2d_5">
      <g>
       <use xlink:href="#mc4f826d9ca" x="524.27511" y="292.1" style="stroke: #000000; stroke-width: 2"/>
      </g>
     </g>
     <g id="text_5">
      <text style="font: 16px 'DejaVu Sans', 'Bitstream Vera Sans', 'Computer Modern Sans Serif', 'Lucida Grande', 'Verdana', 'Geneva', 'Lucid', 'Arial', 'Helvetica', 'Avant Garde', sans-serif; text-anchor: middle" x="524.27511" y="317.7575" transform="rotate(-0 524.27511 317.7575)">3.2</text>
     </g>
    </g>
    <g id="text_6">
     <text style="font: 16px 'DejaVu Sans', 'Bitstream Vera Sans', 'Computer Modern Sans Serif', 'Lucida Grande', 'Verdana', 'Geneva', 'Lucid', 'Arial', 'Helvetica', 'Avant Garde', sans-serif; text-anchor: middle" x="322.805" y="337.2425" transform="rotate(-0 322.805 337.2425)">Time (s)</text>
    </g>
   </g>
   <g id="matplotlib.axis_2">
    <g id="ytick_1">
     <g id="line2d_6">
      <defs>
       <path id="m6113e687ed" d="M 0 0 
L -10 0 
" style="stroke: #000000; stroke-width: 2"/>
      </defs>
      <g>
       <use xlink:href="#m6113e687ed" x="86.89" y="286.615953" style="stroke: #000000; stroke-width: 2"/>
      </g>
     </g>
     <g id="text_7">
      <text style="font: 16px 'DejaVu Sans', 'Bitstream Vera Sans', 'Computer Modern Sans Serif', 'Lucida Grande', 'Verdana', 'Geneva', 'Lucid', 'Arial', 'Helvetica', 'Avant Garde', sans-serif; text-anchor: end" x="73.39" y="292.694703" transform="rotate(-0 73.39 292.694703)">0.0</text>
     </g>
    </g>
    <g id="ytick_2">
     <g id="line2d_7">
      <g>
       <use xlink:href="#m6113e687ed" x="86.89" y="195.215178" style="stroke: #000000; stroke-width: 2"/>
      </g>
     </g>
     <g id="text_8">
      <text style="font: 16px 'DejaVu Sans', 'Bitstream Vera Sans', 'Computer Modern Sans Serif', 'Lucida Grande', 'Verdana', 'Geneva', 'Lucid', 'Arial', 'Helvetica', 'Avant Garde', sans-serif; text-anchor: end" x="73.39" y="201.293928" transform="rotate(-0 73.39 201.293928)">0.05</text>
     </g>
    </g>
    <g id="ytick_3">
     <g id="line2d_8">
      <g>
       <use xlink:href="#m6113e687ed" x="86.89" y="103.814403" style="stroke: #000000; stroke-width: 2"/>
      </g>
     </g>
     <g id="text_9">
      <text style="font: 16px 'DejaVu Sans', 'Bitstream Vera Sans', 'Computer Modern Sans Serif', 'Lucida Grande', 'Verdana', 'Geneva', 'Lucid', 'Arial', 'Helvetica', 'Avant Garde', sans-serif; text-anchor: end" x="73.39" y="109.893153" transform="rotate(-0 73.39 109.893153)">0.1</text>
     </g>
    </g>
    <g id="text_10">
     <text style="font: 16px 'DejaVu Sans', 'Bitstream Vera Sans', 'Computer Modern Sans Serif', 'Lucida Grande', 'Verdana', 'Geneva', 'Lucid', 'Arial', 'Helvetica', 'Avant Garde', sans-serif; text-anchor: middle" x="30.4375" y="154.69" transform="rotate(-90 30.4375 154.69)">dF/F</text>
    </g>
   </g>
   <g id="line2d_9">
    <path d="M 108.336818 283.860874 
L 112.669509 285.757722 
L 117.002199 286.010828 
L 121.33489 280.355449 
L 125.66758 260.899968 
L 130.000271 226.353635 
L 134.332961 188.731054 
L 138.665652 158.451228 
L 142.998343 145.135379 
L 147.331033 139.753625 
L 151.663724 138.510146 
L 155.996414 141.903782 
L 160.329105 145.306551 
L 164.661795 146.821828 
L 168.994486 152.167375 
L 173.327176 142.672017 
L 177.659867 119.190672 
L 181.992557 86.128407 
L 186.325248 64.783072 
L 190.657938 49.132087 
L 194.990629 53.563777 
L 199.32332 51.504396 
L 203.65601 55.092981 
L 207.988701 59.286311 
L 212.321391 67.452536 
L 216.654082 70.744343 
L 220.986772 72.146471 
L 225.319463 81.078478 
L 229.652153 87.155574 
L 233.984844 90.234037 
L 238.317534 93.985859 
L 242.650225 99.027811 
L 246.982916 104.590204 
L 251.315606 111.383189 
L 255.648297 112.774212 
L 259.980987 118.21635 
L 264.313678 122.178348 
L 268.646368 127.235846 
L 272.979059 128.969757 
L 277.311749 132.641352 
L 281.64444 137.461304 
L 285.97713 138.134999 
L 290.309821 145.278238 
L 294.642511 143.159548 
L 298.975202 147.181381 
L 303.307893 151.944216 
L 307.640583 154.463615 
L 311.973274 159.948842 
L 316.305964 158.854953 
L 320.638655 161.695813 
L 324.971345 159.987431 
L 329.304036 165.935529 
L 333.636726 168.892924 
L 337.969417 167.934932 
L 342.302107 171.477808 
L 346.634798 173.915256 
L 350.967489 177.827342 
L 355.300179 178.621905 
L 359.63287 180.689809 
L 363.96556 181.157288 
L 368.298251 186.021914 
L 372.630941 189.242522 
L 376.963632 194.578004 
L 381.296322 196.545313 
L 385.629013 199.354428 
L 389.961703 202.405885 
L 394.294394 203.219222 
L 398.627084 207.052331 
L 402.959775 211.365842 
L 407.292466 212.395822 
L 411.625156 212.564437 
L 415.957847 219.850314 
L 420.290537 218.930075 
L 424.623228 219.295143 
L 428.955918 220.801702 
L 433.288609 222.736838 
L 437.621299 224.882559 
L 441.95399 225.452347 
L 446.28668 226.085912 
L 450.619371 226.80619 
L 454.952062 227.948857 
L 459.284752 226.238119 
L 463.617443 228.025854 
L 467.950133 227.256397 
L 472.282824 228.791273 
L 476.615514 231.426738 
L 480.948205 231.832414 
L 485.280895 230.869872 
L 489.613586 232.654576 
L 493.946276 233.249844 
L 498.278967 232.300946 
L 502.611657 233.617848 
L 506.944348 235.113161 
L 511.277039 238.204884 
L 515.609729 237.588898 
L 519.94242 237.171433 
L 524.27511 239.663183 
L 528.607801 239.970441 
L 532.940491 240.166256 
L 537.273182 242.393363 
" clip-path="url(#p85c4da75eb)" style="fill: none; stroke: #85a7eb; stroke-opacity: 0.7; stroke-width: 3; stroke-linecap: square"/>
   </g>
   <g id="line2d_10">
    <path d="M 108.336818 285.788935 
L 112.669509 285.723069 
L 117.002199 284.917937 
L 121.33489 282.87731 
L 125.66758 270.710195 
L 130.000271 241.512067 
L 134.332961 209.915311 
L 138.665652 182.446041 
L 142.998343 163.550617 
L 147.331033 152.229727 
L 151.663724 148.302693 
L 155.996414 145.861382 
L 160.329105 143.702999 
L 164.661795 145.51839 
L 168.994486 147.384675 
L 173.327176 141.276925 
L 177.659867 121.842528 
L 181.992557 99.405644 
L 186.325248 82.810642 
L 190.657938 70.35399 
L 194.990629 64.310938 
L 199.32332 61.716862 
L 203.65601 63.711417 
L 207.988701 66.915213 
L 212.321391 71.045551 
L 216.654082 74.154549 
L 220.986772 75.646978 
L 225.319463 81.377317 
L 229.652153 86.654868 
L 233.984844 90.126627 
L 238.317534 95.111 
L 242.650225 98.014893 
L 246.982916 102.798124 
L 251.315606 106.339526 
L 255.648297 111.569049 
L 259.980987 114.98776 
L 264.313678 118.643473 
L 268.646368 122.414636 
L 272.979059 125.02191 
L 277.311749 128.895414 
L 281.64444 132.849203 
L 285.97713 134.763533 
L 290.309821 138.808997 
L 294.642511 142.621586 
L 298.975202 146.13044 
L 303.307893 148.100084 
L 307.640583 150.726341 
L 311.973274 153.095207 
L 316.305964 155.447533 
L 320.638655 157.869794 
L 324.971345 161.442892 
L 329.304036 162.042029 
L 333.636726 166.988352 
L 337.969417 169.131622 
L 342.302107 171.884495 
L 346.634798 175.142377 
L 350.967489 174.836607 
L 355.300179 176.034534 
L 359.63287 178.246331 
L 363.96556 181.383094 
L 368.298251 183.202229 
L 372.630941 184.89783 
L 376.963632 188.646835 
L 381.296322 191.153725 
L 385.629013 193.062033 
L 389.961703 194.449991 
L 394.294394 194.733741 
L 398.627084 197.459882 
L 402.959775 197.322067 
L 407.292466 199.54603 
L 411.625156 200.795511 
L 415.957847 201.131825 
L 420.290537 204.20013 
L 424.623228 204.224243 
L 428.955918 206.978471 
L 433.288609 207.682723 
L 437.621299 209.337387 
L 441.95399 211.243596 
L 446.28668 211.126037 
L 450.619371 212.589718 
L 454.952062 215.659756 
L 459.284752 215.643454 
L 463.617443 216.600927 
L 467.950133 218.572571 
L 472.282824 219.088566 
L 476.615514 218.53311 
L 480.948205 219.88514 
L 485.280895 219.999073 
L 489.613586 219.977519 
L 493.946276 221.834717 
L 498.278967 222.837545 
L 502.611657 223.722225 
L 506.944348 224.217818 
L 511.277039 225.170138 
L 515.609729 226.368611 
L 519.94242 225.833671 
L 524.27511 226.525283 
L 528.607801 228.101251 
L 532.940491 227.981125 
L 537.273182 228.113774 
" clip-path="url(#p85c4da75eb)" style="fill: none; stroke: #f6cd51; stroke-opacity: 0.7; stroke-width: 3; stroke-linecap: square"/>
   </g>
   <g id="line2d_11">
    <path d="M 108.336818 282.515884 
L 112.669509 284.945074 
L 117.002199 281.950305 
L 121.33489 282.771837 
L 125.66758 274.945658 
L 130.000271 249.629621 
L 134.332961 212.489212 
L 138.665652 186.523139 
L 142.998343 170.646902 
L 147.331033 157.232866 
L 151.663724 157.42897 
L 155.996414 156.58567 
L 160.329105 158.441967 
L 164.661795 158.420519 
L 168.994486 159.653376 
L 173.327176 162.941408 
L 177.659867 154.514335 
L 181.992557 135.085335 
L 186.325248 125.511443 
L 190.657938 110.666298 
L 194.990629 111.917154 
L 199.32332 111.036561 
L 203.65601 113.644183 
L 207.988701 111.362265 
L 212.321391 117.770389 
L 216.654082 118.51668 
L 220.986772 125.52249 
L 225.319463 130.422061 
L 229.652153 136.305937 
L 233.984844 137.082776 
L 238.317534 139.574997 
L 242.650225 141.58597 
L 246.982916 149.76745 
L 251.315606 153.13073 
L 255.648297 155.778984 
L 259.980987 157.503503 
L 264.313678 161.638738 
L 268.646368 164.466524 
L 272.979059 164.542891 
L 277.311749 169.201762 
L 281.64444 172.102678 
L 285.97713 176.124722 
L 290.309821 177.733841 
L 294.642511 171.298866 
L 298.975202 181.435516 
L 303.307893 183.894467 
L 307.640583 181.858599 
L 311.973274 188.143632 
L 316.305964 188.652114 
L 320.638655 194.223577 
L 324.971345 193.221047 
L 329.304036 195.603941 
L 333.636726 198.869494 
L 337.969417 203.960774 
L 342.302107 202.856948 
L 346.634798 203.354776 
L 350.967489 205.453122 
L 355.300179 207.748292 
L 359.63287 210.712307 
L 363.96556 213.016149 
L 368.298251 215.647974 
L 372.630941 212.634721 
L 376.963632 214.988163 
L 381.296322 219.119448 
L 385.629013 224.021167 
L 389.961703 224.623378 
L 394.294394 230.916761 
L 398.627084 225.787087 
L 402.959775 229.886423 
L 407.292466 231.090437 
L 411.625156 232.78443 
L 415.957847 234.460354 
L 420.290537 237.606863 
L 424.623228 232.283656 
L 428.955918 234.39497 
L 433.288609 237.011057 
L 437.621299 234.516566 
L 441.95399 239.039875 
L 446.28668 234.855434 
L 450.619371 232.92918 
L 454.952062 236.459812 
L 459.284752 236.520541 
L 463.617443 239.13041 
L 467.950133 240.379061 
L 472.282824 242.154473 
L 476.615514 241.470648 
L 480.948205 242.42613 
L 485.280895 242.059077 
L 489.613586 239.93763 
L 493.946276 240.343659 
L 498.278967 242.638157 
L 502.611657 241.193351 
L 506.944348 243.829952 
L 511.277039 241.874508 
L 515.609729 243.174213 
L 519.94242 247.153822 
L 524.27511 250.521886 
L 528.607801 245.562406 
L 532.940491 247.374993 
L 537.273182 254.024292 
" clip-path="url(#p85c4da75eb)" style="fill: none; stroke: #d1a6de; stroke-opacity: 0.7; stroke-width: 3; stroke-linecap: square"/>
   </g>
   <g id="line2d_12">
    <path d="M 108.336818 30.693783 
L 116.958872 30.693783 
L 116.958872 30.693783 
" clip-path="url(#p85c4da75eb)" style="fill: none; stroke: #ff0000; stroke-opacity: 0.5; stroke-width: 8; stroke-linecap: square"/>
   </g>
   <g id="line2d_13">
    <path d="M 149.497378 30.693783 
L 158.119433 30.693783 
L 158.119433 30.693783 
" clip-path="url(#p85c4da75eb)" style="fill: none; stroke: #ff0000; stroke-opacity: 0.5; stroke-width: 8; stroke-linecap: square"/>
   </g>
   <g id="patch_3">
    <path d="M 86.89 292.1 
L 86.89 17.28 
" style="fill: none; stroke: #000000; stroke-width: 2; stroke-linejoin: miter; stroke-linecap: square"/>
   </g>
   <g id="patch_4">
    <path d="M 86.89 292.1 
L 558.72 292.1 
" style="fill: none; stroke: #000000; stroke-width: 2; stroke-linejoin: miter; stroke-linecap: square"/>
   </g>
   <g id="legend_1">
    <g id="line2d_14">
     <path d="M 476.8 38.2375 
L 492.8 38.2375 
L 508.8 38.2375 
" style="fill: none; stroke: #85a7eb; stroke-opacity: 0.7; stroke-width: 3; stroke-linecap: square"/>
    </g>
    <g id="text_11">
     <text style="font: 16px 'DejaVu Sans', 'Bitstream Vera Sans', 'Computer Modern Sans Serif', 'Lucida Grande', 'Verdana', 'Geneva', 'Lucid', 'Arial', 'Helvetica', 'Avant Garde', sans-serif; text-anchor: start" x="521.6" y="43.8375" transform="rotate(-0 521.6 43.8375)">V1</text>
    </g>
    <g id="line2d_15">
     <path d="M 476.8 61.7225 
L 492.8 61.7225 
L 508.8 61.7225 
" style="fill: none; stroke: #f6cd51; stroke-opacity: 0.7; stroke-width: 3; stroke-linecap: square"/>
    </g>
    <g id="text_12">
     <text style="font: 16px 'DejaVu Sans', 'Bitstream Vera Sans', 'Computer Modern Sans Serif', 'Lucida Grande', 'Verdana', 'Geneva', 'Lucid', 'Arial', 'Helvetica', 'Avant Garde', sans-serif; text-anchor: start" x="521.6" y="67.3225" transform="rotate(-0 521.6 67.3225)">LM</text>
    </g>
    <g id="line2d_16">
     <path d="M 476.8 85.2075 
L 492.8 85.2075 
L 508.8 85.2075 
" style="fill: none; stroke: #d1a6de; stroke-opacity: 0.7; stroke-width: 3; stroke-linecap: square"/>
    </g>
    <g id="text_13">
     <text style="font: 16px 'DejaVu Sans', 'Bitstream Vera Sans', 'Computer Modern Sans Serif', 'Lucida Grande', 'Verdana', 'Geneva', 'Lucid', 'Arial', 'Helvetica', 'Avant Garde', sans-serif; text-anchor: start" x="521.6" y="90.8075" transform="rotate(-0 521.6 90.8075)">LI</text>
    </g>
   </g>
  </g>
 </g>
 <defs>
  <clipPath id="p85c4da75eb">
   <rect x="86.89" y="17.28" width="471.83" height="274.82"/>
  </clipPath>
 </defs>
</svg>
