<?xml version="1.0" encoding="utf-8" standalone="no"?>
<!DOCTYPE svg PUBLIC "-//W3C//DTD SVG 1.1//EN"
  "http://www.w3.org/Graphics/SVG/1.1/DTD/svg11.dtd">
<svg xmlns:xlink="http://www.w3.org/1999/xlink" width="576pt" height="360pt" viewBox="0 0 576 360" xmlns="http://www.w3.org/2000/svg" version="1.1">
 <metadata>
  <rdf:RDF xmlns:dc="http://purl.org/dc/elements/1.1/" xmlns:cc="http://creativecommons.org/ns#" xmlns:rdf="http://www.w3.org/1999/02/22-rdf-syntax-ns#">
   <cc:Work>
    <dc:type rdf:resource="http://purl.org/dc/dcmitype/StillImage"/>
    <dc:date>2023-11-29T16:21:56.573236</dc:date>
    <dc:format>image/svg+xml</dc:format>
    <dc:creator>
     <cc:Agent>
      <dc:title>Matplotlib v3.7.2, https://matplotlib.org/</dc:title>
     </cc:Agent>
    </dc:creator>
   </cc:Work>
  </rdf:RDF>
 </metadata>
 <defs>
  <style type="text/css">*{stroke-linejoin: round; stroke-linecap: butt}</style>
 </defs>
 <g id="figure_1">
  <g id="patch_1">
   <path d="M 0 360 
L 576 360 
L 576 0 
L 0 0 
z
" style="fill: #ffffff"/>
  </g>
  <g id="axes_1">
   <g id="PolyCollection_1">
    <defs>
     <path id="mebab38d771" d="M 85.154949 -71.979601 
L 85.154949 -65.521895 
L 90.219816 -66.121838 
L 95.284683 -64.351658 
L 100.34955 -62.238627 
L 105.414417 -60.62289 
L 110.479284 -63.649566 
L 115.544151 -62.229876 
L 120.609017 -63.52102 
L 125.673884 -60.050661 
L 130.738751 -61.220908 
L 135.803618 -59.191827 
L 140.868485 -57.800326 
L 145.933352 -59.851749 
L 150.998219 -60.164578 
L 156.063085 -59.484361 
L 161.127952 -60.047548 
L 166.192819 -57.141002 
L 171.257686 -60.696577 
L 176.322553 -74.159502 
L 181.38742 -101.151911 
L 186.452287 -132.842235 
L 191.517153 -170.652561 
L 196.58202 -193.557524 
L 201.646887 -203.744632 
L 206.711754 -209.450044 
L 211.776621 -206.257861 
L 216.841488 -206.49756 
L 221.906354 -199.801885 
L 226.971221 -197.582951 
L 232.036088 -199.57618 
L 237.100955 -214.077739 
L 242.165822 -238.887213 
L 247.230689 -268.157723 
L 252.295556 -292.39453 
L 257.360422 -291.614849 
L 262.425289 -298.739356 
L 267.490156 -297.041649 
L 272.555023 -291.073226 
L 277.61989 -284.359479 
L 282.684757 -277.909488 
L 287.749624 -279.212332 
L 292.81449 -272.167788 
L 297.879357 -262.284301 
L 302.944224 -259.566201 
L 308.009091 -255.394081 
L 313.073958 -251.107605 
L 318.138825 -244.776868 
L 323.203691 -238.65732 
L 328.268558 -236.55426 
L 333.333425 -230.130293 
L 338.398292 -226.340434 
L 343.463159 -220.454066 
L 348.528026 -217.094733 
L 353.592893 -217.787806 
L 358.657759 -209.607306 
L 363.722626 -209.245907 
L 368.787493 -203.042012 
L 373.85236 -200.261681 
L 378.917227 -202.937612 
L 383.982094 -195.541551 
L 389.046961 -192.799198 
L 394.111827 -186.698837 
L 399.176694 -185.913049 
L 404.241561 -184.290882 
L 409.306428 -186.719254 
L 414.371295 -181.720256 
L 419.436162 -178.147673 
L 424.501028 -176.563084 
L 429.565895 -176.325764 
L 434.630762 -172.337904 
L 439.695629 -170.153251 
L 444.760496 -164.110158 
L 449.825363 -166.034606 
L 454.89023 -164.584144 
L 459.955096 -160.344752 
L 465.019963 -157.618367 
L 470.08483 -152.965665 
L 475.149697 -148.335182 
L 480.214564 -148.951237 
L 485.279431 -143.86717 
L 490.344298 -140.081603 
L 495.409164 -139.812311 
L 500.474031 -135.280888 
L 505.538898 -131.772118 
L 510.603765 -132.41429 
L 515.668632 -126.769351 
L 520.733499 -124.222723 
L 525.798365 -124.457965 
L 530.863232 -125.519527 
L 535.928099 -121.130799 
L 535.928099 -134.266993 
L 535.928099 -134.266993 
L 530.863232 -139.099082 
L 525.798365 -138.347122 
L 520.733499 -138.175278 
L 515.668632 -140.768365 
L 510.603765 -146.75665 
L 505.538898 -146.139549 
L 500.474031 -149.830431 
L 495.409164 -154.665394 
L 490.344298 -155.358321 
L 485.279431 -159.053483 
L 480.214564 -164.466916 
L 475.149697 -164.115639 
L 470.08483 -169.351341 
L 465.019963 -174.03668 
L 459.955096 -176.991168 
L 454.89023 -181.713737 
L 449.825363 -183.146959 
L 444.760496 -181.581088 
L 439.695629 -187.951469 
L 434.630762 -190.301282 
L 429.565895 -194.597222 
L 424.501028 -195.182899 
L 419.436162 -196.995295 
L 414.371295 -201.045442 
L 409.306428 -206.507517 
L 404.241561 -203.91605 
L 399.176694 -205.658613 
L 394.111827 -206.836637 
L 389.046961 -213.176723 
L 383.982094 -216.59202 
L 378.917227 -224.184067 
L 373.85236 -221.833478 
L 368.787493 -224.958893 
L 363.722626 -231.646013 
L 358.657759 -232.615842 
L 353.592893 -240.54546 
L 348.528026 -240.468009 
L 343.463159 -244.138714 
L 338.398292 -250.405588 
L 333.333425 -254.729461 
L 328.268558 -261.435482 
L 323.203691 -263.671261 
L 318.138825 -270.70933 
L 313.073958 -277.594036 
L 308.009091 -282.514546 
L 302.944224 -286.765828 
L 297.879357 -290.091401 
L 292.81449 -300.462151 
L 287.749624 -308.41177 
L 282.684757 -307.020994 
L 277.61989 -313.97865 
L 272.555023 -320.737938 
L 267.490156 -326.553699 
L 262.425289 -328.235801 
L 257.360422 -321.232871 
L 252.295556 -320.814492 
L 247.230689 -294.445095 
L 242.165822 -262.280489 
L 237.100955 -234.786918 
L 232.036088 -218.662518 
L 226.971221 -216.012827 
L 221.906354 -217.84767 
L 216.841488 -224.687625 
L 211.776621 -224.358576 
L 206.711754 -227.473292 
L 201.646887 -220.621873 
L 196.58202 -208.903107 
L 191.517153 -183.479692 
L 186.452287 -142.328125 
L 181.38742 -108.145196 
L 176.322553 -78.70301 
L 171.257686 -64.455411 
L 166.192819 -60.944839 
L 161.127952 -63.59855 
L 156.063085 -63.057831 
L 150.998219 -64.811753 
L 145.933352 -65.486746 
L 140.868485 -63.628518 
L 135.803618 -64.788718 
L 130.738751 -66.822069 
L 125.673884 -65.949631 
L 120.609017 -69.579389 
L 115.544151 -68.248756 
L 110.479284 -69.767408 
L 105.414417 -67.042382 
L 100.34955 -68.601625 
L 95.284683 -70.523363 
L 90.219816 -72.331638 
L 85.154949 -71.979601 
z
" style="stroke: #85a7eb; stroke-opacity: 0.3; stroke-width: 1.5"/>
    </defs>
    <g clip-path="url(#pb01ff5cfbc)">
     <use xlink:href="#mebab38d771" x="0" y="360" style="fill: #85a7eb; fill-opacity: 0.3; stroke: #85a7eb; stroke-opacity: 0.3; stroke-width: 1.5"/>
    </g>
   </g>
   <g id="PolyCollection_2">
    <defs>
     <path id="m1d45e294aa" d="M 85.154949 -60.688769 
L 85.154949 -57.111509 
L 90.219816 -57.640187 
L 95.284683 -59.388057 
L 100.34955 -58.902726 
L 105.414417 -57.971212 
L 110.479284 -59.497759 
L 115.544151 -57.814522 
L 120.609017 -58.260546 
L 125.673884 -57.037314 
L 130.738751 -58.074237 
L 135.803618 -57.851063 
L 140.868485 -59.745108 
L 145.933352 -59.469666 
L 150.998219 -58.473902 
L 156.063085 -58.193943 
L 161.127952 -58.018546 
L 166.192819 -60.156653 
L 171.257686 -60.135522 
L 176.322553 -68.284261 
L 181.38742 -88.993874 
L 186.452287 -117.799421 
L 191.517153 -148.679283 
L 196.58202 -174.200475 
L 201.646887 -191.962879 
L 206.711754 -199.113667 
L 211.776621 -204.695544 
L 216.841488 -204.664527 
L 221.906354 -205.65896 
L 226.971221 -202.614063 
L 232.036088 -206.039023 
L 237.100955 -218.059034 
L 242.165822 -237.339675 
L 247.230689 -257.849798 
L 252.295556 -275.022557 
L 257.360422 -284.559089 
L 262.425289 -291.534966 
L 267.490156 -289.792597 
L 272.555023 -286.420238 
L 277.61989 -284.654712 
L 282.684757 -280.442788 
L 287.749624 -277.584086 
L 292.81449 -273.562791 
L 297.879357 -267.384621 
L 302.944224 -263.334726 
L 308.009091 -258.009093 
L 313.073958 -254.364715 
L 318.138825 -251.091313 
L 323.203691 -245.600405 
L 328.268558 -241.366792 
L 333.333425 -235.960339 
L 338.398292 -233.479953 
L 343.463159 -228.817518 
L 348.528026 -226.737894 
L 353.592893 -222.257049 
L 358.657759 -218.493835 
L 363.722626 -214.679377 
L 368.787493 -213.401237 
L 373.85236 -207.83877 
L 378.917227 -205.905921 
L 383.982094 -200.644663 
L 389.046961 -200.456932 
L 394.111827 -195.673835 
L 399.176694 -193.784086 
L 404.241561 -192.054099 
L 409.306428 -188.584333 
L 414.371295 -186.779473 
L 419.436162 -183.352528 
L 424.501028 -179.345112 
L 429.565895 -177.851407 
L 434.630762 -174.339716 
L 439.695629 -172.604154 
L 444.760496 -172.695271 
L 449.825363 -170.760415 
L 454.89023 -166.877938 
L 459.955096 -164.727718 
L 465.019963 -165.572484 
L 470.08483 -159.827846 
L 475.149697 -156.766844 
L 480.214564 -155.254417 
L 485.279431 -154.108086 
L 490.344298 -151.737799 
L 495.409164 -151.291784 
L 500.474031 -149.108181 
L 505.538898 -147.336934 
L 510.603765 -146.783716 
L 515.668632 -145.71844 
L 520.733499 -143.478371 
L 525.798365 -143.141421 
L 530.863232 -140.007324 
L 535.928099 -139.277072 
L 535.928099 -148.848188 
L 535.928099 -148.848188 
L 530.863232 -149.69577 
L 525.798365 -153.07546 
L 520.733499 -153.430733 
L 515.668632 -155.931677 
L 510.603765 -157.032151 
L 505.538898 -157.869802 
L 500.474031 -159.677956 
L 495.409164 -161.871359 
L 490.344298 -162.41552 
L 485.279431 -165.092175 
L 480.214564 -166.375387 
L 475.149697 -168.110208 
L 470.08483 -171.419692 
L 465.019963 -177.268236 
L 459.955096 -176.494292 
L 454.89023 -178.800832 
L 449.825363 -182.89787 
L 444.760496 -185.152553 
L 439.695629 -185.121343 
L 434.630762 -187.093842 
L 429.565895 -190.819142 
L 424.501028 -192.372601 
L 419.436162 -196.626461 
L 414.371295 -200.573857 
L 409.306428 -202.337261 
L 404.241561 -206.127316 
L 399.176694 -208.01732 
L 394.111827 -210.256604 
L 389.046961 -215.128441 
L 383.982094 -215.517273 
L 378.917227 -221.120344 
L 373.85236 -223.304247 
L 368.787493 -229.073894 
L 363.722626 -230.822801 
L 358.657759 -234.58725 
L 353.592893 -238.735977 
L 348.528026 -243.281134 
L 343.463159 -245.733566 
L 338.398292 -250.627285 
L 333.333425 -253.260529 
L 328.268558 -259.144159 
L 323.203691 -263.828544 
L 318.138825 -269.570633 
L 313.073958 -272.947877 
L 308.009091 -277.029855 
L 302.944224 -282.523088 
L 297.879357 -286.960462 
L 292.81449 -293.382081 
L 287.749624 -297.664516 
L 282.684757 -300.477583 
L 277.61989 -304.912958 
L 272.555023 -306.635848 
L 267.490156 -309.816232 
L 262.425289 -311.438386 
L 257.360422 -304.107293 
L 252.295556 -293.625838 
L 247.230689 -275.260645 
L 242.165822 -253.118924 
L 237.100955 -232.289488 
L 232.036088 -219.291753 
L 226.971221 -215.357463 
L 221.906354 -218.29308 
L 216.841488 -217.133249 
L 211.776621 -216.886595 
L 206.711754 -210.712054 
L 201.646887 -202.882291 
L 196.58202 -183.736559 
L 191.517153 -156.610328 
L 186.452287 -123.807645 
L 181.38742 -93.066823 
L 176.322553 -70.96305 
L 171.257686 -62.168817 
L 166.192819 -62.183045 
L 161.127952 -59.933624 
L 156.063085 -60.183414 
L 150.998219 -60.900473 
L 145.933352 -62.498438 
L 140.868485 -62.94314 
L 135.803618 -61.014876 
L 130.738751 -61.145264 
L 125.673884 -60.174053 
L 120.609017 -61.44405 
L 115.544151 -61.047589 
L 110.479284 -62.824754 
L 105.414417 -61.310898 
L 100.34955 -62.310746 
L 95.284683 -62.755991 
L 90.219816 -61.190462 
L 85.154949 -60.688769 
z
" style="stroke: #f6cd51; stroke-opacity: 0.3; stroke-width: 1.5"/>
    </defs>
    <g clip-path="url(#pb01ff5cfbc)">
     <use xlink:href="#m1d45e294aa" x="0" y="360" style="fill: #f6cd51; fill-opacity: 0.3; stroke: #f6cd51; stroke-opacity: 0.3; stroke-width: 1.5"/>
    </g>
   </g>
   <g id="PolyCollection_3">
    <defs>
     <path id="mf55288fb71" d="M 85.154949 -61.148617 
L 85.154949 -52.78451 
L 90.219816 -56.234543 
L 95.284683 -57.184872 
L 100.34955 -57.222915 
L 105.414417 -57.604254 
L 110.479284 -59.738409 
L 115.544151 -53.713749 
L 120.609017 -61.258719 
L 125.673884 -53.922289 
L 130.738751 -53.238236 
L 135.803618 -57.166962 
L 140.868485 -57.997264 
L 145.933352 -52.854691 
L 150.998219 -54.245585 
L 156.063085 -59.840105 
L 161.127952 -58.233376 
L 166.192819 -58.417956 
L 171.257686 -61.159864 
L 176.322553 -58.408684 
L 181.38742 -69.971205 
L 186.452287 -95.804298 
L 191.517153 -133.796309 
L 196.58202 -160.337544 
L 201.646887 -175.610128 
L 206.711754 -187.921793 
L 211.776621 -187.282235 
L 216.841488 -188.565965 
L 221.906354 -187.225009 
L 226.971221 -184.882687 
L 232.036088 -184.71042 
L 237.100955 -181.241304 
L 242.165822 -190.634139 
L 247.230689 -208.623241 
L 252.295556 -219.595055 
L 257.360422 -234.07432 
L 262.425289 -230.455936 
L 267.490156 -230.799264 
L 272.555023 -231.140653 
L 277.61989 -230.735466 
L 282.684757 -226.39735 
L 287.749624 -220.691507 
L 292.81449 -218.234492 
L 297.879357 -210.265843 
L 302.944224 -205.269304 
L 308.009091 -205.063016 
L 313.073958 -202.928901 
L 318.138825 -199.844644 
L 323.203691 -190.318575 
L 328.268558 -189.732889 
L 333.333425 -185.351017 
L 338.398292 -182.311508 
L 343.463159 -180.178269 
L 348.528026 -177.727867 
L 353.592893 -176.498046 
L 358.657759 -171.387416 
L 363.722626 -169.511037 
L 368.787493 -166.83333 
L 373.85236 -163.616683 
L 378.917227 -168.547142 
L 383.982094 -161.307977 
L 389.046961 -156.820649 
L 394.111827 -160.739193 
L 399.176694 -152.290625 
L 404.241561 -153.92805 
L 409.306428 -147.387997 
L 414.371295 -148.466431 
L 419.436162 -145.676569 
L 424.501028 -142.01432 
L 429.565895 -137.92643 
L 434.630762 -136.901324 
L 439.695629 -140.10723 
L 444.760496 -135.312322 
L 449.825363 -134.128221 
L 454.89023 -131.063093 
L 459.955096 -128.451072 
L 465.019963 -125.608711 
L 470.08483 -130.388991 
L 475.149697 -125.655395 
L 480.214564 -123.269581 
L 485.279431 -116.269916 
L 490.344298 -116.30193 
L 495.409164 -110.517896 
L 500.474031 -116.518406 
L 505.538898 -110.662438 
L 510.603765 -110.638952 
L 515.668632 -108.139255 
L 520.733499 -105.815622 
L 525.798365 -104.462126 
L 530.863232 -108.485102 
L 535.928099 -109.152392 
L 535.928099 -124.781131 
L 535.928099 -124.781131 
L 530.863232 -124.102574 
L 525.798365 -120.22022 
L 520.733499 -121.564925 
L 515.668632 -124.286065 
L 510.603765 -126.878839 
L 505.538898 -126.999868 
L 500.474031 -132.885068 
L 495.409164 -127.300608 
L 490.344298 -133.490611 
L 485.279431 -133.516625 
L 480.214564 -140.787894 
L 475.149697 -143.472469 
L 470.08483 -148.529821 
L 465.019963 -143.561255 
L 459.955096 -146.856882 
L 454.89023 -149.80908 
L 449.825363 -153.4317 
L 444.760496 -154.576726 
L 439.695629 -160.011055 
L 434.630762 -157.455779 
L 429.565895 -158.287779 
L 424.501028 -162.8976 
L 419.436162 -167.730554 
L 414.371295 -169.514943 
L 409.306428 -168.921637 
L 404.241561 -176.636046 
L 399.176694 -174.862172 
L 394.111827 -183.364258 
L 389.046961 -180.669919 
L 383.982094 -185.425032 
L 378.917227 -192.590781 
L 373.85236 -188.051204 
L 368.787493 -191.99688 
L 363.722626 -195.004461 
L 358.657759 -197.267791 
L 353.592893 -202.428504 
L 348.528026 -204.320797 
L 343.463159 -207.076881 
L 338.398292 -209.843938 
L 333.333425 -213.186438 
L 328.268558 -217.940292 
L 323.203691 -219.420382 
L 318.138825 -229.070466 
L 313.073958 -233.074835 
L 308.009091 -235.302613 
L 302.944224 -236.201365 
L 297.879357 -241.891322 
L 292.81449 -249.857099 
L 287.749624 -252.933204 
L 282.684757 -258.488212 
L 277.61989 -263.459637 
L 272.555023 -263.620398 
L 267.490156 -263.092917 
L 262.425289 -261.813806 
L 257.360422 -264.143079 
L 252.295556 -247.84566 
L 247.230689 -233.983281 
L 242.165822 -212.424162 
L 237.100955 -202.94018 
L 232.036088 -205.78734 
L 226.971221 -206.857408 
L 221.906354 -208.489255 
L 216.841488 -210.172711 
L 211.776621 -207.658381 
L 206.711754 -206.95379 
L 201.646887 -192.897019 
L 196.58202 -174.079653 
L 191.517153 -143.888455 
L 186.452287 -103.121602 
L 181.38742 -76.212936 
L 176.322553 -63.690201 
L 171.257686 -66.600027 
L 166.192819 -63.657956 
L 161.127952 -63.972597 
L 156.063085 -65.607422 
L 150.998219 -61.215729 
L 145.933352 -60.815299 
L 140.868485 -66.239192 
L 135.803618 -64.964364 
L 130.738751 -61.394672 
L 125.673884 -61.696371 
L 120.609017 -69.61075 
L 115.544151 -62.310977 
L 110.479284 -67.476525 
L 105.414417 -66.031275 
L 100.34955 -64.800614 
L 95.284683 -64.961359 
L 90.219816 -64.368307 
L 85.154949 -61.148617 
z
" style="stroke: #d1a6de; stroke-opacity: 0.3; stroke-width: 1.5"/>
    </defs>
    <g clip-path="url(#pb01ff5cfbc)">
     <use xlink:href="#mf55288fb71" x="0" y="360" style="fill: #d1a6de; fill-opacity: 0.3; stroke: #d1a6de; stroke-opacity: 0.3; stroke-width: 1.5"/>
    </g>
   </g>
   <g id="line2d_1">
    <path d="M 85.154949 291.249252 
L 90.219816 290.773262 
L 95.284683 292.56249 
L 100.34955 294.579874 
L 105.414417 296.167364 
L 110.479284 293.291513 
L 115.544151 294.760684 
L 120.609017 293.449796 
L 125.673884 296.999854 
L 130.738751 295.978511 
L 135.803618 298.009727 
L 140.868485 299.285578 
L 145.933352 297.330753 
L 150.998219 297.511834 
L 156.063085 298.728904 
L 161.127952 298.176951 
L 166.192819 300.957079 
L 171.257686 297.424006 
L 176.322553 283.568744 
L 181.38742 255.351447 
L 186.452287 222.41482 
L 191.517153 182.933873 
L 196.58202 158.769685 
L 201.646887 147.816747 
L 206.711754 141.538332 
L 211.776621 144.691782 
L 216.841488 144.407407 
L 221.906354 151.175223 
L 226.971221 153.202111 
L 232.036088 150.880651 
L 237.100955 135.567671 
L 242.165822 109.416149 
L 247.230689 78.698591 
L 252.295556 53.395489 
L 257.360422 53.57614 
L 262.425289 46.512421 
L 267.490156 48.202326 
L 272.555023 54.094418 
L 277.61989 60.830936 
L 282.684757 67.534759 
L 287.749624 66.187949 
L 292.81449 73.68503 
L 297.879357 83.812149 
L 302.944224 86.833985 
L 308.009091 91.045687 
L 313.073958 95.649179 
L 318.138825 102.256901 
L 323.203691 108.835709 
L 328.268558 111.005129 
L 333.333425 117.570123 
L 338.398292 121.626989 
L 343.463159 127.70361 
L 348.528026 131.218629 
L 353.592893 130.833367 
L 358.657759 138.888426 
L 363.722626 139.55404 
L 368.787493 145.999548 
L 373.85236 148.95242 
L 378.917227 146.43916 
L 383.982094 153.933214 
L 389.046961 157.012039 
L 394.111827 163.232263 
L 399.176694 164.214169 
L 404.241561 165.896534 
L 409.306428 163.386614 
L 414.371295 168.617151 
L 419.436162 172.428516 
L 424.501028 174.127008 
L 429.565895 174.538507 
L 434.630762 178.680407 
L 439.695629 180.94764 
L 444.760496 187.154377 
L 449.825363 185.409218 
L 454.89023 186.85106 
L 459.955096 191.33204 
L 465.019963 194.172477 
L 470.08483 198.841497 
L 475.149697 203.774589 
L 480.214564 203.290924 
L 485.279431 208.539673 
L 490.344298 212.280038 
L 495.409164 212.761148 
L 500.474031 217.44434 
L 505.538898 221.044167 
L 510.603765 220.41453 
L 515.668632 226.231142 
L 520.733499 228.800999 
L 525.798365 228.597456 
L 530.863232 227.690696 
L 535.928099 232.301104 
" clip-path="url(#pb01ff5cfbc)" style="fill: none; stroke: #85a7eb; stroke-opacity: 0.7; stroke-width: 3; stroke-linecap: square"/>
   </g>
   <g id="line2d_2">
    <path d="M 85.154949 301.099861 
L 90.219816 300.584676 
L 95.284683 298.927976 
L 100.34955 299.393264 
L 105.414417 300.358945 
L 110.479284 298.838744 
L 115.544151 300.568944 
L 120.609017 300.147702 
L 125.673884 301.394316 
L 130.738751 300.39025 
L 135.803618 300.567031 
L 140.868485 298.655876 
L 145.933352 299.015948 
L 150.998219 300.312813 
L 156.063085 300.811322 
L 161.127952 301.023915 
L 166.192819 298.830151 
L 171.257686 298.84783 
L 176.322553 290.376345 
L 181.38742 268.969652 
L 186.452287 239.196467 
L 191.517153 207.355194 
L 196.58202 181.031483 
L 201.646887 162.577415 
L 206.711754 155.08714 
L 211.776621 149.20893 
L 216.841488 149.101112 
L 221.906354 148.02398 
L 226.971221 151.014237 
L 232.036088 147.334612 
L 237.100955 134.825739 
L 242.165822 114.770701 
L 247.230689 93.444779 
L 252.295556 75.675803 
L 257.360422 65.666809 
L 262.425289 58.513324 
L 267.490156 60.195585 
L 272.555023 63.471957 
L 277.61989 65.216165 
L 282.684757 69.539814 
L 287.749624 72.375699 
L 292.81449 76.527564 
L 297.879357 82.827458 
L 302.944224 87.071093 
L 308.009091 92.480526 
L 313.073958 96.343704 
L 318.138825 99.669027 
L 323.203691 105.285526 
L 328.268558 109.744525 
L 333.333425 115.389566 
L 338.398292 117.946381 
L 343.463159 122.724458 
L 348.528026 124.990486 
L 353.592893 129.503487 
L 358.657759 133.459458 
L 363.722626 137.248911 
L 368.787493 138.762434 
L 373.85236 144.428492 
L 378.917227 146.486867 
L 383.982094 151.919032 
L 389.046961 152.207314 
L 394.111827 157.034781 
L 399.176694 159.099297 
L 404.241561 160.909293 
L 409.306428 164.539203 
L 414.371295 166.323335 
L 419.436162 170.010505 
L 424.501028 174.141143 
L 429.565895 175.664725 
L 434.630762 179.283221 
L 439.695629 181.137251 
L 444.760496 181.076088 
L 449.825363 183.170857 
L 454.89023 187.160615 
L 459.955096 189.388995 
L 465.019963 188.57964 
L 470.08483 194.376231 
L 475.149697 197.561474 
L 480.214564 199.185098 
L 485.279431 200.39987 
L 490.344298 202.92334 
L 495.409164 203.418429 
L 500.474031 205.606931 
L 505.538898 207.396632 
L 510.603765 208.092066 
L 515.668632 209.174941 
L 520.733499 211.545448 
L 525.798365 211.891559 
L 530.863232 215.148453 
L 535.928099 215.93737 
" clip-path="url(#pb01ff5cfbc)" style="fill: none; stroke: #f6cd51; stroke-opacity: 0.7; stroke-width: 3; stroke-linecap: square"/>
   </g>
   <g id="line2d_3">
    <path d="M 85.154949 303.033437 
L 90.219816 299.698575 
L 95.284683 298.926884 
L 100.34955 298.988235 
L 105.414417 298.182236 
L 110.479284 296.392533 
L 115.544151 301.987637 
L 120.609017 294.565265 
L 125.673884 302.19067 
L 130.738751 302.683546 
L 135.803618 298.934337 
L 140.868485 297.881772 
L 145.933352 303.165005 
L 150.998219 302.269343 
L 156.063085 297.276236 
L 161.127952 298.897014 
L 166.192819 298.962044 
L 171.257686 296.120054 
L 176.322553 298.950558 
L 181.38742 286.90793 
L 186.452287 260.53705 
L 191.517153 221.157618 
L 196.58202 192.791401 
L 201.646887 175.746427 
L 206.711754 162.562208 
L 211.776621 162.529692 
L 216.841488 160.630662 
L 221.906354 162.142868 
L 226.971221 164.129953 
L 232.036088 164.75112 
L 237.100955 167.909258 
L 242.165822 158.47085 
L 247.230689 138.696739 
L 252.295556 126.279642 
L 257.360422 110.8913 
L 262.425289 113.865129 
L 267.490156 113.053909 
L 272.555023 112.619474 
L 277.61989 112.902448 
L 282.684757 117.557219 
L 287.749624 123.187644 
L 292.81449 125.954204 
L 297.879357 133.921417 
L 302.944224 139.264665 
L 308.009091 139.817185 
L 313.073958 141.998132 
L 318.138825 145.542445 
L 323.203691 155.130522 
L 328.268558 156.16341 
L 333.333425 160.731273 
L 338.398292 163.922277 
L 343.463159 166.372425 
L 348.528026 168.975668 
L 353.592893 170.536725 
L 358.657759 175.672396 
L 363.722626 177.742251 
L 368.787493 180.584895 
L 373.85236 184.166057 
L 378.917227 179.431039 
L 383.982094 186.633495 
L 389.046961 191.254716 
L 394.111827 187.948275 
L 399.176694 196.423602 
L 404.241561 194.717952 
L 409.306428 201.845183 
L 414.371295 201.009313 
L 419.436162 203.296439 
L 424.501028 207.54404 
L 429.565895 211.892896 
L 434.630762 212.821448 
L 439.695629 209.940857 
L 444.760496 215.055476 
L 449.825363 216.220039 
L 454.89023 219.563914 
L 459.955096 222.346023 
L 465.019963 225.415017 
L 470.08483 220.540594 
L 475.149697 225.436068 
L 480.214564 227.971263 
L 485.279431 235.10673 
L 490.344298 235.103729 
L 495.409164 241.090748 
L 500.474031 235.298263 
L 505.538898 241.168847 
L 510.603765 241.241104 
L 515.668632 243.78734 
L 520.733499 246.309726 
L 525.798365 247.658827 
L 530.863232 243.706162 
L 535.928099 243.033238 
" clip-path="url(#pb01ff5cfbc)" style="fill: none; stroke: #d1a6de; stroke-opacity: 0.7; stroke-width: 3; stroke-linecap: square"/>
   </g>
   <g id="line2d_4">
    <path d="M 161.127952 311.576363 
L 171.207037 311.576363 
L 171.207037 311.576363 
" clip-path="url(#pb01ff5cfbc)" style="fill: none; stroke: #ff0000; stroke-opacity: 0.5; stroke-width: 8; stroke-linecap: square"/>
   </g>
   <g id="line2d_5">
    <path d="M 209.244187 311.576363 
L 219.323272 311.576363 
L 219.323272 311.576363 
" clip-path="url(#pb01ff5cfbc)" style="fill: none; stroke: #ff0000; stroke-opacity: 0.5; stroke-width: 8; stroke-linecap: square"/>
   </g>
   <g id="line2d_6">
    <path d="M 80.090083 301.704549 
L 80.090083 202.986409 
" clip-path="url(#pb01ff5cfbc)" style="fill: none; stroke: #000000; stroke-width: 2; stroke-linecap: square"/>
   </g>
   <g id="line2d_7">
    <path d="M 85.154949 321.448177 
L 237.100955 321.448177 
" clip-path="url(#pb01ff5cfbc)" style="fill: none; stroke: #000000; stroke-width: 2; stroke-linecap: square"/>
   </g>
   <g id="text_1">
    <text style="font: 12px 'DejaVu Sans', 'Bitstream Vera Sans', 'Computer Modern Sans Serif', 'Lucida Grande', 'Verdana', 'Geneva', 'Lucid', 'Arial', 'Helvetica', 'Avant Garde', sans-serif; text-anchor: end" x="75.025216" y="255.656729" transform="rotate(-0 75.025216 255.656729)">0.05 dF/F</text>
   </g>
   <g id="text_2">
    <text style="font: 12px 'DejaVu Sans', 'Bitstream Vera Sans', 'Computer Modern Sans Serif', 'Lucida Grande', 'Verdana', 'Geneva', 'Lucid', 'Arial', 'Helvetica', 'Avant Garde', sans-serif; text-anchor: middle" x="161.127952" y="340.438116" transform="rotate(-0 161.127952 340.438116)">1 sec</text>
   </g>
   <g id="legend_1">
    <g id="line2d_8">
     <path d="M 491.136 34.569938 
L 504.336 34.569938 
L 517.536 34.569938 
" style="fill: none; stroke: #85a7eb; stroke-opacity: 0.7; stroke-width: 3; stroke-linecap: square"/>
    </g>
    <g id="text_3">
     <text style="font: 13.2px 'DejaVu Sans', 'Bitstream Vera Sans', 'Computer Modern Sans Serif', 'Lucida Grande', 'Verdana', 'Geneva', 'Lucid', 'Arial', 'Helvetica', 'Avant Garde', sans-serif; text-anchor: start" x="528.096" y="39.189938" transform="rotate(-0 528.096 39.189938)">V1</text>
    </g>
    <g id="line2d_9">
     <path d="M 491.136 53.945063 
L 504.336 53.945063 
L 517.536 53.945063 
" style="fill: none; stroke: #f6cd51; stroke-opacity: 0.7; stroke-width: 3; stroke-linecap: square"/>
    </g>
    <g id="text_4">
     <text style="font: 13.2px 'DejaVu Sans', 'Bitstream Vera Sans', 'Computer Modern Sans Serif', 'Lucida Grande', 'Verdana', 'Geneva', 'Lucid', 'Arial', 'Helvetica', 'Avant Garde', sans-serif; text-anchor: start" x="528.096" y="58.565063" transform="rotate(-0 528.096 58.565063)">LM</text>
    </g>
    <g id="line2d_10">
     <path d="M 491.136 73.320188 
L 504.336 73.320188 
L 517.536 73.320188 
" style="fill: none; stroke: #d1a6de; stroke-opacity: 0.7; stroke-width: 3; stroke-linecap: square"/>
    </g>
    <g id="text_5">
     <text style="font: 13.2px 'DejaVu Sans', 'Bitstream Vera Sans', 'Computer Modern Sans Serif', 'Lucida Grande', 'Verdana', 'Geneva', 'Lucid', 'Arial', 'Helvetica', 'Avant Garde', sans-serif; text-anchor: start" x="528.096" y="77.940188" transform="rotate(-0 528.096 77.940188)">LI</text>
    </g>
   </g>
  </g>
 </g>
 <defs>
  <clipPath id="pb01ff5cfbc">
   <rect x="57.298182" y="17.28" width="501.421818" height="318.652376"/>
  </clipPath>
 </defs>
</svg>
