<?xml version="1.0" encoding="utf-8" standalone="no"?>
<!DOCTYPE svg PUBLIC "-//W3C//DTD SVG 1.1//EN"
  "http://www.w3.org/Graphics/SVG/1.1/DTD/svg11.dtd">
<svg xmlns:xlink="http://www.w3.org/1999/xlink" width="576pt" height="360pt" viewBox="0 0 576 360" xmlns="http://www.w3.org/2000/svg" version="1.1">
 <metadata>
  <rdf:RDF xmlns:dc="http://purl.org/dc/elements/1.1/" xmlns:cc="http://creativecommons.org/ns#" xmlns:rdf="http://www.w3.org/1999/02/22-rdf-syntax-ns#">
   <cc:Work>
    <dc:type rdf:resource="http://purl.org/dc/dcmitype/StillImage"/>
    <dc:date>2023-11-20T16:53:12.591406</dc:date>
    <dc:format>image/svg+xml</dc:format>
    <dc:creator>
     <cc:Agent>
      <dc:title>Matplotlib v3.7.2, https://matplotlib.org/</dc:title>
     </cc:Agent>
    </dc:creator>
   </cc:Work>
  </rdf:RDF>
 </metadata>
 <defs>
  <style type="text/css">*{stroke-linejoin: round; stroke-linecap: butt}</style>
 </defs>
 <g id="figure_1">
  <g id="patch_1">
   <path d="M 0 360 
L 576 360 
L 576 0 
L 0 0 
z
" style="fill: #ffffff"/>
  </g>
  <g id="axes_1">
   <g id="PolyCollection_1">
    <defs>
     <path id="m8f907d4739" d="M 85.154949 -78.657778 
L 85.154949 -71.996852 
L 90.219816 -70.40088 
L 95.284683 -72.585774 
L 100.34955 -70.581158 
L 105.414417 -69.658504 
L 110.479284 -68.92414 
L 115.544151 -70.875934 
L 120.609017 -68.863826 
L 125.673884 -69.9363 
L 130.738751 -70.037514 
L 135.803618 -64.566845 
L 140.868485 -67.006504 
L 145.933352 -65.521895 
L 150.998219 -66.121838 
L 156.063085 -64.351658 
L 161.127952 -62.238627 
L 166.192819 -60.62289 
L 171.257686 -63.649566 
L 176.322553 -62.229876 
L 181.38742 -63.52102 
L 186.452287 -60.050661 
L 191.517153 -61.220908 
L 196.58202 -59.191827 
L 201.646887 -57.800326 
L 206.711754 -59.851749 
L 211.776621 -60.164578 
L 216.841488 -59.484361 
L 221.906354 -60.047548 
L 226.971221 -57.141002 
L 232.036088 -60.696577 
L 237.100955 -74.159502 
L 242.165822 -101.151911 
L 247.230689 -132.842235 
L 252.295556 -170.652561 
L 257.360422 -193.557524 
L 262.425289 -203.744632 
L 267.490156 -209.450044 
L 272.555023 -206.257861 
L 277.61989 -206.49756 
L 282.684757 -199.801885 
L 287.749624 -197.582951 
L 292.81449 -199.57618 
L 297.879357 -214.077739 
L 302.944224 -238.887213 
L 308.009091 -268.157723 
L 313.073958 -292.39453 
L 318.138825 -291.614849 
L 323.203691 -298.739356 
L 328.268558 -297.041649 
L 333.333425 -291.073226 
L 338.398292 -284.359479 
L 343.463159 -277.909488 
L 348.528026 -279.212332 
L 353.592893 -272.167788 
L 358.657759 -262.284301 
L 363.722626 -259.566201 
L 368.787493 -255.394081 
L 373.85236 -251.107605 
L 378.917227 -244.776868 
L 383.982094 -238.65732 
L 389.046961 -236.55426 
L 394.111827 -230.130293 
L 399.176694 -226.340434 
L 404.241561 -220.454066 
L 409.306428 -217.094733 
L 414.371295 -217.787806 
L 419.436162 -209.607306 
L 424.501028 -209.245907 
L 429.565895 -203.042012 
L 434.630762 -200.261681 
L 439.695629 -202.937612 
L 444.760496 -195.541551 
L 449.825363 -192.799198 
L 454.89023 -186.698837 
L 459.955096 -185.913049 
L 465.019963 -184.290882 
L 470.08483 -186.719254 
L 475.149697 -181.720256 
L 480.214564 -178.147673 
L 485.279431 -176.563084 
L 490.344298 -176.325764 
L 495.409164 -172.337904 
L 500.474031 -170.153251 
L 505.538898 -164.110158 
L 510.603765 -166.034606 
L 515.668632 -164.584144 
L 520.733499 -160.344752 
L 525.798365 -157.618367 
L 530.863232 -152.965665 
L 535.928099 -148.335182 
L 535.928099 -164.115639 
L 535.928099 -164.115639 
L 530.863232 -169.351341 
L 525.798365 -174.03668 
L 520.733499 -176.991168 
L 515.668632 -181.713737 
L 510.603765 -183.146959 
L 505.538898 -181.581088 
L 500.474031 -187.951469 
L 495.409164 -190.301282 
L 490.344298 -194.597222 
L 485.279431 -195.182899 
L 480.214564 -196.995295 
L 475.149697 -201.045442 
L 470.08483 -206.507517 
L 465.019963 -203.91605 
L 459.955096 -205.658613 
L 454.89023 -206.836637 
L 449.825363 -213.176723 
L 444.760496 -216.59202 
L 439.695629 -224.184067 
L 434.630762 -221.833478 
L 429.565895 -224.958893 
L 424.501028 -231.646013 
L 419.436162 -232.615842 
L 414.371295 -240.54546 
L 409.306428 -240.468009 
L 404.241561 -244.138714 
L 399.176694 -250.405588 
L 394.111827 -254.729461 
L 389.046961 -261.435482 
L 383.982094 -263.671261 
L 378.917227 -270.70933 
L 373.85236 -277.594036 
L 368.787493 -282.514546 
L 363.722626 -286.765828 
L 358.657759 -290.091401 
L 353.592893 -300.462151 
L 348.528026 -308.41177 
L 343.463159 -307.020994 
L 338.398292 -313.97865 
L 333.333425 -320.737938 
L 328.268558 -326.553699 
L 323.203691 -328.235801 
L 318.138825 -321.232871 
L 313.073958 -320.814492 
L 308.009091 -294.445095 
L 302.944224 -262.280489 
L 297.879357 -234.786918 
L 292.81449 -218.662518 
L 287.749624 -216.012827 
L 282.684757 -217.84767 
L 277.61989 -224.687625 
L 272.555023 -224.358576 
L 267.490156 -227.473292 
L 262.425289 -220.621873 
L 257.360422 -208.903107 
L 252.295556 -183.479692 
L 247.230689 -142.328125 
L 242.165822 -108.145196 
L 237.100955 -78.70301 
L 232.036088 -64.455411 
L 226.971221 -60.944839 
L 221.906354 -63.59855 
L 216.841488 -63.057831 
L 211.776621 -64.811753 
L 206.711754 -65.486746 
L 201.646887 -63.628518 
L 196.58202 -64.788718 
L 191.517153 -66.822069 
L 186.452287 -65.949631 
L 181.38742 -69.579389 
L 176.322553 -68.248756 
L 171.257686 -69.767408 
L 166.192819 -67.042382 
L 161.127952 -68.601625 
L 156.063085 -70.523363 
L 150.998219 -72.331638 
L 145.933352 -71.979601 
L 140.868485 -73.253235 
L 135.803618 -71.255722 
L 130.738751 -76.685723 
L 125.673884 -76.439752 
L 120.609017 -75.259737 
L 115.544151 -77.667856 
L 110.479284 -75.668959 
L 105.414417 -76.479134 
L 100.34955 -77.242393 
L 95.284683 -79.623985 
L 90.219816 -77.465631 
L 85.154949 -78.657778 
z
" style="stroke: #85a7eb; stroke-opacity: 0.3; stroke-width: 1.5"/>
    </defs>
    <g clip-path="url(#pdb0d69a883)">
     <use xlink:href="#m8f907d4739" x="0" y="360" style="fill: #85a7eb; fill-opacity: 0.3; stroke: #85a7eb; stroke-opacity: 0.3; stroke-width: 1.5"/>
    </g>
   </g>
   <g id="PolyCollection_2">
    <defs>
     <path id="m089e1a196a" d="M 85.154949 -64.958421 
L 85.154949 -60.953864 
L 90.219816 -58.746704 
L 95.284683 -59.971242 
L 100.34955 -61.048297 
L 105.414417 -59.823178 
L 110.479284 -61.150859 
L 115.544151 -59.701838 
L 120.609017 -59.911744 
L 125.673884 -58.127397 
L 130.738751 -59.432452 
L 135.803618 -59.32521 
L 140.868485 -59.904459 
L 145.933352 -57.111509 
L 150.998219 -57.640187 
L 156.063085 -59.388057 
L 161.127952 -58.902726 
L 166.192819 -57.971212 
L 171.257686 -59.497759 
L 176.322553 -57.814522 
L 181.38742 -58.260546 
L 186.452287 -57.037314 
L 191.517153 -58.074237 
L 196.58202 -57.851063 
L 201.646887 -59.745108 
L 206.711754 -59.469666 
L 211.776621 -58.473902 
L 216.841488 -58.193943 
L 221.906354 -58.018546 
L 226.971221 -60.156653 
L 232.036088 -60.135522 
L 237.100955 -68.284261 
L 242.165822 -88.993874 
L 247.230689 -117.799421 
L 252.295556 -148.679283 
L 257.360422 -174.200475 
L 262.425289 -191.962879 
L 267.490156 -199.113667 
L 272.555023 -204.695544 
L 277.61989 -204.664527 
L 282.684757 -205.65896 
L 287.749624 -202.614063 
L 292.81449 -206.039023 
L 297.879357 -218.059034 
L 302.944224 -237.339675 
L 308.009091 -257.849798 
L 313.073958 -275.022557 
L 318.138825 -284.559089 
L 323.203691 -291.534966 
L 328.268558 -289.792597 
L 333.333425 -286.420238 
L 338.398292 -284.654712 
L 343.463159 -280.442788 
L 348.528026 -277.584086 
L 353.592893 -273.562791 
L 358.657759 -267.384621 
L 363.722626 -263.334726 
L 368.787493 -258.009093 
L 373.85236 -254.364715 
L 378.917227 -251.091313 
L 383.982094 -245.600405 
L 389.046961 -241.366792 
L 394.111827 -235.960339 
L 399.176694 -233.479953 
L 404.241561 -228.817518 
L 409.306428 -226.737894 
L 414.371295 -222.257049 
L 419.436162 -218.493835 
L 424.501028 -214.679377 
L 429.565895 -213.401237 
L 434.630762 -207.83877 
L 439.695629 -205.905921 
L 444.760496 -200.644663 
L 449.825363 -200.456932 
L 454.89023 -195.673835 
L 459.955096 -193.784086 
L 465.019963 -192.054099 
L 470.08483 -188.584333 
L 475.149697 -186.779473 
L 480.214564 -183.352528 
L 485.279431 -179.345112 
L 490.344298 -177.851407 
L 495.409164 -174.339716 
L 500.474031 -172.604154 
L 505.538898 -172.695271 
L 510.603765 -170.760415 
L 515.668632 -166.877938 
L 520.733499 -164.727718 
L 525.798365 -165.572484 
L 530.863232 -159.827846 
L 535.928099 -156.766844 
L 535.928099 -168.110208 
L 535.928099 -168.110208 
L 530.863232 -171.419692 
L 525.798365 -177.268236 
L 520.733499 -176.494292 
L 515.668632 -178.800832 
L 510.603765 -182.89787 
L 505.538898 -185.152553 
L 500.474031 -185.121343 
L 495.409164 -187.093842 
L 490.344298 -190.819142 
L 485.279431 -192.372601 
L 480.214564 -196.626461 
L 475.149697 -200.573857 
L 470.08483 -202.337261 
L 465.019963 -206.127316 
L 459.955096 -208.01732 
L 454.89023 -210.256604 
L 449.825363 -215.128441 
L 444.760496 -215.517273 
L 439.695629 -221.120344 
L 434.630762 -223.304247 
L 429.565895 -229.073894 
L 424.501028 -230.822801 
L 419.436162 -234.58725 
L 414.371295 -238.735977 
L 409.306428 -243.281134 
L 404.241561 -245.733566 
L 399.176694 -250.627285 
L 394.111827 -253.260529 
L 389.046961 -259.144159 
L 383.982094 -263.828544 
L 378.917227 -269.570633 
L 373.85236 -272.947877 
L 368.787493 -277.029855 
L 363.722626 -282.523088 
L 358.657759 -286.960462 
L 353.592893 -293.382081 
L 348.528026 -297.664516 
L 343.463159 -300.477583 
L 338.398292 -304.912958 
L 333.333425 -306.635848 
L 328.268558 -309.816232 
L 323.203691 -311.438386 
L 318.138825 -304.107293 
L 313.073958 -293.625838 
L 308.009091 -275.260645 
L 302.944224 -253.118924 
L 297.879357 -232.289488 
L 292.81449 -219.291753 
L 287.749624 -215.357463 
L 282.684757 -218.29308 
L 277.61989 -217.133249 
L 272.555023 -216.886595 
L 267.490156 -210.712054 
L 262.425289 -202.882291 
L 257.360422 -183.736559 
L 252.295556 -156.610328 
L 247.230689 -123.807645 
L 242.165822 -93.066823 
L 237.100955 -70.96305 
L 232.036088 -62.168817 
L 226.971221 -62.183045 
L 221.906354 -59.933624 
L 216.841488 -60.183414 
L 211.776621 -60.900473 
L 206.711754 -62.498438 
L 201.646887 -62.94314 
L 196.58202 -61.014876 
L 191.517153 -61.145264 
L 186.452287 -60.174053 
L 181.38742 -61.44405 
L 176.322553 -61.047589 
L 171.257686 -62.824754 
L 166.192819 -61.310898 
L 161.127952 -62.310746 
L 156.063085 -62.755991 
L 150.998219 -61.190462 
L 145.933352 -60.688769 
L 140.868485 -63.327366 
L 135.803618 -62.872557 
L 130.738751 -63.020628 
L 125.673884 -61.676943 
L 120.609017 -63.590691 
L 115.544151 -63.414772 
L 110.479284 -64.828591 
L 105.414417 -63.486567 
L 100.34955 -64.740293 
L 95.284683 -63.841967 
L 90.219816 -62.535022 
L 85.154949 -64.958421 
z
" style="stroke: #f6cd51; stroke-opacity: 0.3; stroke-width: 1.5"/>
    </defs>
    <g clip-path="url(#pdb0d69a883)">
     <use xlink:href="#m089e1a196a" x="0" y="360" style="fill: #f6cd51; fill-opacity: 0.3; stroke: #f6cd51; stroke-opacity: 0.3; stroke-width: 1.5"/>
    </g>
   </g>
   <g id="PolyCollection_3">
    <defs>
     <path id="m4f2bf09acd" d="M 85.154949 -71.12965 
L 85.154949 -62.964267 
L 90.219816 -58.987222 
L 95.284683 -58.404118 
L 100.34955 -54.369203 
L 105.414417 -59.77626 
L 110.479284 -61.072446 
L 115.544151 -60.800342 
L 120.609017 -60.390574 
L 125.673884 -57.705619 
L 130.738751 -63.214927 
L 135.803618 -57.86014 
L 140.868485 -59.07174 
L 145.933352 -52.78451 
L 150.998219 -56.234543 
L 156.063085 -57.184872 
L 161.127952 -57.222915 
L 166.192819 -57.604254 
L 171.257686 -59.738409 
L 176.322553 -53.713749 
L 181.38742 -61.258719 
L 186.452287 -53.922289 
L 191.517153 -53.238236 
L 196.58202 -57.166962 
L 201.646887 -57.997264 
L 206.711754 -52.854691 
L 211.776621 -54.245585 
L 216.841488 -59.840105 
L 221.906354 -58.233376 
L 226.971221 -58.417956 
L 232.036088 -61.159864 
L 237.100955 -58.408684 
L 242.165822 -69.971205 
L 247.230689 -95.804298 
L 252.295556 -133.796309 
L 257.360422 -160.337544 
L 262.425289 -175.610128 
L 267.490156 -187.921793 
L 272.555023 -187.282235 
L 277.61989 -188.565965 
L 282.684757 -187.225009 
L 287.749624 -184.882687 
L 292.81449 -184.71042 
L 297.879357 -181.241304 
L 302.944224 -190.634139 
L 308.009091 -208.623241 
L 313.073958 -219.595055 
L 318.138825 -234.07432 
L 323.203691 -230.455936 
L 328.268558 -230.799264 
L 333.333425 -231.140653 
L 338.398292 -230.735466 
L 343.463159 -226.39735 
L 348.528026 -220.691507 
L 353.592893 -218.234492 
L 358.657759 -210.265843 
L 363.722626 -205.269304 
L 368.787493 -205.063016 
L 373.85236 -202.928901 
L 378.917227 -199.844644 
L 383.982094 -190.318575 
L 389.046961 -189.732889 
L 394.111827 -185.351017 
L 399.176694 -182.311508 
L 404.241561 -180.178269 
L 409.306428 -177.727867 
L 414.371295 -176.498046 
L 419.436162 -171.387416 
L 424.501028 -169.511037 
L 429.565895 -166.83333 
L 434.630762 -163.616683 
L 439.695629 -168.547142 
L 444.760496 -161.307977 
L 449.825363 -156.820649 
L 454.89023 -160.739193 
L 459.955096 -152.290625 
L 465.019963 -153.92805 
L 470.08483 -147.387997 
L 475.149697 -148.466431 
L 480.214564 -145.676569 
L 485.279431 -142.01432 
L 490.344298 -137.92643 
L 495.409164 -136.901324 
L 500.474031 -140.10723 
L 505.538898 -135.312322 
L 510.603765 -134.128221 
L 515.668632 -131.063093 
L 520.733499 -128.451072 
L 525.798365 -125.608711 
L 530.863232 -130.388991 
L 535.928099 -125.655395 
L 535.928099 -143.472469 
L 535.928099 -143.472469 
L 530.863232 -148.529821 
L 525.798365 -143.561255 
L 520.733499 -146.856882 
L 515.668632 -149.80908 
L 510.603765 -153.4317 
L 505.538898 -154.576726 
L 500.474031 -160.011055 
L 495.409164 -157.455779 
L 490.344298 -158.287779 
L 485.279431 -162.8976 
L 480.214564 -167.730554 
L 475.149697 -169.514943 
L 470.08483 -168.921637 
L 465.019963 -176.636046 
L 459.955096 -174.862172 
L 454.89023 -183.364258 
L 449.825363 -180.669919 
L 444.760496 -185.425032 
L 439.695629 -192.590781 
L 434.630762 -188.051204 
L 429.565895 -191.99688 
L 424.501028 -195.004461 
L 419.436162 -197.267791 
L 414.371295 -202.428504 
L 409.306428 -204.320797 
L 404.241561 -207.076881 
L 399.176694 -209.843938 
L 394.111827 -213.186438 
L 389.046961 -217.940292 
L 383.982094 -219.420382 
L 378.917227 -229.070466 
L 373.85236 -233.074835 
L 368.787493 -235.302613 
L 363.722626 -236.201365 
L 358.657759 -241.891322 
L 353.592893 -249.857099 
L 348.528026 -252.933204 
L 343.463159 -258.488212 
L 338.398292 -263.459637 
L 333.333425 -263.620398 
L 328.268558 -263.092917 
L 323.203691 -261.813806 
L 318.138825 -264.143079 
L 313.073958 -247.84566 
L 308.009091 -233.983281 
L 302.944224 -212.424162 
L 297.879357 -202.94018 
L 292.81449 -205.78734 
L 287.749624 -206.857408 
L 282.684757 -208.489255 
L 277.61989 -210.172711 
L 272.555023 -207.658381 
L 267.490156 -206.95379 
L 262.425289 -192.897019 
L 257.360422 -174.079653 
L 252.295556 -143.888455 
L 247.230689 -103.121602 
L 242.165822 -76.212936 
L 237.100955 -63.690201 
L 232.036088 -66.600027 
L 226.971221 -63.657956 
L 221.906354 -63.972597 
L 216.841488 -65.607422 
L 211.776621 -61.215729 
L 206.711754 -60.815299 
L 201.646887 -66.239192 
L 196.58202 -64.964364 
L 191.517153 -61.394672 
L 186.452287 -61.696371 
L 181.38742 -69.61075 
L 176.322553 -62.310977 
L 171.257686 -67.476525 
L 166.192819 -66.031275 
L 161.127952 -64.800614 
L 156.063085 -64.961359 
L 150.998219 -64.368307 
L 145.933352 -61.148617 
L 140.868485 -67.273445 
L 135.803618 -65.777676 
L 130.738751 -71.763135 
L 125.673884 -65.636742 
L 120.609017 -68.929404 
L 115.544151 -69.239783 
L 110.479284 -69.38216 
L 105.414417 -68.632988 
L 100.34955 -63.05495 
L 95.284683 -66.516874 
L 90.219816 -67.941082 
L 85.154949 -71.12965 
z
" style="stroke: #d1a6de; stroke-opacity: 0.3; stroke-width: 1.5"/>
    </defs>
    <g clip-path="url(#pdb0d69a883)">
     <use xlink:href="#m4f2bf09acd" x="0" y="360" style="fill: #d1a6de; fill-opacity: 0.3; stroke: #d1a6de; stroke-opacity: 0.3; stroke-width: 1.5"/>
    </g>
   </g>
   <g id="line2d_1">
    <path d="M 85.154949 284.672685 
L 90.219816 286.066745 
L 95.284683 283.895121 
L 100.34955 286.088224 
L 105.414417 286.931181 
L 110.479284 287.703451 
L 115.544151 285.728105 
L 120.609017 287.938219 
L 125.673884 286.811974 
L 130.738751 286.638382 
L 135.803618 292.088716 
L 140.868485 289.870131 
L 145.933352 291.249252 
L 150.998219 290.773262 
L 156.063085 292.56249 
L 161.127952 294.579874 
L 166.192819 296.167364 
L 171.257686 293.291513 
L 176.322553 294.760684 
L 181.38742 293.449796 
L 186.452287 296.999854 
L 191.517153 295.978511 
L 196.58202 298.009727 
L 201.646887 299.285578 
L 206.711754 297.330753 
L 211.776621 297.511834 
L 216.841488 298.728904 
L 221.906354 298.176951 
L 226.971221 300.957079 
L 232.036088 297.424006 
L 237.100955 283.568744 
L 242.165822 255.351447 
L 247.230689 222.41482 
L 252.295556 182.933873 
L 257.360422 158.769685 
L 262.425289 147.816747 
L 267.490156 141.538332 
L 272.555023 144.691782 
L 277.61989 144.407407 
L 282.684757 151.175223 
L 287.749624 153.202111 
L 292.81449 150.880651 
L 297.879357 135.567671 
L 302.944224 109.416149 
L 308.009091 78.698591 
L 313.073958 53.395489 
L 318.138825 53.57614 
L 323.203691 46.512421 
L 328.268558 48.202326 
L 333.333425 54.094418 
L 338.398292 60.830936 
L 343.463159 67.534759 
L 348.528026 66.187949 
L 353.592893 73.68503 
L 358.657759 83.812149 
L 363.722626 86.833985 
L 368.787493 91.045687 
L 373.85236 95.649179 
L 378.917227 102.256901 
L 383.982094 108.835709 
L 389.046961 111.005129 
L 394.111827 117.570123 
L 399.176694 121.626989 
L 404.241561 127.70361 
L 409.306428 131.218629 
L 414.371295 130.833367 
L 419.436162 138.888426 
L 424.501028 139.55404 
L 429.565895 145.999548 
L 434.630762 148.95242 
L 439.695629 146.43916 
L 444.760496 153.933214 
L 449.825363 157.012039 
L 454.89023 163.232263 
L 459.955096 164.214169 
L 465.019963 165.896534 
L 470.08483 163.386614 
L 475.149697 168.617151 
L 480.214564 172.428516 
L 485.279431 174.127008 
L 490.344298 174.538507 
L 495.409164 178.680407 
L 500.474031 180.94764 
L 505.538898 187.154377 
L 510.603765 185.409218 
L 515.668632 186.85106 
L 520.733499 191.33204 
L 525.798365 194.172477 
L 530.863232 198.841497 
L 535.928099 203.774589 
" clip-path="url(#pdb0d69a883)" style="fill: none; stroke: #85a7eb; stroke-opacity: 0.7; stroke-width: 3; stroke-linecap: square"/>
   </g>
   <g id="line2d_2">
    <path d="M 85.154949 297.043857 
L 90.219816 299.359137 
L 95.284683 298.093395 
L 100.34955 297.105705 
L 105.414417 298.345128 
L 110.479284 297.010275 
L 115.544151 298.441695 
L 120.609017 298.248783 
L 125.673884 300.09783 
L 130.738751 298.77346 
L 135.803618 298.901116 
L 140.868485 298.384087 
L 145.933352 301.099861 
L 150.998219 300.584676 
L 156.063085 298.927976 
L 161.127952 299.393264 
L 166.192819 300.358945 
L 171.257686 298.838744 
L 176.322553 300.568944 
L 181.38742 300.147702 
L 186.452287 301.394316 
L 191.517153 300.39025 
L 196.58202 300.567031 
L 201.646887 298.655876 
L 206.711754 299.015948 
L 211.776621 300.312813 
L 216.841488 300.811322 
L 221.906354 301.023915 
L 226.971221 298.830151 
L 232.036088 298.84783 
L 237.100955 290.376345 
L 242.165822 268.969652 
L 247.230689 239.196467 
L 252.295556 207.355194 
L 257.360422 181.031483 
L 262.425289 162.577415 
L 267.490156 155.08714 
L 272.555023 149.20893 
L 277.61989 149.101112 
L 282.684757 148.02398 
L 287.749624 151.014237 
L 292.81449 147.334612 
L 297.879357 134.825739 
L 302.944224 114.770701 
L 308.009091 93.444779 
L 313.073958 75.675803 
L 318.138825 65.666809 
L 323.203691 58.513324 
L 328.268558 60.195585 
L 333.333425 63.471957 
L 338.398292 65.216165 
L 343.463159 69.539814 
L 348.528026 72.375699 
L 353.592893 76.527564 
L 358.657759 82.827458 
L 363.722626 87.071093 
L 368.787493 92.480526 
L 373.85236 96.343704 
L 378.917227 99.669027 
L 383.982094 105.285526 
L 389.046961 109.744525 
L 394.111827 115.389566 
L 399.176694 117.946381 
L 404.241561 122.724458 
L 409.306428 124.990486 
L 414.371295 129.503487 
L 419.436162 133.459458 
L 424.501028 137.248911 
L 429.565895 138.762434 
L 434.630762 144.428492 
L 439.695629 146.486867 
L 444.760496 151.919032 
L 449.825363 152.207314 
L 454.89023 157.034781 
L 459.955096 159.099297 
L 465.019963 160.909293 
L 470.08483 164.539203 
L 475.149697 166.323335 
L 480.214564 170.010505 
L 485.279431 174.141143 
L 490.344298 175.664725 
L 495.409164 179.283221 
L 500.474031 181.137251 
L 505.538898 181.076088 
L 510.603765 183.170857 
L 515.668632 187.160615 
L 520.733499 189.388995 
L 525.798365 188.57964 
L 530.863232 194.376231 
L 535.928099 197.561474 
" clip-path="url(#pdb0d69a883)" style="fill: none; stroke: #f6cd51; stroke-opacity: 0.7; stroke-width: 3; stroke-linecap: square"/>
   </g>
   <g id="line2d_3">
    <path d="M 85.154949 292.953042 
L 90.219816 296.535848 
L 95.284683 297.539504 
L 100.34955 301.287923 
L 105.414417 295.795376 
L 110.479284 294.772697 
L 115.544151 294.979938 
L 120.609017 295.340011 
L 125.673884 298.32882 
L 130.738751 292.510969 
L 135.803618 298.181092 
L 140.868485 296.827408 
L 145.933352 303.033437 
L 150.998219 299.698575 
L 156.063085 298.926884 
L 161.127952 298.988235 
L 166.192819 298.182236 
L 171.257686 296.392533 
L 176.322553 301.987637 
L 181.38742 294.565265 
L 186.452287 302.19067 
L 191.517153 302.683546 
L 196.58202 298.934337 
L 201.646887 297.881772 
L 206.711754 303.165005 
L 211.776621 302.269343 
L 216.841488 297.276236 
L 221.906354 298.897014 
L 226.971221 298.962044 
L 232.036088 296.120054 
L 237.100955 298.950558 
L 242.165822 286.90793 
L 247.230689 260.53705 
L 252.295556 221.157618 
L 257.360422 192.791401 
L 262.425289 175.746427 
L 267.490156 162.562208 
L 272.555023 162.529692 
L 277.61989 160.630662 
L 282.684757 162.142868 
L 287.749624 164.129953 
L 292.81449 164.75112 
L 297.879357 167.909258 
L 302.944224 158.47085 
L 308.009091 138.696739 
L 313.073958 126.279642 
L 318.138825 110.8913 
L 323.203691 113.865129 
L 328.268558 113.053909 
L 333.333425 112.619474 
L 338.398292 112.902448 
L 343.463159 117.557219 
L 348.528026 123.187644 
L 353.592893 125.954204 
L 358.657759 133.921417 
L 363.722626 139.264665 
L 368.787493 139.817185 
L 373.85236 141.998132 
L 378.917227 145.542445 
L 383.982094 155.130522 
L 389.046961 156.16341 
L 394.111827 160.731273 
L 399.176694 163.922277 
L 404.241561 166.372425 
L 409.306428 168.975668 
L 414.371295 170.536725 
L 419.436162 175.672396 
L 424.501028 177.742251 
L 429.565895 180.584895 
L 434.630762 184.166057 
L 439.695629 179.431039 
L 444.760496 186.633495 
L 449.825363 191.254716 
L 454.89023 187.948275 
L 459.955096 196.423602 
L 465.019963 194.717952 
L 470.08483 201.845183 
L 475.149697 201.009313 
L 480.214564 203.296439 
L 485.279431 207.54404 
L 490.344298 211.892896 
L 495.409164 212.821448 
L 500.474031 209.940857 
L 505.538898 215.055476 
L 510.603765 216.220039 
L 515.668632 219.563914 
L 520.733499 222.346023 
L 525.798365 225.415017 
L 530.863232 220.540594 
L 535.928099 225.436068 
" clip-path="url(#pdb0d69a883)" style="fill: none; stroke: #d1a6de; stroke-opacity: 0.7; stroke-width: 3; stroke-linecap: square"/>
   </g>
   <g id="line2d_4">
    <path d="M 221.906354 311.576363 
L 231.985439 311.576363 
L 231.985439 311.576363 
" clip-path="url(#pdb0d69a883)" style="fill: none; stroke: #ff0000; stroke-opacity: 0.5; stroke-width: 8; stroke-linecap: square"/>
   </g>
   <g id="line2d_5">
    <path d="M 270.02259 311.576363 
L 280.101675 311.576363 
L 280.101675 311.576363 
" clip-path="url(#pdb0d69a883)" style="fill: none; stroke: #ff0000; stroke-opacity: 0.5; stroke-width: 8; stroke-linecap: square"/>
   </g>
   <g id="line2d_6">
    <path d="M 80.090083 301.704549 
L 80.090083 202.986409 
" clip-path="url(#pdb0d69a883)" style="fill: none; stroke: #000000; stroke-width: 2; stroke-linecap: square"/>
   </g>
   <g id="line2d_7">
    <path d="M 85.154949 321.448177 
L 237.100955 321.448177 
" clip-path="url(#pdb0d69a883)" style="fill: none; stroke: #000000; stroke-width: 2; stroke-linecap: square"/>
   </g>
   <g id="text_1">
    <text style="font: 12px 'DejaVu Sans', 'Bitstream Vera Sans', 'Computer Modern Sans Serif', 'Lucida Grande', 'Verdana', 'Geneva', 'Lucid', 'Arial', 'Helvetica', 'Avant Garde', sans-serif; text-anchor: end" x="75.025216" y="255.656729" transform="rotate(-0 75.025216 255.656729)">0.05 dF/F</text>
   </g>
   <g id="text_2">
    <text style="font: 12px 'DejaVu Sans', 'Bitstream Vera Sans', 'Computer Modern Sans Serif', 'Lucida Grande', 'Verdana', 'Geneva', 'Lucid', 'Arial', 'Helvetica', 'Avant Garde', sans-serif; text-anchor: middle" x="161.127952" y="340.438116" transform="rotate(-0 161.127952 340.438116)">1 sec</text>
   </g>
   <g id="legend_1">
    <g id="line2d_8">
     <path d="M 491.136 34.569938 
L 504.336 34.569938 
L 517.536 34.569938 
" style="fill: none; stroke: #85a7eb; stroke-opacity: 0.7; stroke-width: 3; stroke-linecap: square"/>
    </g>
    <g id="text_3">
     <text style="font: 13.2px 'DejaVu Sans', 'Bitstream Vera Sans', 'Computer Modern Sans Serif', 'Lucida Grande', 'Verdana', 'Geneva', 'Lucid', 'Arial', 'Helvetica', 'Avant Garde', sans-serif; text-anchor: start" x="528.096" y="39.189938" transform="rotate(-0 528.096 39.189938)">V1</text>
    </g>
    <g id="line2d_9">
     <path d="M 491.136 53.945063 
L 504.336 53.945063 
L 517.536 53.945063 
" style="fill: none; stroke: #f6cd51; stroke-opacity: 0.7; stroke-width: 3; stroke-linecap: square"/>
    </g>
    <g id="text_4">
     <text style="font: 13.2px 'DejaVu Sans', 'Bitstream Vera Sans', 'Computer Modern Sans Serif', 'Lucida Grande', 'Verdana', 'Geneva', 'Lucid', 'Arial', 'Helvetica', 'Avant Garde', sans-serif; text-anchor: start" x="528.096" y="58.565063" transform="rotate(-0 528.096 58.565063)">LM</text>
    </g>
    <g id="line2d_10">
     <path d="M 491.136 73.320188 
L 504.336 73.320188 
L 517.536 73.320188 
" style="fill: none; stroke: #d1a6de; stroke-opacity: 0.7; stroke-width: 3; stroke-linecap: square"/>
    </g>
    <g id="text_5">
     <text style="font: 13.2px 'DejaVu Sans', 'Bitstream Vera Sans', 'Computer Modern Sans Serif', 'Lucida Grande', 'Verdana', 'Geneva', 'Lucid', 'Arial', 'Helvetica', 'Avant Garde', sans-serif; text-anchor: start" x="528.096" y="77.940188" transform="rotate(-0 528.096 77.940188)">LI</text>
    </g>
   </g>
  </g>
 </g>
 <defs>
  <clipPath id="pdb0d69a883">
   <rect x="57.298182" y="17.28" width="501.421818" height="318.652376"/>
  </clipPath>
 </defs>
</svg>
