<?xml version="1.0" encoding="utf-8" standalone="no"?>
<!DOCTYPE svg PUBLIC "-//W3C//DTD SVG 1.1//EN"
  "http://www.w3.org/Graphics/SVG/1.1/DTD/svg11.dtd">
<svg xmlns:xlink="http://www.w3.org/1999/xlink" width="192.982677pt" height="152.617323pt" viewBox="0 0 192.982677 152.617323" xmlns="http://www.w3.org/2000/svg" version="1.1">
 <metadata>
  <rdf:RDF xmlns:dc="http://purl.org/dc/elements/1.1/" xmlns:cc="http://creativecommons.org/ns#" xmlns:rdf="http://www.w3.org/1999/02/22-rdf-syntax-ns#">
   <cc:Work>
    <dc:type rdf:resource="http://purl.org/dc/dcmitype/StillImage"/>
    <dc:date>2023-12-18T15:36:23.299653</dc:date>
    <dc:format>image/svg+xml</dc:format>
    <dc:creator>
     <cc:Agent>
      <dc:title>Matplotlib v3.7.2, https://matplotlib.org/</dc:title>
     </cc:Agent>
    </dc:creator>
   </cc:Work>
  </rdf:RDF>
 </metadata>
 <defs>
  <style type="text/css">*{stroke-linejoin: round; stroke-linecap: butt}</style>
 </defs>
 <g id="figure_1">
  <g id="patch_1">
   <path d="M 0 152.617323 
L 192.982677 152.617323 
L 192.982677 0 
L 0 0 
z
" style="fill: #ffffff"/>
  </g>
  <g id="axes_1">
   <g id="PolyCollection_1">
    <defs>
     <path id="md40c7cfe44" d="M 18.590122 -25.055396 
L 18.590122 -22.263048 
L 20.32126 -22.522467 
L 22.052398 -21.757032 
L 23.783536 -20.843345 
L 25.514674 -20.144692 
L 27.245812 -21.453443 
L 28.976951 -20.839561 
L 30.708089 -21.397859 
L 32.439227 -19.897257 
L 34.170365 -20.403278 
L 35.901503 -19.525892 
L 37.632641 -18.9242 
L 39.36378 -19.811246 
L 41.094918 -19.946515 
L 42.826056 -19.652385 
L 44.557194 -19.89591 
L 46.288332 -18.639104 
L 48.01947 -20.176554 
L 49.750608 -25.997997 
L 51.481747 -37.669664 
L 53.212885 -51.372735 
L 54.944023 -67.722128 
L 56.675161 -77.62636 
L 58.406299 -82.031322 
L 60.137437 -84.498374 
L 61.868576 -83.118056 
L 63.599714 -83.221703 
L 65.330852 -80.326456 
L 67.06199 -79.366977 
L 68.793128 -80.22886 
L 70.524266 -86.499415 
L 72.255404 -97.227168 
L 73.986543 -109.883898 
L 75.717681 -120.364027 
L 77.448819 -120.026888 
L 79.179957 -123.107565 
L 80.911095 -122.373466 
L 82.642233 -119.792688 
L 84.373372 -116.889626 
L 86.10451 -114.100615 
L 87.835648 -114.663972 
L 89.566786 -111.617872 
L 91.297924 -107.344198 
L 93.029062 -106.168876 
L 94.7602 -104.364828 
L 96.491339 -102.511333 
L 98.222477 -99.773887 
L 99.953615 -97.127761 
L 101.684753 -96.218386 
L 103.415891 -93.440627 
L 105.147029 -91.801871 
L 106.878168 -89.256573 
L 108.609306 -87.803979 
L 110.340444 -88.103668 
L 112.071582 -84.566374 
L 113.80272 -84.410104 
L 115.533858 -81.727505 
L 117.264996 -80.525275 
L 118.996135 -81.682362 
L 120.727273 -78.484265 
L 122.458411 -77.298456 
L 124.189549 -74.660626 
L 125.920687 -74.320847 
L 127.651825 -73.619413 
L 129.382963 -74.669455 
L 131.114102 -72.50786 
L 132.84524 -70.963056 
L 134.576378 -70.277871 
L 136.307516 -70.175252 
L 138.038654 -68.45088 
L 139.769792 -67.506224 
L 141.500931 -64.893157 
L 143.232069 -65.725299 
L 144.963207 -65.098111 
L 146.694345 -63.264975 
L 148.425483 -62.086071 
L 150.156621 -60.074217 
L 151.887759 -58.07197 
L 153.618898 -58.338356 
L 155.350036 -56.139977 
L 157.081174 -54.503077 
L 158.812312 -54.386634 
L 160.54345 -52.427222 
L 162.274588 -50.91001 
L 164.005727 -51.187689 
L 165.736865 -48.746786 
L 167.468003 -47.64561 
L 169.199141 -47.74733 
L 170.930279 -48.206355 
L 172.661417 -46.308645 
L 172.661417 -51.988808 
L 172.661417 -51.988808 
L 170.930279 -54.07823 
L 169.199141 -53.753078 
L 167.468003 -53.678772 
L 165.736865 -54.800037 
L 164.005727 -57.389404 
L 162.274588 -57.122567 
L 160.54345 -58.718524 
L 158.812312 -60.809189 
L 157.081174 -61.108814 
L 155.350036 -62.706623 
L 153.618898 -65.047421 
L 151.887759 -64.895527 
L 150.156621 -67.159473 
L 148.425483 -69.18544 
L 146.694345 -70.462977 
L 144.963207 -72.505042 
L 143.232069 -73.124775 
L 141.500931 -72.447684 
L 139.769792 -75.202271 
L 138.038654 -76.218343 
L 136.307516 -78.075931 
L 134.576378 -78.329181 
L 132.84524 -79.112872 
L 131.114102 -80.864177 
L 129.382963 -83.226009 
L 127.651825 -82.105444 
L 125.920687 -82.858938 
L 124.189549 -83.368322 
L 122.458411 -86.10981 
L 120.727273 -87.586604 
L 118.996135 -90.869446 
L 117.264996 -89.853039 
L 115.533858 -91.204485 
L 113.80272 -94.096033 
L 112.071582 -94.515392 
L 110.340444 -97.944203 
L 108.609306 -97.910713 
L 106.878168 -99.497946 
L 105.147029 -102.207777 
L 103.415891 -104.077443 
L 101.684753 -106.977164 
L 99.953615 -107.943927 
L 98.222477 -110.987226 
L 96.491339 -113.964212 
L 94.7602 -116.091867 
L 93.029062 -117.930145 
L 91.297924 -119.368141 
L 89.566786 -123.852511 
L 87.835648 -127.28997 
L 86.10451 -126.68859 
L 84.373372 -129.697119 
L 82.642233 -132.619873 
L 80.911095 -135.13464 
L 79.179957 -135.86199 
L 77.448819 -132.833884 
L 75.717681 -132.652975 
L 73.986543 -121.250702 
L 72.255404 -107.342549 
L 70.524266 -95.454178 
L 68.793128 -88.481898 
L 67.06199 -87.336157 
L 65.330852 -88.129554 
L 63.599714 -91.087188 
L 61.868576 -90.944905 
L 60.137437 -92.291726 
L 58.406299 -89.329134 
L 56.675161 -84.261875 
L 54.944023 -73.26865 
L 53.212885 -55.474486 
L 51.481747 -40.693599 
L 49.750608 -27.962635 
L 48.01947 -21.801895 
L 46.288332 -20.283904 
L 44.557194 -21.431384 
L 42.826056 -21.197574 
L 41.094918 -21.955979 
L 39.36378 -22.24785 
L 37.632641 -21.444342 
L 35.901503 -21.946019 
L 34.170365 -22.825251 
L 32.439227 -22.448004 
L 30.708089 -24.017531 
L 28.976951 -23.442158 
L 27.245812 -24.098832 
L 25.514674 -22.920516 
L 23.783536 -23.594741 
L 22.052398 -24.425711 
L 20.32126 -25.207619 
L 18.590122 -25.055396 
z
" style="stroke: #85a7eb; stroke-opacity: 0.3; stroke-width: 1.5"/>
    </defs>
    <g clip-path="url(#p23910671d3)">
     <use xlink:href="#md40c7cfe44" x="0" y="152.617323" style="fill: #85a7eb; fill-opacity: 0.3; stroke: #85a7eb; stroke-opacity: 0.3; stroke-width: 1.5"/>
    </g>
   </g>
   <g id="PolyCollection_2">
    <defs>
     <path id="m929fea5b08" d="M 18.590122 -20.173178 
L 18.590122 -18.626351 
L 20.32126 -18.854954 
L 22.052398 -19.610743 
L 23.783536 -19.400883 
L 25.514674 -18.998092 
L 27.245812 -19.658179 
L 28.976951 -18.930338 
L 30.708089 -19.123201 
L 32.439227 -18.594269 
L 34.170365 -19.04264 
L 35.901503 -18.946138 
L 37.632641 -19.765134 
L 39.36378 -19.646031 
L 41.094918 -19.215457 
L 42.826056 -19.094402 
L 44.557194 -19.018559 
L 46.288332 -19.943088 
L 48.01947 -19.933951 
L 49.750608 -23.457511 
L 51.481747 -32.412461 
L 53.212885 -44.868139 
L 54.944023 -58.220762 
L 56.675161 -69.256265 
L 58.406299 -76.936827 
L 60.137437 -80.028867 
L 61.868576 -82.442502 
L 63.599714 -82.42909 
L 65.330852 -82.859088 
L 67.06199 -81.542458 
L 68.793128 -83.023429 
L 70.524266 -88.220949 
L 72.255404 -96.558004 
L 73.986543 -105.426694 
L 75.717681 -112.85229 
L 77.448819 -116.975939 
L 79.179957 -119.992346 
L 80.911095 -119.238937 
L 82.642233 -117.78071 
L 84.373372 -117.017287 
L 86.10451 -115.196028 
L 87.835648 -113.959909 
L 89.566786 -112.221079 
L 91.297924 -109.549604 
L 93.029062 -107.798407 
L 94.7602 -105.495574 
L 96.491339 -103.919725 
L 98.222477 -102.504288 
L 99.953615 -100.129989 
L 101.684753 -98.299351 
L 103.415891 -95.961571 
L 105.147029 -94.889039 
L 106.878168 -92.872976 
L 108.609306 -91.973735 
L 110.340444 -90.036193 
L 112.071582 -88.408959 
L 113.80272 -86.759566 
L 115.533858 -86.206891 
L 117.264996 -83.80165 
L 118.996135 -82.965875 
L 120.727273 -80.690878 
L 122.458411 -80.609702 
L 124.189549 -78.541465 
L 125.920687 -77.724327 
L 127.651825 -76.976271 
L 129.382963 -75.475925 
L 131.114102 -74.695494 
L 132.84524 -73.213664 
L 134.576378 -71.480835 
L 136.307516 -70.834949 
L 138.038654 -69.316474 
L 139.769792 -68.566008 
L 141.500931 -68.605407 
L 143.232069 -67.768765 
L 144.963207 -66.08996 
L 146.694345 -65.160193 
L 148.425483 -65.525475 
L 150.156621 -63.041462 
L 151.887759 -61.717868 
L 153.618898 -61.063886 
L 155.350036 -60.568206 
L 157.081174 -59.543281 
L 158.812312 -59.350421 
L 160.54345 -58.406219 
L 162.274588 -57.640323 
L 164.005727 -57.401108 
L 165.736865 -56.940477 
L 167.468003 -55.971859 
L 169.199141 -55.82616 
L 170.930279 -54.470959 
L 172.661417 -54.155194 
L 172.661417 -58.293797 
L 172.661417 -58.293797 
L 170.930279 -58.660296 
L 169.199141 -60.121693 
L 167.468003 -60.275315 
L 165.736865 -61.356737 
L 164.005727 -61.832588 
L 162.274588 -62.194793 
L 160.54345 -62.976648 
L 158.812312 -63.925088 
L 157.081174 -64.160386 
L 155.350036 -65.317786 
L 153.618898 -65.872655 
L 151.887759 -66.622801 
L 150.156621 -68.05384 
L 148.425483 -70.582782 
L 146.694345 -70.248125 
L 144.963207 -71.245486 
L 143.232069 -73.017067 
L 141.500931 -73.992005 
L 139.769792 -73.978509 
L 138.038654 -74.831429 
L 136.307516 -76.442269 
L 134.576378 -77.113993 
L 132.84524 -78.953386 
L 131.114102 -80.660261 
L 129.382963 -81.422767 
L 127.651825 -83.061608 
L 125.920687 -83.878856 
L 124.189549 -84.847134 
L 122.458411 -86.953744 
L 120.727273 -87.121877 
L 118.996135 -89.544676 
L 117.264996 -90.489007 
L 115.533858 -92.983834 
L 113.80272 -93.740071 
L 112.071582 -95.36784 
L 110.340444 -97.161773 
L 108.609306 -99.127124 
L 106.878168 -100.187569 
L 105.147029 -102.30364 
L 103.415891 -103.442269 
L 101.684753 -105.986383 
L 99.953615 -108.011937 
L 98.222477 -110.494848 
L 96.491339 -111.955187 
L 94.7602 -113.720257 
L 93.029062 -116.095561 
L 91.297924 -118.014306 
L 89.566786 -120.791049 
L 87.835648 -122.642798 
L 86.10451 -123.859184 
L 84.373372 -125.777064 
L 82.642233 -126.522051 
L 80.911095 -127.897267 
L 79.179957 -128.598695 
L 77.448819 -125.42869 
L 75.717681 -120.896451 
L 73.986543 -112.95524 
L 72.255404 -103.381038 
L 70.524266 -94.374275 
L 68.793128 -88.753983 
L 67.06199 -87.052774 
L 65.330852 -88.322151 
L 63.599714 -87.820634 
L 61.868576 -87.713979 
L 60.137437 -85.044074 
L 58.406299 -81.658441 
L 56.675161 -73.379721 
L 54.944023 -61.650189 
L 53.212885 -47.466128 
L 51.481747 -34.173627 
L 49.750608 -24.615834 
L 48.01947 -20.813159 
L 46.288332 -20.819311 
L 44.557194 -19.846649 
L 42.826056 -19.95466 
L 41.094918 -20.26472 
L 39.36378 -20.955689 
L 37.632641 -21.147981 
L 35.901503 -20.314189 
L 34.170365 -20.370569 
L 32.439227 -19.950612 
L 30.708089 -20.499766 
L 28.976951 -20.328334 
L 27.245812 -21.09679 
L 25.514674 -20.44219 
L 23.783536 -20.87453 
L 22.052398 -21.067056 
L 20.32126 -20.390113 
L 18.590122 -20.173178 
z
" style="stroke: #f6cd51; stroke-opacity: 0.3; stroke-width: 1.5"/>
    </defs>
    <g clip-path="url(#p23910671d3)">
     <use xlink:href="#m929fea5b08" x="0" y="152.617323" style="fill: #f6cd51; fill-opacity: 0.3; stroke: #f6cd51; stroke-opacity: 0.3; stroke-width: 1.5"/>
    </g>
   </g>
   <g id="PolyCollection_3">
    <defs>
     <path id="m799fbed4d2" d="M 18.590122 -20.372019 
L 18.590122 -16.755333 
L 20.32126 -18.247146 
L 22.052398 -18.658074 
L 23.783536 -18.674524 
L 25.514674 -18.839417 
L 27.245812 -19.762237 
L 28.976951 -17.157141 
L 30.708089 -20.419628 
L 32.439227 -17.247315 
L 34.170365 -16.951526 
L 35.901503 -18.650329 
L 37.632641 -19.009357 
L 39.36378 -16.785679 
L 41.094918 -17.38711 
L 42.826056 -19.806211 
L 44.557194 -19.111453 
L 46.288332 -19.191266 
L 48.01947 -20.376882 
L 49.750608 -19.187257 
L 51.481747 -24.186955 
L 53.212885 -35.357327 
L 54.944023 -51.785281 
L 56.675161 -63.261858 
L 58.406299 -69.865807 
L 60.137437 -75.189439 
L 61.868576 -74.912891 
L 63.599714 -75.467983 
L 65.330852 -74.888146 
L 67.06199 -73.875313 
L 68.793128 -73.800824 
L 70.524266 -72.300759 
L 72.255404 -76.362272 
L 73.986543 -84.14086 
L 75.717681 -88.885133 
L 77.448819 -95.146046 
L 79.179957 -93.581437 
L 80.911095 -93.729894 
L 82.642233 -93.877513 
L 84.373372 -93.702308 
L 86.10451 -91.826482 
L 87.835648 -89.359244 
L 89.566786 -88.296817 
L 91.297924 -84.85113 
L 93.029062 -82.690599 
L 94.7602 -82.601399 
L 96.491339 -81.678595 
L 98.222477 -80.344946 
L 99.953615 -76.225821 
L 101.684753 -75.972567 
L 103.415891 -74.077821 
L 105.147029 -72.763521 
L 106.878168 -71.841097 
L 108.609306 -70.781529 
L 110.340444 -70.249748 
L 112.071582 -68.039883 
L 113.80272 -67.228527 
L 115.533858 -66.070672 
L 117.264996 -64.679775 
L 118.996135 -66.811733 
L 120.727273 -63.681478 
L 122.458411 -61.741133 
L 124.189549 -63.435533 
L 125.920687 -59.782326 
L 127.651825 -60.490357 
L 129.382963 -57.662402 
L 131.114102 -58.128723 
L 132.84524 -56.922371 
L 134.576378 -55.338795 
L 136.307516 -53.571168 
L 138.038654 -53.127907 
L 139.769792 -54.514159 
L 141.500931 -52.440814 
L 143.232069 -51.928802 
L 144.963207 -50.603424 
L 146.694345 -49.473972 
L 148.425483 -48.244919 
L 150.156621 -50.311938 
L 151.887759 -48.265105 
L 153.618898 -47.233466 
L 155.350036 -44.206773 
L 157.081174 -44.220616 
L 158.812312 -41.719567 
L 160.54345 -44.314221 
L 162.274588 -41.782068 
L 164.005727 -41.771913 
L 165.736865 -40.69103 
L 167.468003 -39.686278 
L 169.199141 -39.101019 
L 170.930279 -40.840576 
L 172.661417 -41.129116 
L 172.661417 -47.887069 
L 172.661417 -47.887069 
L 170.930279 -47.593657 
L 169.199141 -45.914906 
L 167.468003 -46.496364 
L 165.736865 -47.673 
L 164.005727 -48.794129 
L 162.274588 -48.846463 
L 160.54345 -51.391256 
L 158.812312 -48.976505 
L 157.081174 -51.653096 
L 155.350036 -51.664345 
L 153.618898 -54.808481 
L 151.887759 -55.969306 
L 150.156621 -58.156133 
L 148.425483 -56.007698 
L 146.694345 -57.432745 
L 144.963207 -58.709292 
L 143.232069 -60.275733 
L 141.500931 -60.770848 
L 139.769792 -63.120682 
L 138.038654 -62.015767 
L 136.307516 -62.375528 
L 134.576378 -64.36884 
L 132.84524 -66.458636 
L 131.114102 -67.230216 
L 129.382963 -66.973667 
L 127.651825 -70.30942 
L 125.920687 -69.542387 
L 124.189549 -73.218736 
L 122.458411 -72.053689 
L 120.727273 -74.109826 
L 118.996135 -77.208335 
L 117.264996 -75.245397 
L 115.533858 -76.951529 
L 113.80272 -78.252024 
L 112.071582 -79.2307 
L 110.340444 -81.462221 
L 108.609306 -82.280459 
L 106.878168 -83.472205 
L 105.147029 -84.668695 
L 103.415891 -86.114011 
L 101.684753 -88.169604 
L 99.953615 -88.809603 
L 98.222477 -92.982352 
L 96.491339 -94.713864 
L 94.7602 -95.677167 
L 93.029062 -96.065793 
L 91.297924 -98.526161 
L 89.566786 -101.970607 
L 87.835648 -103.300732 
L 86.10451 -105.702748 
L 84.373372 -107.852419 
L 82.642233 -107.921933 
L 80.911095 -107.693848 
L 79.179957 -107.140753 
L 77.448819 -108.147943 
L 75.717681 -101.10085 
L 73.986543 -95.10668 
L 72.255404 -85.784399 
L 70.524266 -81.683472 
L 68.793128 -82.9146 
L 67.06199 -83.377303 
L 65.330852 -84.082923 
L 63.599714 -84.810859 
L 61.868576 -83.723649 
L 60.137437 -83.41898 
L 58.406299 -77.340755 
L 56.675161 -69.204022 
L 54.944023 -56.149181 
L 53.212885 -38.521369 
L 51.481747 -26.885914 
L 49.750608 -21.471014 
L 48.01947 -22.729239 
L 46.288332 -21.457071 
L 44.557194 -21.593123 
L 42.826056 -22.300031 
L 41.094918 -20.401039 
L 39.36378 -20.22789 
L 37.632641 -22.573212 
L 35.901503 -22.021969 
L 34.170365 -20.478415 
L 32.439227 -20.608871 
L 30.708089 -24.031092 
L 28.976951 -20.87463 
L 27.245812 -23.108241 
L 25.514674 -22.483307 
L 23.783536 -21.951162 
L 22.052398 -22.02067 
L 20.32126 -21.76423 
L 18.590122 -20.372019 
z
" style="stroke: #d1a6de; stroke-opacity: 0.3; stroke-width: 1.5"/>
    </defs>
    <g clip-path="url(#p23910671d3)">
     <use xlink:href="#m799fbed4d2" x="0" y="152.617323" style="fill: #d1a6de; fill-opacity: 0.3; stroke: #d1a6de; stroke-opacity: 0.3; stroke-width: 1.5"/>
    </g>
   </g>
   <g id="line2d_1">
    <path d="M 18.590122 128.958101 
L 20.32126 128.75228 
L 22.052398 129.525952 
L 23.783536 130.39828 
L 25.514674 131.084719 
L 27.245812 129.841185 
L 28.976951 130.476463 
L 30.708089 129.909628 
L 32.439227 131.444693 
L 34.170365 131.003058 
L 35.901503 131.881367 
L 37.632641 132.433052 
L 39.36378 131.587775 
L 41.094918 131.666076 
L 42.826056 132.192343 
L 44.557194 131.953676 
L 46.288332 133.155819 
L 48.01947 131.628098 
L 49.750608 125.637007 
L 51.481747 113.435692 
L 53.212885 99.193713 
L 54.944023 82.121933 
L 56.675161 71.673205 
L 58.406299 66.937095 
L 60.137437 64.222273 
L 61.868576 65.585842 
L 63.599714 65.462877 
L 65.330852 68.389318 
L 67.06199 69.265756 
L 68.793128 68.261943 
L 70.524266 61.640527 
L 72.255404 50.332464 
L 73.986543 37.050023 
L 75.717681 26.108822 
L 77.448819 26.186937 
L 79.179957 23.132546 
L 80.911095 23.86327 
L 82.642233 26.411043 
L 84.373372 29.32395 
L 86.10451 32.22272 
L 87.835648 31.640352 
L 89.566786 34.882132 
L 91.297924 39.261153 
L 93.029062 40.567812 
L 94.7602 42.388975 
L 96.491339 44.379551 
L 98.222477 47.236766 
L 99.953615 50.081479 
L 101.684753 51.019548 
L 103.415891 53.858288 
L 105.147029 55.612499 
L 106.878168 58.240063 
L 108.609306 59.759977 
L 110.340444 59.593387 
L 112.071582 63.076439 
L 113.80272 63.364255 
L 115.533858 66.151327 
L 117.264996 67.428166 
L 118.996135 66.341419 
L 120.727273 69.581889 
L 122.458411 70.91319 
L 124.189549 73.602849 
L 125.920687 74.02743 
L 127.651825 74.754894 
L 129.382963 73.669591 
L 131.114102 75.931304 
L 132.84524 77.579359 
L 134.576378 78.313797 
L 136.307516 78.491731 
L 138.038654 80.282711 
L 139.769792 81.263075 
L 141.500931 83.946902 
L 143.232069 83.192286 
L 144.963207 83.815747 
L 146.694345 85.753347 
L 148.425483 86.981568 
L 150.156621 89.000478 
L 151.887759 91.133574 
L 153.618898 90.924434 
L 155.350036 93.194023 
L 157.081174 94.811377 
L 158.812312 95.019411 
L 160.54345 97.04445 
L 162.274588 98.601035 
L 164.005727 98.328776 
L 165.736865 100.843911 
L 167.468003 101.955132 
L 169.199141 101.867119 
L 170.930279 101.47503 
L 172.661417 103.468597 
" clip-path="url(#p23910671d3)" style="fill: none; stroke: #85a7eb; stroke-opacity: 0.7; stroke-linecap: square"/>
   </g>
   <g id="line2d_2">
    <path d="M 18.590122 133.217558 
L 20.32126 132.994789 
L 22.052398 132.278423 
L 23.783536 132.479616 
L 25.514674 132.897182 
L 27.245812 132.239839 
L 28.976951 132.987987 
L 30.708089 132.805839 
L 32.439227 133.344882 
L 34.170365 132.910718 
L 35.901503 132.987159 
L 37.632641 132.160766 
L 39.36378 132.316463 
L 41.094918 132.877234 
L 42.826056 133.092792 
L 44.557194 133.184719 
L 46.288332 132.236123 
L 48.01947 132.243768 
L 49.750608 128.580651 
L 51.481747 119.324278 
L 53.212885 106.450189 
L 54.944023 92.681847 
L 56.675161 81.29933 
L 58.406299 73.319689 
L 60.137437 70.080852 
L 61.868576 67.539082 
L 63.599714 67.492461 
L 65.330852 67.026703 
L 67.06199 68.319707 
L 68.793128 66.728617 
L 70.524266 61.319711 
L 72.255404 52.647802 
L 73.986543 43.426356 
L 75.717681 35.742952 
L 77.448819 31.415008 
L 79.179957 28.321802 
L 80.911095 29.049221 
L 82.642233 30.465942 
L 84.373372 31.220147 
L 86.10451 33.089717 
L 87.835648 34.31597 
L 89.566786 36.111259 
L 91.297924 38.835368 
L 93.029062 40.670339 
L 94.7602 43.009407 
L 96.491339 44.679867 
L 98.222477 46.117755 
L 99.953615 48.54636 
L 101.684753 50.474456 
L 103.415891 52.915403 
L 105.147029 54.020984 
L 106.878168 56.087051 
L 108.609306 57.066893 
L 110.340444 59.01834 
L 112.071582 60.728923 
L 113.80272 62.367504 
L 115.533858 63.02196 
L 117.264996 65.471994 
L 118.996135 66.362047 
L 120.727273 68.710945 
L 122.458411 68.8356 
L 124.189549 70.923023 
L 125.920687 71.815731 
L 127.651825 72.598384 
L 129.382963 74.167977 
L 131.114102 74.939445 
L 132.84524 76.533798 
L 134.576378 78.319909 
L 136.307516 78.978714 
L 138.038654 80.543371 
L 139.769792 81.345064 
L 141.500931 81.318617 
L 143.232069 82.224407 
L 144.963207 83.9496 
L 146.694345 84.913164 
L 148.425483 84.563194 
L 150.156621 87.069672 
L 151.887759 88.446989 
L 153.618898 89.149053 
L 155.350036 89.674327 
L 157.081174 90.765489 
L 158.812312 90.979568 
L 160.54345 91.925889 
L 162.274588 92.699765 
L 164.005727 93.000475 
L 165.736865 93.468716 
L 167.468003 94.493736 
L 169.199141 94.643397 
L 170.930279 96.051695 
L 172.661417 96.392827 
" clip-path="url(#p23910671d3)" style="fill: none; stroke: #f6cd51; stroke-opacity: 0.7; stroke-linecap: square"/>
   </g>
   <g id="line2d_3">
    <path d="M 18.590122 134.053647 
L 20.32126 132.611634 
L 22.052398 132.277951 
L 23.783536 132.30448 
L 25.514674 131.955961 
L 27.245812 131.182084 
L 28.976951 133.601437 
L 30.708089 130.391963 
L 32.439227 133.68923 
L 34.170365 133.902352 
L 35.901503 132.281174 
L 37.632641 131.826039 
L 39.36378 134.110538 
L 41.094918 133.723248 
L 42.826056 131.564202 
L 44.557194 132.265035 
L 46.288332 132.293154 
L 48.01947 131.064262 
L 49.750608 132.288188 
L 51.481747 127.080889 
L 53.212885 115.677975 
L 54.944023 98.650092 
L 56.675161 86.384383 
L 58.406299 79.014042 
L 60.137437 73.313113 
L 61.868576 73.299053 
L 63.599714 72.477902 
L 65.330852 73.131788 
L 67.06199 73.991015 
L 68.793128 74.259611 
L 70.524266 75.625207 
L 72.255404 71.543987 
L 73.986543 62.993553 
L 75.717681 57.624332 
L 77.448819 50.970328 
L 79.179957 52.256228 
L 80.911095 51.905452 
L 82.642233 51.7176 
L 84.373372 51.839959 
L 86.10451 53.852708 
L 87.835648 56.287335 
L 89.566786 57.483611 
L 91.297924 60.928677 
L 93.029062 63.239127 
L 94.7602 63.47804 
L 96.491339 64.421093 
L 98.222477 65.953674 
L 99.953615 70.099611 
L 101.684753 70.546238 
L 103.415891 72.521407 
L 105.147029 73.901215 
L 106.878168 74.960672 
L 108.609306 76.086329 
L 110.340444 76.761338 
L 112.071582 78.982031 
L 113.80272 79.877047 
L 115.533858 81.106222 
L 117.264996 82.654736 
L 118.996135 80.607289 
L 120.727273 83.721671 
L 122.458411 85.719912 
L 124.189549 84.290188 
L 125.920687 87.954966 
L 127.651825 87.217434 
L 129.382963 90.299288 
L 131.114102 89.937853 
L 132.84524 90.926819 
L 134.576378 92.763505 
L 136.307516 94.643974 
L 138.038654 95.045486 
L 139.769792 93.799902 
L 141.500931 96.011492 
L 143.232069 96.515055 
L 144.963207 97.960965 
L 146.694345 99.163964 
L 148.425483 100.491014 
L 150.156621 98.383287 
L 151.887759 100.500117 
L 153.618898 101.596349 
L 155.350036 104.681764 
L 157.081174 104.680467 
L 158.812312 107.269287 
L 160.54345 104.764585 
L 162.274588 107.303057 
L 164.005727 107.334302 
L 165.736865 108.435308 
L 167.468003 109.526002 
L 169.199141 110.10936 
L 170.930279 108.400206 
L 172.661417 108.10923 
" clip-path="url(#p23910671d3)" style="fill: none; stroke: #d1a6de; stroke-opacity: 0.7; stroke-linecap: square"/>
   </g>
   <g id="line2d_4">
    <path d="M 44.557194 134.332754 
L 48.002159 134.332754 
L 48.002159 134.332754 
" clip-path="url(#p23910671d3)" style="fill: none; stroke: #ff0000; stroke-opacity: 0.5; stroke-width: 1.5; stroke-linecap: square"/>
   </g>
   <g id="line2d_5">
    <path d="M 61.003006 134.332754 
L 64.447971 134.332754 
L 64.447971 134.332754 
" clip-path="url(#p23910671d3)" style="fill: none; stroke: #ff0000; stroke-opacity: 0.5; stroke-width: 1.5; stroke-linecap: square"/>
   </g>
   <g id="line2d_6">
    <path d="M 174.392555 65.181 
L 174.392555 48.106493 
" clip-path="url(#p23910671d3)" style="fill: none; stroke: #000000; stroke-linecap: square"/>
   </g>
   <g id="line2d_7">
    <path d="M 148.425483 65.181 
L 174.392555 65.181 
" clip-path="url(#p23910671d3)" style="fill: none; stroke: #000000; stroke-linecap: square"/>
   </g>
   <g id="text_1">
    <text style="font: 8px 'DejaVu Sans', 'Bitstream Vera Sans', 'Computer Modern Sans Serif', 'Lucida Grande', 'Verdana', 'Geneva', 'Lucid', 'Arial', 'Helvetica', 'Avant Garde', sans-serif; text-anchor: end" x="172.661417" y="54.58262" transform="rotate(-0 172.661417 54.58262)">0.02 dF/F</text>
   </g>
   <g id="text_2">
    <text style="font: 8px 'DejaVu Sans', 'Bitstream Vera Sans', 'Computer Modern Sans Serif', 'Lucida Grande', 'Verdana', 'Geneva', 'Lucid', 'Arial', 'Helvetica', 'Avant Garde', sans-serif; text-anchor: end" x="172.661417" y="62.722496" transform="rotate(-0 172.661417 62.722496)">0.5 sec</text>
   </g>
   <g id="legend_1">
    <g id="line2d_8">
     <path d="M 18 21.27875 
L 26 21.27875 
L 34 21.27875 
" style="fill: none; stroke: #85a7eb; stroke-opacity: 0.7; stroke-linecap: square"/>
    </g>
    <g id="text_3">
     <text style="font: 8px 'DejaVu Sans', 'Bitstream Vera Sans', 'Computer Modern Sans Serif', 'Lucida Grande', 'Verdana', 'Geneva', 'Lucid', 'Arial', 'Helvetica', 'Avant Garde', sans-serif; text-anchor: start" x="40.4" y="24.07875" transform="rotate(-0 40.4 24.07875)">V1</text>
    </g>
    <g id="line2d_9">
     <path d="M 18 33.02125 
L 26 33.02125 
L 34 33.02125 
" style="fill: none; stroke: #f6cd51; stroke-opacity: 0.7; stroke-linecap: square"/>
    </g>
    <g id="text_4">
     <text style="font: 8px 'DejaVu Sans', 'Bitstream Vera Sans', 'Computer Modern Sans Serif', 'Lucida Grande', 'Verdana', 'Geneva', 'Lucid', 'Arial', 'Helvetica', 'Avant Garde', sans-serif; text-anchor: start" x="40.4" y="35.82125" transform="rotate(-0 40.4 35.82125)">LM</text>
    </g>
    <g id="line2d_10">
     <path d="M 18 44.76375 
L 26 44.76375 
L 34 44.76375 
" style="fill: none; stroke: #d1a6de; stroke-opacity: 0.7; stroke-linecap: square"/>
    </g>
    <g id="text_5">
     <text style="font: 8px 'DejaVu Sans', 'Bitstream Vera Sans', 'Computer Modern Sans Serif', 'Lucida Grande', 'Verdana', 'Geneva', 'Lucid', 'Arial', 'Helvetica', 'Avant Garde', sans-serif; text-anchor: start" x="40.4" y="47.56375" transform="rotate(-0 40.4 47.56375)">LI</text>
    </g>
   </g>
  </g>
 </g>
 <defs>
  <clipPath id="p23910671d3">
   <rect x="10.8" y="10.8" width="171.382677" height="131.017323"/>
  </clipPath>
 </defs>
</svg>
